<svg width="188" height="30" viewBox="0 0 188 30" fill="none" xmlns="http://www.w3.org/2000/svg">
<rect width="188" height="30" rx="15" fill="#EEE5FD"/>
<path d="M39.144 19V9.9H42.836C43.5683 9.9 44.1447 10.0192 44.565 10.2575C44.9897 10.4915 45.2908 10.7948 45.4685 11.1675C45.6505 11.5358 45.7415 11.9237 45.7415 12.331C45.7415 12.7427 45.6418 13.1175 45.4425 13.4555C45.2475 13.7892 44.9463 14.0448 44.539 14.2225C44.877 14.3352 45.1587 14.4998 45.384 14.7165C45.6093 14.9332 45.7783 15.1823 45.891 15.464C46.0037 15.7457 46.06 16.0382 46.06 16.3415C46.06 16.6578 46.0058 16.9742 45.8975 17.2905C45.7935 17.6025 45.6245 17.8885 45.3905 18.1485C45.1565 18.4042 44.8445 18.61 44.4545 18.766C44.0688 18.922 43.5943 19 43.031 19H39.144ZM40.6455 17.6025H43.1415C43.5098 17.6025 43.7958 17.5397 43.9995 17.414C44.2075 17.2883 44.3505 17.1323 44.4285 16.946C44.5108 16.7553 44.552 16.5625 44.552 16.3675C44.552 16.1335 44.5043 15.9103 44.409 15.698C44.3137 15.4857 44.136 15.3145 43.876 15.1845C43.616 15.0502 43.2412 14.983 42.7515 14.983H40.6455V17.6025ZM40.6455 13.6245H42.628C43.1697 13.6245 43.5727 13.5162 43.837 13.2995C44.1013 13.0828 44.2335 12.7947 44.2335 12.435C44.2335 12.253 44.1988 12.0732 44.1295 11.8955C44.0645 11.7178 43.9345 11.5727 43.7395 11.46C43.5445 11.343 43.2585 11.2845 42.8815 11.2845H40.6455V13.6245ZM50.1454 19.156C49.5171 19.156 48.9754 19.0108 48.5204 18.7205C48.0654 18.4302 47.7166 18.025 47.4739 17.505C47.2313 16.9807 47.1099 16.3697 47.1099 15.672C47.1099 14.9483 47.2356 14.3287 47.4869 13.813C47.7383 13.293 48.0914 12.8943 48.5464 12.617C49.0014 12.3397 49.5344 12.201 50.1454 12.201C50.6698 12.201 51.1464 12.3137 51.5754 12.539C52.0088 12.7643 52.3533 13.111 52.6089 13.579C52.8646 14.0427 52.9924 14.6342 52.9924 15.3535C52.9924 15.4662 52.9903 15.6005 52.9859 15.7565C52.9816 15.9082 52.9686 16.062 52.9469 16.218H48.5594C48.5854 16.556 48.6656 16.8507 48.7999 17.102C48.9386 17.3533 49.1228 17.5505 49.3524 17.6935C49.5821 17.8322 49.8529 17.9015 50.1649 17.9015C50.4683 17.9015 50.7369 17.8517 50.9709 17.752C51.2049 17.648 51.4281 17.4833 51.6404 17.258L52.4854 18.1485C52.2124 18.4475 51.8788 18.6902 51.4844 18.8765C51.0944 19.0628 50.6481 19.156 50.1454 19.156ZM48.5659 15.0415H51.5624C51.5494 14.7252 51.4844 14.4478 51.3674 14.2095C51.2548 13.9712 51.0944 13.787 50.8864 13.657C50.6784 13.5227 50.4249 13.4555 50.1259 13.4555C49.7099 13.4555 49.3546 13.5855 49.0599 13.8455C48.7696 14.1055 48.6049 14.5042 48.5659 15.0415ZM54.1686 21.639V12.357H55.6246V12.8705C56.0276 12.4242 56.5411 12.201 57.1651 12.201C57.7327 12.201 58.2202 12.3418 58.6276 12.6235C59.0392 12.9052 59.3556 13.306 59.5766 13.826C59.8019 14.346 59.9146 14.9635 59.9146 15.6785C59.9146 16.3805 59.7997 16.9915 59.5701 17.5115C59.3404 18.0315 59.0197 18.4367 58.6081 18.727C58.1964 19.013 57.7132 19.156 57.1586 19.156C56.8336 19.156 56.5432 19.0997 56.2876 18.987C56.0362 18.87 55.8152 18.6945 55.6246 18.4605V20.9695L54.1686 21.639ZM56.9441 17.7715C57.4251 17.7715 57.7934 17.5895 58.0491 17.2255C58.3091 16.8615 58.4391 16.3458 58.4391 15.6785C58.4391 15.0198 58.3069 14.5063 58.0426 14.138C57.7782 13.7653 57.4121 13.579 56.9441 13.579C56.6581 13.579 56.4046 13.6375 56.1836 13.7545C55.9626 13.8715 55.7762 14.0405 55.6246 14.2615V17.076C55.7762 17.297 55.9669 17.4682 56.1966 17.5895C56.4262 17.7108 56.6754 17.7715 56.9441 17.7715ZM61.1552 19V12.357H62.6112V14.944H65.7247V12.357H67.1807V19H65.7247V16.218H62.6112V19H61.1552ZM69.6018 21.522L70.6093 18.87L68.1328 12.357H69.6213L71.1358 16.452C71.1792 16.556 71.2182 16.66 71.2528 16.764C71.2875 16.868 71.3178 16.9763 71.3438 17.089C71.3785 16.9763 71.4132 16.868 71.4478 16.764C71.4825 16.66 71.5172 16.556 71.5518 16.452L73.0793 12.357H74.5808L71.0968 21.522H69.6018ZM76.967 19V13.6375H75.0105V12.357H80.386V13.6375H78.4295V19H76.967ZM81.3154 19V12.357H82.7714V14.6515H84.4939C84.9532 14.6515 85.3562 14.7425 85.7029 14.9245C86.0539 15.1065 86.3269 15.3622 86.5219 15.6915C86.7169 16.0208 86.8144 16.4022 86.8144 16.8355C86.8144 17.2645 86.7169 17.6415 86.5219 17.9665C86.3269 18.2915 86.0539 18.545 85.7029 18.727C85.3562 18.909 84.9532 19 84.4939 19H81.3154ZM82.7714 17.778H84.3249C84.6369 17.778 84.8839 17.6913 85.0659 17.518C85.2522 17.3403 85.3454 17.1107 85.3454 16.829C85.3454 16.5387 85.2522 16.3068 85.0659 16.1335C84.8839 15.9602 84.6369 15.8735 84.3249 15.8735H82.7714V17.778ZM90.5896 19.156C89.9873 19.156 89.4695 19.0173 89.0361 18.74C88.6028 18.4583 88.2691 18.0575 88.0351 17.5375C87.8011 17.0175 87.6841 16.4 87.6841 15.685C87.6841 14.97 87.8033 14.3525 88.0416 13.8325C88.28 13.3082 88.618 12.9052 89.0556 12.6235C89.4933 12.3418 90.0155 12.201 90.6221 12.201C91.2678 12.201 91.8095 12.3527 92.2471 12.656C92.6848 12.955 93.0033 13.3948 93.2026 13.9755L91.8181 14.4565C91.7098 14.1748 91.5538 13.9582 91.3501 13.8065C91.1508 13.6548 90.9125 13.579 90.6351 13.579C90.1758 13.579 89.8161 13.7653 89.5561 14.138C89.2961 14.5107 89.1661 15.0263 89.1661 15.685C89.1661 16.335 89.294 16.8442 89.5496 17.2125C89.8053 17.5808 90.1563 17.765 90.6026 17.765C90.906 17.765 91.166 17.6827 91.3826 17.518C91.5993 17.349 91.7575 17.1085 91.8571 16.7965L93.2351 17.219C93.0488 17.8517 92.7281 18.3327 92.2731 18.662C91.8225 18.9913 91.2613 19.156 90.5896 19.156ZM98.2344 19V16.7055H96.4989C96.0396 16.7055 95.6344 16.6145 95.2834 16.4325C94.9368 16.2462 94.6659 15.9905 94.4709 15.6655C94.2759 15.3362 94.1784 14.9548 94.1784 14.5215C94.1784 14.0925 94.2759 13.7155 94.4709 13.3905C94.6659 13.0655 94.9368 12.812 95.2834 12.63C95.6344 12.448 96.0396 12.357 96.4989 12.357H99.6904V19H98.2344ZM93.6974 19L95.9009 16.023H97.6104L95.4069 19H93.6974ZM96.6679 15.4835H98.2344V13.579H96.6679C96.3603 13.579 96.1133 13.6657 95.9269 13.839C95.7406 14.0123 95.6474 14.242 95.6474 14.528C95.6474 14.8183 95.7406 15.0502 95.9269 15.2235C96.1133 15.3968 96.3603 15.4835 96.6679 15.4835ZM103.955 19V12.357H105.411V14.944H108.525V12.357H109.981V19H108.525V16.218H105.411V19H103.955ZM113.514 19.156C112.786 19.156 112.214 18.9588 111.798 18.5645C111.382 18.1702 111.174 17.635 111.174 16.959C111.174 16.517 111.28 16.1335 111.493 15.8085C111.705 15.4792 112.004 15.2257 112.39 15.048C112.775 14.866 113.226 14.775 113.742 14.775C114.045 14.775 114.333 14.8053 114.606 14.866C114.883 14.9223 115.13 15.009 115.347 15.126V14.697C115.347 14.2723 115.239 13.9582 115.022 13.7545C114.805 13.5465 114.478 13.4425 114.041 13.4425C113.72 13.4425 113.388 13.501 113.046 13.618C112.704 13.735 112.368 13.904 112.039 14.125L111.603 12.9615C111.967 12.7188 112.377 12.5325 112.832 12.4025C113.287 12.2682 113.744 12.201 114.203 12.201C115.057 12.201 115.696 12.409 116.121 12.825C116.55 13.2367 116.764 13.8563 116.764 14.684V19H115.347V18.441C115.113 18.6707 114.838 18.8483 114.522 18.974C114.205 19.0953 113.869 19.156 113.514 19.156ZM113.813 17.9145C114.095 17.9145 114.368 17.8538 114.632 17.7325C114.901 17.6112 115.139 17.4378 115.347 17.2125V16.309C115.152 16.2007 114.931 16.1183 114.684 16.062C114.441 16.0013 114.203 15.971 113.969 15.971C113.536 15.971 113.196 16.0598 112.949 16.2375C112.702 16.4108 112.578 16.6513 112.578 16.959C112.578 17.2537 112.686 17.4877 112.903 17.661C113.12 17.83 113.423 17.9145 113.813 17.9145ZM120.853 19V12.357H125.273V13.6375H122.309V19H120.853ZM125.927 19.156L125.219 18.0315C125.639 17.9708 125.945 17.8473 126.135 17.661C126.33 17.4747 126.447 17.1865 126.486 16.7965L126.987 12.357H132.115V19H130.653V13.6375H128.313L127.897 17.154C127.832 17.7217 127.633 18.1723 127.299 18.506C126.97 18.8397 126.512 19.0563 125.927 19.156ZM135.646 19.156C134.918 19.156 134.346 18.9588 133.93 18.5645C133.514 18.1702 133.306 17.635 133.306 16.959C133.306 16.517 133.412 16.1335 133.625 15.8085C133.837 15.4792 134.136 15.2257 134.522 15.048C134.907 14.866 135.358 14.775 135.874 14.775C136.177 14.775 136.465 14.8053 136.738 14.866C137.016 14.9223 137.263 15.009 137.479 15.126V14.697C137.479 14.2723 137.371 13.9582 137.154 13.7545C136.938 13.5465 136.61 13.4425 136.173 13.4425C135.852 13.4425 135.521 13.501 135.178 13.618C134.836 13.735 134.5 13.904 134.171 14.125L133.735 12.9615C134.099 12.7188 134.509 12.5325 134.964 12.4025C135.419 12.2682 135.876 12.201 136.335 12.201C137.189 12.201 137.828 12.409 138.253 12.825C138.682 13.2367 138.896 13.8563 138.896 14.684V19H137.479V18.441C137.245 18.6707 136.97 18.8483 136.654 18.974C136.337 19.0953 136.002 19.156 135.646 19.156ZM135.945 17.9145C136.227 17.9145 136.5 17.8538 136.764 17.7325C137.033 17.6112 137.271 17.4378 137.479 17.2125V16.309C137.284 16.2007 137.063 16.1183 136.816 16.062C136.574 16.0013 136.335 15.971 136.101 15.971C135.668 15.971 135.328 16.0598 135.081 16.2375C134.834 16.4108 134.71 16.6513 134.71 16.959C134.71 17.2537 134.819 17.4877 135.035 17.661C135.252 17.83 135.555 17.9145 135.945 17.9145ZM140.353 19V12.357H143.733C144.214 12.357 144.61 12.4372 144.922 12.5975C145.239 12.7535 145.473 12.9658 145.624 13.2345C145.78 13.4988 145.858 13.7978 145.858 14.1315C145.858 14.4565 145.785 14.7382 145.637 14.9765C145.49 15.2148 145.28 15.3947 145.007 15.516C145.379 15.6417 145.655 15.8432 145.832 16.1205C146.01 16.3935 146.099 16.699 146.099 17.037C146.099 17.3923 146.016 17.7195 145.852 18.0185C145.691 18.3132 145.447 18.5515 145.117 18.7335C144.788 18.9112 144.37 19 143.863 19H140.353ZM141.809 17.8365H143.642C143.854 17.8365 144.032 17.804 144.175 17.739C144.318 17.6697 144.426 17.5743 144.5 17.453C144.573 17.3273 144.61 17.1778 144.61 17.0045C144.61 16.8355 144.567 16.6903 144.48 16.569C144.398 16.4477 144.272 16.3545 144.103 16.2895C143.934 16.2245 143.724 16.192 143.473 16.192H141.809V17.8365ZM141.809 15.022H143.375C143.7 15.022 143.947 14.9592 144.116 14.8335C144.29 14.7035 144.376 14.5237 144.376 14.294C144.376 14.138 144.342 14.0015 144.272 13.8845C144.203 13.7675 144.101 13.6787 143.967 13.618C143.832 13.553 143.672 13.5205 143.486 13.5205H141.809V15.022ZM147.416 19V12.357H148.872V14.944H151.985V12.357H153.441V19H151.985V16.218H148.872V19H147.416ZM155.862 21.522L156.87 18.87L154.393 12.357H155.882L157.396 16.452C157.44 16.556 157.479 16.66 157.513 16.764C157.548 16.868 157.578 16.9763 157.604 17.089C157.639 16.9763 157.674 16.868 157.708 16.764C157.743 16.66 157.778 16.556 157.812 16.452L159.34 12.357H160.841L157.357 21.522H155.862ZM168.1 19.156C167.289 19.156 166.622 18.9133 166.098 18.428C165.578 17.9383 165.263 17.245 165.155 16.348H163.277V19H161.821V12.357H163.277V14.983H165.162C165.274 14.1033 165.591 13.4208 166.111 12.9355C166.635 12.4458 167.298 12.201 168.1 12.201C168.706 12.201 169.233 12.3397 169.679 12.617C170.125 12.8943 170.472 13.293 170.719 13.813C170.966 14.3287 171.09 14.9505 171.09 15.6785C171.09 16.7705 170.819 17.6242 170.277 18.2395C169.735 18.8505 169.01 19.156 168.1 19.156ZM168.1 17.7715C168.581 17.7715 168.955 17.5873 169.224 17.219C169.493 16.8463 169.627 16.3328 169.627 15.6785C169.627 15.0242 169.493 14.5107 169.224 14.138C168.96 13.7653 168.585 13.579 168.1 13.579C167.627 13.579 167.255 13.7632 166.982 14.1315C166.709 14.4998 166.572 15.0177 166.572 15.685C166.572 16.335 166.709 16.8463 166.982 17.219C167.255 17.5873 167.627 17.7715 168.1 17.7715Z" fill="#2A276E"/>
<path fill-rule="evenodd" clip-rule="evenodd" d="M22.5 9.07692C20.8731 9.07692 18.6496 9.21627 17.2612 9.31666C16.8046 9.34968 16.4461 9.68431 16.4107 10.1105C16.3031 11.4063 16.1538 13.4816 16.1538 15C16.1538 16.5184 16.3031 18.5937 16.4107 19.8895C16.4461 20.3157 16.8046 20.6503 17.2612 20.6833C18.6496 20.7837 20.8731 20.9231 22.5 20.9231C24.1269 20.9231 26.3504 20.7837 27.7388 20.6833C28.1954 20.6503 28.5539 20.3157 28.5893 19.8895C28.6969 18.5937 28.8462 16.5184 28.8462 15C28.8462 13.4816 28.6969 11.4063 28.5893 10.1105C28.5539 9.68431 28.1954 9.34968 27.7388 9.31666C26.3504 9.21627 24.1269 9.07692 22.5 9.07692ZM17.1721 8.24296C18.5611 8.14252 20.8241 8 22.5 8C24.1759 8 26.4389 8.14252 27.8279 8.24296C28.8514 8.31697 29.6604 9.07199 29.7397 10.0273C29.8473 11.3237 30 13.4358 30 15C30 16.5642 29.8473 18.6763 29.7397 19.9727C29.6604 20.928 28.8514 21.683 27.8279 21.757C26.4389 21.8575 24.1759 22 22.5 22C20.8241 22 18.5611 21.8575 17.1721 21.757C16.1486 21.683 15.3396 20.928 15.2603 19.9727C15.1527 18.6763 15 16.5642 15 15C15 13.4358 15.1527 11.3237 15.2603 10.0273C15.3396 9.07199 16.1486 8.31697 17.1721 8.24296ZM22.4953 11.723C22.7351 11.9188 22.7594 12.259 22.5496 12.4828L20.6945 14.4615H25.5769C25.8955 14.4615 26.1538 14.7026 26.1538 15C26.1538 15.2974 25.8955 15.5385 25.5769 15.5385H20.6945L22.5496 17.5172C22.7594 17.741 22.7351 18.0812 22.4953 18.277C22.2555 18.4729 21.891 18.4502 21.6812 18.2264L18.9889 15.3546C18.7986 15.1516 18.7986 14.8484 18.9889 14.6454L21.6812 11.7736C21.891 11.5498 22.2555 11.5271 22.4953 11.723Z" fill="#2A276E"/>
</svg>
