<svg width="545" height="57" viewBox="0 0 545 57" fill="none" xmlns="http://www.w3.org/2000/svg">
<path d="M7.83105 5.27344V21H5.84375V7.75488L1.83691 9.21582V7.42188L7.51953 5.27344H7.83105ZM18.0254 13.5342V15.167H12.7832V13.5342H18.0254ZM22.1182 17.8525L27.4785 9.37695H29.4766V21H27.4785V12.5244L22.1182 21H20.1416V9.37695H22.1182V17.8525ZM26.3936 5.16602H28.0049C28.0049 5.72461 27.876 6.22233 27.6182 6.65918C27.3604 7.08887 26.9915 7.42546 26.5117 7.66895C26.0319 7.91243 25.4626 8.03418 24.8037 8.03418C23.8083 8.03418 23.0205 7.76921 22.4404 7.23926C21.8675 6.70215 21.5811 6.01107 21.5811 5.16602H23.1924C23.1924 5.58854 23.3141 5.96094 23.5576 6.2832C23.8011 6.60547 24.2165 6.7666 24.8037 6.7666C25.3766 6.7666 25.7848 6.60547 26.0283 6.2832C26.2718 5.96094 26.3936 5.58854 26.3936 5.16602ZM40.2188 9.37695H42.2061L42.0342 13.7275C41.9912 14.8304 41.8659 15.7829 41.6582 16.585C41.4505 17.387 41.1855 18.071 40.8633 18.6367C40.541 19.1953 40.1794 19.6644 39.7783 20.0439C39.3844 20.4235 38.9762 20.7422 38.5537 21H37.5654L37.6191 19.3779L38.0273 19.3672C38.2637 19.0879 38.4928 18.8014 38.7148 18.5078C38.9368 18.207 39.141 17.8525 39.3271 17.4443C39.5133 17.029 39.6673 16.5241 39.7891 15.9297C39.918 15.3281 40.0003 14.5941 40.0361 13.7275L40.2188 9.37695ZM40.7129 9.37695H47.7061V21H45.7188V11.2139H40.7129V9.37695ZM37.1143 19.3672H49.1992V24.4268H47.2119V21H39.1016V24.4268H37.1035L37.1143 19.3672ZM56.2246 21.2148C55.4154 21.2148 54.6813 21.0788 54.0225 20.8066C53.3708 20.5273 52.8086 20.137 52.3359 19.6357C51.8704 19.1344 51.5124 18.54 51.2617 17.8525C51.0111 17.165 50.8857 16.4131 50.8857 15.5967V15.1455C50.8857 14.2002 51.0254 13.3587 51.3047 12.6211C51.584 11.8763 51.9635 11.2461 52.4434 10.7305C52.9232 10.2148 53.4674 9.82454 54.0762 9.55957C54.6849 9.2946 55.3151 9.16211 55.9668 9.16211C56.7975 9.16211 57.5137 9.30534 58.1152 9.5918C58.724 9.87826 59.2217 10.2793 59.6084 10.7949C59.9951 11.3034 60.2816 11.9049 60.4678 12.5996C60.654 13.2871 60.7471 14.0391 60.7471 14.8555V15.7471H52.0674V14.125H58.7598V13.9746C58.7311 13.459 58.6237 12.9577 58.4375 12.4707C58.2585 11.9837 57.972 11.5827 57.5781 11.2676C57.1842 10.9525 56.6471 10.7949 55.9668 10.7949C55.5156 10.7949 55.1003 10.8916 54.7207 11.085C54.3411 11.2712 54.0153 11.5505 53.7432 11.9229C53.471 12.2952 53.2598 12.75 53.1094 13.2871C52.959 13.8242 52.8838 14.4437 52.8838 15.1455V15.5967C52.8838 16.1481 52.959 16.6673 53.1094 17.1543C53.2669 17.6341 53.4925 18.0566 53.7861 18.4219C54.0869 18.7871 54.4486 19.0736 54.8711 19.2812C55.3008 19.4889 55.7878 19.5928 56.332 19.5928C57.0339 19.5928 57.6283 19.4495 58.1152 19.1631C58.6022 18.8766 59.0283 18.4935 59.3936 18.0137L60.5967 18.9697C60.346 19.3493 60.0273 19.7109 59.6406 20.0547C59.2539 20.3984 58.7777 20.6777 58.2119 20.8926C57.6533 21.1074 56.9909 21.2148 56.2246 21.2148ZM70.9521 14.415V16.0264H64.8076V14.415H70.9521ZM65.2266 9.37695V21H63.2393V9.37695H65.2266ZM72.5635 9.37695V21H70.5654V9.37695H72.5635ZM77.3975 13.373H80.8887C81.8268 13.373 82.6182 13.5378 83.2627 13.8672C83.9072 14.1895 84.3942 14.637 84.7236 15.21C85.0602 15.7757 85.2285 16.4202 85.2285 17.1436C85.2285 17.6807 85.1354 18.1855 84.9492 18.6582C84.763 19.1237 84.4837 19.5319 84.1113 19.8828C83.7461 20.2337 83.2913 20.5094 82.7471 20.71C82.21 20.9033 81.5905 21 80.8887 21H75.9473V9.37695H77.9346V19.3672H80.8887C81.4616 19.3672 81.9199 19.2633 82.2637 19.0557C82.6074 18.848 82.8545 18.5794 83.0049 18.25C83.1553 17.9206 83.2305 17.5768 83.2305 17.2188C83.2305 16.8678 83.1553 16.5241 83.0049 16.1875C82.8545 15.8509 82.6074 15.5716 82.2637 15.3496C81.9199 15.1204 81.4616 15.0059 80.8887 15.0059H77.3975V13.373Z" fill="#492BA0"/>
<path d="M269.782 13.4385V15.126H260.554L260.483 13.8516L266.003 5.20312H267.699L265.862 8.34961L262.689 13.4385H269.782ZM268.183 5.20312V18H266.064V5.20312H268.183ZM279.538 10.5293V12.6211C279.538 13.623 279.438 14.4785 279.239 15.1875C279.046 15.8906 278.765 16.4619 278.396 16.9014C278.026 17.3408 277.584 17.6631 277.068 17.8682C276.559 18.0732 275.987 18.1758 275.354 18.1758C274.851 18.1758 274.382 18.1113 273.948 17.9824C273.521 17.8535 273.134 17.6514 272.788 17.376C272.442 17.1006 272.146 16.7461 271.9 16.3125C271.66 15.873 271.473 15.3486 271.338 14.7393C271.209 14.1299 271.145 13.4238 271.145 12.6211V10.5293C271.145 9.52148 271.244 8.67188 271.443 7.98047C271.643 7.2832 271.927 6.71777 272.296 6.28418C272.665 5.84473 273.104 5.52539 273.614 5.32617C274.13 5.12695 274.704 5.02734 275.337 5.02734C275.847 5.02734 276.315 5.0918 276.743 5.2207C277.177 5.34375 277.563 5.54004 277.903 5.80957C278.249 6.0791 278.542 6.43066 278.782 6.86426C279.028 7.29199 279.216 7.81055 279.345 8.41992C279.474 9.02344 279.538 9.72656 279.538 10.5293ZM277.42 12.9199V10.2129C277.42 9.70312 277.391 9.25488 277.332 8.86816C277.273 8.47559 277.186 8.14453 277.068 7.875C276.957 7.59961 276.816 7.37695 276.646 7.20703C276.477 7.03125 276.283 6.90527 276.066 6.8291C275.85 6.74707 275.606 6.70605 275.337 6.70605C275.009 6.70605 274.716 6.77051 274.458 6.89941C274.2 7.02246 273.983 7.22168 273.808 7.49707C273.632 7.77246 273.497 8.13574 273.403 8.58691C273.315 9.03223 273.271 9.57422 273.271 10.2129V12.9199C273.271 13.4355 273.301 13.8896 273.359 14.2822C273.418 14.6748 273.506 15.0117 273.623 15.293C273.74 15.5684 273.881 15.7969 274.045 15.9785C274.215 16.1543 274.408 16.2832 274.625 16.3652C274.848 16.4473 275.091 16.4883 275.354 16.4883C275.688 16.4883 275.984 16.4238 276.242 16.2949C276.5 16.166 276.717 15.9609 276.893 15.6797C277.068 15.3926 277.2 15.0205 277.288 14.5635C277.376 14.1064 277.42 13.5586 277.42 12.9199ZM289.769 10.5293V12.6211C289.769 13.623 289.669 14.4785 289.47 15.1875C289.276 15.8906 288.995 16.4619 288.626 16.9014C288.257 17.3408 287.814 17.6631 287.299 17.8682C286.789 18.0732 286.218 18.1758 285.585 18.1758C285.081 18.1758 284.612 18.1113 284.179 17.9824C283.751 17.8535 283.364 17.6514 283.019 17.376C282.673 17.1006 282.377 16.7461 282.131 16.3125C281.891 15.873 281.703 15.3486 281.568 14.7393C281.439 14.1299 281.375 13.4238 281.375 12.6211V10.5293C281.375 9.52148 281.475 8.67188 281.674 7.98047C281.873 7.2832 282.157 6.71777 282.526 6.28418C282.896 5.84473 283.335 5.52539 283.845 5.32617C284.36 5.12695 284.935 5.02734 285.567 5.02734C286.077 5.02734 286.546 5.0918 286.974 5.2207C287.407 5.34375 287.794 5.54004 288.134 5.80957C288.479 6.0791 288.772 6.43066 289.013 6.86426C289.259 7.29199 289.446 7.81055 289.575 8.41992C289.704 9.02344 289.769 9.72656 289.769 10.5293ZM287.65 12.9199V10.2129C287.65 9.70312 287.621 9.25488 287.562 8.86816C287.504 8.47559 287.416 8.14453 287.299 7.875C287.188 7.59961 287.047 7.37695 286.877 7.20703C286.707 7.03125 286.514 6.90527 286.297 6.8291C286.08 6.74707 285.837 6.70605 285.567 6.70605C285.239 6.70605 284.946 6.77051 284.688 6.89941C284.431 7.02246 284.214 7.22168 284.038 7.49707C283.862 7.77246 283.728 8.13574 283.634 8.58691C283.546 9.03223 283.502 9.57422 283.502 10.2129V12.9199C283.502 13.4355 283.531 13.8896 283.59 14.2822C283.648 14.6748 283.736 15.0117 283.854 15.293C283.971 15.5684 284.111 15.7969 284.275 15.9785C284.445 16.1543 284.639 16.2832 284.855 16.3652C285.078 16.4473 285.321 16.4883 285.585 16.4883C285.919 16.4883 286.215 16.4238 286.473 16.2949C286.73 16.166 286.947 15.9609 287.123 15.6797C287.299 15.3926 287.431 15.0205 287.519 14.5635C287.606 14.1064 287.65 13.5586 287.65 12.9199ZM301.915 15.4336L304.745 8.49023H306.582L302.636 18H301.194L297.257 8.49023H299.094L301.915 15.4336ZM298.549 8.49023V18H296.431V8.49023H298.549ZM305.281 18V8.49023H307.408V18H305.281ZM316.109 8.49023V10.1777H311.961V18H309.843V8.49023H316.109Z" fill="#492BA0"/>
<path d="M414.545 16.3125V18H405.967V16.5498L410.133 12.0059C410.59 11.4902 410.95 11.0449 411.214 10.6699C411.478 10.2949 411.662 9.95801 411.768 9.65918C411.879 9.35449 411.935 9.05859 411.935 8.77148C411.935 8.36719 411.858 8.0127 411.706 7.70801C411.56 7.39746 411.343 7.1543 411.056 6.97852C410.769 6.79687 410.42 6.70605 410.01 6.70605C409.535 6.70605 409.137 6.80859 408.814 7.01367C408.492 7.21875 408.249 7.50293 408.085 7.86621C407.921 8.22363 407.839 8.63379 407.839 9.09668H405.721C405.721 8.35254 405.891 7.67285 406.23 7.05762C406.57 6.43652 407.062 5.94434 407.707 5.58105C408.352 5.21191 409.128 5.02734 410.036 5.02734C410.892 5.02734 411.618 5.1709 412.216 5.45801C412.813 5.74512 413.268 6.15234 413.578 6.67969C413.895 7.20703 414.053 7.83105 414.053 8.55176C414.053 8.9502 413.988 9.3457 413.859 9.73828C413.73 10.1309 413.546 10.5234 413.306 10.916C413.071 11.3027 412.793 11.6924 412.471 12.085C412.148 12.4717 411.794 12.8643 411.407 13.2627L408.639 16.3125H414.545ZM424.538 10.5293V12.6211C424.538 13.623 424.438 14.4785 424.239 15.1875C424.046 15.8906 423.765 16.4619 423.396 16.9014C423.026 17.3408 422.584 17.6631 422.068 17.8682C421.559 18.0732 420.987 18.1758 420.354 18.1758C419.851 18.1758 419.382 18.1113 418.948 17.9824C418.521 17.8535 418.134 17.6514 417.788 17.376C417.442 17.1006 417.146 16.7461 416.9 16.3125C416.66 15.873 416.473 15.3486 416.338 14.7393C416.209 14.1299 416.145 13.4238 416.145 12.6211V10.5293C416.145 9.52148 416.244 8.67188 416.443 7.98047C416.643 7.2832 416.927 6.71777 417.296 6.28418C417.665 5.84473 418.104 5.52539 418.614 5.32617C419.13 5.12695 419.704 5.02734 420.337 5.02734C420.847 5.02734 421.315 5.0918 421.743 5.2207C422.177 5.34375 422.563 5.54004 422.903 5.80957C423.249 6.0791 423.542 6.43066 423.782 6.86426C424.028 7.29199 424.216 7.81055 424.345 8.41992C424.474 9.02344 424.538 9.72656 424.538 10.5293ZM422.42 12.9199V10.2129C422.42 9.70312 422.391 9.25488 422.332 8.86816C422.273 8.47559 422.186 8.14453 422.068 7.875C421.957 7.59961 421.816 7.37695 421.646 7.20703C421.477 7.03125 421.283 6.90527 421.066 6.8291C420.85 6.74707 420.606 6.70605 420.337 6.70605C420.009 6.70605 419.716 6.77051 419.458 6.89941C419.2 7.02246 418.983 7.22168 418.808 7.49707C418.632 7.77246 418.497 8.13574 418.403 8.58691C418.315 9.03223 418.271 9.57422 418.271 10.2129V12.9199C418.271 13.4355 418.301 13.8896 418.359 14.2822C418.418 14.6748 418.506 15.0117 418.623 15.293C418.74 15.5684 418.881 15.7969 419.045 15.9785C419.215 16.1543 419.408 16.2832 419.625 16.3652C419.848 16.4473 420.091 16.4883 420.354 16.4883C420.688 16.4883 420.984 16.4238 421.242 16.2949C421.5 16.166 421.717 15.9609 421.893 15.6797C422.068 15.3926 422.2 15.0205 422.288 14.5635C422.376 14.1064 422.42 13.5586 422.42 12.9199ZM434.769 10.5293V12.6211C434.769 13.623 434.669 14.4785 434.47 15.1875C434.276 15.8906 433.995 16.4619 433.626 16.9014C433.257 17.3408 432.814 17.6631 432.299 17.8682C431.789 18.0732 431.218 18.1758 430.585 18.1758C430.081 18.1758 429.612 18.1113 429.179 17.9824C428.751 17.8535 428.364 17.6514 428.019 17.376C427.673 17.1006 427.377 16.7461 427.131 16.3125C426.891 15.873 426.703 15.3486 426.568 14.7393C426.439 14.1299 426.375 13.4238 426.375 12.6211V10.5293C426.375 9.52148 426.475 8.67188 426.674 7.98047C426.873 7.2832 427.157 6.71777 427.526 6.28418C427.896 5.84473 428.335 5.52539 428.845 5.32617C429.36 5.12695 429.935 5.02734 430.567 5.02734C431.077 5.02734 431.546 5.0918 431.974 5.2207C432.407 5.34375 432.794 5.54004 433.134 5.80957C433.479 6.0791 433.772 6.43066 434.013 6.86426C434.259 7.29199 434.446 7.81055 434.575 8.41992C434.704 9.02344 434.769 9.72656 434.769 10.5293ZM432.65 12.9199V10.2129C432.65 9.70312 432.621 9.25488 432.562 8.86816C432.504 8.47559 432.416 8.14453 432.299 7.875C432.188 7.59961 432.047 7.37695 431.877 7.20703C431.707 7.03125 431.514 6.90527 431.297 6.8291C431.08 6.74707 430.837 6.70605 430.567 6.70605C430.239 6.70605 429.946 6.77051 429.688 6.89941C429.431 7.02246 429.214 7.22168 429.038 7.49707C428.862 7.77246 428.728 8.13574 428.634 8.58691C428.546 9.03223 428.502 9.57422 428.502 10.2129V12.9199C428.502 13.4355 428.531 13.8896 428.59 14.2822C428.648 14.6748 428.736 15.0117 428.854 15.293C428.971 15.5684 429.111 15.7969 429.275 15.9785C429.445 16.1543 429.639 16.2832 429.855 16.3652C430.078 16.4473 430.321 16.4883 430.585 16.4883C430.919 16.4883 431.215 16.4238 431.473 16.2949C431.73 16.166 431.947 15.9609 432.123 15.6797C432.299 15.3926 432.431 15.0205 432.519 14.5635C432.606 14.1064 432.65 13.5586 432.65 12.9199ZM446.915 15.4336L449.745 8.49023H451.582L447.636 18H446.194L442.257 8.49023H444.094L446.915 15.4336ZM443.549 8.49023V18H441.431V8.49023H443.549ZM450.281 18V8.49023H452.408V18H450.281ZM461.109 8.49023V10.1777H456.961V18H454.843V8.49023H461.109Z" fill="#492BA0"/>
<path d="M405.916 36.0215V35.9531C405.916 34.9596 406.028 34.0618 406.251 33.2598C406.474 32.4531 406.759 31.7467 407.105 31.1406C407.452 30.5345 407.816 30.0332 408.199 29.6367C408.582 29.2357 408.935 28.9463 409.259 28.7686L409.525 29.6025C409.257 29.8076 408.983 30.0902 408.705 30.4502C408.432 30.8102 408.179 31.2523 407.946 31.7764C407.718 32.3005 407.534 32.9089 407.393 33.6016C407.251 34.2943 407.181 35.0736 407.181 35.9395V36.0352C407.181 36.901 407.251 37.6826 407.393 38.3799C407.534 39.0726 407.718 39.6833 407.946 40.2119C408.179 40.7406 408.432 41.1895 408.705 41.5586C408.983 41.9323 409.257 42.2285 409.525 42.4473L409.259 43.2129C408.935 43.0352 408.582 42.7458 408.199 42.3447C407.816 41.9482 407.452 41.4469 407.105 40.8408C406.759 40.2393 406.474 39.5352 406.251 38.7285C406.028 37.9219 405.916 37.0195 405.916 36.0215ZM415.691 32.6035V33.6494H411.952V32.6035H415.691ZM412.137 32.6035V40H410.872V32.6035H412.137ZM416.812 32.6035V40H415.541V32.6035H416.812ZM420.107 34.0254V42.8438H418.836V32.6035H419.998L420.107 34.0254ZM425.091 36.2402V36.3838C425.091 36.9215 425.027 37.4206 424.899 37.8809C424.772 38.3366 424.585 38.7331 424.339 39.0703C424.097 39.4076 423.799 39.6696 423.443 39.8564C423.088 40.0433 422.68 40.1367 422.22 40.1367C421.75 40.1367 421.336 40.0592 420.976 39.9043C420.616 39.7493 420.31 39.5238 420.06 39.2275C419.809 38.9313 419.608 38.5758 419.458 38.1611C419.312 37.7464 419.212 37.2793 419.157 36.7598V35.9941C419.212 35.4473 419.314 34.9574 419.465 34.5244C419.615 34.0915 419.813 33.7223 420.06 33.417C420.31 33.1071 420.613 32.8724 420.969 32.7129C421.324 32.5488 421.734 32.4668 422.199 32.4668C422.664 32.4668 423.076 32.5579 423.437 32.7402C423.797 32.918 424.1 33.1732 424.346 33.5059C424.592 33.8385 424.776 34.2373 424.899 34.7021C425.027 35.1624 425.091 35.6751 425.091 36.2402ZM423.819 36.3838V36.2402C423.819 35.8711 423.781 35.5247 423.703 35.2012C423.626 34.873 423.505 34.5859 423.341 34.3398C423.181 34.0892 422.976 33.8932 422.726 33.752C422.475 33.6061 422.176 33.5332 421.83 33.5332C421.511 33.5332 421.233 33.5879 420.996 33.6973C420.764 33.8066 420.565 33.9548 420.401 34.1416C420.237 34.3239 420.103 34.5335 419.998 34.7705C419.898 35.0029 419.823 35.2445 419.772 35.4951V37.2656C419.864 37.5846 419.991 37.8854 420.155 38.168C420.319 38.446 420.538 38.6715 420.812 38.8447C421.085 39.0133 421.429 39.0977 421.844 39.0977C422.186 39.0977 422.479 39.027 422.726 38.8857C422.976 38.7399 423.181 38.5417 423.341 38.291C423.505 38.0404 423.626 37.7533 423.703 37.4297C423.781 37.1016 423.819 36.7529 423.819 36.3838ZM428.071 37.9971L431.482 32.6035H432.754V40H431.482V34.6064L428.071 40H426.813V32.6035H428.071V37.9971ZM443.274 35.8096V36.835H439.364V35.8096H443.274ZM439.631 32.6035V40H438.366V32.6035H439.631ZM444.3 32.6035V40H443.028V32.6035H444.3ZM449.406 40.1367C448.891 40.1367 448.424 40.0501 448.005 39.877C447.59 39.6992 447.232 39.4508 446.932 39.1318C446.635 38.8128 446.408 38.4346 446.248 37.9971C446.089 37.5596 446.009 37.0811 446.009 36.5615V36.2744C446.009 35.6729 446.098 35.1374 446.275 34.668C446.453 34.194 446.695 33.793 447 33.4648C447.305 33.1367 447.652 32.8883 448.039 32.7197C448.426 32.5511 448.827 32.4668 449.242 32.4668C449.771 32.4668 450.227 32.5579 450.609 32.7402C450.997 32.9225 451.313 33.1777 451.56 33.5059C451.806 33.8294 451.988 34.2122 452.106 34.6543C452.225 35.0918 452.284 35.5703 452.284 36.0898V36.6572H446.761V35.625H451.02V35.5293C451.001 35.2012 450.933 34.8822 450.814 34.5723C450.701 34.2624 450.518 34.0072 450.268 33.8066C450.017 33.6061 449.675 33.5059 449.242 33.5059C448.955 33.5059 448.691 33.5674 448.449 33.6904C448.208 33.8089 448 33.9867 447.827 34.2236C447.654 34.4606 447.52 34.75 447.424 35.0918C447.328 35.4336 447.28 35.8278 447.28 36.2744V36.5615C447.28 36.9124 447.328 37.2428 447.424 37.5527C447.524 37.8581 447.668 38.127 447.854 38.3594C448.046 38.5918 448.276 38.7741 448.545 38.9062C448.818 39.0384 449.128 39.1045 449.475 39.1045C449.921 39.1045 450.299 39.0133 450.609 38.8311C450.919 38.6488 451.19 38.4049 451.423 38.0996L452.188 38.708C452.029 38.9495 451.826 39.1797 451.58 39.3984C451.334 39.6172 451.031 39.7949 450.671 39.9316C450.315 40.0684 449.894 40.1367 449.406 40.1367ZM453.426 36.3838V36.2266C453.426 35.6934 453.503 35.1989 453.658 34.7432C453.813 34.2829 454.036 33.8841 454.328 33.5469C454.62 33.2051 454.973 32.9408 455.388 32.7539C455.802 32.5625 456.267 32.4668 456.782 32.4668C457.302 32.4668 457.769 32.5625 458.184 32.7539C458.603 32.9408 458.958 33.2051 459.25 33.5469C459.546 33.8841 459.772 34.2829 459.927 34.7432C460.082 35.1989 460.159 35.6934 460.159 36.2266V36.3838C460.159 36.917 460.082 37.4115 459.927 37.8672C459.772 38.3229 459.546 38.7217 459.25 39.0635C458.958 39.4007 458.605 39.665 458.19 39.8564C457.78 40.0433 457.315 40.1367 456.796 40.1367C456.276 40.1367 455.809 40.0433 455.395 39.8564C454.98 39.665 454.624 39.4007 454.328 39.0635C454.036 38.7217 453.813 38.3229 453.658 37.8672C453.503 37.4115 453.426 36.917 453.426 36.3838ZM454.69 36.2266V36.3838C454.69 36.7529 454.734 37.1016 454.82 37.4297C454.907 37.7533 455.037 38.0404 455.21 38.291C455.388 38.5417 455.609 38.7399 455.873 38.8857C456.137 39.027 456.445 39.0977 456.796 39.0977C457.142 39.0977 457.445 39.027 457.705 38.8857C457.969 38.7399 458.188 38.5417 458.361 38.291C458.535 38.0404 458.664 37.7533 458.751 37.4297C458.842 37.1016 458.888 36.7529 458.888 36.3838V36.2266C458.888 35.862 458.842 35.5179 458.751 35.1943C458.664 34.8662 458.532 34.5768 458.354 34.3262C458.181 34.071 457.963 33.8704 457.698 33.7246C457.438 33.5788 457.133 33.5059 456.782 33.5059C456.436 33.5059 456.131 33.5788 455.866 33.7246C455.606 33.8704 455.388 34.071 455.21 34.3262C455.037 34.5768 454.907 34.8662 454.82 35.1943C454.734 35.5179 454.69 35.862 454.69 36.2266ZM466.489 29.3838H467.528C467.528 29.8304 467.46 30.1859 467.323 30.4502C467.187 30.71 467 30.9105 466.763 31.0518C466.53 31.193 466.266 31.3001 465.97 31.373C465.678 31.446 465.375 31.5166 465.061 31.585C464.669 31.667 464.304 31.7969 463.967 31.9746C463.634 32.1478 463.347 32.3939 463.105 32.7129C462.868 33.0319 462.693 33.4466 462.579 33.957C462.47 34.4674 462.44 35.0986 462.49 35.8506V36.4795H461.451V35.8506C461.451 35.0075 461.531 34.2715 461.69 33.6426C461.854 33.0137 462.085 32.4827 462.381 32.0498C462.677 31.6169 463.028 31.2728 463.434 31.0176C463.844 30.7624 464.295 30.5869 464.787 30.4912C465.143 30.4229 465.448 30.3499 465.703 30.2725C465.958 30.1904 466.152 30.0811 466.284 29.9443C466.421 29.8076 466.489 29.6208 466.489 29.3838ZM464.992 33.0273C465.475 33.0273 465.906 33.1117 466.284 33.2803C466.662 33.4489 466.984 33.6836 467.248 33.9844C467.512 34.2852 467.713 34.6406 467.85 35.0508C467.991 35.4564 468.062 35.8984 468.062 36.377V36.5273C468.062 37.0423 467.986 37.5208 467.836 37.9629C467.69 38.4004 467.474 38.7832 467.187 39.1113C466.904 39.4349 466.558 39.6878 466.147 39.8701C465.742 40.0524 465.279 40.1436 464.76 40.1436C464.24 40.1436 463.775 40.0524 463.365 39.8701C462.96 39.6878 462.613 39.4349 462.326 39.1113C462.039 38.7832 461.82 38.4004 461.67 37.9629C461.524 37.5208 461.451 37.0423 461.451 36.5273V36.377C461.451 36.263 461.472 36.1514 461.513 36.042C461.554 35.9326 461.604 35.821 461.663 35.707C461.727 35.5931 461.784 35.4723 461.834 35.3447C462.003 34.9346 462.233 34.554 462.524 34.2031C462.821 33.8522 463.174 33.5697 463.584 33.3555C463.999 33.1367 464.468 33.0273 464.992 33.0273ZM464.746 34.0596C464.281 34.0596 463.898 34.1667 463.598 34.3809C463.301 34.5951 463.08 34.8799 462.935 35.2354C462.789 35.5863 462.716 35.9668 462.716 36.377V36.5273C462.716 36.8737 462.757 37.2018 462.839 37.5117C462.921 37.8216 463.044 38.0973 463.208 38.3389C463.377 38.5758 463.589 38.7627 463.844 38.8994C464.104 39.0361 464.409 39.1045 464.76 39.1045C465.111 39.1045 465.414 39.0361 465.669 38.8994C465.924 38.7627 466.134 38.5758 466.298 38.3389C466.462 38.0973 466.585 37.8216 466.667 37.5117C466.749 37.2018 466.79 36.8737 466.79 36.5273V36.377C466.79 36.0671 466.749 35.7731 466.667 35.4951C466.585 35.2171 466.46 34.971 466.291 34.7568C466.127 34.5426 465.915 34.374 465.655 34.251C465.4 34.1234 465.097 34.0596 464.746 34.0596ZM470.242 32.6035L471.862 35.2969L473.503 32.6035H474.986L472.566 36.2539L475.062 40H473.599L471.89 37.2246L470.181 40H468.711L471.199 36.2539L468.786 32.6035H470.242ZM475.861 36.3838V36.2266C475.861 35.6934 475.939 35.1989 476.094 34.7432C476.249 34.2829 476.472 33.8841 476.764 33.5469C477.055 33.2051 477.409 32.9408 477.823 32.7539C478.238 32.5625 478.703 32.4668 479.218 32.4668C479.737 32.4668 480.204 32.5625 480.619 32.7539C481.038 32.9408 481.394 33.2051 481.686 33.5469C481.982 33.8841 482.207 34.2829 482.362 34.7432C482.517 35.1989 482.595 35.6934 482.595 36.2266V36.3838C482.595 36.917 482.517 37.4115 482.362 37.8672C482.207 38.3229 481.982 38.7217 481.686 39.0635C481.394 39.4007 481.041 39.665 480.626 39.8564C480.216 40.0433 479.751 40.1367 479.231 40.1367C478.712 40.1367 478.245 40.0433 477.83 39.8564C477.415 39.665 477.06 39.4007 476.764 39.0635C476.472 38.7217 476.249 38.3229 476.094 37.8672C475.939 37.4115 475.861 36.917 475.861 36.3838ZM477.126 36.2266V36.3838C477.126 36.7529 477.169 37.1016 477.256 37.4297C477.342 37.7533 477.472 38.0404 477.646 38.291C477.823 38.5417 478.044 38.7399 478.309 38.8857C478.573 39.027 478.881 39.0977 479.231 39.0977C479.578 39.0977 479.881 39.027 480.141 38.8857C480.405 38.7399 480.624 38.5417 480.797 38.291C480.97 38.0404 481.1 37.7533 481.187 37.4297C481.278 37.1016 481.323 36.7529 481.323 36.3838V36.2266C481.323 35.862 481.278 35.5179 481.187 35.1943C481.1 34.8662 480.968 34.5768 480.79 34.3262C480.617 34.071 480.398 33.8704 480.134 33.7246C479.874 33.5788 479.569 33.5059 479.218 33.5059C478.871 33.5059 478.566 33.5788 478.302 33.7246C478.042 33.8704 477.823 34.071 477.646 34.3262C477.472 34.5768 477.342 34.8662 477.256 35.1943C477.169 35.5179 477.126 35.862 477.126 36.2266ZM485.021 32.6035H486.286L486.177 35.3721C486.149 36.0739 486.07 36.68 485.938 37.1904C485.805 37.7008 485.637 38.1361 485.432 38.4961C485.227 38.8516 484.996 39.1501 484.741 39.3916C484.491 39.6331 484.231 39.8359 483.962 40H483.333L483.367 38.9678L483.627 38.9609C483.777 38.7832 483.923 38.6009 484.064 38.4141C484.206 38.2227 484.336 37.9971 484.454 37.7373C484.573 37.473 484.671 37.1517 484.748 36.7734C484.83 36.3906 484.882 35.9235 484.905 35.3721L485.021 32.6035ZM485.336 32.6035H489.786V40H488.521V33.7725H485.336V32.6035ZM483.046 38.9609H490.736V42.1807H489.472V40H484.311V42.1807H483.039L483.046 38.9609ZM493.505 37.9971L496.916 32.6035H498.188V40H496.916V34.6064L493.505 40H492.247V32.6035H493.505V37.9971ZM504.47 38.3184L506.985 32.6035H508.202L504.907 40H504.032L500.751 32.6035H501.968L504.47 38.3184ZM501.599 32.6035V40H500.334V32.6035H501.599ZM507.3 40V32.6035H508.571V40H507.3ZM510.273 36.3838V36.2266C510.273 35.6934 510.351 35.1989 510.506 34.7432C510.661 34.2829 510.884 33.8841 511.176 33.5469C511.467 33.2051 511.821 32.9408 512.235 32.7539C512.65 32.5625 513.115 32.4668 513.63 32.4668C514.149 32.4668 514.617 32.5625 515.031 32.7539C515.451 32.9408 515.806 33.2051 516.098 33.5469C516.394 33.8841 516.619 34.2829 516.774 34.7432C516.929 35.1989 517.007 35.6934 517.007 36.2266V36.3838C517.007 36.917 516.929 37.4115 516.774 37.8672C516.619 38.3229 516.394 38.7217 516.098 39.0635C515.806 39.4007 515.453 39.665 515.038 39.8564C514.628 40.0433 514.163 40.1367 513.644 40.1367C513.124 40.1367 512.657 40.0433 512.242 39.8564C511.827 39.665 511.472 39.4007 511.176 39.0635C510.884 38.7217 510.661 38.3229 510.506 37.8672C510.351 37.4115 510.273 36.917 510.273 36.3838ZM511.538 36.2266V36.3838C511.538 36.7529 511.581 37.1016 511.668 37.4297C511.755 37.7533 511.884 38.0404 512.058 38.291C512.235 38.5417 512.456 38.7399 512.721 38.8857C512.985 39.027 513.293 39.0977 513.644 39.0977C513.99 39.0977 514.293 39.027 514.553 38.8857C514.817 38.7399 515.036 38.5417 515.209 38.291C515.382 38.0404 515.512 37.7533 515.599 37.4297C515.69 37.1016 515.735 36.7529 515.735 36.3838V36.2266C515.735 35.862 515.69 35.5179 515.599 35.1943C515.512 34.8662 515.38 34.5768 515.202 34.3262C515.029 34.071 514.81 33.8704 514.546 33.7246C514.286 33.5788 513.981 33.5059 513.63 33.5059C513.284 33.5059 512.978 33.5788 512.714 33.7246C512.454 33.8704 512.235 34.071 512.058 34.3262C511.884 34.5768 511.755 34.8662 511.668 35.1943C511.581 35.5179 511.538 35.862 511.538 36.2266ZM521.553 39.0977C521.854 39.0977 522.132 39.0361 522.387 38.9131C522.642 38.79 522.852 38.6214 523.016 38.4072C523.18 38.1885 523.273 37.9401 523.296 37.6621H524.499C524.476 38.0996 524.328 38.5075 524.055 38.8857C523.786 39.2594 523.433 39.5625 522.995 39.7949C522.558 40.0228 522.077 40.1367 521.553 40.1367C520.997 40.1367 520.511 40.0387 520.097 39.8428C519.687 39.6468 519.345 39.3779 519.071 39.0361C518.802 38.6943 518.6 38.3024 518.463 37.8604C518.331 37.4137 518.265 36.9421 518.265 36.4453V36.1582C518.265 35.6615 518.331 35.1921 518.463 34.75C518.6 34.3034 518.802 33.9092 519.071 33.5674C519.345 33.2256 519.687 32.9567 520.097 32.7607C520.511 32.5648 520.997 32.4668 521.553 32.4668C522.132 32.4668 522.637 32.5853 523.07 32.8223C523.503 33.0547 523.843 33.3737 524.089 33.7793C524.34 34.1803 524.476 34.6361 524.499 35.1465H523.296C523.273 34.8411 523.187 34.5654 523.036 34.3193C522.89 34.0732 522.69 33.8773 522.435 33.7314C522.184 33.5811 521.89 33.5059 521.553 33.5059C521.165 33.5059 520.84 33.5833 520.575 33.7383C520.315 33.8887 520.108 34.0938 519.953 34.3535C519.803 34.6087 519.693 34.8936 519.625 35.208C519.561 35.5179 519.529 35.8346 519.529 36.1582V36.4453C519.529 36.7689 519.561 37.0879 519.625 37.4023C519.689 37.7168 519.796 38.0016 519.946 38.2568C520.101 38.512 520.309 38.7171 520.568 38.8721C520.833 39.0225 521.161 39.0977 521.553 39.0977ZM528.936 32.6035V40H527.664V32.6035H528.936ZM531.417 32.6035V33.6289H525.23V32.6035H531.417ZM534.028 37.9971L537.439 32.6035H538.711V40H537.439V34.6064L534.028 40H532.771V32.6035H534.028V37.9971ZM543.653 35.9531V36.0215C543.653 37.0195 543.542 37.9219 543.318 38.7285C543.095 39.5352 542.81 40.2393 542.464 40.8408C542.118 41.4469 541.753 41.9482 541.37 42.3447C540.987 42.7458 540.634 43.0352 540.311 43.2129L540.044 42.4473C540.313 42.2422 540.584 41.9551 540.857 41.5859C541.131 41.2214 541.384 40.7702 541.616 40.2324C541.849 39.6992 542.035 39.084 542.177 38.3867C542.318 37.6849 542.389 36.901 542.389 36.0352V35.9395C542.389 35.0736 542.313 34.292 542.163 33.5947C542.013 32.8929 541.817 32.2754 541.575 31.7422C541.338 31.209 541.083 30.7601 540.81 30.3955C540.541 30.0264 540.285 29.7415 540.044 29.541L540.311 28.7686C540.634 28.9463 540.987 29.2357 541.37 29.6367C541.753 30.0332 542.118 30.5345 542.464 31.1406C542.81 31.7467 543.095 32.4531 543.318 33.2598C543.542 34.0618 543.653 34.9596 543.653 35.9531Z" fill="#4B5563"/>
<path d="M240 0C237.028 0 234.609 2.41823 234.609 5.39062V18.6094C234.609 21.5818 237.028 24 240 24C242.972 24 245.391 21.5818 245.391 18.6094V5.39062C245.391 2.41823 242.972 0 240 0ZM243.984 12H236.016V5.39062C236.016 3.19364 237.803 1.40625 240 1.40625C242.197 1.40625 243.984 3.19364 243.984 5.39062V12Z" fill="#492BA0"/>
<path d="M216 0C213.028 0 210.609 2.41823 210.609 5.39062V18.6094C210.609 21.5818 213.028 24 216 24C218.972 24 221.391 21.5818 221.391 18.6094V5.39062C221.391 2.41823 218.972 0 216 0ZM219.984 12H212.016V5.39062C212.016 3.19364 213.803 1.40625 216 1.40625C218.197 1.40625 219.984 3.19364 219.984 5.39062V12Z" fill="#492BA0"/>
<path d="M385 0C382.028 0 379.609 2.41823 379.609 5.39062V18.6094C379.609 21.5818 382.028 24 385 24C387.972 24 390.391 21.5818 390.391 18.6094V5.39062C390.391 2.41823 387.972 0 385 0ZM388.984 12H381.016V5.39062C381.016 3.19364 382.803 1.40625 385 1.40625C387.197 1.40625 388.984 3.19364 388.984 5.39062V12Z" fill="#492BA0"/>
<path fill-rule="evenodd" clip-rule="evenodd" d="M345 21.6C347.546 21.6 349.988 20.5886 351.789 18.7882C353.589 16.9879 354.6 14.5461 354.6 12C354.6 9.45394 353.589 7.01215 351.789 5.2118C349.988 3.41145 347.546 2.40002 345 2.40002C342.454 2.40002 340.013 3.41145 338.212 5.2118C336.412 7.01215 335.4 9.45394 335.4 12C335.4 14.5461 336.412 16.9879 338.212 18.7882C340.013 20.5886 342.454 21.6 345 21.6ZM345.9 8.10002C345.9 7.86133 345.806 7.63241 345.637 7.46363C345.468 7.29484 345.239 7.20002 345 7.20002C344.762 7.20002 344.533 7.29484 344.364 7.46363C344.195 7.63241 344.1 7.86133 344.1 8.10002V11.1H341.1C340.862 11.1 340.633 11.1948 340.464 11.3636C340.295 11.5324 340.2 11.7613 340.2 12C340.2 12.2387 340.295 12.4676 340.464 12.6364C340.633 12.8052 340.862 12.9 341.1 12.9H344.1V15.9C344.1 16.1387 344.195 16.3676 344.364 16.5364C344.533 16.7052 344.762 16.8 345 16.8C345.239 16.8 345.468 16.7052 345.637 16.5364C345.806 16.3676 345.9 16.1387 345.9 15.9V12.9H348.9C349.139 12.9 349.368 12.8052 349.537 12.6364C349.706 12.4676 349.8 12.2387 349.8 12C349.8 11.7613 349.706 11.5324 349.537 11.3636C349.368 11.1948 349.139 11.1 348.9 11.1H345.9V8.10002Z" fill="#492BA0"/>
<path d="M0 57.5H3.02778V56.5H0V57.5ZM9.08333 57.5H15.1389V56.5H9.08333V57.5ZM21.1944 57.5H27.25V56.5H21.1944V57.5ZM33.3056 57.5H39.3611V56.5H33.3056V57.5ZM45.4167 57.5H51.4722V56.5H45.4167V57.5ZM57.5278 57.5H63.5833V56.5H57.5278V57.5ZM69.6389 57.5H75.6944V56.5H69.6389V57.5ZM81.75 57.5H87.8056V56.5H81.75V57.5ZM93.8611 57.5H99.9167V56.5H93.8611V57.5ZM105.972 57.5H112.028V56.5H105.972V57.5ZM118.083 57.5H124.139V56.5H118.083V57.5ZM130.194 57.5H136.25V56.5H130.194V57.5ZM142.306 57.5H148.361V56.5H142.306V57.5ZM154.417 57.5H160.472V56.5H154.417V57.5ZM166.528 57.5H172.583V56.5H166.528V57.5ZM178.639 57.5H184.694V56.5H178.639V57.5ZM190.75 57.5H196.806V56.5H190.75V57.5ZM202.861 57.5H208.917V56.5H202.861V57.5ZM214.972 57.5H221.028V56.5H214.972V57.5ZM227.083 57.5H233.139V56.5H227.083V57.5ZM239.194 57.5H245.25V56.5H239.194V57.5ZM251.306 57.5H257.361V56.5H251.306V57.5ZM263.417 57.5H269.472V56.5H263.417V57.5ZM275.528 57.5H281.583V56.5H275.528V57.5ZM287.639 57.5H293.694V56.5H287.639V57.5ZM299.75 57.5H305.805V56.5H299.75V57.5ZM311.861 57.5H317.917V56.5H311.861V57.5ZM323.972 57.5H330.028V56.5H323.972V57.5ZM336.083 57.5H342.139V56.5H336.083V57.5ZM348.194 57.5H354.25V56.5H348.194V57.5ZM360.305 57.5H366.361V56.5H360.305V57.5ZM372.416 57.5H378.472V56.5H372.416V57.5ZM384.528 57.5H390.583V56.5H384.528V57.5ZM396.639 57.5H402.694V56.5H396.639V57.5ZM408.75 57.5H414.805V56.5H408.75V57.5ZM420.861 57.5H426.916V56.5H420.861V57.5ZM432.972 57.5H439.027V56.5H432.972V57.5ZM445.083 57.5H451.138V56.5H445.083V57.5ZM457.194 57.5H463.25V56.5H457.194V57.5ZM469.305 57.5H475.361V56.5H469.305V57.5ZM481.416 57.5H487.472V56.5H481.416V57.5ZM493.527 57.5H499.583V56.5H493.527V57.5ZM505.638 57.5H511.694V56.5H505.638V57.5ZM517.749 57.5H523.805V56.5H517.749V57.5ZM529.861 57.5H535.916V56.5H529.861V57.5ZM541.972 57.5H545V56.5H541.972V57.5ZM0 58H3.02778V56H0V58ZM9.08333 58H15.1389V56H9.08333V58ZM21.1944 58H27.25V56H21.1944V58ZM33.3056 58H39.3611V56H33.3056V58ZM45.4167 58H51.4722V56H45.4167V58ZM57.5278 58H63.5833V56H57.5278V58ZM69.6389 58H75.6944V56H69.6389V58ZM81.75 58H87.8056V56H81.75V58ZM93.8611 58H99.9167V56H93.8611V58ZM105.972 58H112.028V56H105.972V58ZM118.083 58H124.139V56H118.083V58ZM130.194 58H136.25V56H130.194V58ZM142.306 58H148.361V56H142.306V58ZM154.417 58H160.472V56H154.417V58ZM166.528 58H172.583V56H166.528V58ZM178.639 58H184.694V56H178.639V58ZM190.75 58H196.806V56H190.75V58ZM202.861 58H208.917V56H202.861V58ZM214.972 58H221.028V56H214.972V58ZM227.083 58H233.139V56H227.083V58ZM239.194 58H245.25V56H239.194V58ZM251.306 58H257.361V56H251.306V58ZM263.417 58H269.472V56H263.417V58ZM275.528 58H281.583V56H275.528V58ZM287.639 58H293.694V56H287.639V58ZM299.75 58H305.805V56H299.75V58ZM311.861 58H317.917V56H311.861V58ZM323.972 58H330.028V56H323.972V58ZM336.083 58H342.139V56H336.083V58ZM348.194 58H354.25V56H348.194V58ZM360.305 58H366.361V56H360.305V58ZM372.416 58H378.472V56H372.416V58ZM384.528 58H390.583V56H384.528V58ZM396.639 58H402.694V56H396.639V58ZM408.75 58H414.805V56H408.75V58ZM420.861 58H426.916V56H420.861V58ZM432.972 58H439.027V56H432.972V58ZM445.083 58H451.138V56H445.083V58ZM457.194 58H463.25V56H457.194V58ZM469.305 58H475.361V56H469.305V58ZM481.416 58H487.472V56H481.416V58ZM493.527 58H499.583V56H493.527V58ZM505.638 58H511.694V56H505.638V58ZM517.749 58H523.805V56H517.749V58ZM529.861 58H535.916V56H529.861V58ZM541.972 58H545V56H541.972V58Z" fill="#D8C8EC" mask="url(#path-1-inside-1_872_69071)"/>
</svg>
