<svg width="142" height="85" viewBox="0 0 142 85" fill="none" xmlns="http://www.w3.org/2000/svg">
<path d="M6.75 53.1592V66H4.63184V55.6729L1.49414 56.7363V54.9873L6.49512 53.1592H6.75ZM20.584 58.8193V60.5156H11.6016V58.8193H20.584ZM31.3418 64.3125V66H22.7637V64.5498L26.9297 60.0059C27.3867 59.4902 27.7471 59.0449 28.0107 58.6699C28.2744 58.2949 28.459 57.958 28.5645 57.6592C28.6758 57.3545 28.7314 57.0586 28.7314 56.7715C28.7314 56.3672 28.6553 56.0127 28.5029 55.708C28.3564 55.3975 28.1396 55.1543 27.8525 54.9785C27.5654 54.7969 27.2168 54.7061 26.8066 54.7061C26.332 54.7061 25.9336 54.8086 25.6113 55.0137C25.2891 55.2188 25.0459 55.5029 24.8818 55.8662C24.7178 56.2236 24.6357 56.6338 24.6357 57.0967H22.5176C22.5176 56.3525 22.6875 55.6729 23.0273 55.0576C23.3672 54.4365 23.8594 53.9443 24.5039 53.5811C25.1484 53.2119 25.9248 53.0273 26.833 53.0273C27.6885 53.0273 28.415 53.1709 29.0127 53.458C29.6104 53.7451 30.0645 54.1523 30.375 54.6797C30.6914 55.207 30.8496 55.8311 30.8496 56.5518C30.8496 56.9502 30.7852 57.3457 30.6562 57.7383C30.5273 58.1309 30.3428 58.5234 30.1025 58.916C29.8682 59.3027 29.5898 59.6924 29.2676 60.085C28.9453 60.4717 28.5908 60.8643 28.2041 61.2627L25.4355 64.3125H31.3418ZM39.7266 58.3184V69.6562H37.6084V56.4902H39.5596L39.7266 58.3184ZM45.9229 61.1572V61.3418C45.9229 62.0332 45.8408 62.6748 45.6768 63.2666C45.5186 63.8525 45.2812 64.3652 44.9648 64.8047C44.6543 65.2383 44.2705 65.5752 43.8135 65.8154C43.3564 66.0557 42.8291 66.1758 42.2314 66.1758C41.6396 66.1758 41.1211 66.0674 40.6758 65.8506C40.2363 65.6279 39.8643 65.3145 39.5596 64.9102C39.2549 64.5059 39.0088 64.0312 38.8213 63.4863C38.6396 62.9355 38.5107 62.332 38.4346 61.6758V60.9639C38.5107 60.2666 38.6396 59.6338 38.8213 59.0654C39.0088 58.4971 39.2549 58.0078 39.5596 57.5977C39.8643 57.1875 40.2363 56.8711 40.6758 56.6484C41.1152 56.4258 41.6279 56.3145 42.2139 56.3145C42.8115 56.3145 43.3418 56.4316 43.8047 56.666C44.2676 56.8945 44.6572 57.2227 44.9736 57.6504C45.29 58.0723 45.5273 58.582 45.6855 59.1797C45.8438 59.7715 45.9229 60.4307 45.9229 61.1572ZM43.8047 61.3418V61.1572C43.8047 60.7178 43.7637 60.3105 43.6816 59.9355C43.5996 59.5547 43.4707 59.2207 43.2949 58.9336C43.1191 58.6465 42.8936 58.4238 42.6182 58.2656C42.3486 58.1016 42.0234 58.0195 41.6426 58.0195C41.2676 58.0195 40.9453 58.084 40.6758 58.2129C40.4062 58.3359 40.1807 58.5088 39.999 58.7314C39.8174 58.9541 39.6768 59.2148 39.5771 59.5137C39.4775 59.8066 39.4072 60.126 39.3662 60.4717V62.1768C39.4365 62.5986 39.5566 62.9854 39.7266 63.3369C39.8965 63.6885 40.1367 63.9697 40.4473 64.1807C40.7637 64.3857 41.168 64.4883 41.6602 64.4883C42.041 64.4883 42.3662 64.4062 42.6357 64.2422C42.9053 64.0781 43.125 63.8525 43.2949 63.5654C43.4707 63.2725 43.5996 62.9355 43.6816 62.5547C43.7637 62.1738 43.8047 61.7695 43.8047 61.3418ZM53.0859 64.0928V59.5576C53.0859 59.2178 53.0244 58.9248 52.9014 58.6787C52.7783 58.4326 52.5908 58.2422 52.3389 58.1074C52.0928 57.9727 51.7822 57.9053 51.4072 57.9053C51.0615 57.9053 50.7627 57.9639 50.5107 58.0811C50.2588 58.1982 50.0625 58.3564 49.9219 58.5557C49.7812 58.7549 49.7109 58.9805 49.7109 59.2324H47.6016C47.6016 58.8574 47.6924 58.4941 47.874 58.1426C48.0557 57.791 48.3193 57.4775 48.665 57.2021C49.0107 56.9268 49.4238 56.71 49.9043 56.5518C50.3848 56.3936 50.9238 56.3145 51.5215 56.3145C52.2363 56.3145 52.8691 56.4346 53.4199 56.6748C53.9766 56.915 54.4131 57.2783 54.7295 57.7646C55.0518 58.2451 55.2129 58.8486 55.2129 59.5752V63.8027C55.2129 64.2363 55.2422 64.626 55.3008 64.9717C55.3652 65.3115 55.4561 65.6074 55.5732 65.8594V66H53.4023C53.3027 65.7715 53.2236 65.4814 53.165 65.1299C53.1123 64.7725 53.0859 64.4268 53.0859 64.0928ZM53.3936 60.2168L53.4111 61.5264H51.8906C51.498 61.5264 51.1523 61.5645 50.8535 61.6406C50.5547 61.7109 50.3057 61.8164 50.1064 61.957C49.9072 62.0977 49.7578 62.2676 49.6582 62.4668C49.5586 62.666 49.5088 62.8916 49.5088 63.1436C49.5088 63.3955 49.5674 63.627 49.6846 63.8379C49.8018 64.043 49.9717 64.2041 50.1943 64.3213C50.4229 64.4385 50.6982 64.4971 51.0205 64.4971C51.4541 64.4971 51.832 64.4092 52.1543 64.2334C52.4824 64.0518 52.7402 63.832 52.9277 63.5742C53.1152 63.3105 53.2148 63.0615 53.2266 62.8271L53.9121 63.7676C53.8418 64.0078 53.7217 64.2656 53.5518 64.541C53.3818 64.8164 53.1592 65.0801 52.8838 65.332C52.6143 65.5781 52.2891 65.7803 51.9082 65.9385C51.5332 66.0967 51.0996 66.1758 50.6074 66.1758C49.9863 66.1758 49.4326 66.0527 48.9463 65.8066C48.46 65.5547 48.0791 65.2178 47.8037 64.7959C47.5283 64.3682 47.3906 63.8848 47.3906 63.3457C47.3906 62.8418 47.4844 62.3965 47.6719 62.0098C47.8652 61.6172 48.1465 61.2891 48.5156 61.0254C48.8906 60.7617 49.3477 60.5625 49.8867 60.4277C50.4258 60.2871 51.041 60.2168 51.7324 60.2168H53.3936ZM61.3652 61.4561H59.5371V60.3838H61.0137C61.3887 60.3838 61.6875 60.334 61.9102 60.2344C62.1387 60.1348 62.2998 59.9971 62.3936 59.8213C62.4932 59.6396 62.543 59.4287 62.543 59.1885C62.543 58.9775 62.4932 58.7783 62.3936 58.5908C62.2998 58.3975 62.1387 58.2393 61.9102 58.1162C61.6816 57.9932 61.3711 57.9316 60.9785 57.9316C60.6562 57.9316 60.3662 57.9844 60.1084 58.0898C59.8564 58.1953 59.6572 58.3418 59.5107 58.5293C59.3643 58.7168 59.291 58.9336 59.291 59.1797H57.1729C57.1729 58.5879 57.3398 58.0781 57.6738 57.6504C58.0137 57.2227 58.4678 56.8945 59.0361 56.666C59.6045 56.4375 60.2285 56.3232 60.9082 56.3232C61.4883 56.3232 62.0098 56.3848 62.4727 56.5078C62.9355 56.625 63.3281 56.8008 63.6504 57.0352C63.9785 57.2637 64.2275 57.5508 64.3975 57.8965C64.5732 58.2363 64.6611 58.6318 64.6611 59.083C64.6611 59.4053 64.585 59.71 64.4326 59.9971C64.2803 60.2842 64.0605 60.5391 63.7734 60.7617C63.4863 60.9785 63.1377 61.1484 62.7275 61.2715C62.3232 61.3945 61.8691 61.4561 61.3652 61.4561ZM59.5371 60.8408H61.3652C61.9277 60.8408 62.4258 60.8965 62.8594 61.0078C63.293 61.1133 63.6562 61.2715 63.9492 61.4824C64.2422 61.6934 64.4619 61.9541 64.6084 62.2646C64.7607 62.5693 64.8369 62.9209 64.8369 63.3193C64.8369 63.7646 64.7402 64.166 64.5469 64.5234C64.3594 64.875 64.0898 65.1738 63.7383 65.4199C63.3926 65.666 62.9795 65.8535 62.499 65.9824C62.0186 66.1113 61.4883 66.1758 60.9082 66.1758C60.2754 66.1758 59.6602 66.0703 59.0625 65.8594C58.4707 65.6484 57.9814 65.3232 57.5947 64.8838C57.2139 64.4385 57.0234 63.873 57.0234 63.1875H59.1416C59.1416 63.4277 59.2148 63.6533 59.3613 63.8643C59.5078 64.0752 59.7188 64.248 59.9941 64.3828C60.2695 64.5117 60.6006 64.5762 60.9873 64.5762C61.3857 64.5762 61.7109 64.5146 61.9629 64.3916C62.2148 64.2627 62.4023 64.0957 62.5254 63.8906C62.6484 63.6797 62.71 63.457 62.71 63.2227C62.71 62.9062 62.6484 62.6514 62.5254 62.458C62.4023 62.2646 62.2148 62.124 61.9629 62.0361C61.7109 61.9424 61.3945 61.8955 61.0137 61.8955H59.5371V60.8408ZM72 64.0928V59.5576C72 59.2178 71.9385 58.9248 71.8154 58.6787C71.6924 58.4326 71.5049 58.2422 71.2529 58.1074C71.0068 57.9727 70.6963 57.9053 70.3213 57.9053C69.9756 57.9053 69.6768 57.9639 69.4248 58.0811C69.1729 58.1982 68.9766 58.3564 68.8359 58.5557C68.6953 58.7549 68.625 58.9805 68.625 59.2324H66.5156C66.5156 58.8574 66.6064 58.4941 66.7881 58.1426C66.9697 57.791 67.2334 57.4775 67.5791 57.2021C67.9248 56.9268 68.3379 56.71 68.8184 56.5518C69.2988 56.3936 69.8379 56.3145 70.4355 56.3145C71.1504 56.3145 71.7832 56.4346 72.334 56.6748C72.8906 56.915 73.3271 57.2783 73.6436 57.7646C73.9658 58.2451 74.127 58.8486 74.127 59.5752V63.8027C74.127 64.2363 74.1562 64.626 74.2148 64.9717C74.2793 65.3115 74.3701 65.6074 74.4873 65.8594V66H72.3164C72.2168 65.7715 72.1377 65.4814 72.0791 65.1299C72.0264 64.7725 72 64.4268 72 64.0928ZM72.3076 60.2168L72.3252 61.5264H70.8047C70.4121 61.5264 70.0664 61.5645 69.7676 61.6406C69.4688 61.7109 69.2197 61.8164 69.0205 61.957C68.8213 62.0977 68.6719 62.2676 68.5723 62.4668C68.4727 62.666 68.4229 62.8916 68.4229 63.1436C68.4229 63.3955 68.4814 63.627 68.5986 63.8379C68.7158 64.043 68.8857 64.2041 69.1084 64.3213C69.3369 64.4385 69.6123 64.4971 69.9346 64.4971C70.3682 64.4971 70.7461 64.4092 71.0684 64.2334C71.3965 64.0518 71.6543 63.832 71.8418 63.5742C72.0293 63.3105 72.1289 63.0615 72.1406 62.8271L72.8262 63.7676C72.7559 64.0078 72.6357 64.2656 72.4658 64.541C72.2959 64.8164 72.0732 65.0801 71.7979 65.332C71.5283 65.5781 71.2031 65.7803 70.8223 65.9385C70.4473 66.0967 70.0137 66.1758 69.5215 66.1758C68.9004 66.1758 68.3467 66.0527 67.8604 65.8066C67.374 65.5547 66.9932 65.2178 66.7178 64.7959C66.4424 64.3682 66.3047 63.8848 66.3047 63.3457C66.3047 62.8418 66.3984 62.3965 66.5859 62.0098C66.7793 61.6172 67.0605 61.2891 67.4297 61.0254C67.8047 60.7617 68.2617 60.5625 68.8008 60.4277C69.3398 60.2871 69.9551 60.2168 70.6465 60.2168H72.3076ZM85.4473 61.9307H82.4062L82.3887 60.4365H84.8848C85.2949 60.4365 85.6318 60.3955 85.8955 60.3135C86.165 60.2314 86.3643 60.1084 86.4932 59.9443C86.6221 59.7744 86.6865 59.5693 86.6865 59.3291C86.6865 59.1299 86.6484 58.957 86.5723 58.8105C86.4961 58.6582 86.3789 58.5352 86.2207 58.4414C86.0684 58.3418 85.875 58.2715 85.6406 58.2305C85.4121 58.1836 85.1455 58.1602 84.8408 58.1602H83.1094V66H80.9912V56.4902H84.8408C85.4502 56.4902 85.998 56.543 86.4844 56.6484C86.9766 56.7539 87.3955 56.915 87.7412 57.1318C88.0869 57.3486 88.3506 57.624 88.5322 57.958C88.7197 58.2861 88.8135 58.6729 88.8135 59.1182C88.8135 59.4111 88.749 59.6865 88.6201 59.9443C88.4971 60.2021 88.3125 60.4307 88.0664 60.6299C87.8203 60.8291 87.5186 60.9932 87.1611 61.1221C86.8037 61.2451 86.3936 61.3213 85.9307 61.3506L85.4473 61.9307ZM85.4473 66H81.791L82.6348 64.3301H85.4473C85.8223 64.3301 86.1328 64.2832 86.3789 64.1895C86.625 64.0957 86.8066 63.9609 86.9238 63.7852C87.0469 63.6035 87.1084 63.3896 87.1084 63.1436C87.1084 62.8916 87.0498 62.6748 86.9326 62.4932C86.8154 62.3115 86.6338 62.1738 86.3877 62.0801C86.1475 61.9805 85.834 61.9307 85.4473 61.9307H83.0303L83.0479 60.4365H85.9219L86.5283 61.0166C87.1318 61.0576 87.6328 61.1865 88.0312 61.4033C88.4297 61.6201 88.7285 61.8926 88.9277 62.2207C89.127 62.5488 89.2266 62.9062 89.2266 63.293C89.2266 63.7383 89.1416 64.1309 88.9717 64.4707C88.8076 64.8105 88.5615 65.0947 88.2334 65.3232C87.9111 65.5459 87.5156 65.7158 87.0469 65.833C86.5781 65.9443 86.0449 66 85.4473 66ZM99.4219 64.4883C99.7676 64.4883 100.078 64.4209 100.354 64.2861C100.635 64.1455 100.86 63.9521 101.03 63.7061C101.206 63.46 101.303 63.1758 101.32 62.8535H103.315C103.304 63.4688 103.122 64.0283 102.771 64.5322C102.419 65.0361 101.953 65.4375 101.373 65.7363C100.793 66.0293 100.151 66.1758 99.4482 66.1758C98.7217 66.1758 98.0889 66.0527 97.5498 65.8066C97.0107 65.5547 96.5625 65.209 96.2051 64.7695C95.8477 64.3301 95.5781 63.8232 95.3965 63.249C95.2207 62.6748 95.1328 62.0596 95.1328 61.4033V61.0957C95.1328 60.4395 95.2207 59.8242 95.3965 59.25C95.5781 58.6699 95.8477 58.1602 96.2051 57.7207C96.5625 57.2812 97.0107 56.9385 97.5498 56.6924C98.0889 56.4404 98.7188 56.3145 99.4395 56.3145C100.201 56.3145 100.869 56.4668 101.443 56.7715C102.018 57.0703 102.469 57.4893 102.797 58.0283C103.131 58.5615 103.304 59.1826 103.315 59.8916H101.32C101.303 59.54 101.215 59.2236 101.057 58.9424C100.904 58.6553 100.688 58.4268 100.406 58.2568C100.131 58.0869 99.7998 58.002 99.4131 58.002C98.9854 58.002 98.6309 58.0898 98.3496 58.2656C98.0684 58.4355 97.8486 58.6699 97.6904 58.9688C97.5322 59.2617 97.418 59.5928 97.3477 59.9619C97.2832 60.3252 97.251 60.7031 97.251 61.0957V61.4033C97.251 61.7959 97.2832 62.1768 97.3477 62.5459C97.4121 62.915 97.5234 63.2461 97.6816 63.5391C97.8457 63.8262 98.0684 64.0576 98.3496 64.2334C98.6309 64.4033 98.9883 64.4883 99.4219 64.4883ZM107.701 64.9629L110.285 56.4902H112.553L108.738 67.4502C108.65 67.6846 108.536 67.9395 108.396 68.2148C108.255 68.4902 108.07 68.751 107.842 68.9971C107.619 69.249 107.341 69.4512 107.007 69.6035C106.673 69.7617 106.269 69.8408 105.794 69.8408C105.606 69.8408 105.425 69.8232 105.249 69.7881C105.079 69.7588 104.918 69.7266 104.766 69.6914L104.757 68.0742C104.815 68.0801 104.886 68.0859 104.968 68.0918C105.056 68.0977 105.126 68.1006 105.179 68.1006C105.53 68.1006 105.823 68.0566 106.058 67.9688C106.292 67.8867 106.482 67.752 106.629 67.5645C106.781 67.377 106.91 67.125 107.016 66.8086L107.701 64.9629ZM106.242 56.4902L108.501 63.6094L108.879 65.8418L107.411 66.2197L103.957 56.4902H106.242ZM118.178 56.4902V66H116.051V56.4902H118.178ZM121.298 56.4902V58.1602H112.983V56.4902H121.298ZM124.998 56.4902V66H122.88V56.4902H124.998ZM131.203 56.4902L126.923 62.2119H124.506L124.225 60.2959H125.991L128.558 56.4902H131.203ZM128.725 66L125.859 61.8516L127.529 60.6475L131.511 66H128.725ZM134.851 62.9062L138.586 56.4902H140.704V66H138.586V59.5752L134.851 66H132.732V56.4902H134.851V62.9062Z" fill="#492BA0"/>
<path d="M41.5449 16.3125V18H32.9668V16.5498L37.1328 12.0059C37.5898 11.4902 37.9502 11.0449 38.2139 10.6699C38.4775 10.2949 38.6621 9.95801 38.7676 9.65918C38.8789 9.35449 38.9346 9.05859 38.9346 8.77148C38.9346 8.36719 38.8584 8.0127 38.7061 7.70801C38.5596 7.39746 38.3428 7.1543 38.0557 6.97852C37.7686 6.79687 37.4199 6.70605 37.0098 6.70605C36.5352 6.70605 36.1367 6.80859 35.8145 7.01367C35.4922 7.21875 35.249 7.50293 35.085 7.86621C34.9209 8.22363 34.8389 8.63379 34.8389 9.09668H32.7207C32.7207 8.35254 32.8906 7.67285 33.2305 7.05762C33.5703 6.43652 34.0625 5.94434 34.707 5.58105C35.3516 5.21191 36.1279 5.02734 37.0361 5.02734C37.8916 5.02734 38.6182 5.1709 39.2158 5.45801C39.8135 5.74512 40.2676 6.15234 40.5781 6.67969C40.8945 7.20703 41.0527 7.83105 41.0527 8.55176C41.0527 8.9502 40.9883 9.3457 40.8594 9.73828C40.7305 10.1309 40.5459 10.5234 40.3057 10.916C40.0713 11.3027 39.793 11.6924 39.4707 12.085C39.1484 12.4717 38.7939 12.8643 38.4072 13.2627L35.6387 16.3125H41.5449ZM51.5381 10.5293V12.6211C51.5381 13.623 51.4385 14.4785 51.2393 15.1875C51.0459 15.8906 50.7646 16.4619 50.3955 16.9014C50.0264 17.3408 49.584 17.6631 49.0684 17.8682C48.5586 18.0732 47.9873 18.1758 47.3545 18.1758C46.8506 18.1758 46.3818 18.1113 45.9482 17.9824C45.5205 17.8535 45.1338 17.6514 44.7881 17.376C44.4424 17.1006 44.1465 16.7461 43.9004 16.3125C43.6602 15.873 43.4727 15.3486 43.3379 14.7393C43.209 14.1299 43.1445 13.4238 43.1445 12.6211V10.5293C43.1445 9.52148 43.2441 8.67188 43.4434 7.98047C43.6426 7.2832 43.9268 6.71777 44.2959 6.28418C44.665 5.84473 45.1045 5.52539 45.6143 5.32617C46.1299 5.12695 46.7041 5.02734 47.3369 5.02734C47.8467 5.02734 48.3154 5.0918 48.7432 5.2207C49.1768 5.34375 49.5635 5.54004 49.9033 5.80957C50.249 6.0791 50.542 6.43066 50.7822 6.86426C51.0283 7.29199 51.2158 7.81055 51.3447 8.41992C51.4736 9.02344 51.5381 9.72656 51.5381 10.5293ZM49.4199 12.9199V10.2129C49.4199 9.70312 49.3906 9.25488 49.332 8.86816C49.2734 8.47559 49.1855 8.14453 49.0684 7.875C48.957 7.59961 48.8164 7.37695 48.6465 7.20703C48.4766 7.03125 48.2832 6.90527 48.0664 6.8291C47.8496 6.74707 47.6064 6.70605 47.3369 6.70605C47.0088 6.70605 46.7158 6.77051 46.458 6.89941C46.2002 7.02246 45.9834 7.22168 45.8076 7.49707C45.6318 7.77246 45.4971 8.13574 45.4033 8.58691C45.3154 9.03223 45.2715 9.57422 45.2715 10.2129V12.9199C45.2715 13.4355 45.3008 13.8896 45.3594 14.2822C45.418 14.6748 45.5059 15.0117 45.623 15.293C45.7402 15.5684 45.8809 15.7969 46.0449 15.9785C46.2148 16.1543 46.4082 16.2832 46.625 16.3652C46.8477 16.4473 47.0908 16.4883 47.3545 16.4883C47.6885 16.4883 47.9844 16.4238 48.2422 16.2949C48.5 16.166 48.7168 15.9609 48.8926 15.6797C49.0684 15.3926 49.2002 15.0205 49.2881 14.5635C49.376 14.1064 49.4199 13.5586 49.4199 12.9199ZM61.7686 10.5293V12.6211C61.7686 13.623 61.6689 14.4785 61.4697 15.1875C61.2764 15.8906 60.9951 16.4619 60.626 16.9014C60.2568 17.3408 59.8145 17.6631 59.2988 17.8682C58.7891 18.0732 58.2178 18.1758 57.585 18.1758C57.0811 18.1758 56.6123 18.1113 56.1787 17.9824C55.751 17.8535 55.3643 17.6514 55.0186 17.376C54.6729 17.1006 54.377 16.7461 54.1309 16.3125C53.8906 15.873 53.7031 15.3486 53.5684 14.7393C53.4395 14.1299 53.375 13.4238 53.375 12.6211V10.5293C53.375 9.52148 53.4746 8.67188 53.6738 7.98047C53.873 7.2832 54.1572 6.71777 54.5264 6.28418C54.8955 5.84473 55.335 5.52539 55.8447 5.32617C56.3604 5.12695 56.9346 5.02734 57.5674 5.02734C58.0771 5.02734 58.5459 5.0918 58.9736 5.2207C59.4072 5.34375 59.7939 5.54004 60.1338 5.80957C60.4795 6.0791 60.7725 6.43066 61.0127 6.86426C61.2588 7.29199 61.4463 7.81055 61.5752 8.41992C61.7041 9.02344 61.7686 9.72656 61.7686 10.5293ZM59.6504 12.9199V10.2129C59.6504 9.70312 59.6211 9.25488 59.5625 8.86816C59.5039 8.47559 59.416 8.14453 59.2988 7.875C59.1875 7.59961 59.0469 7.37695 58.877 7.20703C58.707 7.03125 58.5137 6.90527 58.2969 6.8291C58.0801 6.74707 57.8369 6.70605 57.5674 6.70605C57.2393 6.70605 56.9463 6.77051 56.6885 6.89941C56.4307 7.02246 56.2139 7.22168 56.0381 7.49707C55.8623 7.77246 55.7275 8.13574 55.6338 8.58691C55.5459 9.03223 55.502 9.57422 55.502 10.2129V12.9199C55.502 13.4355 55.5312 13.8896 55.5898 14.2822C55.6484 14.6748 55.7363 15.0117 55.8535 15.293C55.9707 15.5684 56.1113 15.7969 56.2754 15.9785C56.4453 16.1543 56.6387 16.2832 56.8555 16.3652C57.0781 16.4473 57.3213 16.4883 57.585 16.4883C57.9189 16.4883 58.2148 16.4238 58.4727 16.2949C58.7305 16.166 58.9473 15.9609 59.123 15.6797C59.2988 15.3926 59.4307 15.0205 59.5186 14.5635C59.6064 14.1064 59.6504 13.5586 59.6504 12.9199ZM73.915 15.4336L76.7451 8.49023H78.582L74.6357 18H73.1943L69.2568 8.49023H71.0938L73.915 15.4336ZM70.5488 8.49023V18H68.4307V8.49023H70.5488ZM77.2812 18V8.49023H79.4082V18H77.2812ZM88.1094 8.49023V10.1777H83.9609V18H81.8428V8.49023H88.1094Z" fill="#492BA0"/>
<path d="M12 0C9.02761 0 6.60938 2.41823 6.60938 5.39062V18.6094C6.60938 21.5818 9.02761 24 12 24C14.9724 24 17.3906 21.5818 17.3906 18.6094V5.39062C17.3906 2.41823 14.9724 0 12 0ZM15.9844 12H8.01562V5.39062C8.01562 3.19364 9.80302 1.40625 12 1.40625C14.197 1.40625 15.9844 3.19364 15.9844 5.39062V12Z" fill="#492BA0"/>
<path d="M142 37L2.32458e-06 37" stroke="#D8C8EC" stroke-dasharray="6 6"/>
<path d="M142 84L2.32458e-06 84" stroke="#D8C8EC" stroke-dasharray="6 6"/>
</svg>
