<svg width="545" height="57" viewBox="0 0 545 57" fill="none" xmlns="http://www.w3.org/2000/svg">
<path d="M11.5479 19.3672V21H1.31055V19.5713L6.43457 13.8672C7.06478 13.1654 7.55176 12.571 7.89551 12.084C8.24642 11.5898 8.48991 11.1494 8.62598 10.7627C8.76921 10.3688 8.84082 9.96777 8.84082 9.55957C8.84082 9.04395 8.7334 8.57845 8.51855 8.16309C8.31087 7.74056 8.00293 7.40397 7.59473 7.15332C7.18652 6.90267 6.69238 6.77734 6.1123 6.77734C5.41764 6.77734 4.83757 6.91341 4.37207 7.18555C3.91374 7.45052 3.56999 7.82292 3.34082 8.30273C3.11165 8.78255 2.99707 9.33398 2.99707 9.95703H1.00977C1.00977 9.07617 1.20312 8.27051 1.58984 7.54004C1.97656 6.80957 2.54948 6.22949 3.30859 5.7998C4.06771 5.36296 5.00228 5.14453 6.1123 5.14453C7.10059 5.14453 7.94564 5.31999 8.64746 5.6709C9.34928 6.01465 9.88639 6.50163 10.2588 7.13184C10.6383 7.75488 10.8281 8.48535 10.8281 9.32324C10.8281 9.78158 10.7493 10.2471 10.5918 10.7197C10.4414 11.1852 10.2301 11.6507 9.95801 12.1162C9.69303 12.5817 9.38151 13.04 9.02344 13.4912C8.67253 13.9424 8.29655 14.3864 7.89551 14.8232L3.70605 19.3672H11.5479ZM18.0254 13.5342V15.167H12.7832V13.5342H18.0254ZM22.1182 17.8525L27.4785 9.37695H29.4766V21H27.4785V12.5244L22.1182 21H20.1416V9.37695H22.1182V17.8525ZM26.3936 5.16602H28.0049C28.0049 5.72461 27.876 6.22233 27.6182 6.65918C27.3604 7.08887 26.9915 7.42546 26.5117 7.66895C26.0319 7.91243 25.4626 8.03418 24.8037 8.03418C23.8083 8.03418 23.0205 7.76921 22.4404 7.23926C21.8675 6.70215 21.5811 6.01107 21.5811 5.16602H23.1924C23.1924 5.58854 23.3141 5.96094 23.5576 6.2832C23.8011 6.60547 24.2165 6.7666 24.8037 6.7666C25.3766 6.7666 25.7848 6.60547 26.0283 6.2832C26.2718 5.96094 26.3936 5.58854 26.3936 5.16602ZM40.2188 9.37695H42.2061L42.0342 13.7275C41.9912 14.8304 41.8659 15.7829 41.6582 16.585C41.4505 17.387 41.1855 18.071 40.8633 18.6367C40.541 19.1953 40.1794 19.6644 39.7783 20.0439C39.3844 20.4235 38.9762 20.7422 38.5537 21H37.5654L37.6191 19.3779L38.0273 19.3672C38.2637 19.0879 38.4928 18.8014 38.7148 18.5078C38.9368 18.207 39.141 17.8525 39.3271 17.4443C39.5133 17.029 39.6673 16.5241 39.7891 15.9297C39.918 15.3281 40.0003 14.5941 40.0361 13.7275L40.2188 9.37695ZM40.7129 9.37695H47.7061V21H45.7188V11.2139H40.7129V9.37695ZM37.1143 19.3672H49.1992V24.4268H47.2119V21H39.1016V24.4268H37.1035L37.1143 19.3672ZM56.2246 21.2148C55.4154 21.2148 54.6813 21.0788 54.0225 20.8066C53.3708 20.5273 52.8086 20.137 52.3359 19.6357C51.8704 19.1344 51.5124 18.54 51.2617 17.8525C51.0111 17.165 50.8857 16.4131 50.8857 15.5967V15.1455C50.8857 14.2002 51.0254 13.3587 51.3047 12.6211C51.584 11.8763 51.9635 11.2461 52.4434 10.7305C52.9232 10.2148 53.4674 9.82454 54.0762 9.55957C54.6849 9.2946 55.3151 9.16211 55.9668 9.16211C56.7975 9.16211 57.5137 9.30534 58.1152 9.5918C58.724 9.87826 59.2217 10.2793 59.6084 10.7949C59.9951 11.3034 60.2816 11.9049 60.4678 12.5996C60.654 13.2871 60.7471 14.0391 60.7471 14.8555V15.7471H52.0674V14.125H58.7598V13.9746C58.7311 13.459 58.6237 12.9577 58.4375 12.4707C58.2585 11.9837 57.972 11.5827 57.5781 11.2676C57.1842 10.9525 56.6471 10.7949 55.9668 10.7949C55.5156 10.7949 55.1003 10.8916 54.7207 11.085C54.3411 11.2712 54.0153 11.5505 53.7432 11.9229C53.471 12.2952 53.2598 12.75 53.1094 13.2871C52.959 13.8242 52.8838 14.4437 52.8838 15.1455V15.5967C52.8838 16.1481 52.959 16.6673 53.1094 17.1543C53.2669 17.6341 53.4925 18.0566 53.7861 18.4219C54.0869 18.7871 54.4486 19.0736 54.8711 19.2812C55.3008 19.4889 55.7878 19.5928 56.332 19.5928C57.0339 19.5928 57.6283 19.4495 58.1152 19.1631C58.6022 18.8766 59.0283 18.4935 59.3936 18.0137L60.5967 18.9697C60.346 19.3493 60.0273 19.7109 59.6406 20.0547C59.2539 20.3984 58.7777 20.6777 58.2119 20.8926C57.6533 21.1074 56.9909 21.2148 56.2246 21.2148ZM70.9521 14.415V16.0264H64.8076V14.415H70.9521ZM65.2266 9.37695V21H63.2393V9.37695H65.2266ZM72.5635 9.37695V21H70.5654V9.37695H72.5635ZM77.3975 13.373H80.8887C81.8268 13.373 82.6182 13.5378 83.2627 13.8672C83.9072 14.1895 84.3942 14.637 84.7236 15.21C85.0602 15.7757 85.2285 16.4202 85.2285 17.1436C85.2285 17.6807 85.1354 18.1855 84.9492 18.6582C84.763 19.1237 84.4837 19.5319 84.1113 19.8828C83.7461 20.2337 83.2913 20.5094 82.7471 20.71C82.21 20.9033 81.5905 21 80.8887 21H75.9473V9.37695H77.9346V19.3672H80.8887C81.4616 19.3672 81.9199 19.2633 82.2637 19.0557C82.6074 18.848 82.8545 18.5794 83.0049 18.25C83.1553 17.9206 83.2305 17.5768 83.2305 17.2188C83.2305 16.8678 83.1553 16.5241 83.0049 16.1875C82.8545 15.8509 82.6074 15.5716 82.2637 15.3496C81.9199 15.1204 81.4616 15.0059 80.8887 15.0059H77.3975V13.373ZM95.3154 17.8525L100.676 9.37695H102.674V21H100.676V12.5244L95.3154 21H93.3389V9.37695H95.3154V17.8525ZM113.416 9.37695H115.403L115.231 13.7275C115.188 14.8304 115.063 15.7829 114.855 16.585C114.648 17.387 114.383 18.071 114.061 18.6367C113.738 19.1953 113.377 19.6644 112.976 20.0439C112.582 20.4235 112.174 20.7422 111.751 21H110.763L110.816 19.3779L111.225 19.3672C111.461 19.0879 111.69 18.8014 111.912 18.5078C112.134 18.207 112.338 17.8525 112.524 17.4443C112.711 17.029 112.865 16.5241 112.986 15.9297C113.115 15.3281 113.198 14.5941 113.233 13.7275L113.416 9.37695ZM113.91 9.37695H120.903V21H118.916V11.2139H113.91V9.37695ZM110.312 19.3672H122.396V24.4268H120.409V21H112.299V24.4268H110.301L110.312 19.3672ZM131.452 19.0127V13.0293C131.452 12.571 131.359 12.1735 131.173 11.8369C130.994 11.4932 130.722 11.2282 130.356 11.042C129.991 10.8558 129.54 10.7627 129.003 10.7627C128.502 10.7627 128.061 10.8486 127.682 11.0205C127.309 11.1924 127.016 11.418 126.801 11.6973C126.593 11.9766 126.489 12.2773 126.489 12.5996H124.502C124.502 12.1842 124.609 11.7725 124.824 11.3643C125.039 10.9561 125.347 10.5872 125.748 10.2578C126.156 9.92122 126.643 9.65625 127.209 9.46289C127.782 9.26237 128.419 9.16211 129.121 9.16211C129.966 9.16211 130.711 9.30534 131.355 9.5918C132.007 9.87826 132.516 10.3115 132.881 10.8916C133.253 11.4645 133.439 12.1842 133.439 13.0508V18.4648C133.439 18.8516 133.472 19.2633 133.536 19.7002C133.608 20.137 133.712 20.513 133.848 20.8281V21H131.774C131.674 20.7708 131.595 20.4665 131.538 20.0869C131.481 19.7002 131.452 19.3421 131.452 19.0127ZM131.796 13.9531L131.817 15.3496H129.809C129.243 15.3496 128.738 15.3962 128.294 15.4893C127.85 15.5752 127.478 15.7077 127.177 15.8867C126.876 16.0658 126.647 16.2913 126.489 16.5635C126.332 16.8285 126.253 17.14 126.253 17.498C126.253 17.8633 126.335 18.1963 126.5 18.4971C126.665 18.7979 126.912 19.0378 127.241 19.2168C127.578 19.3887 127.99 19.4746 128.477 19.4746C129.085 19.4746 129.622 19.3457 130.088 19.0879C130.553 18.8301 130.922 18.515 131.194 18.1426C131.474 17.7702 131.624 17.4085 131.646 17.0576L132.494 18.0137C132.444 18.3145 132.308 18.6475 132.086 19.0127C131.864 19.3779 131.567 19.7288 131.194 20.0654C130.829 20.3949 130.392 20.6706 129.884 20.8926C129.382 21.1074 128.817 21.2148 128.187 21.2148C127.399 21.2148 126.708 21.0609 126.113 20.7529C125.526 20.445 125.068 20.0332 124.738 19.5176C124.416 18.9948 124.255 18.4111 124.255 17.7666C124.255 17.1436 124.377 16.5957 124.62 16.123C124.864 15.6432 125.215 15.2458 125.673 14.9307C126.131 14.6084 126.683 14.3649 127.327 14.2002C127.972 14.0355 128.691 13.9531 129.486 13.9531H131.796ZM144.332 9.37695V11.0205H138.714V9.37695H144.332ZM146.083 9.37695V21H144.096V9.37695H146.083ZM138.23 9.37695H140.229L139.928 14.9844C139.878 15.8509 139.795 16.6172 139.681 17.2832C139.573 17.9421 139.423 18.5078 139.229 18.9805C139.043 19.4531 138.807 19.8398 138.521 20.1406C138.241 20.4342 137.905 20.6527 137.511 20.7959C137.117 20.932 136.662 21 136.146 21H135.523V19.249L135.953 19.2168C136.261 19.1953 136.522 19.1237 136.737 19.002C136.959 18.8802 137.146 18.7012 137.296 18.4648C137.446 18.2214 137.568 17.9098 137.661 17.5303C137.761 17.1507 137.837 16.6995 137.887 16.1768C137.944 15.654 137.987 15.0452 138.016 14.3506L138.23 9.37695ZM154.107 21.2148C153.298 21.2148 152.564 21.0788 151.905 20.8066C151.254 20.5273 150.691 20.137 150.219 19.6357C149.753 19.1344 149.395 18.54 149.145 17.8525C148.894 17.165 148.769 16.4131 148.769 15.5967V15.1455C148.769 14.2002 148.908 13.3587 149.188 12.6211C149.467 11.8763 149.846 11.2461 150.326 10.7305C150.806 10.2148 151.35 9.82454 151.959 9.55957C152.568 9.2946 153.198 9.16211 153.85 9.16211C154.68 9.16211 155.396 9.30534 155.998 9.5918C156.607 9.87826 157.104 10.2793 157.491 10.7949C157.878 11.3034 158.164 11.9049 158.351 12.5996C158.537 13.2871 158.63 14.0391 158.63 14.8555V15.7471H149.95V14.125H156.643V13.9746C156.614 13.459 156.507 12.9577 156.32 12.4707C156.141 11.9837 155.855 11.5827 155.461 11.2676C155.067 10.9525 154.53 10.7949 153.85 10.7949C153.398 10.7949 152.983 10.8916 152.604 11.085C152.224 11.2712 151.898 11.5505 151.626 11.9229C151.354 12.2952 151.143 12.75 150.992 13.2871C150.842 13.8242 150.767 14.4437 150.767 15.1455V15.5967C150.767 16.1481 150.842 16.6673 150.992 17.1543C151.15 17.6341 151.375 18.0566 151.669 18.4219C151.97 18.7871 152.331 19.0736 152.754 19.2812C153.184 19.4889 153.671 19.5928 154.215 19.5928C154.917 19.5928 155.511 19.4495 155.998 19.1631C156.485 18.8766 156.911 18.4935 157.276 18.0137L158.479 18.9697C158.229 19.3493 157.91 19.7109 157.523 20.0547C157.137 20.3984 156.66 20.6777 156.095 20.8926C155.536 21.1074 154.874 21.2148 154.107 21.2148ZM165.773 21.2148C164.964 21.2148 164.23 21.0788 163.571 20.8066C162.92 20.5273 162.357 20.137 161.885 19.6357C161.419 19.1344 161.061 18.54 160.811 17.8525C160.56 17.165 160.435 16.4131 160.435 15.5967V15.1455C160.435 14.2002 160.574 13.3587 160.854 12.6211C161.133 11.8763 161.512 11.2461 161.992 10.7305C162.472 10.2148 163.016 9.82454 163.625 9.55957C164.234 9.2946 164.864 9.16211 165.516 9.16211C166.346 9.16211 167.062 9.30534 167.664 9.5918C168.273 9.87826 168.771 10.2793 169.157 10.7949C169.544 11.3034 169.83 11.9049 170.017 12.5996C170.203 13.2871 170.296 14.0391 170.296 14.8555V15.7471H161.616V14.125H168.309V13.9746C168.28 13.459 168.173 12.9577 167.986 12.4707C167.807 11.9837 167.521 11.5827 167.127 11.2676C166.733 10.9525 166.196 10.7949 165.516 10.7949C165.064 10.7949 164.649 10.8916 164.27 11.085C163.89 11.2712 163.564 11.5505 163.292 11.9229C163.02 12.2952 162.809 12.75 162.658 13.2871C162.508 13.8242 162.433 14.4437 162.433 15.1455V15.5967C162.433 16.1481 162.508 16.6673 162.658 17.1543C162.816 17.6341 163.041 18.0566 163.335 18.4219C163.636 18.7871 163.997 19.0736 164.42 19.2812C164.85 19.4889 165.337 19.5928 165.881 19.5928C166.583 19.5928 167.177 19.4495 167.664 19.1631C168.151 18.8766 168.577 18.4935 168.942 18.0137L170.146 18.9697C169.895 19.3493 169.576 19.7109 169.189 20.0547C168.803 20.3984 168.326 20.6777 167.761 20.8926C167.202 21.1074 166.54 21.2148 165.773 21.2148Z" fill="#492BA0"/>
<path d="M269.545 16.3125V18H260.967V16.5498L265.133 12.0059C265.59 11.4902 265.95 11.0449 266.214 10.6699C266.478 10.2949 266.662 9.95801 266.768 9.65918C266.879 9.35449 266.935 9.05859 266.935 8.77148C266.935 8.36719 266.858 8.0127 266.706 7.70801C266.56 7.39746 266.343 7.1543 266.056 6.97852C265.769 6.79687 265.42 6.70605 265.01 6.70605C264.535 6.70605 264.137 6.80859 263.814 7.01367C263.492 7.21875 263.249 7.50293 263.085 7.86621C262.921 8.22363 262.839 8.63379 262.839 9.09668H260.721C260.721 8.35254 260.891 7.67285 261.23 7.05762C261.57 6.43652 262.062 5.94434 262.707 5.58105C263.352 5.21191 264.128 5.02734 265.036 5.02734C265.892 5.02734 266.618 5.1709 267.216 5.45801C267.813 5.74512 268.268 6.15234 268.578 6.67969C268.895 7.20703 269.053 7.83105 269.053 8.55176C269.053 8.9502 268.988 9.3457 268.859 9.73828C268.73 10.1309 268.546 10.5234 268.306 10.916C268.071 11.3027 267.793 11.6924 267.471 12.085C267.148 12.4717 266.794 12.8643 266.407 13.2627L263.639 16.3125H269.545ZM279.538 10.5293V12.6211C279.538 13.623 279.438 14.4785 279.239 15.1875C279.046 15.8906 278.765 16.4619 278.396 16.9014C278.026 17.3408 277.584 17.6631 277.068 17.8682C276.559 18.0732 275.987 18.1758 275.354 18.1758C274.851 18.1758 274.382 18.1113 273.948 17.9824C273.521 17.8535 273.134 17.6514 272.788 17.376C272.442 17.1006 272.146 16.7461 271.9 16.3125C271.66 15.873 271.473 15.3486 271.338 14.7393C271.209 14.1299 271.145 13.4238 271.145 12.6211V10.5293C271.145 9.52148 271.244 8.67188 271.443 7.98047C271.643 7.2832 271.927 6.71777 272.296 6.28418C272.665 5.84473 273.104 5.52539 273.614 5.32617C274.13 5.12695 274.704 5.02734 275.337 5.02734C275.847 5.02734 276.315 5.0918 276.743 5.2207C277.177 5.34375 277.563 5.54004 277.903 5.80957C278.249 6.0791 278.542 6.43066 278.782 6.86426C279.028 7.29199 279.216 7.81055 279.345 8.41992C279.474 9.02344 279.538 9.72656 279.538 10.5293ZM277.42 12.9199V10.2129C277.42 9.70312 277.391 9.25488 277.332 8.86816C277.273 8.47559 277.186 8.14453 277.068 7.875C276.957 7.59961 276.816 7.37695 276.646 7.20703C276.477 7.03125 276.283 6.90527 276.066 6.8291C275.85 6.74707 275.606 6.70605 275.337 6.70605C275.009 6.70605 274.716 6.77051 274.458 6.89941C274.2 7.02246 273.983 7.22168 273.808 7.49707C273.632 7.77246 273.497 8.13574 273.403 8.58691C273.315 9.03223 273.271 9.57422 273.271 10.2129V12.9199C273.271 13.4355 273.301 13.8896 273.359 14.2822C273.418 14.6748 273.506 15.0117 273.623 15.293C273.74 15.5684 273.881 15.7969 274.045 15.9785C274.215 16.1543 274.408 16.2832 274.625 16.3652C274.848 16.4473 275.091 16.4883 275.354 16.4883C275.688 16.4883 275.984 16.4238 276.242 16.2949C276.5 16.166 276.717 15.9609 276.893 15.6797C277.068 15.3926 277.2 15.0205 277.288 14.5635C277.376 14.1064 277.42 13.5586 277.42 12.9199ZM289.769 10.5293V12.6211C289.769 13.623 289.669 14.4785 289.47 15.1875C289.276 15.8906 288.995 16.4619 288.626 16.9014C288.257 17.3408 287.814 17.6631 287.299 17.8682C286.789 18.0732 286.218 18.1758 285.585 18.1758C285.081 18.1758 284.612 18.1113 284.179 17.9824C283.751 17.8535 283.364 17.6514 283.019 17.376C282.673 17.1006 282.377 16.7461 282.131 16.3125C281.891 15.873 281.703 15.3486 281.568 14.7393C281.439 14.1299 281.375 13.4238 281.375 12.6211V10.5293C281.375 9.52148 281.475 8.67188 281.674 7.98047C281.873 7.2832 282.157 6.71777 282.526 6.28418C282.896 5.84473 283.335 5.52539 283.845 5.32617C284.36 5.12695 284.935 5.02734 285.567 5.02734C286.077 5.02734 286.546 5.0918 286.974 5.2207C287.407 5.34375 287.794 5.54004 288.134 5.80957C288.479 6.0791 288.772 6.43066 289.013 6.86426C289.259 7.29199 289.446 7.81055 289.575 8.41992C289.704 9.02344 289.769 9.72656 289.769 10.5293ZM287.65 12.9199V10.2129C287.65 9.70312 287.621 9.25488 287.562 8.86816C287.504 8.47559 287.416 8.14453 287.299 7.875C287.188 7.59961 287.047 7.37695 286.877 7.20703C286.707 7.03125 286.514 6.90527 286.297 6.8291C286.08 6.74707 285.837 6.70605 285.567 6.70605C285.239 6.70605 284.946 6.77051 284.688 6.89941C284.431 7.02246 284.214 7.22168 284.038 7.49707C283.862 7.77246 283.728 8.13574 283.634 8.58691C283.546 9.03223 283.502 9.57422 283.502 10.2129V12.9199C283.502 13.4355 283.531 13.8896 283.59 14.2822C283.648 14.6748 283.736 15.0117 283.854 15.293C283.971 15.5684 284.111 15.7969 284.275 15.9785C284.445 16.1543 284.639 16.2832 284.855 16.3652C285.078 16.4473 285.321 16.4883 285.585 16.4883C285.919 16.4883 286.215 16.4238 286.473 16.2949C286.73 16.166 286.947 15.9609 287.123 15.6797C287.299 15.3926 287.431 15.0205 287.519 14.5635C287.606 14.1064 287.65 13.5586 287.65 12.9199ZM301.915 15.4336L304.745 8.49023H306.582L302.636 18H301.194L297.257 8.49023H299.094L301.915 15.4336ZM298.549 8.49023V18H296.431V8.49023H298.549ZM305.281 18V8.49023H307.408V18H305.281ZM316.109 8.49023V10.1777H311.961V18H309.843V8.49023H316.109Z" fill="#492BA0"/>
<path d="M414.545 16.3125V18H405.967V16.5498L410.133 12.0059C410.59 11.4902 410.95 11.0449 411.214 10.6699C411.478 10.2949 411.662 9.95801 411.768 9.65918C411.879 9.35449 411.935 9.05859 411.935 8.77148C411.935 8.36719 411.858 8.0127 411.706 7.70801C411.56 7.39746 411.343 7.1543 411.056 6.97852C410.769 6.79687 410.42 6.70605 410.01 6.70605C409.535 6.70605 409.137 6.80859 408.814 7.01367C408.492 7.21875 408.249 7.50293 408.085 7.86621C407.921 8.22363 407.839 8.63379 407.839 9.09668H405.721C405.721 8.35254 405.891 7.67285 406.23 7.05762C406.57 6.43652 407.062 5.94434 407.707 5.58105C408.352 5.21191 409.128 5.02734 410.036 5.02734C410.892 5.02734 411.618 5.1709 412.216 5.45801C412.813 5.74512 413.268 6.15234 413.578 6.67969C413.895 7.20703 414.053 7.83105 414.053 8.55176C414.053 8.9502 413.988 9.3457 413.859 9.73828C413.73 10.1309 413.546 10.5234 413.306 10.916C413.071 11.3027 412.793 11.6924 412.471 12.085C412.148 12.4717 411.794 12.8643 411.407 13.2627L408.639 16.3125H414.545ZM424.538 10.5293V12.6211C424.538 13.623 424.438 14.4785 424.239 15.1875C424.046 15.8906 423.765 16.4619 423.396 16.9014C423.026 17.3408 422.584 17.6631 422.068 17.8682C421.559 18.0732 420.987 18.1758 420.354 18.1758C419.851 18.1758 419.382 18.1113 418.948 17.9824C418.521 17.8535 418.134 17.6514 417.788 17.376C417.442 17.1006 417.146 16.7461 416.9 16.3125C416.66 15.873 416.473 15.3486 416.338 14.7393C416.209 14.1299 416.145 13.4238 416.145 12.6211V10.5293C416.145 9.52148 416.244 8.67188 416.443 7.98047C416.643 7.2832 416.927 6.71777 417.296 6.28418C417.665 5.84473 418.104 5.52539 418.614 5.32617C419.13 5.12695 419.704 5.02734 420.337 5.02734C420.847 5.02734 421.315 5.0918 421.743 5.2207C422.177 5.34375 422.563 5.54004 422.903 5.80957C423.249 6.0791 423.542 6.43066 423.782 6.86426C424.028 7.29199 424.216 7.81055 424.345 8.41992C424.474 9.02344 424.538 9.72656 424.538 10.5293ZM422.42 12.9199V10.2129C422.42 9.70312 422.391 9.25488 422.332 8.86816C422.273 8.47559 422.186 8.14453 422.068 7.875C421.957 7.59961 421.816 7.37695 421.646 7.20703C421.477 7.03125 421.283 6.90527 421.066 6.8291C420.85 6.74707 420.606 6.70605 420.337 6.70605C420.009 6.70605 419.716 6.77051 419.458 6.89941C419.2 7.02246 418.983 7.22168 418.808 7.49707C418.632 7.77246 418.497 8.13574 418.403 8.58691C418.315 9.03223 418.271 9.57422 418.271 10.2129V12.9199C418.271 13.4355 418.301 13.8896 418.359 14.2822C418.418 14.6748 418.506 15.0117 418.623 15.293C418.74 15.5684 418.881 15.7969 419.045 15.9785C419.215 16.1543 419.408 16.2832 419.625 16.3652C419.848 16.4473 420.091 16.4883 420.354 16.4883C420.688 16.4883 420.984 16.4238 421.242 16.2949C421.5 16.166 421.717 15.9609 421.893 15.6797C422.068 15.3926 422.2 15.0205 422.288 14.5635C422.376 14.1064 422.42 13.5586 422.42 12.9199ZM434.769 10.5293V12.6211C434.769 13.623 434.669 14.4785 434.47 15.1875C434.276 15.8906 433.995 16.4619 433.626 16.9014C433.257 17.3408 432.814 17.6631 432.299 17.8682C431.789 18.0732 431.218 18.1758 430.585 18.1758C430.081 18.1758 429.612 18.1113 429.179 17.9824C428.751 17.8535 428.364 17.6514 428.019 17.376C427.673 17.1006 427.377 16.7461 427.131 16.3125C426.891 15.873 426.703 15.3486 426.568 14.7393C426.439 14.1299 426.375 13.4238 426.375 12.6211V10.5293C426.375 9.52148 426.475 8.67188 426.674 7.98047C426.873 7.2832 427.157 6.71777 427.526 6.28418C427.896 5.84473 428.335 5.52539 428.845 5.32617C429.36 5.12695 429.935 5.02734 430.567 5.02734C431.077 5.02734 431.546 5.0918 431.974 5.2207C432.407 5.34375 432.794 5.54004 433.134 5.80957C433.479 6.0791 433.772 6.43066 434.013 6.86426C434.259 7.29199 434.446 7.81055 434.575 8.41992C434.704 9.02344 434.769 9.72656 434.769 10.5293ZM432.65 12.9199V10.2129C432.65 9.70312 432.621 9.25488 432.562 8.86816C432.504 8.47559 432.416 8.14453 432.299 7.875C432.188 7.59961 432.047 7.37695 431.877 7.20703C431.707 7.03125 431.514 6.90527 431.297 6.8291C431.08 6.74707 430.837 6.70605 430.567 6.70605C430.239 6.70605 429.946 6.77051 429.688 6.89941C429.431 7.02246 429.214 7.22168 429.038 7.49707C428.862 7.77246 428.728 8.13574 428.634 8.58691C428.546 9.03223 428.502 9.57422 428.502 10.2129V12.9199C428.502 13.4355 428.531 13.8896 428.59 14.2822C428.648 14.6748 428.736 15.0117 428.854 15.293C428.971 15.5684 429.111 15.7969 429.275 15.9785C429.445 16.1543 429.639 16.2832 429.855 16.3652C430.078 16.4473 430.321 16.4883 430.585 16.4883C430.919 16.4883 431.215 16.4238 431.473 16.2949C431.73 16.166 431.947 15.9609 432.123 15.6797C432.299 15.3926 432.431 15.0205 432.519 14.5635C432.606 14.1064 432.65 13.5586 432.65 12.9199ZM446.915 15.4336L449.745 8.49023H451.582L447.636 18H446.194L442.257 8.49023H444.094L446.915 15.4336ZM443.549 8.49023V18H441.431V8.49023H443.549ZM450.281 18V8.49023H452.408V18H450.281ZM461.109 8.49023V10.1777H456.961V18H454.843V8.49023H461.109Z" fill="#492BA0"/>
<path d="M240 0C237.028 0 234.609 2.41823 234.609 5.39062V18.6094C234.609 21.5818 237.028 24 240 24C242.972 24 245.391 21.5818 245.391 18.6094V5.39062C245.391 2.41823 242.972 0 240 0ZM243.984 12H236.016V5.39062C236.016 3.19364 237.803 1.40625 240 1.40625C242.197 1.40625 243.984 3.19364 243.984 5.39062V12Z" fill="#492BA0"/>
<path d="M385 0C382.028 0 379.609 2.41823 379.609 5.39062V18.6094C379.609 21.5818 382.028 24 385 24C387.972 24 390.391 21.5818 390.391 18.6094V5.39062C390.391 2.41823 387.972 0 385 0ZM388.984 12H381.016V5.39062C381.016 3.19364 382.803 1.40625 385 1.40625C387.197 1.40625 388.984 3.19364 388.984 5.39062V12Z" fill="#492BA0"/>
<path d="M263.042 39.2344L265.1 32.6035H266.453L263.486 41.1416C263.418 41.3239 263.327 41.5199 263.213 41.7295C263.104 41.9437 262.962 42.1465 262.789 42.3379C262.616 42.5293 262.406 42.6842 262.16 42.8027C261.919 42.9258 261.629 42.9873 261.292 42.9873C261.192 42.9873 261.064 42.9736 260.909 42.9463C260.754 42.9189 260.645 42.8962 260.581 42.8779L260.574 41.8525C260.611 41.8571 260.668 41.8617 260.745 41.8662C260.827 41.8753 260.884 41.8799 260.916 41.8799C261.203 41.8799 261.447 41.8411 261.647 41.7637C261.848 41.6908 262.017 41.5654 262.153 41.3877C262.295 41.2145 262.415 40.9753 262.516 40.6699L263.042 39.2344ZM261.531 32.6035L263.452 38.3457L263.78 39.6787L262.871 40.1436L260.15 32.6035H261.531ZM270.609 32.6035V40H269.338V32.6035H270.609ZM273.091 32.6035V33.6289H266.904V32.6035H273.091ZM275.6 34.0254V42.8438H274.328V32.6035H275.49L275.6 34.0254ZM280.583 36.2402V36.3838C280.583 36.9215 280.519 37.4206 280.392 37.8809C280.264 38.3366 280.077 38.7331 279.831 39.0703C279.59 39.4076 279.291 39.6696 278.936 39.8564C278.58 40.0433 278.172 40.1367 277.712 40.1367C277.243 40.1367 276.828 40.0592 276.468 39.9043C276.108 39.7493 275.802 39.5238 275.552 39.2275C275.301 38.9313 275.101 38.5758 274.95 38.1611C274.804 37.7464 274.704 37.2793 274.649 36.7598V35.9941C274.704 35.4473 274.807 34.9574 274.957 34.5244C275.107 34.0915 275.306 33.7223 275.552 33.417C275.802 33.1071 276.105 32.8724 276.461 32.7129C276.816 32.5488 277.227 32.4668 277.691 32.4668C278.156 32.4668 278.569 32.5579 278.929 32.7402C279.289 32.918 279.592 33.1732 279.838 33.5059C280.084 33.8385 280.269 34.2373 280.392 34.7021C280.519 35.1624 280.583 35.6751 280.583 36.2402ZM279.312 36.3838V36.2402C279.312 35.8711 279.273 35.5247 279.195 35.2012C279.118 34.873 278.997 34.5859 278.833 34.3398C278.674 34.0892 278.468 33.8932 278.218 33.752C277.967 33.6061 277.669 33.5332 277.322 33.5332C277.003 33.5332 276.725 33.5879 276.488 33.6973C276.256 33.8066 276.058 33.9548 275.894 34.1416C275.729 34.3239 275.595 34.5335 275.49 34.7705C275.39 35.0029 275.315 35.2445 275.265 35.4951V37.2656C275.356 37.5846 275.483 37.8854 275.647 38.168C275.812 38.446 276.03 38.6715 276.304 38.8447C276.577 39.0133 276.921 39.0977 277.336 39.0977C277.678 39.0977 277.972 39.027 278.218 38.8857C278.468 38.7399 278.674 38.5417 278.833 38.291C278.997 38.0404 279.118 37.7533 279.195 37.4297C279.273 37.1016 279.312 36.7529 279.312 36.3838ZM281.861 36.3838V36.2266C281.861 35.6934 281.939 35.1989 282.094 34.7432C282.249 34.2829 282.472 33.8841 282.764 33.5469C283.055 33.2051 283.409 32.9408 283.823 32.7539C284.238 32.5625 284.703 32.4668 285.218 32.4668C285.737 32.4668 286.204 32.5625 286.619 32.7539C287.038 32.9408 287.394 33.2051 287.686 33.5469C287.982 33.8841 288.207 34.2829 288.362 34.7432C288.517 35.1989 288.595 35.6934 288.595 36.2266V36.3838C288.595 36.917 288.517 37.4115 288.362 37.8672C288.207 38.3229 287.982 38.7217 287.686 39.0635C287.394 39.4007 287.041 39.665 286.626 39.8564C286.216 40.0433 285.751 40.1367 285.231 40.1367C284.712 40.1367 284.245 40.0433 283.83 39.8564C283.415 39.665 283.06 39.4007 282.764 39.0635C282.472 38.7217 282.249 38.3229 282.094 37.8672C281.939 37.4115 281.861 36.917 281.861 36.3838ZM283.126 36.2266V36.3838C283.126 36.7529 283.169 37.1016 283.256 37.4297C283.342 37.7533 283.472 38.0404 283.646 38.291C283.823 38.5417 284.044 38.7399 284.309 38.8857C284.573 39.027 284.881 39.0977 285.231 39.0977C285.578 39.0977 285.881 39.027 286.141 38.8857C286.405 38.7399 286.624 38.5417 286.797 38.291C286.97 38.0404 287.1 37.7533 287.187 37.4297C287.278 37.1016 287.323 36.7529 287.323 36.3838V36.2266C287.323 35.862 287.278 35.5179 287.187 35.1943C287.1 34.8662 286.968 34.5768 286.79 34.3262C286.617 34.071 286.398 33.8704 286.134 33.7246C285.874 33.5788 285.569 33.5059 285.218 33.5059C284.871 33.5059 284.566 33.5788 284.302 33.7246C284.042 33.8704 283.823 34.071 283.646 34.3262C283.472 34.5768 283.342 34.8662 283.256 35.1943C283.169 35.5179 283.126 35.862 283.126 36.2266ZM294.433 38.3184L296.948 32.6035H298.165L294.87 40H293.995L290.714 32.6035H291.931L294.433 38.3184ZM291.562 32.6035V40H290.297V32.6035H291.562ZM297.263 40V32.6035H298.534V40H297.263Z" fill="#4B5563"/>
<path d="M409.437 36.7461H407.01L406.996 35.7344H408.979C409.37 35.7344 409.696 35.6956 409.956 35.6182C410.22 35.5407 410.419 35.4245 410.551 35.2695C410.683 35.1146 410.749 34.9232 410.749 34.6953C410.749 34.5176 410.71 34.3626 410.633 34.2305C410.56 34.0938 410.448 33.9821 410.298 33.8955C410.147 33.8044 409.961 33.7383 409.737 33.6973C409.519 33.6517 409.261 33.6289 408.965 33.6289H407.345V40H406.08V32.6035H408.965C409.434 32.6035 409.856 32.6445 410.229 32.7266C410.608 32.8086 410.929 32.9339 411.193 33.1025C411.462 33.2666 411.667 33.4762 411.809 33.7314C411.95 33.9867 412.021 34.2874 412.021 34.6338C412.021 34.8571 411.975 35.069 411.884 35.2695C411.793 35.4701 411.658 35.6478 411.48 35.8027C411.303 35.9577 411.084 36.0853 410.824 36.1855C410.564 36.2812 410.266 36.3428 409.929 36.3701L409.437 36.7461ZM409.437 40H406.552L407.181 38.9746H409.437C409.787 38.9746 410.079 38.9313 410.312 38.8447C410.544 38.7536 410.717 38.626 410.831 38.4619C410.95 38.2933 411.009 38.0928 411.009 37.8604C411.009 37.6279 410.95 37.4297 410.831 37.2656C410.717 37.097 410.544 36.9694 410.312 36.8828C410.079 36.7917 409.787 36.7461 409.437 36.7461H407.516L407.529 35.7344H409.929L410.387 36.1172C410.792 36.1491 411.136 36.2493 411.419 36.418C411.701 36.5866 411.916 36.8008 412.062 37.0605C412.207 37.3158 412.28 37.5938 412.28 37.8945C412.28 38.2409 412.214 38.5462 412.082 38.8105C411.954 39.0749 411.768 39.2959 411.521 39.4736C411.275 39.6468 410.977 39.779 410.626 39.8701C410.275 39.9567 409.879 40 409.437 40ZM417.045 40.1367C416.53 40.1367 416.063 40.0501 415.644 39.877C415.229 39.6992 414.871 39.4508 414.57 39.1318C414.274 38.8128 414.046 38.4346 413.887 37.9971C413.727 37.5596 413.647 37.0811 413.647 36.5615V36.2744C413.647 35.6729 413.736 35.1374 413.914 34.668C414.092 34.194 414.333 33.793 414.639 33.4648C414.944 33.1367 415.29 32.8883 415.678 32.7197C416.065 32.5511 416.466 32.4668 416.881 32.4668C417.41 32.4668 417.865 32.5579 418.248 32.7402C418.635 32.9225 418.952 33.1777 419.198 33.5059C419.444 33.8294 419.627 34.2122 419.745 34.6543C419.864 35.0918 419.923 35.5703 419.923 36.0898V36.6572H414.399V35.625H418.658V35.5293C418.64 35.2012 418.572 34.8822 418.453 34.5723C418.339 34.2624 418.157 34.0072 417.906 33.8066C417.656 33.6061 417.314 33.5059 416.881 33.5059C416.594 33.5059 416.329 33.5674 416.088 33.6904C415.846 33.8089 415.639 33.9867 415.466 34.2236C415.293 34.4606 415.158 34.75 415.062 35.0918C414.967 35.4336 414.919 35.8278 414.919 36.2744V36.5615C414.919 36.9124 414.967 37.2428 415.062 37.5527C415.163 37.8581 415.306 38.127 415.493 38.3594C415.685 38.5918 415.915 38.7741 416.184 38.9062C416.457 39.0384 416.767 39.1045 417.113 39.1045C417.56 39.1045 417.938 39.0133 418.248 38.8311C418.558 38.6488 418.829 38.4049 419.062 38.0996L419.827 38.708C419.668 38.9495 419.465 39.1797 419.219 39.3984C418.973 39.6172 418.67 39.7949 418.31 39.9316C417.954 40.0684 417.533 40.1367 417.045 40.1367ZM426.978 32.6035V40H425.713V32.6035H426.978ZM426.547 36.001V37.04C426.292 37.1357 426.032 37.2223 425.768 37.2998C425.508 37.3727 425.232 37.432 424.94 37.4775C424.653 37.5186 424.341 37.5391 424.004 37.5391C423.421 37.5391 422.915 37.4388 422.486 37.2383C422.058 37.0332 421.728 36.7256 421.495 36.3154C421.263 35.9007 421.146 35.3789 421.146 34.75V32.5898H422.411V34.75C422.411 35.1602 422.473 35.4928 422.596 35.748C422.719 36.0033 422.899 36.1924 423.136 36.3154C423.373 36.4339 423.662 36.4932 424.004 36.4932C424.332 36.4932 424.64 36.4727 424.927 36.4316C425.218 36.3861 425.496 36.3268 425.761 36.2539C426.03 36.181 426.292 36.0967 426.547 36.001ZM432.084 40.1367C431.569 40.1367 431.102 40.0501 430.683 39.877C430.268 39.6992 429.91 39.4508 429.609 39.1318C429.313 38.8128 429.085 38.4346 428.926 37.9971C428.766 37.5596 428.687 37.0811 428.687 36.5615V36.2744C428.687 35.6729 428.775 35.1374 428.953 34.668C429.131 34.194 429.372 33.793 429.678 33.4648C429.983 33.1367 430.329 32.8883 430.717 32.7197C431.104 32.5511 431.505 32.4668 431.92 32.4668C432.449 32.4668 432.904 32.5579 433.287 32.7402C433.674 32.9225 433.991 33.1777 434.237 33.5059C434.483 33.8294 434.666 34.2122 434.784 34.6543C434.903 35.0918 434.962 35.5703 434.962 36.0898V36.6572H429.438V35.625H433.697V35.5293C433.679 35.2012 433.611 34.8822 433.492 34.5723C433.378 34.2624 433.196 34.0072 432.945 33.8066C432.695 33.6061 432.353 33.5059 431.92 33.5059C431.633 33.5059 431.368 33.5674 431.127 33.6904C430.885 33.8089 430.678 33.9867 430.505 34.2236C430.332 34.4606 430.197 34.75 430.102 35.0918C430.006 35.4336 429.958 35.8278 429.958 36.2744V36.5615C429.958 36.9124 430.006 37.2428 430.102 37.5527C430.202 37.8581 430.345 38.127 430.532 38.3594C430.724 38.5918 430.954 38.7741 431.223 38.9062C431.496 39.0384 431.806 39.1045 432.152 39.1045C432.599 39.1045 432.977 39.0133 433.287 38.8311C433.597 38.6488 433.868 38.4049 434.101 38.0996L434.866 38.708C434.707 38.9495 434.504 39.1797 434.258 39.3984C434.012 39.6172 433.709 39.7949 433.349 39.9316C432.993 40.0684 432.572 40.1367 432.084 40.1367ZM437.703 34.0254V42.8438H436.432V32.6035H437.594L437.703 34.0254ZM442.687 36.2402V36.3838C442.687 36.9215 442.623 37.4206 442.495 37.8809C442.368 38.3366 442.181 38.7331 441.935 39.0703C441.693 39.4076 441.395 39.6696 441.039 39.8564C440.684 40.0433 440.276 40.1367 439.815 40.1367C439.346 40.1367 438.931 40.0592 438.571 39.9043C438.211 39.7493 437.906 39.5238 437.655 39.2275C437.405 38.9313 437.204 38.5758 437.054 38.1611C436.908 37.7464 436.808 37.2793 436.753 36.7598V35.9941C436.808 35.4473 436.91 34.9574 437.061 34.5244C437.211 34.0915 437.409 33.7223 437.655 33.417C437.906 33.1071 438.209 32.8724 438.564 32.7129C438.92 32.5488 439.33 32.4668 439.795 32.4668C440.26 32.4668 440.672 32.5579 441.032 32.7402C441.392 32.918 441.695 33.1732 441.941 33.5059C442.188 33.8385 442.372 34.2373 442.495 34.7021C442.623 35.1624 442.687 35.6751 442.687 36.2402ZM441.415 36.3838V36.2402C441.415 35.8711 441.376 35.5247 441.299 35.2012C441.221 34.873 441.101 34.5859 440.937 34.3398C440.777 34.0892 440.572 33.8932 440.321 33.752C440.071 33.6061 439.772 33.5332 439.426 33.5332C439.107 33.5332 438.829 33.5879 438.592 33.6973C438.359 33.8066 438.161 33.9548 437.997 34.1416C437.833 34.3239 437.699 34.5335 437.594 34.7705C437.493 35.0029 437.418 35.2445 437.368 35.4951V37.2656C437.459 37.5846 437.587 37.8854 437.751 38.168C437.915 38.446 438.134 38.6715 438.407 38.8447C438.681 39.0133 439.025 39.0977 439.439 39.0977C439.781 39.0977 440.075 39.027 440.321 38.8857C440.572 38.7399 440.777 38.5417 440.937 38.291C441.101 38.0404 441.221 37.7533 441.299 37.4297C441.376 37.1016 441.415 36.7529 441.415 36.3838ZM443.965 36.3838V36.2266C443.965 35.6934 444.042 35.1989 444.197 34.7432C444.352 34.2829 444.576 33.8841 444.867 33.5469C445.159 33.2051 445.512 32.9408 445.927 32.7539C446.341 32.5625 446.806 32.4668 447.321 32.4668C447.841 32.4668 448.308 32.5625 448.723 32.7539C449.142 32.9408 449.497 33.2051 449.789 33.5469C450.085 33.8841 450.311 34.2829 450.466 34.7432C450.621 35.1989 450.698 35.6934 450.698 36.2266V36.3838C450.698 36.917 450.621 37.4115 450.466 37.8672C450.311 38.3229 450.085 38.7217 449.789 39.0635C449.497 39.4007 449.144 39.665 448.729 39.8564C448.319 40.0433 447.854 40.1367 447.335 40.1367C446.815 40.1367 446.348 40.0433 445.934 39.8564C445.519 39.665 445.163 39.4007 444.867 39.0635C444.576 38.7217 444.352 38.3229 444.197 37.8672C444.042 37.4115 443.965 36.917 443.965 36.3838ZM445.229 36.2266V36.3838C445.229 36.7529 445.273 37.1016 445.359 37.4297C445.446 37.7533 445.576 38.0404 445.749 38.291C445.927 38.5417 446.148 38.7399 446.412 38.8857C446.676 39.027 446.984 39.0977 447.335 39.0977C447.681 39.0977 447.984 39.027 448.244 38.8857C448.508 38.7399 448.727 38.5417 448.9 38.291C449.074 38.0404 449.203 37.7533 449.29 37.4297C449.381 37.1016 449.427 36.7529 449.427 36.3838V36.2266C449.427 35.862 449.381 35.5179 449.29 35.1943C449.203 34.8662 449.071 34.5768 448.894 34.3262C448.72 34.071 448.502 33.8704 448.237 33.7246C447.978 33.5788 447.672 33.5059 447.321 33.5059C446.975 33.5059 446.67 33.5788 446.405 33.7246C446.146 33.8704 445.927 34.071 445.749 34.3262C445.576 34.5768 445.446 34.8662 445.359 35.1943C445.273 35.5179 445.229 35.862 445.229 36.2266ZM456.536 38.3184L459.052 32.6035H460.269L456.974 40H456.099L452.817 32.6035H454.034L456.536 38.3184ZM453.665 32.6035V40H452.4V32.6035H453.665ZM459.366 40V32.6035H460.638V40H459.366Z" fill="#4B5563"/>
<path fill-rule="evenodd" clip-rule="evenodd" d="M345 21.6C347.546 21.6 349.988 20.5886 351.789 18.7882C353.589 16.9879 354.6 14.5461 354.6 12C354.6 9.45394 353.589 7.01215 351.789 5.2118C349.988 3.41145 347.546 2.40002 345 2.40002C342.454 2.40002 340.013 3.41145 338.212 5.2118C336.412 7.01215 335.4 9.45394 335.4 12C335.4 14.5461 336.412 16.9879 338.212 18.7882C340.013 20.5886 342.454 21.6 345 21.6ZM345.9 8.10002C345.9 7.86133 345.806 7.63241 345.637 7.46363C345.468 7.29484 345.239 7.20002 345 7.20002C344.762 7.20002 344.533 7.29484 344.364 7.46363C344.195 7.63241 344.1 7.86133 344.1 8.10002V11.1H341.1C340.862 11.1 340.633 11.1948 340.464 11.3636C340.295 11.5324 340.2 11.7613 340.2 12C340.2 12.2387 340.295 12.4676 340.464 12.6364C340.633 12.8052 340.862 12.9 341.1 12.9H344.1V15.9C344.1 16.1387 344.195 16.3676 344.364 16.5364C344.533 16.7052 344.762 16.8 345 16.8C345.239 16.8 345.468 16.7052 345.637 16.5364C345.806 16.3676 345.9 16.1387 345.9 15.9V12.9H348.9C349.139 12.9 349.368 12.8052 349.537 12.6364C349.706 12.4676 349.8 12.2387 349.8 12C349.8 11.7613 349.706 11.5324 349.537 11.3636C349.368 11.1948 349.139 11.1 348.9 11.1H345.9V8.10002Z" fill="#492BA0"/>
<path d="M0 57.5H3.02778V56.5H0V57.5ZM9.08333 57.5H15.1389V56.5H9.08333V57.5ZM21.1944 57.5H27.25V56.5H21.1944V57.5ZM33.3056 57.5H39.3611V56.5H33.3056V57.5ZM45.4167 57.5H51.4722V56.5H45.4167V57.5ZM57.5278 57.5H63.5833V56.5H57.5278V57.5ZM69.6389 57.5H75.6945V56.5H69.6389V57.5ZM81.75 57.5H87.8056V56.5H81.75V57.5ZM93.8611 57.5H99.9167V56.5H93.8611V57.5ZM105.972 57.5H112.028V56.5H105.972V57.5ZM118.083 57.5H124.139V56.5H118.083V57.5ZM130.194 57.5H136.25V56.5H130.194V57.5ZM142.306 57.5H148.361V56.5H142.306V57.5ZM154.417 57.5H160.472V56.5H154.417V57.5ZM166.528 57.5H172.583V56.5H166.528V57.5ZM178.639 57.5H184.694V56.5H178.639V57.5ZM190.75 57.5H196.806V56.5H190.75V57.5ZM202.861 57.5H208.917V56.5H202.861V57.5ZM214.972 57.5H221.028V56.5H214.972V57.5ZM227.083 57.5H233.139V56.5H227.083V57.5ZM239.194 57.5H245.25V56.5H239.194V57.5ZM251.306 57.5H257.361V56.5H251.306V57.5ZM263.417 57.5H269.472V56.5H263.417V57.5ZM275.528 57.5H281.583V56.5H275.528V57.5ZM287.639 57.5H293.694V56.5H287.639V57.5ZM299.75 57.5H305.805V56.5H299.75V57.5ZM311.861 57.5H317.917V56.5H311.861V57.5ZM323.972 57.5H330.028V56.5H323.972V57.5ZM336.083 57.5H342.139V56.5H336.083V57.5ZM348.194 57.5H354.25V56.5H348.194V57.5ZM360.305 57.5H366.361V56.5H360.305V57.5ZM372.416 57.5H378.472V56.5H372.416V57.5ZM384.528 57.5H390.583V56.5H384.528V57.5ZM396.639 57.5H402.694V56.5H396.639V57.5ZM408.75 57.5H414.805V56.5H408.75V57.5ZM420.861 57.5H426.916V56.5H420.861V57.5ZM432.972 57.5H439.027V56.5H432.972V57.5ZM445.083 57.5H451.138V56.5H445.083V57.5ZM457.194 57.5H463.25V56.5H457.194V57.5ZM469.305 57.5H475.361V56.5H469.305V57.5ZM481.416 57.5H487.472V56.5H481.416V57.5ZM493.527 57.5H499.583V56.5H493.527V57.5ZM505.638 57.5H511.694V56.5H505.638V57.5ZM517.749 57.5H523.805V56.5H517.749V57.5ZM529.861 57.5H535.916V56.5H529.861V57.5ZM541.972 57.5H545V56.5H541.972V57.5ZM0 58H3.02778V56H0V58ZM9.08333 58H15.1389V56H9.08333V58ZM21.1944 58H27.25V56H21.1944V58ZM33.3056 58H39.3611V56H33.3056V58ZM45.4167 58H51.4722V56H45.4167V58ZM57.5278 58H63.5833V56H57.5278V58ZM69.6389 58H75.6945V56H69.6389V58ZM81.75 58H87.8056V56H81.75V58ZM93.8611 58H99.9167V56H93.8611V58ZM105.972 58H112.028V56H105.972V58ZM118.083 58H124.139V56H118.083V58ZM130.194 58H136.25V56H130.194V58ZM142.306 58H148.361V56H142.306V58ZM154.417 58H160.472V56H154.417V58ZM166.528 58H172.583V56H166.528V58ZM178.639 58H184.694V56H178.639V58ZM190.75 58H196.806V56H190.75V58ZM202.861 58H208.917V56H202.861V58ZM214.972 58H221.028V56H214.972V58ZM227.083 58H233.139V56H227.083V58ZM239.194 58H245.25V56H239.194V58ZM251.306 58H257.361V56H251.306V58ZM263.417 58H269.472V56H263.417V58ZM275.528 58H281.583V56H275.528V58ZM287.639 58H293.694V56H287.639V58ZM299.75 58H305.805V56H299.75V58ZM311.861 58H317.917V56H311.861V58ZM323.972 58H330.028V56H323.972V58ZM336.083 58H342.139V56H336.083V58ZM348.194 58H354.25V56H348.194V58ZM360.305 58H366.361V56H360.305V58ZM372.416 58H378.472V56H372.416V58ZM384.528 58H390.583V56H384.528V58ZM396.639 58H402.694V56H396.639V58ZM408.75 58H414.805V56H408.75V58ZM420.861 58H426.916V56H420.861V58ZM432.972 58H439.027V56H432.972V58ZM445.083 58H451.138V56H445.083V58ZM457.194 58H463.25V56H457.194V58ZM469.305 58H475.361V56H469.305V58ZM481.416 58H487.472V56H481.416V58ZM493.527 58H499.583V56H493.527V58ZM505.638 58H511.694V56H505.638V58ZM517.749 58H523.805V56H517.749V58ZM529.861 58H535.916V56H529.861V58ZM541.972 58H545V56H541.972V58Z" fill="#D8C8EC" mask="url(#path-1-inside-1_872_69096)"/>
</svg>
