<svg width="239" height="102" viewBox="0 0 239 102" fill="none" xmlns="http://www.w3.org/2000/svg">
<path d="M15.5479 24.3672V26H5.31055V24.5713L10.4346 18.8672C11.0648 18.1654 11.5518 17.571 11.8955 17.084C12.2464 16.5898 12.4899 16.1494 12.626 15.7627C12.7692 15.3688 12.8408 14.9678 12.8408 14.5596C12.8408 14.0439 12.7334 13.5785 12.5186 13.1631C12.3109 12.7406 12.0029 12.404 11.5947 12.1533C11.1865 11.9027 10.6924 11.7773 10.1123 11.7773C9.41764 11.7773 8.83757 11.9134 8.37207 12.1855C7.91374 12.4505 7.56999 12.8229 7.34082 13.3027C7.11165 13.7826 6.99707 14.334 6.99707 14.957H5.00977C5.00977 14.0762 5.20312 13.2705 5.58984 12.54C5.97656 11.8096 6.54948 11.2295 7.30859 10.7998C8.06771 10.363 9.00228 10.1445 10.1123 10.1445C11.1006 10.1445 11.9456 10.32 12.6475 10.6709C13.3493 11.0146 13.8864 11.5016 14.2588 12.1318C14.6383 12.7549 14.8281 13.4854 14.8281 14.3232C14.8281 14.7816 14.7493 15.2471 14.5918 15.7197C14.4414 16.1852 14.2301 16.6507 13.958 17.1162C13.693 17.5817 13.3815 18.04 13.0234 18.4912C12.6725 18.9424 12.2965 19.3864 11.8955 19.8232L7.70605 24.3672H15.5479ZM22.0254 18.5342V20.167H16.7832V18.5342H22.0254ZM26.1182 22.8525L31.4785 14.377H33.4766V26H31.4785V17.5244L26.1182 26H24.1416V14.377H26.1182V22.8525ZM30.3936 10.166H32.0049C32.0049 10.7246 31.876 11.2223 31.6182 11.6592C31.3604 12.0889 30.9915 12.4255 30.5117 12.6689C30.0319 12.9124 29.4626 13.0342 28.8037 13.0342C27.8083 13.0342 27.0205 12.7692 26.4404 12.2393C25.8675 11.7021 25.5811 11.0111 25.5811 10.166H27.1924C27.1924 10.5885 27.3141 10.9609 27.5576 11.2832C27.8011 11.6055 28.2165 11.7666 28.8037 11.7666C29.3766 11.7666 29.7848 11.6055 30.0283 11.2832C30.2718 10.9609 30.3936 10.5885 30.3936 10.166ZM44.2188 14.377H46.2061L46.0342 18.7275C45.9912 19.8304 45.8659 20.7829 45.6582 21.585C45.4505 22.387 45.1855 23.071 44.8633 23.6367C44.541 24.1953 44.1794 24.6644 43.7783 25.0439C43.3844 25.4235 42.9762 25.7422 42.5537 26H41.5654L41.6191 24.3779L42.0273 24.3672C42.2637 24.0879 42.4928 23.8014 42.7148 23.5078C42.9368 23.207 43.141 22.8525 43.3271 22.4443C43.5133 22.029 43.6673 21.5241 43.7891 20.9297C43.918 20.3281 44.0003 19.5941 44.0361 18.7275L44.2188 14.377ZM44.7129 14.377H51.7061V26H49.7188V16.2139H44.7129V14.377ZM41.1143 24.3672H53.1992V29.4268H51.2119V26H43.1016V29.4268H41.1035L41.1143 24.3672ZM60.2246 26.2148C59.4154 26.2148 58.6813 26.0788 58.0225 25.8066C57.3708 25.5273 56.8086 25.137 56.3359 24.6357C55.8704 24.1344 55.5124 23.54 55.2617 22.8525C55.0111 22.165 54.8857 21.4131 54.8857 20.5967V20.1455C54.8857 19.2002 55.0254 18.3587 55.3047 17.6211C55.584 16.8763 55.9635 16.2461 56.4434 15.7305C56.9232 15.2148 57.4674 14.8245 58.0762 14.5596C58.6849 14.2946 59.3151 14.1621 59.9668 14.1621C60.7975 14.1621 61.5137 14.3053 62.1152 14.5918C62.724 14.8783 63.2217 15.2793 63.6084 15.7949C63.9951 16.3034 64.2816 16.9049 64.4678 17.5996C64.654 18.2871 64.7471 19.0391 64.7471 19.8555V20.7471H56.0674V19.125H62.7598V18.9746C62.7311 18.459 62.6237 17.9577 62.4375 17.4707C62.2585 16.9837 61.972 16.5827 61.5781 16.2676C61.1842 15.9525 60.6471 15.7949 59.9668 15.7949C59.5156 15.7949 59.1003 15.8916 58.7207 16.085C58.3411 16.2712 58.0153 16.5505 57.7432 16.9229C57.471 17.2952 57.2598 17.75 57.1094 18.2871C56.959 18.8242 56.8838 19.4437 56.8838 20.1455V20.5967C56.8838 21.1481 56.959 21.6673 57.1094 22.1543C57.2669 22.6341 57.4925 23.0566 57.7861 23.4219C58.0869 23.7871 58.4486 24.0736 58.8711 24.2812C59.3008 24.4889 59.7878 24.5928 60.332 24.5928C61.0339 24.5928 61.6283 24.4495 62.1152 24.1631C62.6022 23.8766 63.0283 23.4935 63.3936 23.0137L64.5967 23.9697C64.346 24.3493 64.0273 24.7109 63.6406 25.0547C63.2539 25.3984 62.7777 25.6777 62.2119 25.8926C61.6533 26.1074 60.9909 26.2148 60.2246 26.2148ZM74.9521 19.415V21.0264H68.8076V19.415H74.9521ZM69.2266 14.377V26H67.2393V14.377H69.2266ZM76.5635 14.377V26H74.5654V14.377H76.5635ZM81.3975 18.373H84.8887C85.8268 18.373 86.6182 18.5378 87.2627 18.8672C87.9072 19.1895 88.3942 19.637 88.7236 20.21C89.0602 20.7757 89.2285 21.4202 89.2285 22.1436C89.2285 22.6807 89.1354 23.1855 88.9492 23.6582C88.763 24.1237 88.4837 24.5319 88.1113 24.8828C87.7461 25.2337 87.2913 25.5094 86.7471 25.71C86.21 25.9033 85.5905 26 84.8887 26H79.9473V14.377H81.9346V24.3672H84.8887C85.4616 24.3672 85.9199 24.2633 86.2637 24.0557C86.6074 23.848 86.8545 23.5794 87.0049 23.25C87.1553 22.9206 87.2305 22.5768 87.2305 22.2188C87.2305 21.8678 87.1553 21.5241 87.0049 21.1875C86.8545 20.8509 86.6074 20.5716 86.2637 20.3496C85.9199 20.1204 85.4616 20.0059 84.8887 20.0059H81.3975V18.373ZM99.3154 22.8525L104.676 14.377H106.674V26H104.676V17.5244L99.3154 26H97.3389V14.377H99.3154V22.8525ZM117.416 14.377H119.403L119.231 18.7275C119.188 19.8304 119.063 20.7829 118.855 21.585C118.648 22.387 118.383 23.071 118.061 23.6367C117.738 24.1953 117.377 24.6644 116.976 25.0439C116.582 25.4235 116.174 25.7422 115.751 26H114.763L114.816 24.3779L115.225 24.3672C115.461 24.0879 115.69 23.8014 115.912 23.5078C116.134 23.207 116.338 22.8525 116.524 22.4443C116.711 22.029 116.865 21.5241 116.986 20.9297C117.115 20.3281 117.198 19.5941 117.233 18.7275L117.416 14.377ZM117.91 14.377H124.903V26H122.916V16.2139H117.91V14.377ZM114.312 24.3672H126.396V29.4268H124.409V26H116.299V29.4268H114.301L114.312 24.3672ZM135.452 24.0127V18.0293C135.452 17.571 135.359 17.1735 135.173 16.8369C134.994 16.4932 134.722 16.2282 134.356 16.042C133.991 15.8558 133.54 15.7627 133.003 15.7627C132.502 15.7627 132.061 15.8486 131.682 16.0205C131.309 16.1924 131.016 16.418 130.801 16.6973C130.593 16.9766 130.489 17.2773 130.489 17.5996H128.502C128.502 17.1842 128.609 16.7725 128.824 16.3643C129.039 15.9561 129.347 15.5872 129.748 15.2578C130.156 14.9212 130.643 14.6562 131.209 14.4629C131.782 14.2624 132.419 14.1621 133.121 14.1621C133.966 14.1621 134.711 14.3053 135.355 14.5918C136.007 14.8783 136.516 15.3115 136.881 15.8916C137.253 16.4645 137.439 17.1842 137.439 18.0508V23.4648C137.439 23.8516 137.472 24.2633 137.536 24.7002C137.608 25.137 137.712 25.513 137.848 25.8281V26H135.774C135.674 25.7708 135.595 25.4665 135.538 25.0869C135.481 24.7002 135.452 24.3421 135.452 24.0127ZM135.796 18.9531L135.817 20.3496H133.809C133.243 20.3496 132.738 20.3962 132.294 20.4893C131.85 20.5752 131.478 20.7077 131.177 20.8867C130.876 21.0658 130.647 21.2913 130.489 21.5635C130.332 21.8285 130.253 22.14 130.253 22.498C130.253 22.8633 130.335 23.1963 130.5 23.4971C130.665 23.7979 130.912 24.0378 131.241 24.2168C131.578 24.3887 131.99 24.4746 132.477 24.4746C133.085 24.4746 133.622 24.3457 134.088 24.0879C134.553 23.8301 134.922 23.515 135.194 23.1426C135.474 22.7702 135.624 22.4085 135.646 22.0576L136.494 23.0137C136.444 23.3145 136.308 23.6475 136.086 24.0127C135.864 24.3779 135.567 24.7288 135.194 25.0654C134.829 25.3949 134.392 25.6706 133.884 25.8926C133.382 26.1074 132.817 26.2148 132.187 26.2148C131.399 26.2148 130.708 26.0609 130.113 25.7529C129.526 25.445 129.068 25.0332 128.738 24.5176C128.416 23.9948 128.255 23.4111 128.255 22.7666C128.255 22.1436 128.377 21.5957 128.62 21.123C128.864 20.6432 129.215 20.2458 129.673 19.9307C130.131 19.6084 130.683 19.3649 131.327 19.2002C131.972 19.0355 132.691 18.9531 133.486 18.9531H135.796ZM148.332 14.377V16.0205H142.714V14.377H148.332ZM150.083 14.377V26H148.096V14.377H150.083ZM142.23 14.377H144.229L143.928 19.9844C143.878 20.8509 143.795 21.6172 143.681 22.2832C143.573 22.9421 143.423 23.5078 143.229 23.9805C143.043 24.4531 142.807 24.8398 142.521 25.1406C142.241 25.4342 141.905 25.6527 141.511 25.7959C141.117 25.932 140.662 26 140.146 26H139.523V24.249L139.953 24.2168C140.261 24.1953 140.522 24.1237 140.737 24.002C140.959 23.8802 141.146 23.7012 141.296 23.4648C141.446 23.2214 141.568 22.9098 141.661 22.5303C141.761 22.1507 141.837 21.6995 141.887 21.1768C141.944 20.654 141.987 20.0452 142.016 19.3506L142.23 14.377ZM158.107 26.2148C157.298 26.2148 156.564 26.0788 155.905 25.8066C155.254 25.5273 154.691 25.137 154.219 24.6357C153.753 24.1344 153.395 23.54 153.145 22.8525C152.894 22.165 152.769 21.4131 152.769 20.5967V20.1455C152.769 19.2002 152.908 18.3587 153.188 17.6211C153.467 16.8763 153.846 16.2461 154.326 15.7305C154.806 15.2148 155.35 14.8245 155.959 14.5596C156.568 14.2946 157.198 14.1621 157.85 14.1621C158.68 14.1621 159.396 14.3053 159.998 14.5918C160.607 14.8783 161.104 15.2793 161.491 15.7949C161.878 16.3034 162.164 16.9049 162.351 17.5996C162.537 18.2871 162.63 19.0391 162.63 19.8555V20.7471H153.95V19.125H160.643V18.9746C160.614 18.459 160.507 17.9577 160.32 17.4707C160.141 16.9837 159.855 16.5827 159.461 16.2676C159.067 15.9525 158.53 15.7949 157.85 15.7949C157.398 15.7949 156.983 15.8916 156.604 16.085C156.224 16.2712 155.898 16.5505 155.626 16.9229C155.354 17.2952 155.143 17.75 154.992 18.2871C154.842 18.8242 154.767 19.4437 154.767 20.1455V20.5967C154.767 21.1481 154.842 21.6673 154.992 22.1543C155.15 22.6341 155.375 23.0566 155.669 23.4219C155.97 23.7871 156.331 24.0736 156.754 24.2812C157.184 24.4889 157.671 24.5928 158.215 24.5928C158.917 24.5928 159.511 24.4495 159.998 24.1631C160.485 23.8766 160.911 23.4935 161.276 23.0137L162.479 23.9697C162.229 24.3493 161.91 24.7109 161.523 25.0547C161.137 25.3984 160.66 25.6777 160.095 25.8926C159.536 26.1074 158.874 26.2148 158.107 26.2148ZM169.773 26.2148C168.964 26.2148 168.23 26.0788 167.571 25.8066C166.92 25.5273 166.357 25.137 165.885 24.6357C165.419 24.1344 165.061 23.54 164.811 22.8525C164.56 22.165 164.435 21.4131 164.435 20.5967V20.1455C164.435 19.2002 164.574 18.3587 164.854 17.6211C165.133 16.8763 165.512 16.2461 165.992 15.7305C166.472 15.2148 167.016 14.8245 167.625 14.5596C168.234 14.2946 168.864 14.1621 169.516 14.1621C170.346 14.1621 171.062 14.3053 171.664 14.5918C172.273 14.8783 172.771 15.2793 173.157 15.7949C173.544 16.3034 173.83 16.9049 174.017 17.5996C174.203 18.2871 174.296 19.0391 174.296 19.8555V20.7471H165.616V19.125H172.309V18.9746C172.28 18.459 172.173 17.9577 171.986 17.4707C171.807 16.9837 171.521 16.5827 171.127 16.2676C170.733 15.9525 170.196 15.7949 169.516 15.7949C169.064 15.7949 168.649 15.8916 168.27 16.085C167.89 16.2712 167.564 16.5505 167.292 16.9229C167.02 17.2952 166.809 17.75 166.658 18.2871C166.508 18.8242 166.433 19.4437 166.433 20.1455V20.5967C166.433 21.1481 166.508 21.6673 166.658 22.1543C166.816 22.6341 167.041 23.0566 167.335 23.4219C167.636 23.7871 167.997 24.0736 168.42 24.2812C168.85 24.4889 169.337 24.5928 169.881 24.5928C170.583 24.5928 171.177 24.4495 171.664 24.1631C172.151 23.8766 172.577 23.4935 172.942 23.0137L174.146 23.9697C173.895 24.3493 173.576 24.7109 173.189 25.0547C172.803 25.3984 172.326 25.6777 171.761 25.8926C171.202 26.1074 170.54 26.2148 169.773 26.2148Z" fill="#492BA0"/>
<path d="M41.5449 64.3125V66H32.9668V64.5498L37.1328 60.0059C37.5898 59.4902 37.9502 59.0449 38.2139 58.6699C38.4775 58.2949 38.6621 57.958 38.7676 57.6592C38.8789 57.3545 38.9346 57.0586 38.9346 56.7715C38.9346 56.3672 38.8584 56.0127 38.7061 55.708C38.5596 55.3975 38.3428 55.1543 38.0557 54.9785C37.7686 54.7969 37.4199 54.7061 37.0098 54.7061C36.5352 54.7061 36.1367 54.8086 35.8145 55.0137C35.4922 55.2188 35.249 55.5029 35.085 55.8662C34.9209 56.2236 34.8389 56.6338 34.8389 57.0967H32.7207C32.7207 56.3525 32.8906 55.6729 33.2305 55.0576C33.5703 54.4365 34.0625 53.9443 34.707 53.5811C35.3516 53.2119 36.1279 53.0273 37.0361 53.0273C37.8916 53.0273 38.6182 53.1709 39.2158 53.458C39.8135 53.7451 40.2676 54.1523 40.5781 54.6797C40.8945 55.207 41.0527 55.8311 41.0527 56.5518C41.0527 56.9502 40.9883 57.3457 40.8594 57.7383C40.7305 58.1309 40.5459 58.5234 40.3057 58.916C40.0713 59.3027 39.793 59.6924 39.4707 60.085C39.1484 60.4717 38.7939 60.8643 38.4072 61.2627L35.6387 64.3125H41.5449ZM51.5381 58.5293V60.6211C51.5381 61.623 51.4385 62.4785 51.2393 63.1875C51.0459 63.8906 50.7646 64.4619 50.3955 64.9014C50.0264 65.3408 49.584 65.6631 49.0684 65.8682C48.5586 66.0732 47.9873 66.1758 47.3545 66.1758C46.8506 66.1758 46.3818 66.1113 45.9482 65.9824C45.5205 65.8535 45.1338 65.6514 44.7881 65.376C44.4424 65.1006 44.1465 64.7461 43.9004 64.3125C43.6602 63.873 43.4727 63.3486 43.3379 62.7393C43.209 62.1299 43.1445 61.4238 43.1445 60.6211V58.5293C43.1445 57.5215 43.2441 56.6719 43.4434 55.9805C43.6426 55.2832 43.9268 54.7178 44.2959 54.2842C44.665 53.8447 45.1045 53.5254 45.6143 53.3262C46.1299 53.127 46.7041 53.0273 47.3369 53.0273C47.8467 53.0273 48.3154 53.0918 48.7432 53.2207C49.1768 53.3438 49.5635 53.54 49.9033 53.8096C50.249 54.0791 50.542 54.4307 50.7822 54.8643C51.0283 55.292 51.2158 55.8105 51.3447 56.4199C51.4736 57.0234 51.5381 57.7266 51.5381 58.5293ZM49.4199 60.9199V58.2129C49.4199 57.7031 49.3906 57.2549 49.332 56.8682C49.2734 56.4756 49.1855 56.1445 49.0684 55.875C48.957 55.5996 48.8164 55.377 48.6465 55.207C48.4766 55.0312 48.2832 54.9053 48.0664 54.8291C47.8496 54.7471 47.6064 54.7061 47.3369 54.7061C47.0088 54.7061 46.7158 54.7705 46.458 54.8994C46.2002 55.0225 45.9834 55.2217 45.8076 55.4971C45.6318 55.7725 45.4971 56.1357 45.4033 56.5869C45.3154 57.0322 45.2715 57.5742 45.2715 58.2129V60.9199C45.2715 61.4355 45.3008 61.8896 45.3594 62.2822C45.418 62.6748 45.5059 63.0117 45.623 63.293C45.7402 63.5684 45.8809 63.7969 46.0449 63.9785C46.2148 64.1543 46.4082 64.2832 46.625 64.3652C46.8477 64.4473 47.0908 64.4883 47.3545 64.4883C47.6885 64.4883 47.9844 64.4238 48.2422 64.2949C48.5 64.166 48.7168 63.9609 48.8926 63.6797C49.0684 63.3926 49.2002 63.0205 49.2881 62.5635C49.376 62.1064 49.4199 61.5586 49.4199 60.9199ZM61.7686 58.5293V60.6211C61.7686 61.623 61.6689 62.4785 61.4697 63.1875C61.2764 63.8906 60.9951 64.4619 60.626 64.9014C60.2568 65.3408 59.8145 65.6631 59.2988 65.8682C58.7891 66.0732 58.2178 66.1758 57.585 66.1758C57.0811 66.1758 56.6123 66.1113 56.1787 65.9824C55.751 65.8535 55.3643 65.6514 55.0186 65.376C54.6729 65.1006 54.377 64.7461 54.1309 64.3125C53.8906 63.873 53.7031 63.3486 53.5684 62.7393C53.4395 62.1299 53.375 61.4238 53.375 60.6211V58.5293C53.375 57.5215 53.4746 56.6719 53.6738 55.9805C53.873 55.2832 54.1572 54.7178 54.5264 54.2842C54.8955 53.8447 55.335 53.5254 55.8447 53.3262C56.3604 53.127 56.9346 53.0273 57.5674 53.0273C58.0771 53.0273 58.5459 53.0918 58.9736 53.2207C59.4072 53.3438 59.7939 53.54 60.1338 53.8096C60.4795 54.0791 60.7725 54.4307 61.0127 54.8643C61.2588 55.292 61.4463 55.8105 61.5752 56.4199C61.7041 57.0234 61.7686 57.7266 61.7686 58.5293ZM59.6504 60.9199V58.2129C59.6504 57.7031 59.6211 57.2549 59.5625 56.8682C59.5039 56.4756 59.416 56.1445 59.2988 55.875C59.1875 55.5996 59.0469 55.377 58.877 55.207C58.707 55.0312 58.5137 54.9053 58.2969 54.8291C58.0801 54.7471 57.8369 54.7061 57.5674 54.7061C57.2393 54.7061 56.9463 54.7705 56.6885 54.8994C56.4307 55.0225 56.2139 55.2217 56.0381 55.4971C55.8623 55.7725 55.7275 56.1357 55.6338 56.5869C55.5459 57.0322 55.502 57.5742 55.502 58.2129V60.9199C55.502 61.4355 55.5312 61.8896 55.5898 62.2822C55.6484 62.6748 55.7363 63.0117 55.8535 63.293C55.9707 63.5684 56.1113 63.7969 56.2754 63.9785C56.4453 64.1543 56.6387 64.2832 56.8555 64.3652C57.0781 64.4473 57.3213 64.4883 57.585 64.4883C57.9189 64.4883 58.2148 64.4238 58.4727 64.2949C58.7305 64.166 58.9473 63.9609 59.123 63.6797C59.2988 63.3926 59.4307 63.0205 59.5186 62.5635C59.6064 62.1064 59.6504 61.5586 59.6504 60.9199ZM73.915 63.4336L76.7451 56.4902H78.582L74.6357 66H73.1943L69.2568 56.4902H71.0938L73.915 63.4336ZM70.5488 56.4902V66H68.4307V56.4902H70.5488ZM77.2812 66V56.4902H79.4082V66H77.2812ZM88.1094 56.4902V58.1777H83.9609V66H81.8428V56.4902H88.1094Z" fill="#492BA0"/>
<path d="M186.545 64.3125V66H177.967V64.5498L182.133 60.0059C182.59 59.4902 182.95 59.0449 183.214 58.6699C183.478 58.2949 183.662 57.958 183.768 57.6592C183.879 57.3545 183.935 57.0586 183.935 56.7715C183.935 56.3672 183.858 56.0127 183.706 55.708C183.56 55.3975 183.343 55.1543 183.056 54.9785C182.769 54.7969 182.42 54.7061 182.01 54.7061C181.535 54.7061 181.137 54.8086 180.814 55.0137C180.492 55.2188 180.249 55.5029 180.085 55.8662C179.921 56.2236 179.839 56.6338 179.839 57.0967H177.721C177.721 56.3525 177.891 55.6729 178.23 55.0576C178.57 54.4365 179.062 53.9443 179.707 53.5811C180.352 53.2119 181.128 53.0273 182.036 53.0273C182.892 53.0273 183.618 53.1709 184.216 53.458C184.813 53.7451 185.268 54.1523 185.578 54.6797C185.895 55.207 186.053 55.8311 186.053 56.5518C186.053 56.9502 185.988 57.3457 185.859 57.7383C185.73 58.1309 185.546 58.5234 185.306 58.916C185.071 59.3027 184.793 59.6924 184.471 60.085C184.148 60.4717 183.794 60.8643 183.407 61.2627L180.639 64.3125H186.545ZM196.538 58.5293V60.6211C196.538 61.623 196.438 62.4785 196.239 63.1875C196.046 63.8906 195.765 64.4619 195.396 64.9014C195.026 65.3408 194.584 65.6631 194.068 65.8682C193.559 66.0732 192.987 66.1758 192.354 66.1758C191.851 66.1758 191.382 66.1113 190.948 65.9824C190.521 65.8535 190.134 65.6514 189.788 65.376C189.442 65.1006 189.146 64.7461 188.9 64.3125C188.66 63.873 188.473 63.3486 188.338 62.7393C188.209 62.1299 188.145 61.4238 188.145 60.6211V58.5293C188.145 57.5215 188.244 56.6719 188.443 55.9805C188.643 55.2832 188.927 54.7178 189.296 54.2842C189.665 53.8447 190.104 53.5254 190.614 53.3262C191.13 53.127 191.704 53.0273 192.337 53.0273C192.847 53.0273 193.315 53.0918 193.743 53.2207C194.177 53.3438 194.563 53.54 194.903 53.8096C195.249 54.0791 195.542 54.4307 195.782 54.8643C196.028 55.292 196.216 55.8105 196.345 56.4199C196.474 57.0234 196.538 57.7266 196.538 58.5293ZM194.42 60.9199V58.2129C194.42 57.7031 194.391 57.2549 194.332 56.8682C194.273 56.4756 194.186 56.1445 194.068 55.875C193.957 55.5996 193.816 55.377 193.646 55.207C193.477 55.0312 193.283 54.9053 193.066 54.8291C192.85 54.7471 192.606 54.7061 192.337 54.7061C192.009 54.7061 191.716 54.7705 191.458 54.8994C191.2 55.0225 190.983 55.2217 190.808 55.4971C190.632 55.7725 190.497 56.1357 190.403 56.5869C190.315 57.0322 190.271 57.5742 190.271 58.2129V60.9199C190.271 61.4355 190.301 61.8896 190.359 62.2822C190.418 62.6748 190.506 63.0117 190.623 63.293C190.74 63.5684 190.881 63.7969 191.045 63.9785C191.215 64.1543 191.408 64.2832 191.625 64.3652C191.848 64.4473 192.091 64.4883 192.354 64.4883C192.688 64.4883 192.984 64.4238 193.242 64.2949C193.5 64.166 193.717 63.9609 193.893 63.6797C194.068 63.3926 194.2 63.0205 194.288 62.5635C194.376 62.1064 194.42 61.5586 194.42 60.9199ZM206.769 58.5293V60.6211C206.769 61.623 206.669 62.4785 206.47 63.1875C206.276 63.8906 205.995 64.4619 205.626 64.9014C205.257 65.3408 204.814 65.6631 204.299 65.8682C203.789 66.0732 203.218 66.1758 202.585 66.1758C202.081 66.1758 201.612 66.1113 201.179 65.9824C200.751 65.8535 200.364 65.6514 200.019 65.376C199.673 65.1006 199.377 64.7461 199.131 64.3125C198.891 63.873 198.703 63.3486 198.568 62.7393C198.439 62.1299 198.375 61.4238 198.375 60.6211V58.5293C198.375 57.5215 198.475 56.6719 198.674 55.9805C198.873 55.2832 199.157 54.7178 199.526 54.2842C199.896 53.8447 200.335 53.5254 200.845 53.3262C201.36 53.127 201.935 53.0273 202.567 53.0273C203.077 53.0273 203.546 53.0918 203.974 53.2207C204.407 53.3438 204.794 53.54 205.134 53.8096C205.479 54.0791 205.772 54.4307 206.013 54.8643C206.259 55.292 206.446 55.8105 206.575 56.4199C206.704 57.0234 206.769 57.7266 206.769 58.5293ZM204.65 60.9199V58.2129C204.65 57.7031 204.621 57.2549 204.562 56.8682C204.504 56.4756 204.416 56.1445 204.299 55.875C204.188 55.5996 204.047 55.377 203.877 55.207C203.707 55.0312 203.514 54.9053 203.297 54.8291C203.08 54.7471 202.837 54.7061 202.567 54.7061C202.239 54.7061 201.946 54.7705 201.688 54.8994C201.431 55.0225 201.214 55.2217 201.038 55.4971C200.862 55.7725 200.728 56.1357 200.634 56.5869C200.546 57.0322 200.502 57.5742 200.502 58.2129V60.9199C200.502 61.4355 200.531 61.8896 200.59 62.2822C200.648 62.6748 200.736 63.0117 200.854 63.293C200.971 63.5684 201.111 63.7969 201.275 63.9785C201.445 64.1543 201.639 64.2832 201.855 64.3652C202.078 64.4473 202.321 64.4883 202.585 64.4883C202.919 64.4883 203.215 64.4238 203.473 64.2949C203.73 64.166 203.947 63.9609 204.123 63.6797C204.299 63.3926 204.431 63.0205 204.519 62.5635C204.606 62.1064 204.65 61.5586 204.65 60.9199ZM218.915 63.4336L221.745 56.4902H223.582L219.636 66H218.194L214.257 56.4902H216.094L218.915 63.4336ZM215.549 56.4902V66H213.431V56.4902H215.549ZM222.281 66V56.4902H224.408V66H222.281ZM233.109 56.4902V58.1777H228.961V66H226.843V56.4902H233.109Z" fill="#492BA0"/>
<path d="M12 48C9.02761 48 6.60938 50.4182 6.60938 53.3906V66.6094C6.60938 69.5818 9.02761 72 12 72C14.9724 72 17.3906 69.5818 17.3906 66.6094V53.3906C17.3906 50.4182 14.9724 48 12 48ZM15.9844 60H8.01562V53.3906C8.01562 51.1936 9.80302 49.4062 12 49.4062C14.197 49.4062 15.9844 51.1936 15.9844 53.3906V60Z" fill="#492BA0"/>
<path d="M157 48C154.028 48 151.609 50.4182 151.609 53.3906V66.6094C151.609 69.5818 154.028 72 157 72C159.972 72 162.391 69.5818 162.391 66.6094V53.3906C162.391 50.4182 159.972 48 157 48ZM160.984 60H153.016V53.3906C153.016 51.1936 154.803 49.4062 157 49.4062C159.197 49.4062 160.984 51.1936 160.984 53.3906V60Z" fill="#492BA0"/>
<path d="M35.042 87.2344L37.0996 80.6035H38.4531L35.4863 89.1416C35.418 89.3239 35.3268 89.5199 35.2129 89.7295C35.1035 89.9437 34.9622 90.1465 34.7891 90.3379C34.6159 90.5293 34.4062 90.6842 34.1602 90.8027C33.9186 90.9258 33.6292 90.9873 33.292 90.9873C33.1917 90.9873 33.0641 90.9736 32.9092 90.9463C32.7542 90.9189 32.6449 90.8962 32.5811 90.8779L32.5742 89.8525C32.6107 89.8571 32.6676 89.8617 32.7451 89.8662C32.8271 89.8753 32.8841 89.8799 32.916 89.8799C33.2031 89.8799 33.4469 89.8411 33.6475 89.7637C33.848 89.6908 34.0166 89.5654 34.1533 89.3877C34.2946 89.2145 34.4154 88.9753 34.5156 88.6699L35.042 87.2344ZM33.5312 80.6035L35.4521 86.3457L35.7803 87.6787L34.8711 88.1436L32.1504 80.6035H33.5312ZM42.6094 80.6035V88H41.3379V80.6035H42.6094ZM45.0908 80.6035V81.6289H38.9043V80.6035H45.0908ZM47.5996 82.0254V90.8438H46.3281V80.6035H47.4902L47.5996 82.0254ZM52.583 84.2402V84.3838C52.583 84.9215 52.5192 85.4206 52.3916 85.8809C52.264 86.3366 52.0771 86.7331 51.8311 87.0703C51.5895 87.4076 51.291 87.6696 50.9355 87.8564C50.5801 88.0433 50.1722 88.1367 49.7119 88.1367C49.2425 88.1367 48.8278 88.0592 48.4678 87.9043C48.1077 87.7493 47.8024 87.5238 47.5518 87.2275C47.3011 86.9313 47.1006 86.5758 46.9502 86.1611C46.8044 85.7464 46.7041 85.2793 46.6494 84.7598V83.9941C46.7041 83.4473 46.8066 82.9574 46.957 82.5244C47.1074 82.0915 47.3057 81.7223 47.5518 81.417C47.8024 81.1071 48.1055 80.8724 48.4609 80.7129C48.8164 80.5488 49.2266 80.4668 49.6914 80.4668C50.1562 80.4668 50.5687 80.5579 50.9287 80.7402C51.2887 80.918 51.5918 81.1732 51.8379 81.5059C52.084 81.8385 52.2686 82.2373 52.3916 82.7021C52.5192 83.1624 52.583 83.6751 52.583 84.2402ZM51.3115 84.3838V84.2402C51.3115 83.8711 51.2728 83.5247 51.1953 83.2012C51.1178 82.873 50.9971 82.5859 50.833 82.3398C50.6735 82.0892 50.4684 81.8932 50.2178 81.752C49.9671 81.6061 49.6686 81.5332 49.3223 81.5332C49.0033 81.5332 48.7253 81.5879 48.4883 81.6973C48.2559 81.8066 48.0576 81.9548 47.8936 82.1416C47.7295 82.3239 47.5951 82.5335 47.4902 82.7705C47.39 83.0029 47.3148 83.2445 47.2646 83.4951V85.2656C47.3558 85.5846 47.4834 85.8854 47.6475 86.168C47.8115 86.446 48.0303 86.6715 48.3037 86.8447C48.5771 87.0133 48.9212 87.0977 49.3359 87.0977C49.6777 87.0977 49.9717 87.027 50.2178 86.8857C50.4684 86.7399 50.6735 86.5417 50.833 86.291C50.9971 86.0404 51.1178 85.7533 51.1953 85.4297C51.2728 85.1016 51.3115 84.7529 51.3115 84.3838ZM53.8613 84.3838V84.2266C53.8613 83.6934 53.9388 83.1989 54.0938 82.7432C54.2487 82.2829 54.472 81.8841 54.7637 81.5469C55.0553 81.2051 55.4085 80.9408 55.8232 80.7539C56.238 80.5625 56.7028 80.4668 57.2178 80.4668C57.7373 80.4668 58.2044 80.5625 58.6191 80.7539C59.0384 80.9408 59.3939 81.2051 59.6855 81.5469C59.9818 81.8841 60.2074 82.2829 60.3623 82.7432C60.5173 83.1989 60.5947 83.6934 60.5947 84.2266V84.3838C60.5947 84.917 60.5173 85.4115 60.3623 85.8672C60.2074 86.3229 59.9818 86.7217 59.6855 87.0635C59.3939 87.4007 59.0407 87.665 58.626 87.8564C58.2158 88.0433 57.751 88.1367 57.2314 88.1367C56.7119 88.1367 56.2448 88.0433 55.8301 87.8564C55.4154 87.665 55.0599 87.4007 54.7637 87.0635C54.472 86.7217 54.2487 86.3229 54.0938 85.8672C53.9388 85.4115 53.8613 84.917 53.8613 84.3838ZM55.126 84.2266V84.3838C55.126 84.7529 55.1693 85.1016 55.2559 85.4297C55.3424 85.7533 55.4723 86.0404 55.6455 86.291C55.8232 86.5417 56.0443 86.7399 56.3086 86.8857C56.5729 87.027 56.8805 87.0977 57.2314 87.0977C57.5778 87.0977 57.8809 87.027 58.1406 86.8857C58.4049 86.7399 58.6237 86.5417 58.7969 86.291C58.9701 86.0404 59.0999 85.7533 59.1865 85.4297C59.2777 85.1016 59.3232 84.7529 59.3232 84.3838V84.2266C59.3232 83.862 59.2777 83.5179 59.1865 83.1943C59.0999 82.8662 58.9678 82.5768 58.79 82.3262C58.6169 82.071 58.3981 81.8704 58.1338 81.7246C57.874 81.5788 57.5687 81.5059 57.2178 81.5059C56.8714 81.5059 56.5661 81.5788 56.3018 81.7246C56.042 81.8704 55.8232 82.071 55.6455 82.3262C55.4723 82.5768 55.3424 82.8662 55.2559 83.1943C55.1693 83.5179 55.126 83.862 55.126 84.2266ZM66.4326 86.3184L68.9482 80.6035H70.165L66.8701 88H65.9951L62.7139 80.6035H63.9307L66.4326 86.3184ZM63.5615 80.6035V88H62.2969V80.6035H63.5615ZM69.2627 88V80.6035H70.5342V88H69.2627Z" fill="#4B5563"/>
<path d="M181.437 84.7461H179.01L178.996 83.7344H180.979C181.37 83.7344 181.696 83.6956 181.956 83.6182C182.22 83.5407 182.419 83.4245 182.551 83.2695C182.683 83.1146 182.749 82.9232 182.749 82.6953C182.749 82.5176 182.71 82.3626 182.633 82.2305C182.56 82.0938 182.448 81.9821 182.298 81.8955C182.147 81.8044 181.961 81.7383 181.737 81.6973C181.519 81.6517 181.261 81.6289 180.965 81.6289H179.345V88H178.08V80.6035H180.965C181.434 80.6035 181.856 80.6445 182.229 80.7266C182.608 80.8086 182.929 80.9339 183.193 81.1025C183.462 81.2666 183.667 81.4762 183.809 81.7314C183.95 81.9867 184.021 82.2874 184.021 82.6338C184.021 82.8571 183.975 83.069 183.884 83.2695C183.793 83.4701 183.658 83.6478 183.48 83.8027C183.303 83.9577 183.084 84.0853 182.824 84.1855C182.564 84.2812 182.266 84.3428 181.929 84.3701L181.437 84.7461ZM181.437 88H178.552L179.181 86.9746H181.437C181.787 86.9746 182.079 86.9313 182.312 86.8447C182.544 86.7536 182.717 86.626 182.831 86.4619C182.95 86.2933 183.009 86.0928 183.009 85.8604C183.009 85.6279 182.95 85.4297 182.831 85.2656C182.717 85.097 182.544 84.9694 182.312 84.8828C182.079 84.7917 181.787 84.7461 181.437 84.7461H179.516L179.529 83.7344H181.929L182.387 84.1172C182.792 84.1491 183.136 84.2493 183.419 84.418C183.701 84.5866 183.916 84.8008 184.062 85.0605C184.207 85.3158 184.28 85.5938 184.28 85.8945C184.28 86.2409 184.214 86.5462 184.082 86.8105C183.954 87.0749 183.768 87.2959 183.521 87.4736C183.275 87.6468 182.977 87.779 182.626 87.8701C182.275 87.9567 181.879 88 181.437 88ZM189.045 88.1367C188.53 88.1367 188.063 88.0501 187.644 87.877C187.229 87.6992 186.871 87.4508 186.57 87.1318C186.274 86.8128 186.046 86.4346 185.887 85.9971C185.727 85.5596 185.647 85.0811 185.647 84.5615V84.2744C185.647 83.6729 185.736 83.1374 185.914 82.668C186.092 82.194 186.333 81.793 186.639 81.4648C186.944 81.1367 187.29 80.8883 187.678 80.7197C188.065 80.5511 188.466 80.4668 188.881 80.4668C189.41 80.4668 189.865 80.5579 190.248 80.7402C190.635 80.9225 190.952 81.1777 191.198 81.5059C191.444 81.8294 191.627 82.2122 191.745 82.6543C191.864 83.0918 191.923 83.5703 191.923 84.0898V84.6572H186.399V83.625H190.658V83.5293C190.64 83.2012 190.572 82.8822 190.453 82.5723C190.339 82.2624 190.157 82.0072 189.906 81.8066C189.656 81.6061 189.314 81.5059 188.881 81.5059C188.594 81.5059 188.329 81.5674 188.088 81.6904C187.846 81.8089 187.639 81.9867 187.466 82.2236C187.293 82.4606 187.158 82.75 187.062 83.0918C186.967 83.4336 186.919 83.8278 186.919 84.2744V84.5615C186.919 84.9124 186.967 85.2428 187.062 85.5527C187.163 85.8581 187.306 86.127 187.493 86.3594C187.685 86.5918 187.915 86.7741 188.184 86.9062C188.457 87.0384 188.767 87.1045 189.113 87.1045C189.56 87.1045 189.938 87.0133 190.248 86.8311C190.558 86.6488 190.829 86.4049 191.062 86.0996L191.827 86.708C191.668 86.9495 191.465 87.1797 191.219 87.3984C190.973 87.6172 190.67 87.7949 190.31 87.9316C189.954 88.0684 189.533 88.1367 189.045 88.1367ZM198.978 80.6035V88H197.713V80.6035H198.978ZM198.547 84.001V85.04C198.292 85.1357 198.032 85.2223 197.768 85.2998C197.508 85.3727 197.232 85.432 196.94 85.4775C196.653 85.5186 196.341 85.5391 196.004 85.5391C195.421 85.5391 194.915 85.4388 194.486 85.2383C194.058 85.0332 193.728 84.7256 193.495 84.3154C193.263 83.9007 193.146 83.3789 193.146 82.75V80.5898H194.411V82.75C194.411 83.1602 194.473 83.4928 194.596 83.748C194.719 84.0033 194.899 84.1924 195.136 84.3154C195.373 84.4339 195.662 84.4932 196.004 84.4932C196.332 84.4932 196.64 84.4727 196.927 84.4316C197.218 84.3861 197.496 84.3268 197.761 84.2539C198.03 84.181 198.292 84.0967 198.547 84.001ZM204.084 88.1367C203.569 88.1367 203.102 88.0501 202.683 87.877C202.268 87.6992 201.91 87.4508 201.609 87.1318C201.313 86.8128 201.085 86.4346 200.926 85.9971C200.766 85.5596 200.687 85.0811 200.687 84.5615V84.2744C200.687 83.6729 200.775 83.1374 200.953 82.668C201.131 82.194 201.372 81.793 201.678 81.4648C201.983 81.1367 202.329 80.8883 202.717 80.7197C203.104 80.5511 203.505 80.4668 203.92 80.4668C204.449 80.4668 204.904 80.5579 205.287 80.7402C205.674 80.9225 205.991 81.1777 206.237 81.5059C206.483 81.8294 206.666 82.2122 206.784 82.6543C206.903 83.0918 206.962 83.5703 206.962 84.0898V84.6572H201.438V83.625H205.697V83.5293C205.679 83.2012 205.611 82.8822 205.492 82.5723C205.378 82.2624 205.196 82.0072 204.945 81.8066C204.695 81.6061 204.353 81.5059 203.92 81.5059C203.633 81.5059 203.368 81.5674 203.127 81.6904C202.885 81.8089 202.678 81.9867 202.505 82.2236C202.332 82.4606 202.197 82.75 202.102 83.0918C202.006 83.4336 201.958 83.8278 201.958 84.2744V84.5615C201.958 84.9124 202.006 85.2428 202.102 85.5527C202.202 85.8581 202.345 86.127 202.532 86.3594C202.724 86.5918 202.954 86.7741 203.223 86.9062C203.496 87.0384 203.806 87.1045 204.152 87.1045C204.599 87.1045 204.977 87.0133 205.287 86.8311C205.597 86.6488 205.868 86.4049 206.101 86.0996L206.866 86.708C206.707 86.9495 206.504 87.1797 206.258 87.3984C206.012 87.6172 205.709 87.7949 205.349 87.9316C204.993 88.0684 204.572 88.1367 204.084 88.1367ZM209.703 82.0254V90.8438H208.432V80.6035H209.594L209.703 82.0254ZM214.687 84.2402V84.3838C214.687 84.9215 214.623 85.4206 214.495 85.8809C214.368 86.3366 214.181 86.7331 213.935 87.0703C213.693 87.4076 213.395 87.6696 213.039 87.8564C212.684 88.0433 212.276 88.1367 211.815 88.1367C211.346 88.1367 210.931 88.0592 210.571 87.9043C210.211 87.7493 209.906 87.5238 209.655 87.2275C209.405 86.9313 209.204 86.5758 209.054 86.1611C208.908 85.7464 208.808 85.2793 208.753 84.7598V83.9941C208.808 83.4473 208.91 82.9574 209.061 82.5244C209.211 82.0915 209.409 81.7223 209.655 81.417C209.906 81.1071 210.209 80.8724 210.564 80.7129C210.92 80.5488 211.33 80.4668 211.795 80.4668C212.26 80.4668 212.672 80.5579 213.032 80.7402C213.392 80.918 213.695 81.1732 213.941 81.5059C214.188 81.8385 214.372 82.2373 214.495 82.7021C214.623 83.1624 214.687 83.6751 214.687 84.2402ZM213.415 84.3838V84.2402C213.415 83.8711 213.376 83.5247 213.299 83.2012C213.221 82.873 213.101 82.5859 212.937 82.3398C212.777 82.0892 212.572 81.8932 212.321 81.752C212.071 81.6061 211.772 81.5332 211.426 81.5332C211.107 81.5332 210.829 81.5879 210.592 81.6973C210.359 81.8066 210.161 81.9548 209.997 82.1416C209.833 82.3239 209.699 82.5335 209.594 82.7705C209.493 83.0029 209.418 83.2445 209.368 83.4951V85.2656C209.459 85.5846 209.587 85.8854 209.751 86.168C209.915 86.446 210.134 86.6715 210.407 86.8447C210.681 87.0133 211.025 87.0977 211.439 87.0977C211.781 87.0977 212.075 87.027 212.321 86.8857C212.572 86.7399 212.777 86.5417 212.937 86.291C213.101 86.0404 213.221 85.7533 213.299 85.4297C213.376 85.1016 213.415 84.7529 213.415 84.3838ZM215.965 84.3838V84.2266C215.965 83.6934 216.042 83.1989 216.197 82.7432C216.352 82.2829 216.576 81.8841 216.867 81.5469C217.159 81.2051 217.512 80.9408 217.927 80.7539C218.341 80.5625 218.806 80.4668 219.321 80.4668C219.841 80.4668 220.308 80.5625 220.723 80.7539C221.142 80.9408 221.497 81.2051 221.789 81.5469C222.085 81.8841 222.311 82.2829 222.466 82.7432C222.621 83.1989 222.698 83.6934 222.698 84.2266V84.3838C222.698 84.917 222.621 85.4115 222.466 85.8672C222.311 86.3229 222.085 86.7217 221.789 87.0635C221.497 87.4007 221.144 87.665 220.729 87.8564C220.319 88.0433 219.854 88.1367 219.335 88.1367C218.815 88.1367 218.348 88.0433 217.934 87.8564C217.519 87.665 217.163 87.4007 216.867 87.0635C216.576 86.7217 216.352 86.3229 216.197 85.8672C216.042 85.4115 215.965 84.917 215.965 84.3838ZM217.229 84.2266V84.3838C217.229 84.7529 217.273 85.1016 217.359 85.4297C217.446 85.7533 217.576 86.0404 217.749 86.291C217.927 86.5417 218.148 86.7399 218.412 86.8857C218.676 87.027 218.984 87.0977 219.335 87.0977C219.681 87.0977 219.984 87.027 220.244 86.8857C220.508 86.7399 220.727 86.5417 220.9 86.291C221.074 86.0404 221.203 85.7533 221.29 85.4297C221.381 85.1016 221.427 84.7529 221.427 84.3838V84.2266C221.427 83.862 221.381 83.5179 221.29 83.1943C221.203 82.8662 221.071 82.5768 220.894 82.3262C220.72 82.071 220.502 81.8704 220.237 81.7246C219.978 81.5788 219.672 81.5059 219.321 81.5059C218.975 81.5059 218.67 81.5788 218.405 81.7246C218.146 81.8704 217.927 82.071 217.749 82.3262C217.576 82.5768 217.446 82.8662 217.359 83.1943C217.273 83.5179 217.229 83.862 217.229 84.2266ZM228.536 86.3184L231.052 80.6035H232.269L228.974 88H228.099L224.817 80.6035H226.034L228.536 86.3184ZM225.665 80.6035V88H224.4V80.6035H225.665ZM231.366 88V80.6035H232.638V88H231.366Z" fill="#4B5563"/>
<path fill-rule="evenodd" clip-rule="evenodd" d="M117 69.6C119.546 69.6 121.988 68.5886 123.789 66.7882C125.589 64.9879 126.6 62.5461 126.6 60C126.6 57.4539 125.589 55.0121 123.789 53.2118C121.988 51.4115 119.546 50.4 117 50.4C114.454 50.4 112.013 51.4115 110.212 53.2118C108.412 55.0121 107.4 57.4539 107.4 60C107.4 62.5461 108.412 64.9879 110.212 66.7882C112.013 68.5886 114.454 69.6 117 69.6ZM117.9 56.1C117.9 55.8613 117.806 55.6324 117.637 55.4636C117.468 55.2948 117.239 55.2 117 55.2C116.762 55.2 116.533 55.2948 116.364 55.4636C116.195 55.6324 116.1 55.8613 116.1 56.1V59.1H113.1C112.862 59.1 112.633 59.1948 112.464 59.3636C112.295 59.5324 112.2 59.7613 112.2 60C112.2 60.2387 112.295 60.4676 112.464 60.6364C112.633 60.8052 112.862 60.9 113.1 60.9H116.1V63.9C116.1 64.1387 116.195 64.3676 116.364 64.5364C116.533 64.7052 116.762 64.8 117 64.8C117.239 64.8 117.468 64.7052 117.637 64.5364C117.806 64.3676 117.9 64.1387 117.9 63.9V60.9H120.9C121.139 60.9 121.368 60.8052 121.537 60.6364C121.706 60.4676 121.8 60.2387 121.8 60C121.8 59.7613 121.706 59.5324 121.537 59.3636C121.368 59.1948 121.139 59.1 120.9 59.1H117.9V56.1Z" fill="#492BA0"/>
<path d="M4 102.5H6.9375V101.5H4V102.5ZM12.8125 102.5H18.6875V101.5H12.8125V102.5ZM24.5625 102.5H30.4375V101.5H24.5625V102.5ZM36.3125 102.5H42.1875V101.5H36.3125V102.5ZM48.0625 102.5H53.9375V101.5H48.0625V102.5ZM59.8125 102.5H65.6875V101.5H59.8125V102.5ZM71.5625 102.5H77.4375V101.5H71.5625V102.5ZM83.3125 102.5H89.1875V101.5H83.3125V102.5ZM95.0625 102.5H100.938V101.5H95.0625V102.5ZM106.812 102.5H112.688V101.5H106.812V102.5ZM118.562 102.5H124.438V101.5H118.562V102.5ZM130.313 102.5H136.188V101.5H130.313V102.5ZM142.062 102.5H147.938V101.5H142.062V102.5ZM153.812 102.5H159.688V101.5H153.812V102.5ZM165.562 102.5H171.438V101.5H165.562V102.5ZM177.312 102.5H183.188V101.5H177.312V102.5ZM189.062 102.5H194.938V101.5H189.062V102.5ZM200.812 102.5H206.688V101.5H200.812V102.5ZM212.562 102.5H218.438V101.5H212.562V102.5ZM224.312 102.5H230.188V101.5H224.312V102.5ZM236.062 102.5H239V101.5H236.062V102.5ZM4 103H6.9375V101H4V103ZM12.8125 103H18.6875V101H12.8125V103ZM24.5625 103H30.4375V101H24.5625V103ZM36.3125 103H42.1875V101H36.3125V103ZM48.0625 103H53.9375V101H48.0625V103ZM59.8125 103H65.6875V101H59.8125V103ZM71.5625 103H77.4375V101H71.5625V103ZM83.3125 103H89.1875V101H83.3125V103ZM95.0625 103H100.938V101H95.0625V103ZM106.812 103H112.688V101H106.812V103ZM118.562 103H124.438V101H118.562V103ZM130.313 103H136.188V101H130.313V103ZM142.062 103H147.938V101H142.062V103ZM153.812 103H159.688V101H153.812V103ZM165.562 103H171.438V101H165.562V103ZM177.312 103H183.188V101H177.312V103ZM189.062 103H194.938V101H189.062V103ZM200.812 103H206.688V101H200.812V103ZM212.562 103H218.438V101H212.562V103ZM224.312 103H230.188V101H224.312V103ZM236.062 103H239V101H236.062V103Z" fill="#D8C8EC" mask="url(#path-1-inside-1_1001_28845)"/>
</svg>
