<svg width="316" height="100" viewBox="0 0 316 100" fill="none" xmlns="http://www.w3.org/2000/svg">
<path d="M65.7822 58.4385V60.126H56.5537L56.4834 58.8516L62.0029 50.2031H63.6992L61.8623 53.3496L58.6895 58.4385H65.7822ZM64.1826 50.2031V63H62.0645V50.2031H64.1826ZM75.5381 55.5293V57.6211C75.5381 58.623 75.4385 59.4785 75.2393 60.1875C75.0459 60.8906 74.7646 61.4619 74.3955 61.9014C74.0264 62.3408 73.584 62.6631 73.0684 62.8682C72.5586 63.0732 71.9873 63.1758 71.3545 63.1758C70.8506 63.1758 70.3818 63.1113 69.9482 62.9824C69.5205 62.8535 69.1338 62.6514 68.7881 62.376C68.4424 62.1006 68.1465 61.7461 67.9004 61.3125C67.6602 60.873 67.4727 60.3486 67.3379 59.7393C67.209 59.1299 67.1445 58.4238 67.1445 57.6211V55.5293C67.1445 54.5215 67.2441 53.6719 67.4434 52.9805C67.6426 52.2832 67.9268 51.7178 68.2959 51.2842C68.665 50.8447 69.1045 50.5254 69.6143 50.3262C70.1299 50.127 70.7041 50.0273 71.3369 50.0273C71.8467 50.0273 72.3154 50.0918 72.7432 50.2207C73.1768 50.3438 73.5635 50.54 73.9033 50.8096C74.249 51.0791 74.542 51.4307 74.7822 51.8643C75.0283 52.292 75.2158 52.8105 75.3447 53.4199C75.4736 54.0234 75.5381 54.7266 75.5381 55.5293ZM73.4199 57.9199V55.2129C73.4199 54.7031 73.3906 54.2549 73.332 53.8682C73.2734 53.4756 73.1855 53.1445 73.0684 52.875C72.957 52.5996 72.8164 52.377 72.6465 52.207C72.4766 52.0312 72.2832 51.9053 72.0664 51.8291C71.8496 51.7471 71.6064 51.7061 71.3369 51.7061C71.0088 51.7061 70.7158 51.7705 70.458 51.8994C70.2002 52.0225 69.9834 52.2217 69.8076 52.4971C69.6318 52.7725 69.4971 53.1357 69.4033 53.5869C69.3154 54.0322 69.2715 54.5742 69.2715 55.2129V57.9199C69.2715 58.4355 69.3008 58.8896 69.3594 59.2822C69.418 59.6748 69.5059 60.0117 69.623 60.293C69.7402 60.5684 69.8809 60.7969 70.0449 60.9785C70.2148 61.1543 70.4082 61.2832 70.625 61.3652C70.8477 61.4473 71.0908 61.4883 71.3545 61.4883C71.6885 61.4883 71.9844 61.4238 72.2422 61.2949C72.5 61.166 72.7168 60.9609 72.8926 60.6797C73.0684 60.3926 73.2002 60.0205 73.2881 59.5635C73.376 59.1064 73.4199 58.5586 73.4199 57.9199ZM85.7686 55.5293V57.6211C85.7686 58.623 85.6689 59.4785 85.4697 60.1875C85.2764 60.8906 84.9951 61.4619 84.626 61.9014C84.2568 62.3408 83.8145 62.6631 83.2988 62.8682C82.7891 63.0732 82.2178 63.1758 81.585 63.1758C81.0811 63.1758 80.6123 63.1113 80.1787 62.9824C79.751 62.8535 79.3643 62.6514 79.0186 62.376C78.6729 62.1006 78.377 61.7461 78.1309 61.3125C77.8906 60.873 77.7031 60.3486 77.5684 59.7393C77.4395 59.1299 77.375 58.4238 77.375 57.6211V55.5293C77.375 54.5215 77.4746 53.6719 77.6738 52.9805C77.873 52.2832 78.1572 51.7178 78.5264 51.2842C78.8955 50.8447 79.335 50.5254 79.8447 50.3262C80.3604 50.127 80.9346 50.0273 81.5674 50.0273C82.0771 50.0273 82.5459 50.0918 82.9736 50.2207C83.4072 50.3438 83.7939 50.54 84.1338 50.8096C84.4795 51.0791 84.7725 51.4307 85.0127 51.8643C85.2588 52.292 85.4463 52.8105 85.5752 53.4199C85.7041 54.0234 85.7686 54.7266 85.7686 55.5293ZM83.6504 57.9199V55.2129C83.6504 54.7031 83.6211 54.2549 83.5625 53.8682C83.5039 53.4756 83.416 53.1445 83.2988 52.875C83.1875 52.5996 83.0469 52.377 82.877 52.207C82.707 52.0312 82.5137 51.9053 82.2969 51.8291C82.0801 51.7471 81.8369 51.7061 81.5674 51.7061C81.2393 51.7061 80.9463 51.7705 80.6885 51.8994C80.4307 52.0225 80.2139 52.2217 80.0381 52.4971C79.8623 52.7725 79.7275 53.1357 79.6338 53.5869C79.5459 54.0322 79.502 54.5742 79.502 55.2129V57.9199C79.502 58.4355 79.5312 58.8896 79.5898 59.2822C79.6484 59.6748 79.7363 60.0117 79.8535 60.293C79.9707 60.5684 80.1113 60.7969 80.2754 60.9785C80.4453 61.1543 80.6387 61.2832 80.8555 61.3652C81.0781 61.4473 81.3213 61.4883 81.585 61.4883C81.9189 61.4883 82.2148 61.4238 82.4727 61.2949C82.7305 61.166 82.9473 60.9609 83.123 60.6797C83.2988 60.3926 83.4307 60.0205 83.5186 59.5635C83.6064 59.1064 83.6504 58.5586 83.6504 57.9199ZM97.915 60.4336L100.745 53.4902H102.582L98.6357 63H97.1943L93.2568 53.4902H95.0938L97.915 60.4336ZM94.5488 53.4902V63H92.4307V53.4902H94.5488ZM101.281 63V53.4902H103.408V63H101.281ZM112.109 53.4902V55.1777H107.961V63H105.843V53.4902H112.109Z" fill="#492BA0"/>
<path d="M210.545 61.3125V63H201.967V61.5498L206.133 57.0059C206.59 56.4902 206.95 56.0449 207.214 55.6699C207.478 55.2949 207.662 54.958 207.768 54.6592C207.879 54.3545 207.935 54.0586 207.935 53.7715C207.935 53.3672 207.858 53.0127 207.706 52.708C207.56 52.3975 207.343 52.1543 207.056 51.9785C206.769 51.7969 206.42 51.7061 206.01 51.7061C205.535 51.7061 205.137 51.8086 204.814 52.0137C204.492 52.2188 204.249 52.5029 204.085 52.8662C203.921 53.2236 203.839 53.6338 203.839 54.0967H201.721C201.721 53.3525 201.891 52.6729 202.23 52.0576C202.57 51.4365 203.062 50.9443 203.707 50.5811C204.352 50.2119 205.128 50.0273 206.036 50.0273C206.892 50.0273 207.618 50.1709 208.216 50.458C208.813 50.7451 209.268 51.1523 209.578 51.6797C209.895 52.207 210.053 52.8311 210.053 53.5518C210.053 53.9502 209.988 54.3457 209.859 54.7383C209.73 55.1309 209.546 55.5234 209.306 55.916C209.071 56.3027 208.793 56.6924 208.471 57.085C208.148 57.4717 207.794 57.8643 207.407 58.2627L204.639 61.3125H210.545ZM220.538 55.5293V57.6211C220.538 58.623 220.438 59.4785 220.239 60.1875C220.046 60.8906 219.765 61.4619 219.396 61.9014C219.026 62.3408 218.584 62.6631 218.068 62.8682C217.559 63.0732 216.987 63.1758 216.354 63.1758C215.851 63.1758 215.382 63.1113 214.948 62.9824C214.521 62.8535 214.134 62.6514 213.788 62.376C213.442 62.1006 213.146 61.7461 212.9 61.3125C212.66 60.873 212.473 60.3486 212.338 59.7393C212.209 59.1299 212.145 58.4238 212.145 57.6211V55.5293C212.145 54.5215 212.244 53.6719 212.443 52.9805C212.643 52.2832 212.927 51.7178 213.296 51.2842C213.665 50.8447 214.104 50.5254 214.614 50.3262C215.13 50.127 215.704 50.0273 216.337 50.0273C216.847 50.0273 217.315 50.0918 217.743 50.2207C218.177 50.3438 218.563 50.54 218.903 50.8096C219.249 51.0791 219.542 51.4307 219.782 51.8643C220.028 52.292 220.216 52.8105 220.345 53.4199C220.474 54.0234 220.538 54.7266 220.538 55.5293ZM218.42 57.9199V55.2129C218.42 54.7031 218.391 54.2549 218.332 53.8682C218.273 53.4756 218.186 53.1445 218.068 52.875C217.957 52.5996 217.816 52.377 217.646 52.207C217.477 52.0312 217.283 51.9053 217.066 51.8291C216.85 51.7471 216.606 51.7061 216.337 51.7061C216.009 51.7061 215.716 51.7705 215.458 51.8994C215.2 52.0225 214.983 52.2217 214.808 52.4971C214.632 52.7725 214.497 53.1357 214.403 53.5869C214.315 54.0322 214.271 54.5742 214.271 55.2129V57.9199C214.271 58.4355 214.301 58.8896 214.359 59.2822C214.418 59.6748 214.506 60.0117 214.623 60.293C214.74 60.5684 214.881 60.7969 215.045 60.9785C215.215 61.1543 215.408 61.2832 215.625 61.3652C215.848 61.4473 216.091 61.4883 216.354 61.4883C216.688 61.4883 216.984 61.4238 217.242 61.2949C217.5 61.166 217.717 60.9609 217.893 60.6797C218.068 60.3926 218.2 60.0205 218.288 59.5635C218.376 59.1064 218.42 58.5586 218.42 57.9199ZM230.769 55.5293V57.6211C230.769 58.623 230.669 59.4785 230.47 60.1875C230.276 60.8906 229.995 61.4619 229.626 61.9014C229.257 62.3408 228.814 62.6631 228.299 62.8682C227.789 63.0732 227.218 63.1758 226.585 63.1758C226.081 63.1758 225.612 63.1113 225.179 62.9824C224.751 62.8535 224.364 62.6514 224.019 62.376C223.673 62.1006 223.377 61.7461 223.131 61.3125C222.891 60.873 222.703 60.3486 222.568 59.7393C222.439 59.1299 222.375 58.4238 222.375 57.6211V55.5293C222.375 54.5215 222.475 53.6719 222.674 52.9805C222.873 52.2832 223.157 51.7178 223.526 51.2842C223.896 50.8447 224.335 50.5254 224.845 50.3262C225.36 50.127 225.935 50.0273 226.567 50.0273C227.077 50.0273 227.546 50.0918 227.974 50.2207C228.407 50.3438 228.794 50.54 229.134 50.8096C229.479 51.0791 229.772 51.4307 230.013 51.8643C230.259 52.292 230.446 52.8105 230.575 53.4199C230.704 54.0234 230.769 54.7266 230.769 55.5293ZM228.65 57.9199V55.2129C228.65 54.7031 228.621 54.2549 228.562 53.8682C228.504 53.4756 228.416 53.1445 228.299 52.875C228.188 52.5996 228.047 52.377 227.877 52.207C227.707 52.0312 227.514 51.9053 227.297 51.8291C227.08 51.7471 226.837 51.7061 226.567 51.7061C226.239 51.7061 225.946 51.7705 225.688 51.8994C225.431 52.0225 225.214 52.2217 225.038 52.4971C224.862 52.7725 224.728 53.1357 224.634 53.5869C224.546 54.0322 224.502 54.5742 224.502 55.2129V57.9199C224.502 58.4355 224.531 58.8896 224.59 59.2822C224.648 59.6748 224.736 60.0117 224.854 60.293C224.971 60.5684 225.111 60.7969 225.275 60.9785C225.445 61.1543 225.639 61.2832 225.855 61.3652C226.078 61.4473 226.321 61.4883 226.585 61.4883C226.919 61.4883 227.215 61.4238 227.473 61.2949C227.73 61.166 227.947 60.9609 228.123 60.6797C228.299 60.3926 228.431 60.0205 228.519 59.5635C228.606 59.1064 228.65 58.5586 228.65 57.9199ZM242.915 60.4336L245.745 53.4902H247.582L243.636 63H242.194L238.257 53.4902H240.094L242.915 60.4336ZM239.549 53.4902V63H237.431V53.4902H239.549ZM246.281 63V53.4902H248.408V63H246.281ZM257.109 53.4902V55.1777H252.961V63H250.843V53.4902H257.109Z" fill="#492BA0"/>
<path d="M176.916 83.0215V82.9531C176.916 81.9596 177.028 81.0618 177.251 80.2598C177.474 79.4531 177.759 78.7467 178.105 78.1406C178.452 77.5345 178.816 77.0332 179.199 76.6367C179.582 76.2357 179.935 75.9463 180.259 75.7686L180.525 76.6025C180.257 76.8076 179.983 77.0902 179.705 77.4502C179.432 77.8102 179.179 78.2523 178.946 78.7764C178.718 79.3005 178.534 79.9089 178.393 80.6016C178.251 81.2943 178.181 82.0736 178.181 82.9395V83.0352C178.181 83.901 178.251 84.6826 178.393 85.3799C178.534 86.0726 178.718 86.6833 178.946 87.2119C179.179 87.7406 179.432 88.1895 179.705 88.5586C179.983 88.9323 180.257 89.2285 180.525 89.4473L180.259 90.2129C179.935 90.0352 179.582 89.7458 179.199 89.3447C178.816 88.9482 178.452 88.4469 178.105 87.8408C177.759 87.2393 177.474 86.5352 177.251 85.7285C177.028 84.9219 176.916 84.0195 176.916 83.0215ZM186.691 79.6035V80.6494H182.952V79.6035H186.691ZM183.137 79.6035V87H181.872V79.6035H183.137ZM187.812 79.6035V87H186.541V79.6035H187.812ZM191.107 81.0254V89.8438H189.836V79.6035H190.998L191.107 81.0254ZM196.091 83.2402V83.3838C196.091 83.9215 196.027 84.4206 195.899 84.8809C195.772 85.3366 195.585 85.7331 195.339 86.0703C195.097 86.4076 194.799 86.6696 194.443 86.8564C194.088 87.0433 193.68 87.1367 193.22 87.1367C192.75 87.1367 192.336 87.0592 191.976 86.9043C191.616 86.7493 191.31 86.5238 191.06 86.2275C190.809 85.9313 190.608 85.5758 190.458 85.1611C190.312 84.7464 190.212 84.2793 190.157 83.7598V82.9941C190.212 82.4473 190.314 81.9574 190.465 81.5244C190.615 81.0915 190.813 80.7223 191.06 80.417C191.31 80.1071 191.613 79.8724 191.969 79.7129C192.324 79.5488 192.734 79.4668 193.199 79.4668C193.664 79.4668 194.076 79.5579 194.437 79.7402C194.797 79.918 195.1 80.1732 195.346 80.5059C195.592 80.8385 195.776 81.2373 195.899 81.7021C196.027 82.1624 196.091 82.6751 196.091 83.2402ZM194.819 83.3838V83.2402C194.819 82.8711 194.781 82.5247 194.703 82.2012C194.626 81.873 194.505 81.5859 194.341 81.3398C194.181 81.0892 193.976 80.8932 193.726 80.752C193.475 80.6061 193.176 80.5332 192.83 80.5332C192.511 80.5332 192.233 80.5879 191.996 80.6973C191.764 80.8066 191.565 80.9548 191.401 81.1416C191.237 81.3239 191.103 81.5335 190.998 81.7705C190.898 82.0029 190.823 82.2445 190.772 82.4951V84.2656C190.864 84.5846 190.991 84.8854 191.155 85.168C191.319 85.446 191.538 85.6715 191.812 85.8447C192.085 86.0133 192.429 86.0977 192.844 86.0977C193.186 86.0977 193.479 86.027 193.726 85.8857C193.976 85.7399 194.181 85.5417 194.341 85.291C194.505 85.0404 194.626 84.7533 194.703 84.4297C194.781 84.1016 194.819 83.7529 194.819 83.3838ZM199.071 84.9971L202.482 79.6035H203.754V87H202.482V81.6064L199.071 87H197.813V79.6035H199.071V84.9971ZM214.274 82.8096V83.835H210.364V82.8096H214.274ZM210.631 79.6035V87H209.366V79.6035H210.631ZM215.3 79.6035V87H214.028V79.6035H215.3ZM220.406 87.1367C219.891 87.1367 219.424 87.0501 219.005 86.877C218.59 86.6992 218.232 86.4508 217.932 86.1318C217.635 85.8128 217.408 85.4346 217.248 84.9971C217.089 84.5596 217.009 84.0811 217.009 83.5615V83.2744C217.009 82.6729 217.098 82.1374 217.275 81.668C217.453 81.194 217.695 80.793 218 80.4648C218.305 80.1367 218.652 79.8883 219.039 79.7197C219.426 79.5511 219.827 79.4668 220.242 79.4668C220.771 79.4668 221.227 79.5579 221.609 79.7402C221.997 79.9225 222.313 80.1777 222.56 80.5059C222.806 80.8294 222.988 81.2122 223.106 81.6543C223.225 82.0918 223.284 82.5703 223.284 83.0898V83.6572H217.761V82.625H222.02V82.5293C222.001 82.2012 221.933 81.8822 221.814 81.5723C221.701 81.2624 221.518 81.0072 221.268 80.8066C221.017 80.6061 220.675 80.5059 220.242 80.5059C219.955 80.5059 219.691 80.5674 219.449 80.6904C219.208 80.8089 219 80.9867 218.827 81.2236C218.654 81.4606 218.52 81.75 218.424 82.0918C218.328 82.4336 218.28 82.8278 218.28 83.2744V83.5615C218.28 83.9124 218.328 84.2428 218.424 84.5527C218.524 84.8581 218.668 85.127 218.854 85.3594C219.046 85.5918 219.276 85.7741 219.545 85.9062C219.818 86.0384 220.128 86.1045 220.475 86.1045C220.921 86.1045 221.299 86.0133 221.609 85.8311C221.919 85.6488 222.19 85.4049 222.423 85.0996L223.188 85.708C223.029 85.9495 222.826 86.1797 222.58 86.3984C222.334 86.6172 222.031 86.7949 221.671 86.9316C221.315 87.0684 220.894 87.1367 220.406 87.1367ZM224.426 83.3838V83.2266C224.426 82.6934 224.503 82.1989 224.658 81.7432C224.813 81.2829 225.036 80.8841 225.328 80.5469C225.62 80.2051 225.973 79.9408 226.388 79.7539C226.802 79.5625 227.267 79.4668 227.782 79.4668C228.302 79.4668 228.769 79.5625 229.184 79.7539C229.603 79.9408 229.958 80.2051 230.25 80.5469C230.546 80.8841 230.772 81.2829 230.927 81.7432C231.082 82.1989 231.159 82.6934 231.159 83.2266V83.3838C231.159 83.917 231.082 84.4115 230.927 84.8672C230.772 85.3229 230.546 85.7217 230.25 86.0635C229.958 86.4007 229.605 86.665 229.19 86.8564C228.78 87.0433 228.315 87.1367 227.796 87.1367C227.276 87.1367 226.809 87.0433 226.395 86.8564C225.98 86.665 225.624 86.4007 225.328 86.0635C225.036 85.7217 224.813 85.3229 224.658 84.8672C224.503 84.4115 224.426 83.917 224.426 83.3838ZM225.69 83.2266V83.3838C225.69 83.7529 225.734 84.1016 225.82 84.4297C225.907 84.7533 226.037 85.0404 226.21 85.291C226.388 85.5417 226.609 85.7399 226.873 85.8857C227.137 86.027 227.445 86.0977 227.796 86.0977C228.142 86.0977 228.445 86.027 228.705 85.8857C228.969 85.7399 229.188 85.5417 229.361 85.291C229.535 85.0404 229.664 84.7533 229.751 84.4297C229.842 84.1016 229.888 83.7529 229.888 83.3838V83.2266C229.888 82.862 229.842 82.5179 229.751 82.1943C229.664 81.8662 229.532 81.5768 229.354 81.3262C229.181 81.071 228.963 80.8704 228.698 80.7246C228.438 80.5788 228.133 80.5059 227.782 80.5059C227.436 80.5059 227.131 80.5788 226.866 80.7246C226.606 80.8704 226.388 81.071 226.21 81.3262C226.037 81.5768 225.907 81.8662 225.82 82.1943C225.734 82.5179 225.69 82.862 225.69 83.2266ZM237.489 76.3838H238.528C238.528 76.8304 238.46 77.1859 238.323 77.4502C238.187 77.71 238 77.9105 237.763 78.0518C237.53 78.193 237.266 78.3001 236.97 78.373C236.678 78.446 236.375 78.5166 236.061 78.585C235.669 78.667 235.304 78.7969 234.967 78.9746C234.634 79.1478 234.347 79.3939 234.105 79.7129C233.868 80.0319 233.693 80.4466 233.579 80.957C233.47 81.4674 233.44 82.0986 233.49 82.8506V83.4795H232.451V82.8506C232.451 82.0075 232.531 81.2715 232.69 80.6426C232.854 80.0137 233.085 79.4827 233.381 79.0498C233.677 78.6169 234.028 78.2728 234.434 78.0176C234.844 77.7624 235.295 77.5869 235.787 77.4912C236.143 77.4229 236.448 77.3499 236.703 77.2725C236.958 77.1904 237.152 77.0811 237.284 76.9443C237.421 76.8076 237.489 76.6208 237.489 76.3838ZM235.992 80.0273C236.475 80.0273 236.906 80.1117 237.284 80.2803C237.662 80.4489 237.984 80.6836 238.248 80.9844C238.512 81.2852 238.713 81.6406 238.85 82.0508C238.991 82.4564 239.062 82.8984 239.062 83.377V83.5273C239.062 84.0423 238.986 84.5208 238.836 84.9629C238.69 85.4004 238.474 85.7832 238.187 86.1113C237.904 86.4349 237.558 86.6878 237.147 86.8701C236.742 87.0524 236.279 87.1436 235.76 87.1436C235.24 87.1436 234.775 87.0524 234.365 86.8701C233.96 86.6878 233.613 86.4349 233.326 86.1113C233.039 85.7832 232.82 85.4004 232.67 84.9629C232.524 84.5208 232.451 84.0423 232.451 83.5273V83.377C232.451 83.263 232.472 83.1514 232.513 83.042C232.554 82.9326 232.604 82.821 232.663 82.707C232.727 82.5931 232.784 82.4723 232.834 82.3447C233.003 81.9346 233.233 81.554 233.524 81.2031C233.821 80.8522 234.174 80.5697 234.584 80.3555C234.999 80.1367 235.468 80.0273 235.992 80.0273ZM235.746 81.0596C235.281 81.0596 234.898 81.1667 234.598 81.3809C234.301 81.5951 234.08 81.8799 233.935 82.2354C233.789 82.5863 233.716 82.9668 233.716 83.377V83.5273C233.716 83.8737 233.757 84.2018 233.839 84.5117C233.921 84.8216 234.044 85.0973 234.208 85.3389C234.377 85.5758 234.589 85.7627 234.844 85.8994C235.104 86.0361 235.409 86.1045 235.76 86.1045C236.111 86.1045 236.414 86.0361 236.669 85.8994C236.924 85.7627 237.134 85.5758 237.298 85.3389C237.462 85.0973 237.585 84.8216 237.667 84.5117C237.749 84.2018 237.79 83.8737 237.79 83.5273V83.377C237.79 83.0671 237.749 82.7731 237.667 82.4951C237.585 82.2171 237.46 81.971 237.291 81.7568C237.127 81.5426 236.915 81.374 236.655 81.251C236.4 81.1234 236.097 81.0596 235.746 81.0596ZM241.242 79.6035L242.862 82.2969L244.503 79.6035H245.986L243.566 83.2539L246.062 87H244.599L242.89 84.2246L241.181 87H239.711L242.199 83.2539L239.786 79.6035H241.242ZM246.861 83.3838V83.2266C246.861 82.6934 246.939 82.1989 247.094 81.7432C247.249 81.2829 247.472 80.8841 247.764 80.5469C248.055 80.2051 248.409 79.9408 248.823 79.7539C249.238 79.5625 249.703 79.4668 250.218 79.4668C250.737 79.4668 251.204 79.5625 251.619 79.7539C252.038 79.9408 252.394 80.2051 252.686 80.5469C252.982 80.8841 253.207 81.2829 253.362 81.7432C253.517 82.1989 253.595 82.6934 253.595 83.2266V83.3838C253.595 83.917 253.517 84.4115 253.362 84.8672C253.207 85.3229 252.982 85.7217 252.686 86.0635C252.394 86.4007 252.041 86.665 251.626 86.8564C251.216 87.0433 250.751 87.1367 250.231 87.1367C249.712 87.1367 249.245 87.0433 248.83 86.8564C248.415 86.665 248.06 86.4007 247.764 86.0635C247.472 85.7217 247.249 85.3229 247.094 84.8672C246.939 84.4115 246.861 83.917 246.861 83.3838ZM248.126 83.2266V83.3838C248.126 83.7529 248.169 84.1016 248.256 84.4297C248.342 84.7533 248.472 85.0404 248.646 85.291C248.823 85.5417 249.044 85.7399 249.309 85.8857C249.573 86.027 249.881 86.0977 250.231 86.0977C250.578 86.0977 250.881 86.027 251.141 85.8857C251.405 85.7399 251.624 85.5417 251.797 85.291C251.97 85.0404 252.1 84.7533 252.187 84.4297C252.278 84.1016 252.323 83.7529 252.323 83.3838V83.2266C252.323 82.862 252.278 82.5179 252.187 82.1943C252.1 81.8662 251.968 81.5768 251.79 81.3262C251.617 81.071 251.398 80.8704 251.134 80.7246C250.874 80.5788 250.569 80.5059 250.218 80.5059C249.871 80.5059 249.566 80.5788 249.302 80.7246C249.042 80.8704 248.823 81.071 248.646 81.3262C248.472 81.5768 248.342 81.8662 248.256 82.1943C248.169 82.5179 248.126 82.862 248.126 83.2266ZM256.021 79.6035H257.286L257.177 82.3721C257.149 83.0739 257.07 83.68 256.938 84.1904C256.805 84.7008 256.637 85.1361 256.432 85.4961C256.227 85.8516 255.996 86.1501 255.741 86.3916C255.491 86.6331 255.231 86.8359 254.962 87H254.333L254.367 85.9678L254.627 85.9609C254.777 85.7832 254.923 85.6009 255.064 85.4141C255.206 85.2227 255.336 84.9971 255.454 84.7373C255.573 84.473 255.671 84.1517 255.748 83.7734C255.83 83.3906 255.882 82.9235 255.905 82.3721L256.021 79.6035ZM256.336 79.6035H260.786V87H259.521V80.7725H256.336V79.6035ZM254.046 85.9609H261.736V89.1807H260.472V87H255.311V89.1807H254.039L254.046 85.9609ZM264.505 84.9971L267.916 79.6035H269.188V87H267.916V81.6064L264.505 87H263.247V79.6035H264.505V84.9971ZM275.47 85.3184L277.985 79.6035H279.202L275.907 87H275.032L271.751 79.6035H272.968L275.47 85.3184ZM272.599 79.6035V87H271.334V79.6035H272.599ZM278.3 87V79.6035H279.571V87H278.3ZM281.273 83.3838V83.2266C281.273 82.6934 281.351 82.1989 281.506 81.7432C281.661 81.2829 281.884 80.8841 282.176 80.5469C282.467 80.2051 282.821 79.9408 283.235 79.7539C283.65 79.5625 284.115 79.4668 284.63 79.4668C285.149 79.4668 285.617 79.5625 286.031 79.7539C286.451 79.9408 286.806 80.2051 287.098 80.5469C287.394 80.8841 287.619 81.2829 287.774 81.7432C287.929 82.1989 288.007 82.6934 288.007 83.2266V83.3838C288.007 83.917 287.929 84.4115 287.774 84.8672C287.619 85.3229 287.394 85.7217 287.098 86.0635C286.806 86.4007 286.453 86.665 286.038 86.8564C285.628 87.0433 285.163 87.1367 284.644 87.1367C284.124 87.1367 283.657 87.0433 283.242 86.8564C282.827 86.665 282.472 86.4007 282.176 86.0635C281.884 85.7217 281.661 85.3229 281.506 84.8672C281.351 84.4115 281.273 83.917 281.273 83.3838ZM282.538 83.2266V83.3838C282.538 83.7529 282.581 84.1016 282.668 84.4297C282.755 84.7533 282.884 85.0404 283.058 85.291C283.235 85.5417 283.456 85.7399 283.721 85.8857C283.985 86.027 284.293 86.0977 284.644 86.0977C284.99 86.0977 285.293 86.027 285.553 85.8857C285.817 85.7399 286.036 85.5417 286.209 85.291C286.382 85.0404 286.512 84.7533 286.599 84.4297C286.69 84.1016 286.735 83.7529 286.735 83.3838V83.2266C286.735 82.862 286.69 82.5179 286.599 82.1943C286.512 81.8662 286.38 81.5768 286.202 81.3262C286.029 81.071 285.81 80.8704 285.546 80.7246C285.286 80.5788 284.981 80.5059 284.63 80.5059C284.284 80.5059 283.978 80.5788 283.714 80.7246C283.454 80.8704 283.235 81.071 283.058 81.3262C282.884 81.5768 282.755 81.8662 282.668 82.1943C282.581 82.5179 282.538 82.862 282.538 83.2266ZM292.553 86.0977C292.854 86.0977 293.132 86.0361 293.387 85.9131C293.642 85.79 293.852 85.6214 294.016 85.4072C294.18 85.1885 294.273 84.9401 294.296 84.6621H295.499C295.476 85.0996 295.328 85.5075 295.055 85.8857C294.786 86.2594 294.433 86.5625 293.995 86.7949C293.558 87.0228 293.077 87.1367 292.553 87.1367C291.997 87.1367 291.511 87.0387 291.097 86.8428C290.687 86.6468 290.345 86.3779 290.071 86.0361C289.802 85.6943 289.6 85.3024 289.463 84.8604C289.331 84.4137 289.265 83.9421 289.265 83.4453V83.1582C289.265 82.6615 289.331 82.1921 289.463 81.75C289.6 81.3034 289.802 80.9092 290.071 80.5674C290.345 80.2256 290.687 79.9567 291.097 79.7607C291.511 79.5648 291.997 79.4668 292.553 79.4668C293.132 79.4668 293.637 79.5853 294.07 79.8223C294.503 80.0547 294.843 80.3737 295.089 80.7793C295.34 81.1803 295.476 81.6361 295.499 82.1465H294.296C294.273 81.8411 294.187 81.5654 294.036 81.3193C293.89 81.0732 293.69 80.8773 293.435 80.7314C293.184 80.5811 292.89 80.5059 292.553 80.5059C292.165 80.5059 291.84 80.5833 291.575 80.7383C291.315 80.8887 291.108 81.0938 290.953 81.3535C290.803 81.6087 290.693 81.8936 290.625 82.208C290.561 82.5179 290.529 82.8346 290.529 83.1582V83.4453C290.529 83.7689 290.561 84.0879 290.625 84.4023C290.689 84.7168 290.796 85.0016 290.946 85.2568C291.101 85.512 291.309 85.7171 291.568 85.8721C291.833 86.0225 292.161 86.0977 292.553 86.0977ZM299.936 79.6035V87H298.664V79.6035H299.936ZM302.417 79.6035V80.6289H296.23V79.6035H302.417ZM305.028 84.9971L308.439 79.6035H309.711V87H308.439V81.6064L305.028 87H303.771V79.6035H305.028V84.9971ZM314.653 82.9531V83.0215C314.653 84.0195 314.542 84.9219 314.318 85.7285C314.095 86.5352 313.81 87.2393 313.464 87.8408C313.118 88.4469 312.753 88.9482 312.37 89.3447C311.987 89.7458 311.634 90.0352 311.311 90.2129L311.044 89.4473C311.313 89.2422 311.584 88.9551 311.857 88.5859C312.131 88.2214 312.384 87.7702 312.616 87.2324C312.849 86.6992 313.035 86.084 313.177 85.3867C313.318 84.6849 313.389 83.901 313.389 83.0352V82.9395C313.389 82.0736 313.313 81.292 313.163 80.5947C313.013 79.8929 312.817 79.2754 312.575 78.7422C312.338 78.209 312.083 77.7601 311.81 77.3955C311.541 77.0264 311.285 76.7415 311.044 76.541L311.311 75.7686C311.634 75.9463 311.987 76.2357 312.37 76.6367C312.753 77.0332 313.118 77.5345 313.464 78.1406C313.81 78.7467 314.095 79.4531 314.318 80.2598C314.542 81.0618 314.653 81.9596 314.653 82.9531Z" fill="#4B5563"/>
<path d="M36 45C33.0276 45 30.6094 47.4182 30.6094 50.3906V63.6094C30.6094 66.5818 33.0276 69 36 69C38.9724 69 41.3906 66.5818 41.3906 63.6094V50.3906C41.3906 47.4182 38.9724 45 36 45ZM39.9844 57H32.0156V50.3906C32.0156 48.1936 33.803 46.4062 36 46.4062C38.197 46.4062 39.9844 48.1936 39.9844 50.3906V57Z" fill="#492BA0"/>
<path d="M12 45C9.02761 45 6.60938 47.4182 6.60938 50.3906V63.6094C6.60938 66.5818 9.02761 69 12 69C14.9724 69 17.3906 66.5818 17.3906 63.6094V50.3906C17.3906 47.4182 14.9724 45 12 45ZM15.9844 57H8.01562V50.3906C8.01562 48.1936 9.80302 46.4062 12 46.4062C14.197 46.4062 15.9844 48.1936 15.9844 50.3906V57Z" fill="#492BA0"/>
<path d="M181 45C178.028 45 175.609 47.4182 175.609 50.3906V63.6094C175.609 66.5818 178.028 69 181 69C183.972 69 186.391 66.5818 186.391 63.6094V50.3906C186.391 47.4182 183.972 45 181 45ZM184.984 57H177.016V50.3906C177.016 48.1936 178.803 46.4062 181 46.4062C183.197 46.4062 184.984 48.1936 184.984 50.3906V57Z" fill="#492BA0"/>
<path fill-rule="evenodd" clip-rule="evenodd" d="M141 66.6C143.546 66.6 145.988 65.5886 147.789 63.7882C149.589 61.9879 150.6 59.5461 150.6 57C150.6 54.4539 149.589 52.0121 147.789 50.2118C145.988 48.4115 143.546 47.4 141 47.4C138.454 47.4 136.013 48.4115 134.212 50.2118C132.412 52.0121 131.4 54.4539 131.4 57C131.4 59.5461 132.412 61.9879 134.212 63.7882C136.013 65.5886 138.454 66.6 141 66.6V66.6ZM141.9 53.1C141.9 52.8613 141.806 52.6324 141.637 52.4636C141.468 52.2948 141.239 52.2 141 52.2C140.762 52.2 140.533 52.2948 140.364 52.4636C140.195 52.6324 140.1 52.8613 140.1 53.1V56.1H137.1C136.862 56.1 136.633 56.1948 136.464 56.3636C136.295 56.5324 136.2 56.7613 136.2 57C136.2 57.2387 136.295 57.4676 136.464 57.6364C136.633 57.8052 136.862 57.9 137.1 57.9H140.1V60.9C140.1 61.1387 140.195 61.3676 140.364 61.5364C140.533 61.7052 140.762 61.8 141 61.8C141.239 61.8 141.468 61.7052 141.637 61.5364C141.806 61.3676 141.9 61.1387 141.9 60.9V57.9H144.9C145.139 57.9 145.368 57.8052 145.537 57.6364C145.706 57.4676 145.8 57.2387 145.8 57C145.8 56.7613 145.706 56.5324 145.537 56.3636C145.368 56.1948 145.139 56.1 144.9 56.1H141.9V53.1Z" fill="#492BA0"/>
<path d="M4 100.5H7V99.5H4V100.5ZM13 100.5H19V99.5H13V100.5ZM25 100.5H31V99.5H25V100.5ZM37 100.5H43V99.5H37V100.5ZM49 100.5H55V99.5H49V100.5ZM61 100.5H67V99.5H61V100.5ZM73 100.5H79V99.5H73V100.5ZM85 100.5H91V99.5H85V100.5ZM97 100.5H103V99.5H97V100.5ZM109 100.5H115V99.5H109V100.5ZM121 100.5H127V99.5H121V100.5ZM133 100.5H139V99.5H133V100.5ZM145 100.5H151V99.5H145V100.5ZM157 100.5H163V99.5H157V100.5ZM169 100.5H175V99.5H169V100.5ZM181 100.5H187V99.5H181V100.5ZM193 100.5H199V99.5H193V100.5ZM205 100.5H211V99.5H205V100.5ZM217 100.5H223V99.5H217V100.5ZM229 100.5H235V99.5H229V100.5ZM241 100.5H247V99.5H241V100.5ZM253 100.5H259V99.5H253V100.5ZM265 100.5H271V99.5H265V100.5ZM277 100.5H283V99.5H277V100.5ZM289 100.5H295V99.5H289V100.5ZM301 100.5H307V99.5H301V100.5ZM313 100.5H316V99.5H313V100.5ZM4 101H7V99H4V101ZM13 101H19V99H13V101ZM25 101H31V99H25V101ZM37 101H43V99H37V101ZM49 101H55V99H49V101ZM61 101H67V99H61V101ZM73 101H79V99H73V101ZM85 101H91V99H85V101ZM97 101H103V99H97V101ZM109 101H115V99H109V101ZM121 101H127V99H121V101ZM133 101H139V99H133V101ZM145 101H151V99H145V101ZM157 101H163V99H157V101ZM169 101H175V99H169V101ZM181 101H187V99H181V101ZM193 101H199V99H193V101ZM205 101H211V99H205V101ZM217 101H223V99H217V101ZM229 101H235V99H229V101ZM241 101H247V99H241V101ZM253 101H259V99H253V101ZM265 101H271V99H265V101ZM277 101H283V99H277V101ZM289 101H295V99H289V101ZM301 101H307V99H301V101ZM313 101H316V99H313V101Z" fill="#D8C8EC" mask="url(#path-1-inside-1_1001_28861)"/>
<path d="M11.8311 5.27344V21H9.84375V7.75488L5.83691 9.21582V7.42188L11.5195 5.27344H11.8311ZM22.0254 13.5342V15.167H16.7832V13.5342H22.0254ZM26.1182 17.8525L31.4785 9.37695H33.4766V21H31.4785V12.5244L26.1182 21H24.1416V9.37695H26.1182V17.8525ZM30.3936 5.16602H32.0049C32.0049 5.72461 31.876 6.22233 31.6182 6.65918C31.3604 7.08887 30.9915 7.42546 30.5117 7.66895C30.0319 7.91243 29.4626 8.03418 28.8037 8.03418C27.8083 8.03418 27.0205 7.76921 26.4404 7.23926C25.8675 6.70215 25.5811 6.01107 25.5811 5.16602H27.1924C27.1924 5.58854 27.3141 5.96094 27.5576 6.2832C27.8011 6.60547 28.2165 6.7666 28.8037 6.7666C29.3766 6.7666 29.7848 6.60547 30.0283 6.2832C30.2718 5.96094 30.3936 5.58854 30.3936 5.16602ZM44.2188 9.37695H46.2061L46.0342 13.7275C45.9912 14.8304 45.8659 15.7829 45.6582 16.585C45.4505 17.387 45.1855 18.071 44.8633 18.6367C44.541 19.1953 44.1794 19.6644 43.7783 20.0439C43.3844 20.4235 42.9762 20.7422 42.5537 21H41.5654L41.6191 19.3779L42.0273 19.3672C42.2637 19.0879 42.4928 18.8014 42.7148 18.5078C42.9368 18.207 43.141 17.8525 43.3271 17.4443C43.5133 17.029 43.6673 16.5241 43.7891 15.9297C43.918 15.3281 44.0003 14.5941 44.0361 13.7275L44.2188 9.37695ZM44.7129 9.37695H51.7061V21H49.7188V11.2139H44.7129V9.37695ZM41.1143 19.3672H53.1992V24.4268H51.2119V21H43.1016V24.4268H41.1035L41.1143 19.3672ZM60.2246 21.2148C59.4154 21.2148 58.6813 21.0788 58.0225 20.8066C57.3708 20.5273 56.8086 20.137 56.3359 19.6357C55.8704 19.1344 55.5124 18.54 55.2617 17.8525C55.0111 17.165 54.8857 16.4131 54.8857 15.5967V15.1455C54.8857 14.2002 55.0254 13.3587 55.3047 12.6211C55.584 11.8763 55.9635 11.2461 56.4434 10.7305C56.9232 10.2148 57.4674 9.82454 58.0762 9.55957C58.6849 9.2946 59.3151 9.16211 59.9668 9.16211C60.7975 9.16211 61.5137 9.30534 62.1152 9.5918C62.724 9.87826 63.2217 10.2793 63.6084 10.7949C63.9951 11.3034 64.2816 11.9049 64.4678 12.5996C64.654 13.2871 64.7471 14.0391 64.7471 14.8555V15.7471H56.0674V14.125H62.7598V13.9746C62.7311 13.459 62.6237 12.9577 62.4375 12.4707C62.2585 11.9837 61.972 11.5827 61.5781 11.2676C61.1842 10.9525 60.6471 10.7949 59.9668 10.7949C59.5156 10.7949 59.1003 10.8916 58.7207 11.085C58.3411 11.2712 58.0153 11.5505 57.7432 11.9229C57.471 12.2952 57.2598 12.75 57.1094 13.2871C56.959 13.8242 56.8838 14.4437 56.8838 15.1455V15.5967C56.8838 16.1481 56.959 16.6673 57.1094 17.1543C57.2669 17.6341 57.4925 18.0566 57.7861 18.4219C58.0869 18.7871 58.4486 19.0736 58.8711 19.2812C59.3008 19.4889 59.7878 19.5928 60.332 19.5928C61.0339 19.5928 61.6283 19.4495 62.1152 19.1631C62.6022 18.8766 63.0283 18.4935 63.3936 18.0137L64.5967 18.9697C64.346 19.3493 64.0273 19.7109 63.6406 20.0547C63.2539 20.3984 62.7777 20.6777 62.2119 20.8926C61.6533 21.1074 60.9909 21.2148 60.2246 21.2148ZM74.9521 14.415V16.0264H68.8076V14.415H74.9521ZM69.2266 9.37695V21H67.2393V9.37695H69.2266ZM76.5635 9.37695V21H74.5654V9.37695H76.5635ZM81.3975 13.373H84.8887C85.8268 13.373 86.6182 13.5378 87.2627 13.8672C87.9072 14.1895 88.3942 14.637 88.7236 15.21C89.0602 15.7757 89.2285 16.4202 89.2285 17.1436C89.2285 17.6807 89.1354 18.1855 88.9492 18.6582C88.763 19.1237 88.4837 19.5319 88.1113 19.8828C87.7461 20.2337 87.2913 20.5094 86.7471 20.71C86.21 20.9033 85.5905 21 84.8887 21H79.9473V9.37695H81.9346V19.3672H84.8887C85.4616 19.3672 85.9199 19.2633 86.2637 19.0557C86.6074 18.848 86.8545 18.5794 87.0049 18.25C87.1553 17.9206 87.2305 17.5768 87.2305 17.2188C87.2305 16.8678 87.1553 16.5241 87.0049 16.1875C86.8545 15.8509 86.6074 15.5716 86.2637 15.3496C85.9199 15.1204 85.4616 15.0059 84.8887 15.0059H81.3975V13.373Z" fill="#492BA0"/>
</svg>
