<svg width="205" height="127" viewBox="0 0 205 127" fill="none" xmlns="http://www.w3.org/2000/svg">
<path d="M6.75 74.1592V87H4.63184V76.6729L1.49414 77.7363V75.9873L6.49512 74.1592H6.75ZM20.584 79.8193V81.5156H11.6016V79.8193H20.584ZM31.3418 85.3125V87H22.7637V85.5498L26.9297 81.0059C27.3867 80.4902 27.7471 80.0449 28.0107 79.6699C28.2744 79.2949 28.459 78.958 28.5645 78.6592C28.6758 78.3545 28.7314 78.0586 28.7314 77.7715C28.7314 77.3672 28.6553 77.0127 28.5029 76.708C28.3564 76.3975 28.1396 76.1543 27.8525 75.9785C27.5654 75.7969 27.2168 75.7061 26.8066 75.7061C26.332 75.7061 25.9336 75.8086 25.6113 76.0137C25.2891 76.2188 25.0459 76.5029 24.8818 76.8662C24.7178 77.2236 24.6357 77.6338 24.6357 78.0967H22.5176C22.5176 77.3525 22.6875 76.6729 23.0273 76.0576C23.3672 75.4365 23.8594 74.9443 24.5039 74.5811C25.1484 74.2119 25.9248 74.0273 26.833 74.0273C27.6885 74.0273 28.415 74.1709 29.0127 74.458C29.6104 74.7451 30.0645 75.1523 30.375 75.6797C30.6914 76.207 30.8496 76.8311 30.8496 77.5518C30.8496 77.9502 30.7852 78.3457 30.6562 78.7383C30.5273 79.1309 30.3428 79.5234 30.1025 79.916C29.8682 80.3027 29.5898 80.6924 29.2676 81.085C28.9453 81.4717 28.5908 81.8643 28.2041 82.2627L25.4355 85.3125H31.3418ZM39.7266 79.3184V90.6562H37.6084V77.4902H39.5596L39.7266 79.3184ZM45.9229 82.1572V82.3418C45.9229 83.0332 45.8408 83.6748 45.6768 84.2666C45.5186 84.8525 45.2812 85.3652 44.9648 85.8047C44.6543 86.2383 44.2705 86.5752 43.8135 86.8154C43.3564 87.0557 42.8291 87.1758 42.2314 87.1758C41.6396 87.1758 41.1211 87.0674 40.6758 86.8506C40.2363 86.6279 39.8643 86.3145 39.5596 85.9102C39.2549 85.5059 39.0088 85.0312 38.8213 84.4863C38.6396 83.9355 38.5107 83.332 38.4346 82.6758V81.9639C38.5107 81.2666 38.6396 80.6338 38.8213 80.0654C39.0088 79.4971 39.2549 79.0078 39.5596 78.5977C39.8643 78.1875 40.2363 77.8711 40.6758 77.6484C41.1152 77.4258 41.6279 77.3145 42.2139 77.3145C42.8115 77.3145 43.3418 77.4316 43.8047 77.666C44.2676 77.8945 44.6572 78.2227 44.9736 78.6504C45.29 79.0723 45.5273 79.582 45.6855 80.1797C45.8438 80.7715 45.9229 81.4307 45.9229 82.1572ZM43.8047 82.3418V82.1572C43.8047 81.7178 43.7637 81.3105 43.6816 80.9355C43.5996 80.5547 43.4707 80.2207 43.2949 79.9336C43.1191 79.6465 42.8936 79.4238 42.6182 79.2656C42.3486 79.1016 42.0234 79.0195 41.6426 79.0195C41.2676 79.0195 40.9453 79.084 40.6758 79.2129C40.4062 79.3359 40.1807 79.5088 39.999 79.7314C39.8174 79.9541 39.6768 80.2148 39.5771 80.5137C39.4775 80.8066 39.4072 81.126 39.3662 81.4717V83.1768C39.4365 83.5986 39.5566 83.9854 39.7266 84.3369C39.8965 84.6885 40.1367 84.9697 40.4473 85.1807C40.7637 85.3857 41.168 85.4883 41.6602 85.4883C42.041 85.4883 42.3662 85.4062 42.6357 85.2422C42.9053 85.0781 43.125 84.8525 43.2949 84.5654C43.4707 84.2725 43.5996 83.9355 43.6816 83.5547C43.7637 83.1738 43.8047 82.7695 43.8047 82.3418ZM53.0859 85.0928V80.5576C53.0859 80.2178 53.0244 79.9248 52.9014 79.6787C52.7783 79.4326 52.5908 79.2422 52.3389 79.1074C52.0928 78.9727 51.7822 78.9053 51.4072 78.9053C51.0615 78.9053 50.7627 78.9639 50.5107 79.0811C50.2588 79.1982 50.0625 79.3564 49.9219 79.5557C49.7812 79.7549 49.7109 79.9805 49.7109 80.2324H47.6016C47.6016 79.8574 47.6924 79.4941 47.874 79.1426C48.0557 78.791 48.3193 78.4775 48.665 78.2021C49.0107 77.9268 49.4238 77.71 49.9043 77.5518C50.3848 77.3936 50.9238 77.3145 51.5215 77.3145C52.2363 77.3145 52.8691 77.4346 53.4199 77.6748C53.9766 77.915 54.4131 78.2783 54.7295 78.7646C55.0518 79.2451 55.2129 79.8486 55.2129 80.5752V84.8027C55.2129 85.2363 55.2422 85.626 55.3008 85.9717C55.3652 86.3115 55.4561 86.6074 55.5732 86.8594V87H53.4023C53.3027 86.7715 53.2236 86.4814 53.165 86.1299C53.1123 85.7725 53.0859 85.4268 53.0859 85.0928ZM53.3936 81.2168L53.4111 82.5264H51.8906C51.498 82.5264 51.1523 82.5645 50.8535 82.6406C50.5547 82.7109 50.3057 82.8164 50.1064 82.957C49.9072 83.0977 49.7578 83.2676 49.6582 83.4668C49.5586 83.666 49.5088 83.8916 49.5088 84.1436C49.5088 84.3955 49.5674 84.627 49.6846 84.8379C49.8018 85.043 49.9717 85.2041 50.1943 85.3213C50.4229 85.4385 50.6982 85.4971 51.0205 85.4971C51.4541 85.4971 51.832 85.4092 52.1543 85.2334C52.4824 85.0518 52.7402 84.832 52.9277 84.5742C53.1152 84.3105 53.2148 84.0615 53.2266 83.8271L53.9121 84.7676C53.8418 85.0078 53.7217 85.2656 53.5518 85.541C53.3818 85.8164 53.1592 86.0801 52.8838 86.332C52.6143 86.5781 52.2891 86.7803 51.9082 86.9385C51.5332 87.0967 51.0996 87.1758 50.6074 87.1758C49.9863 87.1758 49.4326 87.0527 48.9463 86.8066C48.46 86.5547 48.0791 86.2178 47.8037 85.7959C47.5283 85.3682 47.3906 84.8848 47.3906 84.3457C47.3906 83.8418 47.4844 83.3965 47.6719 83.0098C47.8652 82.6172 48.1465 82.2891 48.5156 82.0254C48.8906 81.7617 49.3477 81.5625 49.8867 81.4277C50.4258 81.2871 51.041 81.2168 51.7324 81.2168H53.3936ZM61.3652 82.4561H59.5371V81.3838H61.0137C61.3887 81.3838 61.6875 81.334 61.9102 81.2344C62.1387 81.1348 62.2998 80.9971 62.3936 80.8213C62.4932 80.6396 62.543 80.4287 62.543 80.1885C62.543 79.9775 62.4932 79.7783 62.3936 79.5908C62.2998 79.3975 62.1387 79.2393 61.9102 79.1162C61.6816 78.9932 61.3711 78.9316 60.9785 78.9316C60.6562 78.9316 60.3662 78.9844 60.1084 79.0898C59.8564 79.1953 59.6572 79.3418 59.5107 79.5293C59.3643 79.7168 59.291 79.9336 59.291 80.1797H57.1729C57.1729 79.5879 57.3398 79.0781 57.6738 78.6504C58.0137 78.2227 58.4678 77.8945 59.0361 77.666C59.6045 77.4375 60.2285 77.3232 60.9082 77.3232C61.4883 77.3232 62.0098 77.3848 62.4727 77.5078C62.9355 77.625 63.3281 77.8008 63.6504 78.0352C63.9785 78.2637 64.2275 78.5508 64.3975 78.8965C64.5732 79.2363 64.6611 79.6318 64.6611 80.083C64.6611 80.4053 64.585 80.71 64.4326 80.9971C64.2803 81.2842 64.0605 81.5391 63.7734 81.7617C63.4863 81.9785 63.1377 82.1484 62.7275 82.2715C62.3232 82.3945 61.8691 82.4561 61.3652 82.4561ZM59.5371 81.8408H61.3652C61.9277 81.8408 62.4258 81.8965 62.8594 82.0078C63.293 82.1133 63.6562 82.2715 63.9492 82.4824C64.2422 82.6934 64.4619 82.9541 64.6084 83.2646C64.7607 83.5693 64.8369 83.9209 64.8369 84.3193C64.8369 84.7646 64.7402 85.166 64.5469 85.5234C64.3594 85.875 64.0898 86.1738 63.7383 86.4199C63.3926 86.666 62.9795 86.8535 62.499 86.9824C62.0186 87.1113 61.4883 87.1758 60.9082 87.1758C60.2754 87.1758 59.6602 87.0703 59.0625 86.8594C58.4707 86.6484 57.9814 86.3232 57.5947 85.8838C57.2139 85.4385 57.0234 84.873 57.0234 84.1875H59.1416C59.1416 84.4277 59.2148 84.6533 59.3613 84.8643C59.5078 85.0752 59.7188 85.248 59.9941 85.3828C60.2695 85.5117 60.6006 85.5762 60.9873 85.5762C61.3857 85.5762 61.7109 85.5146 61.9629 85.3916C62.2148 85.2627 62.4023 85.0957 62.5254 84.8906C62.6484 84.6797 62.71 84.457 62.71 84.2227C62.71 83.9062 62.6484 83.6514 62.5254 83.458C62.4023 83.2646 62.2148 83.124 61.9629 83.0361C61.7109 82.9424 61.3945 82.8955 61.0137 82.8955H59.5371V81.8408ZM72 85.0928V80.5576C72 80.2178 71.9385 79.9248 71.8154 79.6787C71.6924 79.4326 71.5049 79.2422 71.2529 79.1074C71.0068 78.9727 70.6963 78.9053 70.3213 78.9053C69.9756 78.9053 69.6768 78.9639 69.4248 79.0811C69.1729 79.1982 68.9766 79.3564 68.8359 79.5557C68.6953 79.7549 68.625 79.9805 68.625 80.2324H66.5156C66.5156 79.8574 66.6064 79.4941 66.7881 79.1426C66.9697 78.791 67.2334 78.4775 67.5791 78.2021C67.9248 77.9268 68.3379 77.71 68.8184 77.5518C69.2988 77.3936 69.8379 77.3145 70.4355 77.3145C71.1504 77.3145 71.7832 77.4346 72.334 77.6748C72.8906 77.915 73.3271 78.2783 73.6436 78.7646C73.9658 79.2451 74.127 79.8486 74.127 80.5752V84.8027C74.127 85.2363 74.1562 85.626 74.2148 85.9717C74.2793 86.3115 74.3701 86.6074 74.4873 86.8594V87H72.3164C72.2168 86.7715 72.1377 86.4814 72.0791 86.1299C72.0264 85.7725 72 85.4268 72 85.0928ZM72.3076 81.2168L72.3252 82.5264H70.8047C70.4121 82.5264 70.0664 82.5645 69.7676 82.6406C69.4688 82.7109 69.2197 82.8164 69.0205 82.957C68.8213 83.0977 68.6719 83.2676 68.5723 83.4668C68.4727 83.666 68.4229 83.8916 68.4229 84.1436C68.4229 84.3955 68.4814 84.627 68.5986 84.8379C68.7158 85.043 68.8857 85.2041 69.1084 85.3213C69.3369 85.4385 69.6123 85.4971 69.9346 85.4971C70.3682 85.4971 70.7461 85.4092 71.0684 85.2334C71.3965 85.0518 71.6543 84.832 71.8418 84.5742C72.0293 84.3105 72.1289 84.0615 72.1406 83.8271L72.8262 84.7676C72.7559 85.0078 72.6357 85.2656 72.4658 85.541C72.2959 85.8164 72.0732 86.0801 71.7979 86.332C71.5283 86.5781 71.2031 86.7803 70.8223 86.9385C70.4473 87.0967 70.0137 87.1758 69.5215 87.1758C68.9004 87.1758 68.3467 87.0527 67.8604 86.8066C67.374 86.5547 66.9932 86.2178 66.7178 85.7959C66.4424 85.3682 66.3047 84.8848 66.3047 84.3457C66.3047 83.8418 66.3984 83.3965 66.5859 83.0098C66.7793 82.6172 67.0605 82.2891 67.4297 82.0254C67.8047 81.7617 68.2617 81.5625 68.8008 81.4277C69.3398 81.2871 69.9551 81.2168 70.6465 81.2168H72.3076ZM85.4473 82.9307H82.4062L82.3887 81.4365H84.8848C85.2949 81.4365 85.6318 81.3955 85.8955 81.3135C86.165 81.2314 86.3643 81.1084 86.4932 80.9443C86.6221 80.7744 86.6865 80.5693 86.6865 80.3291C86.6865 80.1299 86.6484 79.957 86.5723 79.8105C86.4961 79.6582 86.3789 79.5352 86.2207 79.4414C86.0684 79.3418 85.875 79.2715 85.6406 79.2305C85.4121 79.1836 85.1455 79.1602 84.8408 79.1602H83.1094V87H80.9912V77.4902H84.8408C85.4502 77.4902 85.998 77.543 86.4844 77.6484C86.9766 77.7539 87.3955 77.915 87.7412 78.1318C88.0869 78.3486 88.3506 78.624 88.5322 78.958C88.7197 79.2861 88.8135 79.6729 88.8135 80.1182C88.8135 80.4111 88.749 80.6865 88.6201 80.9443C88.4971 81.2021 88.3125 81.4307 88.0664 81.6299C87.8203 81.8291 87.5186 81.9932 87.1611 82.1221C86.8037 82.2451 86.3936 82.3213 85.9307 82.3506L85.4473 82.9307ZM85.4473 87H81.791L82.6348 85.3301H85.4473C85.8223 85.3301 86.1328 85.2832 86.3789 85.1895C86.625 85.0957 86.8066 84.9609 86.9238 84.7852C87.0469 84.6035 87.1084 84.3896 87.1084 84.1436C87.1084 83.8916 87.0498 83.6748 86.9326 83.4932C86.8154 83.3115 86.6338 83.1738 86.3877 83.0801C86.1475 82.9805 85.834 82.9307 85.4473 82.9307H83.0303L83.0479 81.4365H85.9219L86.5283 82.0166C87.1318 82.0576 87.6328 82.1865 88.0312 82.4033C88.4297 82.6201 88.7285 82.8926 88.9277 83.2207C89.127 83.5488 89.2266 83.9062 89.2266 84.293C89.2266 84.7383 89.1416 85.1309 88.9717 85.4707C88.8076 85.8105 88.5615 86.0947 88.2334 86.3232C87.9111 86.5459 87.5156 86.7158 87.0469 86.833C86.5781 86.9443 86.0449 87 85.4473 87ZM99.4219 85.4883C99.7676 85.4883 100.078 85.4209 100.354 85.2861C100.635 85.1455 100.86 84.9521 101.03 84.7061C101.206 84.46 101.303 84.1758 101.32 83.8535H103.315C103.304 84.4688 103.122 85.0283 102.771 85.5322C102.419 86.0361 101.953 86.4375 101.373 86.7363C100.793 87.0293 100.151 87.1758 99.4482 87.1758C98.7217 87.1758 98.0889 87.0527 97.5498 86.8066C97.0107 86.5547 96.5625 86.209 96.2051 85.7695C95.8477 85.3301 95.5781 84.8232 95.3965 84.249C95.2207 83.6748 95.1328 83.0596 95.1328 82.4033V82.0957C95.1328 81.4395 95.2207 80.8242 95.3965 80.25C95.5781 79.6699 95.8477 79.1602 96.2051 78.7207C96.5625 78.2812 97.0107 77.9385 97.5498 77.6924C98.0889 77.4404 98.7188 77.3145 99.4395 77.3145C100.201 77.3145 100.869 77.4668 101.443 77.7715C102.018 78.0703 102.469 78.4893 102.797 79.0283C103.131 79.5615 103.304 80.1826 103.315 80.8916H101.32C101.303 80.54 101.215 80.2236 101.057 79.9424C100.904 79.6553 100.688 79.4268 100.406 79.2568C100.131 79.0869 99.7998 79.002 99.4131 79.002C98.9854 79.002 98.6309 79.0898 98.3496 79.2656C98.0684 79.4355 97.8486 79.6699 97.6904 79.9688C97.5322 80.2617 97.418 80.5928 97.3477 80.9619C97.2832 81.3252 97.251 81.7031 97.251 82.0957V82.4033C97.251 82.7959 97.2832 83.1768 97.3477 83.5459C97.4121 83.915 97.5234 84.2461 97.6816 84.5391C97.8457 84.8262 98.0684 85.0576 98.3496 85.2334C98.6309 85.4033 98.9883 85.4883 99.4219 85.4883ZM107.701 85.9629L110.285 77.4902H112.553L108.738 88.4502C108.65 88.6846 108.536 88.9395 108.396 89.2148C108.255 89.4902 108.07 89.751 107.842 89.9971C107.619 90.249 107.341 90.4512 107.007 90.6035C106.673 90.7617 106.269 90.8408 105.794 90.8408C105.606 90.8408 105.425 90.8232 105.249 90.7881C105.079 90.7588 104.918 90.7266 104.766 90.6914L104.757 89.0742C104.815 89.0801 104.886 89.0859 104.968 89.0918C105.056 89.0977 105.126 89.1006 105.179 89.1006C105.53 89.1006 105.823 89.0566 106.058 88.9688C106.292 88.8867 106.482 88.752 106.629 88.5645C106.781 88.377 106.91 88.125 107.016 87.8086L107.701 85.9629ZM106.242 77.4902L108.501 84.6094L108.879 86.8418L107.411 87.2197L103.957 77.4902H106.242ZM118.178 77.4902V87H116.051V77.4902H118.178ZM121.298 77.4902V79.1602H112.983V77.4902H121.298ZM124.998 77.4902V87H122.88V77.4902H124.998ZM131.203 77.4902L126.923 83.2119H124.506L124.225 81.2959H125.991L128.558 77.4902H131.203ZM128.725 87L125.859 82.8516L127.529 81.6475L131.511 87H128.725ZM134.851 83.9062L138.586 77.4902H140.704V87H138.586V80.5752L134.851 87H132.732V77.4902H134.851V83.9062Z" fill="#492BA0"/>
<path d="M41.5449 16.3125V18H32.9668V16.5498L37.1328 12.0059C37.5898 11.4902 37.9502 11.0449 38.2139 10.6699C38.4775 10.2949 38.6621 9.95801 38.7676 9.65918C38.8789 9.35449 38.9346 9.05859 38.9346 8.77148C38.9346 8.36719 38.8584 8.0127 38.7061 7.70801C38.5596 7.39746 38.3428 7.1543 38.0557 6.97852C37.7686 6.79687 37.4199 6.70605 37.0098 6.70605C36.5352 6.70605 36.1367 6.80859 35.8145 7.01367C35.4922 7.21875 35.249 7.50293 35.085 7.86621C34.9209 8.22363 34.8389 8.63379 34.8389 9.09668H32.7207C32.7207 8.35254 32.8906 7.67285 33.2305 7.05762C33.5703 6.43652 34.0625 5.94434 34.707 5.58105C35.3516 5.21191 36.1279 5.02734 37.0361 5.02734C37.8916 5.02734 38.6182 5.1709 39.2158 5.45801C39.8135 5.74512 40.2676 6.15234 40.5781 6.67969C40.8945 7.20703 41.0527 7.83105 41.0527 8.55176C41.0527 8.9502 40.9883 9.3457 40.8594 9.73828C40.7305 10.1309 40.5459 10.5234 40.3057 10.916C40.0713 11.3027 39.793 11.6924 39.4707 12.085C39.1484 12.4717 38.7939 12.8643 38.4072 13.2627L35.6387 16.3125H41.5449ZM51.5381 10.5293V12.6211C51.5381 13.623 51.4385 14.4785 51.2393 15.1875C51.0459 15.8906 50.7646 16.4619 50.3955 16.9014C50.0264 17.3408 49.584 17.6631 49.0684 17.8682C48.5586 18.0732 47.9873 18.1758 47.3545 18.1758C46.8506 18.1758 46.3818 18.1113 45.9482 17.9824C45.5205 17.8535 45.1338 17.6514 44.7881 17.376C44.4424 17.1006 44.1465 16.7461 43.9004 16.3125C43.6602 15.873 43.4727 15.3486 43.3379 14.7393C43.209 14.1299 43.1445 13.4238 43.1445 12.6211V10.5293C43.1445 9.52148 43.2441 8.67188 43.4434 7.98047C43.6426 7.2832 43.9268 6.71777 44.2959 6.28418C44.665 5.84473 45.1045 5.52539 45.6143 5.32617C46.1299 5.12695 46.7041 5.02734 47.3369 5.02734C47.8467 5.02734 48.3154 5.0918 48.7432 5.2207C49.1768 5.34375 49.5635 5.54004 49.9033 5.80957C50.249 6.0791 50.542 6.43066 50.7822 6.86426C51.0283 7.29199 51.2158 7.81055 51.3447 8.41992C51.4736 9.02344 51.5381 9.72656 51.5381 10.5293ZM49.4199 12.9199V10.2129C49.4199 9.70312 49.3906 9.25488 49.332 8.86816C49.2734 8.47559 49.1855 8.14453 49.0684 7.875C48.957 7.59961 48.8164 7.37695 48.6465 7.20703C48.4766 7.03125 48.2832 6.90527 48.0664 6.8291C47.8496 6.74707 47.6064 6.70605 47.3369 6.70605C47.0088 6.70605 46.7158 6.77051 46.458 6.89941C46.2002 7.02246 45.9834 7.22168 45.8076 7.49707C45.6318 7.77246 45.4971 8.13574 45.4033 8.58691C45.3154 9.03223 45.2715 9.57422 45.2715 10.2129V12.9199C45.2715 13.4355 45.3008 13.8896 45.3594 14.2822C45.418 14.6748 45.5059 15.0117 45.623 15.293C45.7402 15.5684 45.8809 15.7969 46.0449 15.9785C46.2148 16.1543 46.4082 16.2832 46.625 16.3652C46.8477 16.4473 47.0908 16.4883 47.3545 16.4883C47.6885 16.4883 47.9844 16.4238 48.2422 16.2949C48.5 16.166 48.7168 15.9609 48.8926 15.6797C49.0684 15.3926 49.2002 15.0205 49.2881 14.5635C49.376 14.1064 49.4199 13.5586 49.4199 12.9199ZM61.7686 10.5293V12.6211C61.7686 13.623 61.6689 14.4785 61.4697 15.1875C61.2764 15.8906 60.9951 16.4619 60.626 16.9014C60.2568 17.3408 59.8145 17.6631 59.2988 17.8682C58.7891 18.0732 58.2178 18.1758 57.585 18.1758C57.0811 18.1758 56.6123 18.1113 56.1787 17.9824C55.751 17.8535 55.3643 17.6514 55.0186 17.376C54.6729 17.1006 54.377 16.7461 54.1309 16.3125C53.8906 15.873 53.7031 15.3486 53.5684 14.7393C53.4395 14.1299 53.375 13.4238 53.375 12.6211V10.5293C53.375 9.52148 53.4746 8.67188 53.6738 7.98047C53.873 7.2832 54.1572 6.71777 54.5264 6.28418C54.8955 5.84473 55.335 5.52539 55.8447 5.32617C56.3604 5.12695 56.9346 5.02734 57.5674 5.02734C58.0771 5.02734 58.5459 5.0918 58.9736 5.2207C59.4072 5.34375 59.7939 5.54004 60.1338 5.80957C60.4795 6.0791 60.7725 6.43066 61.0127 6.86426C61.2588 7.29199 61.4463 7.81055 61.5752 8.41992C61.7041 9.02344 61.7686 9.72656 61.7686 10.5293ZM59.6504 12.9199V10.2129C59.6504 9.70312 59.6211 9.25488 59.5625 8.86816C59.5039 8.47559 59.416 8.14453 59.2988 7.875C59.1875 7.59961 59.0469 7.37695 58.877 7.20703C58.707 7.03125 58.5137 6.90527 58.2969 6.8291C58.0801 6.74707 57.8369 6.70605 57.5674 6.70605C57.2393 6.70605 56.9463 6.77051 56.6885 6.89941C56.4307 7.02246 56.2139 7.22168 56.0381 7.49707C55.8623 7.77246 55.7275 8.13574 55.6338 8.58691C55.5459 9.03223 55.502 9.57422 55.502 10.2129V12.9199C55.502 13.4355 55.5312 13.8896 55.5898 14.2822C55.6484 14.6748 55.7363 15.0117 55.8535 15.293C55.9707 15.5684 56.1113 15.7969 56.2754 15.9785C56.4453 16.1543 56.6387 16.2832 56.8555 16.3652C57.0781 16.4473 57.3213 16.4883 57.585 16.4883C57.9189 16.4883 58.2148 16.4238 58.4727 16.2949C58.7305 16.166 58.9473 15.9609 59.123 15.6797C59.2988 15.3926 59.4307 15.0205 59.5186 14.5635C59.6064 14.1064 59.6504 13.5586 59.6504 12.9199ZM73.915 15.4336L76.7451 8.49023H78.582L74.6357 18H73.1943L69.2568 8.49023H71.0938L73.915 15.4336ZM70.5488 8.49023V18H68.4307V8.49023H70.5488ZM77.2812 18V8.49023H79.4082V18H77.2812ZM88.1094 8.49023V10.1777H83.9609V18H81.8428V8.49023H88.1094Z" fill="#492BA0"/>
<path d="M12 0C9.02761 0 6.60938 2.41823 6.60938 5.39062V18.6094C6.60938 21.5818 9.02761 24 12 24C14.9724 24 17.3906 21.5818 17.3906 18.6094V5.39062C17.3906 2.41823 14.9724 0 12 0ZM15.9844 12H8.01562V5.39062C8.01562 3.19364 9.80302 1.40625 12 1.40625C14.197 1.40625 15.9844 3.19364 15.9844 5.39062V12Z" fill="#492BA0"/>
<path d="M205 57L-1.84774e-06 57" stroke="#D8C8EC" stroke-dasharray="6 6"/>
<path d="M205 126L-1.84774e-06 126" stroke="#D8C8EC" stroke-dasharray="6 6"/>
</svg>
