<svg width="24" height="24" viewBox="0 0 24 24" fill="none" xmlns="http://www.w3.org/2000/svg">
<path d="M7.93633 8.31641C7.93633 8.21328 8.0207 8.12891 8.12383 8.12891L9.6707 8.13594L12.0004 10.9133L14.3277 8.13828L15.877 8.13125C15.9801 8.13125 16.0645 8.21328 16.0645 8.31875C16.0645 8.36328 16.048 8.40547 16.0199 8.44063L12.9707 12.0734L16.0199 15.7039C16.0482 15.7383 16.064 15.7813 16.0645 15.8258C16.0645 15.9289 15.9801 16.0133 15.877 16.0133L14.3277 16.0063L12.0004 13.2289L9.67305 16.0039L8.12617 16.0109C8.02305 16.0109 7.93867 15.9289 7.93867 15.8234C7.93867 15.7789 7.95508 15.7367 7.9832 15.7016L11.0277 12.0711L7.97852 8.43828C7.95039 8.40547 7.93633 8.36094 7.93633 8.31641Z" fill="#492BA0"/>
<path d="M12 1.52344C17.7984 1.52344 22.5 6.225 22.5 12.0234C22.5 17.8219 17.7984 22.5234 12 22.5234C6.20156 22.5234 1.5 17.8219 1.5 12.0234C1.5 6.225 6.20156 1.52344 12 1.52344ZM12 20.7422C16.8141 20.7422 20.7188 16.8375 20.7188 12.0234C20.7188 7.20938 16.8141 3.30469 12 3.30469C7.18594 3.30469 3.28125 7.20938 3.28125 12.0234C3.28125 16.8375 7.18594 20.7422 12 20.7422Z" fill="#492BA0"/>
</svg>
