<svg width="792" height="19" viewBox="0 0 792 19" fill="none" xmlns="http://www.w3.org/2000/svg">
<path d="M1.64258 11.2031L3.86914 8.12695L0.441406 6.98438L0.666016 6.27148L4.09375 7.53125L4.08398 3.78125H4.80664L4.73828 7.55078L8.06836 6.21289L8.3125 6.92578L4.9043 8.17578L7.22852 11.1836L6.62305 11.623L4.37695 8.53711L2.23828 11.6328L1.64258 11.2031ZM28.0957 3.78125V18H27.3047V3.78125H28.0957ZM37.0898 3.78125L30.6934 11.1641H27.7734L27.7832 10.4414H30.2539L36.0742 3.78125H37.0898ZM36.5234 18L30.1172 11.0957L30.5957 10.4023L37.5293 18H36.5234ZM55.6777 3.78125V4.50391H48.4414V3.78125H55.6777ZM56.2344 3.78125V18H55.4434V3.78125H56.2344ZM48.1387 3.78125H48.9297L48.5293 10.1191C48.4577 11.2585 48.373 12.2611 48.2754 13.127C48.1777 13.9863 48.0475 14.7253 47.8848 15.3438C47.722 15.9622 47.5072 16.4668 47.2402 16.8574C46.9798 17.248 46.651 17.5378 46.2539 17.7266C45.8633 17.9089 45.3913 18 44.8379 18H44.4863V17.2773L44.8379 17.2676C45.235 17.2676 45.5768 17.1992 45.8633 17.0625C46.1562 16.9258 46.4069 16.7012 46.6152 16.3887C46.8236 16.0697 46.9993 15.6367 47.1426 15.0898C47.2858 14.543 47.4062 13.8561 47.5039 13.0293C47.6016 12.2025 47.6862 11.2129 47.7578 10.0605L48.1387 3.78125ZM66.8145 16.623L75.5742 3.78125H76.3652V18H75.5742V5.13867L66.8145 18H66.0234V3.78125H66.8145V16.623ZM95.9102 10.3145V11.0469H86.7012V10.3145H95.9102ZM86.9746 3.78125V18H86.1836V3.78125H86.9746ZM96.4766 3.78125V18H95.6855V3.78125H96.4766ZM107.076 16.623L115.836 3.78125H116.627V18H115.836V5.13867L107.076 18H106.285V3.78125H107.076V16.623ZM126.094 3.78125H126.885V7.4043C126.885 8.2832 127.035 8.98958 127.334 9.52344C127.633 10.0573 128.073 10.4479 128.652 10.6953C129.238 10.9362 129.954 11.0566 130.801 11.0566C131.165 11.0566 131.523 11.0436 131.875 11.0176C132.233 10.985 132.588 10.9395 132.939 10.8809C133.291 10.8223 133.643 10.7507 133.994 10.666C134.346 10.5814 134.697 10.4837 135.049 10.373V11.0957C134.723 11.1868 134.391 11.2747 134.053 11.3594C133.714 11.444 133.366 11.5189 133.008 11.584C132.656 11.6426 132.295 11.6914 131.924 11.7305C131.559 11.763 131.185 11.7793 130.801 11.7793C129.805 11.7793 128.955 11.6361 128.252 11.3496C127.555 11.0632 127.021 10.6009 126.65 9.96289C126.279 9.31836 126.094 8.46549 126.094 7.4043V3.78125ZM134.697 3.78125H135.488V18H134.697V3.78125ZM153.988 17.2773V18H145.697V17.2773H153.988ZM146.049 3.78125V18H145.258V3.78125H146.049ZM152.992 10.3145V11.0469H145.697V10.3145H152.992ZM153.969 3.78125V4.50391H145.697V3.78125H153.969ZM171.678 13.6152H172.469C172.371 14.6113 172.104 15.4512 171.668 16.1348C171.232 16.8118 170.646 17.3262 169.91 17.6777C169.181 18.0228 168.322 18.1953 167.332 18.1953C166.544 18.1953 165.828 18.0456 165.184 17.7461C164.546 17.4401 163.995 17.0104 163.533 16.457C163.077 15.8971 162.726 15.2298 162.479 14.4551C162.231 13.6803 162.107 12.8242 162.107 11.8867V9.89453C162.107 8.95052 162.231 8.0944 162.479 7.32617C162.726 6.55143 163.077 5.88737 163.533 5.33398C163.995 4.77409 164.549 4.3444 165.193 4.04492C165.844 3.73893 166.57 3.58594 167.371 3.58594C168.341 3.58594 169.191 3.75846 169.92 4.10352C170.649 4.44857 171.232 4.96289 171.668 5.64648C172.104 6.32357 172.371 7.16016 172.469 8.15625H171.678C171.58 7.32943 171.355 6.63281 171.004 6.06641C170.659 5.49349 170.184 5.05729 169.578 4.75781C168.973 4.45833 168.237 4.30859 167.371 4.30859C166.688 4.30859 166.072 4.44206 165.525 4.70898C164.979 4.9694 164.51 5.34701 164.119 5.8418C163.729 6.33008 163.426 6.91602 163.211 7.59961C163.003 8.27669 162.898 9.03516 162.898 9.875V11.8867C162.898 12.7135 163.003 13.472 163.211 14.1621C163.419 14.8457 163.715 15.4349 164.1 15.9297C164.484 16.418 164.949 16.7988 165.496 17.0723C166.043 17.3392 166.655 17.4727 167.332 17.4727C168.198 17.4727 168.937 17.3359 169.549 17.0625C170.161 16.7826 170.643 16.3561 170.994 15.7832C171.352 15.2103 171.58 14.4876 171.678 13.6152ZM182.424 3.78125V18H181.633V3.78125H182.424ZM191.418 3.78125L185.021 11.1641H182.102L182.111 10.4414H184.582L190.402 3.78125H191.418ZM190.852 18L184.445 11.0957L184.924 10.4023L191.857 18H190.852ZM201.158 16.623L209.918 3.78125H210.709V18H209.918V5.13867L201.158 18H200.367V3.78125H201.158V16.623ZM221.338 16.623L230.098 3.78125H230.889V18H230.098V5.13867L221.338 18H220.547V3.78125H221.338V16.623ZM227.852 0.304688H228.564C228.564 0.786458 228.454 1.21289 228.232 1.58398C228.018 1.95508 227.702 2.24479 227.285 2.45312C226.875 2.66146 226.383 2.76562 225.811 2.76562C224.951 2.76562 224.274 2.53776 223.779 2.08203C223.291 1.61979 223.047 1.02734 223.047 0.304688H223.75C223.75 0.792969 223.903 1.21615 224.209 1.57422C224.521 1.92578 225.055 2.10156 225.811 2.10156C226.533 2.10156 227.054 1.92253 227.373 1.56445C227.692 1.20638 227.852 0.786458 227.852 0.304688ZM260.564 13.6152H261.355C261.258 14.6113 260.991 15.4512 260.555 16.1348C260.118 16.8118 259.533 17.3262 258.797 17.6777C258.068 18.0228 257.208 18.1953 256.219 18.1953C255.431 18.1953 254.715 18.0456 254.07 17.7461C253.432 17.4401 252.882 17.0104 252.42 16.457C251.964 15.8971 251.613 15.2298 251.365 14.4551C251.118 13.6803 250.994 12.8242 250.994 11.8867V9.89453C250.994 8.95052 251.118 8.0944 251.365 7.32617C251.613 6.55143 251.964 5.88737 252.42 5.33398C252.882 4.77409 253.436 4.3444 254.08 4.04492C254.731 3.73893 255.457 3.58594 256.258 3.58594C257.228 3.58594 258.077 3.75846 258.807 4.10352C259.536 4.44857 260.118 4.96289 260.555 5.64648C260.991 6.32357 261.258 7.16016 261.355 8.15625H260.564C260.467 7.32943 260.242 6.63281 259.891 6.06641C259.546 5.49349 259.07 5.05729 258.465 4.75781C257.859 4.45833 257.124 4.30859 256.258 4.30859C255.574 4.30859 254.959 4.44206 254.412 4.70898C253.865 4.9694 253.396 5.34701 253.006 5.8418C252.615 6.33008 252.312 6.91602 252.098 7.59961C251.889 8.27669 251.785 9.03516 251.785 9.875V11.8867C251.785 12.7135 251.889 13.472 252.098 14.1621C252.306 14.8457 252.602 15.4349 252.986 15.9297C253.37 16.418 253.836 16.7988 254.383 17.0723C254.93 17.3392 255.542 17.4727 256.219 17.4727C257.085 17.4727 257.824 17.3359 258.436 17.0625C259.048 16.7826 259.529 16.3561 259.881 15.7832C260.239 15.2103 260.467 14.4876 260.564 13.6152ZM280.158 3.78125V4.50391H272.922V3.78125H280.158ZM280.715 3.78125V18H279.924V3.78125H280.715ZM272.619 3.78125H273.41L273.01 10.1191C272.938 11.2585 272.854 12.2611 272.756 13.127C272.658 13.9863 272.528 14.7253 272.365 15.3438C272.202 15.9622 271.988 16.4668 271.721 16.8574C271.46 17.248 271.132 17.5378 270.734 17.7266C270.344 17.9089 269.872 18 269.318 18H268.967V17.2773L269.318 17.2676C269.715 17.2676 270.057 17.1992 270.344 17.0625C270.637 16.9258 270.887 16.7012 271.096 16.3887C271.304 16.0697 271.48 15.6367 271.623 15.0898C271.766 14.543 271.887 13.8561 271.984 13.0293C272.082 12.2025 272.167 11.2129 272.238 10.0605L272.619 3.78125ZM295.201 13.1855L299.664 3.78125H300.602L294.918 15.5195C294.794 15.7604 294.645 16.0371 294.469 16.3496C294.299 16.6556 294.081 16.9486 293.814 17.2285C293.548 17.5085 293.222 17.7428 292.838 17.9316C292.46 18.1139 292.001 18.2051 291.461 18.2051C291.331 18.2051 291.174 18.1921 290.992 18.166C290.81 18.1465 290.676 18.1204 290.592 18.0879L290.719 17.3945C290.81 17.4206 290.93 17.4434 291.08 17.4629C291.236 17.4759 291.376 17.4824 291.5 17.4824C291.956 17.4824 292.343 17.3848 292.662 17.1895C292.988 16.9876 293.264 16.724 293.492 16.3984C293.72 16.0729 293.928 15.7246 294.117 15.3535L295.201 13.1855ZM289.938 3.78125L295.211 13.4785L295.514 14.1426L294.82 14.4062L289 3.78125H289.938ZM308.945 3.78125H309.736V7.4043C309.736 8.2832 309.886 8.98958 310.186 9.52344C310.485 10.0573 310.924 10.4479 311.504 10.6953C312.09 10.9362 312.806 11.0566 313.652 11.0566C314.017 11.0566 314.375 11.0436 314.727 11.0176C315.085 10.985 315.439 10.9395 315.791 10.8809C316.143 10.8223 316.494 10.7507 316.846 10.666C317.197 10.5814 317.549 10.4837 317.9 10.373V11.0957C317.575 11.1868 317.243 11.2747 316.904 11.3594C316.566 11.444 316.217 11.5189 315.859 11.584C315.508 11.6426 315.146 11.6914 314.775 11.7305C314.411 11.763 314.036 11.7793 313.652 11.7793C312.656 11.7793 311.807 11.6361 311.104 11.3496C310.407 11.0632 309.873 10.6009 309.502 9.96289C309.131 9.31836 308.945 8.46549 308.945 7.4043V3.78125ZM317.549 3.78125H318.34V18H317.549V3.78125ZM332.602 4.38672L327.543 18H326.703L332.045 3.78125H332.699L332.602 4.38672ZM337.387 18L332.338 4.38672L332.24 3.78125H332.885L338.236 18H337.387ZM336.137 13.127V13.8594H328.842V13.127H336.137ZM347.264 16.623L356.023 3.78125H356.814V18H356.023V5.13867L347.264 18H346.473V3.78125H347.264V16.623ZM353.777 0.304688H354.49C354.49 0.786458 354.38 1.21289 354.158 1.58398C353.943 1.95508 353.628 2.24479 353.211 2.45312C352.801 2.66146 352.309 2.76562 351.736 2.76562C350.877 2.76562 350.2 2.53776 349.705 2.08203C349.217 1.61979 348.973 1.02734 348.973 0.304688H349.676C349.676 0.792969 349.829 1.21615 350.135 1.57422C350.447 1.92578 350.981 2.10156 351.736 2.10156C352.459 2.10156 352.98 1.92253 353.299 1.56445C353.618 1.20638 353.777 0.786458 353.777 0.304688ZM385.553 12.0527H380.221L379.898 11.8379C378.967 11.5514 378.251 11.0794 377.75 10.4219C377.249 9.76432 376.998 8.97656 376.998 8.05859C376.998 7.14062 377.187 6.36589 377.564 5.73438C377.949 5.09635 378.492 4.61133 379.195 4.2793C379.905 3.94727 380.742 3.78125 381.705 3.78125H385.943V18H385.143V4.50391H381.705C380.416 4.50391 379.439 4.81966 378.775 5.45117C378.118 6.07617 377.789 6.94206 377.789 8.04883C377.789 8.68685 377.926 9.25326 378.199 9.74805C378.473 10.2363 378.863 10.6204 379.371 10.9004C379.879 11.1803 380.491 11.3203 381.207 11.3203H385.572L385.553 12.0527ZM380.865 11.4668L377.359 18H376.48L380.055 11.4668H380.865ZM400.176 11.0469H395.918L395.898 10.334H399.463C400.257 10.334 400.928 10.2266 401.475 10.0117C402.021 9.79688 402.435 9.47461 402.715 9.04492C402.995 8.60872 403.135 8.0651 403.135 7.41406C403.135 6.76302 402.992 6.22266 402.705 5.79297C402.419 5.36328 401.989 5.04102 401.416 4.82617C400.85 4.61133 400.14 4.50391 399.287 4.50391H396.162V18H395.371V3.78125H399.287C400.01 3.78125 400.658 3.85286 401.23 3.99609C401.803 4.13932 402.288 4.36393 402.686 4.66992C403.089 4.9694 403.398 5.35026 403.613 5.8125C403.828 6.27474 403.936 6.82161 403.936 7.45312C403.936 8.03906 403.818 8.56641 403.584 9.03516C403.35 9.50391 403.011 9.88802 402.568 10.1875C402.132 10.4805 401.598 10.6595 400.967 10.7246L400.176 11.0469ZM400.078 18H395.752L396.094 17.2773H400.078C400.84 17.2773 401.491 17.1504 402.031 16.8965C402.578 16.6361 402.998 16.2682 403.291 15.793C403.59 15.3112 403.74 14.735 403.74 14.0645C403.74 13.5241 403.61 13.026 403.35 12.5703C403.089 12.1081 402.695 11.7402 402.168 11.4668C401.641 11.1868 400.977 11.0469 400.176 11.0469H397.793L397.812 10.334H401.24L401.348 10.5879C401.966 10.6595 402.513 10.8581 402.988 11.1836C403.47 11.5091 403.848 11.9225 404.121 12.4238C404.395 12.9186 404.531 13.459 404.531 14.0449C404.531 14.8978 404.342 15.6172 403.965 16.2031C403.587 16.7891 403.063 17.235 402.393 17.541C401.729 17.847 400.957 18 400.078 18ZM423.178 3.78125V4.50391H415.941V3.78125H423.178ZM423.734 3.78125V18H422.943V3.78125H423.734ZM415.639 3.78125H416.43L416.029 10.1191C415.958 11.2585 415.873 12.2611 415.775 13.127C415.678 13.9863 415.548 14.7253 415.385 15.3438C415.222 15.9622 415.007 16.4668 414.74 16.8574C414.48 17.248 414.151 17.5378 413.754 17.7266C413.363 17.9089 412.891 18 412.338 18H411.986V17.2773L412.338 17.2676C412.735 17.2676 413.077 17.1992 413.363 17.0625C413.656 16.9258 413.907 16.7012 414.115 16.3887C414.324 16.0697 414.499 15.6367 414.643 15.0898C414.786 14.543 414.906 13.8561 415.004 13.0293C415.102 12.2025 415.186 11.2129 415.258 10.0605L415.639 3.78125ZM441.6 12.0527H436.268L435.945 11.8379C435.014 11.5514 434.298 11.0794 433.797 10.4219C433.296 9.76432 433.045 8.97656 433.045 8.05859C433.045 7.14062 433.234 6.36589 433.611 5.73438C433.995 5.09635 434.539 4.61133 435.242 4.2793C435.952 3.94727 436.788 3.78125 437.752 3.78125H441.99V18H441.189V4.50391H437.752C436.463 4.50391 435.486 4.81966 434.822 5.45117C434.165 6.07617 433.836 6.94206 433.836 8.04883C433.836 8.68685 433.973 9.25326 434.246 9.74805C434.52 10.2363 434.91 10.6204 435.418 10.9004C435.926 11.1803 436.538 11.3203 437.254 11.3203H441.619L441.6 12.0527ZM436.912 11.4668L433.406 18H432.527L436.102 11.4668H436.912ZM460.148 17.2773V18H451.857V17.2773H460.148ZM452.209 3.78125V18H451.418V3.78125H452.209ZM459.152 10.3145V11.0469H451.857V10.3145H459.152ZM460.129 3.78125V4.50391H451.857V3.78125H460.129ZM473.473 3.78125V18H472.691V3.78125H473.473ZM478.531 3.78125V4.50391H467.633V3.78125H478.531ZM495.713 13.6152H496.504C496.406 14.6113 496.139 15.4512 495.703 16.1348C495.267 16.8118 494.681 17.3262 493.945 17.6777C493.216 18.0228 492.357 18.1953 491.367 18.1953C490.579 18.1953 489.863 18.0456 489.219 17.7461C488.581 17.4401 488.031 17.0104 487.568 16.457C487.113 15.8971 486.761 15.2298 486.514 14.4551C486.266 13.6803 486.143 12.8242 486.143 11.8867V9.89453C486.143 8.95052 486.266 8.0944 486.514 7.32617C486.761 6.55143 487.113 5.88737 487.568 5.33398C488.031 4.77409 488.584 4.3444 489.229 4.04492C489.88 3.73893 490.605 3.58594 491.406 3.58594C492.376 3.58594 493.226 3.75846 493.955 4.10352C494.684 4.44857 495.267 4.96289 495.703 5.64648C496.139 6.32357 496.406 7.16016 496.504 8.15625H495.713C495.615 7.32943 495.391 6.63281 495.039 6.06641C494.694 5.49349 494.219 5.05729 493.613 4.75781C493.008 4.45833 492.272 4.30859 491.406 4.30859C490.723 4.30859 490.107 4.44206 489.561 4.70898C489.014 4.9694 488.545 5.34701 488.154 5.8418C487.764 6.33008 487.461 6.91602 487.246 7.59961C487.038 8.27669 486.934 9.03516 486.934 9.875V11.8867C486.934 12.7135 487.038 13.472 487.246 14.1621C487.454 14.8457 487.751 15.4349 488.135 15.9297C488.519 16.418 488.984 16.7988 489.531 17.0723C490.078 17.3392 490.69 17.4727 491.367 17.4727C492.233 17.4727 492.972 17.3359 493.584 17.0625C494.196 16.7826 494.678 16.3561 495.029 15.7832C495.387 15.2103 495.615 14.4876 495.713 13.6152ZM513.744 12.0527H508.412L508.09 11.8379C507.159 11.5514 506.443 11.0794 505.941 10.4219C505.44 9.76432 505.189 8.97656 505.189 8.05859C505.189 7.14062 505.378 6.36589 505.756 5.73438C506.14 5.09635 506.684 4.61133 507.387 4.2793C508.096 3.94727 508.933 3.78125 509.896 3.78125H514.135V18H513.334V4.50391H509.896C508.607 4.50391 507.631 4.81966 506.967 5.45117C506.309 6.07617 505.98 6.94206 505.98 8.04883C505.98 8.68685 506.117 9.25326 506.391 9.74805C506.664 10.2363 507.055 10.6204 507.562 10.9004C508.07 11.1803 508.682 11.3203 509.398 11.3203H513.764L513.744 12.0527ZM509.057 11.4668L505.551 18H504.672L508.246 11.4668H509.057ZM542.824 3.78125V4.50391H535.139V18H534.348V3.78125H542.824ZM552.193 16.623L560.953 3.78125H561.744V18H560.953V5.13867L552.193 18H551.402V3.78125H552.193V16.623ZM581.836 3.78125V18H581.055V4.50391H572.373V18H571.582V3.78125H581.836ZM601.879 9.94336V11.8379C601.879 12.7884 601.752 13.6543 601.498 14.4355C601.251 15.2168 600.889 15.8874 600.414 16.4473C599.939 17.0072 599.369 17.4401 598.705 17.7461C598.041 18.0456 597.292 18.1953 596.459 18.1953C595.645 18.1953 594.903 18.0456 594.232 17.7461C593.562 17.4401 592.986 17.0072 592.504 16.4473C592.029 15.8874 591.661 15.2168 591.4 14.4355C591.146 13.6543 591.02 12.7884 591.02 11.8379V9.94336C591.02 8.98633 591.146 8.12044 591.4 7.3457C591.661 6.56445 592.029 5.89388 592.504 5.33398C592.979 4.77409 593.549 4.3444 594.213 4.04492C594.883 3.73893 595.626 3.58594 596.439 3.58594C597.273 3.58594 598.021 3.73893 598.686 4.04492C599.35 4.3444 599.919 4.77409 600.395 5.33398C600.876 5.89388 601.244 6.56445 601.498 7.3457C601.752 8.12044 601.879 8.98633 601.879 9.94336ZM601.098 11.8379V9.92383C601.098 9.09049 600.993 8.33203 600.785 7.64844C600.577 6.95833 600.271 6.36589 599.867 5.87109C599.47 5.3763 598.985 4.99544 598.412 4.72852C597.839 4.45508 597.182 4.31836 596.439 4.31836C595.717 4.31836 595.069 4.45508 594.496 4.72852C593.923 4.99544 593.438 5.3763 593.041 5.87109C592.644 6.36589 592.341 6.95833 592.133 7.64844C591.924 8.33203 591.82 9.09049 591.82 9.92383V11.8379C591.82 12.6777 591.924 13.4427 592.133 14.1328C592.348 14.8229 592.654 15.4154 593.051 15.9102C593.448 16.4049 593.933 16.7891 594.506 17.0625C595.085 17.3294 595.736 17.4629 596.459 17.4629C597.201 17.4629 597.859 17.3294 598.432 17.0625C599.005 16.7891 599.49 16.4049 599.887 15.9102C600.284 15.4154 600.583 14.8229 600.785 14.1328C600.993 13.4427 601.098 12.6777 601.098 11.8379ZM615.262 3.78125V18H614.48V3.78125H615.262ZM620.32 3.78125V4.50391H609.422V3.78125H620.32ZM637.473 17.2773V18H629.182V17.2773H637.473ZM629.533 3.78125V18H628.742V3.78125H629.533ZM636.477 10.3145V11.0469H629.182V10.3145H636.477ZM637.453 3.78125V4.50391H629.182V3.78125H637.453ZM650.797 3.78125V18H650.016V3.78125H650.797ZM655.855 3.78125V4.50391H644.957V3.78125H655.855ZM665.088 16.623L673.848 3.78125H674.639V18H673.848V5.13867L665.088 18H664.297V3.78125H665.088V16.623ZM684.105 3.78125H684.896V7.4043C684.896 8.2832 685.046 8.98958 685.346 9.52344C685.645 10.0573 686.085 10.4479 686.664 10.6953C687.25 10.9362 687.966 11.0566 688.812 11.0566C689.177 11.0566 689.535 11.0436 689.887 11.0176C690.245 10.985 690.6 10.9395 690.951 10.8809C691.303 10.8223 691.654 10.7507 692.006 10.666C692.357 10.5814 692.709 10.4837 693.061 10.373V11.0957C692.735 11.1868 692.403 11.2747 692.064 11.3594C691.726 11.444 691.378 11.5189 691.02 11.584C690.668 11.6426 690.307 11.6914 689.936 11.7305C689.571 11.763 689.197 11.7793 688.812 11.7793C687.816 11.7793 686.967 11.6361 686.264 11.3496C685.567 11.0632 685.033 10.6009 684.662 9.96289C684.291 9.31836 684.105 8.46549 684.105 7.4043V3.78125ZM692.709 3.78125H693.5V18H692.709V3.78125ZM712 17.2773V18H703.709V17.2773H712ZM704.061 3.78125V18H703.27V3.78125H704.061ZM711.004 10.3145V11.0469H703.709V10.3145H711.004ZM711.98 3.78125V4.50391H703.709V3.78125H711.98ZM729.689 13.6152H730.48C730.383 14.6113 730.116 15.4512 729.68 16.1348C729.243 16.8118 728.658 17.3262 727.922 17.6777C727.193 18.0228 726.333 18.1953 725.344 18.1953C724.556 18.1953 723.84 18.0456 723.195 17.7461C722.557 17.4401 722.007 17.0104 721.545 16.457C721.089 15.8971 720.738 15.2298 720.49 14.4551C720.243 13.6803 720.119 12.8242 720.119 11.8867V9.89453C720.119 8.95052 720.243 8.0944 720.49 7.32617C720.738 6.55143 721.089 5.88737 721.545 5.33398C722.007 4.77409 722.561 4.3444 723.205 4.04492C723.856 3.73893 724.582 3.58594 725.383 3.58594C726.353 3.58594 727.202 3.75846 727.932 4.10352C728.661 4.44857 729.243 4.96289 729.68 5.64648C730.116 6.32357 730.383 7.16016 730.48 8.15625H729.689C729.592 7.32943 729.367 6.63281 729.016 6.06641C728.671 5.49349 728.195 5.05729 727.59 4.75781C726.984 4.45833 726.249 4.30859 725.383 4.30859C724.699 4.30859 724.084 4.44206 723.537 4.70898C722.99 4.9694 722.521 5.34701 722.131 5.8418C721.74 6.33008 721.438 6.91602 721.223 7.59961C721.014 8.27669 720.91 9.03516 720.91 9.875V11.8867C720.91 12.7135 721.014 13.472 721.223 14.1621C721.431 14.8457 721.727 15.4349 722.111 15.9297C722.495 16.418 722.961 16.7988 723.508 17.0723C724.055 17.3392 724.667 17.4727 725.344 17.4727C726.21 17.4727 726.949 17.3359 727.561 17.0625C728.173 16.7826 728.654 16.3561 729.006 15.7832C729.364 15.2103 729.592 14.4876 729.689 13.6152ZM740.436 3.78125V18H739.645V3.78125H740.436ZM749.43 3.78125L743.033 11.1641H740.113L740.123 10.4414H742.594L748.414 3.78125H749.43ZM748.863 18L742.457 11.0957L742.936 10.4023L749.869 18H748.863ZM759.17 16.623L767.93 3.78125H768.721V18H767.93V5.13867L759.17 18H758.379V3.78125H759.17V16.623ZM778.783 3.78125H779.613L785.238 16.8672L790.863 3.78125H791.693L785.541 18H784.926L778.783 3.78125ZM778.539 3.78125H779.281L779.33 11.3887V18H778.539V3.78125ZM791.215 3.78125H791.957V18H791.166V11.3887L791.215 3.78125Z" fill="#474747"/>
</svg>
