<svg width="264" height="120" viewBox="0 0 264 120" fill="none" xmlns="http://www.w3.org/2000/svg">
<rect width="264" height="120" rx="20" fill="#F6F0FE"/>
<path d="M34.8281 39.9082H37.5137C37.4277 40.9323 37.1413 41.8454 36.6543 42.6475C36.1673 43.4424 35.4834 44.069 34.6025 44.5273C33.7217 44.9857 32.651 45.2148 31.3906 45.2148C30.4238 45.2148 29.5537 45.043 28.7803 44.6992C28.0068 44.3483 27.3444 43.8542 26.793 43.2168C26.2415 42.5723 25.819 41.7952 25.5254 40.8857C25.2389 39.9762 25.0957 38.9593 25.0957 37.835V36.5352C25.0957 35.4108 25.2425 34.3939 25.5361 33.4844C25.8369 32.5749 26.2666 31.7979 26.8252 31.1533C27.3838 30.5016 28.0534 30.0039 28.834 29.6602C29.6217 29.3164 30.5062 29.1445 31.4873 29.1445C32.7334 29.1445 33.7861 29.3737 34.6455 29.832C35.5049 30.2904 36.1709 30.9242 36.6436 31.7334C37.1234 32.5426 37.417 33.4701 37.5244 34.5156H34.8389C34.7673 33.8424 34.6097 33.266 34.3662 32.7861C34.1299 32.3063 33.779 31.9411 33.3135 31.6904C32.848 31.4326 32.2393 31.3037 31.4873 31.3037C30.8714 31.3037 30.3343 31.4183 29.876 31.6475C29.4176 31.8766 29.0345 32.2132 28.7266 32.6572C28.4186 33.1012 28.1859 33.6491 28.0283 34.3008C27.8779 34.9453 27.8027 35.6829 27.8027 36.5137V37.835C27.8027 38.6227 27.8708 39.3389 28.0068 39.9834C28.1501 40.6208 28.3649 41.1686 28.6514 41.627C28.945 42.0853 29.3174 42.4398 29.7686 42.6904C30.2197 42.9411 30.7604 43.0664 31.3906 43.0664C32.1569 43.0664 32.7764 42.9447 33.249 42.7012C33.7288 42.4577 34.0905 42.1032 34.334 41.6377C34.5846 41.165 34.7493 40.5885 34.8281 39.9082ZM46.2578 42.6689V37.126C46.2578 36.7106 46.1826 36.3525 46.0322 36.0518C45.8818 35.751 45.6527 35.5182 45.3447 35.3535C45.0439 35.1888 44.6644 35.1064 44.2061 35.1064C43.7835 35.1064 43.4183 35.1781 43.1104 35.3213C42.8024 35.4645 42.5625 35.6579 42.3906 35.9014C42.2188 36.1449 42.1328 36.4206 42.1328 36.7285H39.5547C39.5547 36.2702 39.6657 35.8262 39.8877 35.3965C40.1097 34.9668 40.432 34.5837 40.8545 34.2471C41.277 33.9105 41.7819 33.6455 42.3691 33.4521C42.9564 33.2588 43.6152 33.1621 44.3457 33.1621C45.2194 33.1621 45.9928 33.3089 46.666 33.6025C47.3464 33.8962 47.8799 34.3402 48.2666 34.9346C48.6605 35.5218 48.8574 36.2594 48.8574 37.1475V42.3145C48.8574 42.8444 48.8932 43.3206 48.9648 43.7432C49.0436 44.1585 49.1546 44.5202 49.2979 44.8281V45H46.6445C46.5228 44.7207 46.4261 44.3662 46.3545 43.9365C46.29 43.4997 46.2578 43.0771 46.2578 42.6689ZM46.6338 37.9316L46.6553 39.5322H44.7969C44.3171 39.5322 43.8945 39.5788 43.5293 39.6719C43.1641 39.7578 42.8597 39.8867 42.6162 40.0586C42.3727 40.2305 42.1901 40.4382 42.0684 40.6816C41.9466 40.9251 41.8857 41.2008 41.8857 41.5088C41.8857 41.8167 41.9574 42.0996 42.1006 42.3574C42.2438 42.6081 42.4515 42.805 42.7236 42.9482C43.0029 43.0915 43.3395 43.1631 43.7334 43.1631C44.2633 43.1631 44.7253 43.0557 45.1191 42.8408C45.5202 42.6188 45.8353 42.3503 46.0645 42.0352C46.2936 41.7129 46.4154 41.4085 46.4297 41.1221L47.2676 42.2715C47.1816 42.5651 47.0348 42.8802 46.8271 43.2168C46.6195 43.5534 46.3473 43.8757 46.0107 44.1836C45.6813 44.4844 45.2839 44.7314 44.8184 44.9248C44.36 45.1182 43.8301 45.2148 43.2285 45.2148C42.4694 45.2148 41.7926 45.0645 41.1982 44.7637C40.6038 44.4557 40.1383 44.0439 39.8018 43.5283C39.4652 43.0055 39.2969 42.4147 39.2969 41.7559C39.2969 41.14 39.4115 40.5957 39.6406 40.123C39.877 39.6432 40.2207 39.2422 40.6719 38.9199C41.1302 38.5977 41.6888 38.3542 42.3477 38.1895C43.0065 38.0176 43.7585 37.9316 44.6035 37.9316H46.6338ZM51.6504 33.377H54.2393V42.9375H57.9238V33.377H60.5342V42.9375H64.208V33.377H66.7969V45H51.6504V33.377ZM74.7139 45.2148C73.8545 45.2148 73.0775 45.0752 72.3828 44.7959C71.6953 44.5094 71.1081 44.112 70.6211 43.6035C70.1413 43.0951 69.7725 42.4971 69.5146 41.8096C69.2568 41.1221 69.1279 40.3809 69.1279 39.5859V39.1562C69.1279 38.2467 69.2604 37.4232 69.5254 36.6855C69.7904 35.9479 70.1592 35.3177 70.6318 34.7949C71.1045 34.265 71.6631 33.8604 72.3076 33.5811C72.9521 33.3018 73.6504 33.1621 74.4023 33.1621C75.2331 33.1621 75.96 33.3018 76.583 33.5811C77.2061 33.8604 77.7217 34.2542 78.1299 34.7627C78.5452 35.264 78.8532 35.862 79.0537 36.5566C79.2614 37.2513 79.3652 38.0176 79.3652 38.8555V39.9619H70.3848V38.1035H76.8086V37.8994C76.7943 37.4339 76.7012 36.9971 76.5293 36.5889C76.3646 36.1807 76.1104 35.8512 75.7666 35.6006C75.4229 35.3499 74.9645 35.2246 74.3916 35.2246C73.9619 35.2246 73.5788 35.3177 73.2422 35.5039C72.9128 35.6829 72.637 35.9443 72.415 36.2881C72.193 36.6318 72.0212 37.0472 71.8994 37.5342C71.7848 38.014 71.7275 38.5547 71.7275 39.1562V39.5859C71.7275 40.0944 71.7956 40.5671 71.9316 41.0039C72.0749 41.4336 72.2826 41.8096 72.5547 42.1318C72.8268 42.4541 73.1562 42.7083 73.543 42.8945C73.9297 43.0736 74.3701 43.1631 74.8643 43.1631C75.4873 43.1631 76.0423 43.0378 76.5293 42.7871C77.0163 42.5365 77.4388 42.182 77.7969 41.7236L79.1611 43.0449C78.9105 43.4102 78.5846 43.7611 78.1836 44.0977C77.7826 44.4271 77.292 44.6956 76.7119 44.9033C76.139 45.111 75.473 45.2148 74.7139 45.2148Z" fill="#252349"/>
<path d="M28.9834 59.9922V70H27.7188V61.5713L25.1689 62.501V61.3594L28.7852 59.9922H28.9834ZM34.3018 65.2627L33.29 65.0029L33.7891 60.0469H38.8955V61.2158H34.8623L34.5615 63.9229C34.7438 63.818 34.974 63.7201 35.252 63.6289C35.5345 63.5378 35.8581 63.4922 36.2227 63.4922C36.6829 63.4922 37.0954 63.5719 37.46 63.7314C37.8245 63.8864 38.1344 64.1097 38.3896 64.4014C38.6494 64.693 38.8477 65.0439 38.9844 65.4541C39.1211 65.8643 39.1895 66.3223 39.1895 66.8281C39.1895 67.3066 39.1234 67.7464 38.9912 68.1475C38.8636 68.5485 38.6699 68.8994 38.4102 69.2002C38.1504 69.4964 37.8223 69.7266 37.4258 69.8906C37.0339 70.0547 36.5713 70.1367 36.0381 70.1367C35.637 70.1367 35.2565 70.082 34.8965 69.9727C34.541 69.8587 34.222 69.6878 33.9395 69.46C33.6615 69.2275 33.4336 68.9404 33.2559 68.5986C33.0827 68.2523 32.9733 67.8467 32.9277 67.3818H34.1309C34.1855 67.7555 34.2949 68.07 34.459 68.3252C34.623 68.5804 34.8372 68.7741 35.1016 68.9062C35.3704 69.0339 35.6826 69.0977 36.0381 69.0977C36.3389 69.0977 36.6055 69.0452 36.8379 68.9404C37.0703 68.8356 37.2663 68.6852 37.4258 68.4893C37.5853 68.2933 37.7061 68.0563 37.7881 67.7783C37.8747 67.5003 37.918 67.1882 37.918 66.8418C37.918 66.5273 37.8747 66.2357 37.7881 65.9668C37.7015 65.6979 37.5716 65.4632 37.3984 65.2627C37.2298 65.0622 37.0225 64.9072 36.7764 64.7979C36.5303 64.6839 36.2477 64.627 35.9287 64.627C35.5049 64.627 35.1836 64.6839 34.9648 64.7979C34.7507 64.9118 34.5296 65.0667 34.3018 65.2627ZM46.8252 64.2305V65.748C46.8252 66.5638 46.7523 67.252 46.6064 67.8125C46.4606 68.373 46.251 68.8242 45.9775 69.166C45.7041 69.5078 45.3737 69.7562 44.9863 69.9111C44.6035 70.0615 44.1706 70.1367 43.6875 70.1367C43.3047 70.1367 42.9515 70.0889 42.6279 69.9932C42.3044 69.8975 42.0127 69.7448 41.7529 69.5352C41.4977 69.321 41.279 69.043 41.0967 68.7012C40.9144 68.3594 40.7754 67.9447 40.6797 67.457C40.584 66.9694 40.5361 66.3997 40.5361 65.748V64.2305C40.5361 63.4147 40.609 62.7311 40.7549 62.1797C40.9053 61.6283 41.1172 61.1862 41.3906 60.8535C41.6641 60.5163 41.9922 60.2747 42.375 60.1289C42.7624 59.9831 43.1953 59.9102 43.6738 59.9102C44.0612 59.9102 44.4167 59.958 44.7402 60.0537C45.0684 60.1449 45.36 60.293 45.6152 60.498C45.8704 60.6986 46.0869 60.9674 46.2646 61.3047C46.4469 61.6374 46.5859 62.0452 46.6816 62.5283C46.7773 63.0114 46.8252 63.5788 46.8252 64.2305ZM45.5537 65.9531V64.0186C45.5537 63.5719 45.5264 63.18 45.4717 62.8428C45.4215 62.501 45.3464 62.2093 45.2461 61.9678C45.1458 61.7262 45.0182 61.5303 44.8633 61.3799C44.7129 61.2295 44.5374 61.1201 44.3369 61.0518C44.141 60.9788 43.9199 60.9424 43.6738 60.9424C43.373 60.9424 43.1064 60.9993 42.874 61.1133C42.6416 61.2227 42.4456 61.3981 42.2861 61.6396C42.1312 61.8812 42.0127 62.1979 41.9307 62.5898C41.8486 62.9818 41.8076 63.458 41.8076 64.0186V65.9531C41.8076 66.3997 41.8327 66.7939 41.8828 67.1357C41.9375 67.4775 42.0173 67.7738 42.1221 68.0244C42.2269 68.2705 42.3545 68.4733 42.5049 68.6328C42.6553 68.7923 42.8285 68.9108 43.0244 68.9883C43.2249 69.0612 43.446 69.0977 43.6875 69.0977C43.9974 69.0977 44.2686 69.0384 44.501 68.9199C44.7334 68.8014 44.9271 68.6169 45.082 68.3662C45.2415 68.111 45.36 67.7852 45.4375 67.3887C45.515 66.9876 45.5537 66.5091 45.5537 65.9531ZM54.7002 64.2305V65.748C54.7002 66.5638 54.6273 67.252 54.4814 67.8125C54.3356 68.373 54.126 68.8242 53.8525 69.166C53.5791 69.5078 53.2487 69.7562 52.8613 69.9111C52.4785 70.0615 52.0456 70.1367 51.5625 70.1367C51.1797 70.1367 50.8265 70.0889 50.5029 69.9932C50.1794 69.8975 49.8877 69.7448 49.6279 69.5352C49.3727 69.321 49.154 69.043 48.9717 68.7012C48.7894 68.3594 48.6504 67.9447 48.5547 67.457C48.459 66.9694 48.4111 66.3997 48.4111 65.748V64.2305C48.4111 63.4147 48.484 62.7311 48.6299 62.1797C48.7803 61.6283 48.9922 61.1862 49.2656 60.8535C49.5391 60.5163 49.8672 60.2747 50.25 60.1289C50.6374 59.9831 51.0703 59.9102 51.5488 59.9102C51.9362 59.9102 52.2917 59.958 52.6152 60.0537C52.9434 60.1449 53.235 60.293 53.4902 60.498C53.7454 60.6986 53.9619 60.9674 54.1396 61.3047C54.3219 61.6374 54.4609 62.0452 54.5566 62.5283C54.6523 63.0114 54.7002 63.5788 54.7002 64.2305ZM53.4287 65.9531V64.0186C53.4287 63.5719 53.4014 63.18 53.3467 62.8428C53.2965 62.501 53.2214 62.2093 53.1211 61.9678C53.0208 61.7262 52.8932 61.5303 52.7383 61.3799C52.5879 61.2295 52.4124 61.1201 52.2119 61.0518C52.016 60.9788 51.7949 60.9424 51.5488 60.9424C51.248 60.9424 50.9814 60.9993 50.749 61.1133C50.5166 61.2227 50.3206 61.3981 50.1611 61.6396C50.0062 61.8812 49.8877 62.1979 49.8057 62.5898C49.7236 62.9818 49.6826 63.458 49.6826 64.0186V65.9531C49.6826 66.3997 49.7077 66.7939 49.7578 67.1357C49.8125 67.4775 49.8923 67.7738 49.9971 68.0244C50.1019 68.2705 50.2295 68.4733 50.3799 68.6328C50.5303 68.7923 50.7035 68.9108 50.8994 68.9883C51.0999 69.0612 51.321 69.0977 51.5625 69.0977C51.8724 69.0977 52.1436 69.0384 52.376 68.9199C52.6084 68.8014 52.8021 68.6169 52.957 68.3662C53.1165 68.111 53.235 67.7852 53.3125 67.3887C53.39 66.9876 53.4287 66.5091 53.4287 65.9531ZM64.1885 68.3184L66.7041 62.6035H67.9209L64.626 70H63.751L60.4697 62.6035H61.6865L64.1885 68.3184ZM61.3174 62.6035V70H60.0527V62.6035H61.3174ZM67.0186 70V62.6035H68.29V70H67.0186ZM75.1055 62.6035V63.6494H71.6875V70H70.4229V62.6035H75.1055ZM80.6084 60.0469L76.459 70.8545H75.3721L79.5283 60.0469H80.6084ZM84.9492 69.0977C85.25 69.0977 85.528 69.0361 85.7832 68.9131C86.0384 68.79 86.248 68.6214 86.4121 68.4072C86.5762 68.1885 86.6696 67.9401 86.6924 67.6621H87.8955C87.8727 68.0996 87.7246 68.5075 87.4512 68.8857C87.1823 69.2594 86.8291 69.5625 86.3916 69.7949C85.9541 70.0228 85.4733 70.1367 84.9492 70.1367C84.3932 70.1367 83.9079 70.0387 83.4932 69.8428C83.083 69.6468 82.7412 69.3779 82.4678 69.0361C82.1989 68.6943 81.9961 68.3024 81.8594 67.8604C81.7272 67.4137 81.6611 66.9421 81.6611 66.4453V66.1582C81.6611 65.6615 81.7272 65.1921 81.8594 64.75C81.9961 64.3034 82.1989 63.9092 82.4678 63.5674C82.7412 63.2256 83.083 62.9567 83.4932 62.7607C83.9079 62.5648 84.3932 62.4668 84.9492 62.4668C85.528 62.4668 86.0339 62.5853 86.4668 62.8223C86.8997 63.0547 87.2393 63.3737 87.4854 63.7793C87.736 64.1803 87.8727 64.6361 87.8955 65.1465H86.6924C86.6696 64.8411 86.583 64.5654 86.4326 64.3193C86.2868 64.0732 86.0863 63.8773 85.8311 63.7314C85.5804 63.5811 85.2865 63.5059 84.9492 63.5059C84.5618 63.5059 84.236 63.5833 83.9717 63.7383C83.7119 63.8887 83.5046 64.0938 83.3496 64.3535C83.1992 64.6087 83.0898 64.8936 83.0215 65.208C82.9577 65.5179 82.9258 65.8346 82.9258 66.1582V66.4453C82.9258 66.7689 82.9577 67.0879 83.0215 67.4023C83.0853 67.7168 83.1924 68.0016 83.3428 68.2568C83.4977 68.512 83.7051 68.7171 83.9648 68.8721C84.2292 69.0225 84.5573 69.0977 84.9492 69.0977ZM91.3955 69.2344L93.4531 62.6035H94.8066L91.8398 71.1416C91.7715 71.3239 91.6803 71.5199 91.5664 71.7295C91.457 71.9437 91.3158 72.1465 91.1426 72.3379C90.9694 72.5293 90.7598 72.6842 90.5137 72.8027C90.2721 72.9258 89.9827 72.9873 89.6455 72.9873C89.5452 72.9873 89.4176 72.9736 89.2627 72.9463C89.1077 72.9189 88.9984 72.8962 88.9346 72.8779L88.9277 71.8525C88.9642 71.8571 89.0212 71.8617 89.0986 71.8662C89.1807 71.8753 89.2376 71.8799 89.2695 71.8799C89.5566 71.8799 89.8005 71.8411 90.001 71.7637C90.2015 71.6908 90.3701 71.5654 90.5068 71.3877C90.6481 71.2145 90.7689 70.9753 90.8691 70.6699L91.3955 69.2344ZM89.8848 62.6035L91.8057 68.3457L92.1338 69.6787L91.2246 70.1436L88.5039 62.6035H89.8848ZM98.9629 62.6035V70H97.6914V62.6035H98.9629ZM101.444 62.6035V63.6289H95.2578V62.6035H101.444ZM104.062 62.6035V70H102.798V62.6035H104.062ZM108.916 62.6035L105.409 66.8418H103.639L103.447 65.7344H104.896L107.378 62.6035H108.916ZM107.556 70L104.835 66.6504L105.648 65.7344L109.162 70H107.556ZM111.63 67.9971L115.041 62.6035H116.312V70H115.041V64.6064L111.63 70H110.372V62.6035H111.63V67.9971ZM29.8926 82.6035V83.6494H26.1533V82.6035H29.8926ZM26.3379 82.6035V90H25.0732V82.6035H26.3379ZM31.0137 82.6035V90H29.7422V82.6035H31.0137ZM34.3086 84.0254V92.8438H33.0371V82.6035H34.1992L34.3086 84.0254ZM39.292 86.2402V86.3838C39.292 86.9215 39.2282 87.4206 39.1006 87.8809C38.973 88.3366 38.7861 88.7331 38.54 89.0703C38.2985 89.4076 38 89.6696 37.6445 89.8564C37.2891 90.0433 36.8812 90.1367 36.4209 90.1367C35.9515 90.1367 35.5368 90.0592 35.1768 89.9043C34.8167 89.7493 34.5114 89.5238 34.2607 89.2275C34.0101 88.9313 33.8096 88.5758 33.6592 88.1611C33.5133 87.7464 33.4131 87.2793 33.3584 86.7598V85.9941C33.4131 85.4473 33.5156 84.9574 33.666 84.5244C33.8164 84.0915 34.0146 83.7223 34.2607 83.417C34.5114 83.1071 34.8145 82.8724 35.1699 82.7129C35.5254 82.5488 35.9355 82.4668 36.4004 82.4668C36.8652 82.4668 37.2777 82.5579 37.6377 82.7402C37.9977 82.918 38.3008 83.1732 38.5469 83.5059C38.793 83.8385 38.9775 84.2373 39.1006 84.7021C39.2282 85.1624 39.292 85.6751 39.292 86.2402ZM38.0205 86.3838V86.2402C38.0205 85.8711 37.9818 85.5247 37.9043 85.2012C37.8268 84.873 37.7061 84.5859 37.542 84.3398C37.3825 84.0892 37.1774 83.8932 36.9268 83.752C36.6761 83.6061 36.3776 83.5332 36.0312 83.5332C35.7122 83.5332 35.4342 83.5879 35.1973 83.6973C34.9648 83.8066 34.7666 83.9548 34.6025 84.1416C34.4385 84.3239 34.304 84.5335 34.1992 84.7705C34.099 85.0029 34.0238 85.2445 33.9736 85.4951V87.2656C34.0648 87.5846 34.1924 87.8854 34.3564 88.168C34.5205 88.446 34.7393 88.6715 35.0127 88.8447C35.2861 89.0133 35.6302 89.0977 36.0449 89.0977C36.3867 89.0977 36.6807 89.027 36.9268 88.8857C37.1774 88.7399 37.3825 88.5417 37.542 88.291C37.7061 88.0404 37.8268 87.7533 37.9043 87.4297C37.9818 87.1016 38.0205 86.7529 38.0205 86.3838ZM42.2725 87.9971L45.6836 82.6035H46.9551V90H45.6836V84.6064L42.2725 90H41.0146V82.6035H42.2725V87.9971ZM52.0547 90.1367C51.5397 90.1367 51.0726 90.0501 50.6533 89.877C50.2386 89.6992 49.8809 89.4508 49.5801 89.1318C49.2839 88.8128 49.056 88.4346 48.8965 87.9971C48.737 87.5596 48.6572 87.0811 48.6572 86.5615V86.2744C48.6572 85.6729 48.7461 85.1374 48.9238 84.668C49.1016 84.194 49.3431 83.793 49.6484 83.4648C49.9538 83.1367 50.3001 82.8883 50.6875 82.7197C51.0749 82.5511 51.4759 82.4668 51.8906 82.4668C52.4193 82.4668 52.875 82.5579 53.2578 82.7402C53.6452 82.9225 53.9619 83.1777 54.208 83.5059C54.4541 83.8294 54.6364 84.2122 54.7549 84.6543C54.8734 85.0918 54.9326 85.5703 54.9326 86.0898V86.6572H49.4092V85.625H53.668V85.5293C53.6497 85.2012 53.5814 84.8822 53.4629 84.5723C53.349 84.2624 53.1667 84.0072 52.916 83.8066C52.6654 83.6061 52.3236 83.5059 51.8906 83.5059C51.6035 83.5059 51.3392 83.5674 51.0977 83.6904C50.8561 83.8089 50.6488 83.9867 50.4756 84.2236C50.3024 84.4606 50.168 84.75 50.0723 85.0918C49.9766 85.4336 49.9287 85.8278 49.9287 86.2744V86.5615C49.9287 86.9124 49.9766 87.2428 50.0723 87.5527C50.1725 87.8581 50.3161 88.127 50.5029 88.3594C50.6943 88.5918 50.9245 88.7741 51.1934 88.9062C51.4668 89.0384 51.7767 89.1045 52.123 89.1045C52.5697 89.1045 52.9479 89.0133 53.2578 88.8311C53.5677 88.6488 53.8389 88.4049 54.0713 88.0996L54.8369 88.708C54.6774 88.9495 54.4746 89.1797 54.2285 89.3984C53.9824 89.6172 53.6794 89.7949 53.3193 89.9316C52.9639 90.0684 52.5423 90.1367 52.0547 90.1367ZM49.6826 80.6279C49.6826 80.4229 49.7464 80.2497 49.874 80.1084C50.0016 79.9671 50.1862 79.8965 50.4277 79.8965C50.6738 79.8965 50.8607 79.9671 50.9883 80.1084C51.1159 80.2497 51.1797 80.4229 51.1797 80.6279C51.1797 80.8239 51.1159 80.9925 50.9883 81.1338C50.8607 81.2705 50.6738 81.3389 50.4277 81.3389C50.1862 81.3389 50.0016 81.2705 49.874 81.1338C49.7464 80.9925 49.6826 80.8239 49.6826 80.6279ZM52.6289 80.6416C52.6289 80.4365 52.6904 80.2633 52.8135 80.1221C52.9411 79.9808 53.1279 79.9102 53.374 79.9102C53.6156 79.9102 53.8001 79.9808 53.9277 80.1221C54.0599 80.2633 54.126 80.4365 54.126 80.6416C54.126 80.8376 54.0599 81.0062 53.9277 81.1475C53.8001 81.2842 53.6156 81.3525 53.374 81.3525C53.1279 81.3525 52.9411 81.2842 52.8135 81.1475C52.6904 81.0062 52.6289 80.8376 52.6289 80.6416ZM60.6611 88.3184L63.1768 82.6035H64.3936L61.0986 90H60.2236L56.9424 82.6035H58.1592L60.6611 88.3184ZM57.79 82.6035V90H56.5254V82.6035H57.79ZM63.4912 90V82.6035H64.7627V90H63.4912ZM73.7451 86.7461H71.3184L71.3047 85.7344H73.2871C73.679 85.7344 74.0049 85.6956 74.2646 85.6182C74.529 85.5407 74.7272 85.4245 74.8594 85.2695C74.9915 85.1146 75.0576 84.9232 75.0576 84.6953C75.0576 84.5176 75.0189 84.3626 74.9414 84.2305C74.8685 84.0938 74.7568 83.9821 74.6064 83.8955C74.4561 83.8044 74.2692 83.7383 74.0459 83.6973C73.8271 83.6517 73.5697 83.6289 73.2734 83.6289H71.6533V90H70.3887V82.6035H73.2734C73.7428 82.6035 74.1644 82.6445 74.5381 82.7266C74.9163 82.8086 75.2376 82.9339 75.502 83.1025C75.7708 83.2666 75.9759 83.4762 76.1172 83.7314C76.2585 83.9867 76.3291 84.2874 76.3291 84.6338C76.3291 84.8571 76.2835 85.069 76.1924 85.2695C76.1012 85.4701 75.9668 85.6478 75.7891 85.8027C75.6113 85.9577 75.3926 86.0853 75.1328 86.1855C74.873 86.2812 74.5745 86.3428 74.2373 86.3701L73.7451 86.7461ZM73.7451 90H70.8604L71.4893 88.9746H73.7451C74.096 88.9746 74.3877 88.9313 74.6201 88.8447C74.8525 88.7536 75.0257 88.626 75.1396 88.4619C75.2581 88.2933 75.3174 88.0928 75.3174 87.8604C75.3174 87.6279 75.2581 87.4297 75.1396 87.2656C75.0257 87.097 74.8525 86.9694 74.6201 86.8828C74.3877 86.7917 74.096 86.7461 73.7451 86.7461H71.8242L71.8379 85.7344H74.2373L74.6953 86.1172C75.1009 86.1491 75.445 86.2493 75.7275 86.418C76.0101 86.5866 76.2243 86.8008 76.3701 87.0605C76.516 87.3158 76.5889 87.5938 76.5889 87.8945C76.5889 88.2409 76.5228 88.5462 76.3906 88.8105C76.263 89.0749 76.0762 89.2959 75.8301 89.4736C75.584 89.6468 75.2855 89.779 74.9346 89.8701C74.5837 89.9567 74.1872 90 73.7451 90ZM83.0898 82.6035H84.3545L84.2451 85.3721C84.2178 86.0739 84.138 86.68 84.0059 87.1904C83.8737 87.7008 83.7051 88.1361 83.5 88.4961C83.2949 88.8516 83.0648 89.1501 82.8096 89.3916C82.5589 89.6331 82.2992 89.8359 82.0303 90H81.4014L81.4355 88.9678L81.6953 88.9609C81.8457 88.7832 81.9915 88.6009 82.1328 88.4141C82.2741 88.2227 82.404 87.9971 82.5225 87.7373C82.641 87.473 82.7389 87.1517 82.8164 86.7734C82.8984 86.3906 82.9508 85.9235 82.9736 85.3721L83.0898 82.6035ZM83.4043 82.6035H87.8545V90H86.5898V83.7725H83.4043V82.6035ZM81.1143 88.9609H88.8047V92.1807H87.54V90H82.3789V92.1807H81.1074L81.1143 88.9609ZM95.2236 85.8096V86.835H91.3135V85.8096H95.2236ZM91.5801 82.6035V90H90.3154V82.6035H91.5801ZM96.249 82.6035V90H94.9775V82.6035H96.249ZM99.6533 87.9971L103.064 82.6035H104.336V90H103.064V84.6064L99.6533 90H98.3955V82.6035H99.6533V87.9971ZM114.091 88.3184L116.606 82.6035H117.823L114.528 90H113.653L110.372 82.6035H111.589L114.091 88.3184ZM111.22 82.6035V90H109.955V82.6035H111.22ZM116.921 90V82.6035H118.192V90H116.921ZM123.299 90.1367C122.784 90.1367 122.317 90.0501 121.897 89.877C121.483 89.6992 121.125 89.4508 120.824 89.1318C120.528 88.8128 120.3 88.4346 120.141 87.9971C119.981 87.5596 119.901 87.0811 119.901 86.5615V86.2744C119.901 85.6729 119.99 85.1374 120.168 84.668C120.346 84.194 120.587 83.793 120.893 83.4648C121.198 83.1367 121.544 82.8883 121.932 82.7197C122.319 82.5511 122.72 82.4668 123.135 82.4668C123.663 82.4668 124.119 82.5579 124.502 82.7402C124.889 82.9225 125.206 83.1777 125.452 83.5059C125.698 83.8294 125.881 84.2122 125.999 84.6543C126.118 85.0918 126.177 85.5703 126.177 86.0898V86.6572H120.653V85.625H124.912V85.5293C124.894 85.2012 124.826 84.8822 124.707 84.5723C124.593 84.2624 124.411 84.0072 124.16 83.8066C123.91 83.6061 123.568 83.5059 123.135 83.5059C122.848 83.5059 122.583 83.5674 122.342 83.6904C122.1 83.8089 121.893 83.9867 121.72 84.2236C121.547 84.4606 121.412 84.75 121.316 85.0918C121.221 85.4336 121.173 85.8278 121.173 86.2744V86.5615C121.173 86.9124 121.221 87.2428 121.316 87.5527C121.417 87.8581 121.56 88.127 121.747 88.3594C121.938 88.5918 122.169 88.7741 122.438 88.9062C122.711 89.0384 123.021 89.1045 123.367 89.1045C123.814 89.1045 124.192 89.0133 124.502 88.8311C124.812 88.6488 125.083 88.4049 125.315 88.0996L126.081 88.708C125.922 88.9495 125.719 89.1797 125.473 89.3984C125.227 89.6172 124.924 89.7949 124.563 89.9316C124.208 90.0684 123.786 90.1367 123.299 90.1367ZM129.896 86.7803L127.093 82.6035H128.617L130.531 85.666H132.008L131.823 86.7803H129.896ZM130.586 86.6504L128.439 90H126.84L129.786 85.7344L130.586 86.6504ZM132.657 82.6035V90H131.393V82.6035H132.657ZM136.971 82.6035L134.168 86.7803H132.24L132.042 85.666H133.525L135.439 82.6035H136.971ZM135.617 90L133.464 86.6504L134.277 85.7344L137.217 90H135.617ZM139.719 82.6035H140.983L140.874 85.3721C140.847 86.0739 140.767 86.68 140.635 87.1904C140.503 87.7008 140.334 88.1361 140.129 88.4961C139.924 88.8516 139.694 89.1501 139.438 89.3916C139.188 89.6331 138.928 89.8359 138.659 90H138.03L138.064 88.9678L138.324 88.9609C138.475 88.7832 138.62 88.6009 138.762 88.4141C138.903 88.2227 139.033 87.9971 139.151 87.7373C139.27 87.473 139.368 87.1517 139.445 86.7734C139.527 86.3906 139.58 85.9235 139.603 85.3721L139.719 82.6035ZM140.033 82.6035H144.483V90H143.219V83.7725H140.033V82.6035ZM137.743 88.9609H145.434V92.1807H144.169V90H139.008V92.1807H137.736L137.743 88.9609ZM148.913 89.2344L150.971 82.6035H152.324L149.357 91.1416C149.289 91.3239 149.198 91.5199 149.084 91.7295C148.975 91.9437 148.833 92.1465 148.66 92.3379C148.487 92.5293 148.277 92.6842 148.031 92.8027C147.79 92.9258 147.5 92.9873 147.163 92.9873C147.063 92.9873 146.935 92.9736 146.78 92.9463C146.625 92.9189 146.516 92.8962 146.452 92.8779L146.445 91.8525C146.482 91.8571 146.539 91.8617 146.616 91.8662C146.698 91.8753 146.755 91.8799 146.787 91.8799C147.074 91.8799 147.318 91.8411 147.519 91.7637C147.719 91.6908 147.888 91.5654 148.024 91.3877C148.166 91.2145 148.286 90.9753 148.387 90.6699L148.913 89.2344ZM147.402 82.6035L149.323 88.3457L149.651 89.6787L148.742 90.1436L146.021 82.6035H147.402ZM158.306 87.9971L161.717 82.6035H162.988V90H161.717V84.6064L158.306 90H157.048V82.6035H158.306V87.9971ZM170.036 85.8096V86.835H166.126V85.8096H170.036ZM166.393 82.6035V90H165.128V82.6035H166.393ZM171.062 82.6035V90H169.79V82.6035H171.062ZM175.587 82.6035V83.6426H172.34V82.6035H175.587ZM175.464 85.1465H177.686C178.283 85.1465 178.786 85.2513 179.196 85.4609C179.606 85.666 179.916 85.9508 180.126 86.3154C180.34 86.6755 180.447 87.0856 180.447 87.5459C180.447 87.8877 180.388 88.209 180.27 88.5098C180.151 88.806 179.973 89.0658 179.736 89.2891C179.504 89.5124 179.215 89.6878 178.868 89.8154C178.526 89.9385 178.132 90 177.686 90H174.534V82.6035H175.806V88.9609H177.686C178.05 88.9609 178.34 88.8949 178.554 88.7627C178.772 88.6305 178.93 88.4596 179.025 88.25C179.121 88.0404 179.169 87.8216 179.169 87.5938C179.169 87.3704 179.121 87.1517 179.025 86.9375C178.93 86.7233 178.772 86.5456 178.554 86.4043C178.34 86.2585 178.05 86.1855 177.686 86.1855H175.464V85.1465ZM184.863 90.1367C184.348 90.1367 183.881 90.0501 183.462 89.877C183.047 89.6992 182.689 89.4508 182.389 89.1318C182.092 88.8128 181.865 88.4346 181.705 87.9971C181.546 87.5596 181.466 87.0811 181.466 86.5615V86.2744C181.466 85.6729 181.555 85.1374 181.732 84.668C181.91 84.194 182.152 83.793 182.457 83.4648C182.762 83.1367 183.109 82.8883 183.496 82.7197C183.883 82.5511 184.285 82.4668 184.699 82.4668C185.228 82.4668 185.684 82.5579 186.066 82.7402C186.454 82.9225 186.771 83.1777 187.017 83.5059C187.263 83.8294 187.445 84.2122 187.563 84.6543C187.682 85.0918 187.741 85.5703 187.741 86.0898V86.6572H182.218V85.625H186.477V85.5293C186.458 85.2012 186.39 84.8822 186.271 84.5723C186.158 84.2624 185.975 84.0072 185.725 83.8066C185.474 83.6061 185.132 83.5059 184.699 83.5059C184.412 83.5059 184.148 83.5674 183.906 83.6904C183.665 83.8089 183.457 83.9867 183.284 84.2236C183.111 84.4606 182.977 84.75 182.881 85.0918C182.785 85.4336 182.737 85.8278 182.737 86.2744V86.5615C182.737 86.9124 182.785 87.2428 182.881 87.5527C182.981 87.8581 183.125 88.127 183.312 88.3594C183.503 88.5918 183.733 88.7741 184.002 88.9062C184.275 89.0384 184.585 89.1045 184.932 89.1045C185.378 89.1045 185.757 89.0133 186.066 88.8311C186.376 88.6488 186.647 88.4049 186.88 88.0996L187.646 88.708C187.486 88.9495 187.283 89.1797 187.037 89.3984C186.791 89.6172 186.488 89.7949 186.128 89.9316C185.772 90.0684 185.351 90.1367 184.863 90.1367ZM190.592 82.6035V90H189.327V82.6035H190.592ZM195.445 82.6035L191.938 86.8418H190.168L189.977 85.7344H191.426L193.907 82.6035H195.445ZM194.085 90L191.364 86.6504L192.178 85.7344L195.691 90H194.085ZM196.901 90V82.6035H198.166V88.9609H201.57V82.6035H202.842V90H196.901ZM203.717 88.9609L203.594 92.1943H202.466V90H201.502V88.9609H203.717ZM206.458 87.9971L209.869 82.6035H211.141V90H209.869V84.6064L206.458 90H205.2V82.6035H206.458V87.9971ZM214.668 86.4727H216.035L213.896 90H212.528L214.668 86.4727ZM215.728 82.6035H218.817V90H217.553V83.6289H215.728C215.368 83.6289 215.074 83.6904 214.846 83.8135C214.618 83.932 214.451 84.0869 214.347 84.2783C214.242 84.4697 214.189 84.668 214.189 84.873C214.189 85.0736 214.237 85.2673 214.333 85.4541C214.429 85.6364 214.579 85.7868 214.784 85.9053C214.989 86.0238 215.254 86.083 215.577 86.083H217.895V87.1221H215.577C215.153 87.1221 214.777 87.0651 214.449 86.9512C214.121 86.8372 213.843 86.68 213.615 86.4795C213.387 86.2744 213.214 86.0352 213.096 85.7617C212.977 85.4837 212.918 85.1829 212.918 84.8594C212.918 84.5358 212.979 84.2373 213.103 83.9639C213.23 83.6904 213.412 83.4512 213.649 83.2461C213.891 83.041 214.185 82.8838 214.531 82.7744C214.882 82.6605 215.281 82.6035 215.728 82.6035ZM225.106 88.3184L227.622 82.6035H228.839L225.544 90H224.669L221.388 82.6035H222.604L225.106 88.3184ZM222.235 82.6035V90H220.971V82.6035H222.235ZM227.937 90V82.6035H229.208V90H227.937ZM232.612 87.9971L236.023 82.6035H237.295V90H236.023V84.6064L232.612 90H231.354V82.6035H232.612V87.9971Z" fill="#4B5563"/>
</svg>
