<svg width="32" height="32" viewBox="0 0 32 32" fill="none" xmlns="http://www.w3.org/2000/svg">
<path fill-rule="evenodd" clip-rule="evenodd" d="M16.0002 28.7999C19.395 28.7999 22.6507 27.4514 25.0512 25.0509C27.4516 22.6504 28.8002 19.3947 28.8002 15.9999C28.8002 12.6052 27.4516 9.34945 25.0512 6.94898C22.6507 4.54852 19.395 3.19995 16.0002 3.19995C12.6054 3.19995 9.34969 4.54852 6.94923 6.94898C4.54876 9.34945 3.2002 12.6052 3.2002 15.9999C3.2002 19.3947 4.54876 22.6504 6.94923 25.0509C9.34969 27.4514 12.6054 28.7999 16.0002 28.7999ZM17.2002 10.8C17.2002 10.4817 17.0738 10.1765 16.8487 9.95142C16.6237 9.72638 16.3185 9.59995 16.0002 9.59995C15.6819 9.59995 15.3767 9.72638 15.1517 9.95142C14.9266 10.1765 14.8002 10.4817 14.8002 10.8V14.7999H10.8002C10.4819 14.7999 10.1767 14.9264 9.95167 15.1514C9.72662 15.3765 9.60019 15.6817 9.60019 15.9999C9.60019 16.3182 9.72662 16.6234 9.95167 16.8485C10.1767 17.0735 10.4819 17.1999 10.8002 17.1999H14.8002V21.1999C14.8002 21.5182 14.9266 21.8234 15.1517 22.0485C15.3767 22.2735 15.6819 22.3999 16.0002 22.3999C16.3185 22.3999 16.6237 22.2735 16.8487 22.0485C17.0738 21.8234 17.2002 21.5182 17.2002 21.1999V17.1999H21.2002C21.5185 17.1999 21.8237 17.0735 22.0487 16.8485C22.2738 16.6234 22.4002 16.3182 22.4002 15.9999C22.4002 15.6817 22.2738 15.3765 22.0487 15.1514C21.8237 14.9264 21.5185 14.7999 21.2002 14.7999H17.2002V10.8Z" fill="#703E97"/>
</svg>
