<svg width="120" height="120" viewBox="0 0 120 120" fill="none" xmlns="http://www.w3.org/2000/svg">
<rect width="120" height="120" rx="60" fill="#703E97"/>
<circle cx="60" cy="60" r="52" fill="white" fill-opacity="0.2"/>
<path d="M56.9206 60V40.04H52.8806V34.84C53.7606 34.84 54.5473 34.7533 55.2406 34.58C55.934 34.4067 56.5206 34.1133 57.0006 33.7C57.4806 33.2867 57.8406 32.72 58.0806 32H63.2406V60H56.9206Z" fill="white"/>
<path d="M41.315 85.162L38.957 80.545C38.879 80.383 38.801 80.218 38.723 80.05C38.645 79.882 38.567 79.708 38.489 79.528C38.507 79.666 38.519 79.822 38.525 79.996C38.537 80.17 38.543 80.338 38.543 80.5V85H36.563V75.802H38.408L40.955 80.806C41.033 80.968 41.102 81.112 41.162 81.238C41.222 81.358 41.273 81.466 41.315 81.562C41.357 81.466 41.405 81.358 41.459 81.238C41.519 81.112 41.591 80.968 41.675 80.806L44.213 75.802H46.067V85H44.078V80.662C44.078 80.494 44.084 80.311 44.096 80.113C44.108 79.915 44.12 79.747 44.132 79.609C44.054 79.783 43.973 79.957 43.889 80.131C43.811 80.299 43.73 80.467 43.646 80.635L41.315 85.162ZM51.6546 85.216C50.7846 85.216 50.0346 85.015 49.4046 84.613C48.7746 84.211 48.2916 83.65 47.9556 82.93C47.6196 82.204 47.4516 81.358 47.4516 80.392C47.4516 79.39 47.6256 78.532 47.9736 77.818C48.3216 77.098 48.8106 76.546 49.4406 76.162C50.0706 75.778 50.8086 75.586 51.6546 75.586C52.3806 75.586 53.0406 75.742 53.6346 76.054C54.2346 76.366 54.7116 76.846 55.0656 77.494C55.4196 78.136 55.5966 78.955 55.5966 79.951C55.5966 80.107 55.5936 80.293 55.5876 80.509C55.5816 80.719 55.5636 80.932 55.5336 81.148H49.4586C49.4946 81.616 49.6056 82.024 49.7916 82.372C49.9836 82.72 50.2386 82.993 50.5566 83.191C50.8746 83.383 51.2496 83.479 51.6816 83.479C52.1016 83.479 52.4736 83.41 52.7976 83.272C53.1216 83.128 53.4306 82.9 53.7246 82.588L54.8946 83.821C54.5166 84.235 54.0546 84.571 53.5086 84.829C52.9686 85.087 52.3506 85.216 51.6546 85.216ZM49.4676 79.519H53.6166C53.5986 79.081 53.5086 78.697 53.3466 78.367C53.1906 78.037 52.9686 77.782 52.6806 77.602C52.3926 77.416 52.0416 77.323 51.6276 77.323C51.0516 77.323 50.5596 77.503 50.1516 77.863C49.7496 78.223 49.5216 78.775 49.4676 79.519ZM60.4942 85.216C59.6602 85.216 58.9432 85.024 58.3432 84.64C57.7432 84.25 57.2812 83.695 56.9572 82.975C56.6332 82.255 56.4712 81.4 56.4712 80.41C56.4712 79.42 56.6362 78.565 56.9662 77.845C57.2962 77.119 57.7642 76.561 58.3702 76.171C58.9762 75.781 59.6992 75.586 60.5392 75.586C61.4332 75.586 62.1832 75.796 62.7892 76.216C63.3952 76.63 63.8362 77.239 64.1122 78.043L62.1952 78.709C62.0452 78.319 61.8292 78.019 61.5472 77.809C61.2712 77.599 60.9412 77.494 60.5572 77.494C59.9212 77.494 59.4232 77.752 59.0632 78.268C58.7032 78.784 58.5232 79.498 58.5232 80.41C58.5232 81.31 58.7002 82.015 59.0542 82.525C59.4082 83.035 59.8942 83.29 60.5122 83.29C60.9322 83.29 61.2922 83.176 61.5922 82.948C61.8922 82.714 62.1112 82.381 62.2492 81.949L64.1572 82.534C63.8992 83.41 63.4552 84.076 62.8252 84.532C62.2012 84.988 61.4242 85.216 60.4942 85.216ZM70.7765 85V81.823H68.3735C67.7375 81.823 67.1765 81.697 66.6905 81.445C66.2105 81.187 65.8355 80.833 65.5655 80.383C65.2955 79.927 65.1605 79.399 65.1605 78.799C65.1605 78.205 65.2955 77.683 65.5655 77.233C65.8355 76.783 66.2105 76.432 66.6905 76.18C67.1765 75.928 67.7375 75.802 68.3735 75.802H72.7925V85H70.7765ZM64.4945 85L67.5455 80.878H69.9125L66.8615 85H64.4945ZM68.6075 80.131H70.7765V77.494H68.6075C68.1815 77.494 67.8395 77.614 67.5815 77.854C67.3235 78.094 67.1945 78.412 67.1945 78.808C67.1945 79.21 67.3235 79.531 67.5815 79.771C67.8395 80.011 68.1815 80.131 68.6075 80.131ZM74.6978 85V75.802H76.7138V83.227H80.7098V75.802H82.7258V85H74.6978ZM82.2128 88.006V85H81.3398V83.227H84.2378V87.088L82.2128 88.006Z" fill="white"/>
</svg>
