<svg width="355" height="120" viewBox="0 0 355 120" fill="none" xmlns="http://www.w3.org/2000/svg">
<rect width="355" height="120" rx="20" fill="#F6F0FE"/>
<path d="M100.572 31.0469H101.851L105.111 39.1611L108.365 31.0469H109.65L105.604 41H104.605L100.572 31.0469ZM100.155 31.0469H101.283L101.468 37.1172V41H100.155V31.0469ZM108.933 31.0469H110.061V41H108.748V37.1172L108.933 31.0469ZM113.554 38.9971L116.965 33.6035H118.236V41H116.965V35.6064L113.554 41H112.296V33.6035H113.554V38.9971ZM125.284 36.8096V37.835H121.374V36.8096H125.284ZM121.641 33.6035V41H120.376V33.6035H121.641ZM126.31 33.6035V41H125.038V33.6035H126.31ZM129.714 38.9971L133.125 33.6035H134.396V41H133.125V35.6064L129.714 41H128.456V33.6035H129.714V38.9971ZM140.679 39.3184L143.194 33.6035H144.411L141.116 41H140.241L136.96 33.6035H138.177L140.679 39.3184ZM137.808 33.6035V41H136.543V33.6035H137.808ZM143.509 41V33.6035H144.78V41H143.509ZM151.179 39.7354V35.9277C151.179 35.6361 151.119 35.3831 151.001 35.1689C150.887 34.9502 150.714 34.7816 150.481 34.6631C150.249 34.5446 149.962 34.4854 149.62 34.4854C149.301 34.4854 149.021 34.54 148.779 34.6494C148.542 34.7588 148.355 34.9023 148.219 35.0801C148.087 35.2578 148.021 35.4492 148.021 35.6543H146.756C146.756 35.39 146.824 35.1279 146.961 34.8682C147.098 34.6084 147.294 34.3737 147.549 34.1641C147.809 33.9499 148.118 33.7812 148.479 33.6582C148.843 33.5306 149.249 33.4668 149.695 33.4668C150.233 33.4668 150.707 33.5579 151.117 33.7402C151.532 33.9225 151.855 34.1982 152.088 34.5674C152.325 34.932 152.443 35.39 152.443 35.9414V39.3867C152.443 39.6328 152.464 39.8949 152.505 40.1729C152.55 40.4508 152.617 40.6901 152.703 40.8906V41H151.384C151.32 40.8542 151.27 40.6605 151.233 40.4189C151.197 40.1729 151.179 39.945 151.179 39.7354ZM151.397 36.5156L151.411 37.4043H150.133C149.773 37.4043 149.451 37.4339 149.169 37.4932C148.886 37.5479 148.649 37.6322 148.458 37.7461C148.267 37.86 148.121 38.0036 148.021 38.1768C147.92 38.3454 147.87 38.5436 147.87 38.7715C147.87 39.0039 147.923 39.2158 148.027 39.4072C148.132 39.5986 148.289 39.7513 148.499 39.8652C148.713 39.9746 148.975 40.0293 149.285 40.0293C149.673 40.0293 150.014 39.9473 150.311 39.7832C150.607 39.6191 150.841 39.4186 151.015 39.1816C151.192 38.9447 151.288 38.7145 151.302 38.4912L151.842 39.0996C151.81 39.291 151.723 39.5029 151.582 39.7354C151.441 39.9678 151.252 40.1911 151.015 40.4053C150.782 40.6149 150.504 40.7904 150.181 40.9316C149.862 41.0684 149.502 41.1367 149.101 41.1367C148.599 41.1367 148.16 41.0387 147.781 40.8428C147.408 40.6468 147.116 40.3848 146.906 40.0566C146.701 39.724 146.599 39.3525 146.599 38.9424C146.599 38.5459 146.676 38.1973 146.831 37.8965C146.986 37.5911 147.209 37.3382 147.501 37.1377C147.793 36.9326 148.144 36.7777 148.554 36.6729C148.964 36.568 149.422 36.5156 149.928 36.5156H151.397ZM159.375 33.6035V34.6494H155.8V33.6035H159.375ZM160.489 33.6035V41H159.225V33.6035H160.489ZM155.492 33.6035H156.764L156.572 37.1719C156.54 37.7233 156.488 38.2109 156.415 38.6348C156.347 39.054 156.251 39.4141 156.128 39.7148C156.009 40.0156 155.859 40.2617 155.677 40.4531C155.499 40.64 155.285 40.779 155.034 40.8701C154.784 40.9567 154.494 41 154.166 41H153.77V39.8857L154.043 39.8652C154.239 39.8516 154.405 39.806 154.542 39.7285C154.683 39.651 154.802 39.5371 154.897 39.3867C154.993 39.2318 155.071 39.0335 155.13 38.792C155.194 38.5505 155.242 38.2633 155.273 37.9307C155.31 37.598 155.337 37.2106 155.355 36.7686L155.492 33.6035ZM163.565 36.1465H165.787C166.384 36.1465 166.888 36.2513 167.298 36.4609C167.708 36.666 168.018 36.9508 168.228 37.3154C168.442 37.6755 168.549 38.0856 168.549 38.5459C168.549 38.8877 168.49 39.209 168.371 39.5098C168.253 39.806 168.075 40.0658 167.838 40.2891C167.605 40.5124 167.316 40.6878 166.97 40.8154C166.628 40.9385 166.234 41 165.787 41H162.643V33.6035H163.907V39.9609H165.787C166.152 39.9609 166.443 39.8949 166.662 39.7627C166.881 39.6305 167.038 39.4596 167.134 39.25C167.229 39.0404 167.277 38.8216 167.277 38.5938C167.277 38.3704 167.229 38.1517 167.134 37.9375C167.038 37.7233 166.881 37.5456 166.662 37.4043C166.443 37.2585 166.152 37.1855 165.787 37.1855H163.565V36.1465ZM175.146 36.8096V37.835H171.235V36.8096H175.146ZM171.502 33.6035V41H170.237V33.6035H171.502ZM176.171 33.6035V41H174.899V33.6035H176.171ZM179.247 36.1465H181.469C182.066 36.1465 182.569 36.2513 182.979 36.4609C183.39 36.666 183.7 36.9508 183.909 37.3154C184.123 37.6755 184.23 38.0856 184.23 38.5459C184.23 38.8877 184.171 39.209 184.053 39.5098C183.934 39.806 183.757 40.0658 183.52 40.2891C183.287 40.5124 182.998 40.6878 182.651 40.8154C182.31 40.9385 181.915 41 181.469 41H178.324V33.6035H179.589V39.9609H181.469C181.833 39.9609 182.125 39.8949 182.344 39.7627C182.562 39.6305 182.72 39.4596 182.815 39.25C182.911 39.0404 182.959 38.8216 182.959 38.5938C182.959 38.3704 182.911 38.1517 182.815 37.9375C182.72 37.7233 182.562 37.5456 182.344 37.4043C182.125 37.2585 181.833 37.1855 181.469 37.1855H179.247V36.1465ZM186.862 33.6035V41H185.598V33.6035H186.862ZM190.444 38.9971L193.855 33.6035H195.127V41H193.855V35.6064L190.444 41H189.187V33.6035H190.444V38.9971ZM193.165 30.9238H194.19C194.19 31.2793 194.108 31.596 193.944 31.874C193.78 32.1475 193.546 32.3617 193.24 32.5166C192.935 32.6715 192.573 32.749 192.153 32.749C191.52 32.749 191.019 32.5804 190.649 32.2432C190.285 31.9014 190.103 31.4616 190.103 30.9238H191.128C191.128 31.1927 191.205 31.4297 191.36 31.6348C191.515 31.8398 191.78 31.9424 192.153 31.9424C192.518 31.9424 192.778 31.8398 192.933 31.6348C193.088 31.4297 193.165 31.1927 193.165 30.9238ZM202.004 33.6035V41H200.739V33.6035H202.004ZM206.857 33.6035L203.351 37.8418H201.58L201.389 36.7344H202.838L205.319 33.6035H206.857ZM205.497 41L202.776 37.6504L203.59 36.7344L207.104 41H205.497ZM210.282 40.2344L212.34 33.6035H213.693L210.727 42.1416C210.658 42.3239 210.567 42.5199 210.453 42.7295C210.344 42.9437 210.202 43.1465 210.029 43.3379C209.856 43.5293 209.646 43.6842 209.4 43.8027C209.159 43.9258 208.869 43.9873 208.532 43.9873C208.432 43.9873 208.304 43.9736 208.149 43.9463C207.994 43.9189 207.885 43.8962 207.821 43.8779L207.814 42.8525C207.851 42.8571 207.908 42.8617 207.985 42.8662C208.067 42.8753 208.124 42.8799 208.156 42.8799C208.443 42.8799 208.687 42.8411 208.888 42.7637C209.088 42.6908 209.257 42.5654 209.394 42.3877C209.535 42.2145 209.656 41.9753 209.756 41.6699L210.282 40.2344ZM208.771 33.6035L210.692 39.3457L211.021 40.6787L210.111 41.1436L207.391 33.6035H208.771ZM216.1 35.0254V43.8438H214.828V33.6035H215.99L216.1 35.0254ZM221.083 37.2402V37.3838C221.083 37.9215 221.019 38.4206 220.892 38.8809C220.764 39.3366 220.577 39.7331 220.331 40.0703C220.09 40.4076 219.791 40.6696 219.436 40.8564C219.08 41.0433 218.672 41.1367 218.212 41.1367C217.743 41.1367 217.328 41.0592 216.968 40.9043C216.608 40.7493 216.302 40.5238 216.052 40.2275C215.801 39.9313 215.601 39.5758 215.45 39.1611C215.304 38.7464 215.204 38.2793 215.149 37.7598V36.9941C215.204 36.4473 215.307 35.9574 215.457 35.5244C215.607 35.0915 215.806 34.7223 216.052 34.417C216.302 34.1071 216.605 33.8724 216.961 33.7129C217.316 33.5488 217.727 33.4668 218.191 33.4668C218.656 33.4668 219.069 33.5579 219.429 33.7402C219.789 33.918 220.092 34.1732 220.338 34.5059C220.584 34.8385 220.769 35.2373 220.892 35.7021C221.019 36.1624 221.083 36.6751 221.083 37.2402ZM219.812 37.3838V37.2402C219.812 36.8711 219.773 36.5247 219.695 36.2012C219.618 35.873 219.497 35.5859 219.333 35.3398C219.174 35.0892 218.968 34.8932 218.718 34.752C218.467 34.6061 218.169 34.5332 217.822 34.5332C217.503 34.5332 217.225 34.5879 216.988 34.6973C216.756 34.8066 216.558 34.9548 216.394 35.1416C216.229 35.3239 216.095 35.5335 215.99 35.7705C215.89 36.0029 215.815 36.2445 215.765 36.4951V38.2656C215.856 38.5846 215.983 38.8854 216.147 39.168C216.312 39.446 216.53 39.6715 216.804 39.8447C217.077 40.0133 217.421 40.0977 217.836 40.0977C218.178 40.0977 218.472 40.027 218.718 39.8857C218.968 39.7399 219.174 39.5417 219.333 39.291C219.497 39.0404 219.618 38.7533 219.695 38.4297C219.773 38.1016 219.812 37.7529 219.812 37.3838ZM225.656 40.0977C225.957 40.0977 226.235 40.0361 226.49 39.9131C226.745 39.79 226.955 39.6214 227.119 39.4072C227.283 39.1885 227.377 38.9401 227.399 38.6621H228.603C228.58 39.0996 228.432 39.5075 228.158 39.8857C227.889 40.2594 227.536 40.5625 227.099 40.7949C226.661 41.0228 226.18 41.1367 225.656 41.1367C225.1 41.1367 224.615 41.0387 224.2 40.8428C223.79 40.6468 223.448 40.3779 223.175 40.0361C222.906 39.6943 222.703 39.3024 222.566 38.8604C222.434 38.4137 222.368 37.9421 222.368 37.4453V37.1582C222.368 36.6615 222.434 36.1921 222.566 35.75C222.703 35.3034 222.906 34.9092 223.175 34.5674C223.448 34.2256 223.79 33.9567 224.2 33.7607C224.615 33.5648 225.1 33.4668 225.656 33.4668C226.235 33.4668 226.741 33.5853 227.174 33.8223C227.607 34.0547 227.946 34.3737 228.192 34.7793C228.443 35.1803 228.58 35.6361 228.603 36.1465H227.399C227.377 35.8411 227.29 35.5654 227.14 35.3193C226.994 35.0732 226.793 34.8773 226.538 34.7314C226.287 34.5811 225.993 34.5059 225.656 34.5059C225.269 34.5059 224.943 34.5833 224.679 34.7383C224.419 34.8887 224.212 35.0938 224.057 35.3535C223.906 35.6087 223.797 35.8936 223.729 36.208C223.665 36.5179 223.633 36.8346 223.633 37.1582V37.4453C223.633 37.7689 223.665 38.0879 223.729 38.4023C223.792 38.7168 223.899 39.0016 224.05 39.2568C224.205 39.512 224.412 39.7171 224.672 39.8721C224.936 40.0225 225.264 40.0977 225.656 40.0977ZM236.512 33.6035V41H235.24V33.6035H236.512ZM238.993 33.6035V34.6289H232.807V33.6035H238.993ZM242.76 41.1367C242.245 41.1367 241.778 41.0501 241.358 40.877C240.944 40.6992 240.586 40.4508 240.285 40.1318C239.989 39.8128 239.761 39.4346 239.602 38.9971C239.442 38.5596 239.362 38.0811 239.362 37.5615V37.2744C239.362 36.6729 239.451 36.1374 239.629 35.668C239.807 35.194 240.048 34.793 240.354 34.4648C240.659 34.1367 241.005 33.8883 241.393 33.7197C241.78 33.5511 242.181 33.4668 242.596 33.4668C243.124 33.4668 243.58 33.5579 243.963 33.7402C244.35 33.9225 244.667 34.1777 244.913 34.5059C245.159 34.8294 245.341 35.2122 245.46 35.6543C245.578 36.0918 245.638 36.5703 245.638 37.0898V37.6572H240.114V36.625H244.373V36.5293C244.355 36.2012 244.286 35.8822 244.168 35.5723C244.054 35.2624 243.872 35.0072 243.621 34.8066C243.37 34.6061 243.029 34.5059 242.596 34.5059C242.309 34.5059 242.044 34.5674 241.803 34.6904C241.561 34.8089 241.354 34.9867 241.181 35.2236C241.007 35.4606 240.873 35.75 240.777 36.0918C240.682 36.4336 240.634 36.8278 240.634 37.2744V37.5615C240.634 37.9124 240.682 38.2428 240.777 38.5527C240.878 38.8581 241.021 39.127 241.208 39.3594C241.399 39.5918 241.63 39.7741 241.898 39.9062C242.172 40.0384 242.482 40.1045 242.828 40.1045C243.275 40.1045 243.653 40.0133 243.963 39.8311C244.273 39.6488 244.544 39.4049 244.776 39.0996L245.542 39.708C245.382 39.9495 245.18 40.1797 244.934 40.3984C244.688 40.6172 244.384 40.7949 244.024 40.9316C243.669 41.0684 243.247 41.1367 242.76 41.1367ZM248.379 35.0254V43.8438H247.107V33.6035H248.27L248.379 35.0254ZM253.362 37.2402V37.3838C253.362 37.9215 253.299 38.4206 253.171 38.8809C253.043 39.3366 252.856 39.7331 252.61 40.0703C252.369 40.4076 252.07 40.6696 251.715 40.8564C251.359 41.0433 250.951 41.1367 250.491 41.1367C250.022 41.1367 249.607 41.0592 249.247 40.9043C248.887 40.7493 248.582 40.5238 248.331 40.2275C248.08 39.9313 247.88 39.5758 247.729 39.1611C247.584 38.7464 247.483 38.2793 247.429 37.7598V36.9941C247.483 36.4473 247.586 35.9574 247.736 35.5244C247.887 35.0915 248.085 34.7223 248.331 34.417C248.582 34.1071 248.885 33.8724 249.24 33.7129C249.596 33.5488 250.006 33.4668 250.471 33.4668C250.936 33.4668 251.348 33.5579 251.708 33.7402C252.068 33.918 252.371 34.1732 252.617 34.5059C252.863 34.8385 253.048 35.2373 253.171 35.7021C253.299 36.1624 253.362 36.6751 253.362 37.2402ZM252.091 37.3838V37.2402C252.091 36.8711 252.052 36.5247 251.975 36.2012C251.897 35.873 251.776 35.5859 251.612 35.3398C251.453 35.0892 251.248 34.8932 250.997 34.752C250.746 34.6061 250.448 34.5332 250.102 34.5332C249.783 34.5332 249.505 34.5879 249.268 34.6973C249.035 34.8066 248.837 34.9548 248.673 35.1416C248.509 35.3239 248.374 35.5335 248.27 35.7705C248.169 36.0029 248.094 36.2445 248.044 36.4951V38.2656C248.135 38.5846 248.263 38.8854 248.427 39.168C248.591 39.446 248.81 39.6715 249.083 39.8447C249.356 40.0133 249.701 40.0977 250.115 40.0977C250.457 40.0977 250.751 40.027 250.997 39.8857C251.248 39.7399 251.453 39.5417 251.612 39.291C251.776 39.0404 251.897 38.7533 251.975 38.4297C252.052 38.1016 252.091 37.7529 252.091 37.3838ZM259.337 39.7354V35.9277C259.337 35.6361 259.278 35.3831 259.159 35.1689C259.045 34.9502 258.872 34.7816 258.64 34.6631C258.407 34.5446 258.12 34.4854 257.778 34.4854C257.459 34.4854 257.179 34.54 256.938 34.6494C256.701 34.7588 256.514 34.9023 256.377 35.0801C256.245 35.2578 256.179 35.4492 256.179 35.6543H254.914C254.914 35.39 254.982 35.1279 255.119 34.8682C255.256 34.6084 255.452 34.3737 255.707 34.1641C255.967 33.9499 256.277 33.7812 256.637 33.6582C257.001 33.5306 257.407 33.4668 257.854 33.4668C258.391 33.4668 258.865 33.5579 259.275 33.7402C259.69 33.9225 260.014 34.1982 260.246 34.5674C260.483 34.932 260.602 35.39 260.602 35.9414V39.3867C260.602 39.6328 260.622 39.8949 260.663 40.1729C260.709 40.4508 260.775 40.6901 260.861 40.8906V41H259.542C259.478 40.8542 259.428 40.6605 259.392 40.4189C259.355 40.1729 259.337 39.945 259.337 39.7354ZM259.556 36.5156L259.569 37.4043H258.291C257.931 37.4043 257.61 37.4339 257.327 37.4932C257.045 37.5479 256.808 37.6322 256.616 37.7461C256.425 37.86 256.279 38.0036 256.179 38.1768C256.078 38.3454 256.028 38.5436 256.028 38.7715C256.028 39.0039 256.081 39.2158 256.186 39.4072C256.29 39.5986 256.448 39.7513 256.657 39.8652C256.871 39.9746 257.133 40.0293 257.443 40.0293C257.831 40.0293 258.173 39.9473 258.469 39.7832C258.765 39.6191 259 39.4186 259.173 39.1816C259.351 38.9447 259.446 38.7145 259.46 38.4912L260 39.0996C259.968 39.291 259.882 39.5029 259.74 39.7354C259.599 39.9678 259.41 40.1911 259.173 40.4053C258.94 40.6149 258.662 40.7904 258.339 40.9316C258.02 41.0684 257.66 41.1367 257.259 41.1367C256.757 41.1367 256.318 41.0387 255.939 40.8428C255.566 40.6468 255.274 40.3848 255.064 40.0566C254.859 39.724 254.757 39.3525 254.757 38.9424C254.757 38.5459 254.834 38.1973 254.989 37.8965C255.144 37.5911 255.368 37.3382 255.659 37.1377C255.951 36.9326 256.302 36.7777 256.712 36.6729C257.122 36.568 257.58 36.5156 258.086 36.5156H259.556ZM267.52 33.6035V34.6494H263.78V33.6035H267.52ZM263.965 33.6035V41H262.7V33.6035H263.965ZM268.641 33.6035V41H267.369V33.6035H268.641ZM272.038 38.9971L275.449 33.6035H276.721V41H275.449V35.6064L272.038 41H270.78V33.6035H272.038V38.9971ZM280.118 38.9971L283.529 33.6035H284.801V41H283.529V35.6064L280.118 41H278.86V33.6035H280.118V38.9971Z" fill="#4B5563"/>
<circle cx="83.5" cy="36.5" r="3.5" fill="#703E97"/>
<path d="M107.757 59.0469V69H106.444V60.127H101.536V69H100.217V59.0469H107.757ZM111.223 63.0254V71.8438H109.951V61.6035H111.113L111.223 63.0254ZM116.206 65.2402V65.3838C116.206 65.9215 116.142 66.4206 116.015 66.8809C115.887 67.3366 115.7 67.7331 115.454 68.0703C115.213 68.4076 114.914 68.6696 114.559 68.8564C114.203 69.0433 113.795 69.1367 113.335 69.1367C112.866 69.1367 112.451 69.0592 112.091 68.9043C111.731 68.7493 111.425 68.5238 111.175 68.2275C110.924 67.9313 110.724 67.5758 110.573 67.1611C110.427 66.7464 110.327 66.2793 110.272 65.7598V64.9941C110.327 64.4473 110.43 63.9574 110.58 63.5244C110.73 63.0915 110.929 62.7223 111.175 62.417C111.425 62.1071 111.729 61.8724 112.084 61.7129C112.439 61.5488 112.85 61.4668 113.314 61.4668C113.779 61.4668 114.192 61.5579 114.552 61.7402C114.912 61.918 115.215 62.1732 115.461 62.5059C115.707 62.8385 115.892 63.2373 116.015 63.7021C116.142 64.1624 116.206 64.6751 116.206 65.2402ZM114.935 65.3838V65.2402C114.935 64.8711 114.896 64.5247 114.818 64.2012C114.741 63.873 114.62 63.5859 114.456 63.3398C114.297 63.0892 114.091 62.8932 113.841 62.752C113.59 62.6061 113.292 62.5332 112.945 62.5332C112.626 62.5332 112.348 62.5879 112.111 62.6973C111.879 62.8066 111.681 62.9548 111.517 63.1416C111.353 63.3239 111.218 63.5335 111.113 63.7705C111.013 64.0029 110.938 64.2445 110.888 64.4951V66.2656C110.979 66.5846 111.106 66.8854 111.271 67.168C111.435 67.446 111.653 67.6715 111.927 67.8447C112.2 68.0133 112.544 68.0977 112.959 68.0977C113.301 68.0977 113.595 68.027 113.841 67.8857C114.091 67.7399 114.297 67.5417 114.456 67.291C114.62 67.0404 114.741 66.7533 114.818 66.4297C114.896 66.1016 114.935 65.7529 114.935 65.3838ZM119.187 66.9971L122.598 61.6035H123.869V69H122.598V63.6064L119.187 69H117.929V61.6035H119.187V66.9971ZM134.39 64.8096V65.835H130.479V64.8096H134.39ZM130.746 61.6035V69H129.481V61.6035H130.746ZM135.415 61.6035V69H134.144V61.6035H135.415ZM140.521 69.1367C140.007 69.1367 139.539 69.0501 139.12 68.877C138.705 68.6992 138.348 68.4508 138.047 68.1318C137.751 67.8128 137.523 67.4346 137.363 66.9971C137.204 66.5596 137.124 66.0811 137.124 65.5615V65.2744C137.124 64.6729 137.213 64.1374 137.391 63.668C137.568 63.194 137.81 62.793 138.115 62.4648C138.421 62.1367 138.767 61.8883 139.154 61.7197C139.542 61.5511 139.943 61.4668 140.357 61.4668C140.886 61.4668 141.342 61.5579 141.725 61.7402C142.112 61.9225 142.429 62.1777 142.675 62.5059C142.921 62.8294 143.103 63.2122 143.222 63.6543C143.34 64.0918 143.399 64.5703 143.399 65.0898V65.6572H137.876V64.625H142.135V64.5293C142.117 64.2012 142.048 63.8822 141.93 63.5723C141.816 63.2624 141.633 63.0072 141.383 62.8066C141.132 62.6061 140.79 62.5059 140.357 62.5059C140.07 62.5059 139.806 62.5674 139.564 62.6904C139.323 62.8089 139.116 62.9867 138.942 63.2236C138.769 63.4606 138.635 63.75 138.539 64.0918C138.443 64.4336 138.396 64.8278 138.396 65.2744V65.5615C138.396 65.9124 138.443 66.2428 138.539 66.5527C138.639 66.8581 138.783 67.127 138.97 67.3594C139.161 67.5918 139.391 67.7741 139.66 67.9062C139.934 68.0384 140.243 68.1045 140.59 68.1045C141.036 68.1045 141.415 68.0133 141.725 67.8311C142.035 67.6488 142.306 67.4049 142.538 67.0996L143.304 67.708C143.144 67.9495 142.941 68.1797 142.695 68.3984C142.449 68.6172 142.146 68.7949 141.786 68.9316C141.431 69.0684 141.009 69.1367 140.521 69.1367ZM144.541 65.3838V65.2266C144.541 64.6934 144.618 64.1989 144.773 63.7432C144.928 63.2829 145.152 62.8841 145.443 62.5469C145.735 62.2051 146.088 61.9408 146.503 61.7539C146.918 61.5625 147.382 61.4668 147.897 61.4668C148.417 61.4668 148.884 61.5625 149.299 61.7539C149.718 61.9408 150.074 62.2051 150.365 62.5469C150.661 62.8841 150.887 63.2829 151.042 63.7432C151.197 64.1989 151.274 64.6934 151.274 65.2266V65.3838C151.274 65.917 151.197 66.4115 151.042 66.8672C150.887 67.3229 150.661 67.7217 150.365 68.0635C150.074 68.4007 149.72 68.665 149.306 68.8564C148.896 69.0433 148.431 69.1367 147.911 69.1367C147.392 69.1367 146.924 69.0433 146.51 68.8564C146.095 68.665 145.74 68.4007 145.443 68.0635C145.152 67.7217 144.928 67.3229 144.773 66.8672C144.618 66.4115 144.541 65.917 144.541 65.3838ZM145.806 65.2266V65.3838C145.806 65.7529 145.849 66.1016 145.936 66.4297C146.022 66.7533 146.152 67.0404 146.325 67.291C146.503 67.5417 146.724 67.7399 146.988 67.8857C147.253 68.027 147.56 68.0977 147.911 68.0977C148.257 68.0977 148.561 68.027 148.82 67.8857C149.085 67.7399 149.303 67.5417 149.477 67.291C149.65 67.0404 149.78 66.7533 149.866 66.4297C149.957 66.1016 150.003 65.7529 150.003 65.3838V65.2266C150.003 64.862 149.957 64.5179 149.866 64.1943C149.78 63.8662 149.647 63.5768 149.47 63.3262C149.297 63.071 149.078 62.8704 148.813 62.7246C148.554 62.5788 148.248 62.5059 147.897 62.5059C147.551 62.5059 147.246 62.5788 146.981 62.7246C146.722 62.8704 146.503 63.071 146.325 63.3262C146.152 63.5768 146.022 63.8662 145.936 64.1943C145.849 64.5179 145.806 64.862 145.806 65.2266ZM157.604 58.3838H158.644C158.644 58.8304 158.575 59.1859 158.438 59.4502C158.302 59.71 158.115 59.9105 157.878 60.0518C157.646 60.193 157.381 60.3001 157.085 60.373C156.793 60.446 156.49 60.5166 156.176 60.585C155.784 60.667 155.419 60.7969 155.082 60.9746C154.749 61.1478 154.462 61.3939 154.221 61.7129C153.984 62.0319 153.808 62.4466 153.694 62.957C153.585 63.4674 153.555 64.0986 153.605 64.8506V65.4795H152.566V64.8506C152.566 64.0075 152.646 63.2715 152.806 62.6426C152.97 62.0137 153.2 61.4827 153.496 61.0498C153.792 60.6169 154.143 60.2728 154.549 60.0176C154.959 59.7624 155.41 59.5869 155.902 59.4912C156.258 59.4229 156.563 59.3499 156.818 59.2725C157.074 59.1904 157.267 59.0811 157.399 58.9443C157.536 58.8076 157.604 58.6208 157.604 58.3838ZM156.107 62.0273C156.59 62.0273 157.021 62.1117 157.399 62.2803C157.778 62.4489 158.099 62.6836 158.363 62.9844C158.628 63.2852 158.828 63.6406 158.965 64.0508C159.106 64.4564 159.177 64.8984 159.177 65.377V65.5273C159.177 66.0423 159.102 66.5208 158.951 66.9629C158.805 67.4004 158.589 67.7832 158.302 68.1113C158.019 68.4349 157.673 68.6878 157.263 68.8701C156.857 69.0524 156.395 69.1436 155.875 69.1436C155.355 69.1436 154.891 69.0524 154.48 68.8701C154.075 68.6878 153.729 68.4349 153.441 68.1113C153.154 67.7832 152.936 67.4004 152.785 66.9629C152.639 66.5208 152.566 66.0423 152.566 65.5273V65.377C152.566 65.263 152.587 65.1514 152.628 65.042C152.669 64.9326 152.719 64.821 152.778 64.707C152.842 64.5931 152.899 64.4723 152.949 64.3447C153.118 63.9346 153.348 63.554 153.64 63.2031C153.936 62.8522 154.289 62.5697 154.699 62.3555C155.114 62.1367 155.583 62.0273 156.107 62.0273ZM155.861 63.0596C155.396 63.0596 155.014 63.1667 154.713 63.3809C154.417 63.5951 154.196 63.8799 154.05 64.2354C153.904 64.5863 153.831 64.9668 153.831 65.377V65.5273C153.831 65.8737 153.872 66.2018 153.954 66.5117C154.036 66.8216 154.159 67.0973 154.323 67.3389C154.492 67.5758 154.704 67.7627 154.959 67.8994C155.219 68.0361 155.524 68.1045 155.875 68.1045C156.226 68.1045 156.529 68.0361 156.784 67.8994C157.039 67.7627 157.249 67.5758 157.413 67.3389C157.577 67.0973 157.7 66.8216 157.782 66.5117C157.864 66.2018 157.905 65.8737 157.905 65.5273V65.377C157.905 65.0671 157.864 64.7731 157.782 64.4951C157.7 64.2171 157.575 63.971 157.406 63.7568C157.242 63.5426 157.03 63.374 156.771 63.251C156.515 63.1234 156.212 63.0596 155.861 63.0596ZM161.357 61.6035L162.978 64.2969L164.618 61.6035H166.102L163.682 65.2539L166.177 69H164.714L163.005 66.2246L161.296 69H159.826L162.314 65.2539L159.901 61.6035H161.357ZM166.977 65.3838V65.2266C166.977 64.6934 167.054 64.1989 167.209 63.7432C167.364 63.2829 167.587 62.8841 167.879 62.5469C168.171 62.2051 168.524 61.9408 168.938 61.7539C169.353 61.5625 169.818 61.4668 170.333 61.4668C170.853 61.4668 171.32 61.5625 171.734 61.7539C172.154 61.9408 172.509 62.2051 172.801 62.5469C173.097 62.8841 173.323 63.2829 173.478 63.7432C173.632 64.1989 173.71 64.6934 173.71 65.2266V65.3838C173.71 65.917 173.632 66.4115 173.478 66.8672C173.323 67.3229 173.097 67.7217 172.801 68.0635C172.509 68.4007 172.156 68.665 171.741 68.8564C171.331 69.0433 170.866 69.1367 170.347 69.1367C169.827 69.1367 169.36 69.0433 168.945 68.8564C168.531 68.665 168.175 68.4007 167.879 68.0635C167.587 67.7217 167.364 67.3229 167.209 66.8672C167.054 66.4115 166.977 65.917 166.977 65.3838ZM168.241 65.2266V65.3838C168.241 65.7529 168.285 66.1016 168.371 66.4297C168.458 66.7533 168.588 67.0404 168.761 67.291C168.938 67.5417 169.16 67.7399 169.424 67.8857C169.688 68.027 169.996 68.0977 170.347 68.0977C170.693 68.0977 170.996 68.027 171.256 67.8857C171.52 67.7399 171.739 67.5417 171.912 67.291C172.085 67.0404 172.215 66.7533 172.302 66.4297C172.393 66.1016 172.438 65.7529 172.438 65.3838V65.2266C172.438 64.862 172.393 64.5179 172.302 64.1943C172.215 63.8662 172.083 63.5768 171.905 63.3262C171.732 63.071 171.513 62.8704 171.249 62.7246C170.989 62.5788 170.684 62.5059 170.333 62.5059C169.987 62.5059 169.681 62.5788 169.417 62.7246C169.157 62.8704 168.938 63.071 168.761 63.3262C168.588 63.5768 168.458 63.8662 168.371 64.1943C168.285 64.5179 168.241 64.862 168.241 65.2266ZM176.137 61.6035H177.401L177.292 64.3721C177.265 65.0739 177.185 65.68 177.053 66.1904C176.921 66.7008 176.752 67.1361 176.547 67.4961C176.342 67.8516 176.112 68.1501 175.856 68.3916C175.606 68.6331 175.346 68.8359 175.077 69H174.448L174.482 67.9678L174.742 67.9609C174.893 67.7832 175.038 67.6009 175.18 67.4141C175.321 67.2227 175.451 66.9971 175.569 66.7373C175.688 66.473 175.786 66.1517 175.863 65.7734C175.945 65.3906 175.998 64.9235 176.021 64.3721L176.137 61.6035ZM176.451 61.6035H180.901V69H179.637V62.7725H176.451V61.6035ZM174.161 67.9609H181.852V71.1807H180.587V69H175.426V71.1807H174.154L174.161 67.9609ZM184.62 66.9971L188.031 61.6035H189.303V69H188.031V63.6064L184.62 69H183.362V61.6035H184.62V66.9971ZM195.585 67.3184L198.101 61.6035H199.317L196.022 69H195.147L191.866 61.6035H193.083L195.585 67.3184ZM192.714 61.6035V69H191.449V61.6035H192.714ZM198.415 69V61.6035H199.687V69H198.415ZM201.389 65.3838V65.2266C201.389 64.6934 201.466 64.1989 201.621 63.7432C201.776 63.2829 201.999 62.8841 202.291 62.5469C202.583 62.2051 202.936 61.9408 203.351 61.7539C203.765 61.5625 204.23 61.4668 204.745 61.4668C205.265 61.4668 205.732 61.5625 206.146 61.7539C206.566 61.9408 206.921 62.2051 207.213 62.5469C207.509 62.8841 207.735 63.2829 207.89 63.7432C208.045 64.1989 208.122 64.6934 208.122 65.2266V65.3838C208.122 65.917 208.045 66.4115 207.89 66.8672C207.735 67.3229 207.509 67.7217 207.213 68.0635C206.921 68.4007 206.568 68.665 206.153 68.8564C205.743 69.0433 205.278 69.1367 204.759 69.1367C204.239 69.1367 203.772 69.0433 203.357 68.8564C202.943 68.665 202.587 68.4007 202.291 68.0635C201.999 67.7217 201.776 67.3229 201.621 66.8672C201.466 66.4115 201.389 65.917 201.389 65.3838ZM202.653 65.2266V65.3838C202.653 65.7529 202.697 66.1016 202.783 66.4297C202.87 66.7533 203 67.0404 203.173 67.291C203.351 67.5417 203.572 67.7399 203.836 67.8857C204.1 68.027 204.408 68.0977 204.759 68.0977C205.105 68.0977 205.408 68.027 205.668 67.8857C205.932 67.7399 206.151 67.5417 206.324 67.291C206.497 67.0404 206.627 66.7533 206.714 66.4297C206.805 66.1016 206.851 65.7529 206.851 65.3838V65.2266C206.851 64.862 206.805 64.5179 206.714 64.1943C206.627 63.8662 206.495 63.5768 206.317 63.3262C206.144 63.071 205.925 62.8704 205.661 62.7246C205.401 62.5788 205.096 62.5059 204.745 62.5059C204.399 62.5059 204.093 62.5788 203.829 62.7246C203.569 62.8704 203.351 63.071 203.173 63.3262C203 63.5768 202.87 63.8662 202.783 64.1943C202.697 64.5179 202.653 64.862 202.653 65.2266ZM212.668 68.0977C212.969 68.0977 213.247 68.0361 213.502 67.9131C213.757 67.79 213.967 67.6214 214.131 67.4072C214.295 67.1885 214.388 66.9401 214.411 66.6621H215.614C215.591 67.0996 215.443 67.5075 215.17 67.8857C214.901 68.2594 214.548 68.5625 214.11 68.7949C213.673 69.0228 213.192 69.1367 212.668 69.1367C212.112 69.1367 211.627 69.0387 211.212 68.8428C210.802 68.6468 210.46 68.3779 210.187 68.0361C209.918 67.6943 209.715 67.3024 209.578 66.8604C209.446 66.4137 209.38 65.9421 209.38 65.4453V65.1582C209.38 64.6615 209.446 64.1921 209.578 63.75C209.715 63.3034 209.918 62.9092 210.187 62.5674C210.46 62.2256 210.802 61.9567 211.212 61.7607C211.627 61.5648 212.112 61.4668 212.668 61.4668C213.247 61.4668 213.753 61.5853 214.186 61.8223C214.618 62.0547 214.958 62.3737 215.204 62.7793C215.455 63.1803 215.591 63.6361 215.614 64.1465H214.411C214.388 63.8411 214.302 63.5654 214.151 63.3193C214.006 63.0732 213.805 62.8773 213.55 62.7314C213.299 62.5811 213.005 62.5059 212.668 62.5059C212.281 62.5059 211.955 62.5833 211.69 62.7383C211.431 62.8887 211.223 63.0938 211.068 63.3535C210.918 63.6087 210.809 63.8936 210.74 64.208C210.676 64.5179 210.645 64.8346 210.645 65.1582V65.4453C210.645 65.7689 210.676 66.0879 210.74 66.4023C210.804 66.7168 210.911 67.0016 211.062 67.2568C211.216 67.512 211.424 67.7171 211.684 67.8721C211.948 68.0225 212.276 68.0977 212.668 68.0977ZM220.051 61.6035V69H218.779V61.6035H220.051ZM222.532 61.6035V62.6289H216.346V61.6035H222.532ZM225.144 66.9971L228.555 61.6035H229.826V69H228.555V63.6064L225.144 69H223.886V61.6035H225.144V66.9971ZM236.703 61.6035V69H235.438V61.6035H236.703ZM241.557 61.6035L238.05 65.8418H236.279L236.088 64.7344H237.537L240.019 61.6035H241.557ZM240.196 69L237.476 65.6504L238.289 64.7344L241.803 69H240.196ZM244.981 68.2344L247.039 61.6035H248.393L245.426 70.1416C245.357 70.3239 245.266 70.5199 245.152 70.7295C245.043 70.9437 244.902 71.1465 244.729 71.3379C244.555 71.5293 244.346 71.6842 244.1 71.8027C243.858 71.9258 243.569 71.9873 243.231 71.9873C243.131 71.9873 243.004 71.9736 242.849 71.9463C242.694 71.9189 242.584 71.8962 242.521 71.8779L242.514 70.8525C242.55 70.8571 242.607 70.8617 242.685 70.8662C242.767 70.8753 242.824 70.8799 242.855 70.8799C243.143 70.8799 243.386 70.8411 243.587 70.7637C243.787 70.6908 243.956 70.5654 244.093 70.3877C244.234 70.2145 244.355 69.9753 244.455 69.6699L244.981 68.2344ZM243.471 61.6035L245.392 67.3457L245.72 68.6787L244.811 69.1436L242.09 61.6035H243.471ZM250.799 63.0254V71.8438H249.527V61.6035H250.689L250.799 63.0254ZM255.782 65.2402V65.3838C255.782 65.9215 255.718 66.4206 255.591 66.8809C255.463 67.3366 255.276 67.7331 255.03 68.0703C254.789 68.4076 254.49 68.6696 254.135 68.8564C253.779 69.0433 253.371 69.1367 252.911 69.1367C252.442 69.1367 252.027 69.0592 251.667 68.9043C251.307 68.7493 251.002 68.5238 250.751 68.2275C250.5 67.9313 250.3 67.5758 250.149 67.1611C250.004 66.7464 249.903 66.2793 249.849 65.7598V64.9941C249.903 64.4473 250.006 63.9574 250.156 63.5244C250.307 63.0915 250.505 62.7223 250.751 62.417C251.002 62.1071 251.305 61.8724 251.66 61.7129C252.016 61.5488 252.426 61.4668 252.891 61.4668C253.355 61.4668 253.768 61.5579 254.128 61.7402C254.488 61.918 254.791 62.1732 255.037 62.5059C255.283 62.8385 255.468 63.2373 255.591 63.7021C255.718 64.1624 255.782 64.6751 255.782 65.2402ZM254.511 65.3838V65.2402C254.511 64.8711 254.472 64.5247 254.395 64.2012C254.317 63.873 254.196 63.5859 254.032 63.3398C253.873 63.0892 253.668 62.8932 253.417 62.752C253.166 62.6061 252.868 62.5332 252.521 62.5332C252.202 62.5332 251.924 62.5879 251.688 62.6973C251.455 62.8066 251.257 62.9548 251.093 63.1416C250.929 63.3239 250.794 63.5335 250.689 63.7705C250.589 64.0029 250.514 64.2445 250.464 64.4951V66.2656C250.555 66.5846 250.683 66.8854 250.847 67.168C251.011 67.446 251.229 67.6715 251.503 67.8447C251.776 68.0133 252.12 68.0977 252.535 68.0977C252.877 68.0977 253.171 68.027 253.417 67.8857C253.668 67.7399 253.873 67.5417 254.032 67.291C254.196 67.0404 254.317 66.7533 254.395 66.4297C254.472 66.1016 254.511 65.7529 254.511 65.3838ZM260.355 68.0977C260.656 68.0977 260.934 68.0361 261.189 67.9131C261.445 67.79 261.654 67.6214 261.818 67.4072C261.982 67.1885 262.076 66.9401 262.099 66.6621H263.302C263.279 67.0996 263.131 67.5075 262.857 67.8857C262.589 68.2594 262.235 68.5625 261.798 68.7949C261.36 69.0228 260.88 69.1367 260.355 69.1367C259.799 69.1367 259.314 69.0387 258.899 68.8428C258.489 68.6468 258.147 68.3779 257.874 68.0361C257.605 67.6943 257.402 67.3024 257.266 66.8604C257.133 66.4137 257.067 65.9421 257.067 65.4453V65.1582C257.067 64.6615 257.133 64.1921 257.266 63.75C257.402 63.3034 257.605 62.9092 257.874 62.5674C258.147 62.2256 258.489 61.9567 258.899 61.7607C259.314 61.5648 259.799 61.4668 260.355 61.4668C260.934 61.4668 261.44 61.5853 261.873 61.8223C262.306 62.0547 262.646 62.3737 262.892 62.7793C263.142 63.1803 263.279 63.6361 263.302 64.1465H262.099C262.076 63.8411 261.989 63.5654 261.839 63.3193C261.693 63.0732 261.493 62.8773 261.237 62.7314C260.987 62.5811 260.693 62.5059 260.355 62.5059C259.968 62.5059 259.642 62.5833 259.378 62.7383C259.118 62.8887 258.911 63.0938 258.756 63.3535C258.605 63.6087 258.496 63.8936 258.428 64.208C258.364 64.5179 258.332 64.8346 258.332 65.1582V65.4453C258.332 65.7689 258.364 66.0879 258.428 66.4023C258.492 66.7168 258.599 67.0016 258.749 67.2568C258.904 67.512 259.111 67.7171 259.371 67.8721C259.635 68.0225 259.964 68.0977 260.355 68.0977ZM273.139 61.6035V62.6494H269.563V61.6035H273.139ZM274.253 61.6035V69H272.988V61.6035H274.253ZM269.256 61.6035H270.527L270.336 65.1719C270.304 65.7233 270.252 66.2109 270.179 66.6348C270.11 67.054 270.015 67.4141 269.892 67.7148C269.773 68.0156 269.623 68.2617 269.44 68.4531C269.263 68.64 269.049 68.779 268.798 68.8701C268.547 68.9567 268.258 69 267.93 69H267.533V67.8857L267.807 67.8652C268.003 67.8516 268.169 67.806 268.306 67.7285C268.447 67.651 268.565 67.5371 268.661 67.3867C268.757 67.2318 268.834 67.0335 268.894 66.792C268.957 66.5505 269.005 66.2633 269.037 65.9307C269.074 65.598 269.101 65.2106 269.119 64.7686L269.256 61.6035ZM279.359 69.1367C278.844 69.1367 278.377 69.0501 277.958 68.877C277.543 68.6992 277.186 68.4508 276.885 68.1318C276.589 67.8128 276.361 67.4346 276.201 66.9971C276.042 66.5596 275.962 66.0811 275.962 65.5615V65.2744C275.962 64.6729 276.051 64.1374 276.229 63.668C276.406 63.194 276.648 62.793 276.953 62.4648C277.258 62.1367 277.605 61.8883 277.992 61.7197C278.38 61.5511 278.781 61.4668 279.195 61.4668C279.724 61.4668 280.18 61.5579 280.562 61.7402C280.95 61.9225 281.267 62.1777 281.513 62.5059C281.759 62.8294 281.941 63.2122 282.06 63.6543C282.178 64.0918 282.237 64.5703 282.237 65.0898V65.6572H276.714V64.625H280.973V64.5293C280.954 64.2012 280.886 63.8822 280.768 63.5723C280.654 63.2624 280.471 63.0072 280.221 62.8066C279.97 62.6061 279.628 62.5059 279.195 62.5059C278.908 62.5059 278.644 62.5674 278.402 62.6904C278.161 62.8089 277.953 62.9867 277.78 63.2236C277.607 63.4606 277.473 63.75 277.377 64.0918C277.281 64.4336 277.233 64.8278 277.233 65.2744V65.5615C277.233 65.9124 277.281 66.2428 277.377 66.5527C277.477 66.8581 277.621 67.127 277.808 67.3594C277.999 67.5918 278.229 67.7741 278.498 67.9062C278.771 68.0384 279.081 68.1045 279.428 68.1045C279.874 68.1045 280.253 68.0133 280.562 67.8311C280.872 67.6488 281.144 67.4049 281.376 67.0996L282.142 67.708C281.982 67.9495 281.779 68.1797 281.533 68.3984C281.287 68.6172 280.984 68.7949 280.624 68.9316C280.269 69.0684 279.847 69.1367 279.359 69.1367ZM289.292 61.6035V69H288.027V61.6035H289.292ZM288.861 65.001V66.04C288.606 66.1357 288.346 66.2223 288.082 66.2998C287.822 66.3727 287.547 66.432 287.255 66.4775C286.968 66.5186 286.656 66.5391 286.318 66.5391C285.735 66.5391 285.229 66.4388 284.801 66.2383C284.372 66.0332 284.042 65.7256 283.81 65.3154C283.577 64.9007 283.461 64.3789 283.461 63.75V61.5898H284.726V63.75C284.726 64.1602 284.787 64.4928 284.91 64.748C285.033 65.0033 285.213 65.1924 285.45 65.3154C285.687 65.4339 285.977 65.4932 286.318 65.4932C286.646 65.4932 286.954 65.4727 287.241 65.4316C287.533 65.3861 287.811 65.3268 288.075 65.2539C288.344 65.181 288.606 65.0967 288.861 65.001ZM294.398 69.1367C293.883 69.1367 293.416 69.0501 292.997 68.877C292.582 68.6992 292.225 68.4508 291.924 68.1318C291.628 67.8128 291.4 67.4346 291.24 66.9971C291.081 66.5596 291.001 66.0811 291.001 65.5615V65.2744C291.001 64.6729 291.09 64.1374 291.268 63.668C291.445 63.194 291.687 62.793 291.992 62.4648C292.298 62.1367 292.644 61.8883 293.031 61.7197C293.419 61.5511 293.82 61.4668 294.234 61.4668C294.763 61.4668 295.219 61.5579 295.602 61.7402C295.989 61.9225 296.306 62.1777 296.552 62.5059C296.798 62.8294 296.98 63.2122 297.099 63.6543C297.217 64.0918 297.276 64.5703 297.276 65.0898V65.6572H291.753V64.625H296.012V64.5293C295.993 64.2012 295.925 63.8822 295.807 63.5723C295.693 63.2624 295.51 63.0072 295.26 62.8066C295.009 62.6061 294.667 62.5059 294.234 62.5059C293.947 62.5059 293.683 62.5674 293.441 62.6904C293.2 62.8089 292.993 62.9867 292.819 63.2236C292.646 63.4606 292.512 63.75 292.416 64.0918C292.32 64.4336 292.272 64.8278 292.272 65.2744V65.5615C292.272 65.9124 292.32 66.2428 292.416 66.5527C292.516 66.8581 292.66 67.127 292.847 67.3594C293.038 67.5918 293.268 67.7741 293.537 67.9062C293.811 68.0384 294.12 68.1045 294.467 68.1045C294.913 68.1045 295.292 68.0133 295.602 67.8311C295.911 67.6488 296.183 67.4049 296.415 67.0996L297.181 67.708C297.021 67.9495 296.818 68.1797 296.572 68.3984C296.326 68.6172 296.023 68.7949 295.663 68.9316C295.308 69.0684 294.886 69.1367 294.398 69.1367ZM303.771 64.8096V65.835H299.86V64.8096H303.771ZM300.127 61.6035V69H298.862V61.6035H300.127ZM304.796 61.6035V69H303.524V61.6035H304.796ZM308.2 66.9971L311.611 61.6035H312.883V69H311.611V63.6064L308.2 69H306.942V61.6035H308.2V66.9971ZM316.41 65.4727H317.777L315.638 69H314.271L316.41 65.4727ZM317.47 61.6035H320.56V69H319.295V62.6289H317.47C317.11 62.6289 316.816 62.6904 316.588 62.8135C316.36 62.932 316.194 63.0869 316.089 63.2783C315.984 63.4697 315.932 63.668 315.932 63.873C315.932 64.0736 315.979 64.2673 316.075 64.4541C316.171 64.6364 316.321 64.7868 316.526 64.9053C316.731 65.0238 316.996 65.083 317.319 65.083H319.637V66.1221H317.319C316.896 66.1221 316.52 66.0651 316.191 65.9512C315.863 65.8372 315.585 65.68 315.357 65.4795C315.13 65.2744 314.956 65.0352 314.838 64.7617C314.719 64.4837 314.66 64.1829 314.66 63.8594C314.66 63.5358 314.722 63.2373 314.845 62.9639C314.972 62.6904 315.155 62.4512 315.392 62.2461C315.633 62.041 315.927 61.8838 316.273 61.7744C316.624 61.6605 317.023 61.6035 317.47 61.6035ZM104.893 81.6035V82.6494H101.153V81.6035H104.893ZM101.338 81.6035V89H100.073V81.6035H101.338ZM106.014 81.6035V89H104.742V81.6035H106.014ZM107.709 85.3838V85.2266C107.709 84.6934 107.786 84.1989 107.941 83.7432C108.096 83.2829 108.32 82.8841 108.611 82.5469C108.903 82.2051 109.256 81.9408 109.671 81.7539C110.086 81.5625 110.55 81.4668 111.065 81.4668C111.585 81.4668 112.052 81.5625 112.467 81.7539C112.886 81.9408 113.242 82.2051 113.533 82.5469C113.829 82.8841 114.055 83.2829 114.21 83.7432C114.365 84.1989 114.442 84.6934 114.442 85.2266V85.3838C114.442 85.917 114.365 86.4115 114.21 86.8672C114.055 87.3229 113.829 87.7217 113.533 88.0635C113.242 88.4007 112.888 88.665 112.474 88.8564C112.063 89.0433 111.599 89.1367 111.079 89.1367C110.56 89.1367 110.092 89.0433 109.678 88.8564C109.263 88.665 108.908 88.4007 108.611 88.0635C108.32 87.7217 108.096 87.3229 107.941 86.8672C107.786 86.4115 107.709 85.917 107.709 85.3838ZM108.974 85.2266V85.3838C108.974 85.7529 109.017 86.1016 109.104 86.4297C109.19 86.7533 109.32 87.0404 109.493 87.291C109.671 87.5417 109.892 87.7399 110.156 87.8857C110.421 88.027 110.728 88.0977 111.079 88.0977C111.425 88.0977 111.729 88.027 111.988 87.8857C112.253 87.7399 112.471 87.5417 112.645 87.291C112.818 87.0404 112.948 86.7533 113.034 86.4297C113.125 86.1016 113.171 85.7529 113.171 85.3838V85.2266C113.171 84.862 113.125 84.5179 113.034 84.1943C112.948 83.8662 112.815 83.5768 112.638 83.3262C112.465 83.071 112.246 82.8704 111.981 82.7246C111.722 82.5788 111.416 82.5059 111.065 82.5059C110.719 82.5059 110.414 82.5788 110.149 82.7246C109.89 82.8704 109.671 83.071 109.493 83.3262C109.32 83.5768 109.19 83.8662 109.104 84.1943C109.017 84.5179 108.974 84.862 108.974 85.2266ZM119.501 85.7461H117.074L117.061 84.7344H119.043C119.435 84.7344 119.761 84.6956 120.021 84.6182C120.285 84.5407 120.483 84.4245 120.615 84.2695C120.747 84.1146 120.813 83.9232 120.813 83.6953C120.813 83.5176 120.775 83.3626 120.697 83.2305C120.624 83.0938 120.513 82.9821 120.362 82.8955C120.212 82.8044 120.025 82.7383 119.802 82.6973C119.583 82.6517 119.326 82.6289 119.029 82.6289H117.409V89H116.145V81.6035H119.029C119.499 81.6035 119.92 81.6445 120.294 81.7266C120.672 81.8086 120.993 81.9339 121.258 82.1025C121.527 82.2666 121.732 82.4762 121.873 82.7314C122.014 82.9867 122.085 83.2874 122.085 83.6338C122.085 83.8571 122.039 84.069 121.948 84.2695C121.857 84.4701 121.723 84.6478 121.545 84.8027C121.367 84.9577 121.148 85.0853 120.889 85.1855C120.629 85.2812 120.33 85.3428 119.993 85.3701L119.501 85.7461ZM119.501 89H116.616L117.245 87.9746H119.501C119.852 87.9746 120.144 87.9313 120.376 87.8447C120.608 87.7536 120.782 87.626 120.896 87.4619C121.014 87.2933 121.073 87.0928 121.073 86.8604C121.073 86.6279 121.014 86.4297 120.896 86.2656C120.782 86.097 120.608 85.9694 120.376 85.8828C120.144 85.7917 119.852 85.7461 119.501 85.7461H117.58L117.594 84.7344H119.993L120.451 85.1172C120.857 85.1491 121.201 85.2493 121.483 85.418C121.766 85.5866 121.98 85.8008 122.126 86.0605C122.272 86.3158 122.345 86.5938 122.345 86.8945C122.345 87.2409 122.279 87.5462 122.146 87.8105C122.019 88.0749 121.832 88.2959 121.586 88.4736C121.34 88.6468 121.041 88.779 120.69 88.8701C120.34 88.9567 119.943 89 119.501 89ZM126.973 81.6035V89H125.701V81.6035H126.973ZM129.454 81.6035V82.6289H123.268V81.6035H129.454ZM130.076 85.3838V85.2266C130.076 84.6934 130.154 84.1989 130.309 83.7432C130.464 83.2829 130.687 82.8841 130.979 82.5469C131.27 82.2051 131.623 81.9408 132.038 81.7539C132.453 81.5625 132.918 81.4668 133.433 81.4668C133.952 81.4668 134.419 81.5625 134.834 81.7539C135.253 81.9408 135.609 82.2051 135.9 82.5469C136.197 82.8841 136.422 83.2829 136.577 83.7432C136.732 84.1989 136.81 84.6934 136.81 85.2266V85.3838C136.81 85.917 136.732 86.4115 136.577 86.8672C136.422 87.3229 136.197 87.7217 135.9 88.0635C135.609 88.4007 135.256 88.665 134.841 88.8564C134.431 89.0433 133.966 89.1367 133.446 89.1367C132.927 89.1367 132.46 89.0433 132.045 88.8564C131.63 88.665 131.275 88.4007 130.979 88.0635C130.687 87.7217 130.464 87.3229 130.309 86.8672C130.154 86.4115 130.076 85.917 130.076 85.3838ZM131.341 85.2266V85.3838C131.341 85.7529 131.384 86.1016 131.471 86.4297C131.557 86.7533 131.687 87.0404 131.86 87.291C132.038 87.5417 132.259 87.7399 132.523 87.8857C132.788 88.027 133.095 88.0977 133.446 88.0977C133.793 88.0977 134.096 88.027 134.355 87.8857C134.62 87.7399 134.839 87.5417 135.012 87.291C135.185 87.0404 135.315 86.7533 135.401 86.4297C135.493 86.1016 135.538 85.7529 135.538 85.3838V85.2266C135.538 84.862 135.493 84.5179 135.401 84.1943C135.315 83.8662 135.183 83.5768 135.005 83.3262C134.832 83.071 134.613 82.8704 134.349 82.7246C134.089 82.5788 133.784 82.5059 133.433 82.5059C133.086 82.5059 132.781 82.5788 132.517 82.7246C132.257 82.8704 132.038 83.071 131.86 83.3262C131.687 83.5768 131.557 83.8662 131.471 84.1943C131.384 84.5179 131.341 84.862 131.341 85.2266ZM139.66 83.0254V91.8438H138.389V81.6035H139.551L139.66 83.0254ZM144.644 85.2402V85.3838C144.644 85.9215 144.58 86.4206 144.452 86.8809C144.325 87.3366 144.138 87.7331 143.892 88.0703C143.65 88.4076 143.352 88.6696 142.996 88.8564C142.641 89.0433 142.233 89.1367 141.772 89.1367C141.303 89.1367 140.888 89.0592 140.528 88.9043C140.168 88.7493 139.863 88.5238 139.612 88.2275C139.362 87.9313 139.161 87.5758 139.011 87.1611C138.865 86.7464 138.765 86.2793 138.71 85.7598V84.9941C138.765 84.4473 138.867 83.9574 139.018 83.5244C139.168 83.0915 139.366 82.7223 139.612 82.417C139.863 82.1071 140.166 81.8724 140.521 81.7129C140.877 81.5488 141.287 81.4668 141.752 81.4668C142.217 81.4668 142.629 81.5579 142.989 81.7402C143.349 81.918 143.652 82.1732 143.898 82.5059C144.145 82.8385 144.329 83.2373 144.452 83.7021C144.58 84.1624 144.644 84.6751 144.644 85.2402ZM143.372 85.3838V85.2402C143.372 84.8711 143.333 84.5247 143.256 84.2012C143.178 83.873 143.058 83.5859 142.894 83.3398C142.734 83.0892 142.529 82.8932 142.278 82.752C142.028 82.6061 141.729 82.5332 141.383 82.5332C141.064 82.5332 140.786 82.5879 140.549 82.6973C140.316 82.8066 140.118 82.9548 139.954 83.1416C139.79 83.3239 139.656 83.5335 139.551 83.7705C139.451 84.0029 139.375 84.2445 139.325 84.4951V86.2656C139.416 86.5846 139.544 86.8854 139.708 87.168C139.872 87.446 140.091 87.6715 140.364 87.8447C140.638 88.0133 140.982 88.0977 141.396 88.0977C141.738 88.0977 142.032 88.027 142.278 87.8857C142.529 87.7399 142.734 87.5417 142.894 87.291C143.058 87.0404 143.178 86.7533 143.256 86.4297C143.333 86.1016 143.372 85.7529 143.372 85.3838ZM147.754 85.4727H149.121L146.981 89H145.614L147.754 85.4727ZM148.813 81.6035H151.903V89H150.639V82.6289H148.813C148.453 82.6289 148.16 82.6904 147.932 82.8135C147.704 82.932 147.537 83.0869 147.433 83.2783C147.328 83.4697 147.275 83.668 147.275 83.873C147.275 84.0736 147.323 84.2673 147.419 84.4541C147.515 84.6364 147.665 84.7868 147.87 84.9053C148.075 85.0238 148.34 85.083 148.663 85.083H150.98V86.1221H148.663C148.239 86.1221 147.863 86.0651 147.535 85.9512C147.207 85.8372 146.929 85.68 146.701 85.4795C146.473 85.2744 146.3 85.0352 146.182 84.7617C146.063 84.4837 146.004 84.1829 146.004 83.8594C146.004 83.5358 146.065 83.2373 146.188 82.9639C146.316 82.6904 146.498 82.4512 146.735 82.2461C146.977 82.041 147.271 81.8838 147.617 81.7744C147.968 81.6605 148.367 81.6035 148.813 81.6035ZM158.151 84.7412V85.7734H154.221V84.7412H158.151ZM155.321 81.6035V89H154.057V81.6035H155.321ZM157.071 85.3838V85.2266C157.071 84.6934 157.149 84.1989 157.304 83.7432C157.459 83.2829 157.682 82.8841 157.974 82.5469C158.27 82.2051 158.623 81.9408 159.033 81.7539C159.448 81.5625 159.913 81.4668 160.428 81.4668C160.952 81.4668 161.421 81.5625 161.836 81.7539C162.251 81.9408 162.604 82.2051 162.896 82.5469C163.192 82.8841 163.417 83.2829 163.572 83.7432C163.727 84.1989 163.805 84.6934 163.805 85.2266V85.3838C163.805 85.917 163.727 86.4115 163.572 86.8672C163.417 87.3229 163.194 87.7217 162.902 88.0635C162.611 88.4007 162.257 88.665 161.843 88.8564C161.428 89.0433 160.961 89.1367 160.441 89.1367C159.922 89.1367 159.455 89.0433 159.04 88.8564C158.625 88.665 158.27 88.4007 157.974 88.0635C157.682 87.7217 157.459 87.3229 157.304 86.8672C157.149 86.4115 157.071 85.917 157.071 85.3838ZM158.343 85.2266V85.3838C158.343 85.7529 158.386 86.1016 158.473 86.4297C158.559 86.7533 158.689 87.0404 158.862 87.291C159.04 87.5417 159.259 87.7399 159.519 87.8857C159.783 88.027 160.09 88.0977 160.441 88.0977C160.792 88.0977 161.098 88.027 161.357 87.8857C161.622 87.7399 161.84 87.5417 162.014 87.291C162.187 87.0404 162.317 86.7533 162.403 86.4297C162.494 86.1016 162.54 85.7529 162.54 85.3838V85.2266C162.54 84.862 162.494 84.5179 162.403 84.1943C162.317 83.8662 162.185 83.5768 162.007 83.3262C161.834 83.071 161.615 82.8704 161.351 82.7246C161.086 82.5788 160.779 82.5059 160.428 82.5059C160.081 82.5059 159.778 82.5788 159.519 82.7246C159.259 82.8704 159.04 83.071 158.862 83.3262C158.689 83.5768 158.559 83.8662 158.473 84.1943C158.386 84.5179 158.343 84.862 158.343 85.2266ZM168.385 81.6035V89H167.113V81.6035H168.385ZM170.866 81.6035V82.6289H164.68V81.6035H170.866ZM178.543 88.0977C178.844 88.0977 179.122 88.0361 179.377 87.9131C179.632 87.79 179.842 87.6214 180.006 87.4072C180.17 87.1885 180.263 86.9401 180.286 86.6621H181.489C181.466 87.0996 181.318 87.5075 181.045 87.8857C180.776 88.2594 180.423 88.5625 179.985 88.7949C179.548 89.0228 179.067 89.1367 178.543 89.1367C177.987 89.1367 177.502 89.0387 177.087 88.8428C176.677 88.6468 176.335 88.3779 176.062 88.0361C175.793 87.6943 175.59 87.3024 175.453 86.8604C175.321 86.4137 175.255 85.9421 175.255 85.4453V85.1582C175.255 84.6615 175.321 84.1921 175.453 83.75C175.59 83.3034 175.793 82.9092 176.062 82.5674C176.335 82.2256 176.677 81.9567 177.087 81.7607C177.502 81.5648 177.987 81.4668 178.543 81.4668C179.122 81.4668 179.628 81.5853 180.061 81.8223C180.493 82.0547 180.833 82.3737 181.079 82.7793C181.33 83.1803 181.466 83.6361 181.489 84.1465H180.286C180.263 83.8411 180.177 83.5654 180.026 83.3193C179.881 83.0732 179.68 82.8773 179.425 82.7314C179.174 82.5811 178.88 82.5059 178.543 82.5059C178.156 82.5059 177.83 82.5833 177.565 82.7383C177.306 82.8887 177.098 83.0938 176.943 83.3535C176.793 83.6087 176.684 83.8936 176.615 84.208C176.551 84.5179 176.52 84.8346 176.52 85.1582V85.4453C176.52 85.7689 176.551 86.0879 176.615 86.4023C176.679 86.7168 176.786 87.0016 176.937 87.2568C177.091 87.512 177.299 87.7171 177.559 87.8721C177.823 88.0225 178.151 88.0977 178.543 88.0977ZM187.751 86.9971L191.162 81.6035H192.434V89H191.162V83.6064L187.751 89H186.493V81.6035H187.751V86.9971ZM199.481 84.8096V85.835H195.571V84.8096H199.481ZM195.838 81.6035V89H194.573V81.6035H195.838ZM200.507 81.6035V89H199.235V81.6035H200.507ZM205.559 81.6035V89H204.287V81.6035H205.559ZM208.04 81.6035V82.6289H201.854V81.6035H208.04ZM211.807 89.1367C211.292 89.1367 210.825 89.0501 210.405 88.877C209.991 88.6992 209.633 88.4508 209.332 88.1318C209.036 87.8128 208.808 87.4346 208.648 86.9971C208.489 86.5596 208.409 86.0811 208.409 85.5615V85.2744C208.409 84.6729 208.498 84.1374 208.676 83.668C208.854 83.194 209.095 82.793 209.4 82.4648C209.706 82.1367 210.052 81.8883 210.439 81.7197C210.827 81.5511 211.228 81.4668 211.643 81.4668C212.171 81.4668 212.627 81.5579 213.01 81.7402C213.397 81.9225 213.714 82.1777 213.96 82.5059C214.206 82.8294 214.388 83.2122 214.507 83.6543C214.625 84.0918 214.685 84.5703 214.685 85.0898V85.6572H209.161V84.625H213.42V84.5293C213.402 84.2012 213.333 83.8822 213.215 83.5723C213.101 83.2624 212.919 83.0072 212.668 82.8066C212.417 82.6061 212.076 82.5059 211.643 82.5059C211.355 82.5059 211.091 82.5674 210.85 82.6904C210.608 82.8089 210.401 82.9867 210.228 83.2236C210.054 83.4606 209.92 83.75 209.824 84.0918C209.729 84.4336 209.681 84.8278 209.681 85.2744V85.5615C209.681 85.9124 209.729 86.2428 209.824 86.5527C209.924 86.8581 210.068 87.127 210.255 87.3594C210.446 87.5918 210.676 87.7741 210.945 87.9062C211.219 88.0384 211.529 88.1045 211.875 88.1045C212.322 88.1045 212.7 88.0133 213.01 87.8311C213.32 87.6488 213.591 87.4049 213.823 87.0996L214.589 87.708C214.429 87.9495 214.227 88.1797 213.98 88.3984C213.734 88.6172 213.431 88.7949 213.071 88.9316C212.716 89.0684 212.294 89.1367 211.807 89.1367ZM217.426 83.0254V91.8438H216.154V81.6035H217.316L217.426 83.0254ZM222.409 85.2402V85.3838C222.409 85.9215 222.345 86.4206 222.218 86.8809C222.09 87.3366 221.903 87.7331 221.657 88.0703C221.416 88.4076 221.117 88.6696 220.762 88.8564C220.406 89.0433 219.998 89.1367 219.538 89.1367C219.069 89.1367 218.654 89.0592 218.294 88.9043C217.934 88.7493 217.629 88.5238 217.378 88.2275C217.127 87.9313 216.927 87.5758 216.776 87.1611C216.631 86.7464 216.53 86.2793 216.476 85.7598V84.9941C216.53 84.4473 216.633 83.9574 216.783 83.5244C216.934 83.0915 217.132 82.7223 217.378 82.417C217.629 82.1071 217.932 81.8724 218.287 81.7129C218.643 81.5488 219.053 81.4668 219.518 81.4668C219.982 81.4668 220.395 81.5579 220.755 81.7402C221.115 81.918 221.418 82.1732 221.664 82.5059C221.91 82.8385 222.095 83.2373 222.218 83.7021C222.345 84.1624 222.409 84.6751 222.409 85.2402ZM221.138 85.3838V85.2402C221.138 84.8711 221.099 84.5247 221.021 84.2012C220.944 83.873 220.823 83.5859 220.659 83.3398C220.5 83.0892 220.295 82.8932 220.044 82.752C219.793 82.6061 219.495 82.5332 219.148 82.5332C218.829 82.5332 218.551 82.5879 218.314 82.6973C218.082 82.8066 217.884 82.9548 217.72 83.1416C217.556 83.3239 217.421 83.5335 217.316 83.7705C217.216 84.0029 217.141 84.2445 217.091 84.4951V86.2656C217.182 86.5846 217.31 86.8854 217.474 87.168C217.638 87.446 217.856 87.6715 218.13 87.8447C218.403 88.0133 218.747 88.0977 219.162 88.0977C219.504 88.0977 219.798 88.027 220.044 87.8857C220.295 87.7399 220.5 87.5417 220.659 87.291C220.823 87.0404 220.944 86.7533 221.021 86.4297C221.099 86.1016 221.138 85.7529 221.138 85.3838ZM227.495 85.7461H225.068L225.055 84.7344H227.037C227.429 84.7344 227.755 84.6956 228.015 84.6182C228.279 84.5407 228.477 84.4245 228.609 84.2695C228.742 84.1146 228.808 83.9232 228.808 83.6953C228.808 83.5176 228.769 83.3626 228.691 83.2305C228.618 83.0938 228.507 82.9821 228.356 82.8955C228.206 82.8044 228.019 82.7383 227.796 82.6973C227.577 82.6517 227.32 82.6289 227.023 82.6289H225.403V89H224.139V81.6035H227.023C227.493 81.6035 227.914 81.6445 228.288 81.7266C228.666 81.8086 228.988 81.9339 229.252 82.1025C229.521 82.2666 229.726 82.4762 229.867 82.7314C230.008 82.9867 230.079 83.2874 230.079 83.6338C230.079 83.8571 230.034 84.069 229.942 84.2695C229.851 84.4701 229.717 84.6478 229.539 84.8027C229.361 84.9577 229.143 85.0853 228.883 85.1855C228.623 85.2812 228.325 85.3428 227.987 85.3701L227.495 85.7461ZM227.495 89H224.61L225.239 87.9746H227.495C227.846 87.9746 228.138 87.9313 228.37 87.8447C228.603 87.7536 228.776 87.626 228.89 87.4619C229.008 87.2933 229.067 87.0928 229.067 86.8604C229.067 86.6279 229.008 86.4297 228.89 86.2656C228.776 86.097 228.603 85.9694 228.37 85.8828C228.138 85.7917 227.846 85.7461 227.495 85.7461H225.574L225.588 84.7344H227.987L228.445 85.1172C228.851 85.1491 229.195 85.2493 229.478 85.418C229.76 85.5866 229.974 85.8008 230.12 86.0605C230.266 86.3158 230.339 86.5938 230.339 86.8945C230.339 87.2409 230.273 87.5462 230.141 87.8105C230.013 88.0749 229.826 88.2959 229.58 88.4736C229.334 88.6468 229.035 88.779 228.685 88.8701C228.334 88.9567 227.937 89 227.495 89ZM236.396 87.7354V83.9277C236.396 83.6361 236.336 83.3831 236.218 83.1689C236.104 82.9502 235.931 82.7816 235.698 82.6631C235.466 82.5446 235.179 82.4854 234.837 82.4854C234.518 82.4854 234.238 82.54 233.996 82.6494C233.759 82.7588 233.572 82.9023 233.436 83.0801C233.303 83.2578 233.237 83.4492 233.237 83.6543H231.973C231.973 83.39 232.041 83.1279 232.178 82.8682C232.314 82.6084 232.51 82.3737 232.766 82.1641C233.025 81.9499 233.335 81.7812 233.695 81.6582C234.06 81.5306 234.465 81.4668 234.912 81.4668C235.45 81.4668 235.924 81.5579 236.334 81.7402C236.749 81.9225 237.072 82.1982 237.305 82.5674C237.542 82.932 237.66 83.39 237.66 83.9414V87.3867C237.66 87.6328 237.681 87.8949 237.722 88.1729C237.767 88.4508 237.833 88.6901 237.92 88.8906V89H236.601C236.537 88.8542 236.487 88.6605 236.45 88.4189C236.414 88.1729 236.396 87.945 236.396 87.7354ZM236.614 84.5156L236.628 85.4043H235.35C234.99 85.4043 234.668 85.4339 234.386 85.4932C234.103 85.5479 233.866 85.6322 233.675 85.7461C233.483 85.86 233.338 86.0036 233.237 86.1768C233.137 86.3454 233.087 86.5436 233.087 86.7715C233.087 87.0039 233.139 87.2158 233.244 87.4072C233.349 87.5986 233.506 87.7513 233.716 87.8652C233.93 87.9746 234.192 88.0293 234.502 88.0293C234.889 88.0293 235.231 87.9473 235.527 87.7832C235.824 87.6191 236.058 87.4186 236.231 87.1816C236.409 86.9447 236.505 86.7145 236.519 86.4912L237.059 87.0996C237.027 87.291 236.94 87.5029 236.799 87.7354C236.658 87.9678 236.468 88.1911 236.231 88.4053C235.999 88.6149 235.721 88.7904 235.397 88.9316C235.078 89.0684 234.718 89.1367 234.317 89.1367C233.816 89.1367 233.376 89.0387 232.998 88.8428C232.624 88.6468 232.333 88.3848 232.123 88.0566C231.918 87.724 231.815 87.3525 231.815 86.9424C231.815 86.5459 231.893 86.1973 232.048 85.8965C232.203 85.5911 232.426 85.3382 232.718 85.1377C233.009 84.9326 233.36 84.7777 233.771 84.6729C234.181 84.568 234.639 84.5156 235.145 84.5156H236.614ZM244.592 81.6035V82.6494H241.017V81.6035H244.592ZM245.706 81.6035V89H244.441V81.6035H245.706ZM240.709 81.6035H241.98L241.789 85.1719C241.757 85.7233 241.705 86.2109 241.632 86.6348C241.563 87.054 241.468 87.4141 241.345 87.7148C241.226 88.0156 241.076 88.2617 240.894 88.4531C240.716 88.64 240.502 88.779 240.251 88.8701C240 88.9567 239.711 89 239.383 89H238.986V87.8857L239.26 87.8652C239.456 87.8516 239.622 87.806 239.759 87.7285C239.9 87.651 240.019 87.5371 240.114 87.3867C240.21 87.2318 240.287 87.0335 240.347 86.792C240.41 86.5505 240.458 86.2633 240.49 85.9307C240.527 85.598 240.554 85.2106 240.572 84.7686L240.709 81.6035ZM247.408 85.3838V85.2266C247.408 84.6934 247.486 84.1989 247.641 83.7432C247.796 83.2829 248.019 82.8841 248.311 82.5469C248.602 82.2051 248.955 81.9408 249.37 81.7539C249.785 81.5625 250.25 81.4668 250.765 81.4668C251.284 81.4668 251.751 81.5625 252.166 81.7539C252.585 81.9408 252.941 82.2051 253.232 82.5469C253.529 82.8841 253.754 83.2829 253.909 83.7432C254.064 84.1989 254.142 84.6934 254.142 85.2266V85.3838C254.142 85.917 254.064 86.4115 253.909 86.8672C253.754 87.3229 253.529 87.7217 253.232 88.0635C252.941 88.4007 252.588 88.665 252.173 88.8564C251.763 89.0433 251.298 89.1367 250.778 89.1367C250.259 89.1367 249.792 89.0433 249.377 88.8564C248.962 88.665 248.607 88.4007 248.311 88.0635C248.019 87.7217 247.796 87.3229 247.641 86.8672C247.486 86.4115 247.408 85.917 247.408 85.3838ZM248.673 85.2266V85.3838C248.673 85.7529 248.716 86.1016 248.803 86.4297C248.889 86.7533 249.019 87.0404 249.192 87.291C249.37 87.5417 249.591 87.7399 249.855 87.8857C250.12 88.027 250.427 88.0977 250.778 88.0977C251.125 88.0977 251.428 88.027 251.688 87.8857C251.952 87.7399 252.171 87.5417 252.344 87.291C252.517 87.0404 252.647 86.7533 252.733 86.4297C252.825 86.1016 252.87 85.7529 252.87 85.3838V85.2266C252.87 84.862 252.825 84.5179 252.733 84.1943C252.647 83.8662 252.515 83.5768 252.337 83.3262C252.164 83.071 251.945 82.8704 251.681 82.7246C251.421 82.5788 251.116 82.5059 250.765 82.5059C250.418 82.5059 250.113 82.5788 249.849 82.7246C249.589 82.8704 249.37 83.071 249.192 83.3262C249.019 83.5768 248.889 83.8662 248.803 84.1943C248.716 84.5179 248.673 84.862 248.673 85.2266ZM259.979 87.3184L262.495 81.6035H263.712L260.417 89H259.542L256.261 81.6035H257.478L259.979 87.3184ZM257.108 81.6035V89H255.844V81.6035H257.108ZM262.81 89V81.6035H264.081V89H262.81ZM275.976 87.9609V89H269.461V88.0908L272.722 84.4609C273.123 84.0143 273.433 83.6361 273.651 83.3262C273.875 83.0117 274.03 82.7314 274.116 82.4854C274.207 82.2347 274.253 81.9795 274.253 81.7197C274.253 81.3916 274.185 81.0954 274.048 80.8311C273.916 80.5622 273.72 80.348 273.46 80.1885C273.2 80.029 272.886 79.9492 272.517 79.9492C272.075 79.9492 271.705 80.0358 271.409 80.209C271.118 80.3776 270.899 80.6146 270.753 80.9199C270.607 81.2253 270.534 81.5762 270.534 81.9727H269.27C269.27 81.4121 269.393 80.8994 269.639 80.4346C269.885 79.9697 270.249 79.6006 270.732 79.3271C271.215 79.0492 271.81 78.9102 272.517 78.9102C273.146 78.9102 273.683 79.0218 274.13 79.2451C274.576 79.4639 274.918 79.7738 275.155 80.1748C275.397 80.5713 275.518 81.0361 275.518 81.5693C275.518 81.861 275.467 82.1572 275.367 82.458C275.271 82.7542 275.137 83.0505 274.964 83.3467C274.795 83.6429 274.597 83.9346 274.369 84.2217C274.146 84.5088 273.907 84.7913 273.651 85.0693L270.985 87.9609H275.976ZM285.19 87.3184L287.706 81.6035H288.923L285.628 89H284.753L281.472 81.6035H282.688L285.19 87.3184ZM282.319 81.6035V89H281.055V81.6035H282.319ZM288.021 89V81.6035H289.292V89H288.021ZM294.398 89.1367C293.883 89.1367 293.416 89.0501 292.997 88.877C292.582 88.6992 292.225 88.4508 291.924 88.1318C291.628 87.8128 291.4 87.4346 291.24 86.9971C291.081 86.5596 291.001 86.0811 291.001 85.5615V85.2744C291.001 84.6729 291.09 84.1374 291.268 83.668C291.445 83.194 291.687 82.793 291.992 82.4648C292.298 82.1367 292.644 81.8883 293.031 81.7197C293.419 81.5511 293.82 81.4668 294.234 81.4668C294.763 81.4668 295.219 81.5579 295.602 81.7402C295.989 81.9225 296.306 82.1777 296.552 82.5059C296.798 82.8294 296.98 83.2122 297.099 83.6543C297.217 84.0918 297.276 84.5703 297.276 85.0898V85.6572H291.753V84.625H296.012V84.5293C295.993 84.2012 295.925 83.8822 295.807 83.5723C295.693 83.2624 295.51 83.0072 295.26 82.8066C295.009 82.6061 294.667 82.5059 294.234 82.5059C293.947 82.5059 293.683 82.5674 293.441 82.6904C293.2 82.8089 292.993 82.9867 292.819 83.2236C292.646 83.4606 292.512 83.75 292.416 84.0918C292.32 84.4336 292.272 84.8278 292.272 85.2744V85.5615C292.272 85.9124 292.32 86.2428 292.416 86.5527C292.516 86.8581 292.66 87.127 292.847 87.3594C293.038 87.5918 293.268 87.7741 293.537 87.9062C293.811 88.0384 294.12 88.1045 294.467 88.1045C294.913 88.1045 295.292 88.0133 295.602 87.8311C295.911 87.6488 296.183 87.4049 296.415 87.0996L297.181 87.708C297.021 87.9495 296.818 88.1797 296.572 88.3984C296.326 88.6172 296.023 88.7949 295.663 88.9316C295.308 89.0684 294.886 89.1367 294.398 89.1367ZM301.713 88.0977C302.014 88.0977 302.292 88.0361 302.547 87.9131C302.802 87.79 303.012 87.6214 303.176 87.4072C303.34 87.1885 303.433 86.9401 303.456 86.6621H304.659C304.636 87.0996 304.488 87.5075 304.215 87.8857C303.946 88.2594 303.593 88.5625 303.155 88.7949C302.718 89.0228 302.237 89.1367 301.713 89.1367C301.157 89.1367 300.672 89.0387 300.257 88.8428C299.847 88.6468 299.505 88.3779 299.231 88.0361C298.963 87.6943 298.76 87.3024 298.623 86.8604C298.491 86.4137 298.425 85.9421 298.425 85.4453V85.1582C298.425 84.6615 298.491 84.1921 298.623 83.75C298.76 83.3034 298.963 82.9092 299.231 82.5674C299.505 82.2256 299.847 81.9567 300.257 81.7607C300.672 81.5648 301.157 81.4668 301.713 81.4668C302.292 81.4668 302.798 81.5853 303.23 81.8223C303.663 82.0547 304.003 82.3737 304.249 82.7793C304.5 83.1803 304.636 83.6361 304.659 84.1465H303.456C303.433 83.8411 303.347 83.5654 303.196 83.3193C303.05 83.0732 302.85 82.8773 302.595 82.7314C302.344 82.5811 302.05 82.5059 301.713 82.5059C301.326 82.5059 301 82.5833 300.735 82.7383C300.476 82.8887 300.268 83.0938 300.113 83.3535C299.963 83.6087 299.854 83.8936 299.785 84.208C299.721 84.5179 299.689 84.8346 299.689 85.1582V85.4453C299.689 85.7689 299.721 86.0879 299.785 86.4023C299.849 86.7168 299.956 87.0016 300.106 87.2568C300.261 87.512 300.469 87.7171 300.729 87.8721C300.993 88.0225 301.321 88.0977 301.713 88.0977ZM307.578 85.4727H308.945L306.806 89H305.438L307.578 85.4727ZM308.638 81.6035H311.728V89H310.463V82.6289H308.638C308.278 82.6289 307.984 82.6904 307.756 82.8135C307.528 82.932 307.362 83.0869 307.257 83.2783C307.152 83.4697 307.1 83.668 307.1 83.873C307.1 84.0736 307.147 84.2673 307.243 84.4541C307.339 84.6364 307.489 84.7868 307.694 84.9053C307.899 85.0238 308.164 85.083 308.487 85.083H310.805V86.1221H308.487C308.063 86.1221 307.688 86.0651 307.359 85.9512C307.031 85.8372 306.753 85.68 306.525 85.4795C306.298 85.2744 306.124 85.0352 306.006 84.7617C305.887 84.4837 305.828 84.1829 305.828 83.8594C305.828 83.5358 305.89 83.2373 306.013 82.9639C306.14 82.6904 306.323 82.4512 306.56 82.2461C306.801 82.041 307.095 81.8838 307.441 81.7744C307.792 81.6605 308.191 81.6035 308.638 81.6035ZM313.874 89V81.6035H315.139V87.9609H318.543V81.6035H319.814V89H313.874ZM320.689 87.9609L320.566 91.1943H319.438V89H318.475V87.9609H320.689ZM326.425 87.7354V83.9277C326.425 83.6361 326.366 83.3831 326.247 83.1689C326.133 82.9502 325.96 82.7816 325.728 82.6631C325.495 82.5446 325.208 82.4854 324.866 82.4854C324.547 82.4854 324.267 82.54 324.025 82.6494C323.788 82.7588 323.602 82.9023 323.465 83.0801C323.333 83.2578 323.267 83.4492 323.267 83.6543H322.002C322.002 83.39 322.07 83.1279 322.207 82.8682C322.344 82.6084 322.54 82.3737 322.795 82.1641C323.055 81.9499 323.365 81.7812 323.725 81.6582C324.089 81.5306 324.495 81.4668 324.941 81.4668C325.479 81.4668 325.953 81.5579 326.363 81.7402C326.778 81.9225 327.102 82.1982 327.334 82.5674C327.571 82.932 327.689 83.39 327.689 83.9414V87.3867C327.689 87.6328 327.71 87.8949 327.751 88.1729C327.797 88.4508 327.863 88.6901 327.949 88.8906V89H326.63C326.566 88.8542 326.516 88.6605 326.479 88.4189C326.443 88.1729 326.425 87.945 326.425 87.7354ZM326.644 84.5156L326.657 85.4043H325.379C325.019 85.4043 324.698 85.4339 324.415 85.4932C324.132 85.5479 323.896 85.6322 323.704 85.7461C323.513 85.86 323.367 86.0036 323.267 86.1768C323.166 86.3454 323.116 86.5436 323.116 86.7715C323.116 87.0039 323.169 87.2158 323.273 87.4072C323.378 87.5986 323.535 87.7513 323.745 87.8652C323.959 87.9746 324.221 88.0293 324.531 88.0293C324.919 88.0293 325.26 87.9473 325.557 87.7832C325.853 87.6191 326.088 87.4186 326.261 87.1816C326.438 86.9447 326.534 86.7145 326.548 86.4912L327.088 87.0996C327.056 87.291 326.969 87.5029 326.828 87.7354C326.687 87.9678 326.498 88.1911 326.261 88.4053C326.028 88.6149 325.75 88.7904 325.427 88.9316C325.108 89.0684 324.748 89.1367 324.347 89.1367C323.845 89.1367 323.406 89.0387 323.027 88.8428C322.654 88.6468 322.362 88.3848 322.152 88.0566C321.947 87.724 321.845 87.3525 321.845 86.9424C321.845 86.5459 321.922 86.1973 322.077 85.8965C322.232 85.5911 322.455 85.3382 322.747 85.1377C323.039 84.9326 323.39 84.7777 323.8 84.6729C324.21 84.568 324.668 84.5156 325.174 84.5156H326.644Z" fill="#4B5563"/>
<circle cx="83.5" cy="64.5" r="3.5" fill="#703E97"/>
<rect width="56" height="120" fill="#703E97"/>
<g clip-path="url(#clip0_872_69161)">
<path d="M27.9996 46.2222C20.1596 46.2222 13.7773 51.8044 13.7773 58.6666C13.7773 65.5288 20.1596 71.1111 27.9996 71.1111C29.4664 71.1094 30.926 70.906 32.3373 70.5066L37.2529 73.6355C37.3871 73.7216 37.542 73.77 37.7013 73.7757C37.8606 73.7813 38.0186 73.7441 38.1585 73.6677C38.2985 73.5914 38.4154 73.4788 38.4969 73.3417C38.5784 73.2047 38.6215 73.0483 38.6218 72.8888V66.9066C39.734 65.8397 40.6215 64.561 41.2322 63.1459C41.8428 61.7308 42.1642 60.2078 42.1773 58.6666C42.2218 51.8044 35.8396 46.2222 27.9996 46.2222ZM27.0485 52.1155C27.0339 51.9426 27.0553 51.7686 27.1114 51.6045C27.1676 51.4403 27.2572 51.2896 27.3746 51.1619C27.492 51.0342 27.6346 50.9322 27.7934 50.8625C27.9523 50.7927 28.1239 50.7567 28.2973 50.7567C28.4708 50.7567 28.6424 50.7927 28.8013 50.8625C28.9601 50.9322 29.1027 51.0342 29.2201 51.1619C29.3375 51.2896 29.4271 51.4403 29.4832 51.6045C29.5394 51.7686 29.5608 51.9426 29.5462 52.1155V60.7999C29.5608 60.9728 29.5394 61.1468 29.4832 61.311C29.4271 61.4751 29.3375 61.6258 29.2201 61.7535C29.1027 61.8813 28.9601 61.9832 28.8013 62.053C28.6424 62.1227 28.4708 62.1587 28.2973 62.1587C28.1239 62.1587 27.9523 62.1227 27.7934 62.053C27.6346 61.9832 27.492 61.8813 27.3746 61.7535C27.2572 61.6258 27.1676 61.4751 27.1114 61.311C27.0553 61.1468 27.0339 60.9728 27.0485 60.7999V52.1155ZM28.3018 67.5377C27.973 67.5377 27.6517 67.4402 27.3783 67.2576C27.105 67.0749 26.8919 66.8153 26.7661 66.5116C26.6403 66.2079 26.6074 65.8737 26.6715 65.5512C26.7356 65.2288 26.894 64.9326 27.1264 64.7001C27.3589 64.4677 27.6551 64.3094 27.9775 64.2452C28.2999 64.1811 28.6342 64.214 28.9379 64.3398C29.2416 64.4656 29.5012 64.6787 29.6839 64.952C29.8665 65.2254 29.964 65.5467 29.964 65.8755C29.9617 66.3148 29.7855 66.7353 29.474 67.0451C29.1626 67.3549 28.7411 67.5288 28.3018 67.5288V67.5377Z" fill="white"/>
</g>
<defs>
<clipPath id="clip0_872_69161">
<rect width="32" height="32" fill="white" transform="translate(12 44)"/>
</clipPath>
</defs>
</svg>
