<svg width="242" height="120" viewBox="0 0 242 120" fill="none" xmlns="http://www.w3.org/2000/svg">
<rect width="242" height="120" rx="20" fill="#F6F0FE"/>
<path d="M28.2539 40.6064L35.1934 29.3594H37.8896V45H35.1934V33.7422L28.2539 45H25.5684V29.3594H28.2539V40.6064ZM48.8037 38.2324V40.2734H42.7881V38.2324H48.8037ZM43.54 33.377V45H40.9512V33.377H43.54ZM50.6729 33.377V45H48.084V33.377H50.6729ZM58.0527 33.377V35.4395H52.4453V33.377H58.0527ZM57.5586 37.0723H60.9746C61.9844 37.0723 62.8366 37.2406 63.5312 37.5771C64.2331 37.9137 64.7666 38.3828 65.1318 38.9844C65.5042 39.5788 65.6904 40.2591 65.6904 41.0254C65.6904 41.5911 65.5866 42.1175 65.3789 42.6045C65.1712 43.0843 64.8669 43.5033 64.4658 43.8613C64.0648 44.2194 63.5706 44.4987 62.9834 44.6992C62.3962 44.8997 61.7266 45 60.9746 45H55.8291V33.377H58.4287V42.9482H60.9746C61.4902 42.9482 61.902 42.8587 62.21 42.6797C62.5179 42.5007 62.7399 42.2679 62.876 41.9814C63.0192 41.695 63.0908 41.3906 63.0908 41.0684C63.0908 40.7389 63.0192 40.4274 62.876 40.1338C62.7399 39.8402 62.5179 39.6003 62.21 39.4141C61.902 39.2279 61.4902 39.1348 60.9746 39.1348H57.5586V37.0723ZM72.6729 45.2148C71.8135 45.2148 71.0365 45.0752 70.3418 44.7959C69.6543 44.5094 69.0671 44.112 68.5801 43.6035C68.1003 43.0951 67.7314 42.4971 67.4736 41.8096C67.2158 41.1221 67.0869 40.3809 67.0869 39.5859V39.1562C67.0869 38.2467 67.2194 37.4232 67.4844 36.6855C67.7493 35.9479 68.1182 35.3177 68.5908 34.7949C69.0635 34.265 69.6221 33.8604 70.2666 33.5811C70.9111 33.3018 71.6094 33.1621 72.3613 33.1621C73.1921 33.1621 73.9189 33.3018 74.542 33.5811C75.165 33.8604 75.6807 34.2542 76.0889 34.7627C76.5042 35.264 76.8122 35.862 77.0127 36.5566C77.2204 37.2513 77.3242 38.0176 77.3242 38.8555V39.9619H68.3438V38.1035H74.7676V37.8994C74.7533 37.4339 74.6602 36.9971 74.4883 36.5889C74.3236 36.1807 74.0693 35.8512 73.7256 35.6006C73.3818 35.3499 72.9235 35.2246 72.3506 35.2246C71.9209 35.2246 71.5378 35.3177 71.2012 35.5039C70.8717 35.6829 70.596 35.9443 70.374 36.2881C70.152 36.6318 69.9801 37.0472 69.8584 37.5342C69.7438 38.014 69.6865 38.5547 69.6865 39.1562V39.5859C69.6865 40.0944 69.7546 40.5671 69.8906 41.0039C70.0339 41.4336 70.2415 41.8096 70.5137 42.1318C70.7858 42.4541 71.1152 42.7083 71.502 42.8945C71.8887 43.0736 72.3291 43.1631 72.8232 43.1631C73.4463 43.1631 74.0013 43.0378 74.4883 42.7871C74.9753 42.5365 75.3978 42.182 75.7559 41.7236L77.1201 43.0449C76.8695 43.4102 76.5436 43.7611 76.1426 44.0977C75.7415 44.4271 75.251 44.6956 74.6709 44.9033C74.098 45.111 73.432 45.2148 72.6729 45.2148ZM82.1367 33.377V45H79.5479V33.377H82.1367ZM89.7207 33.377L84.4893 40.3701H81.5352L81.1914 38.0283H83.3506L86.4873 33.377H89.7207ZM86.6914 45L83.1895 39.9297L85.2305 38.458L90.0967 45H86.6914ZM91.5898 45V33.377H94.1787V42.9375H98.7334V33.377H101.333V45H91.5898ZM102.912 42.9482L102.708 48.4482H100.334V45H98.9375V42.9482H102.912ZM107.413 41.2188L111.979 33.377H114.567V45H111.979V37.1475L107.413 45H104.824V33.377H107.413V41.2188ZM119.981 41.2188L124.547 33.377H127.136V45H124.547V37.1475L119.981 45H117.393V33.377H119.981V41.2188Z" fill="#252349"/>
<path d="M26.3379 62.6035V70H25.0732V62.6035H26.3379ZM31.1914 62.6035L27.6846 66.8418H25.9141L25.7227 65.7344H27.1719L29.6533 62.6035H31.1914ZM29.8311 70L27.1104 66.6504L27.9238 65.7344L31.4375 70H29.8311ZM34.6162 69.2344L36.6738 62.6035H38.0273L35.0605 71.1416C34.9922 71.3239 34.901 71.5199 34.7871 71.7295C34.6777 71.9437 34.5365 72.1465 34.3633 72.3379C34.1901 72.5293 33.9805 72.6842 33.7344 72.8027C33.4928 72.9258 33.2035 72.9873 32.8662 72.9873C32.766 72.9873 32.6383 72.9736 32.4834 72.9463C32.3285 72.9189 32.2191 72.8962 32.1553 72.8779L32.1484 71.8525C32.1849 71.8571 32.2419 71.8617 32.3193 71.8662C32.4014 71.8753 32.4583 71.8799 32.4902 71.8799C32.7773 71.8799 33.0212 71.8411 33.2217 71.7637C33.4222 71.6908 33.5908 71.5654 33.7275 71.3877C33.8688 71.2145 33.9896 70.9753 34.0898 70.6699L34.6162 69.2344ZM33.1055 62.6035L35.0264 68.3457L35.3545 69.6787L34.4453 70.1436L31.7246 62.6035H33.1055ZM40.4336 64.0254V72.8438H39.1621V62.6035H40.3242L40.4336 64.0254ZM45.417 66.2402V66.3838C45.417 66.9215 45.3532 67.4206 45.2256 67.8809C45.098 68.3366 44.9111 68.7331 44.665 69.0703C44.4235 69.4076 44.125 69.6696 43.7695 69.8564C43.4141 70.0433 43.0062 70.1367 42.5459 70.1367C42.0765 70.1367 41.6618 70.0592 41.3018 69.9043C40.9417 69.7493 40.6364 69.5238 40.3857 69.2275C40.1351 68.9313 39.9346 68.5758 39.7842 68.1611C39.6383 67.7464 39.5381 67.2793 39.4834 66.7598V65.9941C39.5381 65.4473 39.6406 64.9574 39.791 64.5244C39.9414 64.0915 40.1396 63.7223 40.3857 63.417C40.6364 63.1071 40.9395 62.8724 41.2949 62.7129C41.6504 62.5488 42.0605 62.4668 42.5254 62.4668C42.9902 62.4668 43.4027 62.5579 43.7627 62.7402C44.1227 62.918 44.4258 63.1732 44.6719 63.5059C44.918 63.8385 45.1025 64.2373 45.2256 64.7021C45.3532 65.1624 45.417 65.6751 45.417 66.2402ZM44.1455 66.3838V66.2402C44.1455 65.8711 44.1068 65.5247 44.0293 65.2012C43.9518 64.873 43.8311 64.5859 43.667 64.3398C43.5075 64.0892 43.3024 63.8932 43.0518 63.752C42.8011 63.6061 42.5026 63.5332 42.1562 63.5332C41.8372 63.5332 41.5592 63.5879 41.3223 63.6973C41.0898 63.8066 40.8916 63.9548 40.7275 64.1416C40.5635 64.3239 40.429 64.5335 40.3242 64.7705C40.224 65.0029 40.1488 65.2445 40.0986 65.4951V67.2656C40.1898 67.5846 40.3174 67.8854 40.4814 68.168C40.6455 68.446 40.8643 68.6715 41.1377 68.8447C41.4111 69.0133 41.7552 69.0977 42.1699 69.0977C42.5117 69.0977 42.8057 69.027 43.0518 68.8857C43.3024 68.7399 43.5075 68.5417 43.667 68.291C43.8311 68.0404 43.9518 67.7533 44.0293 67.4297C44.1068 67.1016 44.1455 66.7529 44.1455 66.3838ZM49.9902 69.0977C50.291 69.0977 50.569 69.0361 50.8242 68.9131C51.0794 68.79 51.2891 68.6214 51.4531 68.4072C51.6172 68.1885 51.7106 67.9401 51.7334 67.6621H52.9365C52.9137 68.0996 52.7656 68.5075 52.4922 68.8857C52.2233 69.2594 51.8701 69.5625 51.4326 69.7949C50.9951 70.0228 50.5143 70.1367 49.9902 70.1367C49.4342 70.1367 48.9489 70.0387 48.5342 69.8428C48.124 69.6468 47.7822 69.3779 47.5088 69.0361C47.2399 68.6943 47.0371 68.3024 46.9004 67.8604C46.7682 67.4137 46.7021 66.9421 46.7021 66.4453V66.1582C46.7021 65.6615 46.7682 65.1921 46.9004 64.75C47.0371 64.3034 47.2399 63.9092 47.5088 63.5674C47.7822 63.2256 48.124 62.9567 48.5342 62.7607C48.9489 62.5648 49.4342 62.4668 49.9902 62.4668C50.569 62.4668 51.0749 62.5853 51.5078 62.8223C51.9408 63.0547 52.2803 63.3737 52.5264 63.7793C52.777 64.1803 52.9137 64.6361 52.9365 65.1465H51.7334C51.7106 64.8411 51.624 64.5654 51.4736 64.3193C51.3278 64.0732 51.1273 63.8773 50.8721 63.7314C50.6214 63.5811 50.3275 63.5059 49.9902 63.5059C49.6029 63.5059 49.277 63.5833 49.0127 63.7383C48.7529 63.8887 48.5456 64.0938 48.3906 64.3535C48.2402 64.6087 48.1309 64.8936 48.0625 65.208C47.9987 65.5179 47.9668 65.8346 47.9668 66.1582V66.4453C47.9668 66.7689 47.9987 67.0879 48.0625 67.4023C48.1263 67.7168 48.2334 68.0016 48.3838 68.2568C48.5387 68.512 48.7461 68.7171 49.0059 68.8721C49.2702 69.0225 49.5983 69.0977 49.9902 69.0977ZM61.8506 59.9922V70H60.5859V61.5713L58.0361 62.501V61.3594L61.6523 59.9922H61.8506ZM72.0908 68.9609V70H65.5762V69.0908L68.8369 65.4609C69.238 65.0143 69.5479 64.6361 69.7666 64.3262C69.9899 64.0117 70.1449 63.7314 70.2314 63.4854C70.3226 63.2347 70.3682 62.9795 70.3682 62.7197C70.3682 62.3916 70.2998 62.0954 70.1631 61.8311C70.0309 61.5622 69.835 61.348 69.5752 61.1885C69.3154 61.029 69.001 60.9492 68.6318 60.9492C68.1898 60.9492 67.8206 61.0358 67.5244 61.209C67.2327 61.3776 67.014 61.6146 66.8682 61.9199C66.7223 62.2253 66.6494 62.5762 66.6494 62.9727H65.3848C65.3848 62.4121 65.5078 61.8994 65.7539 61.4346C66 60.9697 66.3646 60.6006 66.8477 60.3271C67.3307 60.0492 67.9255 59.9102 68.6318 59.9102C69.2607 59.9102 69.7985 60.0218 70.2451 60.2451C70.6917 60.4639 71.0335 60.7738 71.2705 61.1748C71.512 61.5713 71.6328 62.0361 71.6328 62.5693C71.6328 62.861 71.5827 63.1572 71.4824 63.458C71.3867 63.7542 71.2523 64.0505 71.0791 64.3467C70.9105 64.6429 70.7122 64.9346 70.4844 65.2217C70.2611 65.5088 70.0218 65.7913 69.7666 66.0693L67.1006 68.9609H72.0908ZM78.4209 67.9971L81.832 62.6035H83.1035V70H81.832V64.6064L78.4209 70H77.1631V62.6035H78.4209V67.9971ZM90.1514 65.8096V66.835H86.2412V65.8096H90.1514ZM86.5078 62.6035V70H85.2432V62.6035H86.5078ZM91.1768 62.6035V70H89.9053V62.6035H91.1768ZM95.7021 62.6035V63.6426H92.4551V62.6035H95.7021ZM95.5791 65.1465H97.8008C98.3978 65.1465 98.9014 65.2513 99.3115 65.4609C99.7217 65.666 100.032 65.9508 100.241 66.3154C100.455 66.6755 100.562 67.0856 100.562 67.5459C100.562 67.8877 100.503 68.209 100.385 68.5098C100.266 68.806 100.089 69.0658 99.8516 69.2891C99.6191 69.5124 99.3298 69.6878 98.9834 69.8154C98.6416 69.9385 98.2474 70 97.8008 70H94.6494V62.6035H95.9209V68.9609H97.8008C98.1654 68.9609 98.4548 68.8949 98.6689 68.7627C98.8877 68.6305 99.0449 68.4596 99.1406 68.25C99.2363 68.0404 99.2842 67.8216 99.2842 67.5938C99.2842 67.3704 99.2363 67.1517 99.1406 66.9375C99.0449 66.7233 98.8877 66.5456 98.6689 66.4043C98.4548 66.2585 98.1654 66.1855 97.8008 66.1855H95.5791V65.1465ZM104.979 70.1367C104.464 70.1367 103.996 70.0501 103.577 69.877C103.162 69.6992 102.805 69.4508 102.504 69.1318C102.208 68.8128 101.98 68.4346 101.82 67.9971C101.661 67.5596 101.581 67.0811 101.581 66.5615V66.2744C101.581 65.6729 101.67 65.1374 101.848 64.668C102.025 64.194 102.267 63.793 102.572 63.4648C102.878 63.1367 103.224 62.8883 103.611 62.7197C103.999 62.5511 104.4 62.4668 104.814 62.4668C105.343 62.4668 105.799 62.5579 106.182 62.7402C106.569 62.9225 106.886 63.1777 107.132 63.5059C107.378 63.8294 107.56 64.2122 107.679 64.6543C107.797 65.0918 107.856 65.5703 107.856 66.0898V66.6572H102.333V65.625H106.592V65.5293C106.574 65.2012 106.505 64.8822 106.387 64.5723C106.273 64.2624 106.09 64.0072 105.84 63.8066C105.589 63.6061 105.247 63.5059 104.814 63.5059C104.527 63.5059 104.263 63.5674 104.021 63.6904C103.78 63.8089 103.573 63.9867 103.399 64.2236C103.226 64.4606 103.092 64.75 102.996 65.0918C102.9 65.4336 102.853 65.8278 102.853 66.2744V66.5615C102.853 66.9124 102.9 67.2428 102.996 67.5527C103.096 67.8581 103.24 68.127 103.427 68.3594C103.618 68.5918 103.848 68.7741 104.117 68.9062C104.391 69.0384 104.701 69.1045 105.047 69.1045C105.493 69.1045 105.872 69.0133 106.182 68.8311C106.492 68.6488 106.763 68.4049 106.995 68.0996L107.761 68.708C107.601 68.9495 107.398 69.1797 107.152 69.3984C106.906 69.6172 106.603 69.7949 106.243 69.9316C105.888 70.0684 105.466 70.1367 104.979 70.1367ZM110.707 62.6035V70H109.442V62.6035H110.707ZM115.561 62.6035L112.054 66.8418H110.283L110.092 65.7344H111.541L114.022 62.6035H115.561ZM114.2 70L111.479 66.6504L112.293 65.7344L115.807 70H114.2ZM117.017 70V62.6035H118.281V68.9609H121.686V62.6035H122.957V70H117.017ZM123.832 68.9609L123.709 72.1943H122.581V70H121.617V68.9609H123.832ZM126.573 67.9971L129.984 62.6035H131.256V70H129.984V64.6064L126.573 70H125.315V62.6035H126.573V67.9971ZM134.653 67.9971L138.064 62.6035H139.336V70H138.064V64.6064L134.653 70H133.396V62.6035H134.653V67.9971ZM137.374 59.9238H138.399C138.399 60.2793 138.317 60.596 138.153 60.874C137.989 61.1475 137.755 61.3617 137.449 61.5166C137.144 61.6715 136.782 61.749 136.362 61.749C135.729 61.749 135.228 61.5804 134.858 61.2432C134.494 60.9014 134.312 60.4616 134.312 59.9238H135.337C135.337 60.1927 135.414 60.4297 135.569 60.6348C135.724 60.8398 135.989 60.9424 136.362 60.9424C136.727 60.9424 136.987 60.8398 137.142 60.6348C137.297 60.4297 137.374 60.1927 137.374 59.9238ZM150.417 62.6035V70H149.152V62.6035H150.417ZM149.986 66.001V67.04C149.731 67.1357 149.471 67.2223 149.207 67.2998C148.947 67.3727 148.672 67.432 148.38 67.4775C148.093 67.5186 147.781 67.5391 147.443 67.5391C146.86 67.5391 146.354 67.4388 145.926 67.2383C145.497 67.0332 145.167 66.7256 144.935 66.3154C144.702 65.9007 144.586 65.3789 144.586 64.75V62.5898H145.851V64.75C145.851 65.1602 145.912 65.4928 146.035 65.748C146.158 66.0033 146.338 66.1924 146.575 66.3154C146.812 66.4339 147.102 66.4932 147.443 66.4932C147.771 66.4932 148.079 66.4727 148.366 66.4316C148.658 66.3861 148.936 66.3268 149.2 66.2539C149.469 66.181 149.731 66.0967 149.986 66.001ZM155.523 70.1367C155.008 70.1367 154.541 70.0501 154.122 69.877C153.707 69.6992 153.35 69.4508 153.049 69.1318C152.753 68.8128 152.525 68.4346 152.365 67.9971C152.206 67.5596 152.126 67.0811 152.126 66.5615V66.2744C152.126 65.6729 152.215 65.1374 152.393 64.668C152.57 64.194 152.812 63.793 153.117 63.4648C153.423 63.1367 153.769 62.8883 154.156 62.7197C154.544 62.5511 154.945 62.4668 155.359 62.4668C155.888 62.4668 156.344 62.5579 156.727 62.7402C157.114 62.9225 157.431 63.1777 157.677 63.5059C157.923 63.8294 158.105 64.2122 158.224 64.6543C158.342 65.0918 158.401 65.5703 158.401 66.0898V66.6572H152.878V65.625H157.137V65.5293C157.118 65.2012 157.05 64.8822 156.932 64.5723C156.818 64.2624 156.635 64.0072 156.385 63.8066C156.134 63.6061 155.792 63.5059 155.359 63.5059C155.072 63.5059 154.808 63.5674 154.566 63.6904C154.325 63.8089 154.118 63.9867 153.944 64.2236C153.771 64.4606 153.637 64.75 153.541 65.0918C153.445 65.4336 153.397 65.8278 153.397 66.2744V66.5615C153.397 66.9124 153.445 67.2428 153.541 67.5527C153.641 67.8581 153.785 68.127 153.972 68.3594C154.163 68.5918 154.393 68.7741 154.662 68.9062C154.936 69.0384 155.245 69.1045 155.592 69.1045C156.038 69.1045 156.417 69.0133 156.727 68.8311C157.036 68.6488 157.308 68.4049 157.54 68.0996L158.306 68.708C158.146 68.9495 157.943 69.1797 157.697 69.3984C157.451 69.6172 157.148 69.7949 156.788 69.9316C156.433 70.0684 156.011 70.1367 155.523 70.1367ZM161.143 64.0254V72.8438H159.871V62.6035H161.033L161.143 64.0254ZM166.126 66.2402V66.3838C166.126 66.9215 166.062 67.4206 165.935 67.8809C165.807 68.3366 165.62 68.7331 165.374 69.0703C165.132 69.4076 164.834 69.6696 164.479 69.8564C164.123 70.0433 163.715 70.1367 163.255 70.1367C162.785 70.1367 162.371 70.0592 162.011 69.9043C161.651 69.7493 161.345 69.5238 161.095 69.2275C160.844 68.9313 160.644 68.5758 160.493 68.1611C160.347 67.7464 160.247 67.2793 160.192 66.7598V65.9941C160.247 65.4473 160.35 64.9574 160.5 64.5244C160.65 64.0915 160.849 63.7223 161.095 63.417C161.345 63.1071 161.648 62.8724 162.004 62.7129C162.359 62.5488 162.77 62.4668 163.234 62.4668C163.699 62.4668 164.112 62.5579 164.472 62.7402C164.832 62.918 165.135 63.1732 165.381 63.5059C165.627 63.8385 165.812 64.2373 165.935 64.7021C166.062 65.1624 166.126 65.6751 166.126 66.2402ZM164.854 66.3838V66.2402C164.854 65.8711 164.816 65.5247 164.738 65.2012C164.661 64.873 164.54 64.5859 164.376 64.3398C164.216 64.0892 164.011 63.8932 163.761 63.752C163.51 63.6061 163.212 63.5332 162.865 63.5332C162.546 63.5332 162.268 63.5879 162.031 63.6973C161.799 63.8066 161.601 63.9548 161.437 64.1416C161.272 64.3239 161.138 64.5335 161.033 64.7705C160.933 65.0029 160.858 65.2445 160.808 65.4951V67.2656C160.899 67.5846 161.026 67.8854 161.19 68.168C161.354 68.446 161.573 68.6715 161.847 68.8447C162.12 69.0133 162.464 69.0977 162.879 69.0977C163.221 69.0977 163.515 69.027 163.761 68.8857C164.011 68.7399 164.216 68.5417 164.376 68.291C164.54 68.0404 164.661 67.7533 164.738 67.4297C164.816 67.1016 164.854 66.7529 164.854 66.3838ZM170.809 70.1367C170.294 70.1367 169.826 70.0501 169.407 69.877C168.993 69.6992 168.635 69.4508 168.334 69.1318C168.038 68.8128 167.81 68.4346 167.65 67.9971C167.491 67.5596 167.411 67.0811 167.411 66.5615V66.2744C167.411 65.6729 167.5 65.1374 167.678 64.668C167.855 64.194 168.097 63.793 168.402 63.4648C168.708 63.1367 169.054 62.8883 169.441 62.7197C169.829 62.5511 170.23 62.4668 170.645 62.4668C171.173 62.4668 171.629 62.5579 172.012 62.7402C172.399 62.9225 172.716 63.1777 172.962 63.5059C173.208 63.8294 173.39 64.2122 173.509 64.6543C173.627 65.0918 173.687 65.5703 173.687 66.0898V66.6572H168.163V65.625H172.422V65.5293C172.404 65.2012 172.335 64.8822 172.217 64.5723C172.103 64.2624 171.921 64.0072 171.67 63.8066C171.419 63.6061 171.077 63.5059 170.645 63.5059C170.357 63.5059 170.093 63.5674 169.852 63.6904C169.61 63.8089 169.403 63.9867 169.229 64.2236C169.056 64.4606 168.922 64.75 168.826 65.0918C168.73 65.4336 168.683 65.8278 168.683 66.2744V66.5615C168.683 66.9124 168.73 67.2428 168.826 67.5527C168.926 67.8581 169.07 68.127 169.257 68.3594C169.448 68.5918 169.678 68.7741 169.947 68.9062C170.221 69.0384 170.531 69.1045 170.877 69.1045C171.324 69.1045 171.702 69.0133 172.012 68.8311C172.322 68.6488 172.593 68.4049 172.825 68.0996L173.591 68.708C173.431 68.9495 173.229 69.1797 172.982 69.3984C172.736 69.6172 172.433 69.7949 172.073 69.9316C171.718 70.0684 171.296 70.1367 170.809 70.1367ZM177.925 66.4658H176.564V65.6865H177.822C178.173 65.6865 178.451 65.6432 178.656 65.5566C178.861 65.4655 179.007 65.3402 179.094 65.1807C179.18 65.0212 179.224 64.8343 179.224 64.6201C179.224 64.4287 179.174 64.2487 179.073 64.0801C178.978 63.9069 178.823 63.7679 178.608 63.6631C178.394 63.5537 178.107 63.499 177.747 63.499C177.455 63.499 177.191 63.5514 176.954 63.6562C176.717 63.7565 176.528 63.8955 176.387 64.0732C176.25 64.2464 176.182 64.4424 176.182 64.6611H174.917C174.917 64.21 175.045 63.8226 175.3 63.499C175.56 63.1709 175.904 62.918 176.332 62.7402C176.765 62.5625 177.237 62.4736 177.747 62.4736C178.175 62.4736 178.558 62.5215 178.896 62.6172C179.237 62.7083 179.527 62.8451 179.764 63.0273C180.001 63.2051 180.181 63.4284 180.304 63.6973C180.431 63.9616 180.495 64.2692 180.495 64.6201C180.495 64.8708 180.436 65.1077 180.317 65.3311C180.199 65.5544 180.028 65.7526 179.805 65.9258C179.581 66.0944 179.31 66.2266 178.991 66.3223C178.677 66.418 178.321 66.4658 177.925 66.4658ZM176.564 65.9873H177.925C178.367 65.9873 178.757 66.0306 179.094 66.1172C179.431 66.1992 179.714 66.3223 179.941 66.4863C180.169 66.6504 180.34 66.8532 180.454 67.0947C180.573 67.3317 180.632 67.6051 180.632 67.915C180.632 68.2614 180.561 68.5736 180.42 68.8516C180.283 69.125 180.087 69.3574 179.832 69.5488C179.577 69.7402 179.271 69.8861 178.916 69.9863C178.565 70.0866 178.175 70.1367 177.747 70.1367C177.269 70.1367 176.804 70.0547 176.353 69.8906C175.901 69.7266 175.53 69.4736 175.238 69.1318C174.947 68.7855 174.801 68.3457 174.801 67.8125H176.065C176.065 68.0358 176.136 68.2477 176.277 68.4482C176.419 68.6488 176.615 68.8105 176.865 68.9336C177.12 69.0566 177.414 69.1182 177.747 69.1182C178.103 69.1182 178.399 69.0635 178.636 68.9541C178.873 68.8447 179.05 68.6989 179.169 68.5166C179.292 68.3343 179.354 68.1361 179.354 67.9219C179.354 67.6439 179.299 67.4206 179.189 67.252C179.08 67.0833 178.911 66.9603 178.684 66.8828C178.46 66.8008 178.173 66.7598 177.822 66.7598H176.564V65.9873ZM187.078 62.6035H188.343L188.233 65.3721C188.206 66.0739 188.126 66.68 187.994 67.1904C187.862 67.7008 187.693 68.1361 187.488 68.4961C187.283 68.8516 187.053 69.1501 186.798 69.3916C186.547 69.6331 186.287 69.8359 186.019 70H185.39L185.424 68.9678L185.684 68.9609C185.834 68.7832 185.98 68.6009 186.121 68.4141C186.262 68.2227 186.392 67.9971 186.511 67.7373C186.629 67.473 186.727 67.1517 186.805 66.7734C186.887 66.3906 186.939 65.9235 186.962 65.3721L187.078 62.6035ZM187.393 62.6035H191.843V70H190.578V63.7725H187.393V62.6035ZM185.103 68.9609H192.793V72.1807H191.528V70H186.367V72.1807H185.096L185.103 68.9609ZM197.264 70.1367C196.749 70.1367 196.282 70.0501 195.862 69.877C195.448 69.6992 195.09 69.4508 194.789 69.1318C194.493 68.8128 194.265 68.4346 194.105 67.9971C193.946 67.5596 193.866 67.0811 193.866 66.5615V66.2744C193.866 65.6729 193.955 65.1374 194.133 64.668C194.311 64.194 194.552 63.793 194.857 63.4648C195.163 63.1367 195.509 62.8883 195.896 62.7197C196.284 62.5511 196.685 62.4668 197.1 62.4668C197.628 62.4668 198.084 62.5579 198.467 62.7402C198.854 62.9225 199.171 63.1777 199.417 63.5059C199.663 63.8294 199.845 64.2122 199.964 64.6543C200.082 65.0918 200.142 65.5703 200.142 66.0898V66.6572H194.618V65.625H198.877V65.5293C198.859 65.2012 198.79 64.8822 198.672 64.5723C198.558 64.2624 198.376 64.0072 198.125 63.8066C197.874 63.6061 197.533 63.5059 197.1 63.5059C196.812 63.5059 196.548 63.5674 196.307 63.6904C196.065 63.8089 195.858 63.9867 195.685 64.2236C195.511 64.4606 195.377 64.75 195.281 65.0918C195.186 65.4336 195.138 65.8278 195.138 66.2744V66.5615C195.138 66.9124 195.186 67.2428 195.281 67.5527C195.382 67.8581 195.525 68.127 195.712 68.3594C195.903 68.5918 196.133 68.7741 196.402 68.9062C196.676 69.0384 196.986 69.1045 197.332 69.1045C197.779 69.1045 198.157 69.0133 198.467 68.8311C198.777 68.6488 199.048 68.4049 199.28 68.0996L200.046 68.708C199.886 68.9495 199.684 69.1797 199.438 69.3984C199.191 69.6172 198.888 69.7949 198.528 69.9316C198.173 70.0684 197.751 70.1367 197.264 70.1367ZM206.636 65.8096V66.835H202.726V65.8096H206.636ZM202.992 62.6035V70H201.728V62.6035H202.992ZM207.661 62.6035V70H206.39V62.6035H207.661ZM210.737 65.1465H212.959C213.556 65.1465 214.06 65.2513 214.47 65.4609C214.88 65.666 215.19 65.9508 215.399 66.3154C215.614 66.6755 215.721 67.0856 215.721 67.5459C215.721 67.8877 215.661 68.209 215.543 68.5098C215.424 68.806 215.247 69.0658 215.01 69.2891C214.777 69.5124 214.488 69.6878 214.142 69.8154C213.8 69.9385 213.406 70 212.959 70H209.814V62.6035H211.079V68.9609H212.959C213.324 68.9609 213.615 68.8949 213.834 68.7627C214.053 68.6305 214.21 68.4596 214.306 68.25C214.401 68.0404 214.449 67.8216 214.449 67.5938C214.449 67.3704 214.401 67.1517 214.306 66.9375C214.21 66.7233 214.053 66.5456 213.834 66.4043C213.615 66.2585 213.324 66.1855 212.959 66.1855H210.737V65.1465ZM24.916 86.0215V85.9531C24.916 84.9596 25.0277 84.0618 25.251 83.2598C25.4743 82.4531 25.7591 81.7467 26.1055 81.1406C26.4518 80.5345 26.8164 80.0332 27.1992 79.6367C27.582 79.2357 27.9352 78.9463 28.2588 78.7686L28.5254 79.6025C28.2565 79.8076 27.9831 80.0902 27.7051 80.4502C27.4316 80.8102 27.1787 81.2523 26.9463 81.7764C26.7184 82.3005 26.5339 82.9089 26.3926 83.6016C26.2513 84.2943 26.1807 85.0736 26.1807 85.9395V86.0352C26.1807 86.901 26.2513 87.6826 26.3926 88.3799C26.5339 89.0726 26.7184 89.6833 26.9463 90.2119C27.1787 90.7406 27.4316 91.1895 27.7051 91.5586C27.9831 91.9323 28.2565 92.2285 28.5254 92.4473L28.2588 93.2129C27.9352 93.0352 27.582 92.7458 27.1992 92.3447C26.8164 91.9482 26.4518 91.4469 26.1055 90.8408C25.7591 90.2393 25.4743 89.5352 25.251 88.7285C25.0277 87.9219 24.916 87.0195 24.916 86.0215ZM36.1475 88.9609V90H29.6328V89.0908L32.8936 85.4609C33.2946 85.0143 33.6045 84.6361 33.8232 84.3262C34.0465 84.0117 34.2015 83.7314 34.2881 83.4854C34.3792 83.2347 34.4248 82.9795 34.4248 82.7197C34.4248 82.3916 34.3564 82.0954 34.2197 81.8311C34.0876 81.5622 33.8916 81.348 33.6318 81.1885C33.3721 81.029 33.0576 80.9492 32.6885 80.9492C32.2464 80.9492 31.8773 81.0358 31.5811 81.209C31.2894 81.3776 31.0706 81.6146 30.9248 81.9199C30.779 82.2253 30.7061 82.5762 30.7061 82.9727H29.4414C29.4414 82.4121 29.5645 81.8994 29.8105 81.4346C30.0566 80.9697 30.4212 80.6006 30.9043 80.3271C31.3874 80.0492 31.9821 79.9102 32.6885 79.9102C33.3174 79.9102 33.8551 80.0218 34.3018 80.2451C34.7484 80.4639 35.0902 80.7738 35.3271 81.1748C35.5687 81.5713 35.6895 82.0361 35.6895 82.5693C35.6895 82.861 35.6393 83.1572 35.5391 83.458C35.4434 83.7542 35.3089 84.0505 35.1357 84.3467C34.9671 84.6429 34.7689 84.9346 34.541 85.2217C34.3177 85.5088 34.0785 85.7913 33.8232 86.0693L31.1572 88.9609H36.1475ZM43.1885 89.2344L45.2461 82.6035H46.5996L43.6328 91.1416C43.5645 91.3239 43.4733 91.5199 43.3594 91.7295C43.25 91.9437 43.1087 92.1465 42.9355 92.3379C42.7624 92.5293 42.5527 92.6842 42.3066 92.8027C42.0651 92.9258 41.7757 92.9873 41.4385 92.9873C41.3382 92.9873 41.2106 92.9736 41.0557 92.9463C40.9007 92.9189 40.7913 92.8962 40.7275 92.8779L40.7207 91.8525C40.7572 91.8571 40.8141 91.8617 40.8916 91.8662C40.9736 91.8753 41.0306 91.8799 41.0625 91.8799C41.3496 91.8799 41.5934 91.8411 41.7939 91.7637C41.9945 91.6908 42.1631 91.5654 42.2998 91.3877C42.4411 91.2145 42.5618 90.9753 42.6621 90.6699L43.1885 89.2344ZM41.6777 82.6035L43.5986 88.3457L43.9268 89.6787L43.0176 90.1436L40.2969 82.6035H41.6777ZM52.6699 82.6035V83.6494H48.9307V82.6035H52.6699ZM49.1152 82.6035V90H47.8506V82.6035H49.1152ZM53.791 82.6035V90H52.5195V82.6035H53.791ZM60.1826 88.7354V84.9277C60.1826 84.6361 60.1234 84.3831 60.0049 84.1689C59.891 83.9502 59.7178 83.7816 59.4854 83.6631C59.2529 83.5446 58.9658 83.4854 58.624 83.4854C58.305 83.4854 58.0247 83.54 57.7832 83.6494C57.5462 83.7588 57.3594 83.9023 57.2227 84.0801C57.0905 84.2578 57.0244 84.4492 57.0244 84.6543H55.7598C55.7598 84.39 55.8281 84.1279 55.9648 83.8682C56.1016 83.6084 56.2975 83.3737 56.5527 83.1641C56.8125 82.9499 57.1224 82.7812 57.4824 82.6582C57.847 82.5306 58.2526 82.4668 58.6992 82.4668C59.237 82.4668 59.7109 82.5579 60.1211 82.7402C60.5358 82.9225 60.8594 83.1982 61.0918 83.5674C61.3288 83.932 61.4473 84.39 61.4473 84.9414V88.3867C61.4473 88.6328 61.4678 88.8949 61.5088 89.1729C61.5544 89.4508 61.6204 89.6901 61.707 89.8906V90H60.3877C60.3239 89.8542 60.2738 89.6605 60.2373 89.4189C60.2008 89.1729 60.1826 88.945 60.1826 88.7354ZM60.4014 85.5156L60.415 86.4043H59.1367C58.7767 86.4043 58.4554 86.4339 58.1729 86.4932C57.8903 86.5479 57.6533 86.6322 57.4619 86.7461C57.2705 86.86 57.1247 87.0036 57.0244 87.1768C56.9242 87.3454 56.874 87.5436 56.874 87.7715C56.874 88.0039 56.9264 88.2158 57.0312 88.4072C57.1361 88.5986 57.2933 88.7513 57.5029 88.8652C57.7171 88.9746 57.9792 89.0293 58.2891 89.0293C58.6764 89.0293 59.0182 88.9473 59.3145 88.7832C59.6107 88.6191 59.8454 88.4186 60.0186 88.1816C60.1963 87.9447 60.292 87.7145 60.3057 87.4912L60.8457 88.0996C60.8138 88.291 60.7272 88.5029 60.5859 88.7354C60.4447 88.9678 60.2555 89.1911 60.0186 89.4053C59.7861 89.6149 59.5081 89.7904 59.1846 89.9316C58.8656 90.0684 58.5055 90.1367 58.1045 90.1367C57.6032 90.1367 57.1634 90.0387 56.7852 89.8428C56.4115 89.6468 56.1198 89.3848 55.9102 89.0566C55.7051 88.724 55.6025 88.3525 55.6025 87.9424C55.6025 87.5459 55.68 87.1973 55.835 86.8965C55.9899 86.5911 56.2132 86.3382 56.5049 86.1377C56.7965 85.9326 57.1475 85.7777 57.5576 85.6729C57.9678 85.568 58.4258 85.5156 58.9316 85.5156H60.4014ZM64.8105 82.6035V90H63.5459V82.6035H64.8105ZM69.6641 82.6035L66.1572 86.8418H64.3867L64.1953 85.7344H65.6445L68.126 82.6035H69.6641ZM68.3037 90L65.583 86.6504L66.3965 85.7344L69.9102 90H68.3037ZM70.5254 86.3838V86.2266C70.5254 85.6934 70.6029 85.1989 70.7578 84.7432C70.9128 84.2829 71.1361 83.8841 71.4277 83.5469C71.7194 83.2051 72.0726 82.9408 72.4873 82.7539C72.902 82.5625 73.3669 82.4668 73.8818 82.4668C74.4014 82.4668 74.8685 82.5625 75.2832 82.7539C75.7025 82.9408 76.0579 83.2051 76.3496 83.5469C76.6458 83.8841 76.8714 84.2829 77.0264 84.7432C77.1813 85.1989 77.2588 85.6934 77.2588 86.2266V86.3838C77.2588 86.917 77.1813 87.4115 77.0264 87.8672C76.8714 88.3229 76.6458 88.7217 76.3496 89.0635C76.0579 89.4007 75.7048 89.665 75.29 89.8564C74.8799 90.0433 74.415 90.1367 73.8955 90.1367C73.376 90.1367 72.9089 90.0433 72.4941 89.8564C72.0794 89.665 71.724 89.4007 71.4277 89.0635C71.1361 88.7217 70.9128 88.3229 70.7578 87.8672C70.6029 87.4115 70.5254 86.917 70.5254 86.3838ZM71.79 86.2266V86.3838C71.79 86.7529 71.8333 87.1016 71.9199 87.4297C72.0065 87.7533 72.1364 88.0404 72.3096 88.291C72.4873 88.5417 72.7083 88.7399 72.9727 88.8857C73.237 89.027 73.5446 89.0977 73.8955 89.0977C74.2419 89.0977 74.5449 89.027 74.8047 88.8857C75.069 88.7399 75.2878 88.5417 75.4609 88.291C75.6341 88.0404 75.764 87.7533 75.8506 87.4297C75.9417 87.1016 75.9873 86.7529 75.9873 86.3838V86.2266C75.9873 85.862 75.9417 85.5179 75.8506 85.1943C75.764 84.8662 75.6318 84.5768 75.4541 84.3262C75.2809 84.071 75.0622 83.8704 74.7979 83.7246C74.5381 83.5788 74.2327 83.5059 73.8818 83.5059C73.5355 83.5059 73.2301 83.5788 72.9658 83.7246C72.7061 83.8704 72.4873 84.071 72.3096 84.3262C72.1364 84.5768 72.0065 84.8662 71.9199 85.1943C71.8333 85.5179 71.79 85.862 71.79 86.2266ZM82.3174 86.7461H79.8906L79.877 85.7344H81.8594C82.2513 85.7344 82.5771 85.6956 82.8369 85.6182C83.1012 85.5407 83.2995 85.4245 83.4316 85.2695C83.5638 85.1146 83.6299 84.9232 83.6299 84.6953C83.6299 84.5176 83.5911 84.3626 83.5137 84.2305C83.4408 84.0938 83.3291 83.9821 83.1787 83.8955C83.0283 83.8044 82.8415 83.7383 82.6182 83.6973C82.3994 83.6517 82.1419 83.6289 81.8457 83.6289H80.2256V90H78.9609V82.6035H81.8457C82.3151 82.6035 82.7367 82.6445 83.1104 82.7266C83.4886 82.8086 83.8099 82.9339 84.0742 83.1025C84.3431 83.2666 84.5482 83.4762 84.6895 83.7314C84.8307 83.9867 84.9014 84.2874 84.9014 84.6338C84.9014 84.8571 84.8558 85.069 84.7646 85.2695C84.6735 85.4701 84.5391 85.6478 84.3613 85.8027C84.1836 85.9577 83.9648 86.0853 83.7051 86.1855C83.4453 86.2812 83.1468 86.3428 82.8096 86.3701L82.3174 86.7461ZM82.3174 90H79.4326L80.0615 88.9746H82.3174C82.6683 88.9746 82.96 88.9313 83.1924 88.8447C83.4248 88.7536 83.598 88.626 83.7119 88.4619C83.8304 88.2933 83.8896 88.0928 83.8896 87.8604C83.8896 87.6279 83.8304 87.4297 83.7119 87.2656C83.598 87.097 83.4248 86.9694 83.1924 86.8828C82.96 86.7917 82.6683 86.7461 82.3174 86.7461H80.3965L80.4102 85.7344H82.8096L83.2676 86.1172C83.6732 86.1491 84.0173 86.2493 84.2998 86.418C84.5824 86.5866 84.7965 86.8008 84.9424 87.0605C85.0882 87.3158 85.1611 87.5938 85.1611 87.8945C85.1611 88.2409 85.0951 88.5462 84.9629 88.8105C84.8353 89.0749 84.6484 89.2959 84.4023 89.4736C84.1562 89.6468 83.8577 89.779 83.5068 89.8701C83.1559 89.9567 82.7594 90 82.3174 90ZM88.2305 82.6035V90H86.9658V82.6035H88.2305ZM93.084 82.6035L89.5771 86.8418H87.8066L87.6152 85.7344H89.0645L91.5459 82.6035H93.084ZM91.7236 90L89.0029 86.6504L89.8164 85.7344L93.3301 90H91.7236ZM95.7979 87.9971L99.209 82.6035H100.48V90H99.209V84.6064L95.7979 90H94.54V82.6035H95.7979V87.9971ZM110.912 82.6035V83.6494H107.173V82.6035H110.912ZM107.357 82.6035V90H106.093V82.6035H107.357ZM112.033 82.6035V90H110.762V82.6035H112.033ZM113.729 86.3838V86.2266C113.729 85.6934 113.806 85.1989 113.961 84.7432C114.116 84.2829 114.339 83.8841 114.631 83.5469C114.923 83.2051 115.276 82.9408 115.69 82.7539C116.105 82.5625 116.57 82.4668 117.085 82.4668C117.604 82.4668 118.072 82.5625 118.486 82.7539C118.906 82.9408 119.261 83.2051 119.553 83.5469C119.849 83.8841 120.075 84.2829 120.229 84.7432C120.384 85.1989 120.462 85.6934 120.462 86.2266V86.3838C120.462 86.917 120.384 87.4115 120.229 87.8672C120.075 88.3229 119.849 88.7217 119.553 89.0635C119.261 89.4007 118.908 89.665 118.493 89.8564C118.083 90.0433 117.618 90.1367 117.099 90.1367C116.579 90.1367 116.112 90.0433 115.697 89.8564C115.283 89.665 114.927 89.4007 114.631 89.0635C114.339 88.7217 114.116 88.3229 113.961 87.8672C113.806 87.4115 113.729 86.917 113.729 86.3838ZM114.993 86.2266V86.3838C114.993 86.7529 115.036 87.1016 115.123 87.4297C115.21 87.7533 115.34 88.0404 115.513 88.291C115.69 88.5417 115.911 88.7399 116.176 88.8857C116.44 89.027 116.748 89.0977 117.099 89.0977C117.445 89.0977 117.748 89.027 118.008 88.8857C118.272 88.7399 118.491 88.5417 118.664 88.291C118.837 88.0404 118.967 87.7533 119.054 87.4297C119.145 87.1016 119.19 86.7529 119.19 86.3838V86.2266C119.19 85.862 119.145 85.5179 119.054 85.1943C118.967 84.8662 118.835 84.5768 118.657 84.3262C118.484 84.071 118.265 83.8704 118.001 83.7246C117.741 83.5788 117.436 83.5059 117.085 83.5059C116.739 83.5059 116.433 83.5788 116.169 83.7246C115.909 83.8704 115.69 84.071 115.513 84.3262C115.34 84.5768 115.21 84.8662 115.123 85.1943C115.036 85.5179 114.993 85.862 114.993 86.2266ZM130.237 80.0332H130.347V81.1064H130.237C129.567 81.1064 129.007 81.2158 128.556 81.4346C128.104 81.6488 127.747 81.9382 127.482 82.3027C127.218 82.6628 127.027 83.0684 126.908 83.5195C126.794 83.9707 126.737 84.4287 126.737 84.8936V86.3564C126.737 86.7985 126.79 87.1904 126.895 87.5322C126.999 87.8695 127.143 88.1543 127.325 88.3867C127.507 88.6191 127.713 88.7946 127.94 88.9131C128.173 89.0316 128.414 89.0908 128.665 89.0908C128.957 89.0908 129.216 89.0361 129.444 88.9268C129.672 88.8128 129.864 88.6556 130.019 88.4551C130.178 88.25 130.299 88.0085 130.381 87.7305C130.463 87.4525 130.504 87.1471 130.504 86.8145C130.504 86.5182 130.467 86.2334 130.395 85.96C130.322 85.682 130.21 85.4359 130.06 85.2217C129.909 85.0029 129.72 84.832 129.492 84.709C129.269 84.5814 129.002 84.5176 128.692 84.5176C128.341 84.5176 128.013 84.6042 127.708 84.7773C127.407 84.946 127.159 85.1693 126.963 85.4473C126.771 85.7207 126.662 86.0192 126.635 86.3428L125.965 86.3359C126.029 85.8255 126.147 85.3903 126.32 85.0303C126.498 84.6657 126.717 84.3695 126.977 84.1416C127.241 83.9092 127.535 83.7406 127.858 83.6357C128.187 83.5264 128.533 83.4717 128.897 83.4717C129.394 83.4717 129.823 83.5651 130.183 83.752C130.543 83.9388 130.839 84.1895 131.071 84.5039C131.304 84.8138 131.475 85.1647 131.584 85.5566C131.698 85.944 131.755 86.3428 131.755 86.7529C131.755 87.2223 131.689 87.6621 131.557 88.0723C131.424 88.4824 131.226 88.8424 130.962 89.1523C130.702 89.4622 130.381 89.7038 129.998 89.877C129.615 90.0501 129.171 90.1367 128.665 90.1367C128.127 90.1367 127.658 90.0273 127.257 89.8086C126.856 89.5853 126.523 89.2891 126.259 88.9199C125.994 88.5508 125.796 88.1406 125.664 87.6895C125.532 87.2383 125.466 86.7803 125.466 86.3154V85.7207C125.466 85.0189 125.536 84.3307 125.678 83.6562C125.819 82.9818 126.063 82.3711 126.409 81.8242C126.76 81.2773 127.245 80.8421 127.865 80.5186C128.485 80.195 129.276 80.0332 130.237 80.0332ZM141.229 88.7354V84.9277C141.229 84.6361 141.17 84.3831 141.052 84.1689C140.938 83.9502 140.765 83.7816 140.532 83.6631C140.3 83.5446 140.013 83.4854 139.671 83.4854C139.352 83.4854 139.072 83.54 138.83 83.6494C138.593 83.7588 138.406 83.9023 138.27 84.0801C138.137 84.2578 138.071 84.4492 138.071 84.6543H136.807C136.807 84.39 136.875 84.1279 137.012 83.8682C137.148 83.6084 137.344 83.3737 137.6 83.1641C137.859 82.9499 138.169 82.7812 138.529 82.6582C138.894 82.5306 139.299 82.4668 139.746 82.4668C140.284 82.4668 140.758 82.5579 141.168 82.7402C141.583 82.9225 141.906 83.1982 142.139 83.5674C142.376 83.932 142.494 84.39 142.494 84.9414V88.3867C142.494 88.6328 142.515 88.8949 142.556 89.1729C142.601 89.4508 142.667 89.6901 142.754 89.8906V90H141.435C141.371 89.8542 141.321 89.6605 141.284 89.4189C141.248 89.1729 141.229 88.945 141.229 88.7354ZM141.448 85.5156L141.462 86.4043H140.184C139.824 86.4043 139.502 86.4339 139.22 86.4932C138.937 86.5479 138.7 86.6322 138.509 86.7461C138.317 86.86 138.172 87.0036 138.071 87.1768C137.971 87.3454 137.921 87.5436 137.921 87.7715C137.921 88.0039 137.973 88.2158 138.078 88.4072C138.183 88.5986 138.34 88.7513 138.55 88.8652C138.764 88.9746 139.026 89.0293 139.336 89.0293C139.723 89.0293 140.065 88.9473 140.361 88.7832C140.658 88.6191 140.892 88.4186 141.065 88.1816C141.243 87.9447 141.339 87.7145 141.353 87.4912L141.893 88.0996C141.861 88.291 141.774 88.5029 141.633 88.7354C141.492 88.9678 141.302 89.1911 141.065 89.4053C140.833 89.6149 140.555 89.7904 140.231 89.9316C139.912 90.0684 139.552 90.1367 139.151 90.1367C138.65 90.1367 138.21 90.0387 137.832 89.8428C137.458 89.6468 137.167 89.3848 136.957 89.0566C136.752 88.724 136.649 88.3525 136.649 87.9424C136.649 87.5459 136.727 87.1973 136.882 86.8965C137.037 86.5911 137.26 86.3382 137.552 86.1377C137.843 85.9326 138.194 85.7777 138.604 85.6729C139.015 85.568 139.473 85.5156 139.979 85.5156H141.448ZM148.735 88.3184L151.251 82.6035H152.468L149.173 90H148.298L145.017 82.6035H146.233L148.735 88.3184ZM145.864 82.6035V90H144.6V82.6035H145.864ZM151.565 90V82.6035H152.837V90H151.565ZM159.803 82.6035V83.6494H156.063V82.6035H159.803ZM156.248 82.6035V90H154.983V82.6035H156.248ZM160.924 82.6035V90H159.652V82.6035H160.924ZM165.032 89.2344L167.09 82.6035H168.443L165.477 91.1416C165.408 91.3239 165.317 91.5199 165.203 91.7295C165.094 91.9437 164.952 92.1465 164.779 92.3379C164.606 92.5293 164.396 92.6842 164.15 92.8027C163.909 92.9258 163.619 92.9873 163.282 92.9873C163.182 92.9873 163.054 92.9736 162.899 92.9463C162.744 92.9189 162.635 92.8962 162.571 92.8779L162.564 91.8525C162.601 91.8571 162.658 91.8617 162.735 91.8662C162.817 91.8753 162.874 91.8799 162.906 91.8799C163.193 91.8799 163.437 91.8411 163.638 91.7637C163.838 91.6908 164.007 91.5654 164.144 91.3877C164.285 91.2145 164.406 90.9753 164.506 90.6699L165.032 89.2344ZM163.521 82.6035L165.442 88.3457L165.771 89.6787L164.861 90.1436L162.141 82.6035H163.521ZM174.24 82.6035V83.6494H170.665V82.6035H174.24ZM175.354 82.6035V90H174.09V82.6035H175.354ZM170.357 82.6035H171.629L171.438 86.1719C171.406 86.7233 171.353 87.2109 171.28 87.6348C171.212 88.054 171.116 88.4141 170.993 88.7148C170.875 89.0156 170.724 89.2617 170.542 89.4531C170.364 89.64 170.15 89.779 169.899 89.8701C169.649 89.9567 169.359 90 169.031 90H168.635V88.8857L168.908 88.8652C169.104 88.8516 169.271 88.806 169.407 88.7285C169.549 88.651 169.667 88.5371 169.763 88.3867C169.858 88.2318 169.936 88.0335 169.995 87.792C170.059 87.5505 170.107 87.2633 170.139 86.9307C170.175 86.598 170.202 86.2106 170.221 85.7686L170.357 82.6035ZM180.304 85.9531V86.0215C180.304 87.0195 180.192 87.9219 179.969 88.7285C179.745 89.5352 179.461 90.2393 179.114 90.8408C178.768 91.4469 178.403 91.9482 178.021 92.3447C177.638 92.7458 177.285 93.0352 176.961 93.2129L176.694 92.4473C176.963 92.2422 177.234 91.9551 177.508 91.5859C177.781 91.2214 178.034 90.7702 178.267 90.2324C178.499 89.6992 178.686 89.084 178.827 88.3867C178.968 87.6849 179.039 86.901 179.039 86.0352V85.9395C179.039 85.0736 178.964 84.292 178.813 83.5947C178.663 82.8929 178.467 82.2754 178.226 81.7422C177.989 81.209 177.733 80.7601 177.46 80.3955C177.191 80.0264 176.936 79.7415 176.694 79.541L176.961 78.7686C177.285 78.9463 177.638 79.2357 178.021 79.6367C178.403 80.0332 178.768 80.5345 179.114 81.1406C179.461 81.7467 179.745 82.4531 179.969 83.2598C180.192 84.0618 180.304 84.9596 180.304 85.9531Z" fill="#4B5563"/>
</svg>
