<svg width="120" height="120" viewBox="0 0 120 120" fill="none" xmlns="http://www.w3.org/2000/svg">
<rect width="120" height="120" rx="60" fill="#703E97"/>
<circle cx="60" cy="60" r="52" fill="white" fill-opacity="0.2"/>
<path d="M30.1978 60C30.1978 57.8133 30.4311 55.8933 30.8978 54.24C31.3778 52.5733 32.0445 51.1133 32.8978 49.86C33.7511 48.5933 34.7578 47.4867 35.9178 46.54C37.0778 45.58 38.3445 44.72 39.7178 43.96C40.3045 43.6267 40.8645 43.28 41.3978 42.92C41.9311 42.5467 42.3645 42.1267 42.6978 41.66C43.0311 41.1933 43.1978 40.6533 43.1978 40.04C43.1978 39.2 42.9378 38.5667 42.4178 38.14C41.9111 37.7 41.2378 37.48 40.3978 37.48C39.5178 37.48 38.7245 37.72 38.0178 38.2C37.3111 38.6667 36.7178 39.3333 36.2378 40.2L30.6378 37.64C31.5178 35.72 32.8378 34.22 34.5978 33.14C36.3578 32.06 38.2378 31.52 40.2378 31.52C42.1845 31.52 43.8378 31.9 45.1978 32.66C46.5711 33.4067 47.6111 34.4067 48.3178 35.66C49.0378 36.9133 49.3978 38.2933 49.3978 39.8C49.3978 41.4133 49.1511 42.7533 48.6578 43.82C48.1645 44.8867 47.4845 45.8 46.6178 46.56C45.7511 47.3067 44.7578 48.0133 43.6378 48.68C42.3845 49.4267 41.3645 50.0733 40.5778 50.62C39.8045 51.1533 39.1845 51.68 38.7178 52.2C38.2511 52.7067 37.8645 53.2933 37.5578 53.96H49.6378V60H30.1978ZM54.2109 51.08V45.36H65.2109V51.08H54.2109ZM80.2031 60.48C78.4965 60.48 76.9831 60.2133 75.6631 59.68C74.3565 59.1333 73.2565 58.3733 72.3631 57.4C71.4698 56.4267 70.7898 55.2867 70.3231 53.98C69.8698 52.6733 69.6431 51.2533 69.6431 49.72C69.6431 46.7733 70.2165 44.04 71.3631 41.52C72.5231 38.9867 74.3631 36.8467 76.8831 35.1C79.4165 33.34 82.7365 32.1467 86.8431 31.52V37.48C85.6165 37.6667 84.3631 37.9733 83.0831 38.4C81.8165 38.8267 80.6565 39.42 79.6031 40.18C78.5498 40.94 77.7365 41.9067 77.1631 43.08C77.6431 42.8 78.1965 42.5733 78.8231 42.4C79.4498 42.2133 80.1498 42.12 80.9231 42.12C82.7498 42.12 84.3765 42.5133 85.8031 43.3C87.2431 44.0733 88.3765 45.1533 89.2031 46.54C90.0298 47.9133 90.4431 49.5067 90.4431 51.32C90.4431 53.1333 90.0031 54.7267 89.1231 56.1C88.2431 57.4733 87.0298 58.5467 85.4831 59.32C83.9498 60.0933 82.1898 60.48 80.2031 60.48ZM80.2031 54.52C80.9631 54.52 81.6431 54.3933 82.2431 54.14C82.8565 53.8867 83.3365 53.5267 83.6831 53.06C84.0298 52.58 84.2031 52 84.2031 51.32C84.2031 50.3333 83.8231 49.5467 83.0631 48.96C82.3031 48.3733 81.3498 48.08 80.2031 48.08C79.4165 48.08 78.7165 48.22 78.1031 48.5C77.4898 48.78 77.0031 49.1667 76.6431 49.66C76.2965 50.14 76.1231 50.6933 76.1231 51.32C76.1231 52 76.2965 52.58 76.6431 53.06C77.0031 53.5267 77.4898 53.8867 78.1031 54.14C78.7165 54.3933 79.4165 54.52 80.2031 54.52Z" fill="white"/>
<path d="M32.0758 85.162L29.7178 80.545C29.6398 80.383 29.5618 80.218 29.4838 80.05C29.4058 79.882 29.3278 79.708 29.2498 79.528C29.2678 79.666 29.2798 79.822 29.2858 79.996C29.2978 80.17 29.3038 80.338 29.3038 80.5V85H27.3238V75.802H29.1688L31.7158 80.806C31.7938 80.968 31.8628 81.112 31.9228 81.238C31.9828 81.358 32.0338 81.466 32.0758 81.562C32.1178 81.466 32.1658 81.358 32.2198 81.238C32.2798 81.112 32.3518 80.968 32.4358 80.806L34.9738 75.802H36.8278V85H34.8388V80.662C34.8388 80.494 34.8448 80.311 34.8568 80.113C34.8688 79.915 34.8808 79.747 34.8928 79.609C34.8148 79.783 34.7338 79.957 34.6498 80.131C34.5718 80.299 34.4908 80.467 34.4068 80.635L32.0758 85.162ZM42.4154 85.216C41.5454 85.216 40.7954 85.015 40.1654 84.613C39.5354 84.211 39.0524 83.65 38.7164 82.93C38.3804 82.204 38.2124 81.358 38.2124 80.392C38.2124 79.39 38.3864 78.532 38.7344 77.818C39.0824 77.098 39.5714 76.546 40.2014 76.162C40.8314 75.778 41.5694 75.586 42.4154 75.586C43.1414 75.586 43.8014 75.742 44.3954 76.054C44.9954 76.366 45.4724 76.846 45.8264 77.494C46.1804 78.136 46.3574 78.955 46.3574 79.951C46.3574 80.107 46.3544 80.293 46.3484 80.509C46.3424 80.719 46.3244 80.932 46.2944 81.148H40.2194C40.2554 81.616 40.3664 82.024 40.5524 82.372C40.7444 82.72 40.9994 82.993 41.3174 83.191C41.6354 83.383 42.0104 83.479 42.4424 83.479C42.8624 83.479 43.2344 83.41 43.5584 83.272C43.8824 83.128 44.1914 82.9 44.4854 82.588L45.6554 83.821C45.2774 84.235 44.8154 84.571 44.2694 84.829C43.7294 85.087 43.1114 85.216 42.4154 85.216ZM40.2284 79.519H44.3774C44.3594 79.081 44.2694 78.697 44.1074 78.367C43.9514 78.037 43.7294 77.782 43.4414 77.602C43.1534 77.416 42.8024 77.323 42.3884 77.323C41.8124 77.323 41.3204 77.503 40.9124 77.863C40.5104 78.223 40.2824 78.775 40.2284 79.519ZM51.2549 85.216C50.4209 85.216 49.7039 85.024 49.1039 84.64C48.5039 84.25 48.0419 83.695 47.7179 82.975C47.3939 82.255 47.2319 81.4 47.2319 80.41C47.2319 79.42 47.3969 78.565 47.7269 77.845C48.0569 77.119 48.5249 76.561 49.1309 76.171C49.7369 75.781 50.4599 75.586 51.2999 75.586C52.1939 75.586 52.9439 75.796 53.5499 76.216C54.1559 76.63 54.5969 77.239 54.8729 78.043L52.9559 78.709C52.8059 78.319 52.5899 78.019 52.3079 77.809C52.0319 77.599 51.7019 77.494 51.3179 77.494C50.6819 77.494 50.1839 77.752 49.8239 78.268C49.4639 78.784 49.2839 79.498 49.2839 80.41C49.2839 81.31 49.4609 82.015 49.8149 82.525C50.1689 83.035 50.6549 83.29 51.2729 83.29C51.6929 83.29 52.0529 83.176 52.3529 82.948C52.6529 82.714 52.8719 82.381 53.0099 81.949L54.9179 82.534C54.6599 83.41 54.2159 84.076 53.5859 84.532C52.9619 84.988 52.1849 85.216 51.2549 85.216ZM61.5372 85V81.823H59.1342C58.4982 81.823 57.9372 81.697 57.4512 81.445C56.9712 81.187 56.5962 80.833 56.3262 80.383C56.0562 79.927 55.9212 79.399 55.9212 78.799C55.9212 78.205 56.0562 77.683 56.3262 77.233C56.5962 76.783 56.9712 76.432 57.4512 76.18C57.9372 75.928 58.4982 75.802 59.1342 75.802H63.5532V85H61.5372ZM55.2552 85L58.3062 80.878H60.6732L57.6222 85H55.2552ZM59.3682 80.131H61.5372V77.494H59.3682C58.9422 77.494 58.6002 77.614 58.3422 77.854C58.0842 78.094 57.9552 78.412 57.9552 78.808C57.9552 79.21 58.0842 79.531 58.3422 79.771C58.6002 80.011 58.9422 80.131 59.3682 80.131ZM65.4586 85V75.802H67.4746V83.227H71.4706V75.802H73.4866V85H65.4586ZM72.9736 88.006V85H72.1006V83.227H74.9986V87.088L72.9736 88.006ZM79.7943 85.216C78.9243 85.216 78.1743 85.015 77.5443 84.613C76.9143 84.211 76.4313 83.65 76.0953 82.93C75.7593 82.204 75.5913 81.358 75.5913 80.392C75.5913 79.39 75.7653 78.532 76.1133 77.818C76.4613 77.098 76.9503 76.546 77.5803 76.162C78.2103 75.778 78.9483 75.586 79.7943 75.586C80.5203 75.586 81.1803 75.742 81.7743 76.054C82.3743 76.366 82.8513 76.846 83.2053 77.494C83.5593 78.136 83.7363 78.955 83.7363 79.951C83.7363 80.107 83.7333 80.293 83.7273 80.509C83.7213 80.719 83.7033 80.932 83.6733 81.148H77.5983C77.6343 81.616 77.7453 82.024 77.9313 82.372C78.1233 82.72 78.3783 82.993 78.6963 83.191C79.0143 83.383 79.3893 83.479 79.8213 83.479C80.2413 83.479 80.6133 83.41 80.9373 83.272C81.2613 83.128 81.5703 82.9 81.8643 82.588L83.0343 83.821C82.6563 84.235 82.1943 84.571 81.6483 84.829C81.1083 85.087 80.4903 85.216 79.7943 85.216ZM77.6073 79.519H81.7563C81.7383 79.081 81.6483 78.697 81.4863 78.367C81.3303 78.037 81.1083 77.782 80.8203 77.602C80.5323 77.416 80.1813 77.323 79.7673 77.323C79.1913 77.323 78.6993 77.503 78.2913 77.863C77.8893 78.223 77.6613 78.775 77.6073 79.519ZM85.0621 85V75.802H89.7421C90.4081 75.802 90.9571 75.913 91.3891 76.135C91.8271 76.351 92.1511 76.645 92.3611 77.017C92.5771 77.383 92.6851 77.797 92.6851 78.259C92.6851 78.709 92.5831 79.099 92.3791 79.429C92.1751 79.759 91.8841 80.008 91.5061 80.176C92.0221 80.35 92.4031 80.629 92.6491 81.013C92.8951 81.391 93.0181 81.814 93.0181 82.282C93.0181 82.774 92.9041 83.227 92.6761 83.641C92.4541 84.049 92.1151 84.379 91.6591 84.631C91.2031 84.877 90.6241 85 89.9221 85H85.0621ZM87.0781 83.389H89.6161C89.9101 83.389 90.1561 83.344 90.3541 83.254C90.5521 83.158 90.7021 83.026 90.8041 82.858C90.9061 82.684 90.9571 82.477 90.9571 82.237C90.9571 82.003 90.8971 81.802 90.7771 81.634C90.6631 81.466 90.4891 81.337 90.2551 81.247C90.0211 81.157 89.7301 81.112 89.3821 81.112H87.0781V83.389ZM87.0781 79.492H89.2471C89.6971 79.492 90.0391 79.405 90.2731 79.231C90.5131 79.051 90.6331 78.802 90.6331 78.484C90.6331 78.268 90.5851 78.079 90.4891 77.917C90.3931 77.755 90.2521 77.632 90.0661 77.548C89.8801 77.458 89.6581 77.413 89.4001 77.413H87.0781V79.492Z" fill="white"/>
</svg>
