<svg width="341" height="120" viewBox="0 0 341 120" fill="none" xmlns="http://www.w3.org/2000/svg">
<rect width="341" height="120" rx="20" fill="#F6F0FE"/>
<path d="M34.8281 49.9082H37.5137C37.4277 50.9323 37.1413 51.8454 36.6543 52.6475C36.1673 53.4424 35.4834 54.069 34.6025 54.5273C33.7217 54.9857 32.651 55.2148 31.3906 55.2148C30.4238 55.2148 29.5537 55.043 28.7803 54.6992C28.0068 54.3483 27.3444 53.8542 26.793 53.2168C26.2415 52.5723 25.819 51.7952 25.5254 50.8857C25.2389 49.9762 25.0957 48.9593 25.0957 47.835V46.5352C25.0957 45.4108 25.2425 44.3939 25.5361 43.4844C25.8369 42.5749 26.2666 41.7979 26.8252 41.1533C27.3838 40.5016 28.0534 40.0039 28.834 39.6602C29.6217 39.3164 30.5062 39.1445 31.4873 39.1445C32.7334 39.1445 33.7861 39.3737 34.6455 39.832C35.5049 40.2904 36.1709 40.9242 36.6436 41.7334C37.1234 42.5426 37.417 43.4701 37.5244 44.5156H34.8389C34.7673 43.8424 34.6097 43.266 34.3662 42.7861C34.1299 42.3063 33.779 41.9411 33.3135 41.6904C32.848 41.4326 32.2393 41.3037 31.4873 41.3037C30.8714 41.3037 30.3343 41.4183 29.876 41.6475C29.4176 41.8766 29.0345 42.2132 28.7266 42.6572C28.4186 43.1012 28.1859 43.6491 28.0283 44.3008C27.8779 44.9453 27.8027 45.6829 27.8027 46.5137V47.835C27.8027 48.6227 27.8708 49.3389 28.0068 49.9834C28.1501 50.6208 28.3649 51.1686 28.6514 51.627C28.945 52.0853 29.3174 52.4398 29.7686 52.6904C30.2197 52.9411 30.7604 53.0664 31.3906 53.0664C32.1569 53.0664 32.7764 52.9447 33.249 52.7012C33.7288 52.4577 34.0905 52.1032 34.334 51.6377C34.5846 51.165 34.7493 50.5885 34.8281 49.9082ZM46.2578 52.6689V47.126C46.2578 46.7106 46.1826 46.3525 46.0322 46.0518C45.8818 45.751 45.6527 45.5182 45.3447 45.3535C45.0439 45.1888 44.6644 45.1064 44.2061 45.1064C43.7835 45.1064 43.4183 45.1781 43.1104 45.3213C42.8024 45.4645 42.5625 45.6579 42.3906 45.9014C42.2188 46.1449 42.1328 46.4206 42.1328 46.7285H39.5547C39.5547 46.2702 39.6657 45.8262 39.8877 45.3965C40.1097 44.9668 40.432 44.5837 40.8545 44.2471C41.277 43.9105 41.7819 43.6455 42.3691 43.4521C42.9564 43.2588 43.6152 43.1621 44.3457 43.1621C45.2194 43.1621 45.9928 43.3089 46.666 43.6025C47.3464 43.8962 47.8799 44.3402 48.2666 44.9346C48.6605 45.5218 48.8574 46.2594 48.8574 47.1475V52.3145C48.8574 52.8444 48.8932 53.3206 48.9648 53.7432C49.0436 54.1585 49.1546 54.5202 49.2979 54.8281V55H46.6445C46.5228 54.7207 46.4261 54.3662 46.3545 53.9365C46.29 53.4997 46.2578 53.0771 46.2578 52.6689ZM46.6338 47.9316L46.6553 49.5322H44.7969C44.3171 49.5322 43.8945 49.5788 43.5293 49.6719C43.1641 49.7578 42.8597 49.8867 42.6162 50.0586C42.3727 50.2305 42.1901 50.4382 42.0684 50.6816C41.9466 50.9251 41.8857 51.2008 41.8857 51.5088C41.8857 51.8167 41.9574 52.0996 42.1006 52.3574C42.2438 52.6081 42.4515 52.805 42.7236 52.9482C43.0029 53.0915 43.3395 53.1631 43.7334 53.1631C44.2633 53.1631 44.7253 53.0557 45.1191 52.8408C45.5202 52.6188 45.8353 52.3503 46.0645 52.0352C46.2936 51.7129 46.4154 51.4085 46.4297 51.1221L47.2676 52.2715C47.1816 52.5651 47.0348 52.8802 46.8271 53.2168C46.6195 53.5534 46.3473 53.8757 46.0107 54.1836C45.6813 54.4844 45.2839 54.7314 44.8184 54.9248C44.36 55.1182 43.8301 55.2148 43.2285 55.2148C42.4694 55.2148 41.7926 55.0645 41.1982 54.7637C40.6038 54.4557 40.1383 54.0439 39.8018 53.5283C39.4652 53.0055 39.2969 52.4147 39.2969 51.7559C39.2969 51.14 39.4115 50.5957 39.6406 50.123C39.877 49.6432 40.2207 49.2422 40.6719 48.9199C41.1302 48.5977 41.6888 48.3542 42.3477 48.1895C43.0065 48.0176 43.7585 47.9316 44.6035 47.9316H46.6338ZM51.6504 43.377H54.2393V52.9375H57.9238V43.377H60.5342V52.9375H64.208V43.377H66.7969V55H51.6504V43.377ZM74.7139 55.2148C73.8545 55.2148 73.0775 55.0752 72.3828 54.7959C71.6953 54.5094 71.1081 54.112 70.6211 53.6035C70.1413 53.0951 69.7725 52.4971 69.5146 51.8096C69.2568 51.1221 69.1279 50.3809 69.1279 49.5859V49.1562C69.1279 48.2467 69.2604 47.4232 69.5254 46.6855C69.7904 45.9479 70.1592 45.3177 70.6318 44.7949C71.1045 44.265 71.6631 43.8604 72.3076 43.5811C72.9521 43.3018 73.6504 43.1621 74.4023 43.1621C75.2331 43.1621 75.96 43.3018 76.583 43.5811C77.2061 43.8604 77.7217 44.2542 78.1299 44.7627C78.5452 45.264 78.8532 45.862 79.0537 46.5566C79.2614 47.2513 79.3652 48.0176 79.3652 48.8555V49.9619H70.3848V48.1035H76.8086V47.8994C76.7943 47.4339 76.7012 46.9971 76.5293 46.5889C76.3646 46.1807 76.1104 45.8512 75.7666 45.6006C75.4229 45.3499 74.9645 45.2246 74.3916 45.2246C73.9619 45.2246 73.5788 45.3177 73.2422 45.5039C72.9128 45.6829 72.637 45.9443 72.415 46.2881C72.193 46.6318 72.0212 47.0472 71.8994 47.5342C71.7848 48.014 71.7275 48.5547 71.7275 49.1562V49.5859C71.7275 50.0944 71.7956 50.5671 71.9316 51.0039C72.0749 51.4336 72.2826 51.8096 72.5547 52.1318C72.8268 52.4541 73.1562 52.7083 73.543 52.8945C73.9297 53.0736 74.3701 53.1631 74.8643 53.1631C75.4873 53.1631 76.0423 53.0378 76.5293 52.7871C77.0163 52.5365 77.4388 52.182 77.7969 51.7236L79.1611 53.0449C78.9105 53.4102 78.5846 53.7611 78.1836 54.0977C77.7826 54.4271 77.292 54.6956 76.7119 54.9033C76.139 55.111 75.473 55.2148 74.7139 55.2148Z" fill="#252349"/>
<path d="M194.024 39.3594V55H191.35V39.3594H194.024ZM198.934 39.3594V41.5078H186.483V39.3594H198.934ZM205.852 52.6689V47.126C205.852 46.7106 205.776 46.3525 205.626 46.0518C205.476 45.751 205.246 45.5182 204.938 45.3535C204.638 45.1888 204.258 45.1064 203.8 45.1064C203.377 45.1064 203.012 45.1781 202.704 45.3213C202.396 45.4645 202.156 45.6579 201.984 45.9014C201.812 46.1449 201.727 46.4206 201.727 46.7285H199.148C199.148 46.2702 199.259 45.8262 199.481 45.3965C199.703 44.9668 200.026 44.5837 200.448 44.2471C200.871 43.9105 201.376 43.6455 201.963 43.4521C202.55 43.2588 203.209 43.1621 203.939 43.1621C204.813 43.1621 205.587 43.3089 206.26 43.6025C206.94 43.8962 207.474 44.3402 207.86 44.9346C208.254 45.5218 208.451 46.2594 208.451 47.1475V52.3145C208.451 52.8444 208.487 53.3206 208.559 53.7432C208.637 54.1585 208.748 54.5202 208.892 54.8281V55H206.238C206.117 54.7207 206.02 54.3662 205.948 53.9365C205.884 53.4997 205.852 53.0771 205.852 52.6689ZM206.228 47.9316L206.249 49.5322H204.391C203.911 49.5322 203.488 49.5788 203.123 49.6719C202.758 49.7578 202.453 49.8867 202.21 50.0586C201.966 50.2305 201.784 50.4382 201.662 50.6816C201.54 50.9251 201.479 51.2008 201.479 51.5088C201.479 51.8167 201.551 52.0996 201.694 52.3574C201.838 52.6081 202.045 52.805 202.317 52.9482C202.597 53.0915 202.933 53.1631 203.327 53.1631C203.857 53.1631 204.319 53.0557 204.713 52.8408C205.114 52.6188 205.429 52.3503 205.658 52.0352C205.887 51.7129 206.009 51.4085 206.023 51.1221L206.861 52.2715C206.775 52.5651 206.629 52.8802 206.421 53.2168C206.213 53.5534 205.941 53.8757 205.604 54.1836C205.275 54.4844 204.878 54.7314 204.412 54.9248C203.954 55.1182 203.424 55.2148 202.822 55.2148C202.063 55.2148 201.386 55.0645 200.792 54.7637C200.198 54.4557 199.732 54.0439 199.396 53.5283C199.059 53.0055 198.891 52.4147 198.891 51.7559C198.891 51.14 199.005 50.5957 199.234 50.123C199.471 49.6432 199.814 49.2422 200.266 48.9199C200.724 48.5977 201.283 48.3542 201.941 48.1895C202.6 48.0176 203.352 47.9316 204.197 47.9316H206.228ZM218.452 38.2852H220.547C220.547 38.9225 220.457 39.4489 220.278 39.8643C220.106 40.2725 219.849 40.609 219.505 40.874C219.168 41.1318 218.749 41.3395 218.248 41.4971C217.754 41.6546 217.181 41.7979 216.529 41.9268C215.928 42.0557 215.383 42.2598 214.896 42.5391C214.417 42.8112 214.012 43.1943 213.683 43.6885C213.36 44.1755 213.128 44.8021 212.984 45.5684C212.841 46.3346 212.798 47.2692 212.855 48.3721V49.1025L210.804 49.2852V48.5547C210.804 47.1868 210.929 45.9945 211.18 44.9775C211.43 43.9606 211.785 43.1048 212.243 42.4102C212.709 41.7083 213.26 41.1497 213.897 40.7344C214.542 40.319 215.258 40.0326 216.046 39.875C216.583 39.7604 217.031 39.6458 217.389 39.5312C217.747 39.4095 218.012 39.2555 218.184 39.0693C218.363 38.876 218.452 38.6146 218.452 38.2852ZM216.637 44.0322C217.41 44.0322 218.098 44.1683 218.699 44.4404C219.301 44.7054 219.809 45.0778 220.225 45.5576C220.64 46.0374 220.955 46.6032 221.17 47.2549C221.392 47.9066 221.503 48.6156 221.503 49.3818V49.6182C221.503 50.4202 221.385 51.1615 221.148 51.8418C220.912 52.5221 220.565 53.1165 220.106 53.625C219.648 54.1263 219.086 54.5202 218.42 54.8066C217.761 55.0859 217.006 55.2256 216.153 55.2256C215.308 55.2256 214.553 55.0788 213.887 54.7852C213.221 54.4915 212.659 54.0833 212.2 53.5605C211.742 53.0306 211.395 52.4111 211.158 51.7021C210.922 50.9932 210.804 50.2197 210.804 49.3818V49.1455C210.797 48.9951 210.836 48.8483 210.922 48.7051C211.015 48.5618 211.126 48.4079 211.255 48.2432C211.384 48.0785 211.498 47.8887 211.599 47.6738C211.957 46.9505 212.379 46.3167 212.866 45.7725C213.353 45.2282 213.908 44.8021 214.531 44.4941C215.161 44.1862 215.863 44.0322 216.637 44.0322ZM216.132 46.084C215.487 46.084 214.961 46.238 214.553 46.5459C214.152 46.8467 213.854 47.2477 213.661 47.749C213.475 48.2503 213.382 48.7946 213.382 49.3818V49.6182C213.382 50.098 213.436 50.5527 213.543 50.9824C213.65 51.4121 213.812 51.7917 214.026 52.1211C214.248 52.4434 214.535 52.6976 214.886 52.8838C215.244 53.07 215.666 53.1631 216.153 53.1631C216.647 53.1631 217.066 53.07 217.41 52.8838C217.761 52.6976 218.044 52.4434 218.259 52.1211C218.481 51.7917 218.642 51.4121 218.742 50.9824C218.85 50.5527 218.903 50.098 218.903 49.6182V49.3818C218.903 48.9378 218.85 48.5189 218.742 48.125C218.642 47.7311 218.481 47.3838 218.259 47.083C218.037 46.7751 217.75 46.5316 217.399 46.3525C217.049 46.1735 216.626 46.084 216.132 46.084ZM231.343 43.377V45.4395H225.671V43.377H231.343ZM233.373 43.377V55H230.784V43.377H233.373ZM225.037 43.377H227.594L227.282 49.124C227.239 49.9762 227.153 50.7282 227.024 51.3799C226.903 52.0244 226.738 52.5794 226.53 53.0449C226.323 53.5033 226.068 53.8757 225.768 54.1621C225.467 54.4486 225.116 54.6598 224.715 54.7959C224.314 54.932 223.863 55 223.361 55H222.556L222.545 52.873L222.953 52.8408C223.218 52.8193 223.447 52.7513 223.641 52.6367C223.834 52.515 223.999 52.3431 224.135 52.1211C224.278 51.8991 224.393 51.6126 224.479 51.2617C224.572 50.9108 224.643 50.4954 224.693 50.0156C224.751 49.5358 224.794 48.9772 224.822 48.3398L225.037 43.377ZM241.247 55.2148C240.388 55.2148 239.611 55.0752 238.916 54.7959C238.229 54.5094 237.641 54.112 237.154 53.6035C236.674 53.0951 236.306 52.4971 236.048 51.8096C235.79 51.1221 235.661 50.3809 235.661 49.5859V49.1562C235.661 48.2467 235.794 47.4232 236.059 46.6855C236.324 45.9479 236.692 45.3177 237.165 44.7949C237.638 44.265 238.196 43.8604 238.841 43.5811C239.485 43.3018 240.184 43.1621 240.936 43.1621C241.766 43.1621 242.493 43.3018 243.116 43.5811C243.739 43.8604 244.255 44.2542 244.663 44.7627C245.078 45.264 245.386 45.862 245.587 46.5566C245.795 47.2513 245.898 48.0176 245.898 48.8555V49.9619H236.918V48.1035H243.342V47.8994C243.327 47.4339 243.234 46.9971 243.062 46.5889C242.898 46.1807 242.644 45.8512 242.3 45.6006C241.956 45.3499 241.498 45.2246 240.925 45.2246C240.495 45.2246 240.112 45.3177 239.775 45.5039C239.446 45.6829 239.17 45.9443 238.948 46.2881C238.726 46.6318 238.554 47.0472 238.433 47.5342C238.318 48.014 238.261 48.5547 238.261 49.1562V49.5859C238.261 50.0944 238.329 50.5671 238.465 51.0039C238.608 51.4336 238.816 51.8096 239.088 52.1318C239.36 52.4541 239.689 52.7083 240.076 52.8945C240.463 53.0736 240.903 53.1631 241.397 53.1631C242.021 53.1631 242.576 53.0378 243.062 52.7871C243.549 52.5365 243.972 52.182 244.33 51.7236L245.694 53.0449C245.444 53.4102 245.118 53.7611 244.717 54.0977C244.316 54.4271 243.825 54.6956 243.245 54.9033C242.672 55.111 242.006 55.2148 241.247 55.2148ZM253.182 43.377V55H250.582V43.377H253.182ZM256.995 43.377V45.418H246.833V43.377H256.995ZM261.518 43.377V55H258.929V43.377H261.518ZM269.102 43.377L263.87 50.3701H260.916L260.572 48.0283H262.731L265.868 43.377H269.102ZM266.072 55L262.57 49.9297L264.611 48.458L269.478 55H266.072ZM273.56 51.2188L278.125 43.377H280.714V55H278.125V47.1475L273.56 55H270.971V43.377H273.56V51.2188Z" fill="#252349"/>
<path d="M28.9834 69.9922V80H27.7188V71.5713L25.1689 72.501V71.3594L28.7852 69.9922H28.9834ZM34.3018 75.2627L33.29 75.0029L33.7891 70.0469H38.8955V71.2158H34.8623L34.5615 73.9229C34.7438 73.818 34.974 73.7201 35.252 73.6289C35.5345 73.5378 35.8581 73.4922 36.2227 73.4922C36.6829 73.4922 37.0954 73.5719 37.46 73.7314C37.8245 73.8864 38.1344 74.1097 38.3896 74.4014C38.6494 74.693 38.8477 75.0439 38.9844 75.4541C39.1211 75.8643 39.1895 76.3223 39.1895 76.8281C39.1895 77.3066 39.1234 77.7464 38.9912 78.1475C38.8636 78.5485 38.6699 78.8994 38.4102 79.2002C38.1504 79.4964 37.8223 79.7266 37.4258 79.8906C37.0339 80.0547 36.5713 80.1367 36.0381 80.1367C35.637 80.1367 35.2565 80.082 34.8965 79.9727C34.541 79.8587 34.222 79.6878 33.9395 79.46C33.6615 79.2275 33.4336 78.9404 33.2559 78.5986C33.0827 78.2523 32.9733 77.8467 32.9277 77.3818H34.1309C34.1855 77.7555 34.2949 78.07 34.459 78.3252C34.623 78.5804 34.8372 78.7741 35.1016 78.9062C35.3704 79.0339 35.6826 79.0977 36.0381 79.0977C36.3389 79.0977 36.6055 79.0452 36.8379 78.9404C37.0703 78.8356 37.2663 78.6852 37.4258 78.4893C37.5853 78.2933 37.7061 78.0563 37.7881 77.7783C37.8747 77.5003 37.918 77.1882 37.918 76.8418C37.918 76.5273 37.8747 76.2357 37.7881 75.9668C37.7015 75.6979 37.5716 75.4632 37.3984 75.2627C37.2298 75.0622 37.0225 74.9072 36.7764 74.7979C36.5303 74.6839 36.2477 74.627 35.9287 74.627C35.5049 74.627 35.1836 74.6839 34.9648 74.7979C34.7507 74.9118 34.5296 75.0667 34.3018 75.2627ZM46.8252 74.2305V75.748C46.8252 76.5638 46.7523 77.252 46.6064 77.8125C46.4606 78.373 46.251 78.8242 45.9775 79.166C45.7041 79.5078 45.3737 79.7562 44.9863 79.9111C44.6035 80.0615 44.1706 80.1367 43.6875 80.1367C43.3047 80.1367 42.9515 80.0889 42.6279 79.9932C42.3044 79.8975 42.0127 79.7448 41.7529 79.5352C41.4977 79.321 41.279 79.043 41.0967 78.7012C40.9144 78.3594 40.7754 77.9447 40.6797 77.457C40.584 76.9694 40.5361 76.3997 40.5361 75.748V74.2305C40.5361 73.4147 40.609 72.7311 40.7549 72.1797C40.9053 71.6283 41.1172 71.1862 41.3906 70.8535C41.6641 70.5163 41.9922 70.2747 42.375 70.1289C42.7624 69.9831 43.1953 69.9102 43.6738 69.9102C44.0612 69.9102 44.4167 69.958 44.7402 70.0537C45.0684 70.1449 45.36 70.293 45.6152 70.498C45.8704 70.6986 46.0869 70.9674 46.2646 71.3047C46.4469 71.6374 46.5859 72.0452 46.6816 72.5283C46.7773 73.0114 46.8252 73.5788 46.8252 74.2305ZM45.5537 75.9531V74.0186C45.5537 73.5719 45.5264 73.18 45.4717 72.8428C45.4215 72.501 45.3464 72.2093 45.2461 71.9678C45.1458 71.7262 45.0182 71.5303 44.8633 71.3799C44.7129 71.2295 44.5374 71.1201 44.3369 71.0518C44.141 70.9788 43.9199 70.9424 43.6738 70.9424C43.373 70.9424 43.1064 70.9993 42.874 71.1133C42.6416 71.2227 42.4456 71.3981 42.2861 71.6396C42.1312 71.8812 42.0127 72.1979 41.9307 72.5898C41.8486 72.9818 41.8076 73.458 41.8076 74.0186V75.9531C41.8076 76.3997 41.8327 76.7939 41.8828 77.1357C41.9375 77.4775 42.0173 77.7738 42.1221 78.0244C42.2269 78.2705 42.3545 78.4733 42.5049 78.6328C42.6553 78.7923 42.8285 78.9108 43.0244 78.9883C43.2249 79.0612 43.446 79.0977 43.6875 79.0977C43.9974 79.0977 44.2686 79.0384 44.501 78.9199C44.7334 78.8014 44.9271 78.6169 45.082 78.3662C45.2415 78.111 45.36 77.7852 45.4375 77.3887C45.515 76.9876 45.5537 76.5091 45.5537 75.9531ZM54.7002 74.2305V75.748C54.7002 76.5638 54.6273 77.252 54.4814 77.8125C54.3356 78.373 54.126 78.8242 53.8525 79.166C53.5791 79.5078 53.2487 79.7562 52.8613 79.9111C52.4785 80.0615 52.0456 80.1367 51.5625 80.1367C51.1797 80.1367 50.8265 80.0889 50.5029 79.9932C50.1794 79.8975 49.8877 79.7448 49.6279 79.5352C49.3727 79.321 49.154 79.043 48.9717 78.7012C48.7894 78.3594 48.6504 77.9447 48.5547 77.457C48.459 76.9694 48.4111 76.3997 48.4111 75.748V74.2305C48.4111 73.4147 48.484 72.7311 48.6299 72.1797C48.7803 71.6283 48.9922 71.1862 49.2656 70.8535C49.5391 70.5163 49.8672 70.2747 50.25 70.1289C50.6374 69.9831 51.0703 69.9102 51.5488 69.9102C51.9362 69.9102 52.2917 69.958 52.6152 70.0537C52.9434 70.1449 53.235 70.293 53.4902 70.498C53.7454 70.6986 53.9619 70.9674 54.1396 71.3047C54.3219 71.6374 54.4609 72.0452 54.5566 72.5283C54.6523 73.0114 54.7002 73.5788 54.7002 74.2305ZM53.4287 75.9531V74.0186C53.4287 73.5719 53.4014 73.18 53.3467 72.8428C53.2965 72.501 53.2214 72.2093 53.1211 71.9678C53.0208 71.7262 52.8932 71.5303 52.7383 71.3799C52.5879 71.2295 52.4124 71.1201 52.2119 71.0518C52.016 70.9788 51.7949 70.9424 51.5488 70.9424C51.248 70.9424 50.9814 70.9993 50.749 71.1133C50.5166 71.2227 50.3206 71.3981 50.1611 71.6396C50.0062 71.8812 49.8877 72.1979 49.8057 72.5898C49.7236 72.9818 49.6826 73.458 49.6826 74.0186V75.9531C49.6826 76.3997 49.7077 76.7939 49.7578 77.1357C49.8125 77.4775 49.8923 77.7738 49.9971 78.0244C50.1019 78.2705 50.2295 78.4733 50.3799 78.6328C50.5303 78.7923 50.7035 78.9108 50.8994 78.9883C51.0999 79.0612 51.321 79.0977 51.5625 79.0977C51.8724 79.0977 52.1436 79.0384 52.376 78.9199C52.6084 78.8014 52.8021 78.6169 52.957 78.3662C53.1165 78.111 53.235 77.7852 53.3125 77.3887C53.39 76.9876 53.4287 76.5091 53.4287 75.9531ZM64.1885 78.3184L66.7041 72.6035H67.9209L64.626 80H63.751L60.4697 72.6035H61.6865L64.1885 78.3184ZM61.3174 72.6035V80H60.0527V72.6035H61.3174ZM67.0186 80V72.6035H68.29V80H67.0186ZM75.1055 72.6035V73.6494H71.6875V80H70.4229V72.6035H75.1055ZM80.6084 70.0469L76.459 80.8545H75.3721L79.5283 70.0469H80.6084ZM84.9492 79.0977C85.25 79.0977 85.528 79.0361 85.7832 78.9131C86.0384 78.79 86.248 78.6214 86.4121 78.4072C86.5762 78.1885 86.6696 77.9401 86.6924 77.6621H87.8955C87.8727 78.0996 87.7246 78.5075 87.4512 78.8857C87.1823 79.2594 86.8291 79.5625 86.3916 79.7949C85.9541 80.0228 85.4733 80.1367 84.9492 80.1367C84.3932 80.1367 83.9079 80.0387 83.4932 79.8428C83.083 79.6468 82.7412 79.3779 82.4678 79.0361C82.1989 78.6943 81.9961 78.3024 81.8594 77.8604C81.7272 77.4137 81.6611 76.9421 81.6611 76.4453V76.1582C81.6611 75.6615 81.7272 75.1921 81.8594 74.75C81.9961 74.3034 82.1989 73.9092 82.4678 73.5674C82.7412 73.2256 83.083 72.9567 83.4932 72.7607C83.9079 72.5648 84.3932 72.4668 84.9492 72.4668C85.528 72.4668 86.0339 72.5853 86.4668 72.8223C86.8997 73.0547 87.2393 73.3737 87.4854 73.7793C87.736 74.1803 87.8727 74.6361 87.8955 75.1465H86.6924C86.6696 74.8411 86.583 74.5654 86.4326 74.3193C86.2868 74.0732 86.0863 73.8773 85.8311 73.7314C85.5804 73.5811 85.2865 73.5059 84.9492 73.5059C84.5618 73.5059 84.236 73.5833 83.9717 73.7383C83.7119 73.8887 83.5046 74.0938 83.3496 74.3535C83.1992 74.6087 83.0898 74.8936 83.0215 75.208C82.9577 75.5179 82.9258 75.8346 82.9258 76.1582V76.4453C82.9258 76.7689 82.9577 77.0879 83.0215 77.4023C83.0853 77.7168 83.1924 78.0016 83.3428 78.2568C83.4977 78.512 83.7051 78.7171 83.9648 78.8721C84.2292 79.0225 84.5573 79.0977 84.9492 79.0977ZM91.3955 79.2344L93.4531 72.6035H94.8066L91.8398 81.1416C91.7715 81.3239 91.6803 81.5199 91.5664 81.7295C91.457 81.9437 91.3158 82.1465 91.1426 82.3379C90.9694 82.5293 90.7598 82.6842 90.5137 82.8027C90.2721 82.9258 89.9827 82.9873 89.6455 82.9873C89.5452 82.9873 89.4176 82.9736 89.2627 82.9463C89.1077 82.9189 88.9984 82.8962 88.9346 82.8779L88.9277 81.8525C88.9642 81.8571 89.0212 81.8617 89.0986 81.8662C89.1807 81.8753 89.2376 81.8799 89.2695 81.8799C89.5566 81.8799 89.8005 81.8411 90.001 81.7637C90.2015 81.6908 90.3701 81.5654 90.5068 81.3877C90.6481 81.2145 90.7689 80.9753 90.8691 80.6699L91.3955 79.2344ZM89.8848 72.6035L91.8057 78.3457L92.1338 79.6787L91.2246 80.1436L88.5039 72.6035H89.8848ZM98.9629 72.6035V80H97.6914V72.6035H98.9629ZM101.444 72.6035V73.6289H95.2578V72.6035H101.444ZM104.062 72.6035V80H102.798V72.6035H104.062ZM108.916 72.6035L105.409 76.8418H103.639L103.447 75.7344H104.896L107.378 72.6035H108.916ZM107.556 80L104.835 76.6504L105.648 75.7344L109.162 80H107.556ZM111.63 77.9971L115.041 72.6035H116.312V80H115.041V74.6064L111.63 80H110.372V72.6035H111.63V77.9971Z" fill="#4B5563"/>
<path d="M193.26 70.0469V70.7578L189.138 80H187.805L191.92 71.0859H186.533V70.0469H193.26ZM196.302 75.2627L195.29 75.0029L195.789 70.0469H200.896V71.2158H196.862L196.562 73.9229C196.744 73.818 196.974 73.7201 197.252 73.6289C197.535 73.5378 197.858 73.4922 198.223 73.4922C198.683 73.4922 199.095 73.5719 199.46 73.7314C199.825 73.8864 200.134 74.1097 200.39 74.4014C200.649 74.693 200.848 75.0439 200.984 75.4541C201.121 75.8643 201.189 76.3223 201.189 76.8281C201.189 77.3066 201.123 77.7464 200.991 78.1475C200.864 78.5485 200.67 78.8994 200.41 79.2002C200.15 79.4964 199.822 79.7266 199.426 79.8906C199.034 80.0547 198.571 80.1367 198.038 80.1367C197.637 80.1367 197.257 80.082 196.896 79.9727C196.541 79.8587 196.222 79.6878 195.939 79.46C195.661 79.2275 195.434 78.9404 195.256 78.5986C195.083 78.2523 194.973 77.8467 194.928 77.3818H196.131C196.186 77.7555 196.295 78.07 196.459 78.3252C196.623 78.5804 196.837 78.7741 197.102 78.9062C197.37 79.0339 197.683 79.0977 198.038 79.0977C198.339 79.0977 198.605 79.0452 198.838 78.9404C199.07 78.8356 199.266 78.6852 199.426 78.4893C199.585 78.2933 199.706 78.0563 199.788 77.7783C199.875 77.5003 199.918 77.1882 199.918 76.8418C199.918 76.5273 199.875 76.2357 199.788 75.9668C199.701 75.6979 199.572 75.4632 199.398 75.2627C199.23 75.0622 199.022 74.9072 198.776 74.7979C198.53 74.6839 198.248 74.627 197.929 74.627C197.505 74.627 197.184 74.6839 196.965 74.7979C196.751 74.9118 196.53 75.0667 196.302 75.2627ZM208.825 74.2305V75.748C208.825 76.5638 208.752 77.252 208.606 77.8125C208.461 78.373 208.251 78.8242 207.978 79.166C207.704 79.5078 207.374 79.7562 206.986 79.9111C206.604 80.0615 206.171 80.1367 205.688 80.1367C205.305 80.1367 204.951 80.0889 204.628 79.9932C204.304 79.8975 204.013 79.7448 203.753 79.5352C203.498 79.321 203.279 79.043 203.097 78.7012C202.914 78.3594 202.775 77.9447 202.68 77.457C202.584 76.9694 202.536 76.3997 202.536 75.748V74.2305C202.536 73.4147 202.609 72.7311 202.755 72.1797C202.905 71.6283 203.117 71.1862 203.391 70.8535C203.664 70.5163 203.992 70.2747 204.375 70.1289C204.762 69.9831 205.195 69.9102 205.674 69.9102C206.061 69.9102 206.417 69.958 206.74 70.0537C207.068 70.1449 207.36 70.293 207.615 70.498C207.87 70.6986 208.087 70.9674 208.265 71.3047C208.447 71.6374 208.586 72.0452 208.682 72.5283C208.777 73.0114 208.825 73.5788 208.825 74.2305ZM207.554 75.9531V74.0186C207.554 73.5719 207.526 73.18 207.472 72.8428C207.422 72.501 207.346 72.2093 207.246 71.9678C207.146 71.7262 207.018 71.5303 206.863 71.3799C206.713 71.2295 206.537 71.1201 206.337 71.0518C206.141 70.9788 205.92 70.9424 205.674 70.9424C205.373 70.9424 205.106 70.9993 204.874 71.1133C204.642 71.2227 204.446 71.3981 204.286 71.6396C204.131 71.8812 204.013 72.1979 203.931 72.5898C203.849 72.9818 203.808 73.458 203.808 74.0186V75.9531C203.808 76.3997 203.833 76.7939 203.883 77.1357C203.938 77.4775 204.017 77.7738 204.122 78.0244C204.227 78.2705 204.354 78.4733 204.505 78.6328C204.655 78.7923 204.828 78.9108 205.024 78.9883C205.225 79.0612 205.446 79.0977 205.688 79.0977C205.997 79.0977 206.269 79.0384 206.501 78.9199C206.733 78.8014 206.927 78.6169 207.082 78.3662C207.242 78.111 207.36 77.7852 207.438 77.3887C207.515 76.9876 207.554 76.5091 207.554 75.9531ZM218.313 78.3184L220.829 72.6035H222.046L218.751 80H217.876L214.595 72.6035H215.812L218.313 78.3184ZM215.442 72.6035V80H214.178V72.6035H215.442ZM221.144 80V72.6035H222.415V80H221.144ZM229.23 72.6035V73.6494H225.812V80H224.548V72.6035H229.23ZM240.188 78.9609V80H233.674V79.0908L236.935 75.4609C237.336 75.0143 237.646 74.6361 237.864 74.3262C238.088 74.0117 238.243 73.7314 238.329 73.4854C238.42 73.2347 238.466 72.9795 238.466 72.7197C238.466 72.3916 238.397 72.0954 238.261 71.8311C238.129 71.5622 237.933 71.348 237.673 71.1885C237.413 71.029 237.099 70.9492 236.729 70.9492C236.287 70.9492 235.918 71.0358 235.622 71.209C235.33 71.3776 235.112 71.6146 234.966 71.9199C234.82 72.2253 234.747 72.5762 234.747 72.9727H233.482C233.482 72.4121 233.605 71.8994 233.852 71.4346C234.098 70.9697 234.462 70.6006 234.945 70.3271C235.428 70.0492 236.023 69.9102 236.729 69.9102C237.358 69.9102 237.896 70.0218 238.343 70.2451C238.789 70.4639 239.131 70.7738 239.368 71.1748C239.61 71.5713 239.73 72.0361 239.73 72.5693C239.73 72.861 239.68 73.1572 239.58 73.458C239.484 73.7542 239.35 74.0505 239.177 74.3467C239.008 74.6429 238.81 74.9346 238.582 75.2217C238.359 75.5088 238.119 75.7913 237.864 76.0693L235.198 78.9609H240.188ZM246.416 74.0254V82.8438H245.145V72.6035H246.307L246.416 74.0254ZM251.399 76.2402V76.3838C251.399 76.9215 251.336 77.4206 251.208 77.8809C251.08 78.3366 250.894 78.7331 250.647 79.0703C250.406 79.4076 250.107 79.6696 249.752 79.8564C249.396 80.0433 248.989 80.1367 248.528 80.1367C248.059 80.1367 247.644 80.0592 247.284 79.9043C246.924 79.7493 246.619 79.5238 246.368 79.2275C246.118 78.9313 245.917 78.5758 245.767 78.1611C245.621 77.7464 245.521 77.2793 245.466 76.7598V75.9941C245.521 75.4473 245.623 74.9574 245.773 74.5244C245.924 74.0915 246.122 73.7223 246.368 73.417C246.619 73.1071 246.922 72.8724 247.277 72.7129C247.633 72.5488 248.043 72.4668 248.508 72.4668C248.973 72.4668 249.385 72.5579 249.745 72.7402C250.105 72.918 250.408 73.1732 250.654 73.5059C250.9 73.8385 251.085 74.2373 251.208 74.7021C251.336 75.1624 251.399 75.6751 251.399 76.2402ZM250.128 76.3838V76.2402C250.128 75.8711 250.089 75.5247 250.012 75.2012C249.934 74.873 249.813 74.5859 249.649 74.3398C249.49 74.0892 249.285 73.8932 249.034 73.752C248.784 73.6061 248.485 73.5332 248.139 73.5332C247.82 73.5332 247.542 73.5879 247.305 73.6973C247.072 73.8066 246.874 73.9548 246.71 74.1416C246.546 74.3239 246.411 74.5335 246.307 74.7705C246.206 75.0029 246.131 75.2445 246.081 75.4951V77.2656C246.172 77.5846 246.3 77.8854 246.464 78.168C246.628 78.446 246.847 78.6715 247.12 78.8447C247.394 79.0133 247.738 79.0977 248.152 79.0977C248.494 79.0977 248.788 79.027 249.034 78.8857C249.285 78.7399 249.49 78.5417 249.649 78.291C249.813 78.0404 249.934 77.7533 250.012 77.4297C250.089 77.1016 250.128 76.7529 250.128 76.3838ZM257.374 78.7354V74.9277C257.374 74.6361 257.315 74.3831 257.196 74.1689C257.082 73.9502 256.909 73.7816 256.677 73.6631C256.444 73.5446 256.157 73.4854 255.815 73.4854C255.496 73.4854 255.216 73.54 254.975 73.6494C254.738 73.7588 254.551 73.9023 254.414 74.0801C254.282 74.2578 254.216 74.4492 254.216 74.6543H252.951C252.951 74.39 253.02 74.1279 253.156 73.8682C253.293 73.6084 253.489 73.3737 253.744 73.1641C254.004 72.9499 254.314 72.7812 254.674 72.6582C255.038 72.5306 255.444 72.4668 255.891 72.4668C256.428 72.4668 256.902 72.5579 257.312 72.7402C257.727 72.9225 258.051 73.1982 258.283 73.5674C258.52 73.932 258.639 74.39 258.639 74.9414V78.3867C258.639 78.6328 258.659 78.8949 258.7 79.1729C258.746 79.4508 258.812 79.6901 258.898 79.8906V80H257.579C257.515 79.8542 257.465 79.6605 257.429 79.4189C257.392 79.1729 257.374 78.945 257.374 78.7354ZM257.593 75.5156L257.606 76.4043H256.328C255.968 76.4043 255.647 76.4339 255.364 76.4932C255.082 76.5479 254.845 76.6322 254.653 76.7461C254.462 76.86 254.316 77.0036 254.216 77.1768C254.116 77.3454 254.065 77.5436 254.065 77.7715C254.065 78.0039 254.118 78.2158 254.223 78.4072C254.327 78.5986 254.485 78.7513 254.694 78.8652C254.909 78.9746 255.171 79.0293 255.48 79.0293C255.868 79.0293 256.21 78.9473 256.506 78.7832C256.802 78.6191 257.037 78.4186 257.21 78.1816C257.388 77.9447 257.483 77.7145 257.497 77.4912L258.037 78.0996C258.005 78.291 257.919 78.5029 257.777 78.7354C257.636 78.9678 257.447 79.1911 257.21 79.4053C256.978 79.6149 256.7 79.7904 256.376 79.9316C256.057 80.0684 255.697 80.1367 255.296 80.1367C254.795 80.1367 254.355 80.0387 253.977 79.8428C253.603 79.6468 253.311 79.3848 253.102 79.0566C252.896 78.724 252.794 78.3525 252.794 77.9424C252.794 77.5459 252.871 77.1973 253.026 76.8965C253.181 76.5911 253.405 76.3382 253.696 76.1377C253.988 75.9326 254.339 75.7777 254.749 75.6729C255.159 75.568 255.617 75.5156 256.123 75.5156H257.593ZM263.39 76.4658H262.029V75.6865H263.287C263.638 75.6865 263.916 75.6432 264.121 75.5566C264.326 75.4655 264.472 75.3402 264.559 75.1807C264.645 75.0212 264.688 74.8343 264.688 74.6201C264.688 74.4287 264.638 74.2487 264.538 74.0801C264.442 73.9069 264.287 73.7679 264.073 73.6631C263.859 73.5537 263.572 73.499 263.212 73.499C262.92 73.499 262.656 73.5514 262.419 73.6562C262.182 73.7565 261.993 73.8955 261.852 74.0732C261.715 74.2464 261.646 74.4424 261.646 74.6611H260.382C260.382 74.21 260.509 73.8226 260.765 73.499C261.024 73.1709 261.368 72.918 261.797 72.7402C262.23 72.5625 262.701 72.4736 263.212 72.4736C263.64 72.4736 264.023 72.5215 264.36 72.6172C264.702 72.7083 264.992 72.8451 265.229 73.0273C265.465 73.2051 265.646 73.4284 265.769 73.6973C265.896 73.9616 265.96 74.2692 265.96 74.6201C265.96 74.8708 265.901 75.1077 265.782 75.3311C265.664 75.5544 265.493 75.7526 265.27 75.9258C265.046 76.0944 264.775 76.2266 264.456 76.3223C264.142 76.418 263.786 76.4658 263.39 76.4658ZM262.029 75.9873H263.39C263.832 75.9873 264.221 76.0306 264.559 76.1172C264.896 76.1992 265.178 76.3223 265.406 76.4863C265.634 76.6504 265.805 76.8532 265.919 77.0947C266.037 77.3317 266.097 77.6051 266.097 77.915C266.097 78.2614 266.026 78.5736 265.885 78.8516C265.748 79.125 265.552 79.3574 265.297 79.5488C265.042 79.7402 264.736 79.8861 264.381 79.9863C264.03 80.0866 263.64 80.1367 263.212 80.1367C262.733 80.1367 262.269 80.0547 261.817 79.8906C261.366 79.7266 260.995 79.4736 260.703 79.1318C260.411 78.7855 260.266 78.3457 260.266 77.8125H261.53C261.53 78.0358 261.601 78.2477 261.742 78.4482C261.883 78.6488 262.079 78.8105 262.33 78.9336C262.585 79.0566 262.879 79.1182 263.212 79.1182C263.567 79.1182 263.864 79.0635 264.101 78.9541C264.338 78.8447 264.515 78.6989 264.634 78.5166C264.757 78.3343 264.818 78.1361 264.818 77.9219C264.818 77.6439 264.764 77.4206 264.654 77.252C264.545 77.0833 264.376 76.9603 264.148 76.8828C263.925 76.8008 263.638 76.7598 263.287 76.7598H262.029V75.9873ZM272.099 78.7354V74.9277C272.099 74.6361 272.039 74.3831 271.921 74.1689C271.807 73.9502 271.634 73.7816 271.401 73.6631C271.169 73.5446 270.882 73.4854 270.54 73.4854C270.221 73.4854 269.941 73.54 269.699 73.6494C269.462 73.7588 269.275 73.9023 269.139 74.0801C269.007 74.2578 268.94 74.4492 268.94 74.6543H267.676C267.676 74.39 267.744 74.1279 267.881 73.8682C268.018 73.6084 268.214 73.3737 268.469 73.1641C268.729 72.9499 269.038 72.7812 269.398 72.6582C269.763 72.5306 270.169 72.4668 270.615 72.4668C271.153 72.4668 271.627 72.5579 272.037 72.7402C272.452 72.9225 272.775 73.1982 273.008 73.5674C273.245 73.932 273.363 74.39 273.363 74.9414V78.3867C273.363 78.6328 273.384 78.8949 273.425 79.1729C273.47 79.4508 273.536 79.6901 273.623 79.8906V80H272.304C272.24 79.8542 272.19 79.6605 272.153 79.4189C272.117 79.1729 272.099 78.945 272.099 78.7354ZM272.317 75.5156L272.331 76.4043H271.053C270.693 76.4043 270.371 76.4339 270.089 76.4932C269.806 76.5479 269.569 76.6322 269.378 76.7461C269.187 76.86 269.041 77.0036 268.94 77.1768C268.84 77.3454 268.79 77.5436 268.79 77.7715C268.79 78.0039 268.842 78.2158 268.947 78.4072C269.052 78.5986 269.209 78.7513 269.419 78.8652C269.633 78.9746 269.895 79.0293 270.205 79.0293C270.592 79.0293 270.934 78.9473 271.23 78.7832C271.527 78.6191 271.761 78.4186 271.935 78.1816C272.112 77.9447 272.208 77.7145 272.222 77.4912L272.762 78.0996C272.73 78.291 272.643 78.5029 272.502 78.7354C272.361 78.9678 272.172 79.1911 271.935 79.4053C271.702 79.6149 271.424 79.7904 271.101 79.9316C270.782 80.0684 270.422 80.1367 270.021 80.1367C269.519 80.1367 269.079 80.0387 268.701 79.8428C268.327 79.6468 268.036 79.3848 267.826 79.0566C267.621 78.724 267.519 78.3525 267.519 77.9424C267.519 77.5459 267.596 77.1973 267.751 76.8965C267.906 76.5911 268.129 76.3382 268.421 76.1377C268.713 75.9326 269.063 75.7777 269.474 75.6729C269.884 75.568 270.342 75.5156 270.848 75.5156H272.317ZM279.755 70.0469L275.605 80.8545H274.519L278.675 70.0469H279.755ZM284.096 79.0977C284.396 79.0977 284.674 79.0361 284.93 78.9131C285.185 78.79 285.395 78.6214 285.559 78.4072C285.723 78.1885 285.816 77.9401 285.839 77.6621H287.042C287.019 78.0996 286.871 78.5075 286.598 78.8857C286.329 79.2594 285.976 79.5625 285.538 79.7949C285.101 80.0228 284.62 80.1367 284.096 80.1367C283.54 80.1367 283.054 80.0387 282.64 79.8428C282.229 79.6468 281.888 79.3779 281.614 79.0361C281.345 78.6943 281.143 78.3024 281.006 77.8604C280.874 77.4137 280.808 76.9421 280.808 76.4453V76.1582C280.808 75.6615 280.874 75.1921 281.006 74.75C281.143 74.3034 281.345 73.9092 281.614 73.5674C281.888 73.2256 282.229 72.9567 282.64 72.7607C283.054 72.5648 283.54 72.4668 284.096 72.4668C284.674 72.4668 285.18 72.5853 285.613 72.8223C286.046 73.0547 286.386 73.3737 286.632 73.7793C286.882 74.1803 287.019 74.6361 287.042 75.1465H285.839C285.816 74.8411 285.729 74.5654 285.579 74.3193C285.433 74.0732 285.233 73.8773 284.978 73.7314C284.727 73.5811 284.433 73.5059 284.096 73.5059C283.708 73.5059 283.382 73.5833 283.118 73.7383C282.858 73.8887 282.651 74.0938 282.496 74.3535C282.346 74.6087 282.236 74.8936 282.168 75.208C282.104 75.5179 282.072 75.8346 282.072 76.1582V76.4453C282.072 76.7689 282.104 77.0879 282.168 77.4023C282.232 77.7168 282.339 78.0016 282.489 78.2568C282.644 78.512 282.852 78.7171 283.111 78.8721C283.376 79.0225 283.704 79.0977 284.096 79.0977ZM290.542 79.2344L292.6 72.6035H293.953L290.986 81.1416C290.918 81.3239 290.827 81.5199 290.713 81.7295C290.604 81.9437 290.462 82.1465 290.289 82.3379C290.116 82.5293 289.906 82.6842 289.66 82.8027C289.419 82.9258 289.129 82.9873 288.792 82.9873C288.692 82.9873 288.564 82.9736 288.409 82.9463C288.254 82.9189 288.145 82.8962 288.081 82.8779L288.074 81.8525C288.111 81.8571 288.168 81.8617 288.245 81.8662C288.327 81.8753 288.384 81.8799 288.416 81.8799C288.703 81.8799 288.947 81.8411 289.147 81.7637C289.348 81.6908 289.517 81.5654 289.653 81.3877C289.795 81.2145 289.915 80.9753 290.016 80.6699L290.542 79.2344ZM289.031 72.6035L290.952 78.3457L291.28 79.6787L290.371 80.1436L287.65 72.6035H289.031ZM298.109 72.6035V80H296.838V72.6035H298.109ZM300.591 72.6035V73.6289H294.404V72.6035H300.591ZM303.209 72.6035V80H301.944V72.6035H303.209ZM308.062 72.6035L304.556 76.8418H302.785L302.594 75.7344H304.043L306.524 72.6035H308.062ZM306.702 80L303.981 76.6504L304.795 75.7344L308.309 80H306.702ZM310.776 77.9971L314.188 72.6035H315.459V80H314.188V74.6064L310.776 80H309.519V72.6035H310.776V77.9971Z" fill="#4B5563"/>
<path d="M152 0L152 120" stroke="#D8C8EC" stroke-dasharray="6 6"/>
<rect x="134" y="48" width="33" height="24" rx="4" fill="#703E97"/>
<path d="M140.55 61.5938L143.455 56.6035H145.103V64H143.455V59.0029L140.55 64H138.902V56.6035H140.55V61.5938ZM151.815 56.6035V57.916H148.206V56.6035H151.815ZM153.107 56.6035V64H151.46V56.6035H153.107ZM147.803 56.6035H149.43L149.231 60.2607C149.204 60.8031 149.149 61.2816 149.067 61.6963C148.99 62.1064 148.885 62.4596 148.753 62.7559C148.621 63.0475 148.459 63.2845 148.268 63.4668C148.076 63.6491 147.853 63.7835 147.598 63.8701C147.342 63.9567 147.055 64 146.736 64H146.224L146.217 62.6465L146.477 62.626C146.645 62.6123 146.791 62.569 146.914 62.4961C147.037 62.4186 147.142 62.3092 147.229 62.168C147.32 62.0267 147.393 61.8444 147.447 61.6211C147.507 61.3978 147.552 61.1335 147.584 60.8281C147.62 60.5228 147.648 60.1673 147.666 59.7617L147.803 56.6035ZM156.56 61.5938L159.465 56.6035H161.112V64H159.465V59.0029L156.56 64H154.912V56.6035H156.56V61.5938Z" fill="white"/>
</svg>
