<svg width="264" height="272" viewBox="0 0 264 272" fill="none" xmlns="http://www.w3.org/2000/svg">
<path d="M70.0538 242.77L70.1038 240.62H71.1338C72.1004 240.62 72.8738 240.473 73.4538 240.18C74.0404 239.887 74.4671 239.463 74.7338 238.91C75.0004 238.357 75.1338 237.683 75.1338 236.89C75.1338 236.077 75.0004 235.393 74.7338 234.84C74.4738 234.28 74.0571 233.853 73.4838 233.56C72.9104 233.267 72.1504 233.12 71.2038 233.12H70.2038L70.1538 230.97H71.2338C72.8471 230.97 74.1504 231.22 75.1438 231.72C76.1438 232.22 76.8704 232.913 77.3238 233.8C77.7838 234.687 78.0138 235.717 78.0138 236.89C78.0138 238.017 77.7871 239.023 77.3338 239.91C76.8804 240.797 76.1471 241.497 75.1338 242.01C74.1271 242.517 72.7804 242.77 71.0938 242.77H70.0538ZM68.7138 242.77C67.4471 242.77 66.3738 242.623 65.4938 242.33C64.6138 242.037 63.9004 241.627 63.3538 241.1C62.8138 240.567 62.4171 239.943 62.1638 239.23C61.9171 238.517 61.7938 237.737 61.7938 236.89C61.7938 235.717 62.0204 234.687 62.4738 233.8C62.9338 232.913 63.6604 232.22 64.6538 231.72C65.6538 231.22 66.9604 230.97 68.5738 230.97H69.6438L69.5938 233.12H68.5938C67.6538 233.12 66.8938 233.267 66.3138 233.56C65.7404 233.853 65.3204 234.28 65.0538 234.84C64.7938 235.393 64.6638 236.077 64.6638 236.89C64.6638 237.683 64.7971 238.357 65.0638 238.91C65.3304 239.463 65.7538 239.887 66.3338 240.18C66.9204 240.473 67.6971 240.62 68.6638 240.62H69.6938L69.7438 242.77H68.7138ZM68.5038 244.35C68.5038 243.997 68.5038 243.66 68.5038 243.34C68.5038 243.02 68.5038 242.697 68.5038 242.37L68.5838 242.31C68.5838 241.85 68.5838 241.38 68.5838 240.9C68.5838 240.42 68.5838 239.917 68.5838 239.39V234.35C68.5838 233.823 68.5838 233.32 68.5838 232.84C68.5838 232.36 68.5838 231.89 68.5838 231.43L68.5038 231.37C68.5038 231.043 68.5038 230.72 68.5038 230.4C68.5038 230.073 68.5038 229.737 68.5038 229.39H71.2938C71.2938 229.737 71.2938 230.073 71.2938 230.4C71.2938 230.72 71.2938 231.043 71.2938 231.37L71.2138 231.43C71.2138 231.89 71.2138 232.36 71.2138 232.84C71.2138 233.32 71.2138 233.823 71.2138 234.35V239.39C71.2138 239.917 71.2138 240.42 71.2138 240.9C71.2138 241.373 71.2138 241.843 71.2138 242.31L71.2938 242.37C71.2938 242.69 71.2938 243.013 71.2938 243.34C71.2938 243.66 71.2938 243.997 71.2938 244.35H68.5038ZM82.2209 244C82.2209 243.28 82.2209 242.583 82.2209 241.91C82.2209 241.237 82.2209 240.487 82.2209 239.66V238.66C82.2209 238.073 82.2209 237.547 82.2209 237.08C82.2209 236.613 82.2209 236.17 82.2209 235.75C82.2209 235.33 82.2209 234.893 82.2209 234.44L83.0309 236.05H82.6009C82.0409 236.05 81.4609 236.05 80.8609 236.05C80.2676 236.05 79.6809 236.05 79.1009 236.05V234.04H87.8709V236.05C87.2976 236.05 86.7109 236.05 86.1109 236.05C85.5176 236.05 84.9376 236.05 84.3709 236.05H83.9509L84.7609 234.44C84.7609 234.893 84.7609 235.33 84.7609 235.75C84.7609 236.17 84.7609 236.613 84.7609 237.08C84.7609 237.547 84.7609 238.073 84.7609 238.66V239.66C84.7609 240.487 84.7609 241.237 84.7609 241.91C84.7609 242.583 84.7609 243.28 84.7609 244H82.2209ZM94.1841 244.25C93.3041 244.25 92.5374 244.11 91.8841 243.83C91.2307 243.543 90.6874 243.153 90.2541 242.66C89.8207 242.167 89.4974 241.603 89.2841 240.97C89.0707 240.337 88.9641 239.673 88.9641 238.98C88.9641 237.987 89.1641 237.1 89.5641 236.32C89.9641 235.533 90.5474 234.913 91.3141 234.46C92.0874 234.007 93.0274 233.78 94.1341 233.78C94.9874 233.78 95.7341 233.913 96.3741 234.18C97.0207 234.44 97.5607 234.807 97.9941 235.28C98.4341 235.753 98.7641 236.307 98.9841 236.94C99.2041 237.567 99.3141 238.247 99.3141 238.98C99.3141 239.98 99.1107 240.877 98.7041 241.67C98.3041 242.463 97.7207 243.093 96.9541 243.56C96.1874 244.02 95.2641 244.25 94.1841 244.25ZM94.1741 242.15C94.7474 242.15 95.2207 242 95.5941 241.7C95.9741 241.393 96.2574 241 96.4441 240.52C96.6307 240.04 96.7241 239.527 96.7241 238.98C96.7241 238.34 96.6174 237.79 96.4041 237.33C96.1974 236.863 95.9007 236.507 95.5141 236.26C95.1274 236.007 94.6774 235.88 94.1641 235.88C93.5974 235.88 93.1174 236.02 92.7241 236.3C92.3374 236.573 92.0441 236.943 91.8441 237.41C91.6507 237.877 91.5541 238.4 91.5541 238.98C91.5541 239.527 91.6507 240.04 91.8441 240.52C92.0374 241 92.3274 241.393 92.7141 241.7C93.1074 242 93.5941 242.15 94.1741 242.15ZM101.407 247.92C101.407 247.2 101.407 246.49 101.407 245.79C101.407 245.09 101.407 244.327 101.407 243.5V238.66C101.407 237.907 101.407 237.143 101.407 236.37C101.407 235.597 101.407 234.82 101.407 234.04L103.677 233.91L103.747 235.25H103.967C104.167 234.957 104.411 234.7 104.697 234.48C104.991 234.253 105.324 234.08 105.697 233.96C106.071 233.84 106.481 233.78 106.927 233.78C107.814 233.78 108.564 234.01 109.177 234.47C109.791 234.923 110.254 235.547 110.567 236.34C110.881 237.127 111.037 238.013 111.037 239C111.037 239.927 110.891 240.79 110.597 241.59C110.304 242.39 109.854 243.033 109.247 243.52C108.641 244.007 107.877 244.25 106.957 244.25C106.537 244.25 106.154 244.193 105.807 244.08C105.467 243.973 105.157 243.817 104.877 243.61C104.597 243.403 104.344 243.153 104.117 242.86H103.947V243.63C103.947 244.39 103.947 245.1 103.947 245.76C103.947 246.427 103.947 247.12 103.947 247.84L101.407 247.92ZM106.037 242.06C106.591 242.06 107.044 241.917 107.397 241.63C107.757 241.337 108.021 240.96 108.187 240.5C108.354 240.04 108.437 239.547 108.437 239.02C108.437 238.467 108.347 237.963 108.167 237.51C107.994 237.05 107.727 236.683 107.367 236.41C107.014 236.13 106.564 235.99 106.017 235.99C105.744 235.99 105.481 236.033 105.227 236.12C104.974 236.2 104.737 236.32 104.517 236.48C104.297 236.633 104.107 236.823 103.947 237.05V240.78C104.101 241.04 104.277 241.267 104.477 241.46C104.677 241.653 104.907 241.803 105.167 241.91C105.427 242.01 105.717 242.06 106.037 242.06ZM112.585 244C112.665 243.28 112.742 242.567 112.815 241.86C112.895 241.153 112.972 240.453 113.045 239.76L113.185 238.4C113.265 237.68 113.345 236.953 113.425 236.22C113.505 235.487 113.582 234.76 113.655 234.04H116.445C116.672 234.593 116.899 235.153 117.125 235.72C117.352 236.287 117.575 236.843 117.795 237.39L119.095 240.65H119.295L120.575 237.39C120.802 236.83 121.025 236.27 121.245 235.71C121.465 235.15 121.685 234.593 121.905 234.04H124.635C124.715 234.747 124.795 235.473 124.875 236.22C124.962 236.967 125.045 237.697 125.125 238.41L125.285 239.8C125.359 240.467 125.435 241.153 125.515 241.86C125.595 242.567 125.675 243.28 125.755 244H123.365C123.299 243.327 123.229 242.65 123.155 241.97C123.089 241.29 123.019 240.617 122.945 239.95L122.675 237.38H122.485L121.495 240.11C121.262 240.757 121.029 241.403 120.795 242.05C120.562 242.697 120.329 243.347 120.095 244H118.295C118.049 243.347 117.802 242.7 117.555 242.06C117.315 241.42 117.075 240.783 116.835 240.15L115.785 237.38H115.595L115.325 239.9C115.252 240.587 115.179 241.273 115.105 241.96C115.032 242.64 114.959 243.32 114.885 244H112.585ZM132.607 244.25C131.353 244.25 130.327 244.023 129.527 243.57C128.727 243.117 128.137 242.493 127.757 241.7C127.377 240.907 127.187 240 127.187 238.98C127.187 237.967 127.367 237.07 127.727 236.29C128.093 235.503 128.63 234.89 129.337 234.45C130.043 234.01 130.91 233.79 131.937 233.79C132.823 233.79 133.58 233.953 134.207 234.28C134.84 234.6 135.327 235.083 135.667 235.73C136.007 236.37 136.177 237.177 136.177 238.15C136.177 238.41 136.17 238.643 136.157 238.85C136.15 239.057 136.13 239.26 136.097 239.46L133.887 238.57C133.9 238.477 133.91 238.383 133.917 238.29C133.923 238.19 133.927 238.097 133.927 238.01C133.927 237.277 133.743 236.703 133.377 236.29C133.01 235.87 132.537 235.66 131.957 235.66C131.517 235.66 131.13 235.787 130.797 236.04C130.463 236.287 130.2 236.633 130.007 237.08C129.813 237.527 129.717 238.043 129.717 238.63V239.02C129.717 239.667 129.83 240.223 130.057 240.69C130.283 241.15 130.633 241.507 131.107 241.76C131.58 242.007 132.177 242.13 132.897 242.13C133.177 242.13 133.49 242.107 133.837 242.06C134.19 242.007 134.547 241.927 134.907 241.82C135.267 241.713 135.603 241.577 135.917 241.41L135.997 243.59C135.743 243.717 135.447 243.83 135.107 243.93C134.767 244.03 134.387 244.107 133.967 244.16C133.547 244.22 133.093 244.25 132.607 244.25ZM128.187 239.46V237.87L134.597 237.76L136.097 238.33V239.46H128.187ZM140.444 244C140.444 243.28 140.444 242.583 140.444 241.91C140.444 241.237 140.444 240.487 140.444 239.66V238.66C140.444 238.073 140.444 237.547 140.444 237.08C140.444 236.613 140.444 236.17 140.444 235.75C140.444 235.33 140.444 234.893 140.444 234.44L141.254 236.05H140.824C140.264 236.05 139.684 236.05 139.084 236.05C138.49 236.05 137.904 236.05 137.324 236.05V234.04H146.094V236.05C145.52 236.05 144.934 236.05 144.334 236.05C143.74 236.05 143.16 236.05 142.594 236.05H142.174L142.984 234.44C142.984 234.893 142.984 235.33 142.984 235.75C142.984 236.17 142.984 236.613 142.984 237.08C142.984 237.547 142.984 238.073 142.984 238.66V239.66C142.984 240.487 142.984 241.237 142.984 241.91C142.984 242.583 142.984 243.28 142.984 244H140.444ZM152.407 244.25C151.527 244.25 150.76 244.11 150.107 243.83C149.453 243.543 148.91 243.153 148.477 242.66C148.043 242.167 147.72 241.603 147.507 240.97C147.293 240.337 147.187 239.673 147.187 238.98C147.187 237.987 147.387 237.1 147.787 236.32C148.187 235.533 148.77 234.913 149.537 234.46C150.31 234.007 151.25 233.78 152.357 233.78C153.21 233.78 153.957 233.913 154.597 234.18C155.243 234.44 155.783 234.807 156.217 235.28C156.657 235.753 156.987 236.307 157.207 236.94C157.427 237.567 157.537 238.247 157.537 238.98C157.537 239.98 157.333 240.877 156.927 241.67C156.527 242.463 155.943 243.093 155.177 243.56C154.41 244.02 153.487 244.25 152.407 244.25ZM152.397 242.15C152.97 242.15 153.443 242 153.817 241.7C154.197 241.393 154.48 241 154.667 240.52C154.853 240.04 154.947 239.527 154.947 238.98C154.947 238.34 154.84 237.79 154.627 237.33C154.42 236.863 154.123 236.507 153.737 236.26C153.35 236.007 152.9 235.88 152.387 235.88C151.82 235.88 151.34 236.02 150.947 236.3C150.56 236.573 150.267 236.943 150.067 237.41C149.873 237.877 149.777 238.4 149.777 238.98C149.777 239.527 149.873 240.04 150.067 240.52C150.26 241 150.55 241.393 150.937 241.7C151.33 242 151.817 242.15 152.397 242.15ZM159.832 244.21C159.692 244.21 159.536 244.203 159.362 244.19C159.196 244.177 159.032 244.157 158.872 244.13C158.719 244.11 158.582 244.08 158.462 244.04L158.572 241.92C158.679 241.94 158.782 241.957 158.882 241.97C158.989 241.977 159.072 241.98 159.132 241.98C159.459 241.98 159.719 241.857 159.912 241.61C160.112 241.363 160.266 241.037 160.372 240.63C160.479 240.217 160.559 239.763 160.612 239.27C160.666 238.77 160.706 238.27 160.732 237.77C160.772 237.13 160.812 236.497 160.852 235.87C160.899 235.237 160.942 234.627 160.982 234.04H168.732C168.732 234.52 168.732 234.993 168.732 235.46C168.732 235.92 168.732 236.41 168.732 236.93C168.732 237.443 168.732 238.02 168.732 238.66V239.66C168.732 240.487 168.732 241.237 168.732 241.91C168.732 242.583 168.732 243.28 168.732 244H166.192C166.192 243.28 166.192 242.583 166.192 241.91C166.192 241.237 166.192 240.487 166.192 239.66V238.66C166.192 238.073 166.192 237.547 166.192 237.08C166.192 236.613 166.192 236.17 166.192 235.75C166.192 235.33 166.192 234.893 166.192 234.44L167.702 236.05H162.012L163.242 234.44C163.209 234.88 163.176 235.347 163.142 235.84C163.109 236.327 163.072 236.813 163.032 237.3C162.999 237.78 162.966 238.247 162.932 238.7C162.872 239.487 162.792 240.217 162.692 240.89C162.599 241.557 162.449 242.14 162.242 242.64C162.036 243.133 161.739 243.52 161.352 243.8C160.972 244.073 160.466 244.21 159.832 244.21ZM176.059 244.25C175.179 244.25 174.412 244.11 173.759 243.83C173.106 243.543 172.562 243.153 172.129 242.66C171.696 242.167 171.372 241.603 171.159 240.97C170.946 240.337 170.839 239.673 170.839 238.98C170.839 237.987 171.039 237.1 171.439 236.32C171.839 235.533 172.422 234.913 173.189 234.46C173.962 234.007 174.902 233.78 176.009 233.78C176.862 233.78 177.609 233.913 178.249 234.18C178.896 234.44 179.436 234.807 179.869 235.28C180.309 235.753 180.639 236.307 180.859 236.94C181.079 237.567 181.189 238.247 181.189 238.98C181.189 239.98 180.986 240.877 180.579 241.67C180.179 242.463 179.596 243.093 178.829 243.56C178.062 244.02 177.139 244.25 176.059 244.25ZM176.049 242.15C176.622 242.15 177.096 242 177.469 241.7C177.849 241.393 178.132 241 178.319 240.52C178.506 240.04 178.599 239.527 178.599 238.98C178.599 238.34 178.492 237.79 178.279 237.33C178.072 236.863 177.776 236.507 177.389 236.26C177.002 236.007 176.552 235.88 176.039 235.88C175.472 235.88 174.992 236.02 174.599 236.3C174.212 236.573 173.919 236.943 173.719 237.41C173.526 237.877 173.429 238.4 173.429 238.98C173.429 239.527 173.526 240.04 173.719 240.52C173.912 241 174.202 241.393 174.589 241.7C174.982 242 175.469 242.15 176.049 242.15ZM183.282 244C183.282 243.28 183.282 242.583 183.282 241.91C183.282 241.237 183.282 240.487 183.282 239.66V238.66C183.282 238.02 183.282 237.443 183.282 236.93C183.282 236.41 183.282 235.92 183.282 235.46C183.282 234.993 183.282 234.52 183.282 234.04L185.792 233.96C185.792 234.44 185.792 234.92 185.792 235.4C185.792 235.873 185.792 236.373 185.792 236.9C185.792 237.42 185.792 238.007 185.792 238.66V239.66C185.792 240.487 185.792 241.237 185.792 241.91C185.792 242.583 185.792 243.28 185.792 244H183.282ZM184.802 239.99V238H190.742V239.99H184.802ZM189.692 244C189.692 243.28 189.692 242.583 189.692 241.91C189.692 241.237 189.692 240.487 189.692 239.66V238.66C189.692 238.02 189.692 237.443 189.692 236.93C189.692 236.41 189.692 235.92 189.692 235.46C189.692 234.993 189.692 234.52 189.692 234.04H192.202C192.202 234.52 192.202 234.993 192.202 235.46C192.202 235.92 192.202 236.41 192.202 236.93C192.202 237.443 192.202 238.02 192.202 238.66V239.66C192.202 240.487 192.202 241.237 192.202 241.91C192.202 242.583 192.202 243.28 192.202 244H189.692ZM197.256 244.23C196.696 244.23 196.196 244.113 195.756 243.88C195.316 243.647 194.966 243.31 194.706 242.87C194.453 242.423 194.326 241.887 194.326 241.26C194.326 240.707 194.423 240.24 194.616 239.86C194.809 239.473 195.063 239.16 195.376 238.92C195.696 238.673 196.046 238.483 196.426 238.35C196.813 238.217 197.203 238.12 197.596 238.06L200.446 237.64C200.466 237.173 200.386 236.813 200.206 236.56C200.033 236.307 199.783 236.133 199.456 236.04C199.129 235.94 198.753 235.89 198.326 235.89C198.099 235.89 197.853 235.91 197.586 235.95C197.326 235.983 197.049 236.037 196.756 236.11C196.469 236.183 196.169 236.277 195.856 236.39C195.543 236.497 195.223 236.627 194.896 236.78L194.776 234.57C195.023 234.477 195.299 234.383 195.606 234.29C195.919 234.197 196.259 234.113 196.626 234.04C196.993 233.96 197.373 233.9 197.766 233.86C198.166 233.813 198.576 233.79 198.996 233.79C199.809 233.79 200.503 233.91 201.076 234.15C201.656 234.383 202.099 234.76 202.406 235.28C202.713 235.793 202.866 236.463 202.866 237.29C202.866 237.61 202.866 238.007 202.866 238.48C202.866 238.953 202.866 239.387 202.866 239.78V240.88C202.866 241.367 202.866 241.863 202.866 242.37C202.866 242.87 202.866 243.413 202.866 244H200.616L200.466 242.7H200.256C200.069 242.947 199.836 243.187 199.556 243.42C199.276 243.647 198.943 243.84 198.556 244C198.176 244.153 197.743 244.23 197.256 244.23ZM198.176 242.24C198.456 242.24 198.733 242.173 199.006 242.04C199.279 241.907 199.533 241.72 199.766 241.48C200.006 241.24 200.209 240.953 200.376 240.62V239.05C200.289 239.11 200.173 239.167 200.026 239.22C199.886 239.267 199.676 239.32 199.396 239.38C199.116 239.44 198.723 239.517 198.216 239.61C197.929 239.663 197.686 239.753 197.486 239.88C197.293 240.007 197.143 240.17 197.036 240.37C196.929 240.57 196.876 240.8 196.876 241.06C196.876 241.493 197.006 241.8 197.266 241.98C197.533 242.153 197.836 242.24 198.176 242.24ZM105.039 268.23C104.479 268.23 103.979 268.113 103.539 267.88C103.099 267.647 102.749 267.31 102.489 266.87C102.236 266.423 102.109 265.887 102.109 265.26C102.109 264.707 102.206 264.24 102.399 263.86C102.593 263.473 102.846 263.16 103.159 262.92C103.479 262.673 103.829 262.483 104.209 262.35C104.596 262.217 104.986 262.12 105.379 262.06L108.229 261.64C108.249 261.173 108.169 260.813 107.989 260.56C107.816 260.307 107.566 260.133 107.239 260.04C106.913 259.94 106.536 259.89 106.109 259.89C105.883 259.89 105.636 259.91 105.369 259.95C105.109 259.983 104.833 260.037 104.539 260.11C104.253 260.183 103.953 260.277 103.639 260.39C103.326 260.497 103.006 260.627 102.679 260.78L102.559 258.57C102.806 258.477 103.083 258.383 103.389 258.29C103.703 258.197 104.043 258.113 104.409 258.04C104.776 257.96 105.156 257.9 105.549 257.86C105.949 257.813 106.359 257.79 106.779 257.79C107.593 257.79 108.286 257.91 108.859 258.15C109.439 258.383 109.883 258.76 110.189 259.28C110.496 259.793 110.649 260.463 110.649 261.29C110.649 261.61 110.649 262.007 110.649 262.48C110.649 262.953 110.649 263.387 110.649 263.78V264.88C110.649 265.367 110.649 265.863 110.649 266.37C110.649 266.87 110.649 267.413 110.649 268H108.399L108.249 266.7H108.039C107.853 266.947 107.619 267.187 107.339 267.42C107.059 267.647 106.726 267.84 106.339 268C105.959 268.153 105.526 268.23 105.039 268.23ZM105.959 266.24C106.239 266.24 106.516 266.173 106.789 266.04C107.063 265.907 107.316 265.72 107.549 265.48C107.789 265.24 107.993 264.953 108.159 264.62V263.05C108.073 263.11 107.956 263.167 107.809 263.22C107.669 263.267 107.459 263.32 107.179 263.38C106.899 263.44 106.506 263.517 105.999 263.61C105.713 263.663 105.469 263.753 105.269 263.88C105.076 264.007 104.926 264.17 104.819 264.37C104.713 264.57 104.659 264.8 104.659 265.06C104.659 265.493 104.789 265.8 105.049 265.98C105.316 266.153 105.619 266.24 105.959 266.24ZM121.159 270.71L121.059 267.69L121.489 268H112.979C112.979 267.28 112.979 266.583 112.979 265.91C112.979 265.237 112.979 264.487 112.979 263.66V262.66C112.979 262.02 112.979 261.443 112.979 260.93C112.979 260.41 112.979 259.92 112.979 259.46C112.979 258.993 112.979 258.52 112.979 258.04L115.519 257.96C115.519 258.44 115.519 258.92 115.519 259.4C115.519 259.873 115.519 260.373 115.519 260.9C115.519 261.42 115.519 262.007 115.519 262.66V263.66C115.519 264.207 115.519 264.697 115.519 265.13C115.519 265.563 115.519 265.977 115.519 266.37C115.519 266.763 115.519 267.173 115.519 267.6L113.969 265.99H118.959C119.659 265.99 120.383 265.99 121.129 265.99C121.883 265.99 122.623 265.99 123.349 265.99C123.349 266.377 123.349 266.783 123.349 267.21C123.349 267.637 123.349 268.047 123.349 268.44C123.349 268.813 123.349 269.19 123.349 269.57C123.349 269.95 123.349 270.33 123.349 270.71H121.159ZM119.309 267.6C119.309 267.173 119.309 266.763 119.309 266.37C119.309 265.977 119.309 265.563 119.309 265.13C119.309 264.697 119.309 264.207 119.309 263.66V262.66C119.309 262.02 119.309 261.443 119.309 260.93C119.309 260.41 119.309 259.92 119.309 259.46C119.309 258.993 119.309 258.52 119.309 258.04H121.849C121.849 258.52 121.849 258.993 121.849 259.46C121.849 259.92 121.849 260.41 121.849 260.93C121.849 261.443 121.849 262.02 121.849 262.66V263.66C121.849 264.207 121.849 264.697 121.849 265.13C121.849 265.563 121.849 265.977 121.849 266.37C121.849 266.763 121.849 267.173 121.849 267.6H119.309ZM129.882 268.25C128.629 268.25 127.602 268.023 126.802 267.57C126.002 267.117 125.412 266.493 125.032 265.7C124.652 264.907 124.462 264 124.462 262.98C124.462 261.967 124.642 261.07 125.002 260.29C125.369 259.503 125.905 258.89 126.612 258.45C127.319 258.01 128.185 257.79 129.212 257.79C130.099 257.79 130.855 257.953 131.482 258.28C132.115 258.6 132.602 259.083 132.942 259.73C133.282 260.37 133.452 261.177 133.452 262.15C133.452 262.41 133.445 262.643 133.432 262.85C133.425 263.057 133.405 263.26 133.372 263.46L131.162 262.57C131.175 262.477 131.185 262.383 131.192 262.29C131.199 262.19 131.202 262.097 131.202 262.01C131.202 261.277 131.019 260.703 130.652 260.29C130.285 259.87 129.812 259.66 129.232 259.66C128.792 259.66 128.405 259.787 128.072 260.04C127.739 260.287 127.475 260.633 127.282 261.08C127.089 261.527 126.992 262.043 126.992 262.63V263.02C126.992 263.667 127.105 264.223 127.332 264.69C127.559 265.15 127.909 265.507 128.382 265.76C128.855 266.007 129.452 266.13 130.172 266.13C130.452 266.13 130.765 266.107 131.112 266.06C131.465 266.007 131.822 265.927 132.182 265.82C132.542 265.713 132.879 265.577 133.192 265.41L133.272 267.59C133.019 267.717 132.722 267.83 132.382 267.93C132.042 268.03 131.662 268.107 131.242 268.16C130.822 268.22 130.369 268.25 129.882 268.25ZM125.462 263.46V261.87L131.872 261.76L133.372 262.33V263.46H125.462ZM137.719 268C137.719 267.28 137.719 266.583 137.719 265.91C137.719 265.237 137.719 264.487 137.719 263.66V262.66C137.719 262.073 137.719 261.547 137.719 261.08C137.719 260.613 137.719 260.17 137.719 259.75C137.719 259.33 137.719 258.893 137.719 258.44L138.529 260.05H138.099C137.539 260.05 136.959 260.05 136.359 260.05C135.766 260.05 135.179 260.05 134.599 260.05V258.04H143.369V260.05C142.796 260.05 142.209 260.05 141.609 260.05C141.016 260.05 140.436 260.05 139.869 260.05H139.449L140.259 258.44C140.259 258.893 140.259 259.33 140.259 259.75C140.259 260.17 140.259 260.613 140.259 261.08C140.259 261.547 140.259 262.073 140.259 262.66V263.66C140.259 264.487 140.259 265.237 140.259 265.91C140.259 266.583 140.259 267.28 140.259 268H137.719ZM147.52 268.23C146.96 268.23 146.46 268.113 146.02 267.88C145.58 267.647 145.23 267.31 144.97 266.87C144.716 266.423 144.59 265.887 144.59 265.26C144.59 264.707 144.686 264.24 144.88 263.86C145.073 263.473 145.326 263.16 145.64 262.92C145.96 262.673 146.31 262.483 146.69 262.35C147.076 262.217 147.466 262.12 147.86 262.06L150.71 261.64C150.73 261.173 150.65 260.813 150.47 260.56C150.296 260.307 150.046 260.133 149.72 260.04C149.393 259.94 149.016 259.89 148.59 259.89C148.363 259.89 148.116 259.91 147.85 259.95C147.59 259.983 147.313 260.037 147.02 260.11C146.733 260.183 146.433 260.277 146.12 260.39C145.806 260.497 145.486 260.627 145.16 260.78L145.04 258.57C145.286 258.477 145.563 258.383 145.87 258.29C146.183 258.197 146.523 258.113 146.89 258.04C147.256 257.96 147.636 257.9 148.03 257.86C148.43 257.813 148.84 257.79 149.26 257.79C150.073 257.79 150.766 257.91 151.34 258.15C151.92 258.383 152.363 258.76 152.67 259.28C152.976 259.793 153.13 260.463 153.13 261.29C153.13 261.61 153.13 262.007 153.13 262.48C153.13 262.953 153.13 263.387 153.13 263.78V264.88C153.13 265.367 153.13 265.863 153.13 266.37C153.13 266.87 153.13 267.413 153.13 268H150.88L150.73 266.7H150.52C150.333 266.947 150.1 267.187 149.82 267.42C149.54 267.647 149.206 267.84 148.82 268C148.44 268.153 148.006 268.23 147.52 268.23ZM148.44 266.24C148.72 266.24 148.996 266.173 149.27 266.04C149.543 265.907 149.796 265.72 150.03 265.48C150.27 265.24 150.473 264.953 150.64 264.62V263.05C150.553 263.11 150.436 263.167 150.29 263.22C150.15 263.267 149.94 263.32 149.66 263.38C149.38 263.44 148.986 263.517 148.48 263.61C148.193 263.663 147.95 263.753 147.75 263.88C147.556 264.007 147.406 264.17 147.3 264.37C147.193 264.57 147.14 264.8 147.14 265.06C147.14 265.493 147.27 265.8 147.53 265.98C147.796 266.153 148.1 266.24 148.44 266.24ZM157.68 268C157.68 267.28 157.68 266.583 157.68 265.91C157.68 265.237 157.68 264.487 157.68 263.66V262.66C157.68 262.073 157.68 261.547 157.68 261.08C157.68 260.613 157.68 260.17 157.68 259.75C157.68 259.33 157.68 258.893 157.68 258.44L158.49 260.05H158.06C157.5 260.05 156.92 260.05 156.32 260.05C155.727 260.05 155.14 260.05 154.56 260.05V258.04H163.33V260.05C162.757 260.05 162.17 260.05 161.57 260.05C160.977 260.05 160.397 260.05 159.83 260.05H159.41L160.22 258.44C160.22 258.893 160.22 259.33 160.22 259.75C160.22 260.17 160.22 260.613 160.22 261.08C160.22 261.547 160.22 262.073 160.22 262.66V263.66C160.22 264.487 160.22 265.237 160.22 265.91C160.22 266.583 160.22 267.28 160.22 268H157.68Z" fill="#E6775A"/>
<path d="M107.475 179.454L81.5406 164.817V135.521L107.475 120.884L133.41 135.521V164.817L107.475 179.454ZM82.4133 164.307L107.475 178.457L132.537 164.307V136.03L107.475 121.88L82.4133 136.03V164.307Z" fill="url(#paint0_linear_102_2)"/>
<path d="M82.4133 164.307L107.475 178.457L132.537 164.307V136.03L107.475 121.88L82.4133 136.03V164.307Z" fill="url(#paint1_linear_102_2)"/>
<path d="M107.475 179.454L81.5406 164.817V135.521L107.475 120.884L133.41 135.521V164.817L107.475 179.454ZM82.4133 164.307L107.475 178.457L132.537 164.307V136.03L107.475 121.88L82.4133 136.03V164.307Z" fill="#24201E"/>
<path d="M56.5011 179.454L30.5665 164.817V135.521L56.5011 120.884L82.4357 135.521V164.817L56.5011 179.454ZM31.4392 164.307L56.5011 178.457L81.563 164.307V136.03L56.5011 121.88L31.4392 136.03V164.307Z" fill="#24201E"/>
<path d="M132.985 136.318L107.05 121.681V92.385L132.985 77.748L158.919 92.385V121.681L132.985 136.318ZM107.923 121.172L132.985 135.321L158.046 121.172V92.8943L132.985 78.7445L107.923 92.8943V121.172Z" fill="#24201E"/>
<path d="M186.174 132.243L158.024 121.725V92.3184L186.196 84.2139L203.963 108.439L186.196 132.265L186.174 132.243ZM158.897 121.127L185.861 131.203L202.867 108.417L185.838 85.1882L158.897 92.9384V121.105V121.127Z" fill="#24201E"/>
<path d="M155.473 66.1445H161.202L158.472 92.6283L155.473 66.1445Z" fill="#24201E"/>
<path d="M158.494 96.7249L155.003 65.7239H161.694L158.494 96.7249ZM155.965 66.5875L158.449 88.5539L160.709 66.5875H155.965Z" fill="#24201E"/>
<path d="M186.017 84.7006L180.11 59.5012L186.017 54.4746V84.7006Z" fill="#24201E"/>
<path d="M186.017 85.1214C185.816 85.1214 185.637 84.9886 185.592 84.7893L179.685 59.5899C179.64 59.4349 179.685 59.2799 179.819 59.1691L185.726 54.1204C185.861 54.0097 186.04 53.9875 186.196 54.054C186.353 54.1204 186.442 54.2754 186.442 54.4526V84.6785C186.442 84.9 186.286 85.0771 186.062 85.0993C186.062 85.0993 186.04 85.0993 186.017 85.0993V85.1214ZM180.602 59.6563L185.592 80.892V55.4047L180.602 59.6563Z" fill="#24201E"/>
<path d="M186.263 54.8291L185.771 54.1205L205.731 40.79L206.223 41.4986L186.263 54.8291Z" fill="#24201E"/>
<path d="M37.0334 139.661L36.5859 138.908L55.2704 128.191L55.7179 128.944L37.0334 139.661Z" fill="#24201E"/>
<path d="M56.7248 173.187L56.2773 172.434L74.9618 161.739L75.387 162.469L56.7248 173.187Z" fill="#24201E"/>
<path d="M12.7547 171.947L12.3072 171.194L30.9917 160.499L31.4168 161.229L12.7547 171.947Z" fill="#24201E"/>
<path d="M15.7308 177.305L15.2833 176.552L33.9678 165.835L34.4153 166.588L15.7308 177.305Z" fill="#24201E"/>
<path d="M91.4535 88.9968L95.6379 83.2395L107.475 92.6284L91.4535 88.9968Z" fill="#24201E"/>
<path d="M107.475 93.0713C107.475 93.0713 107.408 93.0713 107.386 93.0713L91.364 89.4398C91.2297 89.4176 91.0954 89.3069 91.0507 89.1741C91.0059 89.0412 91.0283 88.8862 91.0954 88.7755L95.2799 82.996C95.2799 82.996 95.4589 82.841 95.5708 82.8188C95.6827 82.8188 95.8169 82.8188 95.9064 82.9074L107.744 92.3184C107.9 92.4513 107.945 92.6506 107.856 92.8499C107.788 93.0049 107.632 93.0935 107.453 93.0935L107.475 93.0713ZM92.1919 88.7312L105.73 91.787L95.7274 83.8375L92.1919 88.709V88.7312Z" fill="#24201E"/>
<path d="M78.6764 108.217H85.546L81.9881 135.786L78.6764 108.217Z" fill="#24201E"/>
<path d="M81.9658 139.329L78.1841 107.774H86.0383L81.9658 139.329ZM79.1687 108.638L82.0105 132.221L85.0538 108.638H79.1687Z" fill="#24201E"/>
<path d="M184.876 55.6928L167.064 48.2083L167.4 47.4111L185.234 54.8957L184.876 55.6928Z" fill="#24201E"/>
<path d="M180.781 59.9221L165.207 53.5447L165.543 52.7476L181.117 59.1249L180.781 59.9221Z" fill="#24201E"/>
<path d="M236.186 93.8021L221.708 82.4203L222.245 81.7339L236.342 92.8057L263.687 82.5089L264 83.3061L236.186 93.8021Z" fill="#24201E"/>
<path d="M231.33 110.387L230.457 110.232L233.635 91.521L234.508 91.6539L231.33 110.387Z" fill="#24201E"/>
<path d="M236.387 110.875L235.537 110.742L238.714 92.0083L239.587 92.1633L236.387 110.875Z" fill="#24201E"/>
<path d="M64.042 73.7622H65.5413V79.5638H73.2388V73.7622H74.7381V86.8048H73.2388V80.9367H65.5413V86.8048H64.042V73.7622Z" fill="#24201E"/>
<path d="M77.9379 80.2723C77.9379 76.6851 80.7126 73.5186 84.7628 73.5186C88.813 73.5186 91.5429 76.6408 91.5429 80.2723C91.5429 83.9039 88.7682 87.0261 84.7181 87.0261C80.6679 87.0261 77.9379 83.9039 77.9379 80.2723ZM89.999 80.2723C89.999 77.3051 87.7837 74.8915 84.7404 74.8915C81.6972 74.8915 79.5043 77.283 79.5043 80.2723C79.5043 83.2617 81.7196 85.6532 84.7628 85.6532C87.806 85.6532 89.999 83.2617 89.999 80.2723Z" fill="#24201E"/>
<path d="M208.573 25.9318C208.573 22.2338 211.392 19.178 215.331 19.178C217.747 19.178 219.157 20.0637 220.5 21.2816L219.515 22.3224C218.396 21.2816 217.121 20.5287 215.308 20.5287C212.355 20.5287 210.139 22.876 210.139 25.9096C210.139 28.9433 212.377 31.2905 215.308 31.2905C217.143 31.2905 218.352 30.6041 219.627 29.4083L220.612 30.4269C219.224 31.7998 217.703 32.6413 215.264 32.6413C211.415 32.6413 208.573 29.674 208.573 25.8875V25.9318Z" fill="#24201E"/>
<path d="M223.252 19.3994H224.751V25.201H232.449V19.3994H233.948V32.442H232.449V26.5739H224.751V32.442H223.252V19.3994Z" fill="#24201E"/>
<path d="M236.41 37.4242L237.036 36.8706C237.64 37.5792 238.356 38 239.319 38C240.281 38 241.019 37.4021 241.019 36.4942C241.019 35.5863 240.124 35.0327 238.849 35.0327H238.356L238.177 34.5234L240.639 31.8219H236.835V31.0469H241.802V31.6669L239.363 34.3241C240.728 34.4348 241.937 35.077 241.937 36.4942C241.937 37.9114 240.773 38.7971 239.341 38.7971C238.043 38.7971 237.081 38.2435 236.432 37.4464L236.41 37.4242Z" fill="#24201E"/>
<path d="M128.442 101.353H129.941V107.154H137.639V101.353H139.138V114.395H137.639V108.527H129.941V114.395H128.442V101.353Z" fill="#24201E"/>
<path d="M153.571 143.846H155.07V149.648H162.768V143.846H164.267V156.889H162.768V151.021H155.07V156.889H153.571V143.846Z" fill="#24201E"/>
<path d="M104.007 143.846H113.606V145.197H105.528V149.847H112.756V151.198H105.528V156.889H104.029V143.846H104.007Z" fill="#24201E"/>
<path d="M0 178.723C0 175.135 2.77471 171.969 6.82488 171.969C10.8751 171.969 13.605 175.091 13.605 178.723C13.605 182.354 10.8303 185.476 6.78013 185.476C2.72995 185.476 0 182.354 0 178.723ZM12.061 178.723C12.061 175.755 9.84574 173.342 6.80251 173.342C3.75928 173.342 1.56637 175.733 1.56637 178.723C1.56637 181.712 3.78166 184.103 6.82488 184.103C9.86811 184.103 12.061 181.712 12.061 178.723Z" fill="#24201E"/>
<path d="M207.275 75.4891C207.275 71.9019 210.05 68.7354 214.1 68.7354C218.15 68.7354 220.88 71.8576 220.88 75.4891C220.88 79.1207 218.105 82.2429 214.055 82.2429C210.005 82.2429 207.275 79.1207 207.275 75.4891ZM219.336 75.4891C219.336 72.5219 217.121 70.1083 214.078 70.1083C211.034 70.1083 208.841 72.4998 208.841 75.4891C208.841 78.4785 211.057 80.87 214.1 80.87C217.143 80.87 219.336 78.4785 219.336 75.4891Z" fill="#24201E"/>
<path d="M225.311 120.596C225.311 117.008 228.085 113.842 232.136 113.842C236.186 113.842 238.916 116.964 238.916 120.596C238.916 124.227 236.141 127.349 232.091 127.349C228.041 127.349 225.311 124.227 225.311 120.596ZM237.372 120.596C237.372 117.628 235.156 115.215 232.113 115.215C229.07 115.215 226.877 117.606 226.877 120.596C226.877 123.585 229.092 125.976 232.136 125.976C235.179 125.976 237.372 123.585 237.372 120.596Z" fill="#24201E"/>
<path d="M150.147 45.0194C150.147 41.4322 152.922 38.2656 156.972 38.2656C161.023 38.2656 163.753 41.3879 163.753 45.0194C163.753 48.651 160.978 51.7732 156.928 51.7732C152.877 51.7732 150.147 48.651 150.147 45.0194ZM162.209 45.0194C162.209 42.0522 159.993 39.6385 156.95 39.6385C153.907 39.6385 151.714 42.03 151.714 45.0194C151.714 48.0088 153.929 50.4003 156.972 50.4003C160.016 50.4003 162.209 48.0088 162.209 45.0194Z" fill="#24201E"/>
<path d="M108.079 181.468H106.625V183.195H108.079V181.468Z" fill="#24201E"/>
<path d="M108.683 185.698H105.998V187.425H108.683V185.698Z" fill="#24201E"/>
<path d="M109.221 189.529H105.461V191.256H109.221V189.529Z" fill="#24201E"/>
<path d="M109.69 193.935H104.969V195.662H109.69V193.935Z" fill="#24201E"/>
<path d="M159.076 126.264H157.621V127.992H159.076V126.264Z" fill="#24201E"/>
<path d="M159.68 130.494H156.995V132.221H159.68V130.494Z" fill="#24201E"/>
<path d="M160.217 134.325H156.458V136.052H160.217V134.325Z" fill="#24201E"/>
<path d="M160.709 138.731H155.988V140.459H160.709V138.731Z" fill="#24201E"/>
<path d="M108.214 126.264H106.759V127.992H108.214V126.264Z" fill="#24201E"/>
<path d="M108.818 130.494H106.133V132.221H108.818V130.494Z" fill="#24201E"/>
<path d="M109.355 134.325H105.596V136.052H109.355V134.325Z" fill="#24201E"/>
<path d="M109.847 138.731H105.126V140.459H109.847V138.731Z" fill="#24201E"/>
<path d="M109.959 197.567H104.7V199.294H109.959V197.567Z" fill="#24201E"/>
<path d="M187.226 85.675L186.733 84.3464L188.367 83.7485L188.882 85.0771L187.226 85.675Z" fill="#24201E"/>
<path d="M191.5 84.7675L190.56 82.3095L192.193 81.7117L193.133 84.1696L191.5 84.7675Z" fill="#24201E"/>
<path d="M195.348 83.9258L194.051 80.4714L195.684 79.8735L197.004 83.3058L195.348 83.9258Z" fill="#24201E"/>
<path d="M199.757 82.8189L198.101 78.5009L199.734 77.8809L201.39 82.221L199.757 82.8189Z" fill="#24201E"/>
<path d="M203.314 81.8002L201.48 76.9729L203.113 76.375L204.948 81.2023L203.314 81.8002Z" fill="#24201E"/>
<path d="M110.384 201.176H104.275V202.903H110.384V201.176Z" fill="#24201E"/>
<path d="M110.921 205.273H103.738V207H110.921V205.273Z" fill="#24201E"/>
<path d="M225.311 50.2897C210.99 50.2897 199.331 39.4172 199.331 26.0425C199.331 12.6677 210.99 1.81738 225.311 1.81738C239.632 1.81738 251.29 12.6899 251.29 26.0646C251.29 39.4393 239.632 50.3119 225.311 50.3119V50.2897ZM225.311 3.54458C211.952 3.54458 201.077 13.6421 201.077 26.0646C201.077 38.4872 211.952 48.5847 225.311 48.5847C238.67 48.5847 249.545 38.4872 249.545 26.0646C249.545 13.6421 238.67 3.54458 225.311 3.54458Z" fill="url(#paint2_linear_102_2)"/>
<defs>
<linearGradient id="paint0_linear_102_2" x1="133" y1="121" x2="82" y2="179" gradientUnits="userSpaceOnUse">
<stop stop-color="#E6775A"/>
<stop offset="1" stop-color="#E4C0B1"/>
</linearGradient>
<linearGradient id="paint1_linear_102_2" x1="133" y1="121" x2="82" y2="179" gradientUnits="userSpaceOnUse">
<stop stop-color="#E6775A"/>
<stop offset="1" stop-color="#E4C0B1"/>
</linearGradient>
<linearGradient id="paint2_linear_102_2" x1="250.88" y1="1.9137" x2="210.383" y2="57.6338" gradientUnits="userSpaceOnUse">
<stop stop-color="#E6775A"/>
<stop offset="1" stop-color="#E2AD7C"/>
</linearGradient>
</defs>
</svg>
