<svg width="30" height="30" viewBox="0 0 30 30" fill="none" xmlns="http://www.w3.org/2000/svg">
<circle cx="15" cy="15" r="15" fill="#F1CB14"/>
<path d="M14.4834 8.51864C14.7958 8.30356 15.2042 8.30356 15.5166 8.51864L21.2286 12.452C21.4693 12.6177 21.6153 12.8844 21.6261 13.1701C21.6676 14.2678 21.7112 16.1841 21.5911 17.5413C21.5006 18.5648 21.2591 19.9207 21.0623 20.9212C20.9801 21.3393 20.6164 21.6427 20.1837 21.6427H17.7683C17.7122 21.6427 17.6632 21.5956 17.6632 21.5331V18.1802C17.6632 17.3169 16.9775 16.6133 16.1273 16.6133H14.1165C13.2662 16.6133 12.5806 17.3169 12.5806 18.1802V21.5331C12.5806 21.5956 12.5315 21.6427 12.4755 21.6427H9.8163C9.38356 21.6427 9.01992 21.3393 8.93767 20.9212C8.74087 19.9207 8.49943 18.5648 8.40888 17.5413C8.28879 16.1841 8.33244 14.2678 8.37391 13.1701C8.3847 12.8844 8.53074 12.6177 8.7714 12.452L14.4834 8.51864ZM16.3179 7.31133C15.5215 6.76289 14.4785 6.76289 13.6821 7.31133L7.97005 11.2447C7.36095 11.6641 6.97293 12.3535 6.9442 13.1141C6.90278 14.2103 6.85463 16.2113 6.98388 17.6721C7.08189 18.7798 7.33695 20.2017 7.53478 21.2075C7.75422 22.323 8.71829 23.1 9.8163 23.1H12.4755C13.3257 23.1 14.0114 22.3965 14.0114 21.5331V18.1802C14.0114 18.1177 14.0604 18.0707 14.1165 18.0707H16.1273C16.1833 18.0707 16.2324 18.1177 16.2324 18.1802V21.5331C16.2324 22.3965 16.918 23.1 17.7683 23.1H20.1837C21.2817 23.1 22.2458 22.323 22.4652 21.2075C22.6631 20.2017 22.9181 18.7798 23.0161 17.6721C23.1454 16.2113 23.0972 14.2103 23.0558 13.1141C23.0271 12.3535 22.639 11.6641 22.0299 11.2447L16.3179 7.31133Z" fill="#2A276E" stroke="#2A276E" stroke-width="0.2" stroke-linecap="round" stroke-linejoin="round"/>
</svg>
