<svg width="20" height="20" viewBox="0 0 20 20" fill="none" xmlns="http://www.w3.org/2000/svg">
<path d="M4.16667 18.3337H15.8333C16.7525 18.3337 17.5 17.5862 17.5 16.667V5.00032C17.5 4.08116 16.7525 3.33366 15.8333 3.33366H14.1667V1.66699H12.5V3.33366H7.5V1.66699H5.83333V3.33366H4.16667C3.2475 3.33366 2.5 4.08116 2.5 5.00032V16.667C2.5 17.5862 3.2475 18.3337 4.16667 18.3337ZM9.16667 15.3453L6.0775 12.2562L7.25583 11.0778L9.16667 12.9887L12.7442 9.41116L13.9225 10.5895L9.16667 15.3453ZM4.16667 5.83366H15.8333V7.50032H4.16667V5.83366Z" fill="#492BA0"/>
</svg>
