<svg width="50" height="50" viewBox="0 0 50 50" fill="none" xmlns="http://www.w3.org/2000/svg">
<circle cx="25" cy="25" r="24.5" stroke="#4094B0"/>
<path d="M38.5189 11.4803C38.3628 11.3243 38.1098 11.3243 37.9538 11.4803L34.0193 15.4147C33.7127 15.2752 33.3529 15.2751 33.0386 15.4323C32.2366 15.8293 31.5228 16.3762 30.9048 17.0216L30.8104 16.9272C30.5336 16.6504 30.1656 16.498 29.774 16.498C29.3826 16.498 29.0146 16.6504 28.7377 16.9272L27.4325 18.2324C27.2765 18.3885 27.2765 18.6415 27.4325 18.7975C27.5886 18.9535 27.8415 18.9535 27.9975 18.7975L29.3028 17.4923C29.5626 17.2324 29.9856 17.2324 30.2453 17.4923L32.5068 19.7538C32.7667 20.0136 32.7667 20.4365 32.5068 20.6964L32.1109 21.0923L30.9046 19.886C30.7485 19.73 30.4956 19.73 30.3396 19.886C30.1835 20.0421 30.1835 20.295 30.3396 20.451L31.5459 21.6573L30.9425 22.2607L30.1131 21.4313C29.957 21.2753 29.7041 21.2753 29.5481 21.4313C29.392 21.5874 29.392 21.8403 29.5481 21.9964L30.3775 22.8257L29.774 23.4291L28.5678 22.2229C28.4117 22.0668 28.1587 22.0668 28.0028 22.2228C27.8467 22.3788 27.8467 22.6318 28.0028 22.7878L29.209 23.9941L28.6056 24.5975L27.7763 23.7682C27.6202 23.6122 27.3672 23.6122 27.2112 23.7682C27.0552 23.9242 27.0552 24.1772 27.2112 24.3332L28.0406 25.1626L27.4372 25.766L26.2308 24.5597C26.0749 24.4037 25.8219 24.4036 25.6658 24.5597C25.5098 24.7158 25.5098 24.9687 25.6659 25.1247L26.8722 26.331L26.1557 27.0475L25.1378 26.0296C24.9817 25.8736 24.7288 25.8736 24.5728 26.0296C24.4167 26.1857 24.4167 26.4386 24.5728 26.5947L25.5906 27.6125L24.9872 28.2159L21.7831 25.0117L22.3865 24.4083L23.2228 25.2447C23.3789 25.4007 23.6318 25.4007 23.7879 25.2447C23.9439 25.0886 23.9439 24.8357 23.7879 24.6796L22.9516 23.8433L26.6792 20.1157C26.8353 19.9596 26.8353 19.7067 26.6792 19.5506C26.5231 19.3947 26.2702 19.3947 26.1142 19.5506C24.1494 21.5154 20.7773 24.8875 18.8435 26.8214L18.0895 26.0674C17.6333 25.5918 16.8122 25.5919 16.356 26.0674C15.8781 26.5453 15.8781 27.3229 16.356 27.8009L18.3161 29.761L16.8124 31.2647C16.6564 31.4208 16.6564 31.6737 16.8124 31.8298C16.9685 31.9857 17.2214 31.9857 17.3775 31.8298L18.8811 30.3261L19.7107 31.1557L16.0543 34.8121L15.2248 33.9825L16.0591 33.1481C16.2151 32.9921 16.2151 32.7391 16.0591 32.5831C15.9031 32.4271 15.6501 32.4271 15.4941 32.5832L14.6598 33.4175L13.4534 32.2112C12.9755 31.7333 12.1978 31.7332 11.72 32.2112C11.2444 32.6674 11.2444 33.4885 11.7199 33.9447L16.0545 38.2792C16.5107 38.7548 17.3318 38.7547 17.788 38.2792C18.2659 37.8013 18.2659 37.0237 17.788 36.5457L16.6194 35.3771L20.2758 31.7207L20.6422 32.0871C20.7983 32.2431 21.0512 32.2431 21.2072 32.0871C21.3633 31.931 21.3633 31.6781 21.2072 31.5221L16.921 27.2358C16.7546 27.0695 16.7546 26.7988 16.921 26.6324C17.0798 26.4669 17.3656 26.4669 17.5243 26.6325L23.3666 32.4748C23.5321 32.6336 23.5321 32.9194 23.3665 33.0782C23.2003 33.2445 22.9294 33.2445 22.7632 33.0782L22.5256 32.8406C22.3695 32.6846 22.1166 32.6846 21.9605 32.8406C21.8045 32.9967 21.8045 33.2496 21.9605 33.4056L22.1981 33.6432C22.4371 33.8822 22.751 34.0017 23.0649 34.0017C23.3788 34.0016 23.6927 33.8822 23.9316 33.6432C24.4073 33.187 24.4072 32.3659 23.9317 31.9097L23.1777 31.1557C26.0374 28.296 30.2037 24.1297 33.072 21.2614C33.3488 20.9846 33.5012 20.6166 33.5012 20.2251C33.5012 19.8335 33.3488 19.4655 33.072 19.1887L32.9776 19.0943C33.6231 18.4763 34.1699 17.7626 34.5669 16.9606C34.7241 16.6462 34.724 16.2864 34.5845 15.9798L38.519 12.0454C38.6749 11.8893 38.6749 11.6364 38.5189 11.4803ZM17.2228 37.7143C17.064 37.8798 16.7782 37.8798 16.6194 37.7142L12.2848 33.3797C12.1193 33.2209 12.1193 32.9351 12.2849 32.7763C12.4512 32.6099 12.722 32.6099 12.8882 32.7763L17.2228 37.1109C17.3891 37.2772 17.3891 37.5479 17.2228 37.7143ZM20.6146 28.5927L22.4241 26.7831L23.2537 27.6127L21.4442 29.4223L20.6146 28.5927ZM23.8188 28.1778L24.4222 28.7812L22.6126 30.5907L22.0092 29.9873L23.8188 28.1778ZM21.218 25.577L21.8591 26.2181L20.0495 28.0276L19.4085 27.3865L21.218 25.577ZM33.8521 16.6032C33.4938 17.3284 32.9963 17.9715 32.4125 18.5293L31.4698 17.5866C32.0276 17.0028 32.6707 16.5053 33.3959 16.147C33.527 16.0815 33.6848 16.1071 33.7884 16.2107C33.892 16.3143 33.9177 16.4721 33.8521 16.6032Z" fill="#4094B0" stroke="#4094B0" stroke-width="0.2"/>
</svg>
