<svg width="40" height="40" viewBox="0 0 40 40" fill="none" xmlns="http://www.w3.org/2000/svg">
<g clip-path="url(#clip0_768_30419)">
<path d="M20.0005 2.86257e-05C16.1799 -0.00643962 12.4376 1.08339 9.21786 3.14017C5.99812 5.19695 3.43608 8.13432 1.83582 11.6037C0.235565 15.073 -0.335719 18.9286 0.189776 22.7129C0.715271 26.4972 2.31548 30.0513 4.80048 32.9533L1.53115 32.576C1.35483 32.5508 1.17523 32.5611 1.00297 32.6064C0.830713 32.6517 0.669276 32.7311 0.528196 32.8398C0.387115 32.9485 0.269251 33.0844 0.181562 33.2395C0.0938737 33.3945 0.0381383 33.5655 0.0176471 33.7425C-0.00284409 33.9194 0.0123244 34.0987 0.0622568 34.2696C0.112189 34.4406 0.195873 34.5999 0.308368 34.738C0.420863 34.8761 0.559887 34.9902 0.717233 35.0737C0.874579 35.1572 1.04706 35.2083 1.22448 35.224L7.84714 35.9907C7.89801 35.997 7.94922 36.0001 8.00048 36C8.32723 35.9996 8.64245 35.8791 8.88628 35.6616C9.13011 35.4441 9.28557 35.1446 9.32314 34.82L10.0898 28.1973C10.1151 28.021 10.1047 27.8414 10.0594 27.6692C10.0141 27.4969 9.93475 27.3355 9.82602 27.1944C9.71728 27.0533 9.58139 26.9354 9.42635 26.8478C9.27131 26.7601 9.10027 26.7043 8.92333 26.6838C8.74639 26.6634 8.56715 26.6785 8.39617 26.7285C8.22519 26.7784 8.06595 26.8621 7.92785 26.9746C7.78975 27.0871 7.67559 27.2261 7.59211 27.3834C7.50863 27.5408 7.45753 27.7132 7.44181 27.8907L7.02981 31.4667C4.41234 28.4962 2.89211 24.7183 2.72254 20.7628C2.55297 16.8073 3.74431 12.9132 6.09796 9.72963C8.45161 6.54606 11.8254 4.26541 15.6568 3.26788C19.4882 2.27035 23.5457 2.61621 27.1531 4.2478C30.7604 5.8794 33.6994 8.69814 35.4803 12.2341C37.2612 15.7701 37.7763 19.8097 36.9397 23.6794C36.1031 27.5492 33.9655 31.0153 30.883 33.4999C27.8006 35.9845 23.9596 37.3375 20.0005 37.3333C19.6468 37.3333 19.3077 37.4738 19.0577 37.7239C18.8076 37.9739 18.6671 38.313 18.6671 38.6667C18.6671 39.0203 18.8076 39.3594 19.0577 39.6095C19.3077 39.8595 19.6468 40 20.0005 40C25.3048 40 30.3919 37.8929 34.1426 34.1421C37.8933 30.3914 40.0005 25.3043 40.0005 20C40.0005 14.6957 37.8933 9.60861 34.1426 5.85789C30.3919 2.10716 25.3048 2.87047e-05 20.0005 2.86257e-05Z" fill="#492BA0"/>
<path d="M20 25C20 24.6685 19.8683 24.3505 19.6339 24.1161C19.3995 23.8817 19.0815 23.75 18.75 23.75H15.5175L15.7325 23.535C16.6923 22.5807 17.4533 21.4454 17.9713 20.1949C18.4892 18.9444 18.7539 17.6035 18.75 16.25C18.75 15.2554 18.3549 14.3016 17.6517 13.5983C16.9484 12.8951 15.9946 12.5 15 12.5C14.0054 12.5 13.0516 12.8951 12.3483 13.5983C11.6451 14.3016 11.25 15.2554 11.25 16.25V17.5C11.25 17.8315 11.3817 18.1495 11.6161 18.3839C11.8505 18.6183 12.1685 18.75 12.5 18.75C12.8315 18.75 13.1495 18.6183 13.3839 18.3839C13.6183 18.1495 13.75 17.8315 13.75 17.5V16.25C13.75 15.9185 13.8817 15.6005 14.1161 15.3661C14.3505 15.1317 14.6685 15 15 15C15.3315 15 15.6495 15.1317 15.8839 15.3661C16.1183 15.6005 16.25 15.9185 16.25 16.25C16.253 17.2751 16.0525 18.2906 15.6603 19.2377C15.2681 20.1848 14.6918 21.0446 13.965 21.7675L11.6163 24.1162C11.4415 24.2911 11.3225 24.5138 11.2743 24.7562C11.2261 24.9987 11.2508 25.2499 11.3454 25.4783C11.44 25.7067 11.6002 25.9019 11.8057 26.0393C12.0112 26.1766 12.2528 26.2499 12.5 26.25H18.75C19.0815 26.25 19.3995 26.1183 19.6339 25.8839C19.8683 25.6495 20 25.3315 20 25Z" fill="#492BA0"/>
<path d="M22.7442 13.3574C22.4194 13.2927 22.0821 13.3595 21.8065 13.5433C21.5308 13.727 21.3394 14.0127 21.2742 14.3374L20.0242 20.5874C19.9881 20.7683 19.9924 20.9549 20.0369 21.1339C20.0814 21.3129 20.1649 21.4799 20.2815 21.6228C20.3982 21.7657 20.545 21.881 20.7114 21.9605C20.8778 22.0399 21.0598 22.0816 21.2442 22.0824H24.9942V25.8324C24.9942 26.164 25.1259 26.4819 25.3604 26.7163C25.5948 26.9508 25.9127 27.0824 26.2442 27.0824C26.5758 27.0824 26.8937 26.9508 27.1281 26.7163C27.3626 26.4819 27.4942 26.164 27.4942 25.8324V22.0824C27.8258 22.0824 28.1437 21.9508 28.3781 21.7163C28.6126 21.4819 28.7442 21.164 28.7442 20.8324C28.7442 20.5009 28.6126 20.183 28.3781 19.9486C28.1437 19.7141 27.8258 19.5824 27.4942 19.5824V17.0824C27.4942 16.7509 27.3626 16.433 27.1281 16.1986C26.8937 15.9641 26.5758 15.8324 26.2442 15.8324C25.9127 15.8324 25.5948 15.9641 25.3604 16.1986C25.1259 16.433 24.9942 16.7509 24.9942 17.0824V19.5824H22.7692L23.7192 14.8324C23.7521 14.6716 23.753 14.5058 23.7217 14.3446C23.6905 14.1834 23.6279 14.0299 23.5373 13.893C23.4468 13.756 23.3301 13.6382 23.1941 13.5463C23.058 13.4544 22.9051 13.3902 22.7442 13.3574Z" fill="#492BA0"/>
</g>
<defs>
<clipPath id="clip0_768_30419">
<rect width="40" height="40" fill="white"/>
</clipPath>
</defs>
</svg>
