<svg width="40" height="40" viewBox="0 0 40 40" fill="none" xmlns="http://www.w3.org/2000/svg">
<g clip-path="url(#clip0_768_30426)">
<path d="M20.0005 2.86257e-05C16.1799 -0.00643962 12.4376 1.08339 9.21786 3.14017C5.99812 5.19695 3.43608 8.13432 1.83582 11.6037C0.235565 15.073 -0.335719 18.9286 0.189776 22.7129C0.715271 26.4972 2.31548 30.0513 4.80048 32.9533L1.53115 32.576C1.35483 32.5508 1.17523 32.5611 1.00297 32.6064C0.830713 32.6517 0.669276 32.7311 0.528196 32.8398C0.387115 32.9485 0.269251 33.0844 0.181562 33.2395C0.0938737 33.3945 0.0381383 33.5655 0.0176471 33.7425C-0.00284409 33.9194 0.0123244 34.0987 0.0622568 34.2696C0.112189 34.4406 0.195873 34.5999 0.308368 34.738C0.420863 34.8761 0.559887 34.9902 0.717233 35.0737C0.874579 35.1572 1.04706 35.2083 1.22448 35.224L7.84714 35.9907C7.89801 35.997 7.94922 36.0001 8.00048 36C8.32723 35.9996 8.64245 35.8791 8.88628 35.6616C9.13011 35.4441 9.28557 35.1446 9.32314 34.82L10.0898 28.1973C10.1151 28.021 10.1047 27.8414 10.0594 27.6692C10.0141 27.4969 9.93475 27.3355 9.82602 27.1944C9.71728 27.0533 9.58139 26.9354 9.42635 26.8478C9.27131 26.7601 9.10027 26.7043 8.92333 26.6838C8.74639 26.6634 8.56715 26.6785 8.39617 26.7285C8.22519 26.7784 8.06595 26.8621 7.92785 26.9746C7.78975 27.0871 7.67559 27.2261 7.59211 27.3834C7.50863 27.5408 7.45753 27.7132 7.44181 27.8907L7.02981 31.4667C4.41234 28.4962 2.89211 24.7183 2.72254 20.7628C2.55297 16.8073 3.74431 12.9132 6.09796 9.72963C8.45161 6.54606 11.8254 4.26541 15.6568 3.26788C19.4882 2.27035 23.5457 2.61621 27.1531 4.2478C30.7604 5.8794 33.6994 8.69814 35.4803 12.2341C37.2612 15.7701 37.7763 19.8097 36.9397 23.6794C36.1031 27.5492 33.9655 31.0153 30.883 33.4999C27.8006 35.9845 23.9596 37.3375 20.0005 37.3333C19.6468 37.3333 19.3077 37.4738 19.0577 37.7239C18.8076 37.9739 18.6671 38.313 18.6671 38.6667C18.6671 39.0203 18.8076 39.3594 19.0577 39.6095C19.3077 39.8595 19.6468 40 20.0005 40C25.3048 40 30.3919 37.8929 34.1426 34.1421C37.8933 30.3914 40.0005 25.3043 40.0005 20C40.0005 14.6957 37.8933 9.60861 34.1426 5.85789C30.3919 2.10716 25.3048 2.87047e-05 20.0005 2.86257e-05Z" fill="#492BA0"/>
<path d="M20.0003 6.66669C19.6467 6.66669 19.3076 6.80716 19.0575 7.05721C18.8075 7.30726 18.667 7.6464 18.667 8.00002V20C18.6671 20.3536 18.8076 20.6927 19.0577 20.9427L24.391 26.276C24.6425 26.5189 24.9793 26.6533 25.3289 26.6502C25.6785 26.6472 26.0129 26.507 26.2601 26.2598C26.5073 26.0126 26.6475 25.6781 26.6506 25.3285C26.6536 24.9789 26.5192 24.6421 26.2763 24.3907L21.3337 19.448V8.00002C21.3337 7.6464 21.1932 7.30726 20.9431 7.05721C20.6931 6.80716 20.3539 6.66669 20.0003 6.66669Z" fill="#492BA0"/>
</g>
<defs>
<clipPath id="clip0_768_30426">
<rect width="40" height="40" fill="white"/>
</clipPath>
</defs>
</svg>
