<svg width="50" height="50" viewBox="0 0 50 50" fill="none" xmlns="http://www.w3.org/2000/svg">
<circle cx="25" cy="25" r="24.5" stroke="#4094B0"/>
<path d="M34.7961 11.2001H29.7408C29.526 10.6935 29.0366 10.3384 28.4682 10.3384H27.414C27.1359 8.98718 25.9555 8 24.4999 8C23.0443 8 21.8638 8.98718 21.5858 10.3384H20.5317C19.9634 10.3384 19.4738 10.6935 19.2591 11.2001H14.2037C12.9886 11.2001 12 12.2113 12 13.4544V37.1315C11.9999 38.3746 12.9886 39.3859 14.2037 39.3859H34.7962C36.0114 39.3859 37 38.3746 37 37.1315V13.4544C37 12.2113 36.0113 11.2001 34.7961 11.2001ZM20.3333 11.7745C20.3333 11.6614 20.4223 11.5693 20.5317 11.5693H22.7142V10.9538C22.7142 9.97155 23.4819 9.23085 24.5 9.23085C25.5179 9.23085 26.2856 9.97155 26.2856 10.9538V11.5692H28.4683C28.5777 11.5692 28.6667 11.6613 28.6667 11.7744V13.6617H20.3333V11.7745ZM29.8571 14.8926H33.4285V35.3477H15.5714V14.8926H19.1428H29.8571ZM35.8095 37.1315C35.8095 37.6959 35.3549 38.155 34.7962 38.155H14.2037C13.645 38.155 13.1905 37.6959 13.1905 37.1315V13.4544C13.1905 12.8901 13.645 12.431 14.2037 12.431H19.1428V13.6618H14.9762C14.6474 13.6618 14.381 13.9373 14.381 14.2772V35.9631C14.381 36.3031 14.6475 36.5785 14.9762 36.5785H34.0238C34.3526 36.5785 34.619 36.303 34.619 35.9631V14.2772C34.619 13.9373 34.3525 13.6618 34.0238 13.6618H29.8571V12.4309H34.7962C35.3549 12.4309 35.8095 12.89 35.8095 13.4543V37.1315Z" fill="#4094B0"/>
<path d="M24.4993 10.0977C23.9741 10.0977 23.5469 10.5394 23.5469 11.0823C23.5469 11.6253 23.9741 12.067 24.4993 12.067C25.0244 12.067 25.4517 11.6253 25.4517 11.0823C25.4517 10.5394 25.0244 10.0977 24.4993 10.0977ZM24.4993 11.3285C24.3679 11.3285 24.2612 11.2181 24.2612 11.0823C24.2612 10.9465 24.3679 10.8361 24.4993 10.8361C24.6306 10.8361 24.7374 10.9465 24.7374 11.0823C24.7374 11.2181 24.6306 11.3285 24.4993 11.3285Z" fill="#4094B0"/>
<path d="M20.2739 29.4121H18.9644C18.6356 29.4121 18.3691 29.6877 18.3691 30.0275C18.3691 30.3674 18.6357 30.6429 18.9644 30.6429H20.2739C20.6026 30.6429 20.8691 30.3674 20.8691 30.0275C20.8691 29.6877 20.6026 29.4121 20.2739 29.4121Z" fill="#4094B0"/>
<path d="M30.0364 29.4121H22.1792C21.8504 29.4121 21.584 29.6877 21.584 30.0275C21.584 30.3674 21.8505 30.6429 22.1792 30.6429H30.0364C30.3651 30.6429 30.6316 30.3674 30.6316 30.0275C30.6316 29.6877 30.3651 29.4121 30.0364 29.4121Z" fill="#4094B0"/>
<path d="M20.2739 32.3691H18.9644C18.6356 32.3691 18.3691 32.6447 18.3691 32.9845C18.3691 33.3244 18.6357 33.5999 18.9644 33.5999H20.2739C20.6026 33.5999 20.8691 33.3244 20.8691 32.9845C20.8691 32.6447 20.6026 32.3691 20.2739 32.3691Z" fill="#4094B0"/>
<path d="M30.0364 32.3672H22.1792C21.8504 32.3672 21.584 32.6427 21.584 32.9826C21.584 33.3224 21.8505 33.598 22.1792 33.598H30.0364C30.3651 33.598 30.6316 33.3224 30.6316 32.9826C30.6316 32.6427 30.3651 32.3672 30.0364 32.3672Z" fill="#4094B0"/>
<path d="M24.498 16.873C21.741 16.873 19.498 19.192 19.498 22.0425C19.498 24.8929 21.741 27.2119 24.498 27.2119C27.2551 27.2119 29.498 24.8929 29.498 22.0425C29.498 19.1921 27.2551 16.873 24.498 16.873ZM24.498 25.9811C22.3975 25.9811 20.6885 24.2143 20.6885 22.0425C20.6885 19.8708 22.3975 18.1039 24.498 18.1039C26.5986 18.1039 28.3075 19.8708 28.3075 22.0425C28.3075 24.2143 26.5986 25.9811 24.498 25.9811Z" fill="#4094B0"/>
<path d="M27.1358 20.3111C26.9034 20.0708 26.5265 20.0708 26.2941 20.3111L23.8777 22.8093L23.2798 22.1912C23.0474 21.9509 22.6705 21.9509 22.438 22.1912C22.2056 22.4315 22.2056 22.8211 22.438 23.0615L23.4569 24.1148C23.5585 24.22 23.6879 24.2791 23.8207 24.2922C23.8397 24.2941 23.8587 24.2951 23.8778 24.2951C23.8968 24.2951 23.9159 24.2941 23.9348 24.2922C24.0676 24.2791 24.1969 24.22 24.2987 24.1148C24.2988 24.1148 24.2988 24.1146 24.299 24.1145L27.1359 21.1814C27.3682 20.9411 27.3682 20.5514 27.1358 20.3111Z" fill="#4094B0"/>
</svg>
