<svg width="29" height="29" viewBox="0 0 29 29" fill="none" xmlns="http://www.w3.org/2000/svg">
<path d="M26.329 1.6738C23.5585 -1.09673 19.4214 -0.421022 14.0017 3.65776C8.58314 -0.421022 4.44718 -1.0979 1.6743 1.6738C-1.09857 4.44551 -0.420519 8.58147 3.65826 14.0012C-0.420519 19.4197 -1.0974 23.5568 1.6743 26.3285C2.19398 26.8674 2.81846 27.2942 3.50929 27.5826C4.20012 27.871 4.94267 28.0149 5.69123 28.0056C7.99145 28.0056 10.769 26.7778 14.0017 24.3458C17.2332 26.7778 20.0107 28.0056 22.3121 28.0056C23.0607 28.0149 23.8032 27.871 24.4941 27.5826C25.1849 27.2942 25.8094 26.8674 26.329 26.3285C29.1007 23.5568 28.4297 19.4209 24.3451 14.0012C28.4239 8.58147 29.1007 4.44551 26.329 1.6738ZM22.2701 2.36352C22.7161 2.35009 23.1601 2.42795 23.5749 2.59231C23.9897 2.75667 24.3666 3.00407 24.6824 3.31932C26.72 5.35813 25.2145 8.81954 22.8291 12.1176C21.8511 10.9646 20.7495 9.76601 19.4937 8.50911C18.238 7.25222 17.036 6.15054 15.8829 5.1714C18.098 3.56906 20.3877 2.36352 22.2701 2.36352ZM21.3668 14.0012C20.1869 15.425 18.9371 16.7565 17.847 17.8524C16.757 18.9482 15.4255 20.1864 14.0017 21.3663C12.5779 20.1864 11.2463 18.9366 10.1563 17.8524C9.06629 16.7682 7.8164 15.425 6.63653 14.0012C7.8164 12.5774 9.06629 11.2446 10.1563 10.1558C11.2463 9.06696 12.5779 7.8159 14.0017 6.63486C15.4255 7.81356 16.757 9.06579 17.8529 10.1558C18.9487 11.2458 20.1869 12.5774 21.3668 14.0012ZM3.32099 3.32049C3.6364 3.00469 4.01316 2.75685 4.42804 2.59226C4.84292 2.42768 5.28712 2.34983 5.73325 2.36352C7.61567 2.36352 9.90539 3.56906 12.1204 5.1714C10.9674 6.15054 9.76768 7.25222 8.50962 8.50911C7.25156 9.76601 6.15221 10.9599 5.17307 12.1176C2.78882 8.81954 1.28101 5.35813 3.32099 3.32049ZM3.32099 24.6772C1.28335 22.6395 2.78882 19.177 5.17307 15.8801C6.15221 17.0331 7.25389 18.2317 8.50962 19.4886C9.76534 20.7455 10.9604 21.8495 12.1146 22.8274C8.81771 25.2152 5.35629 26.7218 3.32099 24.6819V24.6772ZM24.6777 24.6772C22.6412 26.7125 19.181 25.2105 15.8841 22.8274C17.0348 21.8495 18.2345 20.742 19.4891 19.4886C20.7436 18.2352 21.8465 17.0378 22.8244 15.8801C25.2145 19.1828 26.7223 22.6442 24.6824 24.6819L24.6777 24.6772Z" fill="#492BA0"/>
<path d="M14.0015 16.3351C15.2906 16.3351 16.3356 15.2901 16.3356 14.0011C16.3356 12.712 15.2906 11.667 14.0015 11.667C12.7125 11.667 11.6675 12.712 11.6675 14.0011C11.6675 15.2901 12.7125 16.3351 14.0015 16.3351Z" fill="#492BA0"/>
</svg>
