<svg width="54" height="54" viewBox="0 0 54 54" fill="none" xmlns="http://www.w3.org/2000/svg">
<g clip-path="url(#clip0_118_755)">
<mask id="path-1-outside-1_118_755" maskUnits="userSpaceOnUse" x="-1" y="-1" width="56" height="56" fill="black">
<rect fill="white" x="-1" y="-1" width="56" height="56"/>
<path d="M40.7141 15.9453L34.766 23.3839C33.8527 24.526 34.1522 26.1112 35.435 26.9243C35.8173 27.1667 36.261 27.3213 36.7266 27.3744L45.6622 28.3752C46.2072 28.0023 46.8359 27.5061 47.4575 26.8601C47.8932 26.4072 48.2428 25.9665 48.5218 25.5678C48.3122 24.8659 47.445 22.938 45.969 22.4535C45.5432 22.3138 45.3252 21.8931 45.4822 21.514C45.6391 21.1349 46.1115 20.9408 46.5373 21.0806C48.0821 21.5877 49.0425 22.9105 49.5738 23.9216C49.9395 23.1211 50.196 22.2843 50.3375 21.4293C50.4029 21.0295 50.8201 20.7526 51.2692 20.811C51.7182 20.8694 52.0291 21.2408 51.9636 21.6406C51.6088 23.7738 50.6415 25.7893 49.1553 27.4921C48.7934 27.8997 48.4046 28.2878 47.9909 28.6543C50.2504 29.0152 52.6499 29.6977 53.8127 30.992C54.1011 31.3039 54.0508 31.7651 53.7006 32.0219C53.3503 32.2787 52.8324 32.2339 52.544 31.922C52.5392 31.9168 52.5344 31.9114 52.5296 31.906C51.0654 30.2764 46.0943 29.8002 43.6 29.7255L37.5597 30.4137C35.8434 30.6092 34.63 32.0066 34.8495 33.5349C34.9214 34.035 35.144 34.5085 35.4939 34.9049L42.6583 43.0232C43.5042 43.8457 46.3468 46.6491 48.0276 48.7874C48.2937 49.1147 48.2114 49.5721 47.8439 49.8091C47.4763 50.046 46.9627 49.9728 46.6965 49.6455C46.6914 49.6391 46.6864 49.6328 46.6814 49.6263C46.0594 48.8351 45.2557 47.9334 44.4568 47.079C44.4579 48.4212 44.2522 50.2016 43.3805 51.754C43.1807 52.1167 42.6884 52.2666 42.2811 52.0887C41.8737 51.9108 41.7054 51.4724 41.9052 51.1097C41.9071 51.1063 41.909 51.1028 41.9109 51.0994C43.2916 48.6405 42.6732 45.2944 42.6668 45.2609C42.6647 45.2503 42.6658 45.2399 42.6643 45.2292C42.5672 45.1963 42.4781 45.1473 42.4016 45.0848L32.497 37.0035C31.5349 36.2184 30.0402 36.2765 29.1586 37.1332C28.8146 37.4674 28.6012 37.8916 28.55 38.3426L27.6167 46.3549C27.5825 46.7491 27.5294 47.216 27.4472 47.7248C27.9621 47.9551 29.6232 48.878 30.4202 51.4806C30.5396 51.8704 30.2815 52.2727 29.8438 52.379C29.4061 52.4853 28.9543 52.2555 28.8349 51.8657C28.3721 50.3544 27.6032 49.6074 27.1217 49.2687C26.8458 50.4489 26.3271 51.5736 25.5919 52.5859C25.3258 52.9132 24.8121 52.9865 24.4445 52.7494C24.0852 52.5179 23.9973 52.0742 24.2458 51.747C25.5358 50.1062 25.896 47.3589 25.9968 45.9803L25.5425 41.9854C25.2917 39.781 23.0815 38.175 20.6058 38.3982C19.6587 38.4837 18.7663 38.834 18.0567 39.3991C17.5162 39.8045 16.9557 40.255 16.3868 40.7544C15.5745 41.4671 14.8702 42.1689 14.2628 42.8322C13.2303 44.1985 12.3261 45.6384 11.5595 47.1371C11.5831 47.1605 11.605 47.1851 11.625 47.2111C11.711 47.3314 13.7258 50.1974 13.127 53.3966C13.0475 53.7944 12.6208 54.0595 12.1741 53.9885C11.7344 53.9188 11.4378 53.5491 11.5063 53.1561C11.8244 51.4561 11.2123 49.814 10.7325 48.8546C10.303 49.8144 9.88566 50.8637 9.5032 52.0058C9.37352 52.393 8.91589 52.6132 8.48099 52.4978C8.04608 52.3823 7.79878 51.9748 7.92846 51.5875C8.94643 48.4651 10.4415 45.482 12.3717 42.722C11.3352 42.5157 10.2739 42.4251 9.21222 42.4523C9.07583 43.4852 8.55931 45.8521 6.64565 46.8746C6.25375 47.0783 5.75065 46.9605 5.52183 46.6117C5.29685 46.2687 5.4205 45.8285 5.80022 45.62C6.87803 45.0441 7.35607 43.5864 7.53257 42.599C6.29017 42.7845 5.09063 43.1515 3.98241 43.6847C3.58325 43.8768 3.08467 43.7444 2.86887 43.389C2.65306 43.0335 2.80177 42.5896 3.20093 42.3974C7.5601 40.2992 11.7793 41.0337 13.3556 41.4334L18.5487 34.9827C19.5484 33.725 19.214 31.9839 17.8017 31.0937C17.3602 30.8155 16.8453 30.6437 16.3071 30.5951L6.35918 29.6979C5.29329 30.4131 3.09741 32.0311 2.53721 33.1121C2.35125 33.4807 1.865 33.6452 1.45105 33.4796C1.03709 33.314 0.852367 32.881 1.03832 32.5124C1.04065 32.5079 1.04298 32.5034 1.04531 32.4989C1.67986 31.2745 3.53642 29.8226 4.69749 28.9945C3.65501 28.4631 2.12024 27.8559 0.917686 27.9828C0.467037 28.03 0.0586967 27.743 0.00570297 27.3417C-0.0472908 26.9404 0.275051 26.5768 0.725704 26.5296C2.95719 26.2952 5.51923 27.6919 6.34494 28.1863L14.8814 27.4166C16.448 27.2754 17.5893 26.0301 17.4307 24.6352C17.3608 24.02 17.0412 23.4487 16.5318 23.0286L8.56849 16.8828C6.04287 15.28 1.39915 12.0529 0.325035 9.3746C0.178379 8.99222 0.407467 8.57643 0.836891 8.44584C1.25797 8.31781 1.71697 8.51144 1.87239 8.8826C2.44423 10.3081 4.44827 12.0918 6.51776 13.6304C6.73233 12.6214 6.88844 10.6965 5.86882 8.2755C5.70957 7.89714 5.92483 7.47549 6.34974 7.33356C6.77464 7.19175 7.24816 7.38343 7.40755 7.76179C7.71169 8.479 7.94447 9.21865 8.10345 9.97208C8.54288 9.88916 9.46006 9.55543 9.85991 8.20234C9.97549 7.81154 10.4248 7.57816 10.8636 7.68107C11.3025 7.78398 11.5646 8.18405 11.449 8.57484C10.8625 10.5591 9.31423 11.2744 8.30283 11.4287C8.38965 12.5108 8.26504 13.5981 7.93435 14.6424L19.6038 21.3945C21.3379 22.3051 23.5727 21.7914 24.5953 20.2473C24.8731 19.8277 25.0414 19.3578 25.0876 18.8725L25.6212 12.838C25.6207 12.8201 25.5355 11.008 22.8858 7.97444C22.6073 7.65547 22.6718 7.1959 23.03 6.94777C23.3882 6.69963 23.9043 6.75718 24.183 7.07616C24.8186 7.79618 25.3939 8.55692 25.904 9.35229C25.9099 6.51063 25.6343 3.6741 25.0809 0.875492C24.9917 0.479331 25.2801 0.093778 25.725 0.0143994C26.1699 -0.0649791 26.6029 0.191813 26.692 0.587974C26.6937 0.595411 26.6953 0.602849 26.6967 0.610409C27.0563 2.38503 27.3006 4.17671 27.4282 5.97645C28.807 4.30121 30.5906 4.20866 30.703 4.20463C31.1505 4.18891 31.5286 4.49752 31.5499 4.89587C31.5717 5.29642 31.2296 5.63881 30.7803 5.66613C30.6759 5.67259 28.3934 5.85939 27.6793 9.2901L28.6518 19.5093C28.7567 20.6114 29.8449 21.429 31.0826 21.3356C31.5913 21.2972 32.0701 21.1059 32.4404 20.7932C33.794 19.7943 35.1974 18.6916 36.6259 17.4774C37.8322 16.4521 38.9472 15.4401 39.9755 14.455C41.0111 13.2899 43.1281 10.4846 42.9335 7.19371C42.9097 6.79023 43.2577 6.44589 43.7109 6.42455C44.164 6.40333 44.5507 6.71317 44.5747 7.11677C44.6462 8.60715 44.3689 10.0945 43.7605 11.4844C44.9815 11.0067 46.2983 10.7534 47.6318 10.7399C48.0856 10.7399 48.4534 11.0674 48.4534 11.4715C48.4534 11.8756 48.0856 12.2031 47.6318 12.2031C44.9227 12.2031 42.7616 13.6346 42.7286 13.6565C42.457 13.9951 42.169 14.3406 41.8637 14.6911C41.4772 15.1346 41.0927 15.5525 40.7141 15.9453ZM16.4729 29.1392C19.0974 29.3759 21.0095 31.4624 20.7436 33.7994C20.6605 34.5299 20.3665 35.2288 19.8901 35.828L18.6937 37.333C21.785 36.1904 25.3354 37.4545 26.6897 40.1802L26.9154 38.1954C27.1351 36.2363 29.097 34.8068 31.297 35.0027C32.1589 35.0793 32.9697 35.4028 33.6075 35.9247L36.0965 37.9556L34.2021 35.8088C32.5721 33.9618 32.9323 31.2882 35.0064 29.8368C35.6849 29.362 36.4953 29.0597 37.3513 28.9622L37.5337 28.9413L36.5179 28.8256C34.056 28.5451 32.3155 26.5404 32.6307 24.348C32.7247 23.6946 32.9983 23.0718 33.4274 22.5352L34.8053 20.8122L33.5712 21.8546C32.0115 23.1718 29.5481 23.1138 28.0688 21.725C27.4609 21.1543 27.0891 20.4165 27.0145 19.6328L26.8395 17.7932L26.725 18.9959C26.4785 21.5871 23.9198 23.5098 21.0098 23.2904C20.2098 23.23 19.4357 23.0083 18.7463 22.6419L17.8602 22.1409C19.5656 23.7471 19.4857 26.2802 17.6819 27.7986C16.9609 28.4056 16.0346 28.7831 15.0474 28.8722L14.2797 28.9413L16.4729 29.1392Z"/>
</mask>
<path d="M40.7141 15.9453L34.766 23.3839C33.8527 24.526 34.1522 26.1112 35.435 26.9243C35.8173 27.1667 36.261 27.3213 36.7266 27.3744L45.6622 28.3752C46.2072 28.0023 46.8359 27.5061 47.4575 26.8601C47.8932 26.4072 48.2428 25.9665 48.5218 25.5678C48.3122 24.8659 47.445 22.938 45.969 22.4535C45.5432 22.3138 45.3252 21.8931 45.4822 21.514C45.6391 21.1349 46.1115 20.9408 46.5373 21.0806C48.0821 21.5877 49.0425 22.9105 49.5738 23.9216C49.9395 23.1211 50.196 22.2843 50.3375 21.4293C50.4029 21.0295 50.8201 20.7526 51.2692 20.811C51.7182 20.8694 52.0291 21.2408 51.9636 21.6406C51.6088 23.7738 50.6415 25.7893 49.1553 27.4921C48.7934 27.8997 48.4046 28.2878 47.9909 28.6543C50.2504 29.0152 52.6499 29.6977 53.8127 30.992C54.1011 31.3039 54.0508 31.7651 53.7006 32.0219C53.3503 32.2787 52.8324 32.2339 52.544 31.922C52.5392 31.9168 52.5344 31.9114 52.5296 31.906C51.0654 30.2764 46.0943 29.8002 43.6 29.7255L37.5597 30.4137C35.8434 30.6092 34.63 32.0066 34.8495 33.5349C34.9214 34.035 35.144 34.5085 35.4939 34.9049L42.6583 43.0232C43.5042 43.8457 46.3468 46.6491 48.0276 48.7874C48.2937 49.1147 48.2114 49.5721 47.8439 49.8091C47.4763 50.046 46.9627 49.9728 46.6965 49.6455C46.6914 49.6391 46.6864 49.6328 46.6814 49.6263C46.0594 48.8351 45.2557 47.9334 44.4568 47.079C44.4579 48.4212 44.2522 50.2016 43.3805 51.754C43.1807 52.1167 42.6884 52.2666 42.2811 52.0887C41.8737 51.9108 41.7054 51.4724 41.9052 51.1097C41.9071 51.1063 41.909 51.1028 41.9109 51.0994C43.2916 48.6405 42.6732 45.2944 42.6668 45.2609C42.6647 45.2503 42.6658 45.2399 42.6643 45.2292C42.5672 45.1963 42.4781 45.1473 42.4016 45.0848L32.497 37.0035C31.5349 36.2184 30.0402 36.2765 29.1586 37.1332C28.8146 37.4674 28.6012 37.8916 28.55 38.3426L27.6167 46.3549C27.5825 46.7491 27.5294 47.216 27.4472 47.7248C27.9621 47.9551 29.6232 48.878 30.4202 51.4806C30.5396 51.8704 30.2815 52.2727 29.8438 52.379C29.4061 52.4853 28.9543 52.2555 28.8349 51.8657C28.3721 50.3544 27.6032 49.6074 27.1217 49.2687C26.8458 50.4489 26.3271 51.5736 25.5919 52.5859C25.3258 52.9132 24.8121 52.9865 24.4445 52.7494C24.0852 52.5179 23.9973 52.0742 24.2458 51.747C25.5358 50.1062 25.896 47.3589 25.9968 45.9803L25.5425 41.9854C25.2917 39.781 23.0815 38.175 20.6058 38.3982C19.6587 38.4837 18.7663 38.834 18.0567 39.3991C17.5162 39.8045 16.9557 40.255 16.3868 40.7544C15.5745 41.4671 14.8702 42.1689 14.2628 42.8322C13.2303 44.1985 12.3261 45.6384 11.5595 47.1371C11.5831 47.1605 11.605 47.1851 11.625 47.2111C11.711 47.3314 13.7258 50.1974 13.127 53.3966C13.0475 53.7944 12.6208 54.0595 12.1741 53.9885C11.7344 53.9188 11.4378 53.5491 11.5063 53.1561C11.8244 51.4561 11.2123 49.814 10.7325 48.8546C10.303 49.8144 9.88566 50.8637 9.5032 52.0058C9.37352 52.393 8.91589 52.6132 8.48099 52.4978C8.04608 52.3823 7.79878 51.9748 7.92846 51.5875C8.94643 48.4651 10.4415 45.482 12.3717 42.722C11.3352 42.5157 10.2739 42.4251 9.21222 42.4523C9.07583 43.4852 8.55931 45.8521 6.64565 46.8746C6.25375 47.0783 5.75065 46.9605 5.52183 46.6117C5.29685 46.2687 5.4205 45.8285 5.80022 45.62C6.87803 45.0441 7.35607 43.5864 7.53257 42.599C6.29017 42.7845 5.09063 43.1515 3.98241 43.6847C3.58325 43.8768 3.08467 43.7444 2.86887 43.389C2.65306 43.0335 2.80177 42.5896 3.20093 42.3974C7.5601 40.2992 11.7793 41.0337 13.3556 41.4334L18.5487 34.9827C19.5484 33.725 19.214 31.9839 17.8017 31.0937C17.3602 30.8155 16.8453 30.6437 16.3071 30.5951L6.35918 29.6979C5.29329 30.4131 3.09741 32.0311 2.53721 33.1121C2.35125 33.4807 1.865 33.6452 1.45105 33.4796C1.03709 33.314 0.852367 32.881 1.03832 32.5124C1.04065 32.5079 1.04298 32.5034 1.04531 32.4989C1.67986 31.2745 3.53642 29.8226 4.69749 28.9945C3.65501 28.4631 2.12024 27.8559 0.917686 27.9828C0.467037 28.03 0.0586967 27.743 0.00570297 27.3417C-0.0472908 26.9404 0.275051 26.5768 0.725704 26.5296C2.95719 26.2952 5.51923 27.6919 6.34494 28.1863L14.8814 27.4166C16.448 27.2754 17.5893 26.0301 17.4307 24.6352C17.3608 24.02 17.0412 23.4487 16.5318 23.0286L8.56849 16.8828C6.04287 15.28 1.39915 12.0529 0.325035 9.3746C0.178379 8.99222 0.407467 8.57643 0.836891 8.44584C1.25797 8.31781 1.71697 8.51144 1.87239 8.8826C2.44423 10.3081 4.44827 12.0918 6.51776 13.6304C6.73233 12.6214 6.88844 10.6965 5.86882 8.2755C5.70957 7.89714 5.92483 7.47549 6.34974 7.33356C6.77464 7.19175 7.24816 7.38343 7.40755 7.76179C7.71169 8.479 7.94447 9.21865 8.10345 9.97208C8.54288 9.88916 9.46006 9.55543 9.85991 8.20234C9.97549 7.81154 10.4248 7.57816 10.8636 7.68107C11.3025 7.78398 11.5646 8.18405 11.449 8.57484C10.8625 10.5591 9.31423 11.2744 8.30283 11.4287C8.38965 12.5108 8.26504 13.5981 7.93435 14.6424L19.6038 21.3945C21.3379 22.3051 23.5727 21.7914 24.5953 20.2473C24.8731 19.8277 25.0414 19.3578 25.0876 18.8725L25.6212 12.838C25.6207 12.8201 25.5355 11.008 22.8858 7.97444C22.6073 7.65547 22.6718 7.1959 23.03 6.94777C23.3882 6.69963 23.9043 6.75718 24.183 7.07616C24.8186 7.79618 25.3939 8.55692 25.904 9.35229C25.9099 6.51063 25.6343 3.6741 25.0809 0.875492C24.9917 0.479331 25.2801 0.093778 25.725 0.0143994C26.1699 -0.0649791 26.6029 0.191813 26.692 0.587974C26.6937 0.595411 26.6953 0.602849 26.6967 0.610409C27.0563 2.38503 27.3006 4.17671 27.4282 5.97645C28.807 4.30121 30.5906 4.20866 30.703 4.20463C31.1505 4.18891 31.5286 4.49752 31.5499 4.89587C31.5717 5.29642 31.2296 5.63881 30.7803 5.66613C30.6759 5.67259 28.3934 5.85939 27.6793 9.2901L28.6518 19.5093C28.7567 20.6114 29.8449 21.429 31.0826 21.3356C31.5913 21.2972 32.0701 21.1059 32.4404 20.7932C33.794 19.7943 35.1974 18.6916 36.6259 17.4774C37.8322 16.4521 38.9472 15.4401 39.9755 14.455C41.0111 13.2899 43.1281 10.4846 42.9335 7.19371C42.9097 6.79023 43.2577 6.44589 43.7109 6.42455C44.164 6.40333 44.5507 6.71317 44.5747 7.11677C44.6462 8.60715 44.3689 10.0945 43.7605 11.4844C44.9815 11.0067 46.2983 10.7534 47.6318 10.7399C48.0856 10.7399 48.4534 11.0674 48.4534 11.4715C48.4534 11.8756 48.0856 12.2031 47.6318 12.2031C44.9227 12.2031 42.7616 13.6346 42.7286 13.6565C42.457 13.9951 42.169 14.3406 41.8637 14.6911C41.4772 15.1346 41.0927 15.5525 40.7141 15.9453ZM16.4729 29.1392C19.0974 29.3759 21.0095 31.4624 20.7436 33.7994C20.6605 34.5299 20.3665 35.2288 19.8901 35.828L18.6937 37.333C21.785 36.1904 25.3354 37.4545 26.6897 40.1802L26.9154 38.1954C27.1351 36.2363 29.097 34.8068 31.297 35.0027C32.1589 35.0793 32.9697 35.4028 33.6075 35.9247L36.0965 37.9556L34.2021 35.8088C32.5721 33.9618 32.9323 31.2882 35.0064 29.8368C35.6849 29.362 36.4953 29.0597 37.3513 28.9622L37.5337 28.9413L36.5179 28.8256C34.056 28.5451 32.3155 26.5404 32.6307 24.348C32.7247 23.6946 32.9983 23.0718 33.4274 22.5352L34.8053 20.8122L33.5712 21.8546C32.0115 23.1718 29.5481 23.1138 28.0688 21.725C27.4609 21.1543 27.0891 20.4165 27.0145 19.6328L26.8395 17.7932L26.725 18.9959C26.4785 21.5871 23.9198 23.5098 21.0098 23.2904C20.2098 23.23 19.4357 23.0083 18.7463 22.6419L17.8602 22.1409C19.5656 23.7471 19.4857 26.2802 17.6819 27.7986C16.9609 28.4056 16.0346 28.7831 15.0474 28.8722L14.2797 28.9413L16.4729 29.1392Z" fill="#2A276E"/>
<path d="M40.7141 15.9453L34.766 23.3839C33.8527 24.526 34.1522 26.1112 35.435 26.9243C35.8173 27.1667 36.261 27.3213 36.7266 27.3744L45.6622 28.3752C46.2072 28.0023 46.8359 27.5061 47.4575 26.8601C47.8932 26.4072 48.2428 25.9665 48.5218 25.5678C48.3122 24.8659 47.445 22.938 45.969 22.4535C45.5432 22.3138 45.3252 21.8931 45.4822 21.514C45.6391 21.1349 46.1115 20.9408 46.5373 21.0806C48.0821 21.5877 49.0425 22.9105 49.5738 23.9216C49.9395 23.1211 50.196 22.2843 50.3375 21.4293C50.4029 21.0295 50.8201 20.7526 51.2692 20.811C51.7182 20.8694 52.0291 21.2408 51.9636 21.6406C51.6088 23.7738 50.6415 25.7893 49.1553 27.4921C48.7934 27.8997 48.4046 28.2878 47.9909 28.6543C50.2504 29.0152 52.6499 29.6977 53.8127 30.992C54.1011 31.3039 54.0508 31.7651 53.7006 32.0219C53.3503 32.2787 52.8324 32.2339 52.544 31.922C52.5392 31.9168 52.5344 31.9114 52.5296 31.906C51.0654 30.2764 46.0943 29.8002 43.6 29.7255L37.5597 30.4137C35.8434 30.6092 34.63 32.0066 34.8495 33.5349C34.9214 34.035 35.144 34.5085 35.4939 34.9049L42.6583 43.0232C43.5042 43.8457 46.3468 46.6491 48.0276 48.7874C48.2937 49.1147 48.2114 49.5721 47.8439 49.8091C47.4763 50.046 46.9627 49.9728 46.6965 49.6455C46.6914 49.6391 46.6864 49.6328 46.6814 49.6263C46.0594 48.8351 45.2557 47.9334 44.4568 47.079C44.4579 48.4212 44.2522 50.2016 43.3805 51.754C43.1807 52.1167 42.6884 52.2666 42.2811 52.0887C41.8737 51.9108 41.7054 51.4724 41.9052 51.1097C41.9071 51.1063 41.909 51.1028 41.9109 51.0994C43.2916 48.6405 42.6732 45.2944 42.6668 45.2609C42.6647 45.2503 42.6658 45.2399 42.6643 45.2292C42.5672 45.1963 42.4781 45.1473 42.4016 45.0848L32.497 37.0035C31.5349 36.2184 30.0402 36.2765 29.1586 37.1332C28.8146 37.4674 28.6012 37.8916 28.55 38.3426L27.6167 46.3549C27.5825 46.7491 27.5294 47.216 27.4472 47.7248C27.9621 47.9551 29.6232 48.878 30.4202 51.4806C30.5396 51.8704 30.2815 52.2727 29.8438 52.379C29.4061 52.4853 28.9543 52.2555 28.8349 51.8657C28.3721 50.3544 27.6032 49.6074 27.1217 49.2687C26.8458 50.4489 26.3271 51.5736 25.5919 52.5859C25.3258 52.9132 24.8121 52.9865 24.4445 52.7494C24.0852 52.5179 23.9973 52.0742 24.2458 51.747C25.5358 50.1062 25.896 47.3589 25.9968 45.9803L25.5425 41.9854C25.2917 39.781 23.0815 38.175 20.6058 38.3982C19.6587 38.4837 18.7663 38.834 18.0567 39.3991C17.5162 39.8045 16.9557 40.255 16.3868 40.7544C15.5745 41.4671 14.8702 42.1689 14.2628 42.8322C13.2303 44.1985 12.3261 45.6384 11.5595 47.1371C11.5831 47.1605 11.605 47.1851 11.625 47.2111C11.711 47.3314 13.7258 50.1974 13.127 53.3966C13.0475 53.7944 12.6208 54.0595 12.1741 53.9885C11.7344 53.9188 11.4378 53.5491 11.5063 53.1561C11.8244 51.4561 11.2123 49.814 10.7325 48.8546C10.303 49.8144 9.88566 50.8637 9.5032 52.0058C9.37352 52.393 8.91589 52.6132 8.48099 52.4978C8.04608 52.3823 7.79878 51.9748 7.92846 51.5875C8.94643 48.4651 10.4415 45.482 12.3717 42.722C11.3352 42.5157 10.2739 42.4251 9.21222 42.4523C9.07583 43.4852 8.55931 45.8521 6.64565 46.8746C6.25375 47.0783 5.75065 46.9605 5.52183 46.6117C5.29685 46.2687 5.4205 45.8285 5.80022 45.62C6.87803 45.0441 7.35607 43.5864 7.53257 42.599C6.29017 42.7845 5.09063 43.1515 3.98241 43.6847C3.58325 43.8768 3.08467 43.7444 2.86887 43.389C2.65306 43.0335 2.80177 42.5896 3.20093 42.3974C7.5601 40.2992 11.7793 41.0337 13.3556 41.4334L18.5487 34.9827C19.5484 33.725 19.214 31.9839 17.8017 31.0937C17.3602 30.8155 16.8453 30.6437 16.3071 30.5951L6.35918 29.6979C5.29329 30.4131 3.09741 32.0311 2.53721 33.1121C2.35125 33.4807 1.865 33.6452 1.45105 33.4796C1.03709 33.314 0.852367 32.881 1.03832 32.5124C1.04065 32.5079 1.04298 32.5034 1.04531 32.4989C1.67986 31.2745 3.53642 29.8226 4.69749 28.9945C3.65501 28.4631 2.12024 27.8559 0.917686 27.9828C0.467037 28.03 0.0586967 27.743 0.00570297 27.3417C-0.0472908 26.9404 0.275051 26.5768 0.725704 26.5296C2.95719 26.2952 5.51923 27.6919 6.34494 28.1863L14.8814 27.4166C16.448 27.2754 17.5893 26.0301 17.4307 24.6352C17.3608 24.02 17.0412 23.4487 16.5318 23.0286L8.56849 16.8828C6.04287 15.28 1.39915 12.0529 0.325035 9.3746C0.178379 8.99222 0.407467 8.57643 0.836891 8.44584C1.25797 8.31781 1.71697 8.51144 1.87239 8.8826C2.44423 10.3081 4.44827 12.0918 6.51776 13.6304C6.73233 12.6214 6.88844 10.6965 5.86882 8.2755C5.70957 7.89714 5.92483 7.47549 6.34974 7.33356C6.77464 7.19175 7.24816 7.38343 7.40755 7.76179C7.71169 8.479 7.94447 9.21865 8.10345 9.97208C8.54288 9.88916 9.46006 9.55543 9.85991 8.20234C9.97549 7.81154 10.4248 7.57816 10.8636 7.68107C11.3025 7.78398 11.5646 8.18405 11.449 8.57484C10.8625 10.5591 9.31423 11.2744 8.30283 11.4287C8.38965 12.5108 8.26504 13.5981 7.93435 14.6424L19.6038 21.3945C21.3379 22.3051 23.5727 21.7914 24.5953 20.2473C24.8731 19.8277 25.0414 19.3578 25.0876 18.8725L25.6212 12.838C25.6207 12.8201 25.5355 11.008 22.8858 7.97444C22.6073 7.65547 22.6718 7.1959 23.03 6.94777C23.3882 6.69963 23.9043 6.75718 24.183 7.07616C24.8186 7.79618 25.3939 8.55692 25.904 9.35229C25.9099 6.51063 25.6343 3.6741 25.0809 0.875492C24.9917 0.479331 25.2801 0.093778 25.725 0.0143994C26.1699 -0.0649791 26.6029 0.191813 26.692 0.587974C26.6937 0.595411 26.6953 0.602849 26.6967 0.610409C27.0563 2.38503 27.3006 4.17671 27.4282 5.97645C28.807 4.30121 30.5906 4.20866 30.703 4.20463C31.1505 4.18891 31.5286 4.49752 31.5499 4.89587C31.5717 5.29642 31.2296 5.63881 30.7803 5.66613C30.6759 5.67259 28.3934 5.85939 27.6793 9.2901L28.6518 19.5093C28.7567 20.6114 29.8449 21.429 31.0826 21.3356C31.5913 21.2972 32.0701 21.1059 32.4404 20.7932C33.794 19.7943 35.1974 18.6916 36.6259 17.4774C37.8322 16.4521 38.9472 15.4401 39.9755 14.455C41.0111 13.2899 43.1281 10.4846 42.9335 7.19371C42.9097 6.79023 43.2577 6.44589 43.7109 6.42455C44.164 6.40333 44.5507 6.71317 44.5747 7.11677C44.6462 8.60715 44.3689 10.0945 43.7605 11.4844C44.9815 11.0067 46.2983 10.7534 47.6318 10.7399C48.0856 10.7399 48.4534 11.0674 48.4534 11.4715C48.4534 11.8756 48.0856 12.2031 47.6318 12.2031C44.9227 12.2031 42.7616 13.6346 42.7286 13.6565C42.457 13.9951 42.169 14.3406 41.8637 14.6911C41.4772 15.1346 41.0927 15.5525 40.7141 15.9453ZM16.4729 29.1392C19.0974 29.3759 21.0095 31.4624 20.7436 33.7994C20.6605 34.5299 20.3665 35.2288 19.8901 35.828L18.6937 37.333C21.785 36.1904 25.3354 37.4545 26.6897 40.1802L26.9154 38.1954C27.1351 36.2363 29.097 34.8068 31.297 35.0027C32.1589 35.0793 32.9697 35.4028 33.6075 35.9247L36.0965 37.9556L34.2021 35.8088C32.5721 33.9618 32.9323 31.2882 35.0064 29.8368C35.6849 29.362 36.4953 29.0597 37.3513 28.9622L37.5337 28.9413L36.5179 28.8256C34.056 28.5451 32.3155 26.5404 32.6307 24.348C32.7247 23.6946 32.9983 23.0718 33.4274 22.5352L34.8053 20.8122L33.5712 21.8546C32.0115 23.1718 29.5481 23.1138 28.0688 21.725C27.4609 21.1543 27.0891 20.4165 27.0145 19.6328L26.8395 17.7932L26.725 18.9959C26.4785 21.5871 23.9198 23.5098 21.0098 23.2904C20.2098 23.23 19.4357 23.0083 18.7463 22.6419L17.8602 22.1409C19.5656 23.7471 19.4857 26.2802 17.6819 27.7986C16.9609 28.4056 16.0346 28.7831 15.0474 28.8722L14.2797 28.9413L16.4729 29.1392Z" stroke="#2A276E" mask="url(#path-1-outside-1_118_755)"/>
<path d="M25.4997 24.75H25.5C28.1233 24.75 30.25 26.8767 30.25 29.5C30.25 32.1233 28.1233 34.25 25.5 34.25C22.8767 34.25 20.75 32.1233 20.75 29.5V29.4997C20.7529 26.8778 22.8778 24.7529 25.4997 24.75ZM25.5003 32.1785C26.9795 32.1784 28.1785 30.9793 28.1785 29.5C28.1785 28.0206 26.9794 26.8215 25.5 26.8215C24.0207 26.8215 22.8216 28.0205 22.8215 29.4997C22.8231 30.9785 24.0215 32.1769 25.5003 32.1785Z" fill="#2A276E" stroke="#2A276E" stroke-width="0.5"/>
</g>
<defs>
<clipPath id="clip0_118_755">
<rect width="54" height="54" fill="white" transform="matrix(-1 0 0 1 54 0)"/>
</clipPath>
</defs>
</svg>
