<svg width="32" height="32" viewBox="0 0 32 32" fill="none" xmlns="http://www.w3.org/2000/svg">
<g clip-path="url(#clip0_36_5588)">
<path d="M21.9731 6C19.8123 6 17.7185 6.69702 15.9968 7.97583C14.3276 6.73511 12.2617 6 10.0269 6C4.49805 6 0 10.498 0 16.0269C0 21.5557 4.49805 26.0537 10.0269 26.0537C12.2617 26.0537 14.3279 25.3186 15.9968 24.0776C17.7188 25.3564 19.8123 26.0537 21.9731 26.0537C27.502 26.0537 32 21.5557 32 16.0269C32 10.498 27.502 6 21.9731 6ZM29.6243 13.2129H19.6511C19.2153 11.7246 18.4431 10.3787 17.4224 9.26343C18.7603 8.36304 20.343 7.875 21.9731 7.875C25.4795 7.875 28.4758 10.1003 29.6243 13.2129ZM30.125 16.0269C30.125 16.3445 30.1062 16.6577 30.0706 16.9658H20.0093C20.0383 16.6567 20.0537 16.3435 20.0537 16.0269C20.0537 15.7102 20.0383 15.3972 20.0093 15.0879H30.0706C30.1062 15.396 30.125 15.7092 30.125 16.0269ZM10.0269 7.875C11.2473 7.875 12.4058 8.14502 13.4463 8.62793L2.62793 19.4463C2.14502 18.4058 1.875 17.2473 1.875 16.0269C1.875 11.532 5.53198 7.875 10.0269 7.875ZM3.63965 21.0862L15.0862 9.63965C15.5779 10.03 16.0237 10.4758 16.4141 10.9675L4.96753 22.4141C4.47583 22.0237 4.03003 21.5779 3.63965 21.0862ZM6.60742 23.4258L17.4258 12.6074C17.9084 13.6479 18.1787 14.8064 18.1787 16.0269C18.1787 20.5217 14.5217 24.1787 10.0269 24.1787C8.8064 24.1787 7.64795 23.9087 6.60742 23.4258ZM21.9731 24.1787C20.343 24.1787 18.7603 23.6909 17.4224 22.7903C18.4431 21.675 19.2153 20.3293 19.6511 18.8408H29.6243C28.4758 21.9534 25.4795 24.1787 21.9731 24.1787Z" fill="#492BA0"/>
</g>
<defs>
<clipPath id="clip0_36_5588">
<rect width="32" height="32" fill="white"/>
</clipPath>
</defs>
</svg>
