<svg width="60" height="60" viewBox="0 0 60 60" fill="none" xmlns="http://www.w3.org/2000/svg">
<circle cx="30" cy="30" r="29.5" stroke="#492BA0"/>
<path d="M41 19H38V17C38 16.4477 37.5523 16 37 16C36.4477 16 36 16.4477 36 17V19H24V17C24 16.4477 23.5523 16 23 16C22.4478 16 22 16.4477 22 17V19H19C17.3431 19 16 20.3431 16 22V41C16 42.6569 17.3431 44 19 44H41C42.6569 44 44 42.6569 44 41V22C44 20.3431 42.6569 19 41 19ZM42 41C42 41.5523 41.5522 42 40.9999 42H19C18.4477 42 18 41.5523 18 41V28H42V41ZM42 26H18V22C18 21.4477 18.4477 21 19 21H22V23C22 23.5523 22.4477 24 23 24C23.5523 24 24 23.5523 24 23V21H36V23C36 23.5523 36.4477 24 37 24C37.5523 24 38.0001 23.5523 38.0001 23V21H41.0001C41.5524 21 42.0001 21.4477 42.0001 22V26H42Z" fill="#492BA0"/>
<path d="M24 30H22C21.4477 30 21 30.4477 21 31C21 31.5523 21.4477 32 22 32H24C24.5523 32 25 31.5523 25 31C25 30.4477 24.5523 30 24 30Z" fill="#492BA0"/>
<path d="M31 30H29C28.4477 30 28 30.4477 28 31C28 31.5523 28.4477 32 29 32H31C31.5523 32 32 31.5523 32 31C32 30.4477 31.5523 30 31 30Z" fill="#492BA0"/>
<path d="M38 30H36C35.4477 30 35 30.4477 35 31C35 31.5523 35.4477 32 36 32H38C38.5523 32 39 31.5523 39 31C39 30.4477 38.5522 30 38 30Z" fill="#492BA0"/>
<path d="M24 34H22C21.4477 34 21 34.4477 21 35C21 35.5523 21.4477 36 22 36H24C24.5523 36 25 35.5523 25 35C25 34.4477 24.5523 34 24 34Z" fill="#492BA0"/>
<path d="M31 34H29C28.4477 34 28 34.4477 28 35C28 35.5523 28.4477 36 29 36H31C31.5523 36 32 35.5523 32 35C32 34.4477 31.5523 34 31 34Z" fill="#492BA0"/>
<path d="M38 34H36C35.4477 34 35 34.4477 35 35C35 35.5523 35.4477 36 36 36H38C38.5523 36 39 35.5523 39 35C39 34.4477 38.5522 34 38 34Z" fill="#492BA0"/>
<path d="M24 38H22C21.4477 38 21 38.4477 21 39C21 39.5523 21.4477 40 22 40H24C24.5523 40 25 39.5523 25 39C25 38.4477 24.5523 38 24 38Z" fill="#492BA0"/>
<path d="M31 38H29C28.4477 38 28 38.4477 28 39C28 39.5523 28.4477 40 29 40H31C31.5523 40 32 39.5523 32 39C32 38.4477 31.5523 38 31 38Z" fill="#492BA0"/>
<path d="M38 38H36C35.4477 38 35 38.4477 35 39C35 39.5523 35.4477 40 36 40H38C38.5523 40 39 39.5523 39 39C39 38.4477 38.5522 38 38 38Z" fill="#492BA0"/>
</svg>
