<svg width="50" height="50" viewBox="0 0 50 50" fill="none" xmlns="http://www.w3.org/2000/svg">
<circle cx="25" cy="25" r="24.5" stroke="#4094B0"/>
<path d="M30.9494 24.9502H19.3976V18.3626C19.3976 15.0688 22.0322 12.5985 25.0722 12.5985C28.3148 12.5985 30.7468 15.2747 30.7468 18.3626V24.9502H30.9494ZM20.6136 28.8616H21.8296V30.0968H20.6136V28.8616ZM25.0722 37.0962C22.6402 37.0962 20.6136 35.0375 20.6136 32.5672V31.332H21.8296V32.5672C21.8296 34.4199 23.2482 35.861 25.0722 35.861V37.0962ZM25.0722 11.3633C21.2216 11.3633 18.1816 14.4512 18.1816 18.3626V32.5672C18.1816 36.4786 21.2216 39.5665 25.0722 39.5665C28.9228 39.5665 31.9628 36.4786 31.9628 32.5672V18.3626C32.1654 14.4512 28.9228 11.3633 25.0722 11.3633Z" fill="#4094B0"/>
</svg>
