<svg width="50" height="50" viewBox="0 0 50 50" fill="none" xmlns="http://www.w3.org/2000/svg">
<path d="M25 3.125C30.8016 3.125 36.3656 5.42968 40.468 9.53204C44.5703 13.6344 46.875 19.1984 46.875 25C46.875 30.8016 44.5703 36.3656 40.468 40.468C36.3656 44.5703 30.8016 46.875 25 46.875C19.1984 46.875 13.6344 44.5703 9.53204 40.468C5.42968 36.3656 3.125 30.8016 3.125 25C3.125 19.1984 5.42968 13.6344 9.53204 9.53204C13.6344 5.42968 19.1984 3.125 25 3.125ZM25 43.75C29.9728 43.75 34.7419 41.7746 38.2583 38.2583C41.7746 34.7419 43.75 29.9728 43.75 25C43.75 20.0272 41.7746 15.2581 38.2583 11.7417C34.7419 8.22544 29.9728 6.25 25 6.25C20.0272 6.25 15.2581 8.22544 11.7417 11.7417C8.22544 15.2581 6.25 20.0272 6.25 25C6.25 29.9728 8.22544 34.7419 11.7417 38.2583C15.2581 41.7746 20.0272 43.75 25 43.75ZM27.3438 35.1562C27.3438 35.7779 27.0968 36.374 26.6573 36.8135C26.2177 37.2531 25.6216 37.5 25 37.5C24.3784 37.5 23.7823 37.2531 23.3427 36.8135C22.9032 36.374 22.6562 35.7779 22.6562 35.1562C22.6562 34.5346 22.9032 33.9385 23.3427 33.499C23.7823 33.0594 24.3784 32.8125 25 32.8125C25.6216 32.8125 26.2177 33.0594 26.6573 33.499C27.0968 33.9385 27.3438 34.5346 27.3438 35.1562ZM25 12.5C25.4144 12.5 25.8118 12.6646 26.1049 12.9576C26.3979 13.2507 26.5625 13.6481 26.5625 14.0625V28.125C26.5625 28.5394 26.3979 28.9368 26.1049 29.2299C25.8118 29.5229 25.4144 29.6875 25 29.6875C24.5856 29.6875 24.1882 29.5229 23.8951 29.2299C23.6021 28.9368 23.4375 28.5394 23.4375 28.125V14.0625C23.4375 13.6481 23.6021 13.2507 23.8951 12.9576C24.1882 12.6646 24.5856 12.5 25 12.5Z" fill="#CA3232"/>
</svg>
