<svg width="72" height="72" viewBox="0 0 72 72" fill="none" xmlns="http://www.w3.org/2000/svg">
<g clip-path="url(#clip0_356_17737)">
<g clip-path="url(#clip1_356_17737)">
<path d="M59.9062 4.21861H51.0882C50.601 3.37936 49.6946 2.81236 48.6562 2.81236H40.8721C39.8801 1.09716 38.0303 0 36 0C33.9697 0 32.1197 1.09716 31.1279 2.81236H23.3438C22.3054 2.81236 21.399 3.37936 20.9118 4.21861H12.0936C9.76739 4.21861 7.875 6.11114 7.875 8.43736V67.7812C7.875 70.1075 9.76739 71.9999 12.0936 71.9999H59.9062C62.2325 71.9999 64.125 70.1075 64.125 67.7812V8.43736C64.125 6.11114 62.2325 4.21861 59.9062 4.21861ZM32.0216 5.62486C32.6175 5.62486 33.149 5.24911 33.3475 4.68717C33.744 3.56583 34.8099 2.8125 36 2.8125C37.1901 2.8125 38.2562 3.56583 38.6526 4.68731C38.8512 5.24925 39.3823 5.62486 39.9784 5.62486H48.6562V11.2499H42.3277C41.5512 11.2499 40.9215 11.8796 40.9215 12.6561C40.9215 13.4326 41.5512 14.0624 42.3277 14.0624H48.6562C49.6946 14.0624 50.6011 13.4954 51.0882 12.6561H55.6875V63.5624H16.3124V12.6561H20.9118C21.399 13.4954 22.3054 14.0624 23.3438 14.0624H29.6715C30.448 14.0624 31.0777 13.4326 31.0777 12.6561C31.0777 11.8796 30.448 11.2499 29.6715 11.2499L23.3438 11.25V5.62486H32.0216ZM61.3125 67.7812C61.3125 68.5567 60.6817 69.1874 59.9062 69.1874H12.0936C11.3182 69.1874 10.6875 68.5567 10.6875 67.7812V8.43736C10.6875 7.66195 11.3182 7.03111 12.0936 7.03111H20.5312V9.84361H14.9061C14.1296 9.84361 13.4999 10.4733 13.4999 11.2499V64.9686C13.4999 65.7451 14.1296 66.3749 14.9061 66.3749H57.0938C57.8703 66.3749 58.5 65.7451 58.5 64.9686V11.2499C58.5 10.4733 57.8703 9.84361 57.0938 9.84361H51.4688V7.03111H59.9062C60.6817 7.03111 61.3125 7.66195 61.3125 8.43736V67.7812Z" fill="#492BA0" stroke="#F7F7F7" stroke-width="0.5"/>
<path d="M36.0004 14.0625C36.777 14.0625 37.4067 13.4328 37.4067 12.6562C37.4067 11.8797 36.777 11.25 36.0004 11.25H35.9994C35.2229 11.25 34.5938 11.8797 34.5938 12.6562C34.5938 13.4328 35.2238 14.0625 36.0004 14.0625Z" fill="#492BA0" stroke="#F7F7F7" stroke-width="0.5"/>
<path d="M26.1562 27.7734V31.2892C26.1562 32.8399 27.4179 34.1016 28.9688 34.1016H31.4297V36.5625C31.4297 38.1133 32.6914 39.375 34.2422 39.375H37.7578C39.3086 39.375 40.5703 38.1133 40.5703 36.5625V34.1016H43.0312C44.5821 34.1016 45.8438 32.8399 45.8438 31.2892V27.7734C45.8438 26.2228 44.5821 24.9611 43.0312 24.9611H40.5703V22.5C40.5703 20.9492 39.3086 19.6875 37.7578 19.6875H34.2422C32.6914 19.6875 31.4297 20.9492 31.4297 22.5V24.9611H28.9688C27.4178 24.9611 26.1562 26.2228 26.1562 27.7734ZM32.8359 27.7736C33.6125 27.7736 34.2422 27.1439 34.2422 26.3673L34.2419 22.5H37.7578V26.3673C37.7578 27.1439 38.3875 27.7736 39.1641 27.7736L43.0312 27.7734V31.2891H39.1641C38.3875 31.2891 37.7578 31.9188 37.7578 32.6953V36.5625H34.2422V32.6953C34.2422 31.9188 33.6125 31.2891 32.8359 31.2891L28.9688 31.2892V27.7736H32.8359Z" fill="#F1CB14"/>
<path d="M20.5312 46.687C20.5312 47.4635 21.161 48.0933 21.9375 48.0933H50.0625C50.839 48.0933 51.4688 47.4635 51.4688 46.687C51.4688 45.9105 50.839 45.2808 50.0625 45.2808H21.9375C21.1608 45.2808 20.5312 45.9105 20.5312 46.687Z" fill="#492BA0" stroke="#F7F7F7" stroke-width="0.5"/>
<path d="M50.0625 50.9058H21.9375C21.161 50.9058 20.5312 51.5355 20.5312 52.312C20.5312 53.0885 21.161 53.7183 21.9375 53.7183H50.0625C50.839 53.7183 51.4688 53.0885 51.4688 52.312C51.4688 51.5355 50.839 50.9058 50.0625 50.9058Z" fill="#492BA0" stroke="#F7F7F7" stroke-width="0.5"/>
<path d="M50.0625 56.5308H21.9375C21.161 56.5308 20.5312 57.1605 20.5312 57.937C20.5312 58.7135 21.161 59.3433 21.9375 59.3433H50.0625C50.839 59.3433 51.4688 58.7135 51.4688 57.937C51.4688 57.1605 50.839 56.5308 50.0625 56.5308Z" fill="#492BA0" stroke="#F7F7F7" stroke-width="0.5"/>
</g>
</g>
<defs>
<clipPath id="clip0_356_17737">
<rect width="72" height="72" fill="white"/>
</clipPath>
<clipPath id="clip1_356_17737">
<rect width="72" height="72" fill="white"/>
</clipPath>
</defs>
</svg>
