<svg width="16" height="14" viewBox="0 0 16 14" fill="none" xmlns="http://www.w3.org/2000/svg">
<path d="M15.1118 6.29124C15.5046 6.68214 15.5046 7.31786 15.1118 7.70876L10.4965 12.3025C9.86582 12.9302 8.79102 12.4835 8.79102 11.5938L8.79101 2.40623C8.79101 1.51646 9.86582 1.06978 10.4965 1.69747L15.1118 6.29124Z" fill="#492BA0"/>
<path d="M8.67024 10L1 10C0.447715 10 -3.14505e-08 9.55228 -7.02466e-08 9L-3.51233e-07 5C-3.90029e-07 4.44772 0.447716 4 1 4L8.67024 4C9.22252 4 9.67024 4.44771 9.67024 5L9.67024 9C9.67024 9.55228 9.22252 10 8.67024 10Z" fill="#492BA0"/>
</svg>
