<svg width="29" height="30" viewBox="0 0 29 30" fill="none" xmlns="http://www.w3.org/2000/svg">
<mask id="path-1-outside-1_314_9259" maskUnits="userSpaceOnUse" x="0" y="0" width="29" height="30" fill="black">
<rect fill="white" width="29" height="30"/>
<path d="M27.2637 15.005C25.8215 13.3 24.1996 10.5471 24.1443 9.89438C24.0863 9.1955 24.3248 4.68235 24.4889 2.00041C24.521 1.48118 24.1252 1.03369 23.6047 1.0024C23.0972 0.971925 22.6377 1.366 22.6064 1.88632C22.5621 2.61 22.1763 8.98754 22.2656 10.0508C22.3862 11.5028 24.6114 14.7905 25.8234 16.222C26.2276 16.7 26.26 17.6659 25.9025 18.5708C25.6623 19.1785 24.8904 20.6165 22.925 20.8449C19.9208 21.194 14.685 24.3776 11.8724 26.0872C11.2065 26.4934 10.5166 26.9123 10.3749 26.9749C9.62239 27.2076 4.28078 27.1038 3.07037 26.9387C2.87152 26.6415 2.82996 25.6637 2.95165 25.2235C3.41763 24.93 4.97314 24.3563 6.02597 23.9679C8.21771 23.1584 9.15264 22.7867 9.57706 22.3622C10.2891 21.6514 13.6848 15.1393 15.1121 12.3727C15.1739 12.2529 15.2098 12.1205 15.2163 11.9851L15.6879 1.98746C15.7119 1.46715 15.3102 1.02614 14.79 1.00133C14.2641 0.973813 13.8275 1.37787 13.8035 1.89899L13.3421 11.6913C11.1558 15.9218 8.67101 20.5326 8.26763 21.0068C7.96921 21.2398 6.40615 21.817 5.37301 22.1982C2.40095 23.2957 1.61254 23.6539 1.30387 24.2686C0.912629 25.0514 0.860014 26.7491 1.37861 27.7665C1.66677 28.3327 2.12816 28.6955 2.67806 28.7866C3.16616 28.8684 5.52923 29 7.65217 29C8.30486 29 8.92922 28.9865 9.4748 28.956C9.54252 28.9717 9.60674 28.9973 9.67932 28.9973H22.2904C22.8117 28.9973 23.2334 28.5757 23.2334 28.0546C23.2334 27.5335 22.8117 27.1119 22.2904 27.1119H13.8213C16.5195 25.4865 20.8474 22.9847 23.1422 22.7174C25.208 22.4782 26.8951 21.1864 27.656 19.2638C28.278 17.6934 28.1239 16.0213 27.2637 15.005V15.005Z"/>
</mask>
<path d="M27.2637 15.005C25.8215 13.3 24.1996 10.5471 24.1443 9.89438C24.0863 9.1955 24.3248 4.68235 24.4889 2.00041C24.521 1.48118 24.1252 1.03369 23.6047 1.0024C23.0972 0.971925 22.6377 1.366 22.6064 1.88632C22.5621 2.61 22.1763 8.98754 22.2656 10.0508C22.3862 11.5028 24.6114 14.7905 25.8234 16.222C26.2276 16.7 26.26 17.6659 25.9025 18.5708C25.6623 19.1785 24.8904 20.6165 22.925 20.8449C19.9208 21.194 14.685 24.3776 11.8724 26.0872C11.2065 26.4934 10.5166 26.9123 10.3749 26.9749C9.62239 27.2076 4.28078 27.1038 3.07037 26.9387C2.87152 26.6415 2.82996 25.6637 2.95165 25.2235C3.41763 24.93 4.97314 24.3563 6.02597 23.9679C8.21771 23.1584 9.15264 22.7867 9.57706 22.3622C10.2891 21.6514 13.6848 15.1393 15.1121 12.3727C15.1739 12.2529 15.2098 12.1205 15.2163 11.9851L15.6879 1.98746C15.7119 1.46715 15.3102 1.02614 14.79 1.00133C14.2641 0.973813 13.8275 1.37787 13.8035 1.89899L13.3421 11.6913C11.1558 15.9218 8.67101 20.5326 8.26763 21.0068C7.96921 21.2398 6.40615 21.817 5.37301 22.1982C2.40095 23.2957 1.61254 23.6539 1.30387 24.2686C0.912629 25.0514 0.860014 26.7491 1.37861 27.7665C1.66677 28.3327 2.12816 28.6955 2.67806 28.7866C3.16616 28.8684 5.52923 29 7.65217 29C8.30486 29 8.92922 28.9865 9.4748 28.956C9.54252 28.9717 9.60674 28.9973 9.67932 28.9973H22.2904C22.8117 28.9973 23.2334 28.5757 23.2334 28.0546C23.2334 27.5335 22.8117 27.1119 22.2904 27.1119H13.8213C16.5195 25.4865 20.8474 22.9847 23.1422 22.7174C25.208 22.4782 26.8951 21.1864 27.656 19.2638C28.278 17.6934 28.1239 16.0213 27.2637 15.005V15.005Z" fill="#492BA0"/>
<path d="M27.2637 15.005C25.8215 13.3 24.1996 10.5471 24.1443 9.89438C24.0863 9.1955 24.3248 4.68235 24.4889 2.00041C24.521 1.48118 24.1252 1.03369 23.6047 1.0024C23.0972 0.971925 22.6377 1.366 22.6064 1.88632C22.5621 2.61 22.1763 8.98754 22.2656 10.0508C22.3862 11.5028 24.6114 14.7905 25.8234 16.222C26.2276 16.7 26.26 17.6659 25.9025 18.5708C25.6623 19.1785 24.8904 20.6165 22.925 20.8449C19.9208 21.194 14.685 24.3776 11.8724 26.0872C11.2065 26.4934 10.5166 26.9123 10.3749 26.9749C9.62239 27.2076 4.28078 27.1038 3.07037 26.9387C2.87152 26.6415 2.82996 25.6637 2.95165 25.2235C3.41763 24.93 4.97314 24.3563 6.02597 23.9679C8.21771 23.1584 9.15264 22.7867 9.57706 22.3622C10.2891 21.6514 13.6848 15.1393 15.1121 12.3727C15.1739 12.2529 15.2098 12.1205 15.2163 11.9851L15.6879 1.98746C15.7119 1.46715 15.3102 1.02614 14.79 1.00133C14.2641 0.973813 13.8275 1.37787 13.8035 1.89899L13.3421 11.6913C11.1558 15.9218 8.67101 20.5326 8.26763 21.0068C7.96921 21.2398 6.40615 21.817 5.37301 22.1982C2.40095 23.2957 1.61254 23.6539 1.30387 24.2686C0.912629 25.0514 0.860014 26.7491 1.37861 27.7665C1.66677 28.3327 2.12816 28.6955 2.67806 28.7866C3.16616 28.8684 5.52923 29 7.65217 29C8.30486 29 8.92922 28.9865 9.4748 28.956C9.54252 28.9717 9.60674 28.9973 9.67932 28.9973H22.2904C22.8117 28.9973 23.2334 28.5757 23.2334 28.0546C23.2334 27.5335 22.8117 27.1119 22.2904 27.1119H13.8213C16.5195 25.4865 20.8474 22.9847 23.1422 22.7174C25.208 22.4782 26.8951 21.1864 27.656 19.2638C28.278 17.6934 28.1239 16.0213 27.2637 15.005V15.005Z" stroke="#492BA0" stroke-width="0.4" mask="url(#path-1-outside-1_314_9259)"/>
<mask id="path-2-outside-2_314_9259" maskUnits="userSpaceOnUse" x="15.4482" y="10.6211" width="8" height="10" fill="black">
<rect fill="white" x="15.4482" y="10.6211" width="8" height="10"/>
<path d="M22.3303 13.5329C22.1379 13.5176 20.7658 13.4411 19.6497 14.1141L18.1405 12.0159C17.8178 11.5685 17.2232 11.4891 16.8109 11.8406C16.3994 12.1924 16.3273 12.84 16.65 13.2892L18.3851 15.7019C17.8796 17.1791 18.2432 19.0948 18.3366 19.5201C18.4401 19.9935 18.8286 20.3119 19.2566 20.3107C19.3287 20.3107 19.4026 20.3019 19.4758 20.2836C19.9845 20.1517 20.2988 19.5956 20.1788 19.0414C19.9983 18.2055 19.8986 16.7195 20.2592 16.1874C20.619 15.6576 21.7072 15.5558 22.1918 15.59C22.7041 15.6376 23.1654 15.2061 23.2042 14.6379C23.2432 14.0698 22.8517 13.5754 22.3303 13.5329V13.5329Z"/>
</mask>
<path d="M22.3303 13.5329C22.1379 13.5176 20.7658 13.4411 19.6497 14.1141L18.1405 12.0159C17.8178 11.5685 17.2232 11.4891 16.8109 11.8406C16.3994 12.1924 16.3273 12.84 16.65 13.2892L18.3851 15.7019C17.8796 17.1791 18.2432 19.0948 18.3366 19.5201C18.4401 19.9935 18.8286 20.3119 19.2566 20.3107C19.3287 20.3107 19.4026 20.3019 19.4758 20.2836C19.9845 20.1517 20.2988 19.5956 20.1788 19.0414C19.9983 18.2055 19.8986 16.7195 20.2592 16.1874C20.619 15.6576 21.7072 15.5558 22.1918 15.59C22.7041 15.6376 23.1654 15.2061 23.2042 14.6379C23.2432 14.0698 22.8517 13.5754 22.3303 13.5329V13.5329Z" fill="#492BA0"/>
<path d="M22.3303 13.5329C22.1379 13.5176 20.7658 13.4411 19.6497 14.1141L18.1405 12.0159C17.8178 11.5685 17.2232 11.4891 16.8109 11.8406C16.3994 12.1924 16.3273 12.84 16.65 13.2892L18.3851 15.7019C17.8796 17.1791 18.2432 19.0948 18.3366 19.5201C18.4401 19.9935 18.8286 20.3119 19.2566 20.3107C19.3287 20.3107 19.4026 20.3019 19.4758 20.2836C19.9845 20.1517 20.2988 19.5956 20.1788 19.0414C19.9983 18.2055 19.8986 16.7195 20.2592 16.1874C20.619 15.6576 21.7072 15.5558 22.1918 15.59C22.7041 15.6376 23.1654 15.2061 23.2042 14.6379C23.2432 14.0698 22.8517 13.5754 22.3303 13.5329V13.5329Z" stroke="#492BA0" stroke-width="0.4" mask="url(#path-2-outside-2_314_9259)"/>
</svg>
