<svg width="50" height="50" viewBox="0 0 50 50" fill="none" xmlns="http://www.w3.org/2000/svg">
<circle cx="25" cy="25" r="24.5" stroke="#4094B0"/>
<path d="M14.7724 32.4996H15.4542V33.1815C15.4558 33.7235 15.6718 34.2428 16.0551 34.626C16.4383 35.0093 16.9577 35.2253 17.4996 35.2269H18.1815C18.1825 36.1307 18.5421 36.9972 19.1812 37.6363C19.8203 38.2754 20.6867 38.6349 21.5906 38.636H29.0906C29.9944 38.6349 30.8609 38.2754 31.4999 37.6363C32.139 36.9972 32.4986 36.1307 32.4996 35.2269V31.0133C32.8975 30.8726 33.2421 30.6123 33.4863 30.2681C33.7304 29.9239 33.8621 29.5126 33.8633 29.0906V26.3633C33.8621 25.9413 33.7304 25.53 33.4863 25.1857C33.2421 24.8415 32.8975 24.5812 32.4996 24.4406V18.5224C32.4996 17.8895 32.7511 17.2825 33.1986 16.835C33.6461 16.3874 34.2531 16.136 34.886 16.136C35.5186 16.1371 36.1249 16.3889 36.5722 16.8362C37.0195 17.2834 37.2713 17.8898 37.2724 18.5224V29.7724C37.2724 29.9532 37.3442 30.1266 37.4721 30.2545C37.5999 30.3824 37.7734 30.4542 37.9542 30.4542C38.135 30.4542 38.3084 30.3824 38.4363 30.2545C38.5642 30.1266 38.636 29.9532 38.636 29.7724V18.5224C38.6347 17.5282 38.2393 16.5751 37.5363 15.8721C36.8333 15.1691 35.8802 14.7736 34.886 14.7724C33.8918 14.7736 32.9387 15.1691 32.2358 15.8721C31.5328 16.5751 31.1373 17.5282 31.136 18.5224V24.4406C30.7381 24.5812 30.3935 24.8415 30.1494 25.1857C29.9052 25.53 29.7736 25.9413 29.7724 26.3633V29.0906C29.7736 29.5126 29.9052 29.9239 30.1494 30.2681C30.3935 30.6123 30.7381 30.8726 31.136 31.0133V35.2269C31.136 35.7694 30.9205 36.2897 30.5369 36.6733C30.1533 37.0569 29.633 37.2724 29.0906 37.2724H21.5906C21.0481 37.2724 20.5278 37.0569 20.1442 36.6733C19.7606 36.2897 19.5451 35.7694 19.5451 35.2269H20.2269C20.7689 35.2253 21.2882 35.0093 21.6715 34.626C22.0547 34.2428 22.2708 33.7235 22.2724 33.1815V32.4996H22.9542C23.8583 32.4996 24.7255 32.1405 25.3648 31.5011C26.0041 30.8618 26.3633 29.9947 26.3633 29.0906V14.7724C26.3633 13.8682 26.0041 13.0011 25.3648 12.3618C24.7255 11.7225 23.8583 11.3633 22.9542 11.3633H14.7724C13.8682 11.3633 13.0011 11.7225 12.3618 12.3618C11.7225 13.0011 11.3633 13.8682 11.3633 14.7724V29.0906C11.3633 29.9947 11.7225 30.8618 12.3618 31.5011C13.0011 32.1405 13.8682 32.4996 14.7724 32.4996ZM31.136 26.3633C31.136 26.1825 31.2078 26.009 31.3357 25.8812C31.4636 25.7533 31.637 25.6815 31.8178 25.6815C31.9987 25.6815 32.1721 25.7533 32.2999 25.8812C32.4278 26.009 32.4996 26.1825 32.4996 26.3633V29.0906C32.4996 29.2714 32.4278 29.4448 32.2999 29.5727C32.1721 29.7005 31.9987 29.7724 31.8178 29.7724C31.637 29.7724 31.4636 29.7005 31.3357 29.5727C31.2078 29.4448 31.136 29.2714 31.136 29.0906V26.3633ZM20.9087 33.1815C20.9087 33.3623 20.8369 33.5357 20.709 33.6636C20.5812 33.7914 20.4077 33.8633 20.2269 33.8633H17.4996C17.3188 33.8633 17.1454 33.7914 17.0175 33.6636C16.8897 33.5357 16.8178 33.3623 16.8178 33.1815V32.4996H20.9087V33.1815ZM22.9542 31.136H14.7724C14.2304 31.1344 13.7111 30.9184 13.3278 30.5351C12.9446 30.1519 12.7285 29.6325 12.7269 29.0906V16.8178H24.9996V18.8633H22.2724C22.0915 18.8633 21.9181 18.9351 21.7903 19.063C21.6624 19.1908 21.5906 19.3643 21.5906 19.5451C21.5906 19.7259 21.6624 19.8994 21.7903 20.0272C21.9181 20.1551 22.0915 20.2269 22.2724 20.2269H24.9996V21.5906H22.2724C22.0915 21.5906 21.9181 21.6624 21.7903 21.7903C21.6624 21.9181 21.5906 22.0915 21.5906 22.2724C21.5906 22.4532 21.6624 22.6266 21.7903 22.7545C21.9181 22.8824 22.0915 22.9542 22.2724 22.9542H24.9996V24.3178H22.2724C22.0915 24.3178 21.9181 24.3897 21.7903 24.5175C21.6624 24.6454 21.5906 24.8188 21.5906 24.9996C21.5906 25.1805 21.6624 25.3539 21.7903 25.4818C21.9181 25.6096 22.0915 25.6815 22.2724 25.6815H24.9996V27.0451H22.2724C22.0915 27.0451 21.9181 27.1169 21.7903 27.2448C21.6624 27.3727 21.5906 27.5461 21.5906 27.7269C21.5906 27.9077 21.6624 28.0812 21.7903 28.209C21.9181 28.3369 22.0915 28.4087 22.2724 28.4087H24.9996V29.0906C24.998 29.6325 24.782 30.1519 24.3988 30.5351C24.0155 30.9184 23.4962 31.1344 22.9542 31.136ZM14.7724 12.7269H22.9542C23.4962 12.7285 24.0155 12.9446 24.3988 13.3278C24.782 13.7111 24.998 14.2304 24.9996 14.7724V15.4542H12.7269V14.7724C12.7285 14.2304 12.9446 13.7111 13.3278 13.3278C13.7111 12.9446 14.2304 12.7285 14.7724 12.7269Z" fill="#4094B0" stroke="#4094B0" stroke-width="0.2"/>
</svg>
