<svg width="50" height="50" viewBox="0 0 50 50" fill="none" xmlns="http://www.w3.org/2000/svg">
<g clip-path="url(#clip0_118_739)">
<mask id="path-1-outside-1_118_739" maskUnits="userSpaceOnUse" x="-0.84375" y="-0.84375" width="52" height="52" fill="black">
<rect fill="white" x="-0.84375" y="-0.84375" width="52" height="52"/>
<path d="M43.3086 9.69922C42.7375 8.34687 41.6531 7.2625 40.3008 6.69141L47.3437 1.40625L46.4062 0.15625L38.275 6.25781C38.2219 6.25625 38.1695 6.25 38.1164 6.25C37.6422 6.25 37.1687 6.31016 36.7086 6.42891C33.2344 7.325 29.8969 8.6625 26.7687 10.4008L25.7766 1.47656C25.7328 1.08047 25.3984 0.78125 25 0.78125H15.625C15.3437 0.78125 15.0836 0.932812 14.9453 1.17734C14.8062 1.42187 14.8102 1.72266 14.9555 1.96406L18.9328 8.59375H14.8437C14.5523 8.59375 14.2852 8.75625 14.1508 9.01406C14.0164 9.27266 14.0367 9.58437 14.2039 9.82266L18.6953 16.2391C12.7055 21.7531 8.46641 28.8125 6.42891 36.7078C6.31016 37.168 6.25 37.6414 6.25 38.1156C6.25 38.1695 6.25625 38.2211 6.25781 38.2742L0.15625 46.4055L1.40625 47.3437L6.69141 40.3008C7.2625 41.6531 8.34687 42.7375 9.69922 43.3086L2.65625 48.5937L3.59375 49.8437L11.7242 43.7422C11.7773 43.7437 11.8297 43.75 11.8836 43.75C12.3578 43.75 12.8312 43.6898 13.2914 43.5711C16.9781 42.6187 20.4859 41.1805 23.7641 39.2945L22.7625 41.0117C22.6211 41.2539 22.6203 41.5516 22.7602 41.7945C22.9 42.0375 23.1578 42.1875 23.4375 42.1875H25.4789L23.4773 48.1906C23.3977 48.4289 23.4383 48.6914 23.5852 48.8945C23.732 49.0977 23.968 49.2187 24.2187 49.2187H32.0312C32.25 49.2187 32.4578 49.1273 32.6062 48.9664C32.7539 48.8062 32.8281 48.5906 32.8102 48.3727L32.0289 38.9977C31.9945 38.5922 31.6562 38.2812 31.25 38.2812H29.6875V35.1781C36.5422 29.4859 41.3422 21.9281 43.5711 13.2922C43.6898 12.8312 43.75 12.3578 43.75 11.8836C43.75 11.8297 43.7437 11.7781 43.7422 11.725L49.8437 3.59375L48.5937 2.65625L43.3086 9.69922ZM20.3125 10.1562C20.5937 10.1562 20.8539 10.0047 20.9922 9.76016C21.1312 9.51562 21.1273 9.21484 20.982 8.97344L17.0047 2.34375H24.3008L25.6516 14.4977L22.1227 13.3211C21.8391 13.2266 21.5266 13.3023 21.3172 13.5156C21.1078 13.7289 21.0391 14.0437 21.1391 14.325L23.0937 19.7984L16.3437 10.1562H20.3125ZM19.5992 17.5305L25.1414 25.4477C25.2922 25.6633 25.5336 25.7812 25.7812 25.7812C25.9023 25.7812 26.025 25.7531 26.1391 25.6945C26.4867 25.5148 26.6477 25.1062 26.5164 24.7375L23.15 15.3117L26.3148 16.3672C26.568 16.45 26.8461 16.4008 27.0531 16.2336C27.2602 16.0664 27.368 15.8047 27.3383 15.5398L26.9555 12.0937C30.132 10.2602 33.5398 8.86094 37.0984 7.94297C37.4312 7.85625 37.7734 7.8125 38.1164 7.8125C38.8078 7.8125 39.4492 8.00156 40.0195 8.30703L27.6164 18.9383L28.6336 20.125L41.2469 9.31406C41.3523 9.44219 41.4562 9.56953 41.5453 9.70937C34.232 23.3164 23.1398 34.2367 9.41953 41.3359C9.33828 41.2734 9.25937 41.2094 9.18359 41.1414L20.9375 25.4687L19.6875 24.5312L8.95703 38.8383L9.68984 36.9148C12 30.8516 15.4969 25.4516 20.0836 20.8648L18.9789 19.7602C14.2352 24.5039 10.6187 30.0883 8.22969 36.3586L7.93516 37.1312C7.9375 37.1203 7.93828 37.1094 7.94141 37.0992C9.88594 29.5641 13.9125 22.8195 19.5992 17.5305ZM30.5312 39.8437L31.182 47.6562H25.3023L27.3039 41.6531C27.3836 41.4148 27.343 41.1523 27.1961 40.9492C27.0492 40.7461 26.8133 40.625 26.5625 40.625H24.7977L28.125 34.9211V39.0625C28.125 39.4945 28.475 39.8437 28.9062 39.8437H30.5312ZM42.0578 12.9016C40.0219 20.793 35.7586 27.7523 29.6875 33.1266V32.0312C29.6875 31.6781 29.4508 31.3687 29.1102 31.2766C28.7695 31.1852 28.4094 31.3328 28.2312 31.6375L25.4484 36.4078C21.6117 38.9961 17.3922 40.8992 12.9008 42.0578C12.5687 42.1437 12.2266 42.1875 11.8836 42.1875C11.6687 42.1875 11.4625 42.1562 11.257 42.1242C24.2914 35.1133 34.9234 24.682 42.1773 11.7875C42.1789 11.8203 42.1875 11.8508 42.1875 11.8836C42.1875 12.2266 42.1437 12.5687 42.0578 12.9016Z"/>
</mask>
<path d="M43.3086 9.69922C42.7375 8.34687 41.6531 7.2625 40.3008 6.69141L47.3437 1.40625L46.4062 0.15625L38.275 6.25781C38.2219 6.25625 38.1695 6.25 38.1164 6.25C37.6422 6.25 37.1687 6.31016 36.7086 6.42891C33.2344 7.325 29.8969 8.6625 26.7687 10.4008L25.7766 1.47656C25.7328 1.08047 25.3984 0.78125 25 0.78125H15.625C15.3437 0.78125 15.0836 0.932812 14.9453 1.17734C14.8062 1.42187 14.8102 1.72266 14.9555 1.96406L18.9328 8.59375H14.8437C14.5523 8.59375 14.2852 8.75625 14.1508 9.01406C14.0164 9.27266 14.0367 9.58437 14.2039 9.82266L18.6953 16.2391C12.7055 21.7531 8.46641 28.8125 6.42891 36.7078C6.31016 37.168 6.25 37.6414 6.25 38.1156C6.25 38.1695 6.25625 38.2211 6.25781 38.2742L0.15625 46.4055L1.40625 47.3437L6.69141 40.3008C7.2625 41.6531 8.34687 42.7375 9.69922 43.3086L2.65625 48.5937L3.59375 49.8437L11.7242 43.7422C11.7773 43.7437 11.8297 43.75 11.8836 43.75C12.3578 43.75 12.8312 43.6898 13.2914 43.5711C16.9781 42.6187 20.4859 41.1805 23.7641 39.2945L22.7625 41.0117C22.6211 41.2539 22.6203 41.5516 22.7602 41.7945C22.9 42.0375 23.1578 42.1875 23.4375 42.1875H25.4789L23.4773 48.1906C23.3977 48.4289 23.4383 48.6914 23.5852 48.8945C23.732 49.0977 23.968 49.2187 24.2187 49.2187H32.0312C32.25 49.2187 32.4578 49.1273 32.6062 48.9664C32.7539 48.8062 32.8281 48.5906 32.8102 48.3727L32.0289 38.9977C31.9945 38.5922 31.6562 38.2812 31.25 38.2812H29.6875V35.1781C36.5422 29.4859 41.3422 21.9281 43.5711 13.2922C43.6898 12.8312 43.75 12.3578 43.75 11.8836C43.75 11.8297 43.7437 11.7781 43.7422 11.725L49.8437 3.59375L48.5937 2.65625L43.3086 9.69922ZM20.3125 10.1562C20.5937 10.1562 20.8539 10.0047 20.9922 9.76016C21.1312 9.51562 21.1273 9.21484 20.982 8.97344L17.0047 2.34375H24.3008L25.6516 14.4977L22.1227 13.3211C21.8391 13.2266 21.5266 13.3023 21.3172 13.5156C21.1078 13.7289 21.0391 14.0437 21.1391 14.325L23.0937 19.7984L16.3437 10.1562H20.3125ZM19.5992 17.5305L25.1414 25.4477C25.2922 25.6633 25.5336 25.7812 25.7812 25.7812C25.9023 25.7812 26.025 25.7531 26.1391 25.6945C26.4867 25.5148 26.6477 25.1062 26.5164 24.7375L23.15 15.3117L26.3148 16.3672C26.568 16.45 26.8461 16.4008 27.0531 16.2336C27.2602 16.0664 27.368 15.8047 27.3383 15.5398L26.9555 12.0937C30.132 10.2602 33.5398 8.86094 37.0984 7.94297C37.4312 7.85625 37.7734 7.8125 38.1164 7.8125C38.8078 7.8125 39.4492 8.00156 40.0195 8.30703L27.6164 18.9383L28.6336 20.125L41.2469 9.31406C41.3523 9.44219 41.4562 9.56953 41.5453 9.70937C34.232 23.3164 23.1398 34.2367 9.41953 41.3359C9.33828 41.2734 9.25937 41.2094 9.18359 41.1414L20.9375 25.4687L19.6875 24.5312L8.95703 38.8383L9.68984 36.9148C12 30.8516 15.4969 25.4516 20.0836 20.8648L18.9789 19.7602C14.2352 24.5039 10.6187 30.0883 8.22969 36.3586L7.93516 37.1312C7.9375 37.1203 7.93828 37.1094 7.94141 37.0992C9.88594 29.5641 13.9125 22.8195 19.5992 17.5305ZM30.5312 39.8437L31.182 47.6562H25.3023L27.3039 41.6531C27.3836 41.4148 27.343 41.1523 27.1961 40.9492C27.0492 40.7461 26.8133 40.625 26.5625 40.625H24.7977L28.125 34.9211V39.0625C28.125 39.4945 28.475 39.8437 28.9062 39.8437H30.5312ZM42.0578 12.9016C40.0219 20.793 35.7586 27.7523 29.6875 33.1266V32.0312C29.6875 31.6781 29.4508 31.3687 29.1102 31.2766C28.7695 31.1852 28.4094 31.3328 28.2312 31.6375L25.4484 36.4078C21.6117 38.9961 17.3922 40.8992 12.9008 42.0578C12.5687 42.1437 12.2266 42.1875 11.8836 42.1875C11.6687 42.1875 11.4625 42.1562 11.257 42.1242C24.2914 35.1133 34.9234 24.682 42.1773 11.7875C42.1789 11.8203 42.1875 11.8508 42.1875 11.8836C42.1875 12.2266 42.1437 12.5687 42.0578 12.9016Z" fill="white"/>
<path d="M43.3086 9.69922C42.7375 8.34687 41.6531 7.2625 40.3008 6.69141L47.3437 1.40625L46.4062 0.15625L38.275 6.25781C38.2219 6.25625 38.1695 6.25 38.1164 6.25C37.6422 6.25 37.1687 6.31016 36.7086 6.42891C33.2344 7.325 29.8969 8.6625 26.7687 10.4008L25.7766 1.47656C25.7328 1.08047 25.3984 0.78125 25 0.78125H15.625C15.3437 0.78125 15.0836 0.932812 14.9453 1.17734C14.8062 1.42187 14.8102 1.72266 14.9555 1.96406L18.9328 8.59375H14.8437C14.5523 8.59375 14.2852 8.75625 14.1508 9.01406C14.0164 9.27266 14.0367 9.58437 14.2039 9.82266L18.6953 16.2391C12.7055 21.7531 8.46641 28.8125 6.42891 36.7078C6.31016 37.168 6.25 37.6414 6.25 38.1156C6.25 38.1695 6.25625 38.2211 6.25781 38.2742L0.15625 46.4055L1.40625 47.3437L6.69141 40.3008C7.2625 41.6531 8.34687 42.7375 9.69922 43.3086L2.65625 48.5937L3.59375 49.8437L11.7242 43.7422C11.7773 43.7437 11.8297 43.75 11.8836 43.75C12.3578 43.75 12.8312 43.6898 13.2914 43.5711C16.9781 42.6187 20.4859 41.1805 23.7641 39.2945L22.7625 41.0117C22.6211 41.2539 22.6203 41.5516 22.7602 41.7945C22.9 42.0375 23.1578 42.1875 23.4375 42.1875H25.4789L23.4773 48.1906C23.3977 48.4289 23.4383 48.6914 23.5852 48.8945C23.732 49.0977 23.968 49.2187 24.2187 49.2187H32.0312C32.25 49.2187 32.4578 49.1273 32.6062 48.9664C32.7539 48.8062 32.8281 48.5906 32.8102 48.3727L32.0289 38.9977C31.9945 38.5922 31.6562 38.2812 31.25 38.2812H29.6875V35.1781C36.5422 29.4859 41.3422 21.9281 43.5711 13.2922C43.6898 12.8312 43.75 12.3578 43.75 11.8836C43.75 11.8297 43.7437 11.7781 43.7422 11.725L49.8437 3.59375L48.5937 2.65625L43.3086 9.69922ZM20.3125 10.1562C20.5937 10.1562 20.8539 10.0047 20.9922 9.76016C21.1312 9.51562 21.1273 9.21484 20.982 8.97344L17.0047 2.34375H24.3008L25.6516 14.4977L22.1227 13.3211C21.8391 13.2266 21.5266 13.3023 21.3172 13.5156C21.1078 13.7289 21.0391 14.0437 21.1391 14.325L23.0937 19.7984L16.3437 10.1562H20.3125ZM19.5992 17.5305L25.1414 25.4477C25.2922 25.6633 25.5336 25.7812 25.7812 25.7812C25.9023 25.7812 26.025 25.7531 26.1391 25.6945C26.4867 25.5148 26.6477 25.1062 26.5164 24.7375L23.15 15.3117L26.3148 16.3672C26.568 16.45 26.8461 16.4008 27.0531 16.2336C27.2602 16.0664 27.368 15.8047 27.3383 15.5398L26.9555 12.0937C30.132 10.2602 33.5398 8.86094 37.0984 7.94297C37.4312 7.85625 37.7734 7.8125 38.1164 7.8125C38.8078 7.8125 39.4492 8.00156 40.0195 8.30703L27.6164 18.9383L28.6336 20.125L41.2469 9.31406C41.3523 9.44219 41.4562 9.56953 41.5453 9.70937C34.232 23.3164 23.1398 34.2367 9.41953 41.3359C9.33828 41.2734 9.25937 41.2094 9.18359 41.1414L20.9375 25.4687L19.6875 24.5312L8.95703 38.8383L9.68984 36.9148C12 30.8516 15.4969 25.4516 20.0836 20.8648L18.9789 19.7602C14.2352 24.5039 10.6187 30.0883 8.22969 36.3586L7.93516 37.1312C7.9375 37.1203 7.93828 37.1094 7.94141 37.0992C9.88594 29.5641 13.9125 22.8195 19.5992 17.5305ZM30.5312 39.8437L31.182 47.6562H25.3023L27.3039 41.6531C27.3836 41.4148 27.343 41.1523 27.1961 40.9492C27.0492 40.7461 26.8133 40.625 26.5625 40.625H24.7977L28.125 34.9211V39.0625C28.125 39.4945 28.475 39.8437 28.9062 39.8437H30.5312ZM42.0578 12.9016C40.0219 20.793 35.7586 27.7523 29.6875 33.1266V32.0312C29.6875 31.6781 29.4508 31.3687 29.1102 31.2766C28.7695 31.1852 28.4094 31.3328 28.2312 31.6375L25.4484 36.4078C21.6117 38.9961 17.3922 40.8992 12.9008 42.0578C12.5687 42.1437 12.2266 42.1875 11.8836 42.1875C11.6687 42.1875 11.4625 42.1562 11.257 42.1242C24.2914 35.1133 34.9234 24.682 42.1773 11.7875C42.1789 11.8203 42.1875 11.8508 42.1875 11.8836C42.1875 12.2266 42.1437 12.5687 42.0578 12.9016Z" stroke="white" stroke-width="0.8" mask="url(#path-1-outside-1_118_739)"/>
</g>
<defs>
<clipPath id="clip0_118_739">
<rect width="50" height="50" fill="white"/>
</clipPath>
</defs>
</svg>
