<svg width="32" height="32" viewBox="0 0 32 32" fill="none" xmlns="http://www.w3.org/2000/svg">
<g clip-path="url(#clip0_36_5590)">
<path d="M30.6792 22.9986L27.5995 26.0784L23.9965 22.4754L26.9928 19.4791L14.0129 6.48763L10.271 6.56481L7.5917 3.88556L6.38658 5.09069L1.41683 0L0.0800781 1.305L5.06552 6.41181L3.97039 7.50688L6.64489 10.1814L6.52145 13.9691L19.5063 26.9656L22.6755 23.7964L26.2784 27.3993L22.9987 30.679L24.3197 32L32.0001 24.3196L30.6792 22.9986ZM22.6755 21.1545L21.1539 19.6329L22.8305 17.9563L24.3514 19.4786L22.6755 21.1545ZM7.5917 6.52756L8.57102 7.50688L7.5917 8.48619L6.61239 7.50688L7.5917 6.52756ZM8.51327 10.2066L10.2869 8.433L13.2546 8.37181L13.7371 8.85462L12.289 10.3027L13.61 11.6236L15.0574 10.1762L16.3792 11.4992L14.92 12.9584L16.2409 14.2794L17.6996 12.8208L19.006 14.1284L17.4911 15.6433L18.8121 16.9642L20.3264 15.4499L21.5102 16.6348L16.6657 21.4792L8.41502 13.2212L8.51327 10.2066ZM19.5069 24.3231L17.986 22.8008L19.833 20.9539L21.3545 22.4754L19.5069 24.3231Z" fill="#492BA0"/>
<path d="M9.07281 20.751V18.876H0.004375V20.751H1.59681L0 23.5478V32.0001H9.14106V23.5478L7.54425 20.7509H9.07281V20.751ZM1.875 30.1251V24.7341H7.26606V30.1251H1.875ZM6.58875 22.8591H2.55231L3.75594 20.751H5.38519L6.58875 22.8591Z" fill="#492BA0"/>
</g>
<defs>
<clipPath id="clip0_36_5590">
<rect width="32" height="32" fill="white"/>
</clipPath>
</defs>
</svg>
