<svg width="32" height="32" viewBox="0 0 32 32" fill="none" xmlns="http://www.w3.org/2000/svg">
<g clip-path="url(#clip0_36_5594)">
<path d="M3.8125 0V32H28.2053V0H3.8125ZM26.3306 5.04053H24.4524V1.875H26.3306V5.04053ZM11.3186 26.9595V30.125H9.44043V26.9595H11.3186ZM13.1936 26.9595H15.0715V30.125H13.1936V26.9595ZM16.9465 26.9595H18.8245V30.125H16.9465V26.9595ZM20.6995 26.9595H22.5774V30.125H20.6995V26.9595ZM5.6875 25.0845V6.91553H26.3303V25.0845H5.6875ZM20.6995 5.04053V1.875H22.5774V5.04053H20.6995ZM18.8245 5.04053H16.9465V1.875H18.8245V5.04053ZM15.0715 5.04053H13.1936V1.875H15.0715V5.04053ZM11.3186 5.04053H9.44043V1.875H11.3186V5.04053ZM7.56543 1.875V5.04053H5.6875V1.875H7.56543ZM5.6875 26.9595H7.56543V30.125H5.6875V26.9595ZM24.4524 30.125V26.9595H26.3306V30.125H24.4524Z" fill="#492BA0"/>
<path d="M9.56494 13.1855H22.4531V15.0605H9.56494V13.1855Z" fill="#492BA0"/>
<path d="M9.56494 16.9395H22.4531V18.8145H9.56494V16.9395Z" fill="#492BA0"/>
</g>
<defs>
<clipPath id="clip0_36_5594">
<rect width="32" height="32" fill="white"/>
</clipPath>
</defs>
</svg>
