<svg width="77" height="77" viewBox="0 0 77 77" fill="none" xmlns="http://www.w3.org/2000/svg">
<g clip-path="url(#clip0_305_8387)">
<path d="M76.1647 14.4484L62.6859 0.971439C62.4082 0.693715 62.0315 0.537598 61.6387 0.537598H17.6473C15.1971 0.537598 13.2037 2.53099 13.2037 4.98117V7.80492C5.92738 10.6592 0.761719 17.7513 0.761719 26.0276C0.761719 26.8455 1.425 27.5088 2.24291 27.5088H20.3269C21.1448 27.5088 21.8081 26.8455 21.8081 26.0276V7.94356C21.8081 7.12564 21.1448 6.46237 20.3269 6.46237C18.8994 6.46237 17.5076 6.61745 16.1661 6.90924V4.98117C16.1661 4.16444 16.8306 3.49998 17.6473 3.49998H60.1575V12.5353C60.1575 14.9854 62.1509 16.9788 64.6011 16.9788H73.6364V71.931C73.6364 72.7478 72.9719 73.4122 72.1552 73.4122H17.6473C16.8306 73.4122 16.1661 72.7478 16.1661 71.931V59.2421C16.1661 58.4242 15.5028 57.7609 14.6849 57.7609C13.867 57.7609 13.2037 58.4242 13.2037 59.2421V71.931C13.2037 74.3812 15.1971 76.3746 17.6473 76.3746H72.1552C74.6054 76.3746 76.5987 74.3812 76.5987 71.931V15.4957C76.5987 15.1029 76.4426 14.7261 76.1647 14.4484ZM18.8456 9.49037V24.5464H3.78957C4.49773 16.5705 10.8698 10.1985 18.8456 9.49037ZM64.6011 14.0164C63.7844 14.0164 63.1199 13.352 63.1199 12.5353V5.59439L71.5431 14.0164H64.6011Z" fill="#492BA0"/>
<path d="M15.7319 52.8134C15.4565 52.5377 15.0744 52.3794 14.6848 52.3794C14.2953 52.3794 13.9131 52.5377 13.6376 52.8134C13.3621 53.0889 13.2036 53.471 13.2036 53.8606C13.2036 54.2501 13.362 54.6323 13.6376 54.9076C13.9131 55.1833 14.2953 55.3418 14.6848 55.3418C15.0744 55.3418 15.4565 55.1833 15.7319 54.9076C16.0075 54.6323 16.166 54.2501 16.166 53.8606C16.166 53.471 16.0075 53.0889 15.7319 52.8134Z" fill="#492BA0"/>
<path d="M25.6324 11.7676C24.8145 11.7676 24.1513 12.4309 24.1513 13.2488V29.8515H7.54857C6.73066 29.8515 6.06738 30.5147 6.06738 31.3326C6.06738 42.1209 14.8442 50.8979 25.6324 50.8979C36.4207 50.8979 45.1977 42.1209 45.1977 31.3326C45.1977 20.5444 36.4207 11.7676 25.6324 11.7676ZM27.1136 14.7956C30.5811 15.1034 33.7451 16.4824 36.2727 18.5978L27.1136 27.7568V14.7956ZM25.6324 47.9355C16.9768 47.9355 9.84679 41.2777 9.09538 32.8138H25.6324C26.0413 32.8138 26.4113 32.6482 26.6794 32.3804C26.6795 32.3803 26.6797 32.3803 26.6799 32.38L38.3679 20.6922C40.7809 23.5756 42.2353 27.2875 42.2353 31.3326C42.2353 40.4874 34.7873 47.9355 25.6324 47.9355Z" fill="#492BA0"/>
<path d="M65.6488 47.2847C63.1987 47.2847 61.2053 49.2781 61.2053 51.7282C61.2053 52.3423 61.3306 52.9276 61.5568 53.4601L53.0232 61.9936C52.4368 61.7079 51.7785 61.5472 51.0835 61.5472C50.405 61.5472 49.7619 61.7007 49.1861 61.9736L43.5194 56.3069C43.7158 55.8057 43.8248 55.2607 43.8248 54.6905C43.8248 52.2403 41.8314 50.2469 39.3812 50.2469C36.931 50.2469 34.9377 52.2403 34.9377 54.6905C34.9377 55.3543 35.085 55.9842 35.3472 56.5504L29.912 61.9856C29.333 61.7087 28.6851 61.5533 28.0017 61.5533C25.5515 61.5533 23.5581 63.5467 23.5581 65.9969C23.5581 68.4471 25.5515 70.4404 28.0017 70.4404C30.4519 70.4404 32.4453 68.4471 32.4453 65.9969C32.4453 65.31 32.2885 64.6592 32.0092 64.0781L37.4141 58.6733C38.0076 58.9677 38.6753 59.1341 39.3815 59.1341C40.1792 59.1341 40.9276 58.9218 41.5753 58.5524L47.0822 64.0593C46.799 64.6436 46.64 65.2989 46.64 65.9908C46.64 68.441 48.6334 70.4344 51.0835 70.4344C53.5337 70.4344 55.5271 68.441 55.5271 65.9908C55.5271 65.3157 55.3751 64.6755 55.1045 64.102L63.5584 55.6481C64.1819 55.9819 64.8936 56.1718 65.6488 56.1718C68.099 56.1718 70.0924 54.1784 70.0924 51.7282C70.0924 49.2781 68.099 47.2847 65.6488 47.2847ZM28.0015 67.4782C27.1848 67.4782 26.5203 66.8137 26.5203 65.997C26.5203 65.1803 27.1848 64.5158 28.0015 64.5158C28.3992 64.5158 28.7599 64.6742 29.0262 64.9301C29.0321 64.9363 29.0373 64.943 29.0434 64.9491C29.0505 64.9562 29.0582 64.9621 29.0655 64.9689C29.3232 65.2355 29.4827 65.5978 29.4827 65.997C29.4827 66.8136 28.8183 67.4782 28.0015 67.4782ZM39.3812 56.1717C38.5645 56.1717 37.9 55.5072 37.9 54.6905C37.9 53.8737 38.5645 53.2093 39.3812 53.2093C40.198 53.2093 40.8624 53.8737 40.8624 54.6905C40.8624 55.5072 40.198 56.1717 39.3812 56.1717ZM51.0832 67.472C50.2665 67.472 49.6021 66.8075 49.6021 65.9908C49.6021 65.1741 50.2665 64.5096 51.0832 64.5096C51.9 64.5096 52.5644 65.1741 52.5644 65.9908C52.5644 66.8075 51.9 67.472 51.0832 67.472ZM65.6485 53.2093C64.8318 53.2093 64.1674 52.5448 64.1674 51.7281C64.1674 50.9114 64.832 50.2469 65.6485 50.2469C66.4653 50.2469 67.1297 50.9114 67.1297 51.7281C67.1297 52.5448 66.4653 53.2093 65.6485 53.2093Z" fill="#F1CB14"/>
<path d="M58.2451 35.3457H50.4275C49.6096 35.3457 48.9463 36.009 48.9463 36.8269C48.9463 37.6448 49.6094 38.3081 50.4275 38.3081H58.2451C59.063 38.3081 59.7263 37.6448 59.7263 36.8269C59.7263 36.009 59.063 35.3457 58.2451 35.3457Z" fill="#492BA0"/>
<path d="M66.0361 35.7797C65.7607 35.5042 65.3786 35.3457 64.989 35.3457C64.5995 35.3457 64.2173 35.504 63.9418 35.7797C63.6663 36.0552 63.5078 36.4373 63.5078 36.8269C63.5078 37.2164 63.6662 37.5986 63.9418 37.8739C64.2173 38.1495 64.598 38.3081 64.989 38.3081C65.3786 38.3081 65.7607 38.1496 66.0361 37.8739C66.3116 37.5986 66.4702 37.2164 66.4702 36.8269C66.4702 36.4373 66.3117 36.0552 66.0361 35.7797Z" fill="#492BA0"/>
<path d="M68.5208 21.126H50.4275C49.6096 21.126 48.9463 21.7893 48.9463 22.6072C48.9463 23.4251 49.6094 24.0884 50.4275 24.0884H68.5208C69.3387 24.0884 70.002 23.4251 70.002 22.6072C70.002 21.7893 69.3387 21.126 68.5208 21.126Z" fill="#492BA0"/>
<path d="M68.5208 28.2358H50.4275C49.6096 28.2358 48.9463 28.8991 48.9463 29.717C48.9463 30.5349 49.6094 31.1982 50.4275 31.1982H68.5208C69.3387 31.1982 70.002 30.5349 70.002 29.717C70.002 28.8991 69.3387 28.2358 68.5208 28.2358Z" fill="#492BA0"/>
</g>
<defs>
<clipPath id="clip0_305_8387">
<rect width="76.2383" height="76.2383" fill="white" transform="translate(0.761719 0.761719)"/>
</clipPath>
</defs>
</svg>
