<svg width="64" height="32" viewBox="0 0 64 32" fill="none" xmlns="http://www.w3.org/2000/svg">
<path d="M48 0C44.0368 0 40.8125 3.22431 40.8125 7.1875V24.8125C40.8125 28.7757 44.0368 32 48 32C51.9632 32 55.1875 28.7757 55.1875 24.8125V7.1875C55.1875 3.22431 51.9632 0 48 0ZM53.3125 16H42.6875V7.1875C42.6875 4.25819 45.0707 1.875 48 1.875C50.9293 1.875 53.3125 4.25819 53.3125 7.1875V16Z" fill="#492BA0"/>
<path d="M16 0C12.0368 0 8.8125 3.22431 8.8125 7.1875V24.8125C8.8125 28.7757 12.0368 32 16 32C19.9632 32 23.1875 28.7757 23.1875 24.8125V7.1875C23.1875 3.22431 19.9632 0 16 0ZM21.3125 16H10.6875V7.1875C10.6875 4.25819 13.0707 1.875 16 1.875C18.9293 1.875 21.3125 4.25819 21.3125 7.1875V16Z" fill="#492BA0"/>
</svg>
