<svg width="77" height="77" viewBox="0 0 77 77" fill="none" xmlns="http://www.w3.org/2000/svg">
<g clip-path="url(#clip0_482_21756)">
<path d="M18.1487 59.6377H20.6928V62.1818C20.6928 62.5191 20.8268 62.8427 21.0654 63.0812C21.3039 63.3198 21.6275 63.4538 21.9648 63.4538H27.0529C27.3903 63.4538 27.7138 63.3198 27.9524 63.0812C28.1909 62.8427 28.325 62.5191 28.325 62.1818V59.6377H30.869C31.2064 59.6377 31.5299 59.5037 31.7685 59.2651C32.007 59.0266 32.141 58.703 32.141 58.3657V53.2776C32.141 52.9402 32.007 52.6167 31.7685 52.3781C31.5299 52.1396 31.2064 52.0055 30.869 52.0055H28.325V49.4615C28.325 49.1241 28.1909 48.8006 27.9524 48.562C27.7138 48.3235 27.3903 48.1895 27.0529 48.1895H21.9648C21.6275 48.1895 21.3039 48.3235 21.0654 48.562C20.8268 48.8006 20.6928 49.1241 20.6928 49.4615V52.0055H18.1487C17.8114 52.0055 17.4878 52.1396 17.2493 52.3781C17.0107 52.6167 16.8767 52.9402 16.8767 53.2776V58.3657C16.8767 58.703 17.0107 59.0266 17.2493 59.2651C17.4878 59.5037 17.8114 59.6377 18.1487 59.6377ZM19.4208 54.5496H21.9648C22.3022 54.5496 22.6257 54.4156 22.8643 54.177C23.1028 53.9385 23.2368 53.6149 23.2368 53.2776V50.7335H25.7809V53.2776C25.7809 53.6149 25.9149 53.9385 26.1535 54.177C26.392 54.4156 26.7156 54.5496 27.0529 54.5496H29.597V57.0936H27.0529C26.7156 57.0936 26.392 57.2277 26.1535 57.4662C25.9149 57.7048 25.7809 58.0283 25.7809 58.3657V60.9097H23.2368V58.3657C23.2368 58.0283 23.1028 57.7048 22.8643 57.4662C22.6257 57.2277 22.3022 57.0936 21.9648 57.0936H19.4208V54.5496Z" fill="#F1CB14"/>
<path d="M32.1409 32.9254V30.3813H33.413C33.7503 30.3813 34.0739 30.2473 34.3124 30.0087C34.551 29.7702 34.685 29.4466 34.685 29.1093V24.0212C34.682 23.01 34.2789 22.0411 33.5639 21.3261C32.8489 20.6111 31.8801 20.2081 30.8689 20.2051H18.1486C17.1375 20.2081 16.1686 20.6111 15.4536 21.3261C14.7386 22.0411 14.3356 23.01 14.3325 24.0212V29.1093C14.3325 29.4466 14.4666 29.7702 14.7051 30.0087C14.9437 30.2473 15.2672 30.3813 15.6046 30.3813H16.8766V32.9254C14.5159 32.928 12.2526 33.867 10.5834 35.5363C8.91409 37.2056 7.97511 39.4688 7.97241 41.8295V72.3582C7.97543 73.3694 8.37845 74.3382 9.09345 75.0532C9.80845 75.7682 10.7773 76.1713 11.7885 76.1743H37.229C38.2402 76.1713 39.2091 75.7682 39.9241 75.0532C40.6391 74.3382 41.0421 73.3694 41.0451 72.3582V41.8295C41.0424 39.4688 40.1035 37.2056 38.4342 35.5363C36.7649 33.867 34.5016 32.928 32.1409 32.9254ZM16.8766 24.0212C16.8766 23.6838 17.0106 23.3603 17.2492 23.1217C17.4877 22.8831 17.8113 22.7491 18.1486 22.7491H30.8689C31.2063 22.7491 31.5298 22.8831 31.7684 23.1217C32.0069 23.3603 32.1409 23.6838 32.1409 24.0212V27.8372H16.8766V24.0212ZM38.5011 72.3582C38.5011 72.6956 38.3671 73.0191 38.1285 73.2577C37.89 73.4962 37.5664 73.6302 37.229 73.6302H11.7885C11.4511 73.6302 11.1276 73.4962 10.889 73.2577C10.6505 73.0191 10.5165 72.6956 10.5165 72.3582V68.5421H38.5011V72.3582ZM38.5011 65.9981H10.5165V45.6456H38.5011V65.9981ZM38.5011 43.1016H10.5165V41.8295C10.5165 40.1427 11.1866 38.525 12.3793 37.3322C13.5721 36.1395 15.1898 35.4694 16.8766 35.4694C17.5507 35.4674 18.1966 35.1987 18.6733 34.722C19.15 34.2454 19.4186 33.5995 19.4207 32.9254V30.3813H29.5969V32.9254C29.5989 33.5995 29.8676 34.2454 30.3442 34.722C30.8209 35.1987 31.4668 35.4674 32.1409 35.4694C33.8277 35.4694 35.4455 36.1395 36.6382 37.3322C37.831 38.525 38.5011 40.1427 38.5011 41.8295V43.1016Z" fill="#492BA0"/>
<path d="M65.2135 63.0521C66.1084 63.0452 66.9725 62.7239 67.6545 62.1445C68.3366 61.5651 68.7933 60.7644 68.9449 59.8824C69.0964 59.0004 68.9332 58.0931 68.4836 57.3193C68.0341 56.5454 67.3268 55.9542 66.4855 55.6489V18.5312C66.4825 17.52 66.0795 16.5511 65.3645 15.8361C64.6495 15.1211 63.6806 14.7181 62.6695 14.7151H61.3974V13.4431C61.3944 12.4319 60.9914 11.463 60.2764 10.748C59.5614 10.033 58.5925 9.62999 57.5814 9.62697V1.5C57.5814 1.16264 57.4473 0.839092 57.2088 0.600541C56.9702 0.361989 56.6467 0.227972 56.3093 0.227972C55.972 0.227972 55.6484 0.361989 55.4099 0.600541C55.1713 0.839092 55.0373 1.16264 55.0373 1.5V9.62697C54.0261 9.62999 53.0573 10.033 52.3423 10.748C51.6273 11.463 51.2242 12.4319 51.2212 13.4431V14.7151H49.9492C48.938 14.7181 47.9692 15.1211 47.2541 15.8361C46.5391 16.5511 46.1361 17.52 46.1331 18.5312V55.6489C45.2918 55.9542 44.5846 56.5454 44.135 57.3193C43.6855 58.0931 43.5222 59.0004 43.6738 59.8824C43.8253 60.7644 44.2821 61.5651 44.9641 62.1445C45.6462 62.7239 46.5102 63.0452 47.4051 63.0521H51.2212V68.1402H49.9492C48.9371 68.1402 47.9665 68.5423 47.2508 69.2579C46.5352 69.9736 46.1331 70.9442 46.1331 71.9563C46.1331 72.9684 46.5352 73.939 47.2508 74.6547C47.9665 75.3703 48.9371 75.7724 49.9492 75.7724H62.6695C63.6816 75.7724 64.6522 75.3703 65.3678 74.6547C66.0835 73.939 66.4855 72.9684 66.4855 71.9563C66.4855 70.9442 66.0835 69.9736 65.3678 69.2579C64.6522 68.5423 63.6816 68.1402 62.6695 68.1402H61.3974V63.0521H65.2135ZM53.7653 13.4431C53.7653 13.1057 53.8993 12.7821 54.1378 12.5436C54.3764 12.305 54.6999 12.171 55.0373 12.171H57.5814C57.9187 12.171 58.2423 12.305 58.4808 12.5436C58.7194 12.7821 58.8534 13.1057 58.8534 13.4431V14.7151H53.7653V13.4431ZM48.6772 18.5312C48.6772 18.1938 48.8112 17.8703 49.0497 17.6317C49.2883 17.3932 49.6118 17.2591 49.9492 17.2591H62.6695C63.0068 17.2591 63.3304 17.3932 63.5689 17.6317C63.8075 17.8703 63.9415 18.1938 63.9415 18.5312V19.8032H60.1254C59.788 19.8032 59.4645 19.9372 59.226 20.1758C58.9874 20.4143 58.8534 20.7379 58.8534 21.0752C58.8534 21.4126 58.9874 21.7361 59.226 21.9747C59.4645 22.2132 59.788 22.3472 60.1254 22.3472H63.9415V24.8913H57.5814C57.244 24.8913 56.9204 25.0253 56.6819 25.2639C56.4433 25.5024 56.3093 25.826 56.3093 26.1633C56.3093 26.5007 56.4433 26.8242 56.6819 27.0628C56.9204 27.3013 57.244 27.4354 57.5814 27.4354H63.9415V29.9794H60.1254C59.788 29.9794 59.4645 30.1134 59.226 30.352C58.9874 30.5905 58.8534 30.9141 58.8534 31.2514C58.8534 31.5888 58.9874 31.9123 59.226 32.1509C59.4645 32.3895 59.788 32.5235 60.1254 32.5235H63.9415V35.0675H57.5814C57.244 35.0675 56.9204 35.2015 56.6819 35.4401C56.4433 35.6786 56.3093 36.0022 56.3093 36.3396C56.3093 36.6769 56.4433 37.0005 56.6819 37.239C56.9204 37.4776 57.244 37.6116 57.5814 37.6116H63.9415V40.1556H60.1254C59.788 40.1556 59.4645 40.2896 59.226 40.5282C58.9874 40.7668 58.8534 41.0903 58.8534 41.4277C58.8534 41.765 58.9874 42.0886 59.226 42.3271C59.4645 42.5657 59.788 42.6997 60.1254 42.6997H63.9415V45.2437H57.5814C57.244 45.2437 56.9204 45.3778 56.6819 45.6163C56.4433 45.8549 56.3093 46.1784 56.3093 46.5158C56.3093 46.8531 56.4433 47.1767 56.6819 47.4152C56.9204 47.6538 57.244 47.7878 57.5814 47.7878H63.9415V55.42H48.6772V18.5312ZM62.6695 70.6843C63.0068 70.6843 63.3304 70.8183 63.5689 71.0569C63.8075 71.2954 63.9415 71.619 63.9415 71.9563C63.9415 72.2937 63.8075 72.6172 63.5689 72.8558C63.3304 73.0943 63.0068 73.2283 62.6695 73.2283H49.9492C49.6118 73.2283 49.2883 73.0943 49.0497 72.8558C48.8112 72.6172 48.6772 72.2937 48.6772 71.9563C48.6772 71.619 48.8112 71.2954 49.0497 71.0569C49.2883 70.8183 49.6118 70.6843 49.9492 70.6843H62.6695ZM53.7653 68.1402V63.0521H58.8534V68.1402H53.7653ZM47.4051 60.5081C47.0678 60.5081 46.7442 60.3741 46.5057 60.1355C46.2671 59.897 46.1331 59.5734 46.1331 59.236C46.1331 58.8987 46.2671 58.5751 46.5057 58.3366C46.7442 58.098 47.0678 57.964 47.4051 57.964H65.2135C65.5509 57.964 65.8744 58.098 66.113 58.3366C66.3515 58.5751 66.4855 58.8987 66.4855 59.236C66.4855 59.5734 66.3515 59.897 66.113 60.1355C65.8744 60.3741 65.5509 60.5081 65.2135 60.5081H47.4051Z" fill="#492BA0"/>
</g>
<defs>
<clipPath id="clip0_482_21756">
<rect width="76.2383" height="76.2383" fill="white"/>
</clipPath>
</defs>
</svg>
