<svg width="50" height="50" viewBox="0 0 50 50" fill="none" xmlns="http://www.w3.org/2000/svg">
<circle cx="25" cy="25" r="24.5" stroke="#4094B0"/>
<path d="M24.9996 11.3633C28.6162 11.3633 32.0847 12.8 34.642 15.3573C37.1993 17.9146 38.636 21.3831 38.636 24.9996C38.636 28.6162 37.1993 32.0847 34.642 34.642C32.0847 37.1993 28.6162 38.636 24.9996 38.636C21.3831 38.636 17.9146 37.1993 15.3573 34.642C12.8 32.0847 11.3633 28.6162 11.3633 24.9996C11.3633 21.3831 12.8 17.9146 15.3573 15.3573C17.9146 12.8 21.3831 11.3633 24.9996 11.3633ZM24.9996 13.7697C22.0213 13.7697 19.1649 14.9529 17.0589 17.0589C14.9529 19.1649 13.7697 22.0213 13.7697 24.9996C13.7697 27.978 14.9529 30.8344 17.0589 32.9404C19.1649 35.0464 22.0213 36.2296 24.9996 36.2296C27.978 36.2296 30.8344 35.0464 32.9404 32.9404C35.0464 30.8344 36.2296 27.978 36.2296 24.9996C36.2296 22.0213 35.0464 19.1649 32.9404 17.0589C30.8344 14.9529 27.978 13.7697 24.9996 13.7697ZM24.9996 16.1761C25.2904 16.1761 25.5713 16.2814 25.7904 16.4725C26.0096 16.6636 26.1521 16.9276 26.1916 17.2157L26.2029 17.3793V25.4007C26.2028 25.7056 26.087 25.999 25.8788 26.2218C25.6707 26.4445 25.3858 26.58 25.0817 26.6007C24.7775 26.6215 24.4768 26.5261 24.2403 26.3337C24.0039 26.1413 23.8492 25.8663 23.8077 25.5643L23.7964 25.4007V17.3793C23.7964 17.0602 23.9232 16.7542 24.1488 16.5285C24.3745 16.3029 24.6805 16.1761 24.9996 16.1761Z" fill="#4094B0"/>
<rect x="28.0742" y="22.2715" width="2.37461" height="5.34287" rx="1.18731" transform="rotate(56.8482 28.0742 22.2715)" fill="#4094B0"/>
</svg>
