<svg width="72" height="72" viewBox="0 0 72 72" fill="none" xmlns="http://www.w3.org/2000/svg">
<path d="M24.75 25.4717H16.875V17.5967C16.875 17.2983 16.7565 17.0122 16.5455 16.8012C16.3345 16.5902 16.0484 16.4717 15.75 16.4717C13.7475 16.4717 11.7899 17.0655 10.1249 18.178C8.45981 19.2906 7.16206 20.8719 6.39572 22.722C5.62939 24.5721 5.42888 26.6079 5.81955 28.572C6.21023 30.536 7.17454 32.3401 8.59055 33.7561C10.0066 35.1721 11.8107 36.1365 13.7747 36.5271C15.7388 36.9178 17.7746 36.7173 19.6247 35.951C21.4748 35.1846 23.0561 33.8869 24.1686 32.2218C25.2812 30.5568 25.875 28.5992 25.875 26.5967C25.875 26.2983 25.7565 26.0122 25.5455 25.8012C25.3345 25.5902 25.0484 25.4717 24.75 25.4717ZM14.625 18.8016V26.1309L9.45 31.3059C8.62858 30.2141 8.10604 28.927 7.93393 27.5715C7.76182 26.2161 7.9461 24.8392 8.46858 23.5767C8.99106 22.3143 9.83369 21.2098 10.9133 20.3724C11.9929 19.535 13.2722 18.9936 14.625 18.8016ZM15.75 34.4717C14.0516 34.4716 12.3994 33.9188 11.043 32.8967L16.218 27.7217H23.5474C23.2743 29.5954 22.3363 31.3083 20.9047 32.5476C19.4732 33.7869 17.6435 34.4699 15.75 34.4717Z" fill="#F1CB14"/>
<path d="M20.25 23.2217H29.25C29.5484 23.2217 29.8345 23.1032 30.0455 22.8922C30.2565 22.6812 30.375 22.395 30.375 22.0967C30.3717 19.4124 29.3039 16.8389 27.4058 14.9408C25.5077 13.0427 22.9343 11.975 20.25 11.9717C19.9516 11.9717 19.6655 12.0902 19.4545 12.3012C19.2435 12.5122 19.125 12.7983 19.125 13.0967V22.0967C19.125 22.395 19.2435 22.6812 19.4545 22.8922C19.6655 23.1032 19.9516 23.2217 20.25 23.2217ZM21.375 14.3016C23.0566 14.5474 24.614 15.3293 25.8157 16.531C27.0174 17.7327 27.7993 19.2901 28.0451 20.9717H21.375V14.3016Z" fill="#F1CB14"/>
<path d="M43.875 28.8467C40.9825 28.8467 38.1549 29.7044 35.7498 31.3114C33.3447 32.9185 31.4702 35.2026 30.3633 37.8749C29.2563 40.5473 28.9667 43.4879 29.531 46.3249C30.0953 49.1618 31.4882 51.7678 33.5336 53.8131C35.5789 55.8585 38.1848 57.2514 41.0218 57.8157C43.8588 58.38 46.7994 58.0903 49.4718 56.9834C52.1441 55.8765 54.4282 54.002 56.0352 51.5969C57.6423 49.1918 58.5 46.3642 58.5 43.4717C58.4955 39.5943 56.9533 35.8769 54.2115 33.1352C51.4698 30.3934 47.7524 28.8511 43.875 28.8467ZM38.25 38.9717V32.4624C38.9692 32.094 39.7228 31.7971 40.5 31.5759V38.9717H38.25ZM51.75 41.2217V43.4717H36V41.2217H51.75ZM47.25 38.9717V31.5759C48.0272 31.7971 48.7808 32.094 49.5 32.4624V38.9717H47.25ZM45 31.1541V38.9717H42.75V31.1541C43.1213 31.1203 43.4948 31.0967 43.875 31.0967C44.2553 31.0967 44.6288 31.1203 45 31.1541ZM36 33.9328V38.9717H34.875C34.5766 38.9717 34.2905 39.0902 34.0795 39.3012C33.8685 39.5122 33.75 39.7983 33.75 40.0967V44.5967C33.75 44.895 33.8685 45.1812 34.0795 45.3922C34.2905 45.6032 34.5766 45.7217 34.875 45.7217H52.875C53.1734 45.7217 53.4595 45.6032 53.6705 45.3922C53.8815 45.1812 54 44.895 54 44.5967V40.0967C54 39.7983 53.8815 39.5122 53.6705 39.3012C53.4595 39.0902 53.1734 38.9717 52.875 38.9717H51.75V33.9328C53.7641 35.5867 55.2016 37.8369 55.8557 40.3596C56.5099 42.8823 56.347 45.5474 55.3905 47.9717H32.3595C31.403 45.5474 31.2401 42.8823 31.8943 40.3596C32.5484 37.8369 33.986 35.5867 36 33.9328ZM43.875 55.8467C41.8167 55.8445 39.7915 55.329 37.9827 54.3468C36.1739 53.3646 34.6387 51.9468 33.516 50.2217H54.234C53.1113 51.9468 51.5761 53.3646 49.7673 54.3468C47.9585 55.329 45.9333 55.8445 43.875 55.8467Z" fill="#F1CB14"/>
<path d="M69.3799 61.7608L64.5131 56.8941C64.7381 56.4704 64.8218 55.9859 64.752 55.5113C64.6821 55.0367 64.4625 54.5969 64.125 54.2559L61.2619 51.3928C62.6408 48.3952 63.2151 45.09 62.9281 41.8029C62.641 38.5158 61.5026 35.3602 59.625 32.6469V4.09668C59.625 3.20157 59.2694 2.34313 58.6365 1.71019C58.0035 1.07726 57.1451 0.72168 56.25 0.72168H4.5C3.60489 0.72168 2.74645 1.07726 2.11351 1.71019C1.48058 2.34313 1.125 3.20157 1.125 4.09668V46.8467C1.125 47.7418 1.48058 48.6002 2.11351 49.2332C2.74645 49.8661 3.60489 50.2217 4.5 50.2217H26.0033C26.9206 52.6737 28.3336 54.9103 30.1539 56.7919C31.9741 58.6735 34.1627 60.1597 36.583 61.1578C39.0032 62.1559 41.6032 62.6445 44.2207 62.593C46.8382 62.5415 49.417 61.9511 51.7961 60.8586L54.6592 63.7217C54.9975 64.0636 55.4377 64.2863 55.9135 64.3563C56.3893 64.4263 56.875 64.3398 57.2974 64.1098L62.1641 68.9766C63.121 69.9334 64.4188 70.471 65.772 70.471C67.1252 70.471 68.423 69.9334 69.3799 68.9766C70.3367 68.0197 70.8743 66.7219 70.8743 65.3687C70.8743 64.0155 70.3367 62.7177 69.3799 61.7608ZM4.5 2.97168H56.25C56.5484 2.97168 56.8345 3.09021 57.0455 3.30118C57.2565 3.51216 57.375 3.79831 57.375 4.09668V7.47168H3.375V4.09668C3.375 3.79831 3.49353 3.51216 3.7045 3.30118C3.91548 3.09021 4.20163 2.97168 4.5 2.97168ZM4.5 47.9717C4.20163 47.9717 3.91548 47.8532 3.7045 47.6422C3.49353 47.4312 3.375 47.1451 3.375 46.8467V9.72168H57.375V29.9391C55.7469 28.3211 53.8417 27.0085 51.75 26.0634V13.0967C51.75 12.7983 51.6315 12.5122 51.4205 12.3012C51.2095 12.0902 50.9234 11.9717 50.625 11.9717H46.125C45.8266 11.9717 45.5405 12.0902 45.3295 12.3012C45.1185 12.5122 45 12.7983 45 13.0967V24.4041C44.6254 24.3816 44.2552 24.3467 43.875 24.3467C43.4948 24.3467 43.1246 24.3816 42.75 24.4041V19.8467C42.75 19.5483 42.6315 19.2622 42.4205 19.0512C42.2095 18.8402 41.9234 18.7217 41.625 18.7217H37.125C36.8266 18.7217 36.5405 18.8402 36.3295 19.0512C36.1185 19.2622 36 19.5483 36 19.8467V26.0634C31.9314 27.8812 28.6315 31.0717 26.6778 35.0767C24.724 39.0818 24.2407 43.6463 25.3125 47.9717H4.5ZM49.5 25.1938C48.7615 24.9711 48.0101 24.7938 47.25 24.6628V14.2217H49.5V25.1938ZM40.5 24.6628C39.7399 24.7938 38.9885 24.9711 38.25 25.1938V20.9717H40.5V24.6628ZM27 43.4717C27 40.1341 27.9897 36.8715 29.844 34.0964C31.6982 31.3214 34.3337 29.1584 37.4172 27.8812C40.5007 26.604 43.8937 26.2698 47.1671 26.9209C50.4406 27.5721 53.4474 29.1792 55.8074 31.5393C58.1674 33.8993 59.7746 36.9061 60.4258 40.1795C61.0769 43.453 60.7427 46.846 59.4655 49.9295C58.1882 53.013 56.0253 55.6485 53.2502 57.5027C50.4752 59.357 47.2126 60.3467 43.875 60.3467C39.401 60.3416 35.1117 58.5621 31.9482 55.3985C28.7846 52.2349 27.0051 47.9457 27 43.4717ZM53.8672 59.7482C56.4238 58.1726 58.576 56.0205 60.1515 53.4639L62.5342 55.8467L56.25 62.1309L53.8672 59.7482ZM65.772 68.2217C65.3972 68.2226 65.026 68.1492 64.6797 68.0057C64.3335 67.8623 64.0192 67.6515 63.7549 67.3858L58.9658 62.5967L63 58.5624L67.7891 63.3516C68.188 63.7506 68.4597 64.2589 68.5697 64.8122C68.6797 65.3656 68.6233 65.9392 68.4074 66.4604C68.1915 66.9817 67.8259 67.4272 67.3568 67.7407C66.8877 68.0542 66.3362 68.2216 65.772 68.2217Z" fill="#492BA0"/>
<path d="M20.25 38.9717H6.75C6.45163 38.9717 6.16548 39.0902 5.95451 39.3012C5.74353 39.5122 5.625 39.7983 5.625 40.0967V44.5967C5.625 44.895 5.74353 45.1812 5.95451 45.3922C6.16548 45.6032 6.45163 45.7217 6.75 45.7217H20.25C20.5484 45.7217 20.8345 45.6032 21.0455 45.3922C21.2565 45.1812 21.375 44.895 21.375 44.5967V40.0967C21.375 39.7983 21.2565 39.5122 21.0455 39.3012C20.8345 39.0902 20.5484 38.9717 20.25 38.9717ZM19.125 43.4717H7.875V41.2217H19.125V43.4717Z" fill="#F1CB14"/>
</svg>
