<svg width="52" height="51" viewBox="0 0 52 51" fill="none" xmlns="http://www.w3.org/2000/svg">
<path d="M32.0586 29.7665C29.607 29.6626 27.5502 28.8315 26.0543 26.8994C25.7634 26.5254 25.5764 25.9852 25.5349 25.4866C25.4726 24.6763 25.9504 24.0946 26.6983 23.8037C27.5709 23.4506 28.3189 23.7206 28.9214 24.427C29.9186 25.6113 31.1652 26.1307 32.7026 25.7982C34.3855 25.4243 35.5074 24.0115 35.5282 22.2871C35.5282 22.017 35.5074 21.7261 35.5074 21.456C35.4866 20.2926 36.1515 19.4615 37.211 19.3577C38.2706 19.2538 39.1432 20.0225 39.2886 21.2275C39.6211 24.0323 38.7277 26.3592 36.5046 28.1044C35.8814 28.5822 35.819 29.0393 35.9852 29.6834C36.6501 32.1349 38.8108 33.9425 41.4701 34.2333C43.8594 34.4826 46.3733 33.0699 47.516 30.8053C48.6794 28.4991 48.2639 25.7982 46.4148 23.8453C46.2694 24.0323 46.1447 24.2193 45.9993 24.4062C45.3137 25.3619 44.2749 25.632 43.3815 25.0919C42.4882 24.5517 42.1973 23.4921 42.7582 22.4741C43.5685 21.0198 44.0048 19.4823 43.8801 17.7995C43.5685 13.3742 39.7457 10.0915 35.3204 10.4655C33.6999 10.6109 33.3467 10.424 32.5987 9.01119C30.4796 4.93908 26.1582 2.94458 21.8783 4.06649C17.5984 5.18839 14.7937 9.01119 14.8975 13.5819C14.8975 13.8936 14.9391 14.2052 14.9183 14.5168C14.8975 15.5764 14.1288 16.3867 13.1316 16.4282C12.1967 16.4698 11.3448 15.7634 11.1786 14.7662C11.0955 14.2883 11.0955 13.8105 11.054 13.3534C7.60515 13.1041 4.13555 16.5321 3.82391 20.438C3.49149 24.8218 6.691 28.5199 11.241 28.8731C11.3448 28.5822 11.4695 28.2914 11.5942 27.9797C12.7784 24.9049 15.7494 22.7649 18.9073 22.7026C20.237 22.6818 21.0888 23.3674 21.1511 24.4894C21.2135 25.632 20.4655 26.3592 19.1151 26.4839C16.8297 26.7124 15.1053 28.2914 14.9183 30.369C14.7106 32.5089 15.9156 34.4203 17.9309 35.0228C18.5541 35.2098 19.219 35.2306 19.8838 35.2514C21.2966 35.2929 22.7301 35.2306 24.1429 35.3345C28.3189 35.6669 31.5599 38.9495 31.7885 43.1255C31.8924 45.0992 31.8508 47.0729 31.83 49.0466C31.8093 50.2517 31.0613 50.9788 29.981 50.9996C28.8798 51.0204 28.0696 50.2309 28.0488 49.0051C28.0072 47.3015 28.0488 45.6186 28.028 43.915C28.0072 41.0063 26.1166 39.1365 23.208 39.0741C21.5459 39.0534 19.863 39.1572 18.2425 38.9495C14.9183 38.534 12.6953 36.6226 11.5526 33.4854C11.3448 32.9244 11.1371 32.6959 10.493 32.6336C4.50952 32.0311 -0.0819939 26.8994 0.00111037 20.9574C0.0634385 14.87 4.77961 9.86301 10.8878 9.44749C11.4903 9.40593 11.6773 9.1774 11.885 8.658C13.838 3.7964 17.3907 0.763094 22.6055 0.119036C27.9657 -0.545798 32.204 1.59414 35.2373 6.04021C35.6113 6.60117 36.0268 6.68427 36.6085 6.70505C42.966 6.93358 48.0977 12.5847 47.6822 18.9421C47.6406 19.607 47.8068 20.0017 48.3055 20.4172C51.6504 23.222 52.7931 27.6889 51.2349 31.6986C49.7182 35.6461 45.8539 38.16 41.5532 38.0561C36.9825 37.9107 33.3259 34.7527 32.0586 29.7665Z" fill="white"/>
<path d="M28.4434 18.6516C28.485 16.8441 27.6332 15.4937 26.075 14.9119C24.5583 14.351 23.0625 14.7873 21.899 16.117C20.9848 17.1558 19.8837 17.3427 19.0111 16.6156C18.1385 15.8676 18.1177 14.7665 18.9903 13.6654C21.0264 11.1099 24.5168 10.175 27.5916 11.4008C30.6249 12.6058 32.5363 15.6807 32.2455 18.8802C32.1208 20.3553 31.3729 21.124 30.1471 21.0201C29.0044 20.9578 28.4227 20.1475 28.4434 18.6516Z" fill="white"/>
</svg>
