<svg width="50" height="50" viewBox="0 0 50 50" fill="none" xmlns="http://www.w3.org/2000/svg">
<circle cx="25" cy="25" r="24.5" stroke="#4094B0"/>
<path d="M22.8573 20.5004C25.9803 20.5004 28.5211 17.9208 28.5211 14.7502C28.5211 11.5796 25.9803 9 22.8573 9C19.7342 9 17.1934 11.5796 17.1934 14.7502C17.1934 17.9208 19.7342 20.5004 22.8573 20.5004ZM22.8573 10.0523C25.4148 10.0523 27.4955 12.1598 27.4955 14.7502C27.4955 17.3406 25.4148 19.4481 22.8573 19.4481C20.2997 19.4481 18.219 17.3406 18.219 14.7502C18.219 12.1598 20.2997 10.0523 22.8573 10.0523Z" fill="#4094B0" stroke="#4094B0" stroke-width="0.4"/>
<path d="M36.6212 39.7822H24.9339C23.5843 39.7822 22.6968 38.2526 23.3547 37.0391L29.1984 26.2618C29.8748 25.0143 31.6803 25.0143 32.3568 26.2618L38.2005 37.0391C38.8584 38.2526 37.9709 39.7822 36.6212 39.7822ZM30.0948 26.7733L24.2512 37.5507C23.9668 38.0752 24.3519 38.7299 24.9339 38.7299H36.6213C37.2034 38.7299 37.5884 38.0752 37.3041 37.5507L31.4603 26.7733C31.1845 26.2991 30.5433 26.1456 30.0948 26.7733Z" fill="#4094B0" stroke="#4094B0" stroke-width="0.4"/>
<path d="M19.9555 23.1461L22.4578 26.3601C22.7249 26.6238 22.992 26.6238 23.2591 26.3601L25.7614 23.146C26.6984 23.1911 27.5974 23.4967 28.3752 24.0369C28.6096 24.1997 28.9285 24.1369 29.0874 23.8961C29.2461 23.6555 29.1847 23.3283 28.9501 23.1654C27.9352 22.4605 26.7489 22.0879 25.5192 22.0879C25.3634 22.0879 25.2159 22.1606 25.1186 22.2857L22.8584 25.1887L20.5982 22.2857C20.5009 22.1607 20.3216 22.0879 20.1657 22.0879C16.7835 22.0879 14 24.9149 14 28.3898V33.9129C14 34.9334 14.8796 35.7687 15.8825 35.7687H22.2568C22.54 35.7687 22.7696 35.5332 22.7696 35.2426C22.7696 34.952 22.5399 34.7164 22.2568 34.7164H19.2562V31.7404C19.2562 31.4499 19.0266 31.2143 18.7434 31.2143C18.4601 31.2143 18.2306 31.4499 18.2306 31.7404V34.7164H15.8824C15.4451 34.7164 15.0896 34.3531 15.0896 33.9129V28.3898C15.0896 25.5786 17.2508 23.2764 19.9555 23.1461Z" fill="#4094B0" stroke="#4094B0" stroke-width="0.4"/>
<path d="M30.2168 30.2441H31.2424V34.4535H30.2168V30.2441Z" fill="#4094B0" stroke="#4094B0" stroke-width="0.4"/>
<path d="M30.2168 35.7031H31.2424V37.0843H30.2168V35.7031Z" fill="#4094B0" stroke="#4094B0" stroke-width="0.4"/>
</svg>
