<svg width="128" height="64" viewBox="0 0 128 64" fill="none" xmlns="http://www.w3.org/2000/svg">
<g clip-path="url(#clip0_12_2575)">
<path d="M64 26.3149C54.1524 26.3149 45.677 23.1534 41.815 18.6035C44.9974 25.3697 53.7276 30.2324 64 30.2324C74.2724 30.2324 83.0027 25.3762 86.185 18.6035C82.3296 23.1534 73.8477 26.3149 64 26.3149Z" fill="#87888A"/>
<path d="M64 3.91759C73.8477 3.91759 82.3231 7.07905 86.185 11.6289C83.0027 4.86277 74.2724 0 64 0C53.7276 0 44.9974 4.86277 41.815 11.6224C45.677 7.07253 54.1524 3.91108 64 3.91108" fill="#87888A"/>
<path d="M70.051 16.387H65.3788V21.1455H62.5623V16.387H57.9489V13.7861H62.5623V9.07327H65.3788V13.7861H70.051V16.387ZM63.9999 4.04102C57.877 4.04102 52.9042 8.99504 52.9042 15.1094C52.9042 21.2237 57.8705 26.1777 63.9999 26.1777C70.1294 26.1777 75.0957 21.2237 75.0957 15.1094C75.0957 8.99504 70.1229 4.04102 63.9999 4.04102Z" fill="#0097D1"/>
<path d="M8.44922 62.5269C9.02426 62.5269 9.59277 62.4487 10.1482 62.2988C10.7037 62.1424 11.2068 61.9077 11.6381 61.6013C12.0759 61.295 12.4288 60.9169 12.6902 60.4671C12.9516 60.0238 13.0888 59.5089 13.0888 58.9222C13.0888 58.2182 12.9058 57.5925 12.5464 57.0449C12.1805 56.5039 11.7035 56.002 11.1153 55.5326C10.5272 55.0698 9.84762 54.6396 9.08307 54.2355C8.31852 53.8313 7.54744 53.4272 6.75675 53.0165C5.96606 52.6124 5.18844 52.1821 4.43043 51.7389C3.66588 51.2956 2.98628 50.7937 2.4047 50.2527C1.81005 49.7116 1.33302 49.0989 0.967084 48.421C0.607681 47.7431 0.424712 46.9674 0.424712 46.0809C0.424712 45.1944 0.594612 44.3795 0.921342 43.6234C1.25461 42.8673 1.73817 42.2219 2.37856 41.6679C3.01895 41.1203 3.80964 40.6836 4.73756 40.3707C5.67201 40.0578 6.75022 39.9014 7.95912 39.9014C10.1417 39.9014 11.8734 40.3577 13.1411 41.2702C14.4088 42.1828 15.3171 43.5061 15.8791 45.24L13.8925 46.146C13.6638 45.4421 13.3632 44.7967 13.0038 44.2166C12.6444 43.6299 12.2132 43.128 11.71 42.7108C11.2068 42.2936 10.6318 41.9677 9.97832 41.7461C9.32485 41.5179 8.58644 41.4071 7.76962 41.4071C7.04427 41.4071 6.41042 41.5114 5.85497 41.7135C5.3126 41.9156 4.85518 42.1763 4.49578 42.5022C4.13637 42.8282 3.86845 43.1932 3.68548 43.6104C3.50251 44.0276 3.41103 44.4447 3.41103 44.875C3.41103 45.4812 3.594 46.0352 3.97301 46.5306C4.35201 47.0326 4.84211 47.5084 5.44983 47.9582C6.05755 48.408 6.75022 48.8447 7.5409 49.2554C8.31852 49.666 9.12228 50.0897 9.93911 50.5199C10.7494 50.9502 11.5466 51.3934 12.3308 51.8562C13.1149 52.319 13.8141 52.8275 14.4219 53.3815C15.0296 53.9291 15.5197 54.5353 15.8987 55.1872C16.2777 55.8455 16.4607 56.5756 16.4607 57.3774C16.4607 58.2965 16.2842 59.1439 15.9379 59.9456C15.585 60.7409 15.0688 61.4449 14.3761 62.0446C13.6769 62.6443 12.8143 63.1201 11.7819 63.4656C10.7494 63.8111 9.54703 63.9871 8.1813 63.9871C7.07695 63.9871 6.08369 63.8632 5.21458 63.622C4.33894 63.3809 3.57439 63.0223 2.90133 62.566C2.22826 62.1032 1.65975 61.5361 1.18926 60.8647C0.712235 60.1933 0.320158 59.4372 0.013031 58.5833L2.10411 57.7228C2.34589 58.4725 2.67262 59.1439 3.07776 59.737C3.48944 60.3302 3.96647 60.8387 4.50884 61.2493C5.05775 61.66 5.66547 61.9794 6.332 62.1945C6.99853 62.4096 7.7108 62.5139 8.46229 62.5139" fill="#87888A"/>
<path d="M20.2377 39.9014V63.9349H36.2736V62.3835H24.1193V51.602H32.2483V50.0506H24.1193V41.4593H36.2736V39.9014H20.2377Z" fill="#87888A"/>
<path d="M57.6679 39.9336V57.1097H57.5176L42.3965 39.9336H40.2271V63.8694H41.9653V44.8811H42.0959L58.4782 63.9997H59.38V39.9336H57.6679Z" fill="#87888A"/>
<path d="M62.1115 39.9795V41.4657H70.4758V63.9544H74.3574V41.4657H82.7021V39.9795H62.1115Z" fill="#87888A"/>
<path d="M90.1123 39.9473H86.2373V63.9808H90.1123V39.9473Z" fill="#87888A"/>
<path d="M101.613 62.5269C102.188 62.5269 102.757 62.4487 103.312 62.2988C103.874 62.1424 104.371 61.9077 104.809 61.6013C105.246 61.295 105.593 60.9169 105.861 60.4671C106.129 60.0238 106.259 59.5089 106.259 58.9222C106.259 58.2182 106.076 57.5925 105.71 57.0449C105.345 56.5039 104.867 56.002 104.279 55.5326C103.691 55.0698 103.018 54.6396 102.254 54.2355C101.489 53.8313 100.711 53.4272 99.9273 53.0165C99.1366 52.6124 98.359 52.1821 97.601 51.7389C96.843 51.2956 96.1634 50.7937 95.5687 50.2527C94.9806 49.7116 94.5036 49.0989 94.1377 48.421C93.7717 47.7431 93.5953 46.9674 93.5953 46.0809C93.5953 45.1944 93.7586 44.3795 94.0919 43.6234C94.4252 42.8673 94.9087 42.2219 95.5491 41.6679C96.183 41.1203 96.9737 40.6836 97.9081 40.3707C98.836 40.0578 99.9142 39.9014 101.13 39.9014C103.312 39.9014 105.044 40.3577 106.305 41.2702C107.566 42.1828 108.481 43.5061 109.05 45.24L107.063 46.146C106.828 45.4421 106.54 44.7967 106.181 44.2166C105.822 43.6299 105.39 43.128 104.894 42.7108C104.39 42.2936 103.809 41.9677 103.162 41.7461C102.508 41.5179 101.777 41.4071 100.96 41.4071C100.228 41.4071 99.5941 41.5114 99.0452 41.7135C98.4962 41.9156 98.0454 42.1763 97.686 42.5022C97.3265 42.8282 97.0586 43.1932 96.8691 43.6104C96.6862 44.0276 96.5947 44.4447 96.5947 44.875C96.5947 45.4812 96.7842 46.0352 97.1566 46.5306C97.5291 47.0326 98.0257 47.5084 98.6335 47.9582C99.2412 48.408 99.9339 48.8447 100.718 49.2554C101.502 49.666 102.306 50.0897 103.11 50.5199C103.92 50.9502 104.717 51.3934 105.501 51.8562C106.285 52.319 106.985 52.8275 107.592 53.3815C108.2 53.9291 108.69 54.5353 109.069 55.1872C109.442 55.8455 109.631 56.5756 109.631 57.3774C109.631 58.2965 109.455 59.1439 109.108 59.9456C108.762 60.7409 108.239 61.4449 107.547 62.0446C106.847 62.6443 105.985 63.1201 104.952 63.4656C103.92 63.8111 102.718 63.9871 101.352 63.9871C100.248 63.9871 99.2608 63.8632 98.3851 63.622C97.516 63.3809 96.745 63.0223 96.0719 62.566C95.4054 62.1032 94.8303 61.5361 94.3598 60.8647C93.8828 60.1933 93.4907 59.4372 93.1771 58.5833L95.2681 57.7228C95.5034 58.4725 95.8367 59.1439 96.2418 59.737C96.6469 60.3302 97.124 60.8387 97.6729 61.2493C98.2153 61.66 98.823 61.9794 99.496 62.1945C100.163 62.4096 100.868 62.5139 101.62 62.5139" fill="#87888A"/>
<path d="M119.995 62.5269C120.57 62.5269 121.139 62.4487 121.694 62.2988C122.25 62.1424 122.746 61.9077 123.184 61.6013C123.622 61.295 123.968 60.9169 124.236 60.4671C124.504 60.0238 124.628 59.5089 124.628 58.9222C124.628 58.2182 124.445 57.5925 124.086 57.0449C123.72 56.5039 123.243 56.002 122.655 55.5326C122.067 55.0698 121.387 54.6396 120.629 54.2355C119.864 53.8313 119.093 53.4272 118.296 53.0165C117.512 52.6124 116.734 52.1821 115.97 51.7389C115.212 51.2956 114.532 50.7937 113.944 50.2527C113.356 49.7116 112.872 49.0989 112.513 48.421C112.147 47.7431 111.971 46.9674 111.971 46.0809C111.971 45.1944 112.134 44.3795 112.467 43.6234C112.8 42.8673 113.284 42.2219 113.924 41.6679C114.565 41.1203 115.356 40.6836 116.283 40.3707C117.211 40.0578 118.29 39.9014 119.505 39.9014C121.694 39.9014 123.419 40.3577 124.68 41.2702C125.942 42.1828 126.856 43.5061 127.425 45.24L125.438 46.146C125.21 45.4421 124.909 44.7967 124.556 44.2166C124.197 43.6299 123.766 43.128 123.262 42.7108C122.759 42.2936 122.184 41.9677 121.531 41.7461C120.877 41.5179 120.145 41.4071 119.329 41.4071C118.603 41.4071 117.963 41.5114 117.414 41.7135C116.865 41.9156 116.414 42.1763 116.055 42.5022C115.695 42.8282 115.427 43.1932 115.238 43.6104C115.055 44.0276 114.963 44.4447 114.963 44.875C114.963 45.4812 115.153 46.0352 115.525 46.5306C115.904 47.0326 116.395 47.5084 117.002 47.9582C117.603 48.408 118.303 48.8447 119.087 49.2554C119.871 49.666 120.675 50.0897 121.478 50.5199C122.289 50.9502 123.086 51.3934 123.87 51.8562C124.654 52.319 125.353 52.8275 125.955 53.3815C126.562 53.9291 127.059 54.5353 127.431 55.1872C127.804 55.8455 127.993 56.5756 127.993 57.3774C127.993 58.2965 127.817 59.1439 127.471 59.9456C127.124 60.7409 126.602 61.4449 125.902 62.0446C125.203 62.6443 124.341 63.1201 123.308 63.4656C122.276 63.8111 121.073 63.9871 119.701 63.9871C118.597 63.9871 117.61 63.8632 116.734 63.622C115.859 63.3809 115.088 63.0223 114.421 62.566C113.755 62.1032 113.18 61.5361 112.709 60.8647C112.232 60.1933 111.84 59.4372 111.533 58.5833L113.617 57.7228C113.866 58.4725 114.186 59.1439 114.598 59.737C115.003 60.3302 115.48 60.8387 116.035 61.2493C116.578 61.66 117.192 61.9794 117.858 62.1945C118.525 62.4096 119.237 62.5139 119.989 62.5139" fill="#87888A"/>
<path d="M127.353 33.6367H1.6532V35.2663H127.353V33.6367Z" fill="#87888A"/>
</g>
<defs>
<clipPath id="clip0_12_2575">
<rect width="128" height="64" fill="white"/>
</clipPath>
</defs>
</svg>
