<svg width="207" height="55" viewBox="0 0 207 55" fill="none" xmlns="http://www.w3.org/2000/svg">
<g clip-path="url(#clip0_118_669)">
<path d="M189.505 25.0685C186.628 23.894 185.314 22.7584 185.314 21.0868C185.314 19.9488 186.414 18.5988 188.439 18.5988C190.386 18.5988 193.089 20.3753 193.374 20.5483C193.8 20.8334 194.333 20.5483 194.617 20.1218L195.965 18.0944C196.21 17.7081 196.118 17.1985 195.754 16.9223C195.043 16.3886 192.274 14.5391 188.653 14.5391C183.007 14.5391 180.664 18.1942 180.664 21.3621C180.664 25.5558 184 27.6977 187.339 29.0404C190.32 30.2588 191.848 31.4943 191.848 33.3072C191.848 34.835 190.463 36.0438 188.616 36.0438C186.309 36.0438 183.433 33.9481 183.263 33.8507C182.903 33.5728 182.387 33.6395 182.109 33.9997C182.086 34.0298 182.065 34.0614 182.046 34.0945L180.766 36.2876C180.447 36.8554 180.625 37.0332 180.944 37.3525C181.654 38.0274 184.282 40.1255 188.755 40.1255C193.763 40.1255 196.922 36.7481 196.922 33.0857C196.924 28.5165 192.948 26.455 189.505 25.0685Z" fill="#2A276E"/>
<path d="M174.242 14.8994H170.266V39.1116C170.278 39.4796 170.573 39.7752 170.94 39.7865H174.916V15.5743C174.905 15.2063 174.61 14.9107 174.242 14.8994Z" fill="#2A276E"/>
<path d="M159.386 29.7251C162.474 28.4824 164.64 25.8262 164.64 22.5439C164.609 18.294 161.146 14.8726 156.902 14.8996H146.073V39.1117C146.071 39.4832 146.371 39.7854 146.742 39.7867C146.744 39.7867 146.745 39.7867 146.747 39.7867H150.687V30.0395H154.629L159.349 39.4602C159.462 39.6674 159.684 39.7915 159.919 39.7795H164.798L159.386 29.7251ZM156.51 26.2357H150.723V19.169H156.51C158.391 19.169 160.026 20.7334 160.026 22.6171C160.029 24.6054 158.391 26.2357 156.51 26.2357Z" fill="#2A276E"/>
<path d="M114.28 14.9365C114.186 14.6864 113.94 14.5272 113.674 14.5442H113.306C113.043 14.5366 112.803 14.6928 112.703 14.9365L101.239 39.792H105.351C105.811 39.8029 106.226 39.517 106.381 39.0829L108.121 35.2425H118.738L120.477 39.0829C120.721 39.5703 120.964 39.792 121.507 39.792H125.622L114.28 14.9365ZM109.875 31.2899L113.355 23.4677H113.462L117.012 31.2899H109.875Z" fill="#2A276E"/>
<path d="M140.826 14.8996H124.637V18.4914C124.637 18.8642 124.939 19.1665 125.311 19.1665H130.742V39.1117C130.755 39.4801 131.051 39.7753 131.419 39.7866H135.395V19.1688H141.5V15.5745C141.502 15.203 141.202 14.9008 140.831 14.8994L140.826 14.8996Z" fill="#2A276E"/>
<path d="M97.0563 14.8994H93.0801V39.1116C93.0915 39.4796 93.3867 39.7752 93.7541 39.7865H97.7327V15.5743C97.7213 15.2055 97.4246 14.9095 97.0563 14.8994Z" fill="#2A276E"/>
<path d="M84.0106 14.7822C83.7498 14.7802 83.5127 14.9334 83.4071 15.1721L76.5935 30.4606H76.3501L69.5365 15.1721C69.4308 14.9333 69.1937 14.7802 68.933 14.7822H64.2852L75.6786 39.6377C75.7786 39.8815 76.019 40.0376 76.282 40.03H76.6374C76.9 40.0362 77.1397 39.8805 77.2409 39.6377L88.678 14.7822H84.0106Z" fill="#2A276E"/>
<path d="M38.3421 38.8682C19.4586 53.5572 0.742998 28.3193 3.5829 14.1931C3.5869 14.1543 3.55861 14.1196 3.51983 14.1156C3.49375 14.113 3.46836 14.125 3.45387 14.1468C-3.7242 27.1033 0.632736 43.4251 13.3093 51.0669C13.6677 51.2836 14.0553 51.4477 14.4603 51.5543C18.0447 52.4632 30.0854 53.9643 38.4443 38.9681C38.4719 38.9399 38.4714 38.8946 38.4431 38.867C38.4148 38.8393 38.3697 38.8399 38.3421 38.8682Z" fill="#703E97"/>
<path d="M31.8423 12.3779C53.9866 21.4112 41.5201 50.2605 27.8928 54.8611C27.8563 54.8701 27.8339 54.907 27.8427 54.9436C27.8509 54.9772 27.8829 54.9993 27.9171 54.9952C42.7055 54.734 54.6338 42.7968 54.904 27.9881C54.909 27.5702 54.8524 27.154 54.736 26.7527C53.731 23.19 49.0102 11.9953 31.8617 12.2463C31.8242 12.2492 31.7962 12.2821 31.7991 12.3197C31.8011 12.3457 31.8178 12.3684 31.8423 12.3779Z" fill="#F1CB14"/>
<path d="M12.1828 31.2557C8.91223 7.53592 40.1041 3.92458 50.9012 13.4501C50.9254 13.479 50.9684 13.4828 50.9974 13.4586C51.0262 13.4345 51.0301 13.3914 51.006 13.3623C43.3906 0.658436 27.0968 -3.72498 14.1491 3.44699C13.7856 3.65248 13.4537 3.90924 13.1635 4.20967C10.584 6.86335 3.26417 16.5545 12.0538 31.302C12.0753 31.3345 12.1192 31.3433 12.1516 31.3218C12.1734 31.3073 12.1855 31.2818 12.1828 31.2557Z" fill="#2A276E"/>
<path d="M38.9629 22.1196C38.9409 22.0708 38.9141 22.0245 38.8923 21.9758C38.7342 21.6493 38.5662 21.3301 38.3813 21.0207L38.2814 20.8573C34.6193 14.8684 26.8023 12.9864 20.8218 16.6536C19.1104 17.703 17.6718 19.1436 16.6238 20.8573L16.524 21.0205C16.3391 21.3299 16.1712 21.6492 16.013 21.9757C15.9911 22.0245 15.9643 22.0708 15.9425 22.1194C14.3826 25.471 14.355 29.3362 15.867 32.7098C15.8913 32.7659 15.9157 32.8244 15.9425 32.8828C16.0933 33.2045 16.2613 33.5213 16.4292 33.8283C16.4585 33.8795 16.4853 33.9307 16.5169 33.9819C20.0912 40.0252 27.8812 42.0228 33.9162 38.4435C35.752 37.3547 37.2844 35.8202 38.3717 33.9819C38.4033 33.9307 38.43 33.8795 38.4593 33.8283C38.6369 33.5213 38.8024 33.2045 38.946 32.8828C38.9728 32.8244 38.9971 32.7659 39.0215 32.7098C40.5336 29.3363 40.506 25.4711 38.946 22.1194L38.9629 22.1196ZM37.7315 22.1196C38.4854 23.5657 38.9257 25.1552 39.0236 26.7836H34.0448C34.0053 25.2121 33.8022 23.6489 33.4388 22.1196L33.4024 21.9758H37.6488L37.7315 22.1196ZM32.9278 28.0482C32.9002 29.6179 32.7077 31.1805 32.3535 32.7098H28.0025V28.0507V27.9045H32.9302C32.9303 27.9411 32.9303 27.9996 32.9278 28.0482ZM22.5541 32.71C22.1998 31.1806 22.0075 29.6181 21.9797 28.0484C21.9797 27.9996 21.9797 27.9509 21.9797 27.9022H26.9074V28.0484V32.7075L22.5541 32.71ZM22.593 22.1196C22.6052 22.0708 22.6198 22.0245 22.6319 21.9758H26.9051V26.7836H21.9847C22.0227 25.2117 22.2266 23.6484 22.593 22.1196ZM32.2758 21.9758C32.2904 22.0246 32.3026 22.0709 32.3147 22.1196C32.6811 23.6484 32.8851 25.2119 32.923 26.7836H28.0026V21.9758H32.2758ZM36.9601 20.8573H33.0812C32.4996 19.0321 31.6868 17.5091 30.7183 16.4467C30.7008 16.428 30.7016 16.3987 30.7202 16.3812C30.7328 16.3694 30.7507 16.3656 30.767 16.3711C33.2774 17.1247 35.4597 18.7056 36.9601 20.8573ZM28.0756 15.9398C29.6793 16.3248 31.0737 18.1817 31.952 20.8573H28.0026V16.0007C28.0003 15.9685 28.0244 15.9405 28.0566 15.9381C28.0629 15.9376 28.0694 15.9381 28.0756 15.9398ZM26.9051 15.9983V20.8572H22.9557C23.8342 18.1767 25.2285 16.3247 26.8321 15.9397C26.8633 15.9315 26.8952 15.9502 26.9033 15.9815C26.905 15.9878 26.9055 15.9943 26.9051 16.0006V15.9983ZM24.1894 16.4467C23.2161 17.5091 22.4081 19.0321 21.8266 20.8573H17.9477C19.4485 18.7061 21.6307 17.1255 24.1408 16.3712C24.165 16.3629 24.1913 16.3758 24.1996 16.4C24.205 16.4161 24.2011 16.4341 24.1894 16.4467ZM17.186 22.1196L17.2688 21.9758H21.5152L21.4788 22.1196C21.1154 23.6489 20.9123 25.212 20.8728 26.7836H15.8843C15.985 25.1544 16.4287 23.565 17.186 22.1196ZM15.8817 28.0482C15.8817 27.9995 15.8817 27.9508 15.8817 27.902H20.8677V28.0482C20.8974 29.6178 21.0899 31.1801 21.4421 32.7098H17.0936C16.3633 31.2594 15.9469 29.6709 15.872 28.0482H15.8817ZM17.7433 33.8308H21.7366L21.7803 33.9844C22.3668 35.8827 23.2015 37.4641 24.1992 38.5582C24.2167 38.5769 24.2159 38.6062 24.1973 38.6237C24.1847 38.6355 24.1668 38.6393 24.1505 38.6338C21.5107 37.8449 19.2366 36.1426 17.7335 33.8308H17.7433ZM26.9149 33.9819V39.0041C26.9159 39.0365 26.8906 39.0634 26.8583 39.0644C26.8528 39.0645 26.8471 39.064 26.8419 39.0626C25.175 38.663 23.7344 36.6745 22.8632 33.8308H26.9149V33.9819ZM28.0854 39.0626C28.0542 39.0708 28.0223 39.052 28.0142 39.0206C28.0128 39.0152 28.0121 39.0097 28.0124 39.004V33.8282H32.0543C31.1831 36.6744 29.7425 38.6628 28.0756 39.0625L28.0854 39.0626ZM37.184 33.8308C35.6829 36.1399 33.4126 37.8409 30.7768 38.6313C30.7527 38.6396 30.7263 38.6267 30.718 38.6026C30.7125 38.5863 30.7164 38.5683 30.7281 38.5557C31.7259 37.4617 32.5605 35.8752 33.147 33.9819L33.1907 33.8283H37.184V33.8308ZM39.0455 28.0482C38.9721 29.6706 38.5574 31.2591 37.8288 32.7098H33.49C33.8422 31.1801 34.0346 29.6178 34.0644 28.0482V27.902H39.0383C39.0359 27.941 39.0383 27.9995 39.0359 28.0482H39.0455Z" fill="#2A276E"/>
</g>
<defs>
<clipPath id="clip0_118_669">
<rect width="207" height="55" fill="white"/>
</clipPath>
</defs>
</svg>
