<svg width="546" height="144" viewBox="0 0 546 144" fill="none" xmlns="http://www.w3.org/2000/svg">
<rect x="292.209" width="253.414" height="144" rx="22.5" fill="#E9D8FF"/>
<path d="M364.412 59.3604V61.2588H357.68V59.3604H364.412ZM358.339 54.0781V66.875H355.922V54.0781H358.339ZM366.205 54.0781V66.875H363.788V54.0781H366.205ZM372.762 67.0508C372.041 67.0508 371.394 66.9336 370.819 66.6992C370.245 66.4648 369.756 66.1396 369.352 65.7236C368.953 65.3018 368.646 64.8125 368.429 64.2559C368.218 63.6934 368.112 63.0898 368.112 62.4453V62.0938C368.112 61.3613 368.218 60.6963 368.429 60.0986C368.64 59.4951 368.938 58.9766 369.325 58.543C369.712 58.1094 370.175 57.7754 370.714 57.541C371.253 57.3066 371.848 57.1895 372.498 57.1895C373.172 57.1895 373.767 57.3037 374.282 57.5322C374.798 57.7549 375.229 58.0713 375.574 58.4814C375.92 58.8916 376.181 59.3838 376.356 59.958C376.532 60.5264 376.62 61.1562 376.62 61.8477V62.8232H369.167V61.2236H374.335V61.0479C374.323 60.6787 374.253 60.3418 374.124 60.0371C373.995 59.7266 373.796 59.4805 373.526 59.2988C373.257 59.1113 372.908 59.0176 372.48 59.0176C372.135 59.0176 371.833 59.0938 371.575 59.2461C371.323 59.3926 371.112 59.6035 370.942 59.8789C370.778 60.1484 370.655 60.4707 370.573 60.8457C370.491 61.2207 370.45 61.6367 370.45 62.0938V62.4453C370.45 62.8438 370.503 63.2129 370.608 63.5527C370.72 63.8926 370.881 64.1885 371.092 64.4404C371.309 64.6865 371.566 64.8799 371.865 65.0205C372.17 65.1553 372.516 65.2227 372.902 65.2227C373.389 65.2227 373.828 65.1289 374.221 64.9414C374.619 64.748 374.965 64.4639 375.258 64.0889L376.427 65.3018C376.228 65.5947 375.958 65.876 375.618 66.1455C375.284 66.415 374.88 66.6348 374.405 66.8047C373.931 66.9688 373.383 67.0508 372.762 67.0508ZM382.254 62.3398H380.399V61.2324H381.814C382.16 61.2324 382.436 61.1855 382.641 61.0918C382.852 60.998 383.001 60.8662 383.089 60.6963C383.183 60.5264 383.229 60.3301 383.229 60.1074C383.229 59.9082 383.186 59.7207 383.098 59.5449C383.01 59.3633 382.863 59.2168 382.658 59.1055C382.453 58.9883 382.169 58.9297 381.806 58.9297C381.507 58.9297 381.24 58.9766 381.006 59.0703C380.771 59.1641 380.587 59.2959 380.452 59.4658C380.317 59.6357 380.25 59.8379 380.25 60.0723H377.921C377.921 59.4746 378.091 58.9619 378.431 58.5342C378.776 58.1064 379.236 57.7783 379.811 57.5498C380.385 57.3154 381.015 57.1982 381.7 57.1982C382.292 57.1982 382.825 57.2598 383.3 57.3828C383.774 57.5 384.179 57.6758 384.513 57.9102C384.847 58.1445 385.104 58.4346 385.286 58.7803C385.468 59.1201 385.559 59.5156 385.559 59.9668C385.559 60.2891 385.482 60.5938 385.33 60.8809C385.178 61.168 384.958 61.4229 384.671 61.6455C384.384 61.8623 384.035 62.0322 383.625 62.1553C383.221 62.2783 382.764 62.3398 382.254 62.3398ZM380.399 61.707H382.254C382.822 61.707 383.32 61.7627 383.748 61.874C384.182 61.9795 384.545 62.1377 384.838 62.3486C385.131 62.5596 385.351 62.8203 385.497 63.1309C385.649 63.4355 385.726 63.7871 385.726 64.1855C385.726 64.6367 385.626 65.041 385.427 65.3984C385.233 65.75 384.958 66.0488 384.601 66.2949C384.243 66.541 383.818 66.7285 383.326 66.8574C382.834 66.9863 382.292 67.0508 381.7 67.0508C381.062 67.0508 380.44 66.9453 379.837 66.7344C379.239 66.5234 378.744 66.1982 378.352 65.7588C377.965 65.3193 377.771 64.7539 377.771 64.0625H380.101C380.101 64.2852 380.168 64.4932 380.303 64.6865C380.438 64.8799 380.631 65.0352 380.883 65.1523C381.141 65.2637 381.451 65.3193 381.814 65.3193C382.184 65.3193 382.485 65.2607 382.72 65.1436C382.954 65.0264 383.124 64.8711 383.229 64.6777C383.341 64.4785 383.396 64.2705 383.396 64.0537C383.396 63.7549 383.338 63.5146 383.221 63.333C383.109 63.1455 382.934 63.0078 382.693 62.9199C382.459 62.832 382.166 62.7881 381.814 62.7881H380.399V61.707ZM392.643 64.8535V60.4678C392.643 60.1455 392.587 59.8672 392.476 59.6328C392.364 59.3984 392.194 59.2168 391.966 59.0879C391.737 58.959 391.447 58.8945 391.096 58.8945C390.785 58.8945 390.513 58.9473 390.278 59.0527C390.05 59.1582 389.874 59.3076 389.751 59.501C389.628 59.6885 389.566 59.9053 389.566 60.1514H387.237C387.237 59.7588 387.331 59.3867 387.519 59.0352C387.706 58.6777 387.973 58.3613 388.318 58.0859C388.67 57.8047 389.089 57.585 389.575 57.4268C390.067 57.2686 390.618 57.1895 391.228 57.1895C391.948 57.1895 392.59 57.3125 393.152 57.5586C393.721 57.7988 394.166 58.1621 394.488 58.6484C394.816 59.1348 394.98 59.7471 394.98 60.4854V64.6338C394.98 65.1084 395.01 65.5156 395.068 65.8555C395.133 66.1895 395.227 66.4795 395.35 66.7256V66.875H392.985C392.874 66.6348 392.789 66.3301 392.73 65.9609C392.672 65.5859 392.643 65.2168 392.643 64.8535ZM392.968 61.083L392.985 62.4629H391.518C391.154 62.4629 390.835 62.501 390.56 62.5771C390.284 62.6475 390.059 62.7529 389.883 62.8936C389.707 63.0283 389.575 63.1924 389.487 63.3857C389.399 63.5732 389.355 63.7871 389.355 64.0273C389.355 64.2617 389.408 64.4727 389.514 64.6602C389.625 64.8477 389.783 64.9971 389.988 65.1084C390.199 65.2139 390.445 65.2666 390.727 65.2666C391.137 65.2666 391.494 65.1846 391.799 65.0205C392.104 64.8506 392.341 64.6455 392.511 64.4053C392.681 64.165 392.771 63.9365 392.783 63.7197L393.451 64.7217C393.369 64.9619 393.246 65.2168 393.082 65.4863C392.918 65.7559 392.707 66.0078 392.449 66.2422C392.191 66.4766 391.881 66.6699 391.518 66.8223C391.154 66.9746 390.732 67.0508 390.252 67.0508C389.637 67.0508 389.086 66.9277 388.6 66.6816C388.113 66.4355 387.729 66.0986 387.448 65.6709C387.167 65.2432 387.026 64.7568 387.026 64.2119C387.026 63.708 387.12 63.2627 387.308 62.876C387.495 62.4893 387.773 62.1641 388.143 61.9004C388.512 61.6309 388.969 61.4287 389.514 61.2939C390.064 61.1533 390.694 61.083 391.403 61.083H392.968ZM401.748 62.8496H398.733L398.716 61.2764H401.194C401.563 61.2764 401.865 61.2383 402.1 61.1621C402.334 61.0859 402.507 60.9717 402.618 60.8193C402.735 60.667 402.794 60.4824 402.794 60.2656C402.794 60.0781 402.759 59.917 402.688 59.7822C402.618 59.6416 402.513 59.5273 402.372 59.4395C402.237 59.3516 402.064 59.2871 401.854 59.2461C401.648 59.1992 401.408 59.1758 401.133 59.1758H399.56V66.875H397.23V57.3652H401.133C401.748 57.3652 402.302 57.4209 402.794 57.5322C403.286 57.6377 403.705 57.7988 404.051 58.0156C404.396 58.2324 404.66 58.5078 404.842 58.8418C405.029 59.1699 405.123 59.5566 405.123 60.002C405.123 60.2949 405.059 60.5703 404.93 60.8281C404.801 61.0859 404.61 61.3145 404.358 61.5137C404.106 61.7129 403.796 61.877 403.427 62.0059C403.058 62.1289 402.636 62.2051 402.161 62.2344L401.748 62.8496ZM401.748 66.875H398.109L398.971 65.0645H401.748C402.088 65.0645 402.369 65.0234 402.592 64.9414C402.814 64.8535 402.979 64.7275 403.084 64.5635C403.195 64.3994 403.251 64.2002 403.251 63.9658C403.251 63.7373 403.198 63.541 403.093 63.377C402.993 63.207 402.832 63.0781 402.609 62.9902C402.393 62.8965 402.105 62.8496 401.748 62.8496H399.349L399.366 61.2764H402.152L402.768 61.9004C403.4 61.9414 403.925 62.0703 404.341 62.2871C404.757 62.498 405.067 62.7676 405.272 63.0957C405.478 63.418 405.58 63.7725 405.58 64.1592C405.58 64.6104 405.495 65.0059 405.325 65.3457C405.155 65.6855 404.906 65.9697 404.578 66.1982C404.25 66.4209 403.849 66.5908 403.374 66.708C402.899 66.8193 402.357 66.875 401.748 66.875ZM409.614 63.5615L413.077 57.3652H415.406V66.875H413.077V60.6699L409.614 66.875H407.285V57.3652H409.614V63.5615ZM421.418 65.2227C421.746 65.2227 422.039 65.1582 422.297 65.0293C422.555 64.9004 422.76 64.7188 422.912 64.4844C423.07 64.25 423.155 63.9775 423.167 63.667H425.355C425.344 64.3115 425.162 64.8887 424.811 65.3984C424.459 65.9082 423.99 66.3125 423.404 66.6113C422.824 66.9043 422.174 67.0508 421.453 67.0508C420.721 67.0508 420.082 66.9277 419.537 66.6816C418.992 66.4355 418.538 66.0928 418.175 65.6533C417.817 65.2139 417.548 64.7041 417.366 64.124C417.19 63.5439 417.103 62.9229 417.103 62.2607V61.9795C417.103 61.3174 417.19 60.6963 417.366 60.1162C417.548 59.5361 417.817 59.0264 418.175 58.5869C418.538 58.1475 418.992 57.8047 419.537 57.5586C420.082 57.3125 420.718 57.1895 421.444 57.1895C422.212 57.1895 422.886 57.3389 423.466 57.6377C424.052 57.9365 424.509 58.3584 424.837 58.9033C425.171 59.4482 425.344 60.0898 425.355 60.8281H423.167C423.155 60.4883 423.079 60.1836 422.938 59.9141C422.798 59.6445 422.599 59.4277 422.341 59.2637C422.083 59.0996 421.77 59.0176 421.4 59.0176C421.008 59.0176 420.68 59.0996 420.416 59.2637C420.158 59.4277 419.956 59.6533 419.81 59.9404C419.669 60.2217 419.569 60.5381 419.511 60.8896C419.458 61.2354 419.432 61.5986 419.432 61.9795V62.2607C419.432 62.6475 419.458 63.0166 419.511 63.3682C419.569 63.7197 419.669 64.0361 419.81 64.3174C419.956 64.5928 420.158 64.8125 420.416 64.9766C420.68 65.1406 421.014 65.2227 421.418 65.2227ZM429.249 63.5615L432.712 57.3652H435.041V66.875H432.712V60.6699L429.249 66.875H426.92V57.3652H429.249V63.5615ZM442.854 64.1328L445.526 57.3652H447.469L443.646 66.875H442.072L438.258 57.3652H440.209L442.854 64.1328ZM439.638 57.3652V66.875H437.309V57.3652H439.638ZM446.115 66.875V57.3652H448.444V66.875H446.115ZM450.343 62.2168V62.0322C450.343 61.335 450.442 60.6934 450.642 60.1074C450.841 59.5156 451.131 59.0029 451.512 58.5693C451.893 58.1357 452.358 57.7988 452.909 57.5586C453.46 57.3125 454.087 57.1895 454.79 57.1895C455.505 57.1895 456.138 57.3125 456.688 57.5586C457.245 57.7988 457.714 58.1357 458.095 58.5693C458.476 59.0029 458.766 59.5156 458.965 60.1074C459.164 60.6934 459.264 61.335 459.264 62.0322V62.2168C459.264 62.9082 459.164 63.5498 458.965 64.1416C458.766 64.7275 458.476 65.2402 458.095 65.6797C457.714 66.1133 457.248 66.4502 456.697 66.6904C456.146 66.9307 455.517 67.0508 454.808 67.0508C454.104 67.0508 453.475 66.9307 452.918 66.6904C452.361 66.4502 451.893 66.1133 451.512 65.6797C451.131 65.2402 450.841 64.7275 450.642 64.1416C450.442 63.5498 450.343 62.9082 450.343 62.2168ZM452.663 62.0322V62.2168C452.663 62.6328 452.704 63.0225 452.786 63.3857C452.868 63.749 452.994 64.0684 453.164 64.3438C453.334 64.6191 453.554 64.8359 453.823 64.9941C454.099 65.1465 454.427 65.2227 454.808 65.2227C455.183 65.2227 455.505 65.1465 455.774 64.9941C456.044 64.8359 456.264 64.6191 456.434 64.3438C456.609 64.0684 456.738 63.749 456.82 63.3857C456.902 63.0225 456.943 62.6328 456.943 62.2168V62.0322C456.943 61.6221 456.902 61.2383 456.82 60.8809C456.738 60.5176 456.609 60.1982 456.434 59.9229C456.264 59.6416 456.041 59.4219 455.766 59.2637C455.496 59.0996 455.171 59.0176 454.79 59.0176C454.415 59.0176 454.093 59.0996 453.823 59.2637C453.554 59.4219 453.334 59.6416 453.164 59.9229C452.994 60.1982 452.868 60.5176 452.786 60.8809C452.704 61.2383 452.663 61.6221 452.663 62.0322ZM465.021 62.2168V62.0322C465.021 61.335 465.12 60.6934 465.319 60.1074C465.519 59.5156 465.809 59.0029 466.189 58.5693C466.57 58.1357 467.036 57.7988 467.587 57.5586C468.138 57.3125 468.765 57.1895 469.468 57.1895C470.183 57.1895 470.815 57.3125 471.366 57.5586C471.923 57.7988 472.392 58.1357 472.772 58.5693C473.153 59.0029 473.443 59.5156 473.643 60.1074C473.842 60.6934 473.941 61.335 473.941 62.0322V62.2168C473.941 62.9082 473.842 63.5498 473.643 64.1416C473.443 64.7275 473.153 65.2402 472.772 65.6797C472.392 66.1133 471.926 66.4502 471.375 66.6904C470.824 66.9307 470.194 67.0508 469.485 67.0508C468.782 67.0508 468.152 66.9307 467.596 66.6904C467.039 66.4502 466.57 66.1133 466.189 65.6797C465.809 65.2402 465.519 64.7275 465.319 64.1416C465.12 63.5498 465.021 62.9082 465.021 62.2168ZM467.341 62.0322V62.2168C467.341 62.6328 467.382 63.0225 467.464 63.3857C467.546 63.749 467.672 64.0684 467.842 64.3438C468.012 64.6191 468.231 64.8359 468.501 64.9941C468.776 65.1465 469.104 65.2227 469.485 65.2227C469.86 65.2227 470.183 65.1465 470.452 64.9941C470.722 64.8359 470.941 64.6191 471.111 64.3438C471.287 64.0684 471.416 63.749 471.498 63.3857C471.58 63.0225 471.621 62.6328 471.621 62.2168V62.0322C471.621 61.6221 471.58 61.2383 471.498 60.8809C471.416 60.5176 471.287 60.1982 471.111 59.9229C470.941 59.6416 470.719 59.4219 470.443 59.2637C470.174 59.0996 469.849 59.0176 469.468 59.0176C469.093 59.0176 468.771 59.0996 468.501 59.2637C468.231 59.4219 468.012 59.6416 467.842 59.9229C467.672 60.1982 467.546 60.5176 467.464 60.8809C467.382 61.2383 467.341 61.6221 467.341 62.0322ZM480.015 57.3652V66.875H477.686V57.3652H480.015ZM483.108 57.3652V59.1758H474.645V57.3652H483.108ZM369.123 82.3652V84.2021H364.474V82.3652H369.123ZM365.089 82.3652V91.875H362.76V82.3652H365.089ZM370.881 82.3652V91.875H368.543V82.3652H370.881ZM375.311 84.1934V95.5312H372.981V82.3652H375.135L375.311 84.1934ZM381.419 87.0234V87.208C381.419 87.8994 381.337 88.541 381.173 89.1328C381.015 89.7188 380.78 90.2314 380.47 90.6709C380.159 91.1045 379.772 91.4443 379.31 91.6904C378.853 91.9307 378.325 92.0508 377.728 92.0508C377.142 92.0508 376.632 91.9395 376.198 91.7168C375.765 91.4883 375.398 91.166 375.1 90.75C374.801 90.334 374.561 89.8506 374.379 89.2998C374.203 88.7432 374.071 88.1367 373.983 87.4805V86.8916C374.071 86.1943 374.203 85.5615 374.379 84.9932C374.561 84.4189 374.801 83.9238 375.1 83.5078C375.398 83.0859 375.762 82.7607 376.189 82.5322C376.623 82.3037 377.13 82.1895 377.71 82.1895C378.313 82.1895 378.844 82.3037 379.301 82.5322C379.764 82.7607 380.153 83.0889 380.47 83.5166C380.786 83.9443 381.023 84.4541 381.182 85.0459C381.34 85.6377 381.419 86.2969 381.419 87.0234ZM379.09 87.208V87.0234C379.09 86.6016 379.052 86.2119 378.976 85.8545C378.899 85.4912 378.782 85.1748 378.624 84.9053C378.466 84.6299 378.261 84.416 378.009 84.2637C377.757 84.1113 377.452 84.0352 377.095 84.0352C376.737 84.0352 376.43 84.0938 376.172 84.2109C375.914 84.3281 375.703 84.4951 375.539 84.7119C375.375 84.9287 375.246 85.1865 375.152 85.4854C375.064 85.7783 375.006 86.1035 374.977 86.4609V87.9199C375.029 88.3535 375.132 88.7432 375.284 89.0889C375.437 89.4346 375.659 89.71 375.952 89.915C376.251 90.1201 376.638 90.2227 377.112 90.2227C377.47 90.2227 377.774 90.1436 378.026 89.9854C378.278 89.8271 378.483 89.6104 378.642 89.335C378.8 89.0537 378.914 88.7314 378.984 88.3682C379.055 88.0049 379.09 87.6182 379.09 87.208ZM385.462 88.5615L388.925 82.3652H391.254V91.875H388.925V85.6699L385.462 91.875H383.133V82.3652H385.462V88.5615ZM397.635 92.0508C396.914 92.0508 396.267 91.9336 395.692 91.6992C395.118 91.4648 394.629 91.1396 394.225 90.7236C393.826 90.3018 393.519 89.8125 393.302 89.2559C393.091 88.6934 392.985 88.0898 392.985 87.4453V87.0938C392.985 86.3613 393.091 85.6963 393.302 85.0986C393.513 84.4951 393.812 83.9766 394.198 83.543C394.585 83.1094 395.048 82.7754 395.587 82.541C396.126 82.3066 396.721 82.1895 397.371 82.1895C398.045 82.1895 398.64 82.3037 399.155 82.5322C399.671 82.7549 400.102 83.0713 400.447 83.4814C400.793 83.8916 401.054 84.3838 401.229 84.958C401.405 85.5264 401.493 86.1562 401.493 86.8477V87.8232H394.04V86.2236H399.208V86.0479C399.196 85.6787 399.126 85.3418 398.997 85.0371C398.868 84.7266 398.669 84.4805 398.399 84.2988C398.13 84.1113 397.781 84.0176 397.354 84.0176C397.008 84.0176 396.706 84.0938 396.448 84.2461C396.196 84.3926 395.985 84.6035 395.815 84.8789C395.651 85.1484 395.528 85.4707 395.446 85.8457C395.364 86.2207 395.323 86.6367 395.323 87.0938V87.4453C395.323 87.8438 395.376 88.2129 395.481 88.5527C395.593 88.8926 395.754 89.1885 395.965 89.4404C396.182 89.6865 396.439 89.8799 396.738 90.0205C397.043 90.1553 397.389 90.2227 397.775 90.2227C398.262 90.2227 398.701 90.1289 399.094 89.9414C399.492 89.748 399.838 89.4639 400.131 89.0889L401.3 90.3018C401.101 90.5947 400.831 90.876 400.491 91.1455C400.157 91.415 399.753 91.6348 399.278 91.8047C398.804 91.9688 398.256 92.0508 397.635 92.0508ZM408.753 89.1328L411.425 82.3652H413.367L409.544 91.875H407.971L404.156 82.3652H406.107L408.753 89.1328ZM405.536 82.3652V91.875H403.207V82.3652H405.536ZM412.014 91.875V82.3652H414.343V91.875H412.014ZM421.893 89.8535V85.4678C421.893 85.1455 421.837 84.8672 421.726 84.6328C421.614 84.3984 421.444 84.2168 421.216 84.0879C420.987 83.959 420.697 83.8945 420.346 83.8945C420.035 83.8945 419.763 83.9473 419.528 84.0527C419.3 84.1582 419.124 84.3076 419.001 84.501C418.878 84.6885 418.816 84.9053 418.816 85.1514H416.487C416.487 84.7588 416.581 84.3867 416.769 84.0352C416.956 83.6777 417.223 83.3613 417.568 83.0859C417.92 82.8047 418.339 82.585 418.825 82.4268C419.317 82.2686 419.868 82.1895 420.478 82.1895C421.198 82.1895 421.84 82.3125 422.402 82.5586C422.971 82.7988 423.416 83.1621 423.738 83.6484C424.066 84.1348 424.23 84.7471 424.23 85.4854V89.6338C424.23 90.1084 424.26 90.5156 424.318 90.8555C424.383 91.1895 424.477 91.4795 424.6 91.7256V91.875H422.235C422.124 91.6348 422.039 91.3301 421.98 90.9609C421.922 90.5859 421.893 90.2168 421.893 89.8535ZM422.218 86.083L422.235 87.4629H420.768C420.404 87.4629 420.085 87.501 419.81 87.5771C419.534 87.6475 419.309 87.7529 419.133 87.8936C418.957 88.0283 418.825 88.1924 418.737 88.3857C418.649 88.5732 418.605 88.7871 418.605 89.0273C418.605 89.2617 418.658 89.4727 418.764 89.6602C418.875 89.8477 419.033 89.9971 419.238 90.1084C419.449 90.2139 419.695 90.2666 419.977 90.2666C420.387 90.2666 420.744 90.1846 421.049 90.0205C421.354 89.8506 421.591 89.6455 421.761 89.4053C421.931 89.165 422.021 88.9365 422.033 88.7197L422.701 89.7217C422.619 89.9619 422.496 90.2168 422.332 90.4863C422.168 90.7559 421.957 91.0078 421.699 91.2422C421.441 91.4766 421.131 91.6699 420.768 91.8223C420.404 91.9746 419.982 92.0508 419.502 92.0508C418.887 92.0508 418.336 91.9277 417.85 91.6816C417.363 91.4355 416.979 91.0986 416.698 90.6709C416.417 90.2432 416.276 89.7568 416.276 89.2119C416.276 88.708 416.37 88.2627 416.558 87.876C416.745 87.4893 417.023 87.1641 417.393 86.9004C417.762 86.6309 418.219 86.4287 418.764 86.2939C419.314 86.1533 419.944 86.083 420.653 86.083H422.218ZM437.186 82.3652V84.2021H432.536V82.3652H437.186ZM433.151 82.3652V91.875H430.822V82.3652H433.151ZM438.943 82.3652V91.875H436.605V82.3652H438.943ZM443.399 88.5615L446.862 82.3652H449.191V91.875H446.862V85.6699L443.399 91.875H441.07V82.3652H443.399V88.5615ZM465.688 90.0557L465.521 94.6963H463.368V91.875H462.261V90.0557H465.688ZM451.283 82.3652H453.604V90.0469H456.434V82.3652H458.763V90.0469H461.584V82.3652H463.913V91.875H451.283V82.3652ZM469.573 88.5615L473.036 82.3652H475.365V91.875H473.036V85.6699L469.573 91.875H467.244V82.3652H469.573V88.5615Z" fill="#252349"/>
<rect width="255.065" height="42.75" rx="21.375" fill="#CFF5FB"/>
<path d="M55.0932 15.0165V27.8837H53.4672V17.0468L50.1889 18.2421V16.7743L54.8383 15.0165H55.0932ZM67.9076 20.4657V22.4169C67.9076 23.4657 67.8139 24.3505 67.6264 25.0712C67.4389 25.7919 67.1693 26.3719 66.8178 26.8114C66.4662 27.2509 66.0414 27.5702 65.5434 27.7694C65.0512 27.9628 64.4945 28.0594 63.8734 28.0594C63.3813 28.0594 62.9272 27.9979 62.5111 27.8749C62.0951 27.7518 61.7201 27.5555 61.3861 27.286C61.058 27.0106 60.7768 26.6532 60.5424 26.2137C60.308 25.7743 60.1293 25.2411 60.0063 24.6141C59.8832 23.9872 59.8217 23.2548 59.8217 22.4169V20.4657C59.8217 19.4169 59.9154 18.538 60.1029 17.829C60.2963 17.12 60.5688 16.5516 60.9203 16.1239C61.2719 15.6903 61.6938 15.3798 62.1859 15.1923C62.684 15.0048 63.2406 14.911 63.8559 14.911C64.3539 14.911 64.8109 14.9725 65.227 15.0956C65.6488 15.2128 66.0238 15.4032 66.352 15.6669C66.6801 15.9247 66.9584 16.2704 67.1869 16.704C67.4213 17.1317 67.6 17.6561 67.7231 18.2772C67.8461 18.8983 67.9076 19.6278 67.9076 20.4657ZM66.2729 22.6805V20.1932C66.2729 19.619 66.2377 19.1151 66.1674 18.6815C66.1029 18.2421 66.0063 17.8671 65.8773 17.5565C65.7484 17.246 65.5844 16.994 65.3852 16.8007C65.1918 16.6073 64.9662 16.4667 64.7084 16.3788C64.4565 16.285 64.1723 16.2382 63.8559 16.2382C63.4691 16.2382 63.1264 16.3114 62.8275 16.4579C62.5287 16.5985 62.2768 16.8241 62.0717 17.1346C61.8725 17.4452 61.7201 17.8524 61.6147 18.3563C61.5092 18.8602 61.4565 19.4725 61.4565 20.1932V22.6805C61.4565 23.2548 61.4887 23.7616 61.5531 24.201C61.6234 24.6405 61.726 25.0214 61.8607 25.3436C61.9955 25.66 62.1596 25.9208 62.3529 26.1259C62.5463 26.3309 62.769 26.4833 63.0209 26.5829C63.2787 26.6766 63.5629 26.7235 63.8734 26.7235C64.2719 26.7235 64.6205 26.6473 64.9193 26.495C65.2182 26.3427 65.4672 26.1053 65.6664 25.7831C65.8715 25.455 66.0238 25.036 66.1234 24.5262C66.2231 24.0106 66.2729 23.3954 66.2729 22.6805ZM80.1068 25.7216L83.3412 18.3739H84.9057L80.6693 27.8837H79.5443L75.3256 18.3739H76.89L80.1068 25.7216ZM76.4154 18.3739V27.8837H74.7895V18.3739H76.4154ZM83.7455 27.8837V18.3739H85.3803V27.8837H83.7455ZM94.143 18.3739V19.7186H89.7484V27.8837H88.1225V18.3739H94.143ZM102.22 20.6854H103.38C103.949 20.6854 104.417 20.5917 104.787 20.4042C105.162 20.2108 105.44 19.9501 105.621 19.6219C105.809 19.288 105.903 18.913 105.903 18.4969C105.903 18.0048 105.821 17.5917 105.657 17.2577C105.493 16.9237 105.246 16.6718 104.918 16.5018C104.59 16.3319 104.174 16.2469 103.67 16.2469C103.213 16.2469 102.809 16.3378 102.457 16.5194C102.112 16.6952 101.839 16.9471 101.64 17.2753C101.447 17.6034 101.35 17.9901 101.35 18.4354H99.724C99.724 17.785 99.8881 17.1932 100.216 16.66C100.544 16.1268 101.004 15.702 101.596 15.3856C102.194 15.0692 102.885 14.911 103.67 14.911C104.444 14.911 105.121 15.0487 105.701 15.3241C106.281 15.5936 106.732 15.9979 107.054 16.537C107.376 17.0702 107.538 17.7352 107.538 18.5321C107.538 18.8544 107.461 19.2001 107.309 19.5692C107.163 19.9325 106.931 20.2723 106.615 20.5887C106.304 20.9052 105.9 21.1659 105.402 21.371C104.904 21.5702 104.306 21.6698 103.609 21.6698H102.22V20.6854ZM102.22 22.0214V21.0458H103.609C104.423 21.0458 105.097 21.1425 105.63 21.3358C106.163 21.5292 106.582 21.787 106.887 22.1093C107.198 22.4315 107.414 22.786 107.538 23.1727C107.666 23.5536 107.731 23.9344 107.731 24.3153C107.731 24.913 107.628 25.4432 107.423 25.9061C107.224 26.369 106.94 26.7616 106.571 27.0839C106.207 27.4061 105.78 27.6493 105.288 27.8134C104.795 27.9774 104.259 28.0594 103.679 28.0594C103.122 28.0594 102.598 27.9803 102.106 27.8221C101.62 27.6639 101.189 27.4354 100.814 27.1366C100.439 26.8319 100.146 26.4598 99.935 26.0204C99.724 25.5751 99.6186 25.0682 99.6186 24.4999H101.245C101.245 24.9452 101.341 25.3348 101.535 25.6688C101.734 26.0028 102.015 26.2635 102.378 26.451C102.747 26.6327 103.181 26.7235 103.679 26.7235C104.177 26.7235 104.605 26.6385 104.962 26.4686C105.326 26.2928 105.604 26.0292 105.797 25.6776C105.996 25.326 106.096 24.8837 106.096 24.3505C106.096 23.8173 105.985 23.3807 105.762 23.0409C105.539 22.6952 105.223 22.4403 104.813 22.2762C104.409 22.1063 103.931 22.0214 103.38 22.0214H102.22ZM116.239 20.202V31.5399H114.604V18.3739H116.098L116.239 20.202ZM122.646 23.0497V23.2343C122.646 23.9257 122.564 24.5673 122.4 25.1591C122.236 25.745 121.996 26.2548 121.679 26.6884C121.369 27.1219 120.985 27.4589 120.528 27.6991C120.071 27.9393 119.546 28.0594 118.954 28.0594C118.351 28.0594 117.818 27.9598 117.355 27.7606C116.892 27.5614 116.499 27.2714 116.177 26.8905C115.855 26.5096 115.597 26.0526 115.404 25.5194C115.216 24.9862 115.087 24.3856 115.017 23.7177V22.7333C115.087 22.0302 115.219 21.4003 115.413 20.8436C115.606 20.287 115.861 19.8124 116.177 19.4198C116.499 19.0214 116.889 18.7196 117.346 18.5145C117.803 18.3036 118.33 18.1981 118.928 18.1981C119.526 18.1981 120.056 18.3153 120.519 18.5497C120.982 18.7782 121.371 19.1063 121.688 19.5341C122.004 19.9618 122.242 20.4745 122.4 21.0721C122.564 21.6639 122.646 22.3231 122.646 23.0497ZM121.011 23.2343V23.0497C121.011 22.5751 120.961 22.1298 120.862 21.7137C120.762 21.2919 120.607 20.9227 120.396 20.6063C120.191 20.2841 119.927 20.0321 119.605 19.8505C119.283 19.663 118.899 19.5692 118.454 19.5692C118.043 19.5692 117.686 19.6395 117.381 19.7802C117.082 19.9208 116.828 20.1112 116.617 20.3514C116.406 20.5858 116.233 20.8553 116.098 21.16C115.969 21.4589 115.872 21.7694 115.808 22.0917V24.368C115.925 24.7782 116.089 25.1649 116.3 25.5282C116.511 25.8856 116.792 26.1757 117.144 26.3983C117.496 26.6151 117.938 26.7235 118.471 26.7235C118.911 26.7235 119.288 26.6327 119.605 26.451C119.927 26.2635 120.191 26.0087 120.396 25.6864C120.607 25.3641 120.762 24.995 120.862 24.579C120.961 24.1571 121.011 23.7089 121.011 23.2343ZM130.328 26.2577V21.3622C130.328 20.9872 130.251 20.662 130.099 20.3866C129.953 20.1053 129.73 19.8885 129.431 19.7362C129.132 19.5839 128.763 19.5077 128.324 19.5077C127.913 19.5077 127.553 19.578 127.243 19.7186C126.938 19.8593 126.698 20.0438 126.522 20.2723C126.352 20.5009 126.267 20.7469 126.267 21.0106H124.641C124.641 20.6708 124.729 20.3339 124.905 19.9999C125.08 19.6659 125.332 19.3641 125.661 19.0946C125.995 18.8192 126.393 18.6024 126.856 18.4442C127.325 18.2802 127.846 18.1981 128.42 18.1981C129.112 18.1981 129.721 18.3153 130.248 18.5497C130.782 18.7841 131.198 19.1385 131.496 19.6132C131.801 20.0819 131.954 20.6708 131.954 21.3798V25.8094C131.954 26.1259 131.98 26.4628 132.033 26.8202C132.091 27.1776 132.176 27.4852 132.288 27.743V27.8837H130.591C130.509 27.6962 130.445 27.4471 130.398 27.1366C130.351 26.8202 130.328 26.5272 130.328 26.2577ZM130.609 22.118L130.626 23.2606H128.983C128.52 23.2606 128.107 23.2987 127.744 23.3749C127.38 23.4452 127.076 23.5536 126.829 23.7001C126.583 23.8466 126.396 24.0311 126.267 24.2538C126.138 24.4706 126.074 24.7255 126.074 25.0184C126.074 25.3173 126.141 25.5897 126.276 25.8358C126.411 26.0819 126.613 26.2782 126.882 26.4247C127.158 26.5653 127.495 26.6356 127.893 26.6356C128.391 26.6356 128.83 26.5302 129.211 26.3192C129.592 26.1083 129.894 25.8505 130.117 25.5458C130.345 25.2411 130.468 24.9452 130.486 24.6581L131.18 25.4403C131.139 25.6864 131.028 25.9589 130.846 26.2577C130.664 26.5565 130.421 26.8436 130.117 27.119C129.818 27.3885 129.46 27.6141 129.044 27.7958C128.634 27.9716 128.171 28.0594 127.656 28.0594C127.011 28.0594 126.446 27.9335 125.959 27.6815C125.479 27.4296 125.104 27.0927 124.834 26.6708C124.571 26.243 124.439 25.7655 124.439 25.2382C124.439 24.7284 124.538 24.2802 124.738 23.8934C124.937 23.5009 125.224 23.1757 125.599 22.9178C125.974 22.6542 126.425 22.455 126.953 22.3202C127.48 22.1854 128.069 22.118 128.719 22.118H130.609ZM138.062 23.3397H136.313V22.3378H137.93C138.381 22.3378 138.739 22.2821 139.002 22.1708C139.266 22.0536 139.454 21.8925 139.565 21.6874C139.676 21.4823 139.732 21.2421 139.732 20.9667C139.732 20.7206 139.667 20.4891 139.538 20.2723C139.415 20.0497 139.216 19.871 138.941 19.7362C138.665 19.5956 138.296 19.5253 137.833 19.5253C137.458 19.5253 137.119 19.5927 136.814 19.7274C136.509 19.8563 136.266 20.035 136.084 20.2635C135.909 20.4862 135.821 20.7382 135.821 21.0194H134.195C134.195 20.4393 134.359 19.9413 134.687 19.5253C135.021 19.1034 135.463 18.7782 136.014 18.5497C136.571 18.3212 137.177 18.2069 137.833 18.2069C138.384 18.2069 138.876 18.2684 139.31 18.3915C139.749 18.5087 140.121 18.6844 140.426 18.9188C140.731 19.1473 140.962 19.4344 141.121 19.7802C141.285 20.12 141.367 20.5155 141.367 20.9667C141.367 21.2889 141.29 21.5936 141.138 21.8807C140.986 22.1678 140.766 22.4227 140.479 22.6454C140.192 22.8622 139.843 23.0321 139.433 23.1552C139.029 23.2782 138.572 23.3397 138.062 23.3397ZM136.313 22.7245H138.062C138.63 22.7245 139.131 22.7802 139.565 22.8915C139.998 22.9969 140.362 23.1552 140.655 23.3661C140.948 23.577 141.167 23.8378 141.314 24.1483C141.466 24.453 141.542 24.8046 141.542 25.203C141.542 25.6483 141.452 26.0497 141.27 26.4071C141.094 26.7587 140.842 27.0575 140.514 27.3036C140.186 27.5497 139.793 27.7372 139.336 27.8661C138.885 27.995 138.384 28.0594 137.833 28.0594C137.218 28.0594 136.621 27.954 136.04 27.743C135.46 27.5321 134.983 27.2069 134.608 26.7675C134.233 26.3221 134.045 25.7567 134.045 25.0712H135.671C135.671 25.3583 135.762 25.6307 135.944 25.8885C136.125 26.1464 136.377 26.3544 136.7 26.5126C137.028 26.6708 137.406 26.7499 137.833 26.7499C138.29 26.7499 138.671 26.6796 138.976 26.5389C139.281 26.3983 139.509 26.2108 139.662 25.9764C139.82 25.7421 139.899 25.4872 139.899 25.2118C139.899 24.8544 139.829 24.5673 139.688 24.3505C139.547 24.1337 139.33 23.9755 139.038 23.8759C138.75 23.7704 138.381 23.7177 137.93 23.7177H136.313V22.7245ZM149.259 26.2577V21.3622C149.259 20.9872 149.183 20.662 149.031 20.3866C148.884 20.1053 148.662 19.8885 148.363 19.7362C148.064 19.5839 147.695 19.5077 147.255 19.5077C146.845 19.5077 146.485 19.578 146.174 19.7186C145.87 19.8593 145.629 20.0438 145.454 20.2723C145.284 20.5009 145.199 20.7469 145.199 21.0106H143.573C143.573 20.6708 143.661 20.3339 143.836 19.9999C144.012 19.6659 144.264 19.3641 144.592 19.0946C144.926 18.8192 145.325 18.6024 145.788 18.4442C146.256 18.2802 146.778 18.1981 147.352 18.1981C148.043 18.1981 148.653 18.3153 149.18 18.5497C149.713 18.7841 150.129 19.1385 150.428 19.6132C150.733 20.0819 150.885 20.6708 150.885 21.3798V25.8094C150.885 26.1259 150.912 26.4628 150.964 26.8202C151.023 27.1776 151.108 27.4852 151.219 27.743V27.8837H149.523C149.441 27.6962 149.376 27.4471 149.329 27.1366C149.283 26.8202 149.259 26.5272 149.259 26.2577ZM149.54 22.118L149.558 23.2606H147.914C147.452 23.2606 147.038 23.2987 146.675 23.3749C146.312 23.4452 146.007 23.5536 145.761 23.7001C145.515 23.8466 145.328 24.0311 145.199 24.2538C145.07 24.4706 145.005 24.7255 145.005 25.0184C145.005 25.3173 145.073 25.5897 145.207 25.8358C145.342 26.0819 145.544 26.2782 145.814 26.4247C146.089 26.5653 146.426 26.6356 146.825 26.6356C147.323 26.6356 147.762 26.5302 148.143 26.3192C148.524 26.1083 148.826 25.8505 149.048 25.5458C149.277 25.2411 149.4 24.9452 149.417 24.6581L150.112 25.4403C150.071 25.6864 149.959 25.9589 149.778 26.2577C149.596 26.5565 149.353 26.8436 149.048 27.119C148.749 27.3885 148.392 27.6141 147.976 27.7958C147.566 27.9716 147.103 28.0594 146.587 28.0594C145.943 28.0594 145.377 27.9335 144.891 27.6815C144.411 27.4296 144.036 27.0927 143.766 26.6708C143.502 26.243 143.371 25.7655 143.371 25.2382C143.371 24.7284 143.47 24.2802 143.669 23.8934C143.869 23.5009 144.156 23.1757 144.531 22.9178C144.906 22.6542 145.357 22.455 145.884 22.3202C146.412 22.1854 147 22.118 147.651 22.118H149.54ZM159.103 15.0868L153.768 28.9823H152.371L157.714 15.0868H159.103ZM164.684 26.7235C165.071 26.7235 165.428 26.6444 165.756 26.4862C166.084 26.328 166.354 26.1112 166.565 25.8358C166.776 25.5546 166.896 25.2352 166.925 24.8778H168.472C168.443 25.4403 168.252 25.9647 167.901 26.451C167.555 26.9315 167.101 27.3212 166.538 27.62C165.976 27.913 165.358 28.0594 164.684 28.0594C163.969 28.0594 163.345 27.9335 162.812 27.6815C162.285 27.4296 161.845 27.0839 161.494 26.6444C161.148 26.205 160.887 25.701 160.711 25.1327C160.541 24.5585 160.456 23.952 160.456 23.3134V22.9442C160.456 22.3055 160.541 21.702 160.711 21.1337C160.887 20.5594 161.148 20.0526 161.494 19.6132C161.845 19.1737 162.285 18.828 162.812 18.576C163.345 18.3241 163.969 18.1981 164.684 18.1981C165.428 18.1981 166.079 18.3505 166.635 18.6552C167.192 18.954 167.628 19.3641 167.945 19.8856C168.267 20.4012 168.443 20.9872 168.472 21.6434H166.925C166.896 21.2509 166.785 20.8964 166.591 20.58C166.404 20.2635 166.146 20.0116 165.818 19.8241C165.496 19.6307 165.118 19.5341 164.684 19.5341C164.186 19.5341 163.767 19.6337 163.427 19.8329C163.093 20.0262 162.827 20.2899 162.627 20.6239C162.434 20.952 162.293 21.3182 162.205 21.7225C162.123 22.121 162.082 22.5282 162.082 22.9442V23.3134C162.082 23.7294 162.123 24.1395 162.205 24.5438C162.288 24.9481 162.425 25.3143 162.619 25.6425C162.818 25.9706 163.084 26.2343 163.418 26.4335C163.758 26.6268 164.18 26.7235 164.684 26.7235ZM172.972 26.8993L175.618 18.3739H177.358L173.543 29.3514C173.455 29.5858 173.338 29.8378 173.192 30.1073C173.051 30.3827 172.87 30.6434 172.647 30.8895C172.424 31.1356 172.155 31.3348 171.838 31.4872C171.528 31.6454 171.156 31.7245 170.722 31.7245C170.593 31.7245 170.429 31.7069 170.23 31.6718C170.031 31.6366 169.89 31.6073 169.808 31.5839L169.799 30.2655C169.846 30.2714 169.919 30.2772 170.019 30.2831C170.124 30.2948 170.198 30.3007 170.239 30.3007C170.608 30.3007 170.921 30.2509 171.179 30.1512C171.437 30.0575 171.654 29.8964 171.829 29.6678C172.011 29.4452 172.166 29.1376 172.295 28.745L172.972 26.8993ZM171.03 18.3739L173.499 25.7567L173.921 27.4706L172.752 28.0682L169.254 18.3739H171.03ZM182.702 18.3739V27.8837H181.067V18.3739H182.702ZM185.892 18.3739V19.6923H177.938V18.3739H185.892ZM189.258 18.3739V27.8837H187.632V18.3739H189.258ZM195.498 18.3739L190.99 23.8231H188.713L188.467 22.3993H190.33L193.521 18.3739H195.498ZM193.749 27.8837L190.251 23.577L191.297 22.3993L195.815 27.8837H193.749ZM198.988 25.3085L203.373 18.3739H205.008V27.8837H203.373V20.9491L198.988 27.8837H197.371V18.3739H198.988V25.3085Z" fill="#252349"/>
<rect y="50.625" width="255.065" height="42.75" rx="21.375" fill="#CFF5FB"/>
<path d="M57.018 71.3104H58.1781C58.7465 71.3104 59.2152 71.2167 59.5844 71.0292C59.9594 70.8358 60.2377 70.5751 60.4193 70.2469C60.6068 69.913 60.7006 69.538 60.7006 69.1219C60.7006 68.6298 60.6186 68.2167 60.4545 67.8827C60.2904 67.5487 60.0443 67.2968 59.7162 67.1268C59.3881 66.9569 58.9721 66.8719 58.4682 66.8719C58.0111 66.8719 57.6068 66.9628 57.2553 67.1444C56.9096 67.3202 56.6371 67.5721 56.4379 67.9003C56.2445 68.2284 56.1479 68.6151 56.1479 69.0604H54.5219C54.5219 68.41 54.6859 67.8182 55.0141 67.285C55.3422 66.7518 55.8022 66.327 56.394 66.0106C56.9916 65.6942 57.683 65.536 58.4682 65.536C59.2416 65.536 59.9184 65.6737 60.4984 65.9491C61.0785 66.2186 61.5297 66.6229 61.852 67.162C62.1742 67.6952 62.3354 68.3602 62.3354 69.1571C62.3354 69.4794 62.2592 69.8251 62.1068 70.1942C61.9604 70.5575 61.7289 70.8973 61.4125 71.2137C61.102 71.5302 60.6977 71.7909 60.1996 71.996C59.7016 72.1952 59.1039 72.2948 58.4066 72.2948H57.018V71.3104ZM57.018 72.6464V71.6708H58.4066C59.2211 71.6708 59.8949 71.7675 60.4281 71.9608C60.9613 72.1542 61.3803 72.412 61.685 72.7343C61.9955 73.0565 62.2123 73.411 62.3354 73.7977C62.4643 74.1786 62.5287 74.5594 62.5287 74.9403C62.5287 75.538 62.4262 76.0682 62.2211 76.5311C62.0219 76.994 61.7377 77.3866 61.3686 77.7089C61.0053 78.0311 60.5775 78.2743 60.0854 78.4384C59.5932 78.6024 59.057 78.6844 58.477 78.6844C57.9203 78.6844 57.3959 78.6053 56.9037 78.4471C56.4174 78.2889 55.9867 78.0604 55.6117 77.7616C55.2367 77.4569 54.9438 77.0848 54.7328 76.6454C54.5219 76.2001 54.4164 75.6932 54.4164 75.1249H56.0424C56.0424 75.5702 56.1391 75.9598 56.3324 76.2938C56.5316 76.6278 56.8129 76.8885 57.1762 77.076C57.5453 77.2577 57.9789 77.3485 58.477 77.3485C58.975 77.3485 59.4027 77.2635 59.7602 77.0936C60.1234 76.9178 60.4018 76.6542 60.5951 76.3026C60.7943 75.951 60.894 75.5087 60.894 74.9755C60.894 74.4423 60.7826 74.0057 60.56 73.6659C60.3373 73.3202 60.0209 73.0653 59.6107 72.9012C59.2065 72.7313 58.7289 72.6464 58.1781 72.6464H57.018ZM72.8031 71.0907V73.0419C72.8031 74.0907 72.7094 74.9755 72.5219 75.6962C72.3344 76.4169 72.0648 76.9969 71.7133 77.4364C71.3617 77.8759 70.9369 78.1952 70.4389 78.3944C69.9467 78.5878 69.39 78.6844 68.769 78.6844C68.2768 78.6844 67.8227 78.6229 67.4066 78.4999C66.9906 78.3768 66.6156 78.1805 66.2816 77.911C65.9535 77.6356 65.6723 77.2782 65.4379 76.8387C65.2035 76.3993 65.0248 75.8661 64.9018 75.2391C64.7787 74.6122 64.7172 73.8798 64.7172 73.0419V71.0907C64.7172 70.0419 64.8109 69.163 64.9984 68.454C65.1918 67.745 65.4643 67.1766 65.8158 66.7489C66.1674 66.3153 66.5893 66.0048 67.0815 65.8173C67.5795 65.6298 68.1361 65.536 68.7514 65.536C69.2494 65.536 69.7065 65.5975 70.1225 65.7206C70.5443 65.8378 70.9193 66.0282 71.2475 66.2919C71.5756 66.5497 71.8539 66.8954 72.0824 67.329C72.3168 67.7567 72.4955 68.2811 72.6186 68.9022C72.7416 69.5233 72.8031 70.2528 72.8031 71.0907ZM71.1684 73.3055V70.8182C71.1684 70.244 71.1332 69.7401 71.0629 69.3065C70.9984 68.8671 70.9018 68.4921 70.7729 68.1815C70.644 67.871 70.4799 67.619 70.2807 67.4257C70.0873 67.2323 69.8617 67.0917 69.6039 67.0038C69.352 66.91 69.0678 66.8632 68.7514 66.8632C68.3647 66.8632 68.0219 66.9364 67.7231 67.0829C67.4242 67.2235 67.1723 67.4491 66.9672 67.7596C66.768 68.0702 66.6156 68.4774 66.5102 68.9813C66.4047 69.4852 66.352 70.0975 66.352 70.8182V73.3055C66.352 73.8798 66.3842 74.3866 66.4486 74.826C66.519 75.2655 66.6215 75.6464 66.7563 75.9686C66.891 76.285 67.0551 76.5458 67.2484 76.7509C67.4418 76.9559 67.6645 77.1083 67.9164 77.2079C68.1742 77.3016 68.4584 77.3485 68.769 77.3485C69.1674 77.3485 69.516 77.2723 69.8148 77.12C70.1137 76.9677 70.3627 76.7303 70.5619 76.4081C70.767 76.08 70.9193 75.661 71.019 75.1512C71.1186 74.6356 71.1684 74.0204 71.1684 73.3055ZM85.0023 76.3466L88.2367 68.9989H89.8012L85.5648 78.5087H84.4398L80.2211 68.9989H81.7856L85.0023 76.3466ZM81.3109 68.9989V78.5087H79.685V68.9989H81.3109ZM88.641 78.5087V68.9989H90.2758V78.5087H88.641ZM99.0385 68.9989V70.3436H94.644V78.5087H93.018V68.9989H99.0385ZM110.086 65.6415V78.5087H108.46V67.6718L105.182 68.8671V67.3993L109.831 65.6415H110.086ZM121.134 70.827V82.1649H119.499V68.9989H120.994L121.134 70.827ZM127.541 73.6747V73.8593C127.541 74.5507 127.459 75.1923 127.295 75.7841C127.131 76.37 126.891 76.8798 126.575 77.3134C126.264 77.7469 125.88 78.0839 125.423 78.3241C124.966 78.5643 124.442 78.6844 123.85 78.6844C123.246 78.6844 122.713 78.5848 122.25 78.3856C121.788 78.1864 121.395 77.8964 121.073 77.5155C120.75 77.1346 120.493 76.6776 120.299 76.1444C120.112 75.6112 119.983 75.0106 119.913 74.3427V73.3583C119.983 72.6552 120.115 72.0253 120.308 71.4686C120.501 70.912 120.756 70.4374 121.073 70.0448C121.395 69.6464 121.785 69.3446 122.242 69.1395C122.699 68.9286 123.226 68.8231 123.824 68.8231C124.421 68.8231 124.952 68.9403 125.414 69.1747C125.877 69.4032 126.267 69.7313 126.583 70.1591C126.9 70.5868 127.137 71.0995 127.295 71.6971C127.459 72.2889 127.541 72.9481 127.541 73.6747ZM125.907 73.8593V73.6747C125.907 73.2001 125.857 72.7548 125.757 72.3387C125.658 71.9169 125.502 71.5477 125.291 71.2313C125.086 70.9091 124.823 70.6571 124.5 70.4755C124.178 70.288 123.794 70.1942 123.349 70.1942C122.939 70.1942 122.581 70.2645 122.277 70.4052C121.978 70.5458 121.723 70.7362 121.512 70.9764C121.301 71.2108 121.128 71.4803 120.994 71.785C120.865 72.0839 120.768 72.3944 120.704 72.7167V74.993C120.821 75.4032 120.985 75.7899 121.196 76.1532C121.407 76.5106 121.688 76.8007 122.039 77.0233C122.391 77.2401 122.833 77.3485 123.367 77.3485C123.806 77.3485 124.184 77.2577 124.5 77.076C124.823 76.8885 125.086 76.6337 125.291 76.3114C125.502 75.9891 125.658 75.62 125.757 75.204C125.857 74.7821 125.907 74.3339 125.907 73.8593ZM135.223 76.8827V71.9872C135.223 71.6122 135.147 71.287 134.995 71.0116C134.848 70.7303 134.625 70.5135 134.327 70.3612C134.028 70.2089 133.659 70.1327 133.219 70.1327C132.809 70.1327 132.449 70.203 132.138 70.3436C131.833 70.4843 131.593 70.6688 131.417 70.8973C131.247 71.1259 131.163 71.3719 131.163 71.6356H129.537C129.537 71.2958 129.624 70.9589 129.8 70.6249C129.976 70.2909 130.228 69.9891 130.556 69.7196C130.89 69.4442 131.288 69.2274 131.751 69.0692C132.22 68.9052 132.742 68.8231 133.316 68.8231C134.007 68.8231 134.617 68.9403 135.144 69.1747C135.677 69.4091 136.093 69.7635 136.392 70.2382C136.697 70.7069 136.849 71.2958 136.849 72.0048V76.4344C136.849 76.7509 136.875 77.0878 136.928 77.4452C136.987 77.8026 137.072 78.1102 137.183 78.368V78.5087H135.487C135.405 78.3212 135.34 78.0721 135.293 77.7616C135.246 77.4452 135.223 77.1522 135.223 76.8827ZM135.504 72.743L135.522 73.8856H133.878C133.415 73.8856 133.002 73.9237 132.639 73.9999C132.276 74.0702 131.971 74.1786 131.725 74.3251C131.479 74.4716 131.291 74.6561 131.163 74.8788C131.034 75.0956 130.969 75.3505 130.969 75.6434C130.969 75.9423 131.037 76.2147 131.171 76.4608C131.306 76.7069 131.508 76.9032 131.778 77.0497C132.053 77.1903 132.39 77.2606 132.788 77.2606C133.287 77.2606 133.726 77.1552 134.107 76.9442C134.488 76.7333 134.789 76.4755 135.012 76.1708C135.241 75.8661 135.364 75.5702 135.381 75.2831L136.076 76.0653C136.035 76.3114 135.923 76.5839 135.742 76.8827C135.56 77.1815 135.317 77.4686 135.012 77.744C134.713 78.0135 134.356 78.2391 133.94 78.4208C133.53 78.5966 133.067 78.6844 132.551 78.6844C131.907 78.6844 131.341 78.5585 130.855 78.3065C130.374 78.0546 129.999 77.7177 129.73 77.2958C129.466 76.868 129.334 76.3905 129.334 75.8632C129.334 75.3534 129.434 74.9052 129.633 74.5184C129.832 74.1259 130.12 73.8007 130.495 73.5428C130.87 73.2792 131.321 73.08 131.848 72.9452C132.375 72.8104 132.964 72.743 133.615 72.743H135.504ZM142.957 73.9647H141.208V72.9628H142.826C143.277 72.9628 143.634 72.9071 143.898 72.7958C144.162 72.6786 144.349 72.5175 144.46 72.3124C144.572 72.1073 144.627 71.8671 144.627 71.5917C144.627 71.3456 144.563 71.1141 144.434 70.8973C144.311 70.6747 144.112 70.496 143.836 70.3612C143.561 70.2206 143.192 70.1503 142.729 70.1503C142.354 70.1503 142.014 70.2177 141.709 70.3524C141.405 70.4813 141.162 70.66 140.98 70.8885C140.804 71.1112 140.716 71.3632 140.716 71.6444H139.09C139.09 71.0643 139.254 70.5663 139.582 70.1503C139.916 69.7284 140.359 69.4032 140.91 69.1747C141.466 68.9462 142.073 68.8319 142.729 68.8319C143.28 68.8319 143.772 68.8934 144.205 69.0165C144.645 69.1337 145.017 69.3094 145.322 69.5438C145.626 69.7723 145.858 70.0594 146.016 70.4052C146.18 70.745 146.262 71.1405 146.262 71.5917C146.262 71.9139 146.186 72.2186 146.034 72.5057C145.881 72.7928 145.662 73.0477 145.374 73.2704C145.087 73.4872 144.739 73.6571 144.329 73.7802C143.924 73.9032 143.467 73.9647 142.957 73.9647ZM141.208 73.3495H142.957C143.526 73.3495 144.027 73.4052 144.46 73.5165C144.894 73.6219 145.257 73.7802 145.55 73.9911C145.843 74.202 146.063 74.4628 146.209 74.7733C146.362 75.078 146.438 75.4296 146.438 75.828C146.438 76.2733 146.347 76.6747 146.165 77.0321C145.99 77.3837 145.738 77.6825 145.41 77.9286C145.081 78.1747 144.689 78.3622 144.232 78.4911C143.781 78.62 143.28 78.6844 142.729 78.6844C142.114 78.6844 141.516 78.579 140.936 78.368C140.356 78.1571 139.878 77.8319 139.503 77.3925C139.128 76.9471 138.941 76.3817 138.941 75.6962H140.567C140.567 75.9833 140.658 76.2557 140.839 76.5135C141.021 76.7714 141.273 76.9794 141.595 77.1376C141.923 77.2958 142.301 77.3749 142.729 77.3749C143.186 77.3749 143.567 77.3046 143.871 77.1639C144.176 77.0233 144.405 76.8358 144.557 76.6014C144.715 76.3671 144.794 76.1122 144.794 75.8368C144.794 75.4794 144.724 75.1923 144.583 74.9755C144.443 74.7587 144.226 74.6005 143.933 74.5009C143.646 74.3954 143.277 74.3427 142.826 74.3427H141.208V73.3495ZM154.207 65.7118L148.872 79.6073H147.475L152.819 65.7118H154.207ZM159.788 77.3485C160.175 77.3485 160.533 77.2694 160.861 77.1112C161.189 76.953 161.458 76.7362 161.669 76.4608C161.88 76.1796 162 75.8602 162.03 75.5028H163.577C163.547 76.0653 163.357 76.5897 163.005 77.076C162.66 77.5565 162.205 77.9462 161.643 78.245C161.08 78.538 160.462 78.6844 159.788 78.6844C159.074 78.6844 158.45 78.5585 157.916 78.3065C157.389 78.0546 156.95 77.7089 156.598 77.2694C156.252 76.83 155.992 76.326 155.816 75.7577C155.646 75.1835 155.561 74.577 155.561 73.9384V73.5692C155.561 72.9305 155.646 72.327 155.816 71.7587C155.992 71.1844 156.252 70.6776 156.598 70.2382C156.95 69.7987 157.389 69.453 157.916 69.201C158.45 68.9491 159.074 68.8231 159.788 68.8231C160.533 68.8231 161.183 68.9755 161.74 69.2802C162.296 69.579 162.733 69.9891 163.049 70.5106C163.371 71.0262 163.547 71.6122 163.577 72.2684H162.03C162 71.8759 161.889 71.5214 161.696 71.205C161.508 70.8885 161.25 70.6366 160.922 70.4491C160.6 70.2557 160.222 70.1591 159.788 70.1591C159.29 70.1591 158.871 70.2587 158.532 70.4579C158.198 70.6512 157.931 70.9149 157.732 71.2489C157.538 71.577 157.398 71.9432 157.31 72.3475C157.228 72.746 157.187 73.1532 157.187 73.5692V73.9384C157.187 74.3544 157.228 74.7645 157.31 75.1688C157.392 75.5731 157.53 75.9393 157.723 76.2675C157.922 76.5956 158.189 76.8593 158.523 77.0585C158.863 77.2518 159.285 77.3485 159.788 77.3485ZM168.077 77.5243L170.722 68.9989H172.462L168.648 79.9764C168.56 80.2108 168.443 80.4628 168.296 80.7323C168.156 81.0077 167.974 81.2684 167.751 81.5145C167.529 81.7606 167.259 81.9598 166.943 82.1122C166.632 82.2704 166.26 82.3495 165.827 82.3495C165.698 82.3495 165.534 82.3319 165.334 82.2968C165.135 82.2616 164.995 82.2323 164.913 82.2089L164.904 80.8905C164.951 80.8964 165.024 80.9022 165.123 80.9081C165.229 80.9198 165.302 80.9257 165.343 80.9257C165.712 80.9257 166.026 80.8759 166.284 80.7762C166.541 80.6825 166.758 80.5214 166.934 80.2928C167.116 80.0702 167.271 79.7626 167.4 79.37L168.077 77.5243ZM166.134 68.9989L168.604 76.3817L169.026 78.0956L167.857 78.6932L164.359 68.9989H166.134ZM177.806 68.9989V78.5087H176.171V68.9989H177.806ZM180.996 68.9989V70.3173H173.042V68.9989H180.996ZM184.363 68.9989V78.5087H182.737V68.9989H184.363ZM190.603 68.9989L186.094 74.4481H183.818L183.572 73.0243H185.435L188.625 68.9989H190.603ZM188.854 78.5087L185.356 74.202L186.402 73.0243L190.919 78.5087H188.854ZM194.092 75.9335L198.478 68.9989H200.113V78.5087H198.478V71.5741L194.092 78.5087H192.475V68.9989H194.092V75.9335Z" fill="#252349"/>
<rect y="101.25" width="255.065" height="42.75" rx="21.375" fill="#CFF5FB"/>
<path d="M42.1381 121.935H43.2982C43.8666 121.935 44.3354 121.842 44.7045 121.654C45.0795 121.461 45.3578 121.2 45.5395 120.872C45.727 120.538 45.8207 120.163 45.8207 119.747C45.8207 119.255 45.7387 118.842 45.5746 118.508C45.4106 118.174 45.1645 117.922 44.8363 117.752C44.5082 117.582 44.0922 117.497 43.5883 117.497C43.1313 117.497 42.727 117.588 42.3754 117.769C42.0297 117.945 41.7572 118.197 41.558 118.525C41.3647 118.853 41.268 119.24 41.268 119.685H39.642C39.642 119.035 39.8061 118.443 40.1342 117.91C40.4623 117.377 40.9223 116.952 41.5141 116.636C42.1117 116.319 42.8031 116.161 43.5883 116.161C44.3617 116.161 45.0385 116.299 45.6186 116.574C46.1986 116.844 46.6498 117.248 46.9721 117.787C47.2943 118.32 47.4555 118.985 47.4555 119.782C47.4555 120.104 47.3793 120.45 47.227 120.819C47.0805 121.182 46.849 121.522 46.5326 121.839C46.2221 122.155 45.8178 122.416 45.3197 122.621C44.8217 122.82 44.224 122.92 43.5268 122.92H42.1381V121.935ZM42.1381 123.271V122.296H43.5268C44.3412 122.296 45.015 122.392 45.5482 122.586C46.0815 122.779 46.5004 123.037 46.8051 123.359C47.1156 123.682 47.3324 124.036 47.4555 124.423C47.5844 124.804 47.6488 125.184 47.6488 125.565C47.6488 126.163 47.5463 126.693 47.3412 127.156C47.142 127.619 46.8578 128.012 46.4887 128.334C46.1254 128.656 45.6977 128.899 45.2055 129.063C44.7133 129.227 44.1772 129.309 43.5971 129.309C43.0404 129.309 42.516 129.23 42.0238 129.072C41.5375 128.914 41.1068 128.685 40.7318 128.387C40.3568 128.082 40.0639 127.71 39.8529 127.27C39.642 126.825 39.5365 126.318 39.5365 125.75H41.1625C41.1625 126.195 41.2592 126.585 41.4525 126.919C41.6518 127.253 41.933 127.514 42.2963 127.701C42.6654 127.883 43.099 127.974 43.5971 127.974C44.0951 127.974 44.5229 127.889 44.8803 127.719C45.2436 127.543 45.5219 127.279 45.7152 126.928C45.9145 126.576 46.0141 126.134 46.0141 125.6C46.0141 125.067 45.9027 124.631 45.6801 124.291C45.4574 123.945 45.141 123.69 44.7309 123.526C44.3266 123.356 43.849 123.271 43.2982 123.271H42.1381ZM57.9232 121.716V123.667C57.9232 124.716 57.8295 125.6 57.642 126.321C57.4545 127.042 57.185 127.622 56.8334 128.061C56.4818 128.501 56.057 128.82 55.559 129.019C55.0668 129.213 54.5102 129.309 53.8891 129.309C53.3969 129.309 52.9428 129.248 52.5268 129.125C52.1107 129.002 51.7357 128.806 51.4018 128.536C51.0736 128.261 50.7924 127.903 50.558 127.464C50.3236 127.024 50.1449 126.491 50.0219 125.864C49.8988 125.237 49.8373 124.505 49.8373 123.667V121.716C49.8373 120.667 49.9311 119.788 50.1186 119.079C50.3119 118.37 50.5844 117.802 50.9359 117.374C51.2875 116.94 51.7094 116.63 52.2016 116.442C52.6996 116.255 53.2563 116.161 53.8715 116.161C54.3695 116.161 54.8266 116.223 55.2426 116.346C55.6645 116.463 56.0395 116.653 56.3676 116.917C56.6957 117.175 56.974 117.52 57.2025 117.954C57.4369 118.382 57.6156 118.906 57.7387 119.527C57.8617 120.148 57.9232 120.878 57.9232 121.716ZM56.2885 123.931V121.443C56.2885 120.869 56.2533 120.365 56.183 119.932C56.1186 119.492 56.0219 119.117 55.893 118.807C55.7641 118.496 55.6 118.244 55.4008 118.051C55.2074 117.857 54.9818 117.717 54.724 117.629C54.4721 117.535 54.1879 117.488 53.8715 117.488C53.4848 117.488 53.142 117.561 52.8432 117.708C52.5443 117.849 52.2924 118.074 52.0873 118.385C51.8881 118.695 51.7357 119.102 51.6303 119.606C51.5248 120.11 51.4721 120.723 51.4721 121.443V123.931C51.4721 124.505 51.5043 125.012 51.5688 125.451C51.6391 125.891 51.7416 126.271 51.8764 126.594C52.0111 126.91 52.1752 127.171 52.3686 127.376C52.5619 127.581 52.7846 127.733 53.0365 127.833C53.2943 127.927 53.5785 127.974 53.8891 127.974C54.2875 127.974 54.6361 127.897 54.935 127.745C55.2338 127.593 55.4828 127.355 55.682 127.033C55.8871 126.705 56.0395 126.286 56.1391 125.776C56.2387 125.261 56.2885 124.645 56.2885 123.931ZM70.1225 126.972L73.3568 119.624H74.9213L70.685 129.134H69.56L65.3412 119.624H66.9057L70.1225 126.972ZM66.4311 119.624V129.134H64.8051V119.624H66.4311ZM73.7611 129.134V119.624H75.3959V129.134H73.7611ZM84.1586 119.624V120.969H79.7641V129.134H78.1381V119.624H84.1586ZM98.2475 127.798V129.134H89.8715V127.965L94.0639 123.298C94.5795 122.724 94.9779 122.237 95.2592 121.839C95.5463 121.434 95.7455 121.074 95.8568 120.758C95.974 120.435 96.0326 120.107 96.0326 119.773C96.0326 119.351 95.9447 118.971 95.769 118.631C95.599 118.285 95.3471 118.01 95.0131 117.805C94.6791 117.599 94.2748 117.497 93.8002 117.497C93.2318 117.497 92.7572 117.608 92.3764 117.831C92.0014 118.048 91.7201 118.352 91.5326 118.745C91.3451 119.138 91.2514 119.589 91.2514 120.099H89.6254C89.6254 119.378 89.7836 118.719 90.1 118.121C90.4164 117.523 90.8852 117.049 91.5063 116.697C92.1273 116.34 92.892 116.161 93.8002 116.161C94.6088 116.161 95.3002 116.305 95.8744 116.592C96.4486 116.873 96.8881 117.271 97.1928 117.787C97.5033 118.297 97.6586 118.894 97.6586 119.58C97.6586 119.955 97.5941 120.336 97.4652 120.723C97.3422 121.103 97.1693 121.484 96.9467 121.865C96.7299 122.246 96.475 122.621 96.182 122.99C95.8949 123.359 95.5873 123.723 95.2592 124.08L91.8315 127.798H98.2475ZM106.254 121.452V132.79H104.62V119.624H106.114L106.254 121.452ZM112.662 124.3V124.484C112.662 125.176 112.579 125.817 112.415 126.409C112.251 126.995 112.011 127.505 111.695 127.938C111.384 128.372 111 128.709 110.543 128.949C110.086 129.189 109.562 129.309 108.97 129.309C108.367 129.309 107.833 129.21 107.371 129.011C106.908 128.811 106.515 128.521 106.193 128.141C105.871 127.76 105.613 127.303 105.419 126.769C105.232 126.236 105.103 125.636 105.033 124.968V123.983C105.103 123.28 105.235 122.65 105.428 122.094C105.621 121.537 105.876 121.062 106.193 120.67C106.515 120.271 106.905 119.97 107.362 119.765C107.819 119.554 108.346 119.448 108.944 119.448C109.541 119.448 110.072 119.565 110.535 119.8C110.997 120.028 111.387 120.356 111.704 120.784C112.02 121.212 112.257 121.724 112.415 122.322C112.579 122.914 112.662 123.573 112.662 124.3ZM111.027 124.484V124.3C111.027 123.825 110.977 123.38 110.877 122.964C110.778 122.542 110.622 122.173 110.412 121.856C110.206 121.534 109.943 121.282 109.621 121.1C109.298 120.913 108.914 120.819 108.469 120.819C108.059 120.819 107.702 120.89 107.397 121.03C107.098 121.171 106.843 121.361 106.632 121.601C106.421 121.836 106.248 122.105 106.114 122.41C105.985 122.709 105.888 123.019 105.824 123.342V125.618C105.941 126.028 106.105 126.415 106.316 126.778C106.527 127.136 106.808 127.426 107.16 127.648C107.511 127.865 107.954 127.974 108.487 127.974C108.926 127.974 109.304 127.883 109.621 127.701C109.943 127.514 110.206 127.259 110.412 126.936C110.622 126.614 110.778 126.245 110.877 125.829C110.977 125.407 111.027 124.959 111.027 124.484ZM120.343 127.508V122.612C120.343 122.237 120.267 121.912 120.115 121.637C119.968 121.355 119.746 121.139 119.447 120.986C119.148 120.834 118.779 120.758 118.339 120.758C117.929 120.758 117.569 120.828 117.258 120.969C116.954 121.109 116.713 121.294 116.538 121.522C116.368 121.751 116.283 121.997 116.283 122.261H114.657C114.657 121.921 114.745 121.584 114.92 121.25C115.096 120.916 115.348 120.614 115.676 120.345C116.01 120.069 116.409 119.852 116.871 119.694C117.34 119.53 117.862 119.448 118.436 119.448C119.127 119.448 119.737 119.565 120.264 119.8C120.797 120.034 121.213 120.389 121.512 120.863C121.817 121.332 121.969 121.921 121.969 122.63V127.059C121.969 127.376 121.996 127.713 122.048 128.07C122.107 128.428 122.192 128.735 122.303 128.993V129.134H120.607C120.525 128.946 120.46 128.697 120.413 128.387C120.367 128.07 120.343 127.777 120.343 127.508ZM120.624 123.368L120.642 124.511H118.998C118.536 124.511 118.122 124.549 117.759 124.625C117.396 124.695 117.091 124.804 116.845 124.95C116.599 125.097 116.412 125.281 116.283 125.504C116.154 125.721 116.089 125.975 116.089 126.268C116.089 126.567 116.157 126.84 116.291 127.086C116.426 127.332 116.628 127.528 116.898 127.675C117.173 127.815 117.51 127.886 117.909 127.886C118.407 127.886 118.846 127.78 119.227 127.569C119.608 127.358 119.91 127.1 120.132 126.796C120.361 126.491 120.484 126.195 120.501 125.908L121.196 126.69C121.155 126.936 121.043 127.209 120.862 127.508C120.68 127.807 120.437 128.094 120.132 128.369C119.833 128.639 119.476 128.864 119.06 129.046C118.65 129.222 118.187 129.309 117.671 129.309C117.027 129.309 116.461 129.183 115.975 128.932C115.495 128.68 115.12 128.343 114.85 127.921C114.586 127.493 114.454 127.016 114.454 126.488C114.454 125.978 114.554 125.53 114.753 125.143C114.953 124.751 115.24 124.426 115.615 124.168C115.99 123.904 116.441 123.705 116.968 123.57C117.496 123.435 118.084 123.368 118.735 123.368H120.624ZM128.078 124.59H126.329V123.588H127.946C128.397 123.588 128.754 123.532 129.018 123.421C129.282 123.304 129.469 123.142 129.58 122.937C129.692 122.732 129.747 122.492 129.747 122.217C129.747 121.971 129.683 121.739 129.554 121.522C129.431 121.3 129.232 121.121 128.956 120.986C128.681 120.846 128.312 120.775 127.849 120.775C127.474 120.775 127.134 120.843 126.829 120.977C126.525 121.106 126.282 121.285 126.1 121.514C125.924 121.736 125.836 121.988 125.836 122.269H124.21C124.21 121.689 124.374 121.191 124.703 120.775C125.037 120.353 125.479 120.028 126.03 119.8C126.586 119.571 127.193 119.457 127.849 119.457C128.4 119.457 128.892 119.518 129.326 119.641C129.765 119.759 130.137 119.934 130.442 120.169C130.746 120.397 130.978 120.684 131.136 121.03C131.3 121.37 131.382 121.766 131.382 122.217C131.382 122.539 131.306 122.844 131.154 123.131C131.001 123.418 130.782 123.673 130.495 123.895C130.207 124.112 129.859 124.282 129.449 124.405C129.044 124.528 128.587 124.59 128.078 124.59ZM126.329 123.974H128.078C128.646 123.974 129.147 124.03 129.58 124.141C130.014 124.247 130.377 124.405 130.67 124.616C130.963 124.827 131.183 125.088 131.329 125.398C131.482 125.703 131.558 126.055 131.558 126.453C131.558 126.898 131.467 127.3 131.286 127.657C131.11 128.009 130.858 128.307 130.53 128.554C130.202 128.8 129.809 128.987 129.352 129.116C128.901 129.245 128.4 129.309 127.849 129.309C127.234 129.309 126.636 129.204 126.056 128.993C125.476 128.782 124.998 128.457 124.623 128.017C124.248 127.572 124.061 127.007 124.061 126.321H125.687C125.687 126.608 125.778 126.881 125.959 127.139C126.141 127.396 126.393 127.604 126.715 127.763C127.043 127.921 127.421 128 127.849 128C128.306 128 128.687 127.93 128.992 127.789C129.296 127.648 129.525 127.461 129.677 127.226C129.835 126.992 129.914 126.737 129.914 126.462C129.914 126.104 129.844 125.817 129.704 125.6C129.563 125.384 129.346 125.225 129.053 125.126C128.766 125.02 128.397 124.968 127.946 124.968H126.329V123.974ZM139.275 127.508V122.612C139.275 122.237 139.199 121.912 139.046 121.637C138.9 121.355 138.677 121.139 138.378 120.986C138.079 120.834 137.71 120.758 137.271 120.758C136.861 120.758 136.5 120.828 136.19 120.969C135.885 121.109 135.645 121.294 135.469 121.522C135.299 121.751 135.214 121.997 135.214 122.261H133.588C133.588 121.921 133.676 121.584 133.852 121.25C134.028 120.916 134.28 120.614 134.608 120.345C134.942 120.069 135.34 119.852 135.803 119.694C136.272 119.53 136.793 119.448 137.368 119.448C138.059 119.448 138.668 119.565 139.196 119.8C139.729 120.034 140.145 120.389 140.444 120.863C140.748 121.332 140.901 121.921 140.901 122.63V127.059C140.901 127.376 140.927 127.713 140.98 128.07C141.038 128.428 141.123 128.735 141.235 128.993V129.134H139.538C139.456 128.946 139.392 128.697 139.345 128.387C139.298 128.07 139.275 127.777 139.275 127.508ZM139.556 123.368L139.574 124.511H137.93C137.467 124.511 137.054 124.549 136.691 124.625C136.328 124.695 136.023 124.804 135.777 124.95C135.531 125.097 135.343 125.281 135.214 125.504C135.085 125.721 135.021 125.975 135.021 126.268C135.021 126.567 135.088 126.84 135.223 127.086C135.358 127.332 135.56 127.528 135.829 127.675C136.105 127.815 136.442 127.886 136.84 127.886C137.338 127.886 137.778 127.78 138.159 127.569C138.539 127.358 138.841 127.1 139.064 126.796C139.292 126.491 139.415 126.195 139.433 125.908L140.127 126.69C140.086 126.936 139.975 127.209 139.793 127.508C139.612 127.807 139.369 128.094 139.064 128.369C138.765 128.639 138.408 128.864 137.992 129.046C137.581 129.222 137.119 129.309 136.603 129.309C135.958 129.309 135.393 129.183 134.907 128.932C134.426 128.68 134.051 128.343 133.782 127.921C133.518 127.493 133.386 127.016 133.386 126.488C133.386 125.978 133.486 125.53 133.685 125.143C133.884 124.751 134.171 124.426 134.546 124.168C134.921 123.904 135.372 123.705 135.9 123.57C136.427 123.435 137.016 123.368 137.666 123.368H139.556ZM149.119 116.337L143.784 130.232H142.386L147.73 116.337H149.119ZM154.7 127.974C155.086 127.974 155.444 127.894 155.772 127.736C156.1 127.578 156.37 127.361 156.58 127.086C156.791 126.805 156.912 126.485 156.941 126.128H158.488C158.458 126.69 158.268 127.215 157.916 127.701C157.571 128.182 157.117 128.571 156.554 128.87C155.992 129.163 155.373 129.309 154.7 129.309C153.985 129.309 153.361 129.183 152.828 128.932C152.3 128.68 151.861 128.334 151.509 127.894C151.163 127.455 150.903 126.951 150.727 126.383C150.557 125.808 150.472 125.202 150.472 124.563V124.194C150.472 123.556 150.557 122.952 150.727 122.384C150.903 121.809 151.163 121.303 151.509 120.863C151.861 120.424 152.3 120.078 152.828 119.826C153.361 119.574 153.985 119.448 154.7 119.448C155.444 119.448 156.094 119.6 156.651 119.905C157.207 120.204 157.644 120.614 157.96 121.136C158.283 121.651 158.458 122.237 158.488 122.893H156.941C156.912 122.501 156.8 122.146 156.607 121.83C156.419 121.514 156.162 121.262 155.833 121.074C155.511 120.881 155.133 120.784 154.7 120.784C154.202 120.784 153.783 120.884 153.443 121.083C153.109 121.276 152.842 121.54 152.643 121.874C152.45 122.202 152.309 122.568 152.221 122.973C152.139 123.371 152.098 123.778 152.098 124.194V124.563C152.098 124.979 152.139 125.39 152.221 125.794C152.303 126.198 152.441 126.564 152.634 126.892C152.833 127.221 153.1 127.484 153.434 127.683C153.774 127.877 154.196 127.974 154.7 127.974ZM162.988 128.149L165.633 119.624H167.373L163.559 130.601C163.471 130.836 163.354 131.088 163.207 131.357C163.067 131.633 162.885 131.893 162.663 132.14C162.44 132.386 162.17 132.585 161.854 132.737C161.543 132.895 161.171 132.974 160.738 132.974C160.609 132.974 160.445 132.957 160.246 132.922C160.046 132.887 159.906 132.857 159.824 132.834L159.815 131.516C159.862 131.521 159.935 131.527 160.035 131.533C160.14 131.545 160.213 131.551 160.254 131.551C160.623 131.551 160.937 131.501 161.195 131.401C161.453 131.307 161.669 131.146 161.845 130.918C162.027 130.695 162.182 130.388 162.311 129.995L162.988 128.149ZM161.045 119.624L163.515 127.007L163.937 128.721L162.768 129.318L159.27 119.624H161.045ZM172.717 119.624V129.134H171.082V119.624H172.717ZM175.908 119.624V120.942H167.954V119.624H175.908ZM179.274 119.624V129.134H177.648V119.624H179.274ZM185.514 119.624L181.005 125.073H178.729L178.483 123.649H180.346L183.537 119.624H185.514ZM183.765 129.134L180.267 124.827L181.313 123.649L185.83 129.134H183.765ZM189.003 126.558L193.389 119.624H195.024V129.134H193.389V122.199L189.003 129.134H187.386V119.624H189.003V126.558ZM201.994 122.911L203.76 120.485L201.106 119.694L201.519 118.376L204.173 119.351L204.094 116.328H205.43L205.342 119.404L207.961 118.429L208.366 119.773L205.667 120.573L207.399 122.955L206.309 123.772L204.683 121.241L203.092 123.711L201.994 122.911ZM209.746 122.911L211.512 120.485L208.858 119.694L209.271 118.376L211.925 119.351L211.846 116.328H213.182L213.094 119.404L215.713 118.429L216.118 119.773L213.419 120.573L215.151 122.955L214.061 123.772L212.435 121.241L210.844 123.711L209.746 122.911Z" fill="#252349"/>
<path d="M264.219 20.5776C263.777 21.0174 263.777 21.7326 264.219 22.1724L269.411 27.3403C270.121 28.0465 271.33 27.544 271.33 26.543L271.33 16.207C271.33 15.206 270.121 14.7035 269.411 15.4097L264.219 20.5776Z" fill="#492BA0"/>
<path d="M271.467 24.75L280.096 24.75C280.717 24.75 281.221 24.2463 281.221 23.625L281.221 19.125C281.221 18.5037 280.717 18 280.096 18L271.467 18C270.845 18 270.342 18.5037 270.342 19.125L270.342 23.625C270.342 24.2463 270.845 24.75 271.467 24.75Z" fill="#492BA0"/>
<path d="M264.219 71.2026C263.777 71.6424 263.777 72.3576 264.219 72.7974L269.411 77.9653C270.121 78.6715 271.33 78.169 271.33 77.168L271.33 66.832C271.33 65.831 270.121 65.3285 269.411 66.0347L264.219 71.2026Z" fill="#492BA0"/>
<path d="M271.467 75.375L280.096 75.375C280.717 75.375 281.221 74.8713 281.221 74.25L281.221 69.75C281.221 69.1287 280.717 68.625 280.096 68.625L271.467 68.625C270.845 68.625 270.342 69.1287 270.342 69.75L270.342 74.25C270.342 74.8713 270.845 75.375 271.467 75.375Z" fill="#492BA0"/>
<path d="M264.219 121.828C263.777 122.267 263.777 122.983 264.219 123.422L269.411 128.59C270.121 129.297 271.33 128.794 271.33 127.793L271.33 117.457C271.33 116.456 270.121 115.954 269.411 116.66L264.219 121.828Z" fill="#492BA0"/>
<path d="M271.467 126L280.096 126C280.717 126 281.221 125.496 281.221 124.875L281.221 120.375C281.221 119.754 280.717 119.25 280.096 119.25L271.467 119.25C270.845 119.25 270.342 119.754 270.342 120.375L270.342 124.875C270.342 125.496 270.845 126 271.467 126Z" fill="#492BA0"/>
</svg>
