<svg width="160" height="26" viewBox="0 0 160 26" fill="none" xmlns="http://www.w3.org/2000/svg">
<g clip-path="url(#clip0_12_1750)">
<path d="M24.329 24.6411C24.8067 24.5379 24.9329 23.996 24.9329 23.5058C24.9329 23.0155 24.8158 22.4995 24.329 22.3791V24.6325V24.6411ZM23.9234 22.3877C23.4456 22.4995 23.3194 23.0499 23.3194 23.5144C23.3194 23.9788 23.4456 24.5379 23.9234 24.6497V22.3963V22.3877ZM24.338 20.9772V22.0867C24.951 22.1641 25.3656 22.6199 25.3656 23.523C25.3656 24.4261 24.969 24.8819 24.338 24.9507V26.0086H23.9144V24.9507C23.2924 24.8905 22.8867 24.4261 22.8867 23.523C22.8867 22.6199 23.2924 22.1727 23.9144 22.0953V20.9772H24.338Z" fill="#221F20"/>
<path d="M27.3578 22.1211V22.4909H26.6997V24.8991H26.231V22.4909H25.573V22.1211H27.3578Z" fill="#221F20"/>
<path d="M27.9707 23.5144C27.9707 23.9702 28.0518 24.5981 28.4755 24.5981C28.8721 24.5981 28.9532 23.9444 28.9532 23.5144C28.9532 23.0844 28.8721 22.4307 28.4575 22.4307C28.0428 22.4307 27.9617 23.0844 27.9617 23.5144M29.413 23.5144C29.413 24.5895 28.8991 24.9507 28.4394 24.9507C27.9166 24.9507 27.493 24.4949 27.493 23.523C27.493 22.5511 27.9707 22.0867 28.4665 22.0867C28.9622 22.0867 29.4039 22.5511 29.4039 23.5144" fill="#221F20"/>
<path d="M30.3955 23.8842C30.3955 23.9616 30.3955 24.0476 30.4225 24.1164C30.5127 24.5121 30.72 24.5809 30.8462 24.5809C31.2338 24.5809 31.36 24.0734 31.36 23.5144C31.36 22.9553 31.2158 22.4565 30.8462 22.4565C30.6389 22.4565 30.4406 22.7059 30.4225 22.9553C30.4135 23.0155 30.4045 23.093 30.4045 23.1704V23.8842H30.3955ZM29.9358 22.9897C29.9358 22.5683 29.9177 22.3189 29.9087 22.1211H30.3144L30.3414 22.4737H30.3504C30.5127 22.1813 30.738 22.0781 30.9724 22.0781C31.4862 22.0781 31.8107 22.5855 31.8107 23.5058C31.8107 24.5379 31.369 24.9507 30.9093 24.9507C30.6298 24.9507 30.4766 24.7873 30.3955 24.6325H30.3865V26.0086H29.9268V22.9897H29.9358Z" fill="#221F20"/>
<path d="M32.4327 22.1211H32.9735L33.3611 23.3424C33.4603 23.6692 33.5324 23.8928 33.6225 24.2283H33.6316C33.7307 23.8756 33.7848 23.6692 33.8749 23.3424L34.2445 22.1211H34.7944L34.9927 24.8991H34.56L34.4969 23.7036C34.4789 23.3338 34.4699 23.0672 34.4518 22.5339H34.4428C34.3707 22.8177 34.2715 23.1962 34.1544 23.6004L33.7577 24.8819H33.4242L33.0456 23.6434C32.9285 23.2564 32.8293 22.8607 32.7482 22.5253H32.7301C32.7301 22.9639 32.7121 23.3252 32.6941 23.7208L32.64 24.8905H32.2163L32.4237 22.1125L32.4327 22.1211Z" fill="#221F20"/>
<path d="M36.7865 23.222C36.7865 22.6715 36.5792 22.4221 36.3538 22.4221C36.0473 22.4221 35.8941 22.8435 35.8761 23.222H36.7865ZM35.8761 23.5488C35.8761 24.4089 36.2276 24.5809 36.5611 24.5809C36.7685 24.5809 36.9307 24.5379 37.0389 24.4777L37.12 24.7959C36.9577 24.8733 36.7144 24.9249 36.48 24.9249C35.7859 24.9249 35.4254 24.3831 35.4254 23.5316C35.4254 22.6371 35.831 22.0695 36.4079 22.0695C36.9848 22.0695 37.2372 22.6629 37.2372 23.2908C37.2372 23.4026 37.2372 23.4714 37.2282 23.5402H35.8761V23.5488Z" fill="#221F20"/>
<path d="M39.2203 22.1211V22.4909H38.5622V24.8991H38.0935V22.4909H37.4355V22.1211H39.2203Z" fill="#221F20"/>
<path d="M39.8332 23.5144C39.8332 23.9702 39.9144 24.5981 40.338 24.5981C40.7347 24.5981 40.8158 23.9444 40.8158 23.5144C40.8158 23.0844 40.7347 22.4307 40.32 22.4307C39.9054 22.4307 39.8242 23.0844 39.8242 23.5144M41.2755 23.5144C41.2755 24.5895 40.7527 24.9507 40.302 24.9507C39.7792 24.9507 39.3555 24.4949 39.3555 23.523C39.3555 22.5511 39.8332 22.0867 40.329 22.0867C40.8248 22.0867 41.2665 22.5511 41.2665 23.5144" fill="#221F20"/>
<path d="M43.484 22.1211V24.8991H43.0242V22.4823H42.3842V23.3682C42.3842 24.1508 42.3211 24.6755 41.8975 24.8819C41.7983 24.9249 41.6902 24.9421 41.582 24.9421L41.5009 24.5895C41.618 24.5723 41.6902 24.5207 41.7442 24.4605C41.9155 24.2971 41.9425 23.9014 41.9425 23.394V22.1211H43.484Z" fill="#221F20"/>
<path d="M44.4665 23.5144C44.4665 23.9702 44.5476 24.5981 44.9713 24.5981C45.3679 24.5981 45.449 23.9444 45.449 23.5144C45.449 23.0844 45.3679 22.4307 44.9532 22.4307C44.5386 22.4307 44.4575 23.0844 44.4575 23.5144M45.9087 23.5144C45.9087 24.5895 45.3949 24.9507 44.9352 24.9507C44.4124 24.9507 43.9887 24.4949 43.9887 23.523C43.9887 22.5511 44.4665 22.0867 44.9623 22.0867C45.458 22.0867 45.8997 22.5511 45.8997 23.5144" fill="#221F20"/>
<path d="M46.9003 22.1211V23.2994H47.7656V22.1211H48.2253V24.8991H47.7656V23.6778H46.9003V24.8991H46.4406V22.1211H46.9003Z" fill="#221F20"/>
<path d="M51.0828 22.9123C51.0828 23.8154 51.2361 24.4433 51.6237 24.4433C52.0113 24.4433 52.1465 23.8068 52.1465 22.9123C52.1465 22.0179 51.9932 21.3814 51.6237 21.3814C51.2541 21.3814 51.0828 22.0093 51.0828 22.9123ZM52.6152 22.9123C52.6152 24.2713 52.1645 24.8303 51.5966 24.8303C50.9927 24.8303 50.6231 24.1422 50.6231 22.9209C50.6231 21.6996 51.0107 21.003 51.6507 21.003C52.2907 21.003 52.6152 21.7168 52.6152 22.9123Z" fill="#221F20"/>
<path d="M52.8766 25.5012C53.0028 25.1657 53.1651 24.5551 53.2282 24.1594L53.751 24.0992C53.6158 24.5637 53.3634 25.2001 53.2011 25.4582L52.8856 25.5012H52.8766Z" fill="#221F20"/>
<path d="M55.0761 21.4932H55.058L54.409 21.8545L54.3189 21.5018L55.1482 21.046H55.5268V24.7787H55.0761V21.4932Z" fill="#221F20"/>
<mask id="mask0_12_1750" style="mask-type:luminance" maskUnits="userSpaceOnUse" x="0" y="0" width="160" height="26">
<path d="M160 0H0V26H160V0Z" fill="white"/>
</mask>
<g mask="url(#mask0_12_1750)">
<path d="M58.844 23.6864C58.844 24.0734 58.9341 24.5379 59.2316 24.5379C59.529 24.5379 59.6101 24.0648 59.6101 23.6864C59.6101 23.308 59.547 22.8263 59.2225 22.8263C58.9251 22.8263 58.853 23.2994 58.853 23.6864M59.9707 23.6864C59.9707 24.4691 59.6102 24.8217 59.2406 24.8217C58.8079 24.8217 58.5014 24.4003 58.5014 23.695C58.5014 22.9897 58.8259 22.5597 59.2496 22.5597C59.6733 22.5597 59.9797 23.0069 59.9797 23.695M57.0231 24.8647L59.1054 20.9772H59.4028L57.3206 24.8647H57.0231ZM56.8158 22.1383C56.8158 22.5253 56.8969 22.9897 57.2034 22.9897C57.5099 22.9897 57.582 22.5167 57.582 22.1383C57.582 21.7598 57.5189 21.2782 57.1944 21.2782C56.8969 21.2782 56.8248 21.7512 56.8248 22.1383M57.9425 22.1383C57.9425 22.9295 57.582 23.2736 57.2034 23.2736C56.7707 23.2736 56.4642 22.8435 56.4642 22.1469C56.4642 21.4502 56.7887 21.0116 57.2124 21.0116C57.6361 21.0116 57.9425 21.4502 57.9425 22.1383Z" fill="#221F20"/>
<path d="M32.0631 13.4687C33.3431 13.3225 34.9566 12.127 34.9566 8.71254C34.9566 5.29805 33.4242 4.11975 32.0631 3.93053V13.4773V13.4687ZM29.0344 3.92193C27.7544 4.11115 26.1408 5.33245 26.1408 8.75554C26.1408 11.912 27.7363 13.3053 29.0344 13.4687V3.92193ZM32.0811 0V1.41052C35.1639 1.67714 38.2107 3.68111 38.2107 8.70394C38.2107 13.7268 35.227 15.6877 32.036 16.0232V17.4853H29.0163V16.0232C25.8884 15.7565 22.8867 13.7784 22.8867 8.82435C22.8867 3.87033 26.267 1.66854 29.0614 1.41052V0L32.0811 0Z" fill="#221F20"/>
</g>
<path d="M50.9115 0.696659V16.8144H47.6755V3.68111H44.4214V7.50844C44.4214 11.6454 43.9527 14.8535 41.7803 16.2898C41.0591 16.7456 40.0766 17.081 38.9318 17.081L38.5262 14.1396C39.2293 14.045 39.8062 13.7096 40.1667 13.2795C41.0411 12.2732 41.2575 10.1919 41.2575 7.75786V0.696659H50.9206H50.9115Z" fill="#221F20"/>
<path d="M56.5093 8.78134C56.5093 11.9636 57.8253 14.1826 59.9977 14.1826C62.1701 14.1826 63.4501 11.8432 63.4501 8.70394C63.4501 5.78829 62.2332 3.29408 59.9977 3.29408C57.7622 3.29408 56.5093 5.64208 56.5093 8.77274M66.8755 8.58353C66.8755 13.8902 64.0451 17.0724 59.8265 17.0724C55.6079 17.0724 53.0749 13.4601 53.0749 8.84155C53.0749 4.22296 55.8513 0.404236 60.0698 0.404236C64.2884 0.404236 66.8845 4.11115 66.8845 8.58353" fill="#221F20"/>
<path d="M75.5741 9.95104L74.6817 6.52795C74.4293 5.57327 74.1679 4.37777 73.9606 3.41449H73.9155C73.6992 4.36917 73.4918 5.59047 73.2575 6.52795L72.4101 9.95104H75.5831H75.5741ZM71.9324 12.6775L70.9138 16.8144H67.5696L71.9324 0.696659H76.1961L80.667 16.8144H77.1515L76.0428 12.6775H71.9324Z" fill="#221F20"/>
<path d="M92.5476 16.3844C91.9707 16.694 90.6096 17.081 88.8879 17.081C83.9302 17.081 81.3701 13.5892 81.3701 8.99636C81.3701 3.49189 84.8586 0.455837 89.2034 0.455837C90.889 0.455837 92.16 0.817068 92.7369 1.1697L92.0518 4.04234C91.4118 3.73271 90.4924 3.44889 89.3296 3.44889C86.7696 3.44889 84.7775 5.19484 84.7775 8.78134C84.7775 12.0066 86.4811 14.045 89.3566 14.045C90.3572 14.045 91.4209 13.83 92.0879 13.5203L92.5566 16.393L92.5476 16.3844Z" fill="#221F20"/>
<path d="M111.144 10.6477C111.081 8.71254 111.017 6.36454 111.017 4.02514H110.972C110.504 6.08072 109.909 8.37711 109.35 10.2693L107.601 16.5564H105.068L103.536 10.3381C103.067 8.42872 102.598 6.13232 102.238 4.02514H102.193C102.13 6.20113 102.039 8.68674 101.958 10.6993L101.679 16.823H98.6772L99.5966 0.705261H103.914L105.321 6.08932C105.789 7.95567 106.213 9.96825 106.537 11.8518H106.619C107.006 9.98545 107.493 7.86107 107.98 6.06351L109.494 0.705261H113.749L114.515 16.823H111.36L111.126 10.6477H111.144Z" fill="#221F20"/>
<path d="M119.689 8.78134C119.689 11.9636 121.005 14.1826 123.177 14.1826C125.35 14.1826 126.63 11.8432 126.63 8.70394C126.63 5.78829 125.413 3.29408 123.177 3.29408C120.942 3.29408 119.689 5.64208 119.689 8.77274M130.055 8.58353C130.055 13.8902 127.225 17.0724 123.006 17.0724C118.788 17.0724 116.255 13.4601 116.255 8.84155C116.255 4.22296 119.022 0.395634 123.241 0.395634C127.459 0.395634 130.055 4.10255 130.055 8.57493" fill="#221F20"/>
<path d="M135.446 0.696659V6.88918H140.791V0.696659H144.027V16.8144H140.791V10.0715H135.446V16.8144H132.21V0.696659H135.446Z" fill="#221F20"/>
<path d="M149.634 8.78134C149.634 11.9636 150.95 14.1826 153.122 14.1826C155.295 14.1826 156.575 11.8432 156.575 8.70394C156.575 5.78829 155.358 3.29408 153.122 3.29408C150.887 3.29408 149.634 5.64208 149.634 8.77274M160 8.58353C160 13.8902 157.17 17.0724 152.951 17.0724C148.732 17.0724 146.199 13.4601 146.199 8.84155C146.199 4.22296 148.967 0.395634 153.185 0.395634C157.404 0.395634 160 4.10255 160 8.57493" fill="#221F20"/>
<path fill-rule="evenodd" clip-rule="evenodd" d="M18.3346 8.63513H9.39267V0.111809H18.3346V8.63513Z" fill="#FFAB98"/>
<path fill-rule="evenodd" clip-rule="evenodd" d="M18.3346 17.5971H9.39267V9.06517H18.3346V17.5971Z" fill="#FFE1D9"/>
<path fill-rule="evenodd" clip-rule="evenodd" d="M8.94197 17.5885H0V9.06517H8.94197V17.5885Z" fill="#FFC6B9"/>
<path fill-rule="evenodd" clip-rule="evenodd" d="M8.94197 8.63513H0V0.111809H8.94197V8.63513Z" fill="#FF8672"/>
</g>
<defs>
<clipPath id="clip0_12_1750">
<rect width="160" height="26" fill="white"/>
</clipPath>
</defs>
</svg>
