<svg xmlns="http://www.w3.org/2000/svg" width="128" height="64" fill="none" viewBox="0 0 128 64"><g clip-path="url(#a)"><path fill="#87888A" d="M64 26.315c-9.848 0-18.323-3.162-22.185-7.712C44.997 25.37 53.728 30.233 64 30.233c10.272 0 19.003-4.857 22.185-11.63-3.855 4.55-12.337 7.712-22.185 7.712Zm0-22.397c9.848 0 18.323 3.161 22.185 7.71C83.003 4.864 74.272 0 64 0 53.728 0 44.997 4.863 41.815 11.622c3.862-4.55 12.337-7.71 22.185-7.71"/><path fill="#0097D1" d="M70.051 16.387h-4.672v4.758h-2.817v-4.758H57.95v-2.6h4.613V9.072h2.817v4.713h4.672v2.601ZM64 4.041c-6.123 0-11.096 4.954-11.096 11.068 0 6.115 4.966 11.069 11.096 11.069s11.096-4.954 11.096-11.069c0-6.114-4.973-11.068-11.096-11.068Z"/><path fill="#87888A" d="M8.45 62.527a6.5 6.5 0 0 0 1.698-.228 4.818 4.818 0 0 0 1.49-.698c.438-.306.79-.684 1.052-1.134.262-.443.399-.958.399-1.545a3.34 3.34 0 0 0-.543-1.877 6.89 6.89 0 0 0-1.43-1.512 13.426 13.426 0 0 0-2.033-1.297c-.764-.405-1.536-.809-2.326-1.22A46.966 46.966 0 0 1 4.43 51.74a11.279 11.279 0 0 1-2.025-1.486A6.885 6.885 0 0 1 .967 48.42c-.36-.678-.542-1.454-.542-2.34 0-.887.17-1.702.496-2.458a5.47 5.47 0 0 1 1.458-1.955c.64-.548 1.43-.984 2.359-1.297.934-.313 2.012-.47 3.221-.47 2.183 0 3.914.457 5.182 1.37 1.268.912 2.176 2.235 2.738 3.969l-1.986.906a8.85 8.85 0 0 0-.89-1.93 6.025 6.025 0 0 0-1.293-1.505 5.413 5.413 0 0 0-1.732-.965c-.653-.228-1.392-.339-2.208-.339-.726 0-1.36.104-1.915.307-.542.202-1 .462-1.36.788a3.243 3.243 0 0 0-.81 1.108 3.107 3.107 0 0 0-.274 1.265c0 .606.183 1.16.562 1.656.379.502.87.977 1.477 1.427.608.45 1.3.887 2.09 1.297.779.411 1.582.835 2.4 1.265.81.43 1.607.873 2.39 1.336a12.6 12.6 0 0 1 2.092 1.526 7.505 7.505 0 0 1 1.477 1.805c.379.659.562 1.389.562 2.19 0 .92-.177 1.767-.523 2.569a5.947 5.947 0 0 1-1.562 2.099c-.7.6-1.562 1.075-2.594 1.42-1.033.346-2.235.522-3.6.522-1.105 0-2.098-.124-2.967-.365A7.747 7.747 0 0 1 2.9 62.566a6.733 6.733 0 0 1-1.712-1.701 9.398 9.398 0 0 1-1.176-2.282l2.091-.86c.242.75.569 1.42.974 2.014a6.595 6.595 0 0 0 1.43 1.512c.55.411 1.157.73 1.824.945a6.88 6.88 0 0 0 2.13.32m11.777-22.613v24.034h16.036v-1.552H24.119V51.602h8.13v-1.551h-8.13v-8.592h12.155v-1.558H20.238Zm37.43.033V57.11h-.15L42.397 39.934h-2.17v23.935h1.738V44.881h.13L58.479 64h.902V39.934h-1.712Zm4.443.046v1.486h8.365v22.488h3.881V41.466h8.345V39.98h-20.59Zm28.001-.033h-3.875v24.034h3.875V39.947Zm11.501 22.58c.575 0 1.144-.078 1.699-.228a4.86 4.86 0 0 0 1.497-.698 3.643 3.643 0 0 0 1.052-1.134c.268-.443.398-.958.398-1.545 0-.704-.183-1.33-.549-1.877-.365-.541-.843-1.043-1.431-1.512a13.363 13.363 0 0 0-2.025-1.297c-.765-.405-1.543-.809-2.327-1.22a46.957 46.957 0 0 1-2.326-1.277 12.084 12.084 0 0 1-2.032-1.486 6.993 6.993 0 0 1-1.431-1.832c-.366-.678-.543-1.454-.543-2.34 0-.887.164-1.702.497-2.458a5.47 5.47 0 0 1 1.457-1.955c.634-.548 1.425-.984 2.36-1.297.927-.313 2.005-.47 3.221-.47 2.182 0 3.914.457 5.175 1.37 1.261.912 2.176 2.235 2.745 3.969l-1.987.906a9.16 9.16 0 0 0-.882-1.93 6.143 6.143 0 0 0-1.287-1.505 5.493 5.493 0 0 0-1.732-.965c-.654-.228-1.385-.339-2.202-.339-.732 0-1.366.104-1.915.307-.549.202-1 .462-1.359.788-.36.326-.627.691-.817 1.108a3.108 3.108 0 0 0-.274 1.265c0 .606.19 1.16.562 1.656.372.502.869.977 1.477 1.427.607.45 1.3.887 2.084 1.297.784.411 1.588.835 2.392 1.265.81.43 1.607.873 2.391 1.336a12.57 12.57 0 0 1 2.091 1.526 7.499 7.499 0 0 1 1.477 1.805 4.37 4.37 0 0 1 .562 2.19c0 .92-.176 1.767-.523 2.569a5.856 5.856 0 0 1-1.561 2.099c-.7.6-1.562 1.075-2.595 1.42-1.032.346-2.234.522-3.6.522-1.104 0-2.091-.124-2.967-.365a7.827 7.827 0 0 1-2.313-1.056 6.84 6.84 0 0 1-1.712-1.701 9.647 9.647 0 0 1-1.183-2.282l2.091-.86c.235.75.569 1.42.974 2.014a6.326 6.326 0 0 0 1.43 1.512c.543.411 1.151.73 1.824.945.667.216 1.372.32 2.124.32m18.375.013c.575 0 1.144-.078 1.699-.228a4.887 4.887 0 0 0 1.49-.698 3.631 3.631 0 0 0 1.052-1.134c.268-.443.392-.958.392-1.545a3.35 3.35 0 0 0-.542-1.877 6.896 6.896 0 0 0-1.431-1.512 13.682 13.682 0 0 0-2.026-1.297c-.765-.405-1.536-.809-2.333-1.22a53.483 53.483 0 0 1-2.326-1.277 11.762 11.762 0 0 1-2.026-1.486 6.853 6.853 0 0 1-1.431-1.832c-.366-.678-.542-1.454-.542-2.34 0-.887.163-1.702.496-2.458a5.47 5.47 0 0 1 1.457-1.955c.641-.548 1.432-.984 2.359-1.297.928-.313 2.007-.47 3.222-.47 2.189 0 3.914.457 5.175 1.37 1.262.912 2.176 2.235 2.745 3.969l-1.987.906a9.11 9.11 0 0 0-.882-1.93 6 6 0 0 0-1.294-1.505 5.412 5.412 0 0 0-1.731-.965c-.654-.228-1.386-.339-2.202-.339-.726 0-1.366.104-1.915.307-.549.202-1 .462-1.359.788a3.33 3.33 0 0 0-.817 1.108 3.108 3.108 0 0 0-.275 1.265c0 .606.19 1.16.562 1.656.379.502.87.977 1.477 1.427.601.45 1.301.887 2.085 1.297.784.411 1.588.835 2.391 1.265.811.43 1.608.873 2.392 1.336a12.27 12.27 0 0 1 2.085 1.526 7.355 7.355 0 0 1 1.476 1.805 4.37 4.37 0 0 1 .562 2.19c0 .92-.176 1.767-.522 2.569a5.799 5.799 0 0 1-1.569 2.099c-.699.6-1.561 1.075-2.594 1.42-1.032.346-2.235.522-3.607.522-1.104 0-2.091-.124-2.967-.365a7.684 7.684 0 0 1-2.313-1.056 6.857 6.857 0 0 1-1.712-1.701 9.394 9.394 0 0 1-1.176-2.282l2.084-.86c.249.75.569 1.42.981 2.014a6.23 6.23 0 0 0 3.26 2.457c.667.216 1.379.32 2.131.32m7.364-28.877H1.653v1.63h125.7v-1.63Z"/></g><defs><clipPath id="a"><path fill="#fff" d="M0 0h128v64H0z"/></clipPath></defs></svg>