<svg xmlns="http://www.w3.org/2000/svg" width="160" height="26" fill="none" viewBox="0 0 160 26"><g clip-path="url(#a)"><path fill="#221F20" d="M24.329 24.641c.478-.103.604-.645.604-1.135s-.117-1.006-.604-1.127v2.263Zm-.406-2.253c-.477.111-.604.662-.604 1.126 0 .465.127 1.024.604 1.136v-2.262Zm.415-1.41v1.109c.613.077 1.028.533 1.028 1.436 0 .903-.397 1.359-1.028 1.428v1.058h-.424V24.95c-.622-.06-1.027-.525-1.027-1.428 0-.903.405-1.35 1.027-1.428v-1.118h.424Zm3.02 1.143v.37H26.7v2.408h-.469v-2.408h-.658v-.37h1.785Zm.612 1.393c0 .456.082 1.084.506 1.084.396 0 .477-.654.477-1.084 0-.43-.08-1.083-.495-1.083s-.496.653-.496 1.083m1.451 0c0 1.076-.514 1.437-.974 1.437-.522 0-.946-.456-.946-1.428s.478-1.436.974-1.436c.495 0 .937.464.937 1.427m.991.37c0 .078 0 .164.027.232.09.396.298.465.424.465.388 0 .514-.508.514-1.067 0-.559-.144-1.058-.514-1.058-.207 0-.405.25-.424.5a1.49 1.49 0 0 0-.018.214v.714h-.009Zm-.46-.894c0-.422-.017-.671-.026-.869h.405l.027.353h.01c.162-.293.387-.396.621-.396.514 0 .839.508.839 1.428 0 1.032-.442 1.445-.902 1.445a.555.555 0 0 1-.514-.319h-.008v1.377h-.46v-3.02h.009Zm2.498-.869h.54l.388 1.221c.1.327.171.55.262.886h.009c.099-.352.153-.559.243-.886l.37-1.22h.55l.198 2.777h-.433l-.063-1.195c-.018-.37-.027-.637-.045-1.17h-.01c-.071.284-.17.662-.288 1.066l-.396 1.282h-.334l-.378-1.239a20.701 20.701 0 0 1-.298-1.118h-.018c0 .439-.018.8-.036 1.196l-.054 1.17h-.424l.208-2.778.009.008Zm4.353 1.101c0-.55-.207-.8-.432-.8-.307 0-.46.421-.478.8h.91Zm-.91.327c0 .86.352 1.032.685 1.032.208 0 .37-.043.478-.103l.081.318a1.587 1.587 0 0 1-.64.129c-.694 0-1.055-.542-1.055-1.393 0-.895.406-1.462.983-1.462s.83.593.83 1.22c0 .113 0 .181-.01.25h-1.352v.009Zm3.344-1.428v.37h-.658v2.408h-.468v-2.408h-.659v-.37h1.785Zm.613 1.393c0 .456.081 1.084.505 1.084.397 0 .478-.654.478-1.084 0-.43-.081-1.083-.496-1.083s-.496.653-.496 1.083m1.452 0c0 1.076-.523 1.437-.974 1.437-.523 0-.947-.456-.947-1.428s.478-1.436.974-1.436.938.464.938 1.427m2.217-1.393V24.9h-.46v-2.417h-.64v.886c0 .783-.063 1.308-.486 1.514a.791.791 0 0 1-.316.06l-.081-.352a.384.384 0 0 0 .243-.13c.172-.163.199-.559.199-1.066v-1.273h1.541Zm.983 1.393c0 .456.08 1.084.504 1.084.397 0 .478-.654.478-1.084 0-.43-.081-1.083-.496-1.083-.414 0-.495.653-.495 1.083m1.45 0c0 1.076-.513 1.437-.973 1.437-.523 0-.946-.456-.946-1.428s.478-1.436.973-1.436c.496 0 .938.464.938 1.427m1-1.393V23.3h.866v-1.178h.46V24.9h-.46v-1.221H46.9V24.9h-.46v-2.778h.46Zm4.183.791c0 .903.153 1.531.54 1.531.388 0 .524-.636.524-1.53 0-.895-.154-1.532-.523-1.532-.37 0-.541.628-.541 1.531Zm1.532 0c0 1.36-.45 1.918-1.018 1.918-.604 0-.974-.688-.974-1.91 0-1.22.388-1.917 1.028-1.917s.964.714.964 1.91Zm.262 2.589c.126-.335.288-.946.351-1.342l.523-.06c-.135.465-.388 1.101-.55 1.36l-.315.042h-.01Zm2.199-4.008h-.018l-.649.362-.09-.353.83-.456h.378v3.733h-.45v-3.286Z"/><mask id="b" width="160" height="26" x="0" y="0" maskUnits="userSpaceOnUse" style="mask-type:luminance"><path fill="#fff" d="M160 0H0v26h160V0Z"/></mask><g fill="#221F20" mask="url(#b)"><path d="M58.844 23.686c0 .387.09.852.388.852.297 0 .378-.473.378-.852 0-.378-.063-.86-.388-.86-.297 0-.369.473-.369.86m1.118 0c0 .783-.36 1.136-.73 1.136-.433 0-.74-.422-.74-1.127 0-.705.325-1.135.749-1.135.423 0 .73.447.73 1.135m-2.957 1.17 2.082-3.888h.298l-2.082 3.888h-.298Zm-.207-2.727c0 .387.08.852.387.852s.379-.473.379-.852c0-.378-.063-.86-.388-.86-.297 0-.37.473-.37.86m1.119 0c0 .791-.361 1.136-.74 1.136-.432 0-.739-.43-.739-1.127 0-.697.325-1.135.748-1.135.424 0 .73.438.73 1.126Zm-25.88-8.669c1.28-.146 2.894-1.342 2.894-4.756 0-3.415-1.533-4.593-2.894-4.782v9.546-.008Zm-3.029-9.547c-1.28.19-2.893 1.41-2.893 4.834 0 3.156 1.595 4.55 2.893 4.713V3.922ZM32.081 0v1.41c3.083.267 6.13 2.271 6.13 7.294s-2.984 6.984-6.175 7.32v1.461h-3.02v-1.462c-3.128-.266-6.13-2.245-6.13-7.199s3.381-7.155 6.175-7.413V0h3.02Z"/></g><path fill="#221F20" d="M50.911.697v16.117h-3.236V3.681h-3.254v3.827c0 4.137-.468 7.346-2.64 8.782-.722.456-1.704.791-2.85.791l-.405-2.941c.703-.095 1.28-.43 1.64-.86.875-1.007 1.092-3.088 1.092-5.522V.697h9.663-.01Zm5.599 8.084c0 3.183 1.315 5.402 3.488 5.402 2.172 0 3.452-2.34 3.452-5.48 0-2.915-1.217-5.409-3.452-5.409-2.236 0-3.489 2.348-3.489 5.479m10.367-.19c0 5.307-2.83 8.49-7.05 8.49-4.218 0-6.751-3.613-6.751-8.231 0-4.619 2.776-8.438 6.995-8.438 4.218 0 6.815 3.707 6.815 8.18m8.689 1.367-.892-3.423a74.218 74.218 0 0 1-.721-3.114h-.046c-.216.955-.423 2.176-.658 3.114L72.41 9.95h3.173-.009Zm-3.642 2.726-1.018 4.137H67.57L71.932.697h4.264l4.471 16.117h-3.516l-1.108-4.136h-4.11Zm20.616 3.707c-.577.31-1.938.697-3.66.697-4.958 0-7.518-3.492-7.518-8.085 0-5.504 3.489-8.54 7.833-8.54 1.686 0 2.957.361 3.534.714l-.685 2.872c-.64-.31-1.56-.593-2.722-.593-2.56 0-4.552 1.746-4.552 5.332 0 3.226 1.703 5.264 4.579 5.264 1 0 2.064-.215 2.73-.525l.47 2.873-.01-.009Zm18.596-5.736a206.326 206.326 0 0 1-.127-6.623h-.045a107.414 107.414 0 0 1-1.622 6.244l-1.749 6.287h-2.533l-1.532-6.218a94.436 94.436 0 0 1-1.298-6.313h-.045a626.026 626.026 0 0 1-.235 6.674l-.279 6.124h-3.002l.92-16.118h4.317l1.407 5.384a80.067 80.067 0 0 1 1.216 5.763h.082c.387-1.867.874-3.99 1.361-5.788l1.514-5.359h4.255l.766 16.118h-3.155l-.234-6.175h.018Zm8.545-1.867c0 3.183 1.316 5.402 3.488 5.402 2.173 0 3.453-2.34 3.453-5.48 0-2.915-1.217-5.409-3.453-5.409-2.235 0-3.488 2.348-3.488 5.479m10.366-.19c0 5.307-2.83 8.49-7.049 8.49-4.218 0-6.751-3.613-6.751-8.231 0-4.619 2.767-8.446 6.986-8.446 4.218 0 6.814 3.707 6.814 8.179m5.391-7.878v6.192h5.345V.697h3.236v16.117h-3.236v-6.742h-5.345v6.742h-3.236V.697h3.236Zm14.188 8.084c0 3.183 1.316 5.402 3.488 5.402 2.173 0 3.453-2.34 3.453-5.48 0-2.915-1.217-5.409-3.453-5.409-2.235 0-3.488 2.348-3.488 5.479M160 8.583c0 5.307-2.83 8.49-7.049 8.49s-6.752-3.613-6.752-8.231c0-4.619 2.768-8.446 6.986-8.446 4.219 0 6.815 3.707 6.815 8.179"/><path fill="#FFAB98" fill-rule="evenodd" d="M18.335 8.635H9.393V.112h8.942v8.523Z" clip-rule="evenodd"/><path fill="#FFE1D9" fill-rule="evenodd" d="M18.335 17.597H9.393V9.065h8.942v8.532Z" clip-rule="evenodd"/><path fill="#FFC6B9" fill-rule="evenodd" d="M8.942 17.588H0V9.066h8.942v8.524Z" clip-rule="evenodd"/><path fill="#FF8672" fill-rule="evenodd" d="M8.942 8.635H0V.112h8.942v8.523Z" clip-rule="evenodd"/></g><defs><clipPath id="a"><path fill="#fff" d="M0 0h160v26H0z"/></clipPath></defs></svg>