<svg xmlns="http://www.w3.org/2000/svg" width="264" height="272" fill="none" viewBox="0 0 264 272"><path fill="#E6775A" d="m70.054 242.77.05-2.15h1.03c.966 0 1.74-.147 2.32-.44.586-.293 1.013-.717 1.28-1.27.266-.553.4-1.227.4-2.02 0-.813-.134-1.497-.4-2.05a2.675 2.675 0 0 0-1.25-1.28c-.574-.293-1.334-.44-2.28-.44h-1l-.05-2.15h1.08c1.613 0 2.916.25 3.91.75 1 .5 1.726 1.193 2.18 2.08.46.887.69 1.917.69 3.09 0 1.127-.227 2.133-.68 3.02-.454.887-1.187 1.587-2.2 2.1-1.007.507-2.354.76-4.04.76h-1.04Zm-1.34 0c-1.267 0-2.34-.147-3.22-.44-.88-.293-1.594-.703-2.14-1.23a4.901 4.901 0 0 1-1.19-1.87 7.114 7.114 0 0 1-.37-2.34c0-1.173.226-2.203.68-3.09.46-.887 1.186-1.58 2.18-2.08 1-.5 2.306-.75 3.92-.75h1.07l-.05 2.15h-1c-.94 0-1.7.147-2.28.44a2.72 2.72 0 0 0-1.26 1.28c-.26.553-.39 1.237-.39 2.05 0 .793.133 1.467.4 2.02.266.553.69.977 1.27 1.27.586.293 1.363.44 2.33.44h1.03l.05 2.15h-1.03Zm-.21 1.58v-1.98l.08-.06v-10.88l-.08-.06v-1.98h2.79v1.98l-.08.06v10.88l.08.06v1.98h-2.79ZM82.22 244v-9.56l.81 1.61H79.1v-2.01h8.77v2.01h-3.92l.81-1.61V244h-2.54Zm11.963.25c-.88 0-1.647-.14-2.3-.42a4.592 4.592 0 0 1-1.63-1.17 4.906 4.906 0 0 1-.97-1.69 6.19 6.19 0 0 1-.32-1.99c0-.993.2-1.88.6-2.66.4-.787.983-1.407 1.75-1.86.773-.453 1.713-.68 2.82-.68.853 0 1.6.133 2.24.4.647.26 1.187.627 1.62 1.1.44.473.77 1.027.99 1.66.22.627.33 1.307.33 2.04 0 1-.203 1.897-.61 2.69a4.6 4.6 0 0 1-1.75 1.89c-.767.46-1.69.69-2.77.69Zm-.01-2.1c.573 0 1.047-.15 1.42-.45.38-.307.663-.7.85-1.18.187-.48.28-.993.28-1.54 0-.64-.107-1.19-.32-1.65-.207-.467-.503-.823-.89-1.07-.387-.253-.837-.38-1.35-.38-.567 0-1.047.14-1.44.42-.387.273-.68.643-.88 1.11-.193.467-.29.99-.29 1.57 0 .547.097 1.06.29 1.54.193.48.483.873.87 1.18.393.3.88.45 1.46.45Zm7.233 5.77v-13.88l2.27-.13.07 1.34h.22c.2-.293.444-.55.73-.77.294-.227.627-.4 1-.52.374-.12.784-.18 1.23-.18.887 0 1.637.23 2.25.69.614.453 1.077 1.077 1.39 1.87.314.787.47 1.673.47 2.66a7.45 7.45 0 0 1-.44 2.59c-.293.8-.743 1.443-1.35 1.93-.606.487-1.37.73-2.29.73-.42 0-.803-.057-1.15-.17a3.133 3.133 0 0 1-.93-.47 3.878 3.878 0 0 1-.76-.75h-.17v4.98l-2.54.08Zm4.63-5.86c.554 0 1.007-.143 1.36-.43.36-.293.624-.67.79-1.13.167-.46.25-.953.25-1.48 0-.553-.09-1.057-.27-1.51a2.409 2.409 0 0 0-.8-1.1c-.353-.28-.803-.42-1.35-.42a2.42 2.42 0 0 0-.79.13c-.253.08-.49.2-.71.36-.22.153-.41.343-.57.57v3.73c.154.26.33.487.53.68.2.193.43.343.69.45.26.1.55.15.87.15Zm6.548 1.94c.08-.72.157-1.433.23-2.14.08-.707.157-1.407.23-2.1l.14-1.36.24-2.18c.08-.733.157-1.46.23-2.18h2.79c.227.553.454 1.113.68 1.68l.67 1.67 1.3 3.26h.2l1.28-3.26c.227-.56.45-1.12.67-1.68.22-.56.44-1.117.66-1.67h2.73c.08.707.16 1.433.24 2.18.087.747.17 1.477.25 2.19l.16 1.39c.074.667.15 1.353.23 2.06l.24 2.14h-2.39c-.066-.673-.136-1.35-.21-2.03-.066-.68-.136-1.353-.21-2.02l-.27-2.57h-.19l-.99 2.73-.7 1.94-.7 1.95h-1.8c-.246-.653-.493-1.3-.74-1.94-.24-.64-.48-1.277-.72-1.91l-1.05-2.77h-.19l-.27 2.52-.22 2.06-.22 2.04h-2.3Zm20.022.25c-1.254 0-2.28-.227-3.08-.68-.8-.453-1.39-1.077-1.77-1.87-.38-.793-.57-1.7-.57-2.72 0-1.013.18-1.91.54-2.69.366-.787.903-1.4 1.61-1.84.706-.44 1.573-.66 2.6-.66.886 0 1.643.163 2.27.49a3.3 3.3 0 0 1 1.46 1.45c.34.64.51 1.447.51 2.42 0 .26-.007.493-.02.7a4.72 4.72 0 0 1-.06.61l-2.21-.89a4.432 4.432 0 0 0 .04-.56c0-.733-.184-1.307-.55-1.72-.367-.42-.84-.63-1.42-.63-.44 0-.827.127-1.16.38-.334.247-.597.593-.79 1.04-.194.447-.29.963-.29 1.55v.39c0 .647.113 1.203.34 1.67.226.46.576.817 1.05 1.07.473.247 1.07.37 1.79.37.28 0 .593-.023.94-.07.353-.053.71-.133 1.07-.24.36-.107.696-.243 1.01-.41l.08 2.18c-.254.127-.55.24-.89.34-.34.1-.72.177-1.14.23-.42.06-.874.09-1.36.09Zm-4.42-4.79v-1.59l6.41-.11 1.5.57v1.13h-7.91Zm12.257 4.54v-9.56l.81 1.61h-3.929v-2.01h8.77v2.01h-3.92l.81-1.61V244h-2.54Zm11.963.25c-.88 0-1.647-.14-2.3-.42a4.584 4.584 0 0 1-1.63-1.17 4.891 4.891 0 0 1-.97-1.69 6.174 6.174 0 0 1-.32-1.99c0-.993.2-1.88.6-2.66.4-.787.983-1.407 1.75-1.86.773-.453 1.713-.68 2.82-.68.853 0 1.6.133 2.24.4.646.26 1.186.627 1.62 1.1.44.473.77 1.027.99 1.66.22.627.33 1.307.33 2.04 0 1-.204 1.897-.61 2.69a4.605 4.605 0 0 1-1.75 1.89c-.767.46-1.69.69-2.77.69Zm-.01-2.1c.573 0 1.046-.15 1.42-.45.38-.307.663-.7.85-1.18.186-.48.28-.993.28-1.54 0-.64-.107-1.19-.32-1.65-.207-.467-.504-.823-.89-1.07-.387-.253-.837-.38-1.35-.38-.567 0-1.047.14-1.44.42-.387.273-.68.643-.88 1.11-.194.467-.29.99-.29 1.57 0 .547.096 1.06.29 1.54.193.48.483.873.87 1.18.393.3.88.45 1.46.45Zm7.435 2.06a6.374 6.374 0 0 1-.96-.08c-.153-.02-.29-.05-.41-.09l.11-2.12c.107.02.21.037.31.05.107.007.19.01.25.01a.938.938 0 0 0 .78-.37c.2-.247.354-.573.46-.98.107-.413.187-.867.24-1.36.054-.5.094-1 .12-1.5l.12-1.9c.047-.633.09-1.243.13-1.83h7.75V244h-2.54v-9.56l1.51 1.61h-5.69l1.23-1.61c-.033.44-.066.907-.1 1.4-.033.487-.07.973-.11 1.46-.033.48-.066.947-.1 1.4-.06.787-.14 1.517-.24 2.19a7.167 7.167 0 0 1-.45 1.75c-.206.493-.503.88-.89 1.16-.38.273-.886.41-1.52.41Zm16.227.04c-.88 0-1.647-.14-2.3-.42a4.592 4.592 0 0 1-1.63-1.17 4.907 4.907 0 0 1-.97-1.69 6.2 6.2 0 0 1-.32-1.99c0-.993.2-1.88.6-2.66.4-.787.983-1.407 1.75-1.86.773-.453 1.713-.68 2.82-.68.853 0 1.6.133 2.24.4.647.26 1.187.627 1.62 1.1.44.473.77 1.027.99 1.66.22.627.33 1.307.33 2.04 0 1-.203 1.897-.61 2.69a4.598 4.598 0 0 1-1.75 1.89c-.767.46-1.69.69-2.77.69Zm-.01-2.1c.573 0 1.047-.15 1.42-.45.38-.307.663-.7.85-1.18.187-.48.28-.993.28-1.54 0-.64-.107-1.19-.32-1.65-.207-.467-.503-.823-.89-1.07-.387-.253-.837-.38-1.35-.38-.567 0-1.047.14-1.44.42-.387.273-.68.643-.88 1.11-.193.467-.29.99-.29 1.57 0 .547.097 1.06.29 1.54.193.48.483.873.87 1.18.393.3.88.45 1.46.45Zm7.233 1.85v-9.96l2.51-.08V244h-2.51Zm1.52-4.01V238h5.94v1.99h-5.94Zm4.89 4.01v-9.96h2.51V244h-2.51Zm7.564.23c-.56 0-1.06-.117-1.5-.35-.44-.233-.79-.57-1.05-1.01-.253-.447-.38-.983-.38-1.61 0-.553.097-1.02.29-1.4.193-.387.447-.7.76-.94.32-.247.67-.437 1.05-.57.387-.133.777-.23 1.17-.29l2.85-.42c.02-.467-.06-.827-.24-1.08a1.306 1.306 0 0 0-.75-.52c-.327-.1-.703-.15-1.13-.15-.227 0-.473.02-.74.06-.26.033-.537.087-.83.16a9.716 9.716 0 0 0-.9.28 9.585 9.585 0 0 0-.96.39l-.12-2.21a11.382 11.382 0 0 1 1.85-.53c.367-.08.747-.14 1.14-.18.4-.047.81-.07 1.23-.07.813 0 1.507.12 2.08.36.58.233 1.023.61 1.33 1.13.307.513.46 1.183.46 2.01V244h-2.25l-.15-1.3h-.21c-.187.247-.42.487-.7.72-.28.227-.613.42-1 .58-.38.153-.813.23-1.3.23Zm.92-1.99c.28 0 .557-.067.83-.2.273-.133.527-.32.76-.56.24-.24.443-.527.61-.86v-1.57c-.087.06-.203.117-.35.17-.14.047-.35.1-.63.16s-.673.137-1.18.23a2.04 2.04 0 0 0-.73.27 1.33 1.33 0 0 0-.45.49c-.107.2-.16.43-.16.69 0 .433.13.74.39.92.267.173.57.26.91.26Zm-93.137 25.99c-.56 0-1.06-.117-1.5-.35-.44-.233-.79-.57-1.05-1.01-.253-.447-.38-.983-.38-1.61 0-.553.097-1.02.29-1.4.194-.387.447-.7.76-.94.32-.247.67-.437 1.05-.57.387-.133.777-.23 1.17-.29l2.85-.42c.02-.467-.06-.827-.24-1.08a1.306 1.306 0 0 0-.75-.52c-.326-.1-.703-.15-1.13-.15-.226 0-.473.02-.74.06-.26.033-.536.087-.83.16a9.908 9.908 0 0 0-.9.28 9.585 9.585 0 0 0-.96.39l-.12-2.21a11.553 11.553 0 0 1 1.85-.53c.367-.08.747-.14 1.14-.18.4-.047.81-.07 1.23-.07.814 0 1.507.12 2.08.36.58.233 1.024.61 1.33 1.13.307.513.46 1.183.46 2.01V268h-2.25l-.15-1.3h-.21c-.186.247-.42.487-.7.72-.28.227-.613.42-1 .58-.38.153-.813.23-1.3.23Zm.92-1.99c.28 0 .557-.067.83-.2.274-.133.527-.32.76-.56.24-.24.444-.527.61-.86v-1.57c-.086.06-.203.117-.35.17-.14.047-.35.1-.63.16s-.673.137-1.18.23c-.286.053-.53.143-.73.27a1.33 1.33 0 0 0-.45.49c-.106.2-.16.43-.16.69 0 .433.13.74.39.92.267.173.57.26.91.26Zm15.2 4.47-.1-3.02.43.31h-8.51v-9.96l2.54-.08v9.64l-1.55-1.61h9.38v4.72h-2.19Zm-1.85-3.11v-9.56h2.54v9.56h-2.54Zm10.573.65c-1.253 0-2.28-.227-3.08-.68-.8-.453-1.39-1.077-1.77-1.87-.38-.793-.57-1.7-.57-2.72 0-1.013.18-1.91.54-2.69.367-.787.903-1.4 1.61-1.84.707-.44 1.573-.66 2.6-.66.887 0 1.643.163 2.27.49a3.3 3.3 0 0 1 1.46 1.45c.34.64.51 1.447.51 2.42 0 .26-.007.493-.02.7a4.72 4.72 0 0 1-.06.61l-2.21-.89a4.432 4.432 0 0 0 .04-.56c0-.733-.183-1.307-.55-1.72-.367-.42-.84-.63-1.42-.63-.44 0-.827.127-1.16.38-.333.247-.597.593-.79 1.04-.193.447-.29.963-.29 1.55v.39c0 .647.113 1.203.34 1.67.227.46.577.817 1.05 1.07.473.247 1.07.37 1.79.37.28 0 .593-.023.94-.07.353-.053.71-.133 1.07-.24.36-.107.697-.243 1.01-.41l.08 2.18a5.37 5.37 0 0 1-.89.34c-.34.1-.72.177-1.14.23-.42.06-.873.09-1.36.09Zm-4.42-4.79v-1.59l6.41-.11 1.5.57v1.13h-7.91Zm12.257 4.54v-9.56l.81 1.61h-3.929v-2.01h8.77v2.01h-3.92l.81-1.61V268h-2.54Zm9.801.23c-.56 0-1.06-.117-1.5-.35-.44-.233-.79-.57-1.05-1.01-.254-.447-.38-.983-.38-1.61 0-.553.096-1.02.29-1.4.193-.387.446-.7.76-.94.32-.247.67-.437 1.05-.57.386-.133.776-.23 1.17-.29l2.85-.42c.02-.467-.06-.827-.24-1.08a1.313 1.313 0 0 0-.75-.52 3.87 3.87 0 0 0-1.13-.15c-.227 0-.474.02-.74.06-.26.033-.537.087-.83.16a9.716 9.716 0 0 0-.9.28 9.397 9.397 0 0 0-.96.39l-.12-2.21a11.382 11.382 0 0 1 1.85-.53c.366-.08.746-.14 1.14-.18.4-.047.81-.07 1.23-.07.813 0 1.506.12 2.08.36.58.233 1.023.61 1.33 1.13.306.513.46 1.183.46 2.01V268h-2.25l-.15-1.3h-.21c-.187.247-.42.487-.7.72-.28.227-.614.42-1 .58a3.46 3.46 0 0 1-1.3.23Zm.92-1.99c.28 0 .556-.067.83-.2.273-.133.526-.32.76-.56.24-.24.443-.527.61-.86v-1.57c-.087.06-.204.117-.35.17-.14.047-.35.1-.63.16s-.674.137-1.18.23a2.04 2.04 0 0 0-.73.27c-.194.127-.344.29-.45.49-.107.2-.16.43-.16.69 0 .433.13.74.39.92.266.173.57.26.91.26Zm9.24 1.76v-9.56l.81 1.61h-3.929v-2.01h8.77v2.01h-3.92l.81-1.61V268h-2.54Z"/><path fill="url(#a)" d="m107.475 179.454-25.934-14.637v-29.296l25.934-14.637 25.935 14.637v29.296l-25.935 14.637Zm-25.062-15.147 25.062 14.15 25.062-14.15V136.03l-25.062-14.15-25.062 14.15v28.277Z"/><path fill="url(#b)" d="m82.413 164.307 25.062 14.15 25.062-14.15V136.03l-25.062-14.15-25.062 14.15v28.277Z"/><path fill="#24201E" d="m107.475 179.454-25.934-14.637v-29.296l25.934-14.637 25.935 14.637v29.296l-25.935 14.637Zm-25.062-15.147 25.062 14.15 25.062-14.15V136.03l-25.062-14.15-25.062 14.15v28.277Z"/><path fill="#24201E" d="m56.501 179.454-25.934-14.637v-29.296L56.5 120.884l25.935 14.637v29.296L56.5 179.454ZM31.44 164.307l25.062 14.15 25.062-14.15V136.03l-25.062-14.15-25.062 14.15v28.277Zm101.545-27.989-25.935-14.637V92.385l25.935-14.637 25.934 14.637v29.296l-25.934 14.637Zm-25.062-15.146 25.062 14.149 25.061-14.149V92.894l-25.061-14.15-25.062 14.15v28.278Z"/><path fill="#24201E" d="m186.174 132.243-28.15-10.518V92.318l28.172-8.104 17.767 24.225-17.767 23.826-.022-.022Zm-27.277-11.116 26.964 10.076 17.006-22.786-17.029-23.229-26.941 7.75v28.189Z"/><path fill="#24201E" d="M155.473 66.144h5.729l-2.73 26.484-2.999-26.484Z"/><path fill="#24201E" d="m158.494 96.725-3.491-31.001h6.691l-3.2 31Zm-2.529-30.137 2.484 21.966 2.26-21.966h-4.744ZM186.017 84.7l-5.907-25.199 5.907-5.026V84.7Z"/><path fill="#24201E" d="M186.017 85.121a.43.43 0 0 1-.425-.332l-5.907-25.2a.388.388 0 0 1 .134-.42l5.907-5.049a.454.454 0 0 1 .47-.066.417.417 0 0 1 .246.399v30.225a.414.414 0 0 1-.38.421h-.045v.022Zm-5.415-25.465 4.99 21.236V55.405l-4.99 4.251Z"/><path fill="#24201E" d="m186.263 54.83-.492-.71 19.96-13.33.492.709-19.96 13.33Zm-149.23 84.831-.447-.753 18.684-10.717.448.753-18.685 10.717Zm19.692 33.526-.448-.753 18.685-10.695.425.73-18.662 10.718Zm-43.97-1.24-.448-.753 18.685-10.695.425.73-18.662 10.718Zm2.975 5.358-.447-.753 18.685-10.717.447.753-18.684 10.717Zm75.724-88.308 4.184-5.757 11.837 9.388-16.021-3.631Z"/><path fill="#24201E" d="M107.475 93.071h-.089L91.364 89.44a.422.422 0 0 1-.313-.266.493.493 0 0 1 .044-.399l4.185-5.779s.179-.155.29-.177c.113 0 .247 0 .336.088l11.838 9.411a.435.435 0 0 1 .112.532.424.424 0 0 1-.403.244l.022-.023Zm-15.283-4.34 13.538 3.056-10.003-7.95-3.535 4.872v.022Zm-13.516 19.486h6.87l-3.558 27.569-3.312-27.569Z"/><path fill="#24201E" d="m81.966 139.329-3.782-31.555h7.854l-4.072 31.555Zm-2.797-30.691 2.841 23.583 3.044-23.583h-5.885Zm105.707-52.945-17.812-7.485.336-.797 17.834 7.485-.358.797Zm-4.095 4.229-15.574-6.377.336-.797 15.574 6.377-.336.797Zm55.405 33.88L221.708 82.42l.537-.686 14.097 11.072 27.345-10.297.313.797-27.814 10.496Z"/><path fill="#24201E" d="m231.33 110.387-.873-.155 3.178-18.711.873.133-3.178 18.733Zm5.057.488-.85-.133 3.177-18.734.873.155-3.2 18.712ZM64.042 73.762h1.5v5.802h7.697v-5.802h1.5v13.043h-1.5v-5.868H65.54v5.868h-1.499V73.762Zm13.896 6.51c0-3.587 2.775-6.753 6.825-6.753 4.05 0 6.78 3.122 6.78 6.753 0 3.632-2.775 6.754-6.825 6.754-4.05 0-6.78-3.122-6.78-6.754Zm12.061 0c0-2.967-2.215-5.38-5.259-5.38-3.043 0-5.236 2.391-5.236 5.38 0 2.99 2.216 5.381 5.259 5.381s5.236-2.391 5.236-5.38Zm118.574-54.34c0-3.698 2.819-6.754 6.758-6.754 2.416 0 3.826.886 5.169 2.104l-.985 1.04c-1.119-1.04-2.394-1.793-4.207-1.793-2.953 0-5.169 2.347-5.169 5.38 0 3.034 2.238 5.382 5.169 5.382 1.835 0 3.044-.687 4.319-1.883l.985 1.019c-1.388 1.373-2.909 2.214-5.348 2.214-3.849 0-6.691-2.967-6.691-6.753v.044Zm14.679-6.532h1.499v5.8h7.698v-5.802h1.499v13.043h-1.499v-5.868h-7.698v5.868h-1.499V19.399Zm13.158 18.024.626-.553c.604.708 1.32 1.129 2.283 1.129.962 0 1.7-.598 1.7-1.506s-.895-1.461-2.17-1.461h-.493l-.179-.51 2.462-2.701h-3.804v-.775h4.967v.62l-2.439 2.657c1.365.11 2.574.753 2.574 2.17 0 1.417-1.164 2.303-2.596 2.303-1.298 0-2.26-.553-2.909-1.35l-.022-.023Zm-107.968 63.929h1.499v5.801h7.698v-5.801h1.499v13.042h-1.499v-5.868h-7.698v5.868h-1.499v-13.042Zm25.129 42.493h1.499v5.802h7.698v-5.802h1.499v13.043h-1.499v-5.868h-7.698v5.868h-1.499v-13.043Zm-49.564 0h9.599v1.351h-8.078v4.65h7.228v1.351h-7.228v5.691h-1.499v-13.043h-.022ZM0 178.723c0-3.588 2.775-6.754 6.825-6.754 4.05 0 6.78 3.122 6.78 6.754 0 3.631-2.775 6.753-6.825 6.753-4.05 0-6.78-3.122-6.78-6.753Zm12.061 0c0-2.968-2.215-5.381-5.258-5.381-3.044 0-5.237 2.391-5.237 5.381 0 2.989 2.216 5.38 5.259 5.38s5.236-2.391 5.236-5.38ZM207.275 75.49c0-3.588 2.775-6.755 6.825-6.755 4.05 0 6.78 3.123 6.78 6.754 0 3.632-2.775 6.754-6.825 6.754-4.05 0-6.78-3.122-6.78-6.754Zm12.061 0c0-2.968-2.215-5.382-5.258-5.382-3.044 0-5.237 2.392-5.237 5.381 0 2.99 2.216 5.381 5.259 5.381s5.236-2.392 5.236-5.38Zm5.975 45.106c0-3.588 2.774-6.754 6.825-6.754 4.05 0 6.78 3.122 6.78 6.754 0 3.631-2.775 6.753-6.825 6.753-4.05 0-6.78-3.122-6.78-6.753Zm12.061 0c0-2.968-2.216-5.381-5.259-5.381s-5.236 2.391-5.236 5.381c0 2.989 2.215 5.38 5.259 5.38 3.043 0 5.236-2.391 5.236-5.38ZM150.147 45.02c0-3.588 2.775-6.754 6.825-6.754 4.051 0 6.781 3.122 6.781 6.753 0 3.632-2.775 6.754-6.825 6.754-4.051 0-6.781-3.122-6.781-6.754Zm12.062 0c0-2.968-2.216-5.382-5.259-5.382s-5.236 2.392-5.236 5.381c0 2.99 2.215 5.381 5.258 5.381 3.044 0 5.237-2.391 5.237-5.38Zm-54.13 136.448h-1.454v1.727h1.454v-1.727Zm.604 4.23h-2.685v1.727h2.685v-1.727Zm.538 3.831h-3.76v1.727h3.76v-1.727Zm.469 4.406h-4.721v1.727h4.721v-1.727Zm49.386-67.671h-1.455v1.728h1.455v-1.728Zm.604 4.23h-2.685v1.727h2.685v-1.727Zm.537 3.831h-3.759v1.727h3.759v-1.727Zm.492 4.406h-4.721v1.728h4.721v-1.728Zm-52.495-12.467h-1.455v1.728h1.455v-1.728Zm.604 4.23h-2.685v1.727h2.685v-1.727Zm.537 3.831h-3.759v1.727h3.759v-1.727Zm.492 4.406h-4.721v1.728h4.721v-1.728Zm.112 58.836H104.7v1.727h5.259v-1.727Zm77.267-111.892-.493-1.329 1.634-.597.515 1.328-1.656.598Zm4.274-.908-.94-2.457 1.633-.598.94 2.458-1.633.597Zm3.848-.841-1.297-3.455 1.633-.597 1.32 3.432-1.656.62Zm4.409-1.107-1.656-4.318 1.633-.62 1.656 4.34-1.633.598Zm3.557-1.019-1.834-4.827 1.633-.598 1.835 4.827-1.634.598Zm-92.93 119.376h-6.109v1.727h6.109v-1.727Zm.537 4.097h-7.183V207h7.183v-1.727Z"/><path fill="url(#c)" d="M225.311 50.29c-14.321 0-25.98-10.873-25.98-24.247 0-13.375 11.659-24.226 25.98-24.226S251.29 12.69 251.29 26.065c0 13.374-11.658 24.247-25.979 24.247v-.022Zm0-46.745c-13.359 0-24.234 10.097-24.234 22.52 0 12.422 10.875 22.52 24.234 22.52 13.359 0 24.234-10.098 24.234-22.52 0-12.423-10.875-22.52-24.234-22.52Z"/><defs><linearGradient id="a" x1="133" x2="82" y1="121" y2="179" gradientUnits="userSpaceOnUse"><stop stop-color="#E6775A"/><stop offset="1" stop-color="#E4C0B1"/></linearGradient><linearGradient id="b" x1="133" x2="82" y1="121" y2="179" gradientUnits="userSpaceOnUse"><stop stop-color="#E6775A"/><stop offset="1" stop-color="#E4C0B1"/></linearGradient><linearGradient id="c" x1="250.88" x2="210.383" y1="1.9137" y2="57.6338" gradientUnits="userSpaceOnUse"><stop stop-color="#E6775A"/><stop offset="1" stop-color="#E2AD7C"/></linearGradient></defs></svg>