<svg xmlns="http://www.w3.org/2000/svg" width="616" height="330" fill="none" viewBox="0 0 616 330"><path fill="url(#a)" d="M142.071 201.465c.636-1.794 3.18-1.78 3.796.02 3.837 11.215 12.651 36.669 17.447 48.06C169.563 264.385 176 272 176 272h-64s5.752-7.096 12-21.936c4.809-11.422 14.064-37.29 18.071-48.599Z" opacity="0.8"/><path fill="url(#b)" d="M182.154 219.855c.736-1.531 2.922-1.517 3.637.023 3.796 8.177 12.695 27.127 17.523 35.577C209.563 266.389 216 272 216 272h-64s5.752-5.229 12-16.164c4.843-8.474 14.192-27.741 18.154-35.981Z" opacity="0.8"/><path fill="url(#c)" d="M222.18 223.529c.756-1.46 2.852-1.447 3.587.024 3.782 7.566 12.709 25.221 17.547 33.083C249.563 266.79 256 272 256 272h-64s5.752-4.855 12-15.009c4.853-7.887 14.234-25.839 18.18-33.462Z" opacity="0.8"/><path fill="url(#d)" d="M262.056 195.942c.608-1.851 3.236-1.837 3.825.02 3.845 12.123 12.643 39.535 17.433 51.811C289.563 263.784 296 272 296 272h-64s5.752-7.657 12-23.668c4.803-12.309 14.04-40.163 18.056-52.39Z" opacity="0.8"/><path stroke="#CF5C5C" d="M224 214v8m6-8h-12"/><path fill="url(#e)" d="M390.071 201.465c.636-1.794 3.18-1.78 3.796.02 3.837 11.215 12.651 36.669 17.447 48.06C417.563 264.385 424 272 424 272h-64s5.752-7.096 12-21.936c4.809-11.422 14.064-37.29 18.071-48.599Z" opacity="0.8"/><path fill="url(#f)" d="M430.211 227.202c.775-1.382 2.773-1.369 3.527.024 3.765 6.955 12.725 23.316 17.576 30.592C457.563 267.191 464 272 464 272h-64s5.752-4.482 12-13.855c4.866-7.299 14.283-23.939 18.211-30.943Z" opacity="0.8"/><path fill="url(#g)" d="M470.006 162.773c.476-2.087 3.46-2.075 3.921.016 3.868 17.548 12.616 56.752 17.387 74.347C497.563 260.177 504 272 504 272h-64s5.752-11.018 12-34.059c4.783-17.638 13.963-57.462 18.006-75.168Z" opacity="0.8"/><path fill="url(#h)" d="M509.971 79.73c.302-2.333 3.695-2.323 3.987.012 3.884 31.054 12.598 99.872 17.356 130.803C537.563 251.16 544 272 544 272h-64s5.752-19.422 12-60.036c4.77-31.003 13.911-100.891 17.971-132.234Z" opacity="0.8"/><path stroke="#CF5C5C" d="M472 145v16"/><path stroke="#E6775A" d="M512 66v12"/><path stroke="#CF5C5C" d="M478 145h-12"/><path stroke="#E6775A" d="M518 66h-12"/><path stroke="#AAA" d="M432 218v8m6-8h-12"/><path fill="#484443" d="M475.716 138.286a796.21 796.21 0 0 0-3.384-2.295c-.6-.336-1.2-.669-1.8-.999-.594-.33-1.191-.66-1.791-.99l.549-.927c.57.378 1.134.762 1.692 1.152.564.384 1.134.768 1.71 1.152l1.782.981 1.8.99-.558.936Zm-6.426 0-.549-.936c.594-.336 1.191-.669 1.791-.999.6-.33 1.2-.657 1.8-.981a441.168 441.168 0 0 1 3.384-2.295l.558.927-1.8.99-1.782.981c-.564.384-1.131.768-1.701 1.152l-1.701 1.161Zm2.664 1.485c.036-.684.069-1.365.099-2.043.036-.684.069-1.371.099-2.061a230.66 230.66 0 0 0-.099-2.034c-.03-.684-.063-1.368-.099-2.052h1.098c-.036.684-.069 1.368-.099 2.052-.03.678-.063 1.356-.099 2.034.03.69.063 1.377.099 2.061.036.678.069 1.359.099 2.043h-1.098Zm43.762-80.485a796.21 796.21 0 0 0-3.384-2.295c-.6-.336-1.2-.669-1.8-.999-.594-.33-1.191-.66-1.791-.99l.549-.927c.57.378 1.134.762 1.692 1.152.564.384 1.134.768 1.71 1.152a2597.838 2597.838 0 0 0 3.582 1.971l-.558.936Zm-6.426 0-.549-.936c.594-.336 1.191-.669 1.791-.999.6-.33 1.2-.657 1.8-.981a441.168 441.168 0 0 1 3.384-2.295l.558.927-1.8.99-1.782.981c-.564.384-1.131.768-1.701 1.152l-1.701 1.161Zm2.664 1.485c.036-.684.069-1.365.099-2.043.036-.684.069-1.371.099-2.061a230.66 230.66 0 0 0-.099-2.034c-.03-.684-.063-1.368-.099-2.052h1.098c-.036.684-.069 1.368-.099 2.052-.03.678-.063 1.356-.099 2.034.03.69.063 1.377.099 2.061.036.678.069 1.359.099 2.043h-1.098Z"/><path fill="#24201E" d="M14 252.747c-.555-.117-1.092-.229-1.61-.336-.518-.108-1.085-.229-1.701-.364l-3.311-.7-1.729-.371c-.527-.112-1.071-.227-1.631-.343v-.966c.555.116 1.097.231 1.624.343l1.736.371 4.83 1.015v-.084l-3.192-2.968a1996.168 1996.168 0 0 0-4.998-4.662v-.861l1.617.343c.532.112 1.115.235 1.75.371l3.297.7c.62.13 1.19.252 1.708.364l1.61.336v.973c-.56-.122-1.097-.236-1.61-.343-.518-.112-1.085-.234-1.701-.364l-4.9-1.036v.084l3.248 3.031c.985.914 1.874 1.743 2.667 2.485L14 251.9v.847Zm.133-12.592a6.233 6.233 0 0 1-.224 1.687c-.07.234-.142.441-.217.623-.08.182-.154.332-.224.448l-.819-.266c.121-.2.233-.427.336-.679a4.8 4.8 0 0 0 .336-1.771c0-.476-.056-.851-.168-1.127-.112-.275-.254-.478-.427-.609a1.34 1.34 0 0 0-.532-.252c-.303-.065-.553-.035-.749.091-.196.126-.345.322-.448.588a2.645 2.645 0 0 0-.154.952v1.281l-.707-.154v-1.288c0-.611-.093-1.068-.28-1.372a1.167 1.167 0 0 0-.777-.553c-.303-.065-.553-.035-.749.091-.2.122-.35.311-.448.567a2.327 2.327 0 0 0-.154.882c0 .215.021.444.063.686.042.238.112.493.21.763.098.266.231.546.399.84l-.889-.07c-.117-.2-.22-.429-.308-.686a5.347 5.347 0 0 1-.287-1.708c0-.527.091-.975.273-1.344.182-.373.436-.644.763-.812.322-.168.69-.21 1.106-.126.425.08.747.266.966.56.22.29.366.607.441.952l.098.021c.042-.168.13-.347.266-.539.135-.196.331-.35.588-.462.252-.116.579-.13.98-.042.28.061.555.185.826.371.266.187.485.474.658.861.168.388.252.92.252 1.596Zm-.133-3.75c-.513-.168-1.013-.329-1.498-.483l-1.456-.476-.945-.308c-.504-.164-1.01-.329-1.519-.497l-1.519-.497v-.945a247.61 247.61 0 0 0 2.863-.637l2.779-.616v-.098l-2.772-1.785-1.442-.931-1.428-.917v-.994c.49.046.999.098 1.526.154.523.051 1.031.102 1.526.154l.973.098c.476.046.959.095 1.449.147l1.463.154v.854c-.56-.061-1.122-.119-1.687-.175-.57-.061-1.13-.119-1.68-.175l-2.17-.224v.098l2.303 1.449A756.501 756.501 0 0 0 14 231.806v.658c-.541.116-1.083.235-1.624.357-.541.116-1.078.231-1.61.343l-2.303.504v.091l2.142.693 1.701.546 1.694.546v.861Zm.14-13.583c0 .766-.163 1.403-.49 1.911a2.594 2.594 0 0 1-1.379 1.064c-.593.201-1.283.217-2.072.049-.667-.14-1.246-.38-1.736-.721a3.598 3.598 0 0 1-1.134-1.246 3.34 3.34 0 0 1-.406-1.631c0-.644.138-1.164.413-1.561.27-.401.64-.672 1.106-.812.462-.144.975-.154 1.54-.028.117.024.245.056.385.098.135.042.257.082.364.119l-.441.721a2.89 2.89 0 0 0-.406-.112c-.649-.14-1.176-.067-1.582.217-.41.285-.616.74-.616 1.365 0 .402.093.784.28 1.148.187.36.474.675.861.945.387.266.88.465 1.477.595l.133.021c.588.126 1.099.115 1.533-.035.434-.149.77-.413 1.008-.791.233-.382.35-.865.35-1.449 0-.233-.019-.473-.056-.721a5.197 5.197 0 0 0-.175-.728 3.844 3.844 0 0 0-.287-.658l.889.133c.07.112.14.278.21.497.07.215.126.462.168.742.042.28.063.57.063.868Zm-3.409 2.751-.679-.112-.028-4.956.189-.539.518.098v5.509ZM14 218.968a814.62 814.62 0 0 0-3.073-.658l-.693-.147c-.41-.089-.789-.168-1.134-.238l-1.022-.217c-.331-.07-.67-.142-1.015-.217l-.035-.903c.345.075.686.149 1.022.224a350.19 350.19 0 0 1 2.184.462l.693.147a340.454 340.454 0 0 1 3.073.651v.896Zm-3.129-1.197-.756-.161v-4.578l.756.161v4.578ZM14 214.278c-.518-.107-1.017-.212-1.498-.315-.485-.107-1.01-.219-1.575-.336l-.693-.147-1.134-.245c-.35-.075-.69-.145-1.022-.21-.331-.07-.67-.142-1.015-.217v-.896c.345.075.684.147 1.015.217l1.022.217c.345.07.723.149 1.134.238l.693.147 1.575.336 1.498.322v.889Zm.14-6.515c0 .765-.163 1.402-.49 1.911a2.604 2.604 0 0 1-1.379 1.064c-.593.2-1.283.217-2.072.049-.667-.14-1.246-.381-1.736-.721a3.606 3.606 0 0 1-1.134-1.246 3.345 3.345 0 0 1-.406-1.631c0-.644.138-1.165.413-1.561a1.98 1.98 0 0 1 1.106-.812c.462-.145.975-.154 1.54-.028.117.023.245.056.385.098.135.042.257.081.364.119l-.441.721a3.86 3.86 0 0 0-.406-.112c-.649-.14-1.176-.068-1.582.217-.41.284-.616.739-.616 1.365 0 .401.093.784.28 1.148.187.359.474.674.861.945.387.266.88.464 1.477.595l.133.021c.588.126 1.099.114 1.533-.035.434-.15.77-.413 1.008-.791.233-.383.35-.866.35-1.449 0-.234-.019-.474-.056-.721a5.163 5.163 0 0 0-.175-.728 3.81 3.81 0 0 0-.287-.658l.889.133c.07.112.14.277.21.497a4.6 4.6 0 0 1 .168.742c.042.28.063.569.063.868Zm-3.409 2.751-.679-.112-.028-4.956.189-.539.518.098v5.509ZM14 203.908a814.62 814.62 0 0 0-3.073-.658l-.693-.147c-.41-.089-.789-.168-1.134-.238l-1.022-.217c-.331-.07-.67-.142-1.015-.217l-.035-.903c.345.075.686.149 1.022.224a350.19 350.19 0 0 1 2.184.462l.693.147a340.454 340.454 0 0 1 3.073.651v.896Zm-3.129-1.197-.756-.161v-4.578l.756.161v4.578ZM14 199.218c-.518-.107-1.017-.212-1.498-.315-.485-.107-1.01-.219-1.575-.336l-.693-.147-1.134-.245c-.35-.075-.69-.145-1.022-.21-.331-.07-.67-.142-1.015-.217v-.896c.345.075.684.147 1.015.217l1.022.217c.345.07.723.149 1.134.238l.693.147 1.575.336 1.498.322v.889Zm0-3.12c-.523-.108-1.022-.213-1.498-.315l-1.575-.336-.693-.147a63.01 63.01 0 0 0-1.134-.238l-1.022-.217-1.015-.217-.035-.882.98.21a162.93 162.93 0 0 1 2.065.434l2.401.511v-.084l-2.408-2.219-1.484-1.372-1.519-1.393v-.84l1.015.217 1.022.217c.345.07.723.149 1.134.238l.693.147 1.575.336c.48.102.98.21 1.498.322v.875l-1.463-.308c-.467-.103-.973-.213-1.519-.329l-2.429-.511v.084l2.359 2.17A781.617 781.617 0 0 0 14 195.258v.84Zm.14-11.253c0 .765-.163 1.402-.49 1.911a2.604 2.604 0 0 1-1.379 1.064c-.593.2-1.283.217-2.072.049-.667-.14-1.246-.381-1.736-.721a3.606 3.606 0 0 1-1.134-1.246 3.345 3.345 0 0 1-.406-1.631c0-.644.138-1.165.413-1.561a1.98 1.98 0 0 1 1.106-.812c.462-.145.975-.154 1.54-.028.117.023.245.056.385.098.135.042.257.081.364.119l-.441.721a3.86 3.86 0 0 0-.406-.112c-.649-.14-1.176-.068-1.582.217-.41.284-.616.739-.616 1.365 0 .401.093.784.28 1.148.187.359.474.674.861.945.387.266.88.464 1.477.595l.133.021c.588.126 1.099.114 1.533-.035.434-.15.77-.413 1.008-.791.233-.383.35-.866.35-1.449 0-.234-.019-.474-.056-.721a5.163 5.163 0 0 0-.175-.728 3.81 3.81 0 0 0-.287-.658l.889.133c.07.112.14.277.21.497a4.6 4.6 0 0 1 .168.742c.042.28.063.569.063.868Zm-3.409 2.751-.679-.112-.028-4.956.189-.539.518.098v5.509Zm3.402-12.617c0 .779-.17 1.428-.511 1.946-.34.518-.81.877-1.407 1.078-.602.196-1.29.214-2.065.056a4.33 4.33 0 0 1-1.687-.721 3.769 3.769 0 0 1-1.141-1.302 3.655 3.655 0 0 1-.413-1.743c0-.285.026-.563.077-.833.047-.276.117-.535.21-.777.093-.243.208-.462.343-.658l.84.259a3.367 3.367 0 0 0-.378.658 2.794 2.794 0 0 0-.196.651 3.639 3.639 0 0 0-.063.686c0 .686.22 1.292.658 1.82.434.522 1.057.872 1.869 1.05.63.135 1.174.128 1.631-.021.457-.154.81-.425 1.057-.812.243-.392.364-.875.364-1.449a2.83 2.83 0 0 0-.063-.595 3.325 3.325 0 0 0-.175-.567 3.284 3.284 0 0 0-.28-.525l.896.077c.075.126.147.277.217.455.065.177.117.375.154.595.042.214.063.438.063.672ZM14 171.632c-.518-.112-1.017-.22-1.498-.322l-1.575-.336-.721-.154-1.113-.238-1.015-.217-1.015-.217-.035-.917 1.519.329c.5.107 1.027.221 1.582.343l.924.196c.537.116 1.036.224 1.498.322l1.449.308v.903Zm0-4.739c-.327.289-.653.576-.98.861-.327.284-.653.574-.98.868l-1.218 1.071v.483l-.679-.147v-.546l-1.078-1.295-1.001-1.211-1.001-1.197v-1.225c.406.49.812.982 1.218 1.477l1.211 1.477 1.183 1.435-.455.14 1.351-1.162c.401-.364.807-.726 1.218-1.085.406-.364.81-.724 1.211-1.078v1.134Zm.119-2.211c0 .065-.005.142-.014.231a2.6 2.6 0 0 1-.028.273c-.01.089-.023.168-.042.238l-.798-.238a2.694 2.694 0 0 0 .049-.42.96.96 0 0 0-.301-.7 2.8 2.8 0 0 0-.798-.546 8.477 8.477 0 0 0-1.113-.427c-.41-.131-.819-.252-1.225-.364-.471-.135-.94-.266-1.407-.392a468.67 468.67 0 0 1-1.379-.385v-4.669c.345.075.684.147 1.015.217l1.022.217c.345.07.723.149 1.134.238l.693.147a831.68 831.68 0 0 0 3.073.651v.903c-.518-.107-1.017-.212-1.498-.315-.485-.107-1.01-.219-1.575-.336l-.693-.147a45.991 45.991 0 0 0-1.085-.231l-.966-.203c-.313-.07-.637-.14-.973-.21l.616-.406v3.962l-.616-.616c.322.089.646.18.973.273l.987.28c.331.089.665.18 1.001.273.541.149 1.05.303 1.526.462.471.154.889.331 1.253.532.364.196.651.432.861.707.205.275.308.609.308 1.001Zm.021-10.119c0 .458-.1.845-.301 1.162a1.66 1.66 0 0 1-.819.679c-.345.136-.73.157-1.155.063a2.012 2.012 0 0 1-.805-.357 2.025 2.025 0 0 1-.518-.595 3.33 3.33 0 0 1-.308-.763 8.222 8.222 0 0 1-.196-.847l-.455-2.443c-.43-.102-.782-.107-1.057-.014a1.006 1.006 0 0 0-.609.518c-.13.257-.196.584-.196.98 0 .154.012.32.035.497a4.9 4.9 0 0 0 .098.574 7.1 7.1 0 0 0 .182.637c.07.224.156.458.259.7l-.889-.147a7.269 7.269 0 0 1-.329-1.127 6.384 6.384 0 0 1-.119-.665 4.554 4.554 0 0 1-.049-.658c0-.588.112-1.061.336-1.421.22-.364.527-.609.924-.735s.856-.13 1.379-.014c.21.042.439.091.686.147l.819.175.903.189.952.21 1.092.231v.833l-.98-.189v.112c.238.192.441.404.609.637a2.798 2.798 0 0 1 .511 1.631Zm-.784-.266c0-.27-.049-.539-.147-.805a2.64 2.64 0 0 0-.49-.791 4.067 4.067 0 0 0-.889-.735l-1.652-.35c.042.089.086.203.133.343.047.136.103.341.168.616.065.271.147.644.245 1.12.06.308.133.593.217.854.084.257.203.474.357.651.15.173.355.287.616.343.485.098.847.026 1.085-.217.238-.242.357-.585.357-1.029Zm.497-9.542-.945-.203c-.308-.065-.62-.133-.938-.203-.322-.07-.672-.144-1.05-.224l-.693-.147-1.078-.231-.966-.203-.973-.203.616-.301v3.822l-.616-.56a71.295 71.295 0 0 1 1.778.49l1.057.287c.439.117.866.252 1.281.406.415.154.8.334 1.155.539.355.201.665.434.931.7l-.126.924a3.3 3.3 0 0 0-.602-.56c-.266-.2-.628-.406-1.085-.616-.457-.21-1.036-.41-1.736-.602-.588-.168-1.097-.31-1.526-.427l-1.274-.343v-4.683c.345.075.684.147 1.015.217l1.015.217c.345.07.721.15 1.127.238l.707.147c.565.117 1.071.224 1.519.322.443.098.912.199 1.407.301v.896Zm2.093 6.139-.658-.14-.672-.14c-.229-.046-.46-.095-.693-.147-.233-.051-.462-.1-.686-.147v-7.665a41.851 41.851 0 0 0 1.4.301c.229.047.448.094.658.14.215.042.432.089.651.14v.798l-2.079-.399.133-.21v6.454l-.133-.273 2.079.49v.798ZM14 141.498a814.62 814.62 0 0 0-3.073-.658l-.721-.154c-.397-.084-.768-.163-1.113-.238l-1.015-.217c-.331-.07-.67-.142-1.015-.217l-.035-.917c.513.112 1.02.222 1.519.329l1.582.343.924.196c.537.117 1.036.224 1.498.322l1.449.308v.903Zm0-4.739c-.327.29-.653.577-.98.861-.327.285-.653.574-.98.868l-1.218 1.071v.483l-.679-.147v-.546l-1.078-1.295-1.001-1.211-1.001-1.197v-1.225c.406.49.812.983 1.218 1.477l1.211 1.477 1.183 1.435-.455.14 1.351-1.162a92.02 92.02 0 0 1 1.218-1.085c.406-.364.81-.723 1.211-1.078v1.134Zm0-2.483c-.523-.108-1.022-.213-1.498-.315l-1.575-.336-.693-.147a63.029 63.029 0 0 0-1.134-.238l-1.022-.217-1.015-.217-.035-.882.98.21a162.93 162.93 0 0 1 2.065.434l2.401.511v-.084l-2.408-2.219-1.484-1.372-1.519-1.393v-.84l1.015.217 1.022.217c.345.07.723.149 1.134.238l.693.147 1.575.336c.48.102.98.21 1.498.322v.875l-1.463-.308c-.467-.103-.973-.213-1.519-.329l-2.429-.511v.084l2.359 2.17A781.617 781.617 0 0 0 14 133.436v.84Zm0-9.901c-.513-.168-1.013-.329-1.498-.483l-1.456-.476-.945-.308c-.504-.163-1.01-.329-1.519-.497l-1.519-.497v-.945c.476-.103.954-.208 1.435-.315l1.428-.322 2.779-.616v-.098l-2.772-1.785-1.442-.931-1.428-.917v-.994c.49.047.999.098 1.526.154.523.051 1.031.103 1.526.154l.973.098c.476.047.959.096 1.449.147l1.463.154v.854c-.56-.061-1.122-.119-1.687-.175-.57-.061-1.13-.119-1.68-.175l-2.17-.224v.098l2.303 1.449 1.617 1.029A496.3 496.3 0 0 0 14 119.776v.658c-.541.117-1.083.236-1.624.357-.541.117-1.078.231-1.61.343l-2.303.504v.091l2.142.693 1.701.546 1.694.546v.861Zm0-10.417c-.555-.117-1.092-.229-1.61-.336-.518-.112-1.085-.234-1.701-.364l-3.304-.7-1.743-.371a490.36 490.36 0 0 0-1.624-.343v-3.213c0-.747.126-1.351.378-1.813.247-.467.602-.787 1.064-.959.457-.173 1.003-.192 1.638-.056.597.126 1.104.326 1.519.602.415.27.733.674.952 1.211.215.536.322 1.269.322 2.198v2.443l-.826-.182v-2.24c0-.64-.06-1.162-.182-1.568-.121-.406-.329-.724-.623-.952-.299-.234-.712-.406-1.239-.518-.448-.094-.814-.094-1.099 0a1.263 1.263 0 0 0-.658.462 1.883 1.883 0 0 0-.315.735c-.06.275-.091.546-.091.812v2.737l-.707-.63c.565.116 1.108.231 1.631.343.518.107 1.083.226 1.694.357l3.206.679c.616.13 1.185.252 1.708.364.518.107 1.055.219 1.61.336v.966Zm0-15.297a222.38 222.38 0 0 0-1.61-.343 172.5 172.5 0 0 1-1.708-.364l-3.304-.7c-.63-.135-1.211-.259-1.743-.37l-1.617-.344v-.987c.546.117 1.085.231 1.617.343l1.75.371 3.297.7c.62.136 1.19.257 1.708.364.513.108 1.05.222 1.61.343v.987Zm0 6.748c-.555-.121-1.092-.235-1.61-.343-.518-.107-1.085-.228-1.701-.364l-3.311-.7-1.729-.371a487.64 487.64 0 0 0-1.631-.343v-.987l1.624.343 1.743.371 3.304.7c.616.136 1.183.257 1.701.364.518.108 1.055.222 1.61.343v.987Zm-4.627-1.575-.868-.182v-6.594l.868.19v6.586ZM14 88.804a470.782 470.782 0 0 1-2.646 2.066l-2.1 1.638v.7l-.826-.175v-.7l-1.771-2.121-1.225-1.463c-.406-.485-.877-1.048-1.414-1.687V85.76c.541.649 1.069 1.279 1.582 1.89l1.533 1.827L9.086 91.8l-.476.02 2.191-1.714c.336-.266.7-.548 1.092-.847A1512.147 1512.147 0 0 0 14 87.608v1.197Zm0 6.259c-.55-.121-1.085-.236-1.603-.343-.523-.107-1.092-.229-1.708-.364l-3.311-.7c-.63-.135-1.206-.26-1.729-.371a487.64 487.64 0 0 0-1.631-.343v-.98a773.152 773.152 0 0 1 3.36.714l3.311.7c.616.13 1.185.252 1.708.364.518.107 1.052.22 1.603.336v.987Zm0-11.298c-.541-.182-1.078-.362-1.61-.539-.537-.182-1.108-.373-1.715-.574l-3.297-1.099c-.602-.2-1.167-.39-1.694-.567-.532-.177-1.087-.362-1.666-.553v-.945l2.184-.434c.705-.145 1.407-.287 2.107-.427l4.116-.819v-.084l-4.13-2.555-2.093-1.295-2.184-1.351v-1.029l1.652.147 1.715.154 3.318.294a608.061 608.061 0 0 1 3.297.294v.938a1699.2 1699.2 0 0 0-5.033-.441l-3.15-.28v.07l3.395 2.093 2.478 1.519c.826.504 1.596.978 2.31 1.421v.679c-.448.089-.94.189-1.477.301l-1.652.329c-.565.112-1.108.222-1.631.329l-3.423.686v.07l3.157 1.05c.728.238 1.514.497 2.359.777.84.275 1.729.57 2.667.882v.959Zm.147-17.353c0 .938-.194 1.675-.581 2.212a2.752 2.752 0 0 1-1.54 1.064c-.64.172-1.335.18-2.086.02a41.602 41.602 0 0 0-.686-.146 565.72 565.72 0 0 1-1.883-.406c-.625-.136-1.202-.26-1.729-.371-.532-.117-1.073-.234-1.624-.35v-.98l1.624.343 1.736.37 2.555.547c.62.135 1.185.151 1.694.049a1.95 1.95 0 0 0 1.197-.75c.294-.391.441-.947.441-1.665 0-.714-.119-1.293-.357-1.736a2.544 2.544 0 0 0-.994-1.03 5.163 5.163 0 0 0-1.477-.545l-3.059-.651c-.625-.14-1.204-.266-1.736-.378l-1.624-.343v-.987c.546.116 1.085.233 1.617.35a491.608 491.608 0 0 1 3.017.644c.42.088.805.17 1.155.245.345.074.628.133.847.175.658.14 1.25.373 1.778.7.523.322.94.774 1.253 1.358.308.583.462 1.337.462 2.26Zm0-10.815c0 .836-.159 1.554-.476 2.157a3.81 3.81 0 0 1-1.288 1.428 4.542 4.542 0 0 1-1.841.685 5.922 5.922 0 0 1-2.135-.084c-.994-.205-1.83-.566-2.506-1.084a4.95 4.95 0 0 1-1.533-1.932c-.35-.775-.525-1.653-.525-2.633a6.729 6.729 0 0 1 .245-1.806 5.96 5.96 0 0 1 .287-.805c.112-.252.238-.478.378-.679l.917.288a5.278 5.278 0 0 0-.539.965c-.14.318-.24.65-.301.995-.065.34-.098.697-.098 1.07 0 .775.138 1.477.413 2.108a4.02 4.02 0 0 0 1.26 1.595c.56.434 1.276.745 2.149.931a5.41 5.41 0 0 0 1.743.092 3.8 3.8 0 0 0 1.512-.511 2.913 2.913 0 0 0 1.064-1.128c.261-.48.392-1.068.392-1.764 0-.237-.014-.478-.042-.72a5.495 5.495 0 0 0-.147-.721 4.275 4.275 0 0 0-.259-.707 5.099 5.099 0 0 0-.378-.68l1.036.12c.112.186.212.392.301.615.084.224.154.46.21.707a7.605 7.605 0 0 1 .161 1.498Zm-7.126-5.572-.812.063-.917-1.876a710.76 710.76 0 0 1-.924-1.87l.952.21.854 1.737c.28.578.562 1.157.847 1.736ZM14 48.842c-.518-.112-1.015-.217-1.491-.315a731.61 731.61 0 0 0-1.582-.336l-3.066-.651a188.64 188.64 0 0 0-1.519-.322c-.5-.108-1.006-.215-1.519-.322l-.455-.553.042-.455c.509.107 1.04.221 1.596.343.555.116 1.127.238 1.715.364l3.199.672c.583.121 1.113.233 1.589.336.476.102.973.207 1.491.315v.924Z"/><path fill="#484443" d="M39.242 28.11c0 .463-.08.882-.242 1.257-.162.37-.394.688-.696.953a3.17 3.17 0 0 1-1.117.617 4.928 4.928 0 0 1-1.5.211c-.338 0-.656-.028-.953-.085a6.172 6.172 0 0 1-.781-.188 4.223 4.223 0 0 1-.57-.234 2.01 2.01 0 0 1-.29-.18.526.526 0 0 1-.14-.242 1.316 1.316 0 0 1-.04-.188 4.32 4.32 0 0 1-.007-.281c0-.188.018-.318.055-.39.036-.073.088-.11.156-.11.047 0 .138.042.273.125.14.083.318.174.532.273.218.094.47.183.757.266.292.083.615.125.97.125.343 0 .645-.044.905-.133.26-.088.48-.213.657-.375a1.55 1.55 0 0 0 .398-.57 1.95 1.95 0 0 0 .133-.727 1.7 1.7 0 0 0-.172-.773 1.62 1.62 0 0 0-.492-.594 2.27 2.27 0 0 0-.797-.383 3.93 3.93 0 0 0-1.07-.132h-.961a.352.352 0 0 1-.125-.024.34.34 0 0 1-.102-.094.704.704 0 0 1-.07-.164 1.222 1.222 0 0 1-.024-.265c0-.1.008-.18.024-.242a.443.443 0 0 1 .062-.157.257.257 0 0 1 .102-.086.248.248 0 0 1 .125-.03h.883c.343 0 .65-.045.922-.134.276-.088.507-.216.695-.383.193-.166.338-.364.437-.593a1.91 1.91 0 0 0 .157-.782c0-.208-.034-.406-.102-.593a1.361 1.361 0 0 0-.305-.5c-.135-.14-.31-.25-.523-.328a1.946 1.946 0 0 0-.727-.125c-.302 0-.58.046-.836.14-.25.089-.474.185-.671.29a4.207 4.207 0 0 0-.493.296c-.13.089-.221.133-.273.133a.32.32 0 0 1-.102-.016.208.208 0 0 1-.07-.078.84.84 0 0 1-.039-.164 4.102 4.102 0 0 1 0-.484.702.702 0 0 1 .086-.281.63.63 0 0 1 .102-.126c.052-.052.153-.125.304-.218a4.436 4.436 0 0 1 2.258-.602c.469 0 .88.06 1.234.18a2.4 2.4 0 0 1 .883.508c.24.218.417.482.531.789.12.302.18.638.18 1.008 0 .317-.042.614-.125.89a2.337 2.337 0 0 1-.367.727 2.36 2.36 0 0 1-.594.539 2.332 2.332 0 0 1-.812.305v.015c.349.037.666.125.953.266.291.135.541.307.75.515a2.2 2.2 0 0 1 .484.735c.12.276.18.573.18.89Zm3.707 1.773c0 .161-.008.31-.023.445a2.16 2.16 0 0 1-.079.383c-.036.12-.085.237-.148.352-.057.12-.13.244-.219.375l-1.07 1.609a.4.4 0 0 1-.094.094.461.461 0 0 1-.125.07.52.52 0 0 1-.172.039c-.062.01-.143.016-.242.016a1.44 1.44 0 0 1-.226-.016.235.235 0 0 1-.125-.04.097.097 0 0 1-.047-.07c0-.03.01-.067.031-.109l1.04-2.148v-1c0-.14.012-.253.038-.336a.374.374 0 0 1 .14-.188.596.596 0 0 1 .235-.086 2.14 2.14 0 0 1 .344-.023c.13 0 .242.008.336.023a.53.53 0 0 1 .226.086.336.336 0 0 1 .133.188.982.982 0 0 1 .047.336Zm8.496-3.961c0 .776-.062 1.484-.187 2.125-.12.64-.323 1.193-.61 1.656a2.993 2.993 0 0 1-1.109 1.07c-.458.25-1.023.375-1.695.375-.636 0-1.172-.111-1.61-.335a2.678 2.678 0 0 1-1.047-1c-.265-.443-.455-.985-.57-1.625a13.395 13.395 0 0 1-.164-2.22c0-.77.063-1.476.188-2.116.125-.646.328-1.198.609-1.657.281-.463.651-.82 1.11-1.07.458-.255 1.02-.383 1.687-.383.64 0 1.177.115 1.61.344.437.224.788.557 1.054 1 .266.437.453.98.562 1.625.115.64.172 1.378.172 2.21Zm-1.375.094c0-.506-.018-.959-.054-1.36a7.627 7.627 0 0 0-.164-1.062 3.172 3.172 0 0 0-.274-.79 1.767 1.767 0 0 0-.398-.546 1.372 1.372 0 0 0-.54-.313 2.069 2.069 0 0 0-.671-.101c-.443 0-.802.104-1.078.312a2.129 2.129 0 0 0-.657.86 4.611 4.611 0 0 0-.32 1.28 13.7 13.7 0 0 0-.086 1.579c0 .755.04 1.398.117 1.93.078.526.2.955.367 1.289.172.333.389.575.649.726.266.151.586.227.96.227.293 0 .548-.047.767-.14.223-.095.414-.227.57-.4.161-.176.294-.387.398-.632.104-.245.188-.516.25-.813a6.55 6.55 0 0 0 .125-.96c.026-.35.04-.711.04-1.086ZM39.32 71.422c0 .094-.008.177-.023.25a.616.616 0 0 1-.055.187.242.242 0 0 1-.094.11.248.248 0 0 1-.125.031h-5.586a.745.745 0 0 1-.195-.023.417.417 0 0 1-.14-.094.446.446 0 0 1-.087-.18 1.507 1.507 0 0 1-.023-.289c0-.104.003-.195.008-.273a.719.719 0 0 1 .054-.204 1.18 1.18 0 0 1 .25-.374l1.961-2.079c.453-.479.815-.908 1.086-1.289.276-.38.487-.726.633-1.039a3.403 3.403 0 0 0 .367-1.57c0-.224-.036-.435-.11-.633a1.527 1.527 0 0 0-.32-.531 1.432 1.432 0 0 0-.515-.36 1.824 1.824 0 0 0-.719-.132c-.317 0-.604.044-.86.133a4.694 4.694 0 0 0-1.14.578c-.125.088-.219.132-.281.132a.18.18 0 0 1-.102-.03.265.265 0 0 1-.07-.102 1.044 1.044 0 0 1-.039-.188 2.17 2.17 0 0 1-.016-.281c0-.078.003-.146.008-.203a.992.992 0 0 1 .024-.149.808.808 0 0 1 .054-.117.554.554 0 0 1 .125-.133 2.39 2.39 0 0 1 .32-.226 5.088 5.088 0 0 1 1.344-.508c.282-.063.576-.094.883-.094.49 0 .917.07 1.281.211.37.136.675.323.914.563.245.24.428.518.547.836.12.317.18.656.18 1.015 0 .323-.029.646-.086.969a3.91 3.91 0 0 1-.367 1.039c-.182.37-.448.784-.797 1.242-.349.453-.812.977-1.39 1.57l-1.602 1.672h4.398a.19.19 0 0 1 .117.04.24.24 0 0 1 .102.101.433.433 0 0 1 .063.18c.015.067.023.148.023.242Zm3.63-.54c0 .162-.009.31-.024.446a2.16 2.16 0 0 1-.079.383c-.036.12-.085.237-.148.352-.057.12-.13.244-.219.374l-1.07 1.61a.4.4 0 0 1-.094.094.461.461 0 0 1-.125.07.52.52 0 0 1-.172.039c-.062.01-.143.016-.242.016a1.44 1.44 0 0 1-.226-.016.235.235 0 0 1-.125-.04.097.097 0 0 1-.047-.07c0-.03.01-.067.031-.109l1.04-2.148v-1c0-.14.012-.253.038-.336a.374.374 0 0 1 .14-.188.596.596 0 0 1 .235-.086 2.14 2.14 0 0 1 .344-.023c.13 0 .242.008.336.023a.53.53 0 0 1 .226.086.336.336 0 0 1 .133.188.982.982 0 0 1 .047.336Zm8.112-2.132c0 .542-.09 1.023-.273 1.445-.182.422-.44.779-.773 1.07a3.448 3.448 0 0 1-1.196.657 4.875 4.875 0 0 1-1.53.226c-.313 0-.61-.023-.892-.07a5.883 5.883 0 0 1-.75-.156 5 5 0 0 1-.539-.195 1.255 1.255 0 0 1-.273-.149.41.41 0 0 1-.078-.101 1.175 1.175 0 0 1-.047-.11 1.253 1.253 0 0 1-.023-.172 3.222 3.222 0 0 1 0-.476.571.571 0 0 1 .046-.172.265.265 0 0 1 .07-.102.18.18 0 0 1 .102-.03c.052 0 .133.033.242.1.11.063.256.133.438.212.187.072.417.143.687.21.276.068.602.102.977.102.349 0 .67-.042.96-.125.293-.083.543-.213.75-.39a1.82 1.82 0 0 0 .5-.665c.12-.27.18-.599.18-.984 0-.323-.051-.607-.156-.852a1.41 1.41 0 0 0-.468-.617 2.017 2.017 0 0 0-.797-.367 4.673 4.673 0 0 0-1.157-.125c-.317 0-.59.016-.82.047a4.79 4.79 0 0 1-.64.047c-.146 0-.25-.034-.313-.102-.062-.068-.094-.198-.094-.39v-4.118c0-.171.04-.299.117-.382a.475.475 0 0 1 .352-.125h4.477a.2.2 0 0 1 .117.039c.041.02.075.054.101.101a.526.526 0 0 1 .055.18c.016.073.023.159.023.258a.996.996 0 0 1-.078.437c-.052.104-.125.157-.218.157h-3.774v2.835c.183-.026.367-.041.555-.046.193-.006.414-.008.664-.008.578 0 1.083.07 1.516.21.432.136.791.331 1.078.587.291.25.51.554.656.914.151.36.227.757.227 1.195ZM39.32 112.422a1.2 1.2 0 0 1-.023.25.61.61 0 0 1-.055.187.242.242 0 0 1-.094.11.245.245 0 0 1-.125.031h-5.586a.772.772 0 0 1-.195-.023.43.43 0 0 1-.14-.094.45.45 0 0 1-.087-.18 1.503 1.503 0 0 1-.023-.289c0-.104.003-.195.008-.273a.707.707 0 0 1 .054-.203 1.147 1.147 0 0 1 .25-.376l1.961-2.078c.453-.479.815-.908 1.086-1.289.276-.38.487-.726.633-1.039a3.398 3.398 0 0 0 .367-1.57c0-.224-.036-.435-.11-.633a1.527 1.527 0 0 0-.32-.531 1.44 1.44 0 0 0-.515-.36 1.834 1.834 0 0 0-.719-.132c-.317 0-.604.044-.86.132a4.658 4.658 0 0 0-1.14.579c-.125.088-.219.132-.281.132a.178.178 0 0 1-.102-.031.263.263 0 0 1-.07-.101 1.057 1.057 0 0 1-.039-.188 2.17 2.17 0 0 1-.016-.281c0-.078.003-.146.008-.203a.991.991 0 0 1 .024-.149.87.87 0 0 1 .054-.117.56.56 0 0 1 .125-.133c.063-.057.17-.132.32-.226.157-.094.35-.185.579-.274.234-.093.49-.172.765-.234.282-.063.576-.094.883-.094.49 0 .917.07 1.281.211.37.136.675.323.914.563.245.239.428.518.547.836.12.317.18.656.18 1.015 0 .323-.029.646-.086.969a3.91 3.91 0 0 1-.367 1.039c-.182.37-.448.784-.797 1.242a18.63 18.63 0 0 1-1.39 1.571l-1.602 1.671h4.398c.042 0 .081.013.117.039a.24.24 0 0 1 .102.102.434.434 0 0 1 .063.18c.015.067.023.148.023.242Zm3.63-.539c0 .161-.009.31-.024.445a2.155 2.155 0 0 1-.079.383c-.036.12-.085.237-.148.351a2.93 2.93 0 0 1-.219.376l-1.07 1.609a.408.408 0 0 1-.094.094.469.469 0 0 1-.125.07.513.513 0 0 1-.172.039 1.57 1.57 0 0 1-.242.016 1.44 1.44 0 0 1-.226-.016.233.233 0 0 1-.125-.039.097.097 0 0 1-.047-.07.25.25 0 0 1 .031-.11l1.04-2.148v-1c0-.141.012-.253.038-.336a.38.38 0 0 1 .14-.188.611.611 0 0 1 .235-.086c.094-.015.209-.023.344-.023.13 0 .242.008.336.023.094.016.17.045.226.086a.34.34 0 0 1 .133.188.98.98 0 0 1 .047.336Zm8.495-3.961c0 .776-.062 1.484-.187 2.125-.12.641-.323 1.193-.61 1.656a2.993 2.993 0 0 1-1.109 1.07c-.458.25-1.023.375-1.695.375-.636 0-1.172-.112-1.61-.336a2.673 2.673 0 0 1-1.047-1c-.265-.442-.455-.984-.57-1.624a13.403 13.403 0 0 1-.164-2.219c0-.771.063-1.477.188-2.117.125-.646.328-1.198.609-1.657.281-.463.651-.82 1.11-1.07.458-.255 1.02-.383 1.687-.383.64 0 1.177.115 1.61.344.437.224.788.557 1.054 1 .266.437.453.979.562 1.625.115.641.172 1.378.172 2.211Zm-1.375.094c0-.506-.018-.959-.054-1.36a7.616 7.616 0 0 0-.164-1.062 3.152 3.152 0 0 0-.274-.789 1.76 1.76 0 0 0-.398-.547 1.377 1.377 0 0 0-.54-.313 2.088 2.088 0 0 0-.671-.101c-.443 0-.802.104-1.078.312a2.132 2.132 0 0 0-.657.86 4.6 4.6 0 0 0-.32 1.281 13.59 13.59 0 0 0-.086 1.578c0 .755.04 1.398.117 1.93.078.526.2.955.367 1.289.172.333.389.575.649.726.266.151.586.227.96.227.293 0 .548-.047.767-.141.223-.094.414-.226.57-.398.161-.177.294-.388.398-.633.104-.245.188-.516.25-.813a6.55 6.55 0 0 0 .125-.96c.026-.349.04-.711.04-1.086Zm-10.727 45.453c0 .099-.007.182-.023.25a.551.551 0 0 1-.063.164.276.276 0 0 1-.093.094.232.232 0 0 1-.102.023h-5.281a.232.232 0 0 1-.102-.023.416.416 0 0 1-.093-.094.551.551 0 0 1-.063-.164 1.136 1.136 0 0 1-.023-.25c0-.094.008-.175.023-.242a.763.763 0 0 1 .055-.165.293.293 0 0 1 .086-.101.198.198 0 0 1 .117-.039h2.11v-7.688l-1.954 1.164a.825.825 0 0 1-.242.094c-.057.011-.104 0-.14-.031a.334.334 0 0 1-.079-.172 2.319 2.319 0 0 1-.015-.297c0-.088.002-.164.007-.226a.866.866 0 0 1 .04-.157.378.378 0 0 1 .062-.109.83.83 0 0 1 .117-.094l2.328-1.492a.255.255 0 0 1 .078-.039c.032-.01.07-.021.118-.031a.726.726 0 0 1 .164-.016 2.995 2.995 0 0 1 .547.008c.083.01.148.026.195.047.047.015.078.039.094.07a.165.165 0 0 1 .023.086v8.883h1.828c.042 0 .08.013.117.039a.213.213 0 0 1 .086.101.438.438 0 0 1 .055.165c.016.067.023.148.023.242Zm3.606-.586c0 .161-.008.31-.023.445a2.155 2.155 0 0 1-.079.383c-.036.12-.085.237-.148.351a2.93 2.93 0 0 1-.219.376l-1.07 1.609a.408.408 0 0 1-.094.094.469.469 0 0 1-.125.07.513.513 0 0 1-.172.039 1.57 1.57 0 0 1-.242.016 1.44 1.44 0 0 1-.226-.016.233.233 0 0 1-.125-.039.097.097 0 0 1-.047-.07.25.25 0 0 1 .031-.11l1.04-2.148v-1c0-.141.012-.253.038-.336a.38.38 0 0 1 .14-.188.611.611 0 0 1 .235-.086c.094-.015.209-.023.344-.023.13 0 .242.008.336.023.094.016.17.045.226.086a.34.34 0 0 1 .133.188.98.98 0 0 1 .047.336Zm8.114-2.133c0 .542-.092 1.023-.274 1.445-.182.422-.44.779-.773 1.071a3.454 3.454 0 0 1-1.196.656 4.875 4.875 0 0 1-1.53.226c-.313 0-.61-.023-.892-.07a6.046 6.046 0 0 1-.75-.156 5.186 5.186 0 0 1-.539-.195 1.25 1.25 0 0 1-.273-.149.404.404 0 0 1-.078-.101 1.241 1.241 0 0 1-.047-.11 1.25 1.25 0 0 1-.023-.172 3.2 3.2 0 0 1 0-.476.575.575 0 0 1 .046-.172.268.268 0 0 1 .07-.102.178.178 0 0 1 .102-.031c.052 0 .133.034.242.102.11.062.256.132.438.211.187.072.417.143.687.211.276.067.602.101.977.101.349 0 .67-.042.96-.125.293-.083.543-.213.75-.391.215-.177.381-.398.5-.664.12-.27.18-.599.18-.984 0-.323-.051-.607-.156-.852a1.412 1.412 0 0 0-.468-.617 2.024 2.024 0 0 0-.797-.367 4.692 4.692 0 0 0-1.157-.125c-.317 0-.59.016-.82.047a4.79 4.79 0 0 1-.64.047c-.146 0-.25-.034-.313-.102-.062-.067-.094-.198-.094-.39v-4.118c0-.171.04-.299.117-.382a.475.475 0 0 1 .352-.125h4.477a.2.2 0 0 1 .117.039.238.238 0 0 1 .101.101.528.528 0 0 1 .055.18c.016.073.023.159.023.258a.995.995 0 0 1-.078.437c-.052.104-.125.156-.218.156h-3.774v2.836a4.84 4.84 0 0 1 .555-.046c.193-.006.414-.008.664-.008.578 0 1.083.07 1.516.211.432.135.791.33 1.078.586.291.25.51.554.656.914.151.359.227.757.227 1.195Zm-11.72 43.719c0 .099-.007.182-.023.25a.551.551 0 0 1-.063.164.276.276 0 0 1-.093.094.232.232 0 0 1-.102.023h-5.281a.232.232 0 0 1-.102-.023.416.416 0 0 1-.093-.094.551.551 0 0 1-.063-.164 1.136 1.136 0 0 1-.023-.25c0-.094.008-.175.023-.242a.763.763 0 0 1 .055-.165.293.293 0 0 1 .086-.101.198.198 0 0 1 .117-.039h2.11v-7.688l-1.954 1.164a.825.825 0 0 1-.242.094c-.057.011-.104 0-.14-.031a.334.334 0 0 1-.079-.172 2.319 2.319 0 0 1-.015-.297c0-.088.002-.164.007-.226a.866.866 0 0 1 .04-.157.378.378 0 0 1 .062-.109.83.83 0 0 1 .117-.094l2.328-1.492a.255.255 0 0 1 .078-.039c.032-.01.07-.021.118-.031a.726.726 0 0 1 .164-.016 2.995 2.995 0 0 1 .547.008c.083.01.148.026.195.047.047.015.078.039.094.07a.165.165 0 0 1 .023.086v8.883h1.828c.042 0 .08.013.117.039a.213.213 0 0 1 .086.101.438.438 0 0 1 .055.165c.016.067.023.148.023.242Zm3.606-.586c0 .161-.008.31-.023.445a2.155 2.155 0 0 1-.079.383c-.036.12-.085.237-.148.351a2.93 2.93 0 0 1-.219.376l-1.07 1.609a.408.408 0 0 1-.094.094.469.469 0 0 1-.125.07.513.513 0 0 1-.172.039 1.57 1.57 0 0 1-.242.016 1.44 1.44 0 0 1-.226-.016.233.233 0 0 1-.125-.039.097.097 0 0 1-.047-.07.25.25 0 0 1 .031-.11l1.04-2.148v-1c0-.141.012-.253.038-.336a.38.38 0 0 1 .14-.188.611.611 0 0 1 .235-.086c.094-.015.209-.023.344-.023.13 0 .242.008.336.023.094.016.17.045.226.086a.34.34 0 0 1 .133.188.98.98 0 0 1 .047.336Zm8.496-3.961c0 .776-.062 1.484-.187 2.125-.12.641-.323 1.193-.61 1.656a2.993 2.993 0 0 1-1.109 1.07c-.458.25-1.023.375-1.695.375-.636 0-1.172-.112-1.61-.336a2.673 2.673 0 0 1-1.047-1c-.265-.442-.455-.984-.57-1.624a13.403 13.403 0 0 1-.164-2.219c0-.771.063-1.477.188-2.117.125-.646.328-1.198.609-1.657.281-.463.651-.82 1.11-1.07.458-.255 1.02-.383 1.687-.383.64 0 1.177.115 1.61.344.437.224.788.557 1.054 1 .266.437.453.979.562 1.625.115.641.172 1.378.172 2.211Zm-1.375.094c0-.506-.018-.959-.054-1.36a7.616 7.616 0 0 0-.164-1.062 3.152 3.152 0 0 0-.274-.789 1.76 1.76 0 0 0-.398-.547 1.377 1.377 0 0 0-.54-.313 2.088 2.088 0 0 0-.671-.101c-.443 0-.802.104-1.078.312a2.132 2.132 0 0 0-.657.86 4.6 4.6 0 0 0-.32 1.281 13.59 13.59 0 0 0-.086 1.578c0 .755.04 1.398.117 1.93.078.526.2.955.367 1.289.172.333.389.575.649.726.266.151.586.227.96.227.293 0 .548-.047.767-.141.223-.094.414-.226.57-.398.161-.177.294-.388.398-.633.104-.245.188-.516.25-.813a6.55 6.55 0 0 0 .125-.96c.026-.349.04-.711.04-1.086Zm-10.414 40.906c0 .776-.063 1.484-.188 2.125-.12.641-.323 1.193-.609 1.656a2.994 2.994 0 0 1-1.11 1.07c-.458.25-1.023.375-1.695.375-.635 0-1.172-.112-1.609-.336a2.673 2.673 0 0 1-1.047-1c-.266-.442-.456-.984-.57-1.624a13.403 13.403 0 0 1-.164-2.219c0-.771.062-1.477.187-2.117.125-.646.328-1.198.61-1.657.28-.463.65-.82 1.109-1.07.458-.255 1.02-.383 1.688-.383.64 0 1.177.115 1.609.344.437.224.789.557 1.055 1 .265.437.453.979.562 1.625.115.641.172 1.378.172 2.211Zm-1.375.094c0-.506-.018-.959-.055-1.36a7.616 7.616 0 0 0-.164-1.062 3.152 3.152 0 0 0-.273-.789 1.759 1.759 0 0 0-.399-.547 1.376 1.376 0 0 0-.539-.313 2.088 2.088 0 0 0-.672-.101c-.442 0-.802.104-1.078.312a2.133 2.133 0 0 0-.656.86 4.6 4.6 0 0 0-.32 1.281 13.59 13.59 0 0 0-.086 1.578c0 .755.039 1.398.117 1.93.078.526.2.955.367 1.289.172.333.388.575.649.726.265.151.586.227.96.227.292 0 .547-.047.766-.141.224-.094.414-.226.57-.398.162-.177.295-.388.399-.633.104-.245.187-.516.25-.813.062-.296.104-.617.125-.96.026-.349.039-.711.039-1.086Zm4.668 3.867c0 .161-.008.31-.023.445a2.155 2.155 0 0 1-.079.383c-.036.12-.085.237-.148.351a2.93 2.93 0 0 1-.219.376l-1.07 1.609a.408.408 0 0 1-.094.094.469.469 0 0 1-.125.07.513.513 0 0 1-.172.039 1.57 1.57 0 0 1-.242.016 1.44 1.44 0 0 1-.226-.016.233.233 0 0 1-.125-.039.097.097 0 0 1-.047-.07.25.25 0 0 1 .031-.11l1.04-2.148v-1c0-.141.012-.253.038-.336a.38.38 0 0 1 .14-.188.611.611 0 0 1 .235-.086c.094-.015.209-.023.344-.023.13 0 .242.008.336.023.094.016.17.045.226.086a.34.34 0 0 1 .133.188.98.98 0 0 1 .047.336Zm8.114-2.133c0 .542-.092 1.023-.274 1.445-.182.422-.44.779-.773 1.071a3.454 3.454 0 0 1-1.196.656 4.875 4.875 0 0 1-1.53.226c-.313 0-.61-.023-.892-.07a6.046 6.046 0 0 1-.75-.156 5.186 5.186 0 0 1-.539-.195 1.25 1.25 0 0 1-.273-.149.404.404 0 0 1-.078-.101 1.241 1.241 0 0 1-.047-.11 1.25 1.25 0 0 1-.023-.172 3.2 3.2 0 0 1 0-.476.575.575 0 0 1 .046-.172.268.268 0 0 1 .07-.102.178.178 0 0 1 .102-.031c.052 0 .133.034.242.102.11.062.256.132.438.211.187.072.417.143.687.211.276.067.602.101.977.101.349 0 .67-.042.96-.125.293-.083.543-.213.75-.391.215-.177.381-.398.5-.664.12-.27.18-.599.18-.984 0-.323-.051-.607-.156-.852a1.412 1.412 0 0 0-.468-.617 2.024 2.024 0 0 0-.797-.367 4.692 4.692 0 0 0-1.157-.125c-.317 0-.59.016-.82.047a4.79 4.79 0 0 1-.64.047c-.146 0-.25-.034-.313-.102-.062-.067-.094-.198-.094-.39v-4.118c0-.171.04-.299.117-.382a.475.475 0 0 1 .352-.125h4.477a.2.2 0 0 1 .117.039.238.238 0 0 1 .101.101.528.528 0 0 1 .055.18c.016.073.023.159.023.258a.995.995 0 0 1-.078.437c-.052.104-.125.156-.218.156h-3.774v2.836a4.84 4.84 0 0 1 .555-.046c.193-.006.414-.008.664-.008.578 0 1.083.07 1.516.211.432.135.791.33 1.078.586.291.25.51.554.656.914.151.359.227.757.227 1.195Zm.382 39.172c0 .776-.062 1.484-.187 2.125-.12.641-.323 1.193-.61 1.656a2.993 2.993 0 0 1-1.109 1.07c-.458.25-1.023.375-1.695.375-.636 0-1.172-.112-1.61-.336a2.673 2.673 0 0 1-1.047-1c-.265-.442-.455-.984-.57-1.624a13.403 13.403 0 0 1-.164-2.219c0-.771.063-1.477.188-2.117.125-.646.328-1.198.609-1.657.281-.463.651-.82 1.11-1.07.458-.255 1.02-.383 1.687-.383.64 0 1.177.115 1.61.344.437.224.788.557 1.054 1 .266.437.453.979.562 1.625.115.641.172 1.378.172 2.211Zm-1.375.094c0-.506-.018-.959-.054-1.36a7.616 7.616 0 0 0-.164-1.062 3.152 3.152 0 0 0-.274-.789 1.76 1.76 0 0 0-.398-.547 1.377 1.377 0 0 0-.54-.313 2.088 2.088 0 0 0-.671-.101c-.443 0-.802.104-1.078.312a2.132 2.132 0 0 0-.657.86 4.6 4.6 0 0 0-.32 1.281 13.59 13.59 0 0 0-.086 1.578c0 .755.04 1.398.117 1.93.078.526.2.955.367 1.289.172.333.389.575.649.726.266.151.586.227.96.227.293 0 .548-.047.767-.141.223-.094.414-.226.57-.398.161-.177.294-.388.398-.633.104-.245.188-.516.25-.813a6.55 6.55 0 0 0 .125-.96c.026-.349.04-.711.04-1.086Zm101.899 29.859.018-1.314h.603c1.056 0 1.914-.15 2.574-.45.666-.3 1.158-.741 1.476-1.323.318-.588.477-1.317.477-2.187 0-.882-.156-1.617-.468-2.205-.312-.594-.795-1.041-1.449-1.341-.648-.3-1.488-.45-2.52-.45h-.603l-.018-1.314h.639c1.458 0 2.634.225 3.528.675.894.45 1.545 1.074 1.953 1.872.414.792.621 1.713.621 2.763 0 1.008-.204 1.911-.612 2.709-.402.792-1.059 1.419-1.971 1.881-.906.456-2.121.684-3.645.684h-.603Zm-.801 0c-1.146 0-2.115-.132-2.907-.396-.792-.264-1.434-.633-1.926-1.107a4.332 4.332 0 0 1-1.062-1.674 6.377 6.377 0 0 1-.333-2.097c0-1.05.204-1.971.612-2.763.408-.798 1.059-1.422 1.953-1.872.9-.45 2.079-.675 3.537-.675h.63l-.018 1.314h-.603c-1.02 0-1.857.15-2.511.45-.654.3-1.137.747-1.449 1.341-.312.588-.468 1.323-.468 2.205 0 .87.156 1.599.468 2.187.318.582.81 1.023 1.476 1.323.666.3 1.524.45 2.574.45h.603l.018 1.314h-.594Zm-.117 1.503v-1.836l.036-.036v-9.846l-.036-.036v-1.836h1.629v1.836l-.036.036v9.846l.036.036v1.836h-1.629Zm11.988-.378v-8.694l.495.981h-3.582v-1.215h7.659v1.215h-3.582l.495-.981V303h-1.485Zm10.266.198c-.738 0-1.389-.126-1.953-.378a4.098 4.098 0 0 1-1.404-1.044 4.618 4.618 0 0 1-.864-1.503 5.573 5.573 0 0 1-.288-1.791c0-.894.18-1.686.54-2.376a4.134 4.134 0 0 1 1.548-1.647c.672-.402 1.47-.603 2.394-.603.714 0 1.347.117 1.899.351.552.234 1.02.561 1.404.981.384.42.675.912.873 1.476a5.4 5.4 0 0 1 .297 1.818c0 .882-.18 1.68-.54 2.394a4.215 4.215 0 0 1-1.539 1.701c-.66.414-1.449.621-2.367.621Zm0-1.296c.654 0 1.197-.162 1.629-.486.432-.324.756-.747.972-1.269a4.311 4.311 0 0 0 .324-1.665c0-.672-.12-1.257-.36-1.755a2.744 2.744 0 0 0-1.017-1.161c-.438-.276-.957-.414-1.557-.414-.648 0-1.194.147-1.638.441-.444.294-.78.693-1.008 1.197a4.154 4.154 0 0 0-.333 1.692c0 .588.108 1.143.324 1.665.222.522.555.945.999 1.269.444.324.999.486 1.665.486Zm6.762 4.608v-12.438l1.35-.09.036 1.161h.153a3.05 3.05 0 0 1 .684-.639c.276-.198.591-.354.945-.468.36-.12.753-.18 1.179-.18.816 0 1.509.204 2.079.612.576.402 1.014.954 1.314 1.656.3.702.45 1.497.45 2.385 0 .834-.141 1.608-.423 2.322a3.908 3.908 0 0 1-1.269 1.719c-.564.432-1.272.648-2.124.648a3.57 3.57 0 0 1-1.098-.162 3.248 3.248 0 0 1-.918-.441 3.8 3.8 0 0 1-.738-.72h-.135v4.581l-1.485.054Zm3.924-4.644c.642 0 1.164-.159 1.566-.477.408-.318.705-.729.891-1.233a4.61 4.61 0 0 0 .288-1.638 4.33 4.33 0 0 0-.306-1.656 2.67 2.67 0 0 0-.909-1.206c-.408-.3-.927-.45-1.557-.45-.312 0-.618.048-.918.144a2.796 2.796 0 0 0-1.494 1.089v3.969c.18.306.387.567.621.783.24.216.51.384.81.504.3.114.636.171 1.008.171Zm6.012 1.134c.072-.654.144-1.293.216-1.917.072-.63.141-1.254.207-1.872l.135-1.224c.078-.654.153-1.308.225-1.962l.216-1.953h1.62c.246.576.492 1.158.738 1.746l.747 1.737 1.44 3.384h.135l1.431-3.384c.246-.588.492-1.17.738-1.746.246-.582.492-1.161.738-1.737h1.593c.072.636.144 1.29.216 1.962.078.666.153 1.32.225 1.962l.135 1.233.207 1.854.216 1.917h-1.413c-.072-.684-.147-1.374-.225-2.07-.072-.702-.147-1.395-.225-2.079l-.279-2.628h-.135l-1.143 2.808c-.264.66-.531 1.32-.801 1.98-.27.66-.54 1.323-.81 1.989h-1.071c-.276-.666-.552-1.326-.828-1.98-.27-.66-.54-1.314-.81-1.962l-1.179-2.835h-.135l-.288 2.601-.234 2.088a246.44 246.44 0 0 1-.225 2.088h-1.377Zm17.522.198c-1.068 0-1.947-.204-2.637-.612a3.804 3.804 0 0 1-1.539-1.674c-.336-.708-.504-1.518-.504-2.43 0-.9.165-1.698.495-2.394a3.805 3.805 0 0 1 1.422-1.629c.618-.396 1.356-.594 2.214-.594.756 0 1.404.147 1.944.441.546.294.966.726 1.26 1.296.294.564.441 1.263.441 2.097 0 .222-.006.423-.018.603a4.085 4.085 0 0 1-.054.531l-1.305-.657c.012-.096.018-.186.018-.27.006-.09.009-.177.009-.261 0-.846-.21-1.488-.63-1.926-.42-.444-.969-.666-1.647-.666-.546 0-1.017.141-1.413.423-.39.276-.693.66-.909 1.152-.216.492-.324 1.053-.324 1.683v.207c0 .696.12 1.296.36 1.8s.603.894 1.089 1.17c.492.27 1.116.405 1.872.405.282 0 .579-.021.891-.063.318-.048.63-.12.936-.216.312-.096.609-.222.891-.378l.063 1.341a4.429 4.429 0 0 1-.792.333c-.3.09-.63.159-.99.207-.36.054-.741.081-1.143.081Zm-4.059-4.365v-1.062l6.174-.054.909.342v.774h-7.083ZM214.93 303v-8.694l.495.981h-3.582v-1.215h7.659v1.215h-3.582l.495-.981V303h-1.485Zm10.266.198c-.738 0-1.389-.126-1.953-.378a4.098 4.098 0 0 1-1.404-1.044 4.618 4.618 0 0 1-.864-1.503 5.573 5.573 0 0 1-.288-1.791c0-.894.18-1.686.54-2.376a4.134 4.134 0 0 1 1.548-1.647c.672-.402 1.47-.603 2.394-.603.714 0 1.347.117 1.899.351.552.234 1.02.561 1.404.981.384.42.675.912.873 1.476a5.4 5.4 0 0 1 .297 1.818c0 .882-.18 1.68-.54 2.394a4.215 4.215 0 0 1-1.539 1.701c-.66.414-1.449.621-2.367.621Zm0-1.296c.654 0 1.197-.162 1.629-.486.432-.324.756-.747.972-1.269a4.311 4.311 0 0 0 .324-1.665c0-.672-.12-1.257-.36-1.755a2.744 2.744 0 0 0-1.017-1.161c-.438-.276-.957-.414-1.557-.414-.648 0-1.194.147-1.638.441-.444.294-.78.693-1.008 1.197a4.154 4.154 0 0 0-.333 1.692c0 .588.108 1.143.324 1.665.222.522.555.945.999 1.269.444.324.999.486 1.665.486Zm6.396 1.26c-.09 0-.192-.006-.306-.018a3.305 3.305 0 0 1-.648-.099l.09-1.287c.102.024.201.042.297.054.102.006.183.009.243.009a.947.947 0 0 0 .783-.378c.204-.252.36-.588.468-1.008.108-.42.189-.879.243-1.377.054-.504.096-1.002.126-1.494.036-.588.075-1.176.117-1.764.042-.594.081-1.17.117-1.728h6.282V303h-1.485v-8.694l.882.981h-5.103l.765-.981-.09 1.242-.09 1.278c-.024.42-.054.84-.09 1.26a29.783 29.783 0 0 1-.198 1.926 7.476 7.476 0 0 1-.378 1.62c-.168.474-.414.849-.738 1.125-.318.27-.747.405-1.287.405Zm14.628.036c-.738 0-1.389-.126-1.953-.378a4.098 4.098 0 0 1-1.404-1.044 4.618 4.618 0 0 1-.864-1.503 5.573 5.573 0 0 1-.288-1.791c0-.894.18-1.686.54-2.376a4.134 4.134 0 0 1 1.548-1.647c.672-.402 1.47-.603 2.394-.603.714 0 1.347.117 1.899.351.552.234 1.02.561 1.404.981.384.42.675.912.873 1.476a5.4 5.4 0 0 1 .297 1.818c0 .882-.18 1.68-.54 2.394a4.215 4.215 0 0 1-1.539 1.701c-.66.414-1.449.621-2.367.621Zm0-1.296c.654 0 1.197-.162 1.629-.486.432-.324.756-.747.972-1.269a4.311 4.311 0 0 0 .324-1.665c0-.672-.12-1.257-.36-1.755a2.744 2.744 0 0 0-1.017-1.161c-.438-.276-.957-.414-1.557-.414-.648 0-1.194.147-1.638.441-.444.294-.78.693-1.008 1.197a4.154 4.154 0 0 0-.333 1.692c0 .588.108 1.143.324 1.665.222.522.555.945.999 1.269.444.324.999.486 1.665.486Zm6.761 1.098v-8.928l1.476-.063V303h-1.476Zm.882-3.906v-1.206h5.733v1.206h-5.733ZM258.93 303v-8.928h1.476V303h-1.476Z"/><path fill="#24201E" d="m179.677 320.021-.063-.812 1.876-.917c.62-.308 1.243-.616 1.869-.924l-.21.952-1.736.854c-.579.28-1.158.562-1.736.847ZM180.86 327a3590.118 3590.118 0 0 1 .651-3.073l.651-3.066c.112-.518.219-1.024.322-1.519.107-.499.214-1.006.322-1.519l.553-.455.455.042c-.108.509-.222 1.041-.343 1.596-.117.555-.238 1.127-.364 1.715l-.672 3.199c-.122.583-.234 1.113-.336 1.589-.103.476-.208.973-.315 1.491h-.924Zm3.071 0 .147-.686c.355-.261.705-.52 1.05-.777l1.043-.777a51.225 51.225 0 0 0 2.121-1.652c.602-.495 1.083-.973 1.442-1.435.36-.462.591-.943.693-1.442.136-.621.063-1.134-.217-1.54-.28-.411-.784-.616-1.512-.616-.191 0-.399.019-.623.056a4.914 4.914 0 0 0-.721.182 7.45 7.45 0 0 0-.798.322c-.28.126-.571.278-.875.455l.077-1.008c.201-.103.42-.203.658-.301.238-.103.49-.194.756-.273a6.71 6.71 0 0 1 .819-.203c.285-.051.572-.077.861-.077.677 0 1.221.14 1.631.42.411.28.691.653.84 1.12.15.462.166.971.049 1.526a3.943 3.943 0 0 1-.7 1.547c-.35.481-.826.978-1.428 1.491a34.836 34.836 0 0 1-2.184 1.708l-1.883 1.379-.133-.252h5.285l-.168.833h-6.23Zm14.682 0 .308-1.47c.112-.513.215-.994.308-1.442a2.81 2.81 0 0 1-.56.231c-.21.065-.434.119-.672.161a4.504 4.504 0 0 1-.707.056c-.504 0-.94-.084-1.309-.252a1.604 1.604 0 0 1-.791-.777c-.159-.345-.184-.777-.077-1.295.056-.252.107-.495.154-.728.051-.238.1-.474.147-.707.051-.233.103-.471.154-.714l.903-.035-.224 1.057c-.07.35-.147.714-.231 1.092-.117.565-.04.975.231 1.232s.707.385 1.309.385c.168 0 .355-.014.56-.042.21-.033.425-.084.644-.154.224-.07.432-.161.623-.273l.056-.252a146.816 146.816 0 0 0 .434-2.037c.07-.317.14-.642.21-.973h.896c-.075.345-.147.684-.217 1.015l-.217 1.022c-.07.345-.152.723-.245 1.134l-.147.693a324.709 324.709 0 0 1-.651 3.073h-.889Zm5.094.14c-.457 0-.844-.1-1.162-.301a1.675 1.675 0 0 1-.679-.819c-.135-.345-.156-.73-.063-1.155.075-.327.194-.595.357-.805.168-.215.367-.387.595-.518.234-.131.488-.233.763-.308.276-.079.558-.145.847-.196l2.443-.455c.103-.429.108-.782.014-1.057a1.001 1.001 0 0 0-.518-.609c-.256-.131-.583-.196-.98-.196a3.89 3.89 0 0 0-.497.035 4.97 4.97 0 0 0-.574.098c-.2.047-.413.107-.637.182-.224.07-.457.156-.7.259l.147-.889a7.443 7.443 0 0 1 1.127-.329 6.52 6.52 0 0 1 .665-.119c.224-.033.444-.049.658-.049.588 0 1.062.112 1.421.336.364.219.609.527.735.924s.131.856.014 1.379c-.042.21-.091.439-.147.686-.051.243-.109.516-.175.819l-.189.903-.21.952-.231 1.092h-.833l.189-.98h-.112a3.238 3.238 0 0 1-.637.609 2.78 2.78 0 0 1-1.631.511Zm.266-.784c.271 0 .539-.049.805-.147.271-.103.535-.266.791-.49.257-.224.502-.52.735-.889l.35-1.652a3.16 3.16 0 0 1-.343.133c-.135.047-.34.103-.616.168-.27.065-.644.147-1.12.245a7.696 7.696 0 0 0-.854.217 1.875 1.875 0 0 0-.651.357 1.09 1.09 0 0 0-.343.616c-.098.485-.025.847.217 1.085.243.238.586.357 1.029.357Zm8.332.777c-.78 0-1.428-.17-1.946-.511a2.642 2.642 0 0 1-1.078-1.407c-.196-.602-.215-1.29-.056-2.065.13-.639.371-1.202.721-1.687.35-.485.784-.866 1.302-1.141a3.659 3.659 0 0 1 1.743-.413c.284 0 .562.026.833.077.275.047.534.117.777.21.242.093.462.208.658.343l-.259.84a3.39 3.39 0 0 0-.658-.378 2.823 2.823 0 0 0-.651-.196 3.646 3.646 0 0 0-.686-.063c-.686 0-1.293.219-1.82.658-.523.434-.873 1.057-1.05 1.869-.136.63-.129 1.174.021 1.631.154.457.424.81.812 1.057.392.243.875.364 1.449.364.2 0 .399-.021.595-.063.196-.042.385-.1.567-.175.186-.079.361-.173.525-.28l-.077.896a3.192 3.192 0 0 1-.455.217 3.37 3.37 0 0 1-.595.154 3.498 3.498 0 0 1-.672.063Zm6.735.014c-.602 0-1.118-.11-1.547-.329a2.667 2.667 0 0 1-1.015-.896 3.201 3.201 0 0 1-.483-1.281 4.144 4.144 0 0 1 .042-1.477c.144-.691.399-1.279.763-1.764.364-.485.8-.854 1.309-1.106a3.621 3.621 0 0 1 1.645-.385c.588 0 1.094.107 1.519.322.424.215.765.509 1.022.882.256.373.422.798.497 1.274.079.476.063.975-.049 1.498a4.548 4.548 0 0 1-.721 1.708 3.757 3.757 0 0 1-1.281 1.141 3.493 3.493 0 0 1-1.701.413Zm.035-.812c.494 0 .931-.114 1.309-.343.378-.233.688-.544.931-.931.242-.387.413-.817.511-1.288.121-.565.121-1.076 0-1.533a2.016 2.016 0 0 0-.707-1.106c-.346-.275-.803-.413-1.372-.413-.49 0-.929.112-1.316.336-.383.219-.7.523-.952.91a3.725 3.725 0 0 0-.525 1.316 3.409 3.409 0 0 0 0 1.505c.116.462.35.835.7 1.12.35.285.823.427 1.421.427Zm4.797.665c.107-.523.212-1.022.315-1.498l.336-1.575.147-.693c.089-.406.168-.784.238-1.134l.217-1.022c.07-.331.142-.67.217-1.015h2.933c.527 0 .947.086 1.26.259.313.173.523.401.63.686.112.285.131.597.056.938a1.745 1.745 0 0 1-.525.952 2.164 2.164 0 0 1-.924.49l-.021.084c.191.042.376.135.553.28.177.14.31.338.399.595.089.257.093.572.014.945a2.29 2.29 0 0 1-.392.889c-.187.257-.485.457-.896.602-.411.145-.987.217-1.729.217h-2.828Zm1.036-.749h1.764c.499 0 .896-.04 1.19-.119.294-.079.513-.201.658-.364.149-.168.252-.38.308-.637.098-.448.014-.779-.252-.994-.266-.215-.691-.322-1.274-.322h-2.114l.154-.693h2.044c.425 0 .768-.047 1.029-.14.261-.098.46-.231.595-.399a1.26 1.26 0 0 0 .273-.574c.089-.411.016-.712-.217-.903-.233-.196-.581-.294-1.043-.294h-1.96c-.079.397-.159.779-.238 1.148l-.266 1.225-.154.728c-.093.448-.18.854-.259 1.218-.075.364-.154.737-.238 1.12Z"/><path fill="#484443" d="m400.969 301.875.018-1.314h.603c1.056 0 1.914-.15 2.574-.45.666-.3 1.158-.741 1.476-1.323.318-.588.477-1.317.477-2.187 0-.882-.156-1.617-.468-2.205-.312-.594-.795-1.041-1.449-1.341-.648-.3-1.488-.45-2.52-.45h-.603l-.018-1.314h.639c1.458 0 2.634.225 3.528.675.894.45 1.545 1.074 1.953 1.872.414.792.621 1.713.621 2.763 0 1.008-.204 1.911-.612 2.709-.402.792-1.059 1.419-1.971 1.881-.906.456-2.121.684-3.645.684h-.603Zm-.801 0c-1.146 0-2.115-.132-2.907-.396-.792-.264-1.434-.633-1.926-1.107a4.332 4.332 0 0 1-1.062-1.674 6.377 6.377 0 0 1-.333-2.097c0-1.05.204-1.971.612-2.763.408-.798 1.059-1.422 1.953-1.872.9-.45 2.079-.675 3.537-.675h.63l-.018 1.314h-.603c-1.02 0-1.857.15-2.511.45-.654.3-1.137.747-1.449 1.341-.312.588-.468 1.323-.468 2.205 0 .87.156 1.599.468 2.187.318.582.81 1.023 1.476 1.323.666.3 1.524.45 2.574.45h.603l.018 1.314h-.594Zm-.117 1.503v-1.836l.036-.036v-9.846l-.036-.036v-1.836h1.629v1.836l-.036.036v9.846l.036.036v1.836h-1.629Zm11.988-.378v-8.694l.495.981h-3.582v-1.215h7.659v1.215h-3.582l.495-.981V303h-1.485Zm10.266.198c-.738 0-1.389-.126-1.953-.378a4.098 4.098 0 0 1-1.404-1.044 4.618 4.618 0 0 1-.864-1.503 5.573 5.573 0 0 1-.288-1.791c0-.894.18-1.686.54-2.376a4.134 4.134 0 0 1 1.548-1.647c.672-.402 1.47-.603 2.394-.603.714 0 1.347.117 1.899.351.552.234 1.02.561 1.404.981.384.42.675.912.873 1.476a5.4 5.4 0 0 1 .297 1.818c0 .882-.18 1.68-.54 2.394a4.215 4.215 0 0 1-1.539 1.701c-.66.414-1.449.621-2.367.621Zm0-1.296c.654 0 1.197-.162 1.629-.486.432-.324.756-.747.972-1.269a4.311 4.311 0 0 0 .324-1.665c0-.672-.12-1.257-.36-1.755a2.744 2.744 0 0 0-1.017-1.161c-.438-.276-.957-.414-1.557-.414-.648 0-1.194.147-1.638.441-.444.294-.78.693-1.008 1.197a4.154 4.154 0 0 0-.333 1.692c0 .588.108 1.143.324 1.665.222.522.555.945.999 1.269.444.324.999.486 1.665.486Zm6.762 4.608v-12.438l1.35-.09.036 1.161h.153a3.05 3.05 0 0 1 .684-.639c.276-.198.591-.354.945-.468.36-.12.753-.18 1.179-.18.816 0 1.509.204 2.079.612.576.402 1.014.954 1.314 1.656.3.702.45 1.497.45 2.385 0 .834-.141 1.608-.423 2.322a3.908 3.908 0 0 1-1.269 1.719c-.564.432-1.272.648-2.124.648a3.57 3.57 0 0 1-1.098-.162 3.248 3.248 0 0 1-.918-.441 3.8 3.8 0 0 1-.738-.72h-.135v4.581l-1.485.054Zm3.924-4.644c.642 0 1.164-.159 1.566-.477.408-.318.705-.729.891-1.233a4.61 4.61 0 0 0 .288-1.638 4.33 4.33 0 0 0-.306-1.656 2.67 2.67 0 0 0-.909-1.206c-.408-.3-.927-.45-1.557-.45-.312 0-.618.048-.918.144a2.796 2.796 0 0 0-1.494 1.089v3.969c.18.306.387.567.621.783.24.216.51.384.81.504.3.114.636.171 1.008.171Zm6.012 1.134c.072-.654.144-1.293.216-1.917.072-.63.141-1.254.207-1.872l.135-1.224c.078-.654.153-1.308.225-1.962l.216-1.953h1.62c.246.576.492 1.158.738 1.746l.747 1.737 1.44 3.384h.135l1.431-3.384c.246-.588.492-1.17.738-1.746.246-.582.492-1.161.738-1.737h1.593c.072.636.144 1.29.216 1.962.078.666.153 1.32.225 1.962l.135 1.233.207 1.854.216 1.917h-1.413c-.072-.684-.147-1.374-.225-2.07-.072-.702-.147-1.395-.225-2.079l-.279-2.628h-.135l-1.143 2.808c-.264.66-.531 1.32-.801 1.98-.27.66-.54 1.323-.81 1.989h-1.071c-.276-.666-.552-1.326-.828-1.98-.27-.66-.54-1.314-.81-1.962l-1.179-2.835h-.135l-.288 2.601-.234 2.088a246.44 246.44 0 0 1-.225 2.088h-1.377Zm17.522.198c-1.068 0-1.947-.204-2.637-.612a3.804 3.804 0 0 1-1.539-1.674c-.336-.708-.504-1.518-.504-2.43 0-.9.165-1.698.495-2.394a3.805 3.805 0 0 1 1.422-1.629c.618-.396 1.356-.594 2.214-.594.756 0 1.404.147 1.944.441.546.294.966.726 1.26 1.296.294.564.441 1.263.441 2.097 0 .222-.006.423-.018.603a4.085 4.085 0 0 1-.054.531l-1.305-.657c.012-.096.018-.186.018-.27.006-.09.009-.177.009-.261 0-.846-.21-1.488-.63-1.926-.42-.444-.969-.666-1.647-.666-.546 0-1.017.141-1.413.423-.39.276-.693.66-.909 1.152-.216.492-.324 1.053-.324 1.683v.207c0 .696.12 1.296.36 1.8s.603.894 1.089 1.17c.492.27 1.116.405 1.872.405.282 0 .579-.021.891-.063.318-.048.63-.12.936-.216.312-.096.609-.222.891-.378l.063 1.341a4.429 4.429 0 0 1-.792.333c-.3.09-.63.159-.99.207-.36.054-.741.081-1.143.081Zm-4.059-4.365v-1.062l6.174-.054.909.342v.774h-7.083ZM463.93 303v-8.694l.495.981h-3.582v-1.215h7.659v1.215h-3.582l.495-.981V303h-1.485Zm10.266.198c-.738 0-1.389-.126-1.953-.378a4.098 4.098 0 0 1-1.404-1.044 4.618 4.618 0 0 1-.864-1.503 5.573 5.573 0 0 1-.288-1.791c0-.894.18-1.686.54-2.376a4.134 4.134 0 0 1 1.548-1.647c.672-.402 1.47-.603 2.394-.603.714 0 1.347.117 1.899.351.552.234 1.02.561 1.404.981.384.42.675.912.873 1.476a5.4 5.4 0 0 1 .297 1.818c0 .882-.18 1.68-.54 2.394a4.215 4.215 0 0 1-1.539 1.701c-.66.414-1.449.621-2.367.621Zm0-1.296c.654 0 1.197-.162 1.629-.486.432-.324.756-.747.972-1.269a4.311 4.311 0 0 0 .324-1.665c0-.672-.12-1.257-.36-1.755a2.744 2.744 0 0 0-1.017-1.161c-.438-.276-.957-.414-1.557-.414-.648 0-1.194.147-1.638.441-.444.294-.78.693-1.008 1.197a4.154 4.154 0 0 0-.333 1.692c0 .588.108 1.143.324 1.665.222.522.555.945.999 1.269.444.324.999.486 1.665.486Zm6.396 1.26c-.09 0-.192-.006-.306-.018a3.305 3.305 0 0 1-.648-.099l.09-1.287c.102.024.201.042.297.054.102.006.183.009.243.009a.947.947 0 0 0 .783-.378c.204-.252.36-.588.468-1.008.108-.42.189-.879.243-1.377.054-.504.096-1.002.126-1.494.036-.588.075-1.176.117-1.764.042-.594.081-1.17.117-1.728h6.282V303h-1.485v-8.694l.882.981h-5.103l.765-.981-.09 1.242-.09 1.278c-.024.42-.054.84-.09 1.26a29.783 29.783 0 0 1-.198 1.926 7.476 7.476 0 0 1-.378 1.62c-.168.474-.414.849-.738 1.125-.318.27-.747.405-1.287.405Zm14.628.036c-.738 0-1.389-.126-1.953-.378a4.098 4.098 0 0 1-1.404-1.044 4.618 4.618 0 0 1-.864-1.503 5.573 5.573 0 0 1-.288-1.791c0-.894.18-1.686.54-2.376a4.134 4.134 0 0 1 1.548-1.647c.672-.402 1.47-.603 2.394-.603.714 0 1.347.117 1.899.351.552.234 1.02.561 1.404.981.384.42.675.912.873 1.476a5.4 5.4 0 0 1 .297 1.818c0 .882-.18 1.68-.54 2.394a4.215 4.215 0 0 1-1.539 1.701c-.66.414-1.449.621-2.367.621Zm0-1.296c.654 0 1.197-.162 1.629-.486.432-.324.756-.747.972-1.269a4.311 4.311 0 0 0 .324-1.665c0-.672-.12-1.257-.36-1.755a2.744 2.744 0 0 0-1.017-1.161c-.438-.276-.957-.414-1.557-.414-.648 0-1.194.147-1.638.441-.444.294-.78.693-1.008 1.197a4.154 4.154 0 0 0-.333 1.692c0 .588.108 1.143.324 1.665.222.522.555.945.999 1.269.444.324.999.486 1.665.486Zm6.761 1.098v-8.928l1.476-.063V303h-1.476Zm.882-3.906v-1.206h5.733v1.206h-5.733ZM507.93 303v-8.928h1.476V303h-1.476Z"/><path fill="#24201E" d="m429.246 327 .147-.686c.355-.261.705-.52 1.05-.777l1.043-.777a51.225 51.225 0 0 0 2.121-1.652c.602-.495 1.083-.973 1.442-1.435.36-.462.591-.943.693-1.442.136-.621.063-1.134-.217-1.54-.28-.411-.784-.616-1.512-.616-.191 0-.399.019-.623.056a4.914 4.914 0 0 0-.721.182 7.45 7.45 0 0 0-.798.322c-.28.126-.571.278-.875.455l.077-1.008c.201-.103.42-.203.658-.301.238-.103.49-.194.756-.273a6.71 6.71 0 0 1 .819-.203c.285-.051.572-.077.861-.077.677 0 1.221.14 1.631.42.411.28.691.653.84 1.12.15.462.166.971.049 1.526a3.943 3.943 0 0 1-.7 1.547c-.35.481-.826.978-1.428 1.491a34.836 34.836 0 0 1-2.184 1.708l-1.883 1.379-.133-.252h5.285l-.168.833h-6.23Zm11.777 0c.094-.443.18-.859.259-1.246.084-.392.18-.845.287-1.358l.07-.217.693-3.262c.112-.518.22-1.024.322-1.519l.329-1.519.791-.182-1.036 1.12-1.022 1.12-2.212 2.422-.882.966a84.59 84.59 0 0 0-.882.966v-.392h6.762l-.168.833h-7.532l.133-.651c.262-.285.549-.6.861-.945.318-.35.637-.7.959-1.05.327-.355.626-.681.896-.98l1.624-1.778.875-.959c.299-.327.591-.646.875-.959h.945l-.364 1.708c-.112.551-.228 1.104-.35 1.659l-.763 3.619c-.107.513-.203.966-.287 1.358-.079.387-.165.803-.259 1.246h-.924Zm10.859 0 .308-1.47c.112-.513.215-.994.308-1.442a2.81 2.81 0 0 1-.56.231c-.21.065-.434.119-.672.161a4.504 4.504 0 0 1-.707.056c-.504 0-.94-.084-1.309-.252a1.604 1.604 0 0 1-.791-.777c-.159-.345-.184-.777-.077-1.295.056-.252.107-.495.154-.728.051-.238.1-.474.147-.707.051-.233.103-.471.154-.714l.903-.035-.224 1.057c-.07.35-.147.714-.231 1.092-.117.565-.04.975.231 1.232s.707.385 1.309.385c.168 0 .355-.014.56-.042.21-.033.425-.084.644-.154.224-.07.432-.161.623-.273l.056-.252a146.816 146.816 0 0 0 .434-2.037c.07-.317.14-.642.21-.973h.896c-.075.345-.147.684-.217 1.015l-.217 1.022c-.07.345-.152.723-.245 1.134l-.147.693a324.709 324.709 0 0 1-.651 3.073h-.889Zm5.094.14c-.457 0-.844-.1-1.162-.301a1.675 1.675 0 0 1-.679-.819c-.135-.345-.156-.73-.063-1.155.075-.327.194-.595.357-.805.168-.215.367-.387.595-.518.234-.131.488-.233.763-.308.276-.079.558-.145.847-.196l2.443-.455c.103-.429.108-.782.014-1.057a1.001 1.001 0 0 0-.518-.609c-.256-.131-.583-.196-.98-.196a3.89 3.89 0 0 0-.497.035 4.97 4.97 0 0 0-.574.098c-.2.047-.413.107-.637.182-.224.07-.457.156-.7.259l.147-.889a7.443 7.443 0 0 1 1.127-.329 6.52 6.52 0 0 1 .665-.119c.224-.033.444-.049.658-.049.588 0 1.062.112 1.421.336.364.219.609.527.735.924s.131.856.014 1.379c-.042.21-.091.439-.147.686-.051.243-.109.516-.175.819l-.189.903-.21.952L460 327h-.833l.189-.98h-.112a3.238 3.238 0 0 1-.637.609 2.78 2.78 0 0 1-1.631.511Zm.266-.784c.271 0 .539-.049.805-.147.271-.103.535-.266.791-.49.257-.224.502-.52.735-.889l.35-1.652a3.16 3.16 0 0 1-.343.133c-.135.047-.34.103-.616.168-.27.065-.644.147-1.12.245a7.696 7.696 0 0 0-.854.217 1.875 1.875 0 0 0-.651.357 1.09 1.09 0 0 0-.343.616c-.098.485-.025.847.217 1.085.243.238.586.357 1.029.357Zm8.331.777c-.779 0-1.428-.17-1.946-.511a2.647 2.647 0 0 1-1.078-1.407c-.196-.602-.214-1.29-.056-2.065a4.33 4.33 0 0 1 .721-1.687c.35-.485.784-.866 1.302-1.141a3.659 3.659 0 0 1 1.743-.413c.285 0 .563.026.833.077.276.047.535.117.777.21.243.093.462.208.658.343l-.259.84a3.333 3.333 0 0 0-.658-.378 2.794 2.794 0 0 0-.651-.196 3.639 3.639 0 0 0-.686-.063c-.686 0-1.292.219-1.82.658-.522.434-.872 1.057-1.05 1.869-.135.63-.128 1.174.021 1.631.154.457.425.81.812 1.057.392.243.875.364 1.449.364.201 0 .399-.021.595-.063.196-.042.385-.1.567-.175.187-.079.362-.173.525-.28l-.077.896a3.14 3.14 0 0 1-.455.217 3.325 3.325 0 0 1-.595.154 3.483 3.483 0 0 1-.672.063Zm5.328.007c-.457 0-.844-.1-1.162-.301a1.675 1.675 0 0 1-.679-.819c-.135-.345-.156-.73-.063-1.155.075-.327.194-.595.357-.805.168-.215.367-.387.595-.518.234-.131.488-.233.763-.308.276-.079.558-.145.847-.196l2.443-.455c.103-.429.108-.782.014-1.057a1.001 1.001 0 0 0-.518-.609c-.256-.131-.583-.196-.98-.196a3.89 3.89 0 0 0-.497.035 4.97 4.97 0 0 0-.574.098c-.2.047-.413.107-.637.182-.224.07-.457.156-.7.259l.147-.889a7.443 7.443 0 0 1 1.127-.329 6.52 6.52 0 0 1 .665-.119c.224-.033.444-.049.658-.049.588 0 1.062.112 1.421.336.364.219.609.527.735.924s.131.856.014 1.379c-.042.21-.091.439-.147.686-.051.243-.109.516-.175.819l-.189.903-.21.952-.231 1.092h-.833l.189-.98h-.112a3.238 3.238 0 0 1-.637.609 2.78 2.78 0 0 1-1.631.511Zm.266-.784c.271 0 .539-.049.805-.147.271-.103.535-.266.791-.49.257-.224.502-.52.735-.889l.35-1.652a3.16 3.16 0 0 1-.343.133c-.135.047-.34.103-.616.168-.27.065-.644.147-1.12.245a7.696 7.696 0 0 0-.854.217 1.875 1.875 0 0 0-.651.357 1.09 1.09 0 0 0-.343.616c-.098.485-.025.847.217 1.085.243.238.586.357 1.029.357Z"/><path stroke="#E3E3E1" stroke-width="2" d="M59 272h540m-535 5V15"/><path fill="#484443" d="M129.07 13.79c0 .046-.01.085-.031.116a.229.229 0 0 1-.109.078.738.738 0 0 1-.203.047c-.089.01-.198.016-.329.016-.151 0-.273-.008-.367-.024a.757.757 0 0 1-.219-.054.387.387 0 0 1-.124-.094.536.536 0 0 1-.063-.148l-.93-2.47a4.482 4.482 0 0 0-.414-.85 2.248 2.248 0 0 0-.523-.579 1.878 1.878 0 0 0-.664-.344 3.016 3.016 0 0 0-.844-.109h-.562v4.422a.192.192 0 0 1-.032.11.229.229 0 0 1-.109.077 1.3 1.3 0 0 1-.211.04 1.78 1.78 0 0 1-.32.023 1.88 1.88 0 0 1-.321-.024 1.3 1.3 0 0 1-.211-.039.229.229 0 0 1-.109-.078.19.19 0 0 1-.031-.11v-9.71c0-.037.01-.07.031-.102a.191.191 0 0 1 .109-.07.858.858 0 0 1 .211-.047 1.96 1.96 0 0 1 .321-.023c.13 0 .237.008.32.023.088.01.159.026.211.047a.2.2 0 0 1 .109.07.179.179 0 0 1 .032.102v4.133h.562c.312 0 .586-.037.82-.11a1.84 1.84 0 0 0 .618-.343 2.15 2.15 0 0 0 .476-.57c.141-.235.266-.511.375-.829l.766-2.203a.554.554 0 0 1 .062-.14.282.282 0 0 1 .117-.102.652.652 0 0 1 .211-.055 2.35 2.35 0 0 1 .36-.023c.135 0 .244.005.328.015.083.01.148.026.195.047.052.021.086.047.102.078a.25.25 0 0 1 .023.11c0 .057-.01.122-.031.195a2.93 2.93 0 0 1-.07.242l-.805 2.102a6.092 6.092 0 0 1-.359.82c-.12.23-.253.427-.399.594a2.326 2.326 0 0 1-.477.406 2.398 2.398 0 0 1-.578.25v.016c.245.088.461.192.649.312.193.115.37.258.531.43.162.172.31.38.445.625.136.24.269.529.399.867l.953 2.406c.052.136.083.232.094.29.01.052.015.098.015.14Zm7.958-3.58a5.31 5.31 0 0 1-.227 1.587 3.464 3.464 0 0 1-.68 1.242 3.06 3.06 0 0 1-1.125.82c-.448.193-.968.29-1.562.29-.578 0-1.084-.086-1.516-.258a2.762 2.762 0 0 1-1.07-.75 3.176 3.176 0 0 1-.641-1.196c-.14-.468-.211-1-.211-1.593 0-.573.073-1.1.219-1.579.151-.484.375-.9.672-1.25.302-.349.677-.62 1.125-.812.448-.193.971-.29 1.57-.29.578 0 1.081.087 1.508.259.432.172.792.422 1.078.75.287.328.5.726.641 1.195.146.469.219.997.219 1.586Zm-1.36.087c0-.38-.036-.74-.109-1.078a2.62 2.62 0 0 0-.344-.89 1.697 1.697 0 0 0-.656-.602c-.276-.151-.62-.227-1.031-.227-.381 0-.709.068-.985.203a1.796 1.796 0 0 0-.672.578 2.59 2.59 0 0 0-.398.875 4.603 4.603 0 0 0-.125 1.11c0 .385.034.747.101 1.086.073.338.19.635.352.89.167.25.388.45.664.602.276.146.62.219 1.031.219.375 0 .701-.068.977-.204a1.81 1.81 0 0 0 .68-.57c.177-.245.307-.536.39-.875a4.69 4.69 0 0 0 .125-1.117Zm9.262 3.508c0 .041-.01.078-.031.11a.27.27 0 0 1-.102.07.717.717 0 0 1-.195.046c-.083.01-.188.016-.313.016-.13 0-.237-.005-.32-.016a.717.717 0 0 1-.195-.047.27.27 0 0 1-.102-.07.191.191 0 0 1-.031-.11V10.72h-3.586v3.086c0 .041-.01.078-.031.11a.27.27 0 0 1-.102.07.717.717 0 0 1-.195.046c-.083.01-.19.016-.32.016-.125 0-.23-.005-.313-.016a.84.84 0 0 1-.203-.047.27.27 0 0 1-.102-.07.25.25 0 0 1-.023-.11v-7.03c0-.042.008-.076.023-.102a.231.231 0 0 1 .102-.078.531.531 0 0 1 .203-.047c.083-.01.188-.016.313-.016.13 0 .237.005.32.016a.45.45 0 0 1 .195.047c.047.02.081.047.102.078.021.026.031.06.031.101v2.86h3.586v-2.86c0-.041.01-.075.031-.101a.231.231 0 0 1 .102-.078.467.467 0 0 1 .195-.047c.083-.01.19-.016.32-.016.125 0 .23.005.313.016a.45.45 0 0 1 .195.047c.047.02.081.047.102.078.021.026.031.06.031.101v7.032Zm7.16-6.649c0 .104-.005.193-.015.266a.536.536 0 0 1-.055.18.3.3 0 0 1-.078.109.205.205 0 0 1-.117.031h-2.11v6.063c0 .041-.01.078-.031.11a.274.274 0 0 1-.101.07.716.716 0 0 1-.196.046c-.083.01-.19.016-.32.016-.125 0-.229-.005-.313-.016a.84.84 0 0 1-.203-.047.265.265 0 0 1-.101-.07.237.237 0 0 1-.024-.11V7.743h-2.109a.23.23 0 0 1-.117-.031.278.278 0 0 1-.078-.11.943.943 0 0 1-.055-.18 1.993 1.993 0 0 1-.016-.273c0-.093.005-.177.016-.25a.943.943 0 0 1 .055-.18.27.27 0 0 1 .086-.109.164.164 0 0 1 .109-.039h5.508c.041 0 .078.013.109.04.037.02.065.057.086.109.021.047.036.11.047.187.016.073.023.157.023.25Zm7.59 3.024c0 .614-.067 1.166-.203 1.656-.13.49-.325.906-.586 1.25a2.639 2.639 0 0 1-.953.789c-.38.182-.815.273-1.305.273a2.277 2.277 0 0 1-1.101-.258 3.11 3.11 0 0 1-.5-.335 7.863 7.863 0 0 1-.531-.477v3.516a.192.192 0 0 1-.032.11.222.222 0 0 1-.101.077.713.713 0 0 1-.195.047c-.084.01-.191.016-.321.016a2.58 2.58 0 0 1-.312-.016.824.824 0 0 1-.203-.047.23.23 0 0 1-.102-.078.236.236 0 0 1-.023-.11v-9.82a.21.21 0 0 1 .023-.109.182.182 0 0 1 .094-.078.543.543 0 0 1 .179-.04c.073-.01.162-.015.266-.015.109 0 .198.005.266.016a.531.531 0 0 1 .179.039c.047.02.079.047.094.078a.17.17 0 0 1 .031.11v.945c.214-.219.42-.41.618-.57.197-.162.395-.295.593-.399.203-.11.409-.19.618-.242.213-.057.437-.086.671-.086.511 0 .946.099 1.305.297.359.198.651.468.875.812.229.344.396.745.5 1.203.104.454.156.935.156 1.446Zm-1.359.148c0-.36-.029-.706-.086-1.039a2.896 2.896 0 0 0-.281-.898 1.646 1.646 0 0 0-.531-.625c-.224-.157-.503-.235-.836-.235a1.845 1.845 0 0 0-.985.313 3.218 3.218 0 0 0-.523.422 6.039 6.039 0 0 0-.578.64v2.797c.354.432.69.763 1.007.992.318.23.651.344 1 .344.323 0 .599-.078.829-.234.234-.157.421-.365.562-.625a3.04 3.04 0 0 0 .32-.875c.068-.323.102-.649.102-.977Zm9.676-.117c0 .573-.076 1.101-.227 1.586a3.462 3.462 0 0 1-.679 1.242 3.06 3.06 0 0 1-1.125.82c-.448.193-.969.29-1.563.29-.578 0-1.083-.086-1.515-.258a2.765 2.765 0 0 1-1.071-.75 3.174 3.174 0 0 1-.64-1.196c-.141-.468-.211-1-.211-1.593 0-.573.073-1.1.218-1.579.151-.484.375-.9.672-1.25.302-.349.677-.62 1.125-.812.448-.193.972-.29 1.571-.29.578 0 1.08.087 1.507.259.433.172.792.422 1.079.75.286.328.5.726.64 1.195.146.469.219.997.219 1.586Zm-1.359.086c0-.38-.037-.74-.11-1.078a2.6 2.6 0 0 0-.344-.89 1.697 1.697 0 0 0-.656-.602c-.276-.151-.62-.227-1.031-.227-.38 0-.708.068-.984.203a1.796 1.796 0 0 0-.672.578 2.61 2.61 0 0 0-.399.875 4.654 4.654 0 0 0-.125 1.11c0 .385.034.747.102 1.086.073.338.19.635.351.89.167.25.388.45.664.602.276.146.62.219 1.032.219.375 0 .7-.068.976-.204.276-.135.503-.325.68-.57.177-.245.307-.536.391-.875a4.69 4.69 0 0 0 .125-1.117Zm8.574 3.508a.2.2 0 0 1-.031.11.27.27 0 0 1-.102.07.717.717 0 0 1-.195.046c-.084.01-.188.016-.313.016-.13 0-.237-.005-.32-.016a.84.84 0 0 1-.203-.047.27.27 0 0 1-.102-.07.191.191 0 0 1-.031-.11v-6.14h-1.937a27.327 27.327 0 0 1-.305 2.211 14.697 14.697 0 0 1-.391 1.688c-.146.479-.31.882-.492 1.21a3.178 3.178 0 0 1-.602.797 1.976 1.976 0 0 1-.703.43c-.25.088-.518.133-.804.133a.313.313 0 0 1-.125-.024.174.174 0 0 1-.078-.086.557.557 0 0 1-.047-.171 2.207 2.207 0 0 1-.016-.297c0-.125.003-.227.008-.305a.989.989 0 0 1 .039-.188c.021-.046.044-.078.07-.093a.242.242 0 0 1 .11-.024c.171 0 .336-.039.492-.117.156-.083.302-.216.437-.398a3.44 3.44 0 0 0 .383-.727c.12-.302.229-.672.328-1.11.099-.437.193-.947.281-1.53.089-.589.172-1.264.25-2.024.011-.156.047-.27.11-.344a.352.352 0 0 1 .281-.117h3.609c.125 0 .222.04.29.117.072.073.109.188.109.344v6.766Zm8.074-2.235c0 .36-.067.696-.203 1.008-.13.313-.336.584-.617.813-.281.229-.641.411-1.078.546-.438.13-.961.196-1.57.196-.141 0-.287-.003-.438-.008-.151 0-.299-.005-.445-.016a11.109 11.109 0 0 1-.844-.062c-.219-.026-.38-.097-.484-.211-.105-.115-.157-.29-.157-.524V6.774c0-.041.008-.075.024-.101a.228.228 0 0 1 .101-.078.531.531 0 0 1 .203-.047c.084-.01.188-.016.313-.016s.229.005.312.016a.45.45 0 0 1 .196.047c.052.02.088.047.109.078.021.026.031.06.031.101V9.25c.193-.016.401-.026.625-.031.224-.01.454-.016.688-.016.568 0 1.055.057 1.461.172.411.11.747.268 1.008.477.26.208.453.458.578.75.125.286.187.609.187.968Zm-1.359.086a1.56 1.56 0 0 0-.102-.578.995.995 0 0 0-.336-.445 1.571 1.571 0 0 0-.609-.281 3.578 3.578 0 0 0-.922-.102 13.287 13.287 0 0 0-1.219.055v2.703c.183.02.378.039.586.055.209.015.44.023.696.023.645 0 1.125-.125 1.437-.375.313-.255.469-.607.469-1.055Z"/><circle cx="105" cy="8.5" r="8" fill="url(#i)" opacity="0.8"/><path fill="#484443" d="M239.219 13.422c0 .094-.008.177-.024.25a.602.602 0 0 1-.054.187.241.241 0 0 1-.094.11.249.249 0 0 1-.125.031h-5.586a.74.74 0 0 1-.195-.023.422.422 0 0 1-.141-.094.454.454 0 0 1-.086-.18 1.479 1.479 0 0 1-.023-.289c0-.104.002-.195.007-.273a.742.742 0 0 1 .055-.204 1.13 1.13 0 0 1 .25-.374l1.961-2.079c.453-.479.815-.908 1.086-1.289.276-.38.487-.726.633-1.039.151-.312.25-.596.297-.851.047-.256.07-.495.07-.72 0-.223-.036-.434-.109-.632a1.524 1.524 0 0 0-.321-.531 1.43 1.43 0 0 0-.515-.36 1.827 1.827 0 0 0-.719-.132c-.318 0-.604.044-.859.133a4.727 4.727 0 0 0-1.141.578c-.125.088-.219.132-.281.132a.18.18 0 0 1-.102-.03.269.269 0 0 1-.07-.102.988.988 0 0 1-.039-.188 2.356 2.356 0 0 1-.008-.484c.005-.058.013-.107.023-.149a.83.83 0 0 1 .055-.117.568.568 0 0 1 .125-.133c.063-.057.169-.133.32-.226a5.091 5.091 0 0 1 1.344-.508 4.03 4.03 0 0 1 .883-.094c.49 0 .917.07 1.281.211.37.136.675.323.914.563.245.24.427.518.547.836.12.317.18.656.18 1.015 0 .323-.029.646-.086.969a3.91 3.91 0 0 1-.367 1.039c-.183.37-.448.784-.797 1.242-.349.453-.813.977-1.391 1.57l-1.601 1.672h4.398a.19.19 0 0 1 .117.04c.042.02.076.054.102.101a.428.428 0 0 1 .062.18c.016.067.024.148.024.242Zm7.902-2.672c0 .542-.091 1.023-.273 1.445-.182.422-.44.779-.774 1.07a3.44 3.44 0 0 1-1.195.657 4.874 4.874 0 0 1-1.531.226 5.41 5.41 0 0 1-.891-.07 5.898 5.898 0 0 1-.75-.156 5.008 5.008 0 0 1-.539-.195 1.245 1.245 0 0 1-.273-.149.381.381 0 0 1-.078-.101.938.938 0 0 1-.047-.11 1.132 1.132 0 0 1-.024-.172 3.32 3.32 0 0 1 0-.476.586.586 0 0 1 .047-.172.268.268 0 0 1 .07-.102.184.184 0 0 1 .102-.03c.052 0 .133.033.242.1.11.063.255.133.438.212.187.072.416.143.687.21.276.068.602.102.977.102.349 0 .669-.042.961-.125.291-.083.541-.213.75-.39.213-.178.38-.399.5-.665.119-.27.179-.599.179-.984 0-.323-.052-.607-.156-.852a1.407 1.407 0 0 0-.469-.617 2.017 2.017 0 0 0-.796-.367 4.681 4.681 0 0 0-1.157-.125c-.317 0-.591.016-.82.047a4.762 4.762 0 0 1-.641.047c-.146 0-.25-.034-.312-.102-.063-.067-.094-.198-.094-.39V4.398c0-.171.039-.299.117-.382a.478.478 0 0 1 .352-.125h4.476a.2.2 0 0 1 .118.039.24.24 0 0 1 .101.101.536.536 0 0 1 .055.18c.015.073.023.159.023.258a.998.998 0 0 1-.078.437c-.052.104-.125.157-.219.157h-3.773v2.835a4.83 4.83 0 0 1 .555-.046c.192-.006.414-.008.664-.008.578 0 1.083.07 1.515.21.433.136.792.331 1.078.587.292.25.511.554.657.914.151.36.226.758.226 1.195Zm11.602 3.055c0 .041-.01.078-.031.11a.27.27 0 0 1-.102.07.717.717 0 0 1-.195.046 2.56 2.56 0 0 1-.312.016c-.131 0-.237-.005-.321-.016a.717.717 0 0 1-.195-.047.27.27 0 0 1-.102-.07.191.191 0 0 1-.031-.11V10.72h-3.586v3.086c0 .041-.01.078-.031.11a.27.27 0 0 1-.102.07.717.717 0 0 1-.195.046c-.083.01-.19.016-.32.016-.125 0-.229-.005-.313-.016a.84.84 0 0 1-.203-.047.258.258 0 0 1-.101-.07.237.237 0 0 1-.024-.11v-7.03c0-.042.008-.076.024-.102a.222.222 0 0 1 .101-.078.531.531 0 0 1 .203-.047c.084-.01.188-.016.313-.016.13 0 .237.005.32.016a.45.45 0 0 1 .195.047c.047.02.081.047.102.078.021.026.031.06.031.101v2.86h3.586v-2.86c0-.041.01-.075.031-.101a.231.231 0 0 1 .102-.078.467.467 0 0 1 .195-.047c.084-.01.19-.016.321-.016.125 0 .229.005.312.016a.45.45 0 0 1 .195.047c.047.02.081.047.102.078.021.026.031.06.031.101v7.032Zm13.379-.008a.19.19 0 0 1-.031.11.229.229 0 0 1-.109.077c-.053.016-.12.029-.204.04a1.647 1.647 0 0 1-.312.023c-.12 0-.224-.008-.313-.024a1.287 1.287 0 0 1-.203-.039.228.228 0 0 1-.101-.078.19.19 0 0 1-.031-.11V4.993h-.016l-3.602 8.844a.243.243 0 0 1-.07.094.346.346 0 0 1-.125.07.9.9 0 0 1-.195.031c-.073.01-.162.016-.266.016a2.15 2.15 0 0 1-.281-.016 1.284 1.284 0 0 1-.195-.039.447.447 0 0 1-.125-.07.206.206 0 0 1-.055-.086l-3.445-8.844h-.008v8.805a.192.192 0 0 1-.032.11.224.224 0 0 1-.109.077c-.052.016-.12.029-.203.04a1.78 1.78 0 0 1-.32.023c-.125 0-.23-.008-.313-.024a1.287 1.287 0 0 1-.203-.039.232.232 0 0 1-.102-.078.25.25 0 0 1-.023-.11V4.5c0-.219.057-.375.172-.469a.588.588 0 0 1 .383-.14h.812c.167 0 .313.015.438.046a.957.957 0 0 1 .328.149.847.847 0 0 1 .234.258c.063.104.117.226.164.367l2.93 7.32h.039l3.047-7.297c.057-.156.12-.289.187-.398.068-.11.141-.195.219-.258a.72.72 0 0 1 .274-.14 1.14 1.14 0 0 1 .343-.047h.852c.078 0 .151.013.219.039a.36.36 0 0 1 .179.11.477.477 0 0 1 .125.187.683.683 0 0 1 .047.273v9.297Z"/><circle cx="216" cy="8.5" r="8" fill="url(#j)" opacity="0.8"/><path fill="#484443" d="M128.172 37.75c0 .542-.091 1.023-.274 1.445-.182.422-.44.779-.773 1.07a3.45 3.45 0 0 1-1.195.657 4.88 4.88 0 0 1-1.532.226c-.312 0-.609-.023-.89-.07a5.898 5.898 0 0 1-.75-.156 4.93 4.93 0 0 1-.539-.195 1.26 1.26 0 0 1-.274-.149.429.429 0 0 1-.078-.101 1.478 1.478 0 0 1-.047-.11 1.291 1.291 0 0 1-.023-.172 3.32 3.32 0 0 1 0-.476.557.557 0 0 1 .047-.172.268.268 0 0 1 .07-.102.18.18 0 0 1 .102-.03c.052 0 .132.033.242.1.109.063.255.133.437.212.188.073.417.143.688.21.276.068.601.102.976.102.349 0 .67-.042.961-.125.292-.083.542-.214.75-.39.214-.178.381-.399.5-.665.12-.27.18-.599.18-.984 0-.323-.052-.607-.156-.852a1.408 1.408 0 0 0-.469-.617 2.015 2.015 0 0 0-.797-.367 4.67 4.67 0 0 0-1.156-.125c-.318 0-.591.016-.82.047-.23.031-.443.047-.641.047-.146 0-.25-.034-.313-.102-.062-.067-.093-.198-.093-.39v-4.118c0-.171.039-.299.117-.382a.474.474 0 0 1 .351-.125h4.477c.042 0 .081.013.117.039.042.02.076.054.102.101a.516.516 0 0 1 .054.18c.016.073.024.159.024.258a.997.997 0 0 1-.078.437c-.052.104-.125.157-.219.157h-3.773v2.835a4.83 4.83 0 0 1 .554-.046c.193-.006.414-.008.664-.008.578 0 1.084.07 1.516.21.432.136.792.331 1.078.587.292.25.51.554.656.914.151.36.227.758.227 1.195Zm8.332-1.828c0 .776-.062 1.484-.187 2.125-.12.64-.323 1.193-.61 1.656a2.992 2.992 0 0 1-1.109 1.07c-.459.25-1.024.375-1.695.375-.636 0-1.172-.112-1.61-.336a2.683 2.683 0 0 1-1.047-1c-.265-.442-.455-.984-.57-1.624a13.44 13.44 0 0 1-.164-2.22c0-.77.062-1.476.187-2.116.125-.646.329-1.198.61-1.657.281-.463.651-.82 1.109-1.07.458-.255 1.021-.383 1.688-.383.64 0 1.177.115 1.609.344.438.224.789.557 1.055 1 .265.437.453.98.562 1.625.115.64.172 1.378.172 2.21Zm-1.375.094c0-.506-.018-.959-.055-1.36a7.553 7.553 0 0 0-.164-1.062 3.169 3.169 0 0 0-.273-.79 1.75 1.75 0 0 0-.399-.546 1.364 1.364 0 0 0-.539-.313 2.064 2.064 0 0 0-.671-.101c-.443 0-.803.104-1.079.312a2.133 2.133 0 0 0-.656.86 4.612 4.612 0 0 0-.32 1.28 13.7 13.7 0 0 0-.086 1.579c0 .755.039 1.398.117 1.93.078.526.201.955.367 1.289.172.333.388.575.649.726.265.151.586.227.961.227.291 0 .547-.047.765-.14a1.59 1.59 0 0 0 .571-.4c.161-.176.294-.387.398-.632.104-.245.188-.516.25-.813a6.55 6.55 0 0 0 .125-.96c.026-.35.039-.711.039-1.086Zm12.594 4.789c0 .041-.01.078-.031.11a.27.27 0 0 1-.102.07.717.717 0 0 1-.195.046 2.56 2.56 0 0 1-.312.016c-.131 0-.237-.005-.321-.016a.717.717 0 0 1-.195-.047.27.27 0 0 1-.102-.07.191.191 0 0 1-.031-.11V37.72h-3.586v3.086c0 .041-.01.078-.031.11a.27.27 0 0 1-.102.07.717.717 0 0 1-.195.046c-.083.01-.19.016-.32.016-.125 0-.229-.005-.313-.016a.84.84 0 0 1-.203-.047.258.258 0 0 1-.101-.07.237.237 0 0 1-.024-.11v-7.03c0-.042.008-.076.024-.102a.222.222 0 0 1 .101-.078.53.53 0 0 1 .203-.047 2.61 2.61 0 0 1 .313-.016c.13 0 .237.005.32.016a.45.45 0 0 1 .195.047.23.23 0 0 1 .102.078c.021.026.031.06.031.101v2.86h3.586v-2.86c0-.041.01-.075.031-.101a.23.23 0 0 1 .102-.078.466.466 0 0 1 .195-.047c.084-.01.19-.016.321-.016.125 0 .229.005.312.016a.45.45 0 0 1 .195.047.23.23 0 0 1 .102.078c.021.026.031.06.031.101v7.032Zm13.379-.008a.19.19 0 0 1-.031.11.229.229 0 0 1-.109.077c-.053.016-.12.029-.204.04a1.647 1.647 0 0 1-.312.023c-.12 0-.224-.008-.313-.024a1.287 1.287 0 0 1-.203-.039.228.228 0 0 1-.101-.078.19.19 0 0 1-.031-.11v-8.804h-.016l-3.602 8.844a.243.243 0 0 1-.07.094.346.346 0 0 1-.125.07.9.9 0 0 1-.195.031c-.073.01-.162.016-.266.016a2.15 2.15 0 0 1-.281-.016 1.284 1.284 0 0 1-.195-.039.447.447 0 0 1-.125-.07.206.206 0 0 1-.055-.086l-3.445-8.844h-.008v8.805a.192.192 0 0 1-.032.11.224.224 0 0 1-.109.077c-.052.016-.12.029-.203.04a1.78 1.78 0 0 1-.32.023c-.125 0-.23-.008-.313-.024a1.287 1.287 0 0 1-.203-.039.232.232 0 0 1-.102-.078.25.25 0 0 1-.023-.11V31.5c0-.219.057-.375.172-.469a.589.589 0 0 1 .383-.14h.812c.167 0 .313.015.438.047a.92.92 0 0 1 .328.148.847.847 0 0 1 .234.258c.063.104.117.226.164.367l2.93 7.32h.039l3.047-7.297c.057-.156.12-.289.187-.398.068-.11.141-.195.219-.258a.72.72 0 0 1 .274-.14c.099-.032.213-.047.343-.047h.852c.078 0 .151.013.219.039a.36.36 0 0 1 .179.11.49.49 0 0 1 .125.187.683.683 0 0 1 .047.273v9.297Z"/><circle cx="105" cy="35.5" r="8" fill="url(#k)" opacity="0.8"/><path fill="#484443" d="M239.242 40.469c0 .099-.008.182-.023.25a.55.55 0 0 1-.063.164.265.265 0 0 1-.094.094.222.222 0 0 1-.101.023h-5.281a.224.224 0 0 1-.102-.023.419.419 0 0 1-.094-.094.552.552 0 0 1-.062-.164 1.108 1.108 0 0 1-.024-.25c0-.094.008-.175.024-.242a.763.763 0 0 1 .055-.164.286.286 0 0 1 .085-.102.2.2 0 0 1 .118-.04h2.109v-7.687l-1.953 1.164a.867.867 0 0 1-.242.094c-.058.01-.104 0-.141-.031a.337.337 0 0 1-.078-.172 2.876 2.876 0 0 1-.008-.523.96.96 0 0 1 .039-.157.384.384 0 0 1 .063-.109.754.754 0 0 1 .117-.094l2.328-1.492a.276.276 0 0 1 .078-.039c.031-.01.07-.02.117-.031a.76.76 0 0 1 .164-.016 3.017 3.017 0 0 1 .547.008c.084.01.149.026.196.047.046.015.078.039.093.07a.161.161 0 0 1 .024.086v8.883h1.828c.042 0 .081.013.117.039.037.02.065.055.086.102a.445.445 0 0 1 .055.164c.015.067.023.148.023.242Zm8.262-4.547c0 .776-.062 1.484-.187 2.125-.12.64-.323 1.193-.61 1.656a2.992 2.992 0 0 1-1.109 1.07c-.459.25-1.024.375-1.695.375-.636 0-1.172-.112-1.61-.336a2.683 2.683 0 0 1-1.047-1c-.265-.442-.455-.984-.57-1.624a13.44 13.44 0 0 1-.164-2.22c0-.77.062-1.476.187-2.116.125-.646.329-1.198.61-1.657.281-.463.651-.82 1.109-1.07.458-.255 1.021-.383 1.688-.383.64 0 1.177.115 1.609.344.438.224.789.557 1.055 1 .265.437.453.98.562 1.625.115.64.172 1.378.172 2.21Zm-1.375.094c0-.506-.018-.959-.055-1.36a7.553 7.553 0 0 0-.164-1.062 3.169 3.169 0 0 0-.273-.79 1.75 1.75 0 0 0-.399-.546 1.364 1.364 0 0 0-.539-.313 2.064 2.064 0 0 0-.671-.101c-.443 0-.803.104-1.079.312a2.133 2.133 0 0 0-.656.86 4.612 4.612 0 0 0-.32 1.28 13.7 13.7 0 0 0-.086 1.579c0 .755.039 1.398.117 1.93.078.526.201.955.367 1.289.172.333.388.575.649.726.265.151.586.227.961.227.291 0 .547-.047.765-.14a1.59 1.59 0 0 0 .571-.4c.161-.176.294-.387.398-.632.104-.245.188-.516.25-.813a6.55 6.55 0 0 0 .125-.96c.026-.35.039-.711.039-1.086Zm9.324-.094c0 .776-.062 1.484-.187 2.125-.12.64-.323 1.193-.609 1.656a2.995 2.995 0 0 1-1.11 1.07c-.458.25-1.023.375-1.695.375-.636 0-1.172-.112-1.609-.336a2.67 2.67 0 0 1-1.047-1c-.266-.442-.456-.984-.571-1.624a13.44 13.44 0 0 1-.164-2.22c0-.77.063-1.476.188-2.116.125-.646.328-1.198.609-1.657a2.91 2.91 0 0 1 1.11-1.07c.458-.255 1.02-.383 1.687-.383.641 0 1.177.115 1.609.344.438.224.789.557 1.055 1 .266.437.453.98.563 1.625.114.64.171 1.378.171 2.21Zm-1.375.094c0-.506-.018-.959-.054-1.36a7.702 7.702 0 0 0-.164-1.062 3.168 3.168 0 0 0-.274-.79 1.764 1.764 0 0 0-.398-.546 1.37 1.37 0 0 0-.539-.313 2.07 2.07 0 0 0-.672-.101c-.443 0-.802.104-1.078.312a2.125 2.125 0 0 0-.656.86 4.576 4.576 0 0 0-.321 1.28 13.7 13.7 0 0 0-.086 1.579c0 .755.039 1.398.117 1.93.079.526.201.955.368 1.289.172.333.388.575.648.726.266.151.586.227.961.227.292 0 .547-.047.766-.14.224-.094.414-.227.57-.4.161-.176.294-.387.398-.632.105-.245.188-.516.25-.813.063-.296.105-.617.125-.96.026-.35.039-.711.039-1.086Zm12.595 4.789a.192.192 0 0 1-.032.11.265.265 0 0 1-.101.07.716.716 0 0 1-.196.046 2.56 2.56 0 0 1-.312.016c-.13 0-.237-.005-.32-.016a.716.716 0 0 1-.196-.047.265.265 0 0 1-.101-.07.192.192 0 0 1-.032-.11V37.72h-3.585v3.086a.192.192 0 0 1-.032.11.265.265 0 0 1-.101.07.716.716 0 0 1-.196.046c-.083.01-.19.016-.32.016a2.56 2.56 0 0 1-.312-.016.85.85 0 0 1-.204-.047.274.274 0 0 1-.101-.07.237.237 0 0 1-.024-.11v-7.03c0-.042.008-.076.024-.102a.233.233 0 0 1 .101-.078.535.535 0 0 1 .204-.047 2.58 2.58 0 0 1 .312-.016c.13 0 .237.005.32.016a.45.45 0 0 1 .196.047c.047.02.08.047.101.078.021.026.032.06.032.101v2.86h3.585v-2.86c0-.041.011-.075.032-.101a.227.227 0 0 1 .101-.078.467.467 0 0 1 .196-.047c.083-.01.19-.016.32-.016.125 0 .229.005.312.016a.45.45 0 0 1 .196.047c.047.02.08.047.101.078.021.026.032.06.032.101v7.032Zm13.379-.008a.192.192 0 0 1-.032.11.229.229 0 0 1-.109.077c-.052.016-.12.029-.203.04a1.652 1.652 0 0 1-.313.023c-.119 0-.224-.008-.312-.024a1.265 1.265 0 0 1-.203-.039.232.232 0 0 1-.102-.078.19.19 0 0 1-.031-.11v-8.804h-.016l-3.601 8.844a.246.246 0 0 1-.071.094.337.337 0 0 1-.125.07.9.9 0 0 1-.195.031c-.073.01-.161.016-.266.016a2.15 2.15 0 0 1-.281-.016 1.284 1.284 0 0 1-.195-.039.462.462 0 0 1-.125-.07.228.228 0 0 1-.055-.086l-3.445-8.844h-.008v8.805a.19.19 0 0 1-.031.11.227.227 0 0 1-.11.077 1.265 1.265 0 0 1-.203.04 1.78 1.78 0 0 1-.32.023 1.69 1.69 0 0 1-.312-.024 1.28 1.28 0 0 1-.204-.039.234.234 0 0 1-.101-.078.237.237 0 0 1-.024-.11V31.5c0-.219.058-.375.172-.469a.59.59 0 0 1 .383-.14h.813c.166 0 .312.015.437.047a.863.863 0 0 1 .563.406c.062.104.117.226.164.367l2.929 7.32h.039l3.047-7.297c.058-.156.12-.289.188-.398a.97.97 0 0 1 .219-.258.716.716 0 0 1 .273-.14 1.14 1.14 0 0 1 .344-.047h.851c.078 0 .151.013.219.039.073.02.133.057.18.11a.487.487 0 0 1 .125.187.7.7 0 0 1 .047.273v9.297Z"/><circle cx="216" cy="35.5" r="8" fill="url(#l)" opacity="0.8"/><path fill="#484443" d="M320.57 6.695c.073.032.107.094.102.188-.005.088-.068.234-.188.437-.119.209-.218.336-.296.383-.073.047-.141.047-.204 0l-1.664-1.21.219 2.046c.016.078-.018.138-.101.18-.084.041-.245.062-.485.062-.239 0-.401-.02-.484-.062-.084-.042-.117-.102-.102-.18l.219-2.047-1.656 1.211c-.063.047-.133.047-.211 0-.078-.047-.177-.174-.297-.383-.12-.203-.182-.349-.188-.437 0-.094.037-.156.11-.188l1.883-.836-1.883-.828c-.073-.036-.11-.099-.11-.187.006-.094.068-.242.188-.446.12-.203.219-.328.297-.375.078-.046.148-.046.211 0l1.656 1.204-.219-2.04c-.015-.083.018-.145.102-.187.083-.042.245-.063.484-.063.24 0 .401.021.485.063.083.042.117.104.101.188l-.219 2.039 1.664-1.204c.063-.046.131-.046.204 0 .078.047.177.175.296.383.12.198.183.344.188.438.005.088-.029.15-.102.187l-1.882.828 1.882.836Zm8.903 3.485c0 .614-.068 1.166-.203 1.656-.131.49-.326.906-.586 1.25a2.639 2.639 0 0 1-.953.789 2.985 2.985 0 0 1-1.305.273 2.285 2.285 0 0 1-1.102-.258 3.155 3.155 0 0 1-.5-.335 8.38 8.38 0 0 1-.531-.477v3.516a.19.19 0 0 1-.031.11.23.23 0 0 1-.102.077.713.713 0 0 1-.195.047c-.083.01-.19.016-.32.016a2.61 2.61 0 0 1-.313-.016.836.836 0 0 1-.203-.047.222.222 0 0 1-.101-.078.237.237 0 0 1-.024-.11v-9.82a.21.21 0 0 1 .024-.109c.015-.031.046-.057.093-.078a.543.543 0 0 1 .18-.04c.073-.01.161-.015.266-.015.109 0 .197.005.265.016a.543.543 0 0 1 .18.039.18.18 0 0 1 .094.078c.02.026.031.063.031.11v.945a7.37 7.37 0 0 1 .617-.57 3.59 3.59 0 0 1 .594-.399c.203-.11.409-.19.617-.242a2.6 2.6 0 0 1 .672-.086c.51 0 .945.099 1.305.297.359.198.651.468.875.812a3.6 3.6 0 0 1 .5 1.203c.104.454.156.935.156 1.446Zm-1.36.148c0-.36-.028-.706-.085-1.039a2.896 2.896 0 0 0-.282-.898 1.638 1.638 0 0 0-.531-.625c-.224-.157-.503-.235-.836-.235-.167 0-.331.026-.492.078a1.817 1.817 0 0 0-.492.235 3.221 3.221 0 0 0-.524.422 6.15 6.15 0 0 0-.578.64v2.797c.354.432.69.763 1.008.992.318.23.651.344 1 .344.323 0 .599-.078.828-.234.234-.157.422-.365.563-.625a3.1 3.1 0 0 0 .32-.875c.068-.323.101-.649.101-.977Zm12.587 2.406c0 .13-.006.237-.016.32a.386.386 0 0 1-.055.173.107.107 0 0 1-.101.039.44.44 0 0 1-.141-.055l-6.156-3.11c-.052-.026-.094-.088-.125-.187a1.515 1.515 0 0 1-.047-.43c0-.083.003-.161.008-.234a.982.982 0 0 1 .039-.18.908.908 0 0 1 .062-.117.18.18 0 0 1 .086-.07l6.133-3.094c.12-.057.201-.055.242.008.047.062.071.216.071.46 0 .152-.006.272-.016.36a.772.772 0 0 1-.039.219.263.263 0 0 1-.078.125.734.734 0 0 1-.141.086l-5.031 2.46 5 2.423c.068.036.12.07.156.101a.236.236 0 0 1 .094.125.706.706 0 0 1 .039.219c.01.088.016.208.016.36Zm11.648-3.812c0 .776-.062 1.484-.187 2.125-.12.64-.323 1.193-.609 1.656a2.995 2.995 0 0 1-1.11 1.07c-.458.25-1.023.375-1.695.375-.636 0-1.172-.111-1.609-.335a2.67 2.67 0 0 1-1.047-1c-.266-.443-.456-.985-.571-1.626a13.44 13.44 0 0 1-.164-2.218c0-.771.063-1.477.188-2.117.125-.646.328-1.198.609-1.657a2.91 2.91 0 0 1 1.11-1.07c.458-.255 1.02-.383 1.687-.383.641 0 1.177.115 1.609.344.438.224.789.557 1.055 1 .266.437.453.98.563 1.625.114.64.171 1.378.171 2.21Zm-1.375.094c0-.506-.018-.959-.054-1.36a7.705 7.705 0 0 0-.164-1.062 3.169 3.169 0 0 0-.274-.79 1.765 1.765 0 0 0-.398-.546 1.37 1.37 0 0 0-.539-.313 2.07 2.07 0 0 0-.672-.101c-.443 0-.802.104-1.078.312a2.124 2.124 0 0 0-.656.86 4.576 4.576 0 0 0-.321 1.28c-.057.49-.086 1.016-.086 1.579 0 .755.039 1.398.117 1.93.079.526.201.955.368 1.289.172.333.388.575.648.726.266.151.586.227.961.227.292 0 .547-.047.766-.14a1.59 1.59 0 0 0 .57-.4c.161-.176.294-.387.398-.632.105-.245.188-.516.25-.813.063-.296.105-.617.125-.96.026-.35.039-.711.039-1.086Zm4.669 3.867c0 .161-.008.31-.024.445a2.15 2.15 0 0 1-.078.383c-.036.12-.086.237-.148.351-.058.12-.131.245-.219.376l-1.07 1.609a.43.43 0 0 1-.094.094.46.46 0 0 1-.125.07.52.52 0 0 1-.172.039 1.57 1.57 0 0 1-.242.016c-.089 0-.164-.006-.227-.016a.236.236 0 0 1-.125-.04.096.096 0 0 1-.047-.07c0-.03.011-.067.032-.109l1.039-2.148v-1c0-.14.013-.253.039-.336a.375.375 0 0 1 .14-.188.6.6 0 0 1 .235-.086c.093-.015.208-.023.343-.023.131 0 .243.008.336.023.094.016.17.045.227.086a.338.338 0 0 1 .133.188.986.986 0 0 1 .047.336Zm8.496-3.961c0 .776-.063 1.484-.188 2.125-.119.64-.323 1.193-.609 1.656a2.992 2.992 0 0 1-1.109 1.07c-.459.25-1.024.375-1.696.375-.635 0-1.172-.111-1.609-.335a2.683 2.683 0 0 1-1.047-1c-.266-.443-.456-.985-.57-1.626a13.332 13.332 0 0 1-.164-2.218c0-.771.062-1.477.187-2.117.125-.646.328-1.198.61-1.657.281-.463.651-.82 1.109-1.07.458-.255 1.021-.383 1.687-.383.641 0 1.177.115 1.61.344a2.59 2.59 0 0 1 1.054 1c.266.437.454.98.563 1.625.115.64.172 1.378.172 2.21Zm-1.375.094c0-.506-.018-.959-.055-1.36a7.556 7.556 0 0 0-.164-1.062 3.21 3.21 0 0 0-.273-.79 1.783 1.783 0 0 0-.399-.546 1.37 1.37 0 0 0-.539-.313 2.07 2.07 0 0 0-.672-.101c-.442 0-.802.104-1.078.312a2.124 2.124 0 0 0-.656.86 4.611 4.611 0 0 0-.32 1.28c-.058.49-.086 1.016-.086 1.579 0 .755.039 1.398.117 1.93.078.526.2.955.367 1.289.172.333.388.575.648.726.266.151.586.227.961.227.292 0 .547-.047.766-.14a1.59 1.59 0 0 0 .57-.4c.162-.176.295-.387.399-.632.104-.245.187-.516.25-.813.062-.296.104-.617.125-.96.026-.35.039-.711.039-1.086Zm8.941 1.734c0 .542-.091 1.023-.273 1.445-.182.422-.44.779-.773 1.07a3.455 3.455 0 0 1-1.196.657 4.874 4.874 0 0 1-1.531.226 5.42 5.42 0 0 1-.891-.07 5.898 5.898 0 0 1-.75-.156 5.089 5.089 0 0 1-.539-.195 1.245 1.245 0 0 1-.273-.149.381.381 0 0 1-.078-.101.938.938 0 0 1-.047-.11 1.275 1.275 0 0 1-.024-.172 3.381 3.381 0 0 1-.007-.242c0-.088.002-.166.007-.234a.586.586 0 0 1 .047-.172.27.27 0 0 1 .071-.102.178.178 0 0 1 .101-.03c.052 0 .133.033.242.1.11.063.256.133.438.212.187.072.416.143.687.21.276.068.602.102.977.102.349 0 .669-.042.961-.125.291-.083.541-.213.75-.39.213-.178.38-.399.5-.665.12-.27.18-.599.18-.984 0-.323-.053-.607-.157-.852a1.413 1.413 0 0 0-.468-.617 2.021 2.021 0 0 0-.797-.367 4.681 4.681 0 0 0-1.157-.125c-.317 0-.591.016-.82.047a4.762 4.762 0 0 1-.641.047c-.145 0-.25-.034-.312-.102-.063-.067-.094-.198-.094-.39V4.398c0-.171.039-.299.117-.382a.478.478 0 0 1 .352-.125h4.477a.2.2 0 0 1 .117.039.24.24 0 0 1 .101.101.515.515 0 0 1 .055.18c.016.073.023.159.023.258a.998.998 0 0 1-.078.437c-.052.104-.125.157-.218.157h-3.774v2.835a4.83 4.83 0 0 1 .555-.046c.192-.006.414-.008.664-.008.578 0 1.083.07 1.515.21a2.9 2.9 0 0 1 1.079.587c.291.25.51.554.656.914.151.36.226.758.226 1.195Z"/><defs><linearGradient id="a" x1="144" x2="144" y1="196" y2="272" gradientUnits="userSpaceOnUse"><stop stop-color="#D5E4F0"/><stop offset="1" stop-color="#5AA6E6"/></linearGradient><linearGradient id="b" x1="184" x2="184" y1="216" y2="272" gradientUnits="userSpaceOnUse"><stop stop-color="#F2F2F2"/><stop offset="1" stop-color="#AAA"/></linearGradient><linearGradient id="c" x1="224" x2="224" y1="220" y2="272" gradientUnits="userSpaceOnUse"><stop stop-color="#F9E8E8"/><stop offset="1" stop-color="#CF5C5C"/></linearGradient><linearGradient id="d" x1="264" x2="264" y1="190" y2="272" gradientUnits="userSpaceOnUse"><stop stop-color="#E4C0B1"/><stop offset="1" stop-color="#E6775A"/></linearGradient><linearGradient id="e" x1="392" x2="392" y1="196" y2="272" gradientUnits="userSpaceOnUse"><stop stop-color="#D5E4F0"/><stop offset="1" stop-color="#5AA6E6"/></linearGradient><linearGradient id="f" x1="432" x2="432" y1="224" y2="272" gradientUnits="userSpaceOnUse"><stop stop-color="#F2F2F2"/><stop offset="1" stop-color="#AAA"/></linearGradient><linearGradient id="g" x1="472" x2="472" y1="154" y2="272" gradientUnits="userSpaceOnUse"><stop stop-color="#F9E8E8"/><stop offset="1" stop-color="#CF5C5C"/></linearGradient><linearGradient id="h" x1="512" x2="512" y1="64" y2="272" gradientUnits="userSpaceOnUse"><stop stop-color="#E4C0B1"/><stop offset="1" stop-color="#E6775A"/></linearGradient><linearGradient id="i" x1="105" x2="105" y1="0.5" y2="16.5" gradientUnits="userSpaceOnUse"><stop stop-color="#D5E4F0"/><stop offset="1" stop-color="#5AA6E6"/></linearGradient><linearGradient id="j" x1="216" x2="216" y1="0.5" y2="16.5" gradientUnits="userSpaceOnUse"><stop stop-color="#F2F2F2"/><stop offset="1" stop-color="#AAA"/></linearGradient><linearGradient id="k" x1="105" x2="105" y1="27.5" y2="43.5" gradientUnits="userSpaceOnUse"><stop stop-color="#F9E8E8"/><stop offset="1" stop-color="#CF5C5C"/></linearGradient><linearGradient id="l" x1="216" x2="216" y1="27.5" y2="43.5" gradientUnits="userSpaceOnUse"><stop stop-color="#E4C0B1"/><stop offset="1" stop-color="#E6775A"/></linearGradient></defs></svg>